<svg xmlns="http://www.w3.org/2000/svg" viewBox="0 0 9.54 15.2"><defs><style>.cls-1{fill:#fff;}</style></defs><title>10</title><g id="レイヤー_2" data-name="レイヤー 2"><g id="opening-1"><path class="cls-1" d="M1.78,0a14.33,14.33,0,0,0-.14,2.26V9.5L5.26,6A8.67,8.67,0,0,0,6.68,4.42H9.06l-.82.74c-.2.18-.44.4-.72.68a4.38,4.38,0,0,0-.32.32L4.42,8.74,7.8,13.1a18.44,18.44,0,0,0,1.74,2.1H7.26A8.54,8.54,0,0,0,6,13.3L3.34,9.66l-1.7,1.62V13a14.91,14.91,0,0,0,.14,2.24H0a14.84,14.84,0,0,0,.14-2.26V2.26A14.5,14.5,0,0,0,0,0Z"/></g></g></svg>