<svg xmlns="http://www.w3.org/2000/svg" viewBox="0 0 9.54 10.98"><defs><style>.cls-1{fill:#fff;}</style></defs><title>11</title><g id="レイヤー_2" data-name="レイヤー 2"><g id="opening-1"><path class="cls-1" d="M7.88,9.48a6.14,6.14,0,0,1,.06-.88A4.37,4.37,0,0,1,3.9,11,3.64,3.64,0,0,1,.7,9.5,4.37,4.37,0,0,1,.14,7.18V2.24A14.39,14.39,0,0,0,0,0H1.8a15.38,15.38,0,0,0-.14,2.26V6.92c0,1.78.86,2.78,2.42,2.78A3.44,3.44,0,0,0,7,8.12a4.67,4.67,0,0,0,.92-2V2.26A15.56,15.56,0,0,0,7.74,0H9.52a15,15,0,0,0-.14,2.26V8.52a13.51,13.51,0,0,0,.16,2.26H7.88Z"/></g></g></svg>