<svg xmlns="http://www.w3.org/2000/svg" viewBox="0 0 15.8 11"><defs><style>.cls-1{fill:#fff;}</style></defs><title>14</title><g id="レイヤー_2" data-name="レイヤー 2"><g id="opening-1"><path class="cls-1" d="M0,11A15,15,0,0,0,.14,8.74V2.48A14.5,14.5,0,0,0,0,.22H1.62v1.1c0,.1,0,.34,0,.72a4.12,4.12,0,0,1,.76-1A3.89,3.89,0,0,1,5.16,0,3.23,3.23,0,0,1,7.74,1a2.63,2.63,0,0,1,.62,1.16A3.93,3.93,0,0,1,12.06,0,3.46,3.46,0,0,1,15,1.22a4.07,4.07,0,0,1,.68,2.6V8.76A14.05,14.05,0,0,0,15.8,11H14a12.14,12.14,0,0,0,.14-2.26V4c0-1.9-.7-2.72-2.3-2.72A3,3,0,0,0,9.32,2.76a4.3,4.3,0,0,0-.66,2.06V8.76A13.89,13.89,0,0,0,8.8,11H7a14.33,14.33,0,0,0,.14-2.26V4c0-1.76-.8-2.72-2.24-2.72A3.13,3.13,0,0,0,2.28,2.82a4.46,4.46,0,0,0-.66,2V8.74A15.94,15.94,0,0,0,1.76,11Z"/></g></g></svg>