<svg xmlns="http://www.w3.org/2000/svg" viewBox="0 0 9.54 10.98"><defs><style>.cls-1{fill:#fff;}</style></defs><title>16</title><g id="レイヤー_2" data-name="レイヤー 2"><g id="opening-1"><path class="cls-1" d="M0,11A12.76,12.76,0,0,0,.16,8.72V2.46A13.51,13.51,0,0,0,0,.2H1.66V1.56a5.36,5.36,0,0,1-.06.86A4.34,4.34,0,0,1,5.64,0a3.61,3.61,0,0,1,3.2,1.5A4.08,4.08,0,0,1,9.4,3.8V8.74A13.57,13.57,0,0,0,9.54,11H7.74a16.13,16.13,0,0,0,.14-2.26V4.06C7.88,2.26,7,1.3,5.44,1.3A3.48,3.48,0,0,0,2.58,2.88a4.28,4.28,0,0,0-.92,2V8.72A16.13,16.13,0,0,0,1.8,11Z"/></g></g></svg>