<svg xmlns="http://www.w3.org/2000/svg" viewBox="0 0 8.72 11.06"><defs><style>.cls-1{fill:#fff;}</style></defs><title>3</title><g id="レイヤー_2" data-name="レイヤー 2"><g id="opening-1"><path class="cls-1" d="M8.32,1.28A16.87,16.87,0,0,0,7,2.92L2.68,8.66l-.76.94c1,0,1,0,1.38,0H6.46a13.67,13.67,0,0,0,2.26-.14v1.64a14.33,14.33,0,0,0-2.26-.14H2.22C1,10.92.56,10.94,0,11V9.66A15.93,15.93,0,0,0,1.36,8l4.4-5.88a7.15,7.15,0,0,1,.6-.72c-.54,0-.72,0-1,0H2.64A16,16,0,0,0,.4,1.62V0A15.84,15.84,0,0,0,2.64.14H6.2A17.86,17.86,0,0,0,8.32.08Z"/></g></g></svg>