<svg xmlns="http://www.w3.org/2000/svg" viewBox="0 0 9.08 11.3"><defs><style>.cls-1{fill:#fff;}</style></defs><title>6</title><g id="レイヤー_2" data-name="レイヤー 2"><g id="opening-1"><path class="cls-1" d="M7.46,9.68A5.21,5.21,0,0,1,5.62,10.9a5.9,5.9,0,0,1-2.08.4c-2.2,0-3.54-1.14-3.54-3C0,6.66,1,5.5,2.86,5a16.33,16.33,0,0,1,4.6-.52V3.3c0-1.36-.86-2.06-2.52-2.06a3.28,3.28,0,0,0-2.48.86,2.81,2.81,0,0,0-.62,1.16L.28,2.92A4,4,0,0,1,1.4,1.14,5,5,0,0,1,4.92,0c2.64,0,4,1.12,4,3.28V8.9a12.79,12.79,0,0,0,.16,2.2H7.46Zm0-4A12.35,12.35,0,0,0,3,6.22,2.12,2.12,0,0,0,1.52,8.28c0,1.1.82,1.8,2.12,1.8a4.52,4.52,0,0,0,3.2-1.42,2.18,2.18,0,0,0,.62-1.72Z"/></g></g></svg>