<svg xmlns="http://www.w3.org/2000/svg" viewBox="0 0 12.32 15.2"><defs><style>.cls-1{fill:#fff;}</style></defs><title>7</title><g id="レイヤー_2" data-name="レイヤー 2"><g id="opening-1"><path class="cls-1" d="M2.1,0a10.43,10.43,0,0,0,1,1.8l6.32,9.46c.22.34.82,1.32,1.3,2.18-.08-1.6-.12-2.48-.12-2.66V2.3A12.66,12.66,0,0,0,10.46,0h1.86a12.52,12.52,0,0,0-.16,2.3V13a11.44,11.44,0,0,0,.16,2.24H10.14a13.53,13.53,0,0,0-1-1.8L2.68,3.76c-.16-.24-.82-1.38-1.1-1.92.08.94.12,1.92.12,2.44v8.54a12.77,12.77,0,0,0,.16,2.38H0a12.77,12.77,0,0,0,.16-2.38V2.24A12.52,12.52,0,0,0,0,0Z"/></g></g></svg>