<svg xmlns="http://www.w3.org/2000/svg" viewBox="0 0 1110.3 75.36"><defs><style>.cls-1{fill:#950732;}</style></defs><title>1</title><g id="レイヤー_2" data-name="レイヤー 2"><g id="top"><path d="M2.1,47.37a.62.62,0,0,1-.7.7A1.89,1.89,0,0,1,.73,48c-.21-.06-.31-.26-.31-.59q0-10.57-.21-21T0,5.37a.62.62,0,0,1,.7-.7q5.18,0,10.26.25t10.25.24c.51,0,.77.23.77.7s-.26.7-.77.7H2.8a.62.62,0,0,0-.7.7Z"/><path d="M40.6,42.89a4,4,0,0,0-2.24.7,14.12,14.12,0,0,0-2,1.58c-.61.58-1.19,1.1-1.75,1.57a2.61,2.61,0,0,1-1.68.7c-.37,0-.49-.14-.35-.42a2.39,2.39,0,0,1,.35-.56,27.15,27.15,0,0,1,2.31-2.94c.84-.93,1.66-1.89,2.45-2.87,1.45-1.77,2.83-3.58,4.17-5.42a50.69,50.69,0,0,0,3.6-5.78c.14-.23.43-.78.88-1.64L47.77,25c.49-1,.94-1.87,1.33-2.66a7.69,7.69,0,0,0,.6-1.33c0-.28,0-.58,0-.91s-.25-.49-.67-.49H33.25a.31.31,0,0,1-.35-.35.32.32,0,0,1,.21-.35,1.23,1.23,0,0,1,.42-.07c.28,0,.78,0,1.5.1a21,21,0,0,0,2.28.11,14.47,14.47,0,0,0,2.1-.14c.61-.09.91-.33.91-.7v-12a.62.62,0,0,1,.7-.7,45.34,45.34,0,0,1,4.79.25c1.61.16,3.19.38,4.73.66a.76.76,0,0,1,.31.07q.18.08.18.21a.73.73,0,0,1-.28.63,3,3,0,0,1-.6.35,2.37,2.37,0,0,0-.59.38.93.93,0,0,0-.28.74v8.26l.28.49.35.14.35-.14c.14-.14.41-.39.8-.74s.82-.72,1.26-1.11.87-.75,1.26-1.06a2.3,2.3,0,0,1,.74-.45,4,4,0,0,1,1.22.8c.68.54,1.42,1.16,2.21,1.86l2.24,2c.7.62,1.17,1,1.4,1.22a5.34,5.34,0,0,1-.88,1.57c-.53.77-1.19,1.66-2,2.67S56.93,26.45,56,27.59s-1.84,2.24-2.73,3.29-1.68,2-2.38,2.77S49.7,35,49.42,35.26l-.21.49v31.5a1.8,1.8,0,0,1-1,1.58,7.13,7.13,0,0,1-2.2.87,15.61,15.61,0,0,1-2.56.35c-.86,0-1.52.07-2,.07a.62.62,0,0,1-.7-.7V43.24Zm17.29-13a7.13,7.13,0,0,1,1.19.56c.61.33,1.25.69,1.92,1.09s1.3.78,1.86,1.15a4.3,4.3,0,0,1,1,.77,4.89,4.89,0,0,1-1.64.7c-.91.28-1.87.61-2.88,1a15.67,15.67,0,0,0-2.73,1.3c-.81.48-1.22,1-1.22,1.57,0,.14.09.26.28.35.7.37,1.41.78,2.13,1.22a14.38,14.38,0,0,1,2,1.48,7.09,7.09,0,0,1,1.51,1.85,4.8,4.8,0,0,1,.59,2.38,3.77,3.77,0,0,1-1,2.69,3.4,3.4,0,0,1-2.62,1.09A3.85,3.85,0,0,1,55.48,48a9.74,9.74,0,0,1-2-2.62,18.34,18.34,0,0,1-1.29-3.22c-.33-1.12-.58-2.1-.77-2.94a.35.35,0,0,0,0-.14.25.25,0,0,1,0-.14.49.49,0,0,1,.31-.49,7.24,7.24,0,0,1,.77-.28,6.07,6.07,0,0,0,.95-.38,2.51,2.51,0,0,0,.91-.88A15.18,15.18,0,0,0,56,33.51a29.82,29.82,0,0,1,1.51-3.43ZM68.11,15.66l-.49-.21H60.48c-.47,0-.65-.16-.56-.49s.26-.49.49-.49h24l.49-.21,1-1c.48-.51,1-1.05,1.57-1.61s1.08-1.06,1.57-1.51.81-.66,1-.66.57.34,1.29,1,1.51,1.43,2.35,2.25S95.25,14.27,95.9,15a6,6,0,0,1,1,1.22c0,.14-.09.24-.28.32s-.4.15-.63.24-.49.21-.77.35a1.68,1.68,0,0,0-.7.7,4.27,4.27,0,0,0-.25,1.75c0,1,0,2.07,0,3.25s0,2.33,0,3.4,0,1.82,0,2.24c0,1.77,0,3.57-.07,5.39s-.12,3.62-.21,5.39-.16,3.51-.21,5.63-.18,4.3-.39,6.52a46.46,46.46,0,0,1-1.08,6.54,19.6,19.6,0,0,1-2.28,5.71,12.33,12.33,0,0,1-3.88,4,10.72,10.72,0,0,1-6,1.54,2.78,2.78,0,0,1-.74-.07c-.16,0-.31-.23-.45-.56a6.29,6.29,0,0,1-.46-1.79,6,6,0,0,0-.52-1.85,4.14,4.14,0,0,0-1-1.44c-.42-.39-.85-.78-1.29-1.15a8.94,8.94,0,0,1-1.23-1.23,4.61,4.61,0,0,1-.84-1.5.66.66,0,0,1,.7-.56h6.51a1.88,1.88,0,0,0,1.68-1.12,11.82,11.82,0,0,0,1.05-2.63,18.8,18.8,0,0,0,.59-3c.12-1,.2-1.73.25-2.24Q85,43.94,85.22,38c.12-4,.3-8,.53-12.15.09-1.4.19-2.79.28-4.16s.14-2.77.14-4.17A8.3,8.3,0,0,0,86,16.25c-.09-.53-.37-.8-.84-.8h-7c-.28,0-.48.22-.59.66a11.16,11.16,0,0,0-.29,1.54,14.24,14.24,0,0,0-.1,1.68v1.09q-.13,3.7-.39,7.35t-.59,7.35a48.25,48.25,0,0,1-5.85,18.69A38,38,0,0,1,56.7,67.67l-1.47.81a5.53,5.53,0,0,1-1.54.59l-.14-.21a76.78,76.78,0,0,0,7.59-12.28A65.77,65.77,0,0,0,65.66,44.4a76.61,76.61,0,0,0,2.17-12.85q.56-6.64.56-14.35a4.45,4.45,0,0,0,0-.53,2.82,2.82,0,0,1,0-.52Z"/><path d="M134.61,66.2a.24.24,0,0,1,.1-.21,1.46,1.46,0,0,0,.25-.21c.65-.23,1.33-.44,2-.63s1.38-.4,2-.63a55.7,55.7,0,0,0,6.75-2.8,31,31,0,0,0,6.13-4,21.85,21.85,0,0,0,5.74-7.14,20,20,0,0,0,2-9,20.32,20.32,0,0,0-.77-5.18,21.32,21.32,0,0,0-2.24-5.36A15.26,15.26,0,0,0,153,26.9a7.5,7.5,0,0,0-4.86-1.72c-.14,0-.34.26-.6.77s-.52,1.1-.8,1.75-.54,1.28-.77,1.89-.4,1-.49,1.19c-.84,2-1.66,3.95-2.45,6a44.12,44.12,0,0,1-2.8,5.84l-.49.81a1.72,1.72,0,0,0-.28.94,2.18,2.18,0,0,0,.39,1.22q.38.6.84,1.26a9.66,9.66,0,0,1,.83,1.54,5.28,5.28,0,0,1,.39,2.14A1.76,1.76,0,0,1,141,52.2a3.81,3.81,0,0,1-1.92.49,5.85,5.85,0,0,1-2.34-.49,6,6,0,0,0-2.35-.49c-.33,0-1,.51-2,1.54s-2.18,2.17-3.61,3.43A28.24,28.24,0,0,1,124,60.11a11.47,11.47,0,0,1-5.74,1.54,6,6,0,0,1-3.54-1,8.55,8.55,0,0,1-2.38-2.55A11.14,11.14,0,0,1,111,54.65a16.75,16.75,0,0,1-.42-3.64,20.44,20.44,0,0,1,1.75-8.51,36.32,36.32,0,0,1,4.55-7.45c.14-.19.4-.5.77-.95l1.15-1.36,1.09-1.3a2.68,2.68,0,0,0,.56-.87,9.24,9.24,0,0,0-1-4.24,26,26,0,0,0-2.24-3.67l-2.24-3.08a4.43,4.43,0,0,1-1-2.45c0-.28,0-.46.14-.53a1.12,1.12,0,0,1,.56-.1,7.85,7.85,0,0,1,3.85,1.36,42.25,42.25,0,0,1,4.31,3c1.37,1.09,2.55,2.1,3.53,3a10.25,10.25,0,0,0,1.61,1.37,1.74,1.74,0,0,0,.56-.07,15.44,15.44,0,0,0,2.27-.87,23.21,23.21,0,0,1,2.28-.95c.42-.14,1-.29,1.71-.46l2.17-.45Q138,22.24,139,22a6.29,6.29,0,0,0,1.47-.53,2,2,0,0,0,1-1.19,6.73,6.73,0,0,0,.17-1.54,13.93,13.93,0,0,0-.07-1.47,13.93,13.93,0,0,1-.07-1.47,5.63,5.63,0,0,0-.28-2,2.6,2.6,0,0,0-.81-1.12A4.13,4.13,0,0,0,139,12l-1.82-.59-.28-.14a.24.24,0,0,1-.14-.21,1.23,1.23,0,0,1,.66-1A5.82,5.82,0,0,1,139,9.33,9.94,9.94,0,0,1,140.77,9a10.91,10.91,0,0,1,1.33-.11,11.53,11.53,0,0,1,2.66.38,14.89,14.89,0,0,1,3,1.09,8.56,8.56,0,0,1,2.45,1.75,3.32,3.32,0,0,1,1,2.38,4.2,4.2,0,0,1-.32,1.61c-.21.51-.43,1-.66,1.54s-.46,1-.67,1.54a4.2,4.2,0,0,0-.31,1.61c0,.19.21.36.63.52a6,6,0,0,1,.84.39,41.4,41.4,0,0,1,8.4,4.69,28,28,0,0,1,7.07,7.32,17.38,17.38,0,0,1,2.73,9.76,20.11,20.11,0,0,1-1.44,7.84,18.75,18.75,0,0,1-3.92,6,22.18,22.18,0,0,1-5.77,4.27,38,38,0,0,1-7,2.8,44,44,0,0,1-7.52,1.54,62.44,62.44,0,0,1-7.49.46,5.25,5.25,0,0,1-.56,0,3.52,3.52,0,0,0-.56,0Zm-13.3-31.85a.58.58,0,0,0-.35.21,13.15,13.15,0,0,0-1,1.57q-.42.81-.84,1.65a33.62,33.62,0,0,0-1.33,3.12,19.8,19.8,0,0,0-.77,2.72,18.68,18.68,0,0,0-.35,2.84c0,1-.07,2.1-.07,3.36a2,2,0,0,0,.31,1.08,4.16,4.16,0,0,0,.78,1,3.78,3.78,0,0,0,1,.67,2.65,2.65,0,0,0,1,.24,7.31,7.31,0,0,0,2.2-.49A18.24,18.24,0,0,0,124.81,51a13,13,0,0,0,2.45-1.72,2.58,2.58,0,0,0,1-1.85,2.28,2.28,0,0,0-.56-1.09q-.56-.74-.84-1.08a12.32,12.32,0,0,1-1.54-2.62c-.47-1.06-.91-2.11-1.33-3.15s-.82-2-1.19-2.91a7,7,0,0,0-1-1.89A1.75,1.75,0,0,0,121.31,34.35Zm12.25,6.16a20.8,20.8,0,0,0,1.89-3q1.19-2.15,2.31-4.62t1.92-4.77a11.3,11.3,0,0,0,.81-3.32.56.56,0,0,0-.63-.63,17,17,0,0,0-2.9.42,35.34,35.34,0,0,0-4.21,1.15A22.93,22.93,0,0,0,129,27.46c-1.09.62-1.64,1.27-1.64,1.92a10.41,10.41,0,0,0,.56,2.73,31,31,0,0,0,1.4,3.68,18.78,18.78,0,0,0,1.89,3.29,3.41,3.41,0,0,0,2,1.57Z"/><path d="M220.36,56.47c-.51.09-.77.35-.77.77a10.08,10.08,0,0,1-1.12,5.07,8.41,8.41,0,0,1-3,3,11.93,11.93,0,0,1-4.35,1.5,32.21,32.21,0,0,1-5.06.39,28.74,28.74,0,0,1-4.63-.39,14.51,14.51,0,0,1-4.38-1.4,9,9,0,0,1-3.3-2.79,7.46,7.46,0,0,1-1.3-4.52,6.88,6.88,0,0,1,1.78-4.9,12.45,12.45,0,0,1,4.34-2.94A21.68,21.68,0,0,1,204,48.88a39.44,39.44,0,0,1,5.21-.39l.84,0a3.33,3.33,0,0,0,1-.06,2.59,2.59,0,0,0,.77-.32.86.86,0,0,0,.31-.77V41.84a.71.71,0,0,0-.24-.56.91.91,0,0,0-.6-.21c-.89,0-1.91,0-3.08.1s-2.37.11-3.6.11a32,32,0,0,1-3.68-.21,10.3,10.3,0,0,1-3.29-.91,5.94,5.94,0,0,1-2.34-1.93,5.42,5.42,0,0,1-.88-3.25,6.75,6.75,0,0,1,.14-1.15,9.79,9.79,0,0,1,.39-1.48,4.36,4.36,0,0,1,.66-1.29,1.22,1.22,0,0,1,1-.56c.28,0,.49.23.63.7l.46,1.57a5,5,0,0,0,.73,1.58,1.75,1.75,0,0,0,1.54.7h11a.62.62,0,0,0,.7-.7v-6a.71.71,0,0,0-.24-.56.91.91,0,0,0-.6-.21c-.7,0-1.39,0-2.06,0s-1.37,0-2.07,0c-1.31,0-2.93-.09-4.86-.28a25.5,25.5,0,0,1-5.64-1.19,14.2,14.2,0,0,1-4.65-2.52,5.34,5.34,0,0,1-1.93-4.34.62.62,0,0,1,.7-.7,10.6,10.6,0,0,1,3.08.46c1,.3,2,.64,3,1s2,.71,3.08,1a11.52,11.52,0,0,0,3.26.46l1.78,0c.92,0,1.86-.05,2.84-.1s1.87-.12,2.66-.21,1.26-.23,1.4-.42a1.18,1.18,0,0,0,.1-.25c0-.06.06-.15.11-.24V15a2.15,2.15,0,0,0-.21-1,2.27,2.27,0,0,0-.7-.73,5.25,5.25,0,0,0-1.12-.52c-.56-.21-1.14-.45-1.75-.71s-1.14-.5-1.61-.73-.7-.47-.7-.7c0-.51.39-1,1.15-1.3a9.16,9.16,0,0,1,2.87-.69,21.66,21.66,0,0,1,3.71,0,15.36,15.36,0,0,1,3.71.7,8.26,8.26,0,0,1,2.87,1.54A3.05,3.05,0,0,1,221,13.21a5.11,5.11,0,0,1-.32,1.5c-.21.63-.39,1.28-.55,1.93a6.76,6.76,0,0,0-.25,1.68c0,.47.21.7.63.7a10.56,10.56,0,0,0,2.66-.35c.89-.23,1.75-.49,2.59-.77s1.69-.54,2.55-.77a10.52,10.52,0,0,1,2.7-.35,12.26,12.26,0,0,1,1.71.14,6.14,6.14,0,0,1,1.75.52,4.27,4.27,0,0,1,1.37,1,2.35,2.35,0,0,1,.56,1.61,3,3,0,0,1-1.19,2.49,9,9,0,0,1-3,1.5,24.74,24.74,0,0,1-4,.84l-4.21.52c-1.33.17-2.5.35-3.53.56a3.78,3.78,0,0,0-2,.88,2.62,2.62,0,0,0-.28,1.05c-.09.61-.17,1.27-.24,2s-.13,1.43-.18,2.1-.07,1.11-.07,1.3a.78.78,0,0,0,.28.6,1,1,0,0,0,.63.24,10.21,10.21,0,0,0,3-.45c1-.31,1.95-.63,2.91-1s1.92-.68,2.9-1a10.16,10.16,0,0,1,3.08-.46,15.71,15.71,0,0,1,1.58.07,3.66,3.66,0,0,1,1.29.35,2.29,2.29,0,0,1,.91.84,3.08,3.08,0,0,1,.35,1.61,3.33,3.33,0,0,1-1.08,2.59,8.32,8.32,0,0,1-2.77,1.58,19.46,19.46,0,0,1-3.68.87c-1.33.19-2.58.33-3.77.42s-2.23.19-3.12.28a3.67,3.67,0,0,0-1.68.42,2.67,2.67,0,0,0-.49.45,1,1,0,0,0-.28.67c0,.23,0,.73.11,1.5s.17,1.6.29,2.49l.33,2.42a6.07,6.07,0,0,0,.22,1.22q.21.42,1.77.87L224.11,51c1.42.45,2.93,1,4.55,1.58a23.58,23.58,0,0,1,4.44,2.21,13.22,13.22,0,0,1,3.4,3.07,6.67,6.67,0,0,1,1.36,4.17,3.79,3.79,0,0,1-.74,2.38,2.65,2.65,0,0,1-2.27,1A6,6,0,0,1,231,64.06a33.44,33.44,0,0,1-3.32-3,33.39,33.39,0,0,0-3.36-3.08A6.51,6.51,0,0,0,220.36,56.47Zm-25.13,1.19a2.38,2.38,0,0,0,.81,1.89A5.11,5.11,0,0,0,198,60.6a11.94,11.94,0,0,0,2.38.46c.84.06,1.54.1,2.1.1a20.41,20.41,0,0,0,3.33-.28,10.25,10.25,0,0,0,3.11-1,6.35,6.35,0,0,0,2.31-2,5.47,5.47,0,0,0,.91-3.25,1.33,1.33,0,0,0-.45-1.08,3.29,3.29,0,0,0-1.09-.6,5.22,5.22,0,0,0-1.33-.25l-1.19,0-3.57,0a20.62,20.62,0,0,0-4.2.5,9.79,9.79,0,0,0-3.53,1.5A3.43,3.43,0,0,0,195.23,57.66Z"/><path d="M316.26,46c.19.14.21.44.07.91a8.76,8.76,0,0,1-.6,1.47,16.34,16.34,0,0,1-.8,1.44,10.8,10.8,0,0,0-.56.94q-1.19,2.1-2.49,4.13a22.2,22.2,0,0,1-3,3.78,28.25,28.25,0,0,1-9.63,6.44,29.89,29.89,0,0,1-11.37,2.24,19.07,19.07,0,0,1-8.26-1.75A14.72,14.72,0,0,1,273,58.4q-.35-.81-.63-1.65c-.19-.56-.35-1.11-.49-1.65a10.5,10.5,0,0,1-.28-1.43c-.09-1.12-.14-2.25-.14-3.4V46.88q0-6.72.52-13.3t.53-13.3a20.36,20.36,0,0,0-.21-3,7.08,7.08,0,0,0-1.05-2.77,6.1,6.1,0,0,0-1.08-1.29c-.4-.35-.79-.67-1.16-.95s-.75-.55-1.12-.8a4.41,4.41,0,0,1-1-.95,1.65,1.65,0,0,1,.84-.8,7.47,7.47,0,0,1,1.43-.53,10.3,10.3,0,0,1,1.58-.28c.51,0,.93-.07,1.26-.07a11.25,11.25,0,0,1,3.64.73,17.75,17.75,0,0,1,4,2,14.91,14.91,0,0,1,3.22,2.87,5.19,5.19,0,0,1,1.33,3.36,6,6,0,0,1-.32,1.92,13.52,13.52,0,0,1-.77,1.86c-.3.61-.61,1.21-.94,1.82a10.12,10.12,0,0,0-.77,1.82,71.19,71.19,0,0,0-2.48,11.2,81.6,81.6,0,0,0-.81,11.41q0,5.8,2.62,8.19t8.3,2.38a28.85,28.85,0,0,0,7.84-1,33.83,33.83,0,0,0,6.75-2.73,53.39,53.39,0,0,0,6.23-4c2-1.49,4.1-3.06,6.2-4.69A.28.28,0,0,1,316.26,46Z"/><path d="M369.39,21.68a1.65,1.65,0,0,0-.18-.77.66.66,0,0,0-.66-.35,18.56,18.56,0,0,0-7.42,1.61A78.26,78.26,0,0,0,354,25.71c-2.32,1.28-4.52,2.46-6.62,3.53a12.83,12.83,0,0,1-5.74,1.61,6.47,6.47,0,0,1-3.11-.81A9.28,9.28,0,0,1,335.86,28a10.17,10.17,0,0,1-1.78-2.83,8.08,8.08,0,0,1-.67-3.19c0-.51,0-1,0-1.54a4.15,4.15,0,0,1,.38-1.54l.28-.28a4.37,4.37,0,0,1,1.61.46,13.3,13.3,0,0,1,1.47.84,12.64,12.64,0,0,0,1.43.8,3.72,3.72,0,0,0,1.58.35,43.39,43.39,0,0,0,10.68-1.32q5.21-1.32,10.42-2.88T371.74,14a43.26,43.26,0,0,1,10.67-1.32,22.81,22.81,0,0,1,2.94.21,13,13,0,0,1,3,.76,6.37,6.37,0,0,1,2.42,1.6,3.9,3.9,0,0,1,1,2.78,3,3,0,0,1-.87,2.25,3.11,3.11,0,0,1-2.28.87h-5a24.83,24.83,0,0,0-4.93.49,22.06,22.06,0,0,0-7.28,2.62,15.44,15.44,0,0,0-4.76,4.42A17.41,17.41,0,0,0,364,34.73a33.43,33.43,0,0,0-.81,7.6q0,4.83,1.68,7.49a10.84,10.84,0,0,0,4.17,4,17.09,17.09,0,0,0,5.38,1.75c1.94.31,3.74.63,5.39,1A12.83,12.83,0,0,1,384,58.08a3.81,3.81,0,0,1,1.68,3.5,3.53,3.53,0,0,1-.53,2,4.3,4.3,0,0,1-1.33,1.32,5.66,5.66,0,0,1-1.81.77,8.24,8.24,0,0,1-2,.25,36.67,36.67,0,0,1-9.24-1.12,21.43,21.43,0,0,1-7.56-3.53A17.14,17.14,0,0,1,358.12,55a20.81,20.81,0,0,1-1.89-9.24,26.87,26.87,0,0,1,3.47-13.44,30,30,0,0,1,9.41-10.22Z"/><path d="M407.68,52.2a26.26,26.26,0,0,1,5.57.84,23.58,23.58,0,0,1,5.7,2.24A14.8,14.8,0,0,1,423.4,59a8.33,8.33,0,0,1,1.78,5.32,5.18,5.18,0,0,1-1.12,3.57,4.45,4.45,0,0,1-3.5,1.26,4.84,4.84,0,0,1-3.32-1.58,20.34,20.34,0,0,1-3.05-3.71c-.93-1.42-1.78-2.87-2.55-4.33s-1.42-2.63-1.93-3.47a11.56,11.56,0,0,0-1.26-1.78,5.16,5.16,0,0,1-1.05-1.79Z"/><path d="M502.18,37.22a13.54,13.54,0,0,0-.07,2.2V67.67q0,.77-1,1.26a10.08,10.08,0,0,1-2.38.77,19.58,19.58,0,0,1-2.66.38c-.86.07-1.48.11-1.85.11a1.1,1.1,0,0,1-.56-.17.59.59,0,0,1-.28-.53V46a1.07,1.07,0,0,0-.07-.35q-.07-.21-.21-.21c-.28,0-.68.26-1.19.77s-1.1,1.17-1.75,2-1.35,1.63-2.1,2.52-1.48,1.73-2.21,2.52a17.39,17.39,0,0,1-2.06,2,2.92,2.92,0,0,1-1.61.77.37.37,0,0,1-.42-.42,5.57,5.57,0,0,1,.38-1.19c.26-.65.56-1.36.92-2.13s.68-1.51,1-2.21.56-1.17.7-1.4q2.1-4.48,3.64-8.16a57.8,57.8,0,0,0,2.52-7.24,50,50,0,0,0,1.43-7.53,77.65,77.65,0,0,0,.46-9,.62.62,0,0,0-.7-.7c-.33,0-.92,0-1.79.1s-1.76.13-2.69.18-1.79.08-2.56.11a2.8,2.8,0,0,1-1.43-.18.41.41,0,0,0,.1-.14.67.67,0,0,1,.11-.14l2-1.12c1.07-.61,2.37-1.31,3.88-2.1l4.83-2.52c1.71-.89,3.28-1.69,4.73-2.42l3.64-1.81a16,16,0,0,1,1.54-.74,7,7,0,0,1,1.64,1.22c1,.82,2,1.74,3,2.77L511.94,12c.87.87,1.3,1.37,1.3,1.51s-.13.36-.39.39l-.59,0c-1.63,0-3.26.08-4.87.24s-3.23.41-4.86.74l-.28.21-.35.77v1.26a10.64,10.64,0,0,0,.07,1.26,30,30,0,0,1,0,3.92,13.87,13.87,0,0,0,.32,3.85c.05.09.1.21.18.35a.32.32,0,0,0,.31.21,2,2,0,0,0,1.47-.77,12.11,12.11,0,0,0,1.3-1.72l1.08-1.75c.33-.53.61-.8.84-.8s.52.28,1.15.84,1.31,1.18,2,1.86,1.38,1.31,2,1.92a4.37,4.37,0,0,1,.88,1.05,2.48,2.48,0,0,1-.07.63c-.05.19-.21.28-.49.28H502.6l-.42.21c-.05.09-.1.22-.18.38a1.1,1.1,0,0,0-.1.39,10.24,10.24,0,0,0,.21,2.07,15.61,15.61,0,0,1,.28,2,4.33,4.33,0,0,0,2.38,2.24c1.12.47,2.26,1,3.43,1.47a10.57,10.57,0,0,1,3.11,2.07,5.3,5.3,0,0,1,1.37,4,4.71,4.71,0,0,1-.88,3,3.52,3.52,0,0,1-2.9,1.08,3.11,3.11,0,0,1-2.45-.94A6.25,6.25,0,0,1,505.19,44a15.62,15.62,0,0,1-.6-2.8,23.82,23.82,0,0,0-.42-2.59,3.7,3.7,0,0,0-.66-1.61C503.23,36.68,502.79,36.75,502.18,37.22Zm-20.09-9.66h7.49a6.32,6.32,0,0,1,1.4.07.59.59,0,0,1-.63.42h-8.26l-.28-.28ZM535.71,57a.73.73,0,0,0-.35.07,59.65,59.65,0,0,0-5.67,2.35q-2.73,1.29-5.6,2.55c-1.26.56-2.53,1.1-3.82,1.61l-3.81,1.54-2,.7a8.37,8.37,0,0,0-1.82.91,5.22,5.22,0,0,0-.53.42l-.69.6-.71.56a1,1,0,0,1-.45.24.35.35,0,0,1-.32-.18,1.43,1.43,0,0,0-.24-.31,43.06,43.06,0,0,1-2.07-4.9q-.87-2.52-1.92-5c-.19-.19-.16-.35.07-.49a1.18,1.18,0,0,1,.56-.21h7.14c.37,0,.75-.51,1.12-1.54a36.41,36.41,0,0,0,1.05-3.53c.33-1.34.6-2.62.81-3.86s.36-2.06.45-2.48q1-5.67,1.75-11.23t1.47-11.24c.33-2.71.63-5.42.91-8.15a77.79,77.79,0,0,1,1.26-8.09l.28-.35.56.1c.33.07.7.17,1.12.28l1.19.35.77.25c1.35.33,2.72.6,4.09.81a27.94,27.94,0,0,1,4.1.94.7.7,0,0,1,.31.1.31.31,0,0,1,.18.25,1.59,1.59,0,0,1-.35.84q-.35.49-.84,1.08l-.91,1.12a5.94,5.94,0,0,0-.63,1A17,17,0,0,0,531,17.41c-.28,1.17-.61,2.31-1,3.43q-1.12,3.57-2.38,7.07c-.84,2.33-1.7,4.67-2.59,7q-2.1,5.54-4.45,10.92T516,56.68c-.19.19-.16.35.07.49l.49.28q3.57-.63,7.17-1c2.41-.21,4.82-.4,7.25-.59a17,17,0,0,1,2,0,6.54,6.54,0,0,0,2-.25.49.49,0,0,0,.42-.56,9.51,9.51,0,0,0-.88-3.57q-.87-2.1-1.92-4.34t-1.93-4.31a9.28,9.28,0,0,1-.87-3.46l.21-.21a7.27,7.27,0,0,1,3.74,1.36,20.66,20.66,0,0,1,3.78,3.36,36.92,36.92,0,0,1,3.5,4.59A41.33,41.33,0,0,1,544,53.6a38,38,0,0,1,2,4.94,13.34,13.34,0,0,1,.74,4,9.14,9.14,0,0,1-.63,3.71,5.37,5.37,0,0,1-1.54,2.1,4.05,4.05,0,0,1-2,.84,5.83,5.83,0,0,1-2.1-.1,5.59,5.59,0,0,1-1.72-.74,1.89,1.89,0,0,1-.87-1,5.73,5.73,0,0,1-.18-.94c0-.31,0-.65-.1-1s-.12-1-.21-1.75-.21-1.63-.35-2.52-.29-1.7-.46-2.45a5.59,5.59,0,0,0-.45-1.47Z"/><path d="M575.61,38.76l.21.21a8.79,8.79,0,0,1-.28,2.17,21.39,21.39,0,0,1-.7,2.24c-.28.75-.57,1.49-.88,2.24s-.54,1.45-.73,2.1A29.83,29.83,0,0,0,572,56a15.13,15.13,0,0,0,.46,3.33,21.34,21.34,0,0,1,.52,3.88,6.4,6.4,0,0,1-.63,3.25c-.47.91-1.49,1.37-3.08,1.37a5.81,5.81,0,0,1-3.47-1.08,9,9,0,0,1-2.51-2.84,18.41,18.41,0,0,1-1.68-4,37.31,37.31,0,0,1-1.06-4.45,43.3,43.3,0,0,1-.52-4.3c-.09-1.38-.14-2.56-.14-3.54a38.88,38.88,0,0,1,.66-7.17q.67-3.54,1.48-7.08t1.47-7.07a38.88,38.88,0,0,0,.66-7.17,7.6,7.6,0,0,0-.38-2.35c-.26-.77-.54-1.5-.84-2.2s-.59-1.4-.85-2.1a6,6,0,0,1-.38-2c0-.47.21-.7.63-.7a7.9,7.9,0,0,1,3.89,1.12,15.64,15.64,0,0,1,3.6,2.8,15.36,15.36,0,0,1,2.63,3.71,8.82,8.82,0,0,1,1,3.92,13.36,13.36,0,0,1-1.33,5.57c-.89,1.93-1.85,4-2.9,6.05a68.72,68.72,0,0,0-2.87,6.58,19.72,19.72,0,0,0-1.3,7.07c0,.28,0,.7.07,1.26a13.25,13.25,0,0,0,.24,1.61,4.16,4.16,0,0,0,.57,1.36,1.15,1.15,0,0,0,1,.6c.7,0,1.45-.55,2.24-1.64A33.22,33.22,0,0,0,571.58,46c.78-1.42,1.47-2.82,2.11-4.19a17.24,17.24,0,0,1,1.57-2.91Zm23.15-14.21c0-1.54,0-2.93.07-4.17a9.1,9.1,0,0,0-.42-3.25,5,5,0,0,0-1.83-2.38,11.43,11.43,0,0,0-4.14-1.61l-.21-.28a.25.25,0,0,0,0-.14.35.35,0,0,1,0-.14c0-.56.31-1.05,1.09-1.47a11.25,11.25,0,0,1,2.87-1,16,16,0,0,1,3.76-.34,13.41,13.41,0,0,1,3.75.56,7,7,0,0,1,2.88,1.61,3.79,3.79,0,0,1,1.16,2.9,9.66,9.66,0,0,1-.7,3.64,9.66,9.66,0,0,0-.7,3.64c0,.42.23.63.7.63a4.58,4.58,0,0,0,1.61-.28c.51-.19,1-.39,1.54-.6l1.54-.59a4.58,4.58,0,0,1,1.61-.28,6.66,6.66,0,0,1,1.61.21,4.63,4.63,0,0,1,1.5.66A4.15,4.15,0,0,1,617.5,23a2.65,2.65,0,0,1,.46,1.57,3.33,3.33,0,0,1-.73,2.24,4.72,4.72,0,0,1-1.9,1.29,12.75,12.75,0,0,1-2.62.71l-2.87.48a21.37,21.37,0,0,0-2.59.63,4.37,4.37,0,0,0-1.89,1.16,13.8,13.8,0,0,0-.14,1.89v1.89c0,1,0,2-.07,3.15s-.06,2.25,0,3.39a23.86,23.86,0,0,0,.28,3.33,12.42,12.42,0,0,0,.8,2.94,2.69,2.69,0,0,0,1.4,1.16c.75.34,1.65.73,2.69,1.15s2.16.89,3.33,1.4a14.37,14.37,0,0,1,3.18,1.89,10.4,10.4,0,0,1,2.42,2.66,6.67,6.67,0,0,1,1,3.64,3.72,3.72,0,0,1-.84,2.52,3.06,3.06,0,0,1-2.45,1,4,4,0,0,1-2.62-.95,17.17,17.17,0,0,1-2.17-2.1,26.47,26.47,0,0,0-2.1-2.13,3.65,3.65,0,0,0-2.49-1c-.14,0-.38.33-.74,1s-.72,1.39-1.12,2.21-.8,1.61-1.22,2.38A5.51,5.51,0,0,1,603.4,64a9.45,9.45,0,0,1-2,1.12,14.22,14.22,0,0,1-2.52.77,25,25,0,0,1-2.62.42,23.11,23.11,0,0,1-2.35.14,20.2,20.2,0,0,1-4.44-.49,12.39,12.39,0,0,1-4-1.61,9.09,9.09,0,0,1-2.91-2.91A8.18,8.18,0,0,1,581.42,57a7.92,7.92,0,0,1,1.33-4.69,10.15,10.15,0,0,1,3.4-3,16.27,16.27,0,0,1,4.55-1.69,32.16,32.16,0,0,1,4.79-.66h.84a7.78,7.78,0,0,0,1.09-.07,2.7,2.7,0,0,0,.91-.28.68.68,0,0,0,.38-.63V32.67a.62.62,0,0,0-.7-.7h-9.59a3.63,3.63,0,0,1-2-.88A17.44,17.44,0,0,1,584.08,29a13.64,13.64,0,0,1-1.89-2.49,4.5,4.5,0,0,1-.77-2.13.56.56,0,0,1,.63-.63,2.86,2.86,0,0,1,1.19.28c.43.19.87.41,1.34.67a13.31,13.31,0,0,0,1.44.66,4.12,4.12,0,0,0,1.51.28h9.82a1.19,1.19,0,0,0,.67-.28,6.41,6.41,0,0,0,.6-.49ZM584.15,56.26a2.89,2.89,0,0,0,.63,1.93,4.23,4.23,0,0,0,1.54,1.12,6.66,6.66,0,0,0,2,.48c.72.07,1.38.11,2,.11a22.42,22.42,0,0,0,3.5-.25,8.06,8.06,0,0,0,2.84-.94,5,5,0,0,0,1.92-2,7.68,7.68,0,0,0,.7-3.57,1,1,0,0,0-.56-.84,4,4,0,0,0-1.33-.31c-.61-.08-1.26-.12-2-.15l-2,0h-1.5a24.49,24.49,0,0,0-2.45.14,8.8,8.8,0,0,0-2.52.63,5.45,5.45,0,0,0-2,1.37A3.3,3.3,0,0,0,584.15,56.26Z"/><path class="cls-1" d="M658.49,64.56a4.67,4.67,0,0,0,3-1.36,13.58,13.58,0,0,0,2-2.6A25.3,25.3,0,0,0,664.85,58c.35-.77.65-1.16.92-1.16s.56.36.88,1.08a11.78,11.78,0,0,1,.76,2.72,24,24,0,0,1,.32,3.52,10.64,10.64,0,0,1-.48,3.52,6.08,6.08,0,0,1-1.72,2.72,4.72,4.72,0,0,1-3.28,1.08,2.8,2.8,0,0,1-1.32-.32,7.71,7.71,0,0,1-1.16-.76,10.78,10.78,0,0,0-1.08-.76,2.08,2.08,0,0,0-1.08-.32,4.69,4.69,0,0,0-1.16.92c-.67.61-1.45,1.31-2.36,2.08a20.86,20.86,0,0,1-2.92,2.08,5.74,5.74,0,0,1-2.84.92.89.89,0,0,1-.88-.72,4.13,4.13,0,0,1-.2-1c0-.35-.07-.68-.12-1-.11-.69-.2-1.29-.28-1.8a8,8,0,0,0-.36-1.44,8.66,8.66,0,0,0-.6-1.32c-.24-.43-.55-1-.92-1.6s-.47-1-.12-1.24a4.85,4.85,0,0,1,1.32-.44,9.73,9.73,0,0,0,1.6-.48,1.31,1.31,0,0,0,.8-1.36V45.6a.71.71,0,0,0-.8-.8c-.27,0-.6,0-1,0s-.81,0-1.24,0a3.83,3.83,0,0,0-1.16.16,1.27,1.27,0,0,0-.76.56,4,4,0,0,0-.4,1.12c-.11.48-.2,1-.28,1.56s-.15,1.11-.2,1.64-.11,1-.16,1.28c-.32,1.71-.75,3.61-1.28,5.72a55.77,55.77,0,0,1-2,6.2,34.48,34.48,0,0,1-2.8,5.72,16,16,0,0,1-3.8,4.36,2.81,2.81,0,0,1-.32.24.74.74,0,0,1-.4.16c-.32,0-.48-.19-.48-.56a11,11,0,0,1,.6-3.48c.4-1.2.73-2.33,1-3.4a61,61,0,0,0,1.32-6,36.3,36.3,0,0,0,.52-6.12v-51a1.53,1.53,0,0,1,.12-.6.5.5,0,0,1,.52-.28,5.43,5.43,0,0,1,1.72.52l2.8,1.2a32.75,32.75,0,0,0,3.24,1.2,10.73,10.73,0,0,0,3.2.52,2.32,2.32,0,0,0,1.48-.64,11.57,11.57,0,0,0,1.4-1.4c.43-.51.85-1,1.28-1.4a1.75,1.75,0,0,1,1.12-.64,5.11,5.11,0,0,1,1.24.76c.72.51,1.51,1.08,2.36,1.72s1.64,1.24,2.36,1.8a8.14,8.14,0,0,1,1.24,1.08c.27.48.35.81.24,1a1.09,1.09,0,0,1-.52.44l-.76.32a.62.62,0,0,0-.4.64v12.8c0,.32.2.49.6.52s.71,0,.92,0h2.24c.85,0,1.71,0,2.56-.08l2.48-.16a12,12,0,0,0,2.16-.32c.53-.11.8-.37.8-.8,0-1.12,0-2.21-.08-3.28a10.3,10.3,0,0,0-.56-3,7.34,7.34,0,0,0-1.48-2.48,6.64,6.64,0,0,0-2.84-1.76,6.13,6.13,0,0,0-1.88-.48c-.61-.05-1.24-.13-1.88-.24a.35.35,0,0,1-.4-.4.35.35,0,0,1,.4-.4h13.2c.59,0,.89-.48.92-1.44a24.28,24.28,0,0,0-.12-3.12,24.28,24.28,0,0,1-.12-3.12c0-1,.33-1.44.92-1.44s1.49,0,2.4.08,1.83.12,2.76.2,1.84.2,2.72.36,1.64.32,2.28.48a3.31,3.31,0,0,0,.4.16q.24.07.24.24t-.72,1a1.77,1.77,0,0,0-.72,1.28V9.12c0,.53-.59.87-1.76,1a30,30,0,0,1-3.92.16c-1.44,0-2.79-.08-4-.16a4.87,4.87,0,0,0-2.2.12.78.78,0,0,0-.4.72,2.14,2.14,0,0,0,.68,1.44c.45.48,1,1,1.52,1.52a14.07,14.07,0,0,1,1.52,1.68,3.11,3.11,0,0,1,.68,1.92,2.82,2.82,0,0,1-.28,1.12c-.19.43-.36.87-.52,1.32a6.14,6.14,0,0,0-.32,1.28,1.05,1.05,0,0,0,.24.92l.56.24h5.76c.64,0,1.17-.49,1.6-1.48a15.87,15.87,0,0,0,1-3.4c.24-1.28.43-2.53.56-3.76a25.11,25.11,0,0,1,.36-2.56,2.58,2.58,0,0,1,1-1.08A15.47,15.47,0,0,1,688.77,9c.72-.37,1.43-.72,2.12-1a12.77,12.77,0,0,0,1.52-.8,5,5,0,0,0,1.84-1.6,23.67,23.67,0,0,1,1.44-2,1,1,0,0,1,.8-.4,4.74,4.74,0,0,1,1.6.88c.85.59,1.73,1.25,2.64,2s1.72,1.45,2.44,2.12,1.08,1.11,1.08,1.32-.16.37-.48.48a9.38,9.38,0,0,1-2,.4q-1.32.16-2.76.24l-2.76.12c-.88,0-1.59,0-2.12,0l-.56.24-.08.56a2.72,2.72,0,0,0,1.48.72,1.67,1.67,0,0,1,1.24.72c0,.37-.65.95-1.8,1.72s-2.4,1.6-3.76,2.48-2.6,1.72-3.72,2.52-1.68,1.44-1.68,1.92a.68.68,0,0,0,.56.76,5,5,0,0,0,1,.12c.21,0,.69,0,1.44-.08s1.52-.12,2.32-.2l2.24-.24a2.82,2.82,0,0,0,1.2-.28,6.75,6.75,0,0,0,1-1.28l1-1.6a8.63,8.63,0,0,1,1-1.4,2.47,2.47,0,0,1,1.28-.76,4.58,4.58,0,0,1,1.36.8c.75.53,1.56,1.16,2.44,1.88s1.68,1.41,2.4,2.08a5.65,5.65,0,0,1,1.24,1.4.35.35,0,0,1-.4.4h-40.8a1,1,0,0,0-1.12,1.12,2.64,2.64,0,0,0,1.32,2.08,12.35,12.35,0,0,0,3.12,1.6,25.45,25.45,0,0,0,3.6,1,15.11,15.11,0,0,0,2.68.36h16a1.83,1.83,0,0,0,1.4-.68c.4-.45.79-.93,1.16-1.44s.76-1,1.16-1.44a1.83,1.83,0,0,1,1.4-.68,4.71,4.71,0,0,1,1.72.64c.83.43,1.69.92,2.6,1.48a22.65,22.65,0,0,1,2.4,1.68c.69.56,1,1,1,1.24s-.13.33-.4.52-.55.37-.84.56-.57.39-.84.6a.86.86,0,0,0-.4.64v15c0,.32-.39.55-1.16.68a22.8,22.8,0,0,1-2.64.28c-1,.05-1.93.08-2.84.08h-1.84l-.48-.24a5.87,5.87,0,0,0-.36-1.2,1,1,0,0,0-.92-.72H672.57c-.16,0-.36.15-.6.44s-.52.61-.84,1-.67.69-1,1a3,3,0,0,1-1,.68c-.32.11-.75.23-1.28.36a9,9,0,0,1-1.68.24,11,11,0,0,1-1.64,0,2.21,2.21,0,0,1-1.16-.4c-.11-.11-.13-.2-.08-.28a.51.51,0,0,0,.08-.28q-.16-5.35-.12-10.68t0-10.6a4.46,4.46,0,0,0-.88-2.92,3.83,3.83,0,0,0-1.88-1.36,2.63,2.63,0,0,0-1.88.12,1.45,1.45,0,0,0-.88,1.44V63.84l.24.48Zm-9.92-56.8a.71.71,0,0,0-.8-.8h-3.2a.71.71,0,0,0-.8.8V23.52a1,1,0,0,0,.76,1,5.72,5.72,0,0,0,3.28,0c.51-.16.76-.32.76-.48Zm0,18.4c0-.16-.25-.31-.76-.44a6.58,6.58,0,0,0-1.64-.2,5.42,5.42,0,0,0-1.64.24,1,1,0,0,0-.76,1V43.2c0,.21.25.37.76.48a8.48,8.48,0,0,0,3.28,0c.51-.11.76-.27.76-.48Zm22.64,27.68a24.2,24.2,0,0,1,3.92.32,24.2,24.2,0,0,0,3.92.32,2.8,2.8,0,0,0,.64-.08c.21,0,.32-.21.32-.48a1.73,1.73,0,0,0-.52-1.08,15.27,15.27,0,0,0-1.12-1.16q-.6-.55-1.08-1.08a1.47,1.47,0,0,1-.48-.84.29.29,0,0,1,.32-.32c1.07,0,2.29,0,3.68.12a16,16,0,0,1,4,.72,7.73,7.73,0,0,1,3.16,1.88,4.77,4.77,0,0,1,1.28,3.52,3.27,3.27,0,0,1-1.08,2.8,4.82,4.82,0,0,1-2.92.8,2.11,2.11,0,0,1-1.4-.44,4.86,4.86,0,0,1-.92-1c-.27-.4-.55-.77-.84-1.12a2,2,0,0,0-1.16-.68l-.56.24-.08.08-.24.56v8.24c0,.37.36.67,1.08.88a9,9,0,0,0,2.52.32,11.84,11.84,0,0,0,2.88-.36,3.65,3.65,0,0,0,2.64-1.84,7.66,7.66,0,0,1,.72-1c.27-.32.52-.6.76-.84a1.06,1.06,0,0,1,.76-.36c.16,0,.43.32.8,1A21.71,21.71,0,0,1,693.25,65c.35.8.65,1.59.92,2.36a6.25,6.25,0,0,1,.4,1.48,3.63,3.63,0,0,1-1.48,3.24,9,9,0,0,1-3.56,1.36,20.87,20.87,0,0,1-4.28.28c-1.47-.05-2.68-.08-3.64-.08-.8,0-1.76,0-2.88.08a14.88,14.88,0,0,1-3.28-.2,6.94,6.94,0,0,1-2.76-1.08,3.07,3.07,0,0,1-1.24-2.56c-.11-2.67-.19-5.29-.24-7.88s-.13-5.21-.24-7.88Zm1.6-23.44a.71.71,0,0,0-.8.8V44a.71.71,0,0,0,.8.8h17.6a.71.71,0,0,0,.8-.8V31.2a.71.71,0,0,0-.8-.8Zm1.12,7h15.44l.24.24-.24.32H673.93l-.32-.32ZM693.85,55.6c0-.53.24-.8.72-.8a8.93,8.93,0,0,1,4,1,15.62,15.62,0,0,1,3.76,2.6,14,14,0,0,1,2.8,3.6,8.21,8.21,0,0,1,1.08,3.92,6.63,6.63,0,0,1-1,3.44,3.28,3.28,0,0,1-3,1.68,3,3,0,0,1-1.92-.64A9.8,9.8,0,0,1,698.81,69a19.16,19.16,0,0,1-1.52-2.68c-.59-1.2-1.13-2.47-1.64-3.8s-.93-2.63-1.28-3.88A11.74,11.74,0,0,1,693.85,55.6Z"/><path class="cls-1" d="M756.17,35a1.62,1.62,0,0,1-1.32.32c-.61-.05-1.24-.12-1.88-.2a7.77,7.77,0,0,0-1.72,0,.73.73,0,0,0-.76.8q0,5.28.12,10.48t.12,10.48c0,.43,0,1.45,0,3.08s-.08,3.33-.16,5.12-.16,3.41-.24,4.88a8.17,8.17,0,0,1-.28,2.36,5.94,5.94,0,0,1-1.6,1.24,10.17,10.17,0,0,1-2,.84,12.61,12.61,0,0,1-2.2.44,19,19,0,0,1-2,.12.71.71,0,0,1-.8-.8V32.32a1.24,1.24,0,0,0-.44-.84,3.36,3.36,0,0,0-.76-.6,1.66,1.66,0,0,0-.48.72c-.05.21-.13.48-.24.8a13,13,0,0,0-.2,1.71c0,.56-.07,1.14-.12,1.72q-.24,3.68-.72,7a74.61,74.61,0,0,1-1.92,8.9,44.24,44.24,0,0,1-3.44,8.71,34.23,34.23,0,0,1-5.28,7.46,21.44,21.44,0,0,1-7.44,5.19,1.14,1.14,0,0,1-.48.16c-.32.11-.48,0-.48-.4a3.89,3.89,0,0,1,.52-1.79c.35-.67.73-1.36,1.16-2.08s.87-1.41,1.32-2.08a16.68,16.68,0,0,0,1.08-1.79,71.42,71.42,0,0,0,3.88-10.86,43.45,43.45,0,0,0,1.56-11.42,5.52,5.52,0,0,0-.08-.64c0-.32-.19-.48-.4-.48s-.75.52-1.44,1.56-1.43,2.22-2.2,3.55-1.48,2.62-2.12,3.87-1,2.07-1.2,2.44l-.32.24-.48-.24q-.31-.79-1.08-2.28c-.51-1-1-2-1.52-3s-1-2-1.4-2.92A5.38,5.38,0,0,1,716,43l.24-.32c.43-.27,1.36-.73,2.8-1.4s2.92-1.37,4.44-2.11,2.88-1.47,4.08-2.16,1.8-1.17,1.8-1.44V29a1.19,1.19,0,0,0-.8-1.2.65.65,0,0,0-.48.16,3.79,3.79,0,0,0-.92,1.12,5.52,5.52,0,0,1-.64,1,2.76,2.76,0,0,1-1,.72,4.66,4.66,0,0,1-1.88.28A8.88,8.88,0,0,1,722,31a3.16,3.16,0,0,1-1.48-.72.77.77,0,0,1-.24-.56c-.27-2.45-.49-4.87-.68-7.24a36.42,36.42,0,0,0-1.32-7.16l.16-.32a5.36,5.36,0,0,1,3.2.92,10.27,10.27,0,0,1,2.28,2.28A28.13,28.13,0,0,1,725.73,21a13.89,13.89,0,0,0,2,2.68l.44.44c.19.19.33.25.44.2a1.13,1.13,0,0,0,.6-.6,2.06,2.06,0,0,0,.2-.84V6.72a1.53,1.53,0,0,1,.12-.6.5.5,0,0,1,.52-.28,1.23,1.23,0,0,1,.56.16,40,40,0,0,1,3.6,1.92A29,29,0,0,0,737,9.44a13.9,13.9,0,0,0,3,1,21.76,21.76,0,0,0,4.4.36c1.39,0,2.75,0,4.08,0s2.69,0,4.08,0a.71.71,0,0,0,.8-.8V.8a.71.71,0,0,1,.8-.8c.43,0,1.25,0,2.48.12s2.51.17,3.84.28,2.57.23,3.72.36a13.41,13.41,0,0,1,2.2.36c.53.16.73.35.6.56a2.12,2.12,0,0,1-.76.64,11.71,11.71,0,0,0-1.12.72,1.12,1.12,0,0,0-.56.88c0,.27,0,.77-.08,1.52s-.08,1.51-.08,2.28a10.06,10.06,0,0,0,.2,2.08c.13.61.39.92.76.92h10.88a2.34,2.34,0,0,0,2-1,13.74,13.74,0,0,0,1.36-2.32q.6-1.28,1.2-2.4a2,2,0,0,1,1.56-1.2l.56.16a9.34,9.34,0,0,0,1.64,1.56c.88.72,1.77,1.47,2.68,2.24s1.72,1.48,2.44,2.12,1.08,1,1.08,1.2-.11.27-.32.48l-.56.24h-49.6a.71.71,0,0,0-.8.8V26.72a4.12,4.12,0,0,0,1.08,2.92,8.46,8.46,0,0,0,2.8,1.92,21.65,21.65,0,0,0,3.72,1.24c1.33.32,2.63.59,3.88.8s2.36.43,3.32.64A4.82,4.82,0,0,1,756.17,35ZM752.81,58.4a5,5,0,0,1,.4-1.28c.21-.48.47-1,.76-1.52l.84-1.56a11.8,11.8,0,0,0,.64-1.4,42.08,42.08,0,0,0,2.72-11.48q.55-6,.56-11.8V26c0-.21,0-.49,0-.84a4.13,4.13,0,0,0,0-1,2.6,2.6,0,0,0-.28-.84.71.71,0,0,0-.68-.36h-15.2a.4.4,0,1,1,0-.79H776c.37,0,.85-.33,1.44-1s1.19-1.4,1.8-2.2,1.19-1.53,1.72-2.2,1-1,1.28-1a4.14,4.14,0,0,1,1.32.84c.72.56,1.51,1.19,2.36,1.88l2.48,2,1.6,1.28.16.4-.16.4-.16.16-.56.24h-19.6a1,1,0,0,0-.92.56,4.46,4.46,0,0,0-.4,1.36,10.44,10.44,0,0,0-.12,1.56V27.6c0,1.23,0,2.41.08,3.56a26.74,26.74,0,0,1-.08,3.56,40.68,40.68,0,0,1-1.48,7.36,29.38,29.38,0,0,1-3,6.72,27,27,0,0,1-4.52,5.64,23.09,23.09,0,0,1-6.24,4.2Zm16.88-23.84a4.65,4.65,0,0,1,1.08-.12c.61,0,1.29,0,2,0h3.44q.4,0,1.2-.84c.53-.56,1.08-1.17,1.65-1.84s1.08-1.28,1.57-1.84.83-.84,1.05-.84a6.48,6.48,0,0,1,1.37.88l2.66,2c1,.72,1.87,1.41,2.7,2.08s1.37,1.11,1.64,1.32a.71.71,0,0,1,.32.56.59.59,0,0,1-.36.52c-.24.13-.51.29-.8.48a5,5,0,0,0-.8.64,1.25,1.25,0,0,0-.36.92V65.6a8,8,0,0,1-1,4.12,9,9,0,0,1-2.66,2.88,12.57,12.57,0,0,1-3.71,1.76,17,17,0,0,1-4.14.68,1.75,1.75,0,0,1-.64-.08c-.11,0-.21-.24-.32-.56s-.29-.84-.4-1.24-.24-.81-.4-1.24a6.18,6.18,0,0,0-1.48-2.36c-.67-.67-1.32-1.37-2-2.12q-.17-.24-.36-.48a.87.87,0,0,1-.2-.56q0-.48.84-.6c.56-.08,1.2-.13,1.92-.16l2.12-.08a2.62,2.62,0,0,0,1.44-.36.94.94,0,0,0,.48-.52,5.74,5.74,0,0,1,.24-.68,24.54,24.54,0,0,0,.52-3.64c.08-1.2.12-2.41.12-3.64,0-.69-.2-1.08-.6-1.16a3.1,3.1,0,0,0-1.44.12,14.09,14.09,0,0,0-1.68.6,3.64,3.64,0,0,1-1.32.36,4.08,4.08,0,0,1-3-1,6.64,6.64,0,0,1-1.6-2.52,11.74,11.74,0,0,1-.68-3.24c-.08-1.15-.12-2.17-.12-3.08,0-.21,0-.55,0-1a10.9,10.9,0,0,1,0-1.4,4.78,4.78,0,0,1,.24-1.28.71.71,0,0,1,.68-.56,4.19,4.19,0,0,1,1.68.44,13.91,13.91,0,0,1,1.88,1c.61.4,1.2.83,1.76,1.28s1,.84,1.4,1.16a4.09,4.09,0,0,1,.72.72,2.56,2.56,0,0,0,.72.64.61.61,0,0,0,.28.12,1.38,1.38,0,0,0,.28,0q.72-.07.72-1.08V43.36c0-1,0-2-.08-3s-.11-2-.16-2.84a6.56,6.56,0,0,0-.24-1.72q-.16-.31-.24-.48c-.05-.11-.21-.16-.48-.16-.43,0-1,0-1.72.08s-1.48.08-2.28.08a13.61,13.61,0,0,1-2.2-.16A1.87,1.87,0,0,1,769.69,34.56Z"/><path d="M830.32,18.25c.37-.19.86-.44,1.47-.77s1.25-.65,1.92-1a17.46,17.46,0,0,1,1.93-.81,4.76,4.76,0,0,1,1.47-.31q3.15,0,3.15,3.22a4,4,0,0,1-.74,2.55,5.26,5.26,0,0,1-1.92,1.54,10.14,10.14,0,0,1-2.66.88q-1.47.29-2.94.6a28.58,28.58,0,0,0-2.77.73,5.25,5.25,0,0,0-2.13,1.26,7.28,7.28,0,0,0-1.3,1.78,15.42,15.42,0,0,0-.87,2.07c-.37,1-.82,2.41-1.33,4.16s-1.11,3.67-1.79,5.75-1.43,4.18-2.27,6.33a45,45,0,0,1-2.73,5.81,18,18,0,0,1-3.19,4.23A5.22,5.22,0,0,1,810,57.94a2.72,2.72,0,0,1-2.73-1.5,7.46,7.46,0,0,1-.7-3.19,9.82,9.82,0,0,1,.91-4.2,22.76,22.76,0,0,1,2.2-3.74c.87-1.2,1.79-2.36,2.77-3.5a24,24,0,0,0,2.52-3.54c.19-.33.54-.94,1.05-1.85s1-1.88,1.57-2.91,1-2,1.44-2.87a6,6,0,0,0,.63-1.68c0-.33,0-.78,0-1.37s-.22-.87-.73-.87c-1.59,0-3.21,0-4.87-.14a13.88,13.88,0,0,1-4.48-.95,7.28,7.28,0,0,1-3.25-2.52,8.08,8.08,0,0,1-1.26-4.86c0-.42.23-.63.7-.63a4.91,4.91,0,0,1,1.54.32c.61.21,1.22.45,1.85.73l1.86.84a12.49,12.49,0,0,0,1.61.63,7.9,7.9,0,0,0,3,.53c1,0,2,0,3.12,0a12.29,12.29,0,0,0,2.34-.17,1.91,1.91,0,0,0,1.19-.71,2.91,2.91,0,0,0,.49-1.43q.1-.91.18-2.31a4.29,4.29,0,0,0-.6-2.59,8.72,8.72,0,0,0-1.5-1.82c-.56-.51-1.07-1-1.54-1.37a1.73,1.73,0,0,1-.7-1.36.93.93,0,0,1,.59-.81,3.92,3.92,0,0,1,1.37-.41c.51-.07,1-.12,1.54-.15l1.12,0,2,0c.79,0,1.6.1,2.41.21a8,8,0,0,1,2.21.63,2.87,2.87,0,0,1,1.4,1.3,2.91,2.91,0,0,1,.17,1.75,15.18,15.18,0,0,1-.49,2q-.32,1-.66,2a5.2,5.2,0,0,0-.31,2.52C829.89,18.19,830,18.3,830.32,18.25Zm10,29.19.07-.07.21-.49c0-.93,0-2,0-3.19s.09-2.39.18-3.6a25.22,25.22,0,0,1,.52-3.53,9,9,0,0,1,1.16-2.91,9.65,9.65,0,0,1,1.85-2c1-.89,2.06-1.79,3.15-2.69l3-2.49a6.75,6.75,0,0,0,1.33-1.26,1.85,1.85,0,0,0-.73-1.54,6.54,6.54,0,0,0-1.72-.91c-.65-.23-1.33-.44-2-.63a5.77,5.77,0,0,1-1.68-.7l-.14-.28a1,1,0,0,1,.59-.63,4,4,0,0,1,1-.31,10,10,0,0,1,1.16-.15l.91,0a42.34,42.34,0,0,1,5.25.31,12.09,12.09,0,0,1,4.41,1.37,7.93,7.93,0,0,1,3,3,10.53,10.53,0,0,1,1.16,5.29,3.13,3.13,0,0,1-.56,2.21,3.46,3.46,0,0,1-2.24.52,9.51,9.51,0,0,1-2.45-.31c-.79-.21-1.58-.45-2.35-.71s-1.55-.48-2.34-.7a9.51,9.51,0,0,0-2.45-.31,6.54,6.54,0,0,0-4,1.08c-1,.73-1.44,2-1.44,3.82,0,.79,0,1.81.07,3s.15,2.48.32,3.74a25.38,25.38,0,0,0,.69,3.53,6.22,6.22,0,0,0,1.3,2.56,8.92,8.92,0,0,0,2.94,2.17A30.38,30.38,0,0,0,854,52.06l3.46,1.09a9.52,9.52,0,0,1,3,1.54,7.59,7.59,0,0,1,2.17,2.65,9.7,9.7,0,0,1,.84,4.38v.8a1.71,1.71,0,0,1-.14.74,3.89,3.89,0,0,1-2.94,1.68,4.24,4.24,0,0,1-3-1.19A32,32,0,0,1,855,61.16a32,32,0,0,0-2.45-2.59,4.24,4.24,0,0,0-3-1.19,2.15,2.15,0,0,0-.6.07.64.64,0,0,0-.38.42,5.75,5.75,0,0,0-.18,1.05c0,.37-.05.72-.1,1a8.57,8.57,0,0,1-3.57,6,11.26,11.26,0,0,1-4.24,1.82,22.11,22.11,0,0,1-4.58.49,21.62,21.62,0,0,1-4.45-.46,12.58,12.58,0,0,1-4-1.54,8.75,8.75,0,0,1-2.94-2.83,7.87,7.87,0,0,1-1.12-4.34,8.82,8.82,0,0,1,1.61-5.39,11.82,11.82,0,0,1,4-3.46,18.26,18.26,0,0,1,5.31-1.86,41,41,0,0,1,5.57-.7Zm.28,7.49c0-.33,0-.64,0-1a1.56,1.56,0,0,0-.24-.94,1,1,0,0,0-.6-.46,6.87,6.87,0,0,0-1-.27,6.56,6.56,0,0,0-1.06-.14c-.35,0-.61,0-.8,0-.93,0-2,0-3.29.1a16.24,16.24,0,0,0-3.57.6,6.94,6.94,0,0,0-2.87,1.61,4,4,0,0,0-1.19,3.08,3.12,3.12,0,0,0,.66,2.06,4.66,4.66,0,0,0,1.65,1.26,7.73,7.73,0,0,0,2.17.64,16,16,0,0,0,2.17.17,13.22,13.22,0,0,0,3.11-.35,6.93,6.93,0,0,0,2.52-1.15A5.23,5.23,0,0,0,840,58,7.34,7.34,0,0,0,840.61,54.93Z"/><path class="cls-1" d="M936.43,59.52a1.7,1.7,0,0,0,.68.32,3.69,3.69,0,0,0,.76.08,2.62,2.62,0,0,0,1.76-.4,1.58,1.58,0,0,0,.48-.84q.07-.43.12-.84c0-.27.28-.4.76-.4a4.33,4.33,0,0,1,1.76.44,8.44,8.44,0,0,1,1.8,1.12,6.68,6.68,0,0,1,1.4,1.52,3.08,3.08,0,0,1,.56,1.72,1.89,1.89,0,0,1-1,1.72,4,4,0,0,1-2,.6,1.63,1.63,0,0,1-1-.32,4.09,4.09,0,0,1-.72-.72,4.09,4.09,0,0,0-.72-.72,1.78,1.78,0,0,0-1.12-.32,10.29,10.29,0,0,0-1.72.2,10.13,10.13,0,0,0-2.12.64,6.24,6.24,0,0,0-1.76,1.08,1.91,1.91,0,0,0-.72,1.44,1.61,1.61,0,0,0,.12.56.45.45,0,0,0,.44.32h9.6a2.24,2.24,0,0,0,1.76-.84A11,11,0,0,0,946.75,64c.37-.67.73-1.28,1.08-1.84a1.48,1.48,0,0,1,1.24-.84.75.75,0,0,1,.76.48,2.85,2.85,0,0,1,.2,1.08,10.73,10.73,0,0,1-.08,1.24,9.51,9.51,0,0,0-.08,1,.72.72,0,0,0,.48.64,8.52,8.52,0,0,1,1,.6,3.91,3.91,0,0,1,1,1.08,3.59,3.59,0,0,1,.48,2,2.61,2.61,0,0,1-1.12,2.2A8.55,8.55,0,0,1,948.83,73a21,21,0,0,1-3.88.64c-1.41.11-2.81.17-4.2.2s-2.65,0-3.8,0-2-.08-2.6-.08h-7.52c-.75,0-1.57,0-2.48-.12a9,9,0,0,1-2.56-.6,6,6,0,0,1-2-1.32,3.08,3.08,0,0,1-.84-2.28V52.8c0-.27-.17-.43-.52-.48a6.29,6.29,0,0,0-.76-.08c-.21,0-.52.25-.92.76a16.76,16.76,0,0,0-1.2,1.76l-1.16,1.92c-.37.61-.64,1-.8,1.24a56.16,56.16,0,0,1-4.4,5.48,45.63,45.63,0,0,1-5.6,5.24,30.25,30.25,0,0,1-6.44,3.92,16.7,16.7,0,0,1-6.84,1.52,3.78,3.78,0,0,1-.56-.08c-.27,0-.4-.16-.4-.32a.72.72,0,0,1,.48-.64,6.51,6.51,0,0,0,.72-.4,35.06,35.06,0,0,0,4.56-3,38.36,38.36,0,0,0,4.2-3.76,29.45,29.45,0,0,0,3.48-4.36,26,26,0,0,0,2.48-4.8.48.48,0,0,0,.08-.32c0-.75-.39-1.07-1.16-1a16.58,16.58,0,0,0-2.56.6c-.93.29-1.79.52-2.56.68s-1.16-.11-1.16-.8V33.28a.71.71,0,0,1,.8-.8,10.2,10.2,0,0,1,3,.44c1,.29,1.92.6,2.88.92s1.92.63,2.88.92a10.44,10.44,0,0,0,3,.44c.32,0,.76,0,1.32,0A1.83,1.83,0,0,0,913,35a1.53,1.53,0,0,0,.44-1c.08-.51.16-1,.24-1.6a10,10,0,0,1,.32-1.48c.13-.43.36-.64.68-.64a3.15,3.15,0,0,1,.84.12,3.15,3.15,0,0,0,.84.12,5.85,5.85,0,0,0,3.12-.88,12.87,12.87,0,0,0,2.64-2.16,19.33,19.33,0,0,0,2.16-2.76c.64-1,1.23-1.91,1.76-2.76.27-.43.55-.84.84-1.24a4.86,4.86,0,0,0,.68-1.32,3.34,3.34,0,0,0,.08-.76c0-.29-.16-.44-.48-.44-.69,0-1.75,0-3.16,0s-2.88,0-4.4,0-3,.08-4.28.16a10.21,10.21,0,0,0-2.8.44c-.53,0-.76.11-.68.48a3.2,3.2,0,0,0,.36,1,2.5,2.5,0,0,0,1.52.6,19,19,0,0,1,2.52.6,7.41,7.41,0,0,1,2.4,1.24,3,3,0,0,1,1.08,2.52,1.76,1.76,0,0,1-1.16,1.76,5.76,5.76,0,0,1-2.2.48,1.89,1.89,0,0,1-1.64-.72,5.58,5.58,0,0,1-.8-1.6,8.65,8.65,0,0,0-.68-1.6,1.36,1.36,0,0,0-1.28-.72c-.11,0-.2.09-.28.28a1.21,1.21,0,0,0-.12.44,12.14,12.14,0,0,0-.2,3.24q.12,1.63.12,3.24c0,.27-.32.53-1,.8a13.74,13.74,0,0,1-2.16.68c-.8.19-1.59.35-2.36.48a11.88,11.88,0,0,1-1.56.2,1.35,1.35,0,0,1-1-.36,2.16,2.16,0,0,1-.52-.84,4.26,4.26,0,0,1-.2-1c0-.37,0-.72,0-1a1.67,1.67,0,0,0-.12-.72c-.08-.16-.31-.24-.68-.24a3.2,3.2,0,0,0-1.36.48q-.88.48-1.8,1.08c-.61.4-1.23.79-1.84,1.16a13.12,13.12,0,0,1-1.48.8l-.24-.16A8.21,8.21,0,0,1,896,29c.59-1.2,1.25-2.51,2-3.92s1.43-2.72,2-3.92a7.71,7.71,0,0,0,.92-2.28.5.5,0,0,0-.28-.52c-.19-.08-.36-.15-.52-.2H895l-.56-.24-.16-.24.16-.4a7.78,7.78,0,0,1,1.36-.12c.75,0,1.59,0,2.52,0h4.36q.32,0,.48-.84a6.37,6.37,0,0,0,0-1.92,8.32,8.32,0,0,0-.52-2.12,3.12,3.12,0,0,0-1.12-1.52,4.15,4.15,0,0,0-1.4-.28c-.77-.08-1.63-.13-2.56-.16l-2.68-.08c-.85,0-1.44,0-1.76,0a.5.5,0,0,0-.52.32,3.07,3.07,0,0,0-.16.76,4.31,4.31,0,0,0,0,.88,6.79,6.79,0,0,1,0,.68,8.1,8.1,0,0,0,.28,2.16,8.1,8.1,0,0,1,.28,2.16V22q0,5.52-.2,11.6a104.77,104.77,0,0,1-1.08,12A62.58,62.58,0,0,1,889,57.2a38.55,38.55,0,0,1-5.4,10.24c-.16.21-.49.6-1,1.16s-1,1.13-1.64,1.72-1.15,1.11-1.68,1.56a2.45,2.45,0,0,1-1.12.68.38.38,0,0,1-.44-.36,4.85,4.85,0,0,1,0-.6,23.8,23.8,0,0,1,.8-6.12c.53-2,1.11-4,1.72-5.92s1.19-3.92,1.72-5.92a23.8,23.8,0,0,0,.8-6.12V6c0-.59.24-.88.72-.88a6.66,6.66,0,0,1,2.36.56c.93.37,1.91.77,2.92,1.2s2,.83,3.08,1.2a8.74,8.74,0,0,0,2.92.56q3.6,0,7.2.24t7.2.24c.32,0,.75,0,1.28,0a.75.75,0,0,0,.8-.84V1c0-.53.32-.8,1-.8.37,0,1.09,0,2.16,0s2.17.09,3.32.2a23.81,23.81,0,0,1,3.08.48c.91.21,1.36.48,1.36.8a.81.81,0,0,1-.12.48l-.28.4A5.36,5.36,0,0,0,920.79,5c-.08.88-.12,1.75-.12,2.6a8.32,8.32,0,0,0,.08.92c0,.4.24.6.56.6h16a2.48,2.48,0,0,0,1.6-.84,17.17,17.17,0,0,0,1.72-1.92,18.83,18.83,0,0,0,1.48-2.2A12.82,12.82,0,0,0,943,2.4l.48-.24a7.17,7.17,0,0,1,1.6,1.12c.85.69,1.73,1.47,2.64,2.32s1.73,1.67,2.48,2.44,1.12,1.24,1.12,1.4-.19.43-.56.64a2,2,0,0,1-.8.32h-16.8a1.41,1.41,0,0,0-.4.08.31.31,0,0,0-.24.32q0,.72,1,1c.64.16,1.33.29,2.08.4s1.44.24,2.08.4,1,.43,1,.8a3.58,3.58,0,0,1-.16,1.08,3.58,3.58,0,0,0-.16,1.08c0,.75.15,1.2.44,1.36a3.31,3.31,0,0,0,1.48.24,2.77,2.77,0,0,0,1.84-.6,7.13,7.13,0,0,0,1.28-1.4,16.16,16.16,0,0,1,1.16-1.48A2.61,2.61,0,0,1,946,12.8l.28.12.28.12a7.57,7.57,0,0,1,.92.72c.51.43,1,.91,1.6,1.44s1,1,1.48,1.44a3.62,3.62,0,0,1,.64.72q0,.64-1.56.84a28.94,28.94,0,0,1-3.56.2c-1.33,0-2.63,0-3.88-.12s-2.07-.12-2.44-.12l-.56.24-.16.32c0,.05.08.09.08.12s0,.07.08.12A10.52,10.52,0,0,0,942,21a22,22,0,0,0,2.88,1.2c1,.32,1.93.65,2.92,1a13.38,13.38,0,0,1,2.84,1.4c.11.11.23.21.36.32a.51.51,0,0,1,.2.4.69.69,0,0,1-.08.36,1.72,1.72,0,0,1-.24.28,14.67,14.67,0,0,0-.84,1.4c-.4.72-.83,1.47-1.28,2.24s-.87,1.47-1.24,2.08-.64.92-.8.92c-.32,0-.84-.47-1.56-1.4s-1.45-2-2.2-3.2-1.44-2.36-2.08-3.48-1.07-1.89-1.28-2.32l-.32-.24a.86.86,0,0,0-.64.24l-.24.56v8.8c0,.43.33.89,1,1.4a21.22,21.22,0,0,0,2.24,1.48c.83.48,1.57,1,2.24,1.44s1,.91,1,1.28-.23.64-.68.8-.68.43-.68.8V51.44a.77.77,0,0,1-.24.56,8.62,8.62,0,0,1-1.64,1.68c-.77.64-1.53,1.29-2.28,2a23.57,23.57,0,0,0-2,2A2.93,2.93,0,0,0,936.43,59.52ZM905.23,11c-.05.32.25.56.92.72a22.18,22.18,0,0,0,2.28.4l2.44.32a4.8,4.8,0,0,1,1.56.4c-.27.43-.47.76-.6,1a2.79,2.79,0,0,0-.2,1.24,2.46,2.46,0,0,0,.24,1.12,1,1,0,0,0,1,.48A1.37,1.37,0,0,0,914,16a9.44,9.44,0,0,0,.8-1.32c.24-.48.47-.92.68-1.32a.93.93,0,0,1,.8-.6.26.26,0,0,1,.24.12,1.72,1.72,0,0,0,.24.28,8.22,8.22,0,0,0,4,3.28,17.89,17.89,0,0,0,5.16.64,13.9,13.9,0,0,1,1.44.08,5.11,5.11,0,0,0,1.24,0,1.38,1.38,0,0,0,.88-.52,2.51,2.51,0,0,0,.36-1.56,5.9,5.9,0,0,0-.12-1c-.08-.43-.17-.85-.28-1.28a5.7,5.7,0,0,0-.44-1.2,2.34,2.34,0,0,0-.6-.8,7.52,7.52,0,0,0-2.48-.4c-1.44-.11-3-.17-4.8-.2l-5-.08-3.2,0c-1.23,0-2.45,0-3.68.08a21.08,21.08,0,0,0-3.68.48Zm.64,39.2a5.17,5.17,0,0,0,.4.36.77.77,0,0,0,.48.2h8.4a.71.71,0,0,0,.8-.8V37.6a.71.71,0,0,0-.8-.8h-8.4a.77.77,0,0,0-.48.2,5.17,5.17,0,0,0-.4.36c0,.59,0,1.16,0,1.72s0,1.13,0,1.72a3.85,3.85,0,0,0,.24,1.36,4,4,0,0,1,0,2.72,3.85,3.85,0,0,0-.24,1.36c0,.64,0,1.29,0,2S905.87,49.52,905.87,50.16Zm1.76-6.48a.38.38,0,0,1,.28-.36,1.21,1.21,0,0,1,.44-.12h5.12a1.21,1.21,0,0,1,.44.12.38.38,0,0,1,.28.36,3.68,3.68,0,0,1-1.08.12c-.67,0-1.4,0-2.2,0s-1.53,0-2.2,0A3.68,3.68,0,0,1,907.63,43.68ZM928.27,25.6c-.16.11-.55.33-1.16.68l-1.92,1.12c-.67.4-1.27.79-1.8,1.16s-.83.59-.88.64a.83.83,0,0,0-.08.2.83.83,0,0,1-.08.2,2.3,2.3,0,0,0,.52.76,1.06,1.06,0,0,1,.36.76c0,.27-.25.55-.76.84s-1.08.59-1.72.88-1.21.59-1.72.88-.76.6-.76.92a.54.54,0,0,0,.16.4,3.68,3.68,0,0,0,1.08.12l2.52.08q1.51,0,3.24,0c1.15,0,2.25,0,3.32,0h4.48a1.57,1.57,0,0,0,.92-.4,6.91,6.91,0,0,0,1-1,8.31,8.31,0,0,0,.84-1.16,3.24,3.24,0,0,0,.44-1l-.08-.32-.48-.4a9.3,9.3,0,0,0-1.28.16c-.64.11-1.29.2-2,.28a10.42,10.42,0,0,1-1.8.08c-.53,0-.8-.2-.8-.52V28.32c0-.53,0-1,0-1.52a3.43,3.43,0,0,0-.12-.88,1.74,1.74,0,0,0-.68-.24A4.68,4.68,0,0,0,928.27,25.6Zm-3,11.2a.71.71,0,0,0-.8.8V49.92a.71.71,0,0,0,.8.8h8.56a.71.71,0,0,0,.8-.8V37.6a.71.71,0,0,0-.8-.8ZM927,43.2h5.2l.56.24.16.24a4,4,0,0,1-1.12.12c-.69,0-1.44,0-2.24,0s-1.53,0-2.2,0a3.68,3.68,0,0,1-1.08-.12l.16-.24Zm.16,9.92a43.49,43.49,0,0,0,.32,5.24,43.49,43.49,0,0,1,.32,5.24c0,.27,0,.65,0,1.16a2.23,2.23,0,0,0,.12,1.08,1.79,1.79,0,0,0,1.12.68,5.94,5.94,0,0,0,1.36.2c1,0,1.49-.25,1.6-.76a3,3,0,0,0-.24-1.76,16,16,0,0,0-1-2,3.63,3.63,0,0,1-.6-1.68c0-.43.24-.57.72-.44a4.65,4.65,0,0,0,1.12.2c.37,0,.67-.32.88-1a14.27,14.27,0,0,0,.52-2.16,19.46,19.46,0,0,0,.24-2.36c0-.77,0-1.29,0-1.56a1.61,1.61,0,0,0-.12-.56.45.45,0,0,0-.44-.32c-.32,0-.75,0-1.28,0s-1.09,0-1.68,0-1.13,0-1.64.08a3.21,3.21,0,0,0-1.08.24Z"/><path class="cls-1" d="M963.39,21.92c.43,0,1.12,0,2.08,0s2,0,3.28,0,2.51,0,3.84,0,2.57,0,3.72,0l3,.08a11,11,0,0,1,1.56.12l-.56.24a1.74,1.74,0,0,1-.56.16H963.39l-.24-.24Zm23.68,25c1.39,0,2.75,0,4.08.16a28.72,28.72,0,0,1,4.08.64,23.33,23.33,0,0,0,3,.6,24.41,24.41,0,0,0,3.12.2c.53,0,1.09-.41,1.68-1.24a17.27,17.27,0,0,0,1.72-3.2c.56-1.31,1.09-2.76,1.6-4.36s1-3.13,1.4-4.6.79-2.8,1.08-4,.49-2.07.6-2.6l.24-1c.11-.48.23-1,.36-1.48l.36-1.4a4.46,4.46,0,0,0,.16-.8,2.24,2.24,0,0,0-.24-.92.77.77,0,0,0-.72-.52H997.15a.4.4,0,1,1,0-.8h23.12c.59,0,1.2-.43,1.84-1.28a29.76,29.76,0,0,0,1.88-2.84c.61-1,1.19-2,1.72-2.84s1-1.28,1.28-1.28a9,9,0,0,1,1.68,1.2l3.36,2.68q1.85,1.49,3.36,2.8a17.76,17.76,0,0,1,1.68,1.56c.11.32.08.53-.08.64a3.26,3.26,0,0,1-1,.12l-2.32.08q-1.39,0-3,0c-1.07,0-2.09,0-3.08,0h-4.12c-.32,0-.63.23-.92.68a7.43,7.43,0,0,0-.76,1.6,15.84,15.84,0,0,0-.52,1.84c-.13.61-.23,1.05-.28,1.32-.21,1.17-.39,2.33-.52,3.48a16.85,16.85,0,0,1-.76,3.4,27.69,27.69,0,0,1-1.72,4c-.77,1.52-1.55,3.07-2.32,4.64s-1.45,3.09-2,4.56a10.45,10.45,0,0,0-.88,3.8q0,.41.12.48l.44.24,5.88,2.6a35.58,35.58,0,0,1,5.88,3.28,18.53,18.53,0,0,1,4.56,4.44,10.26,10.26,0,0,1,1.84,6.16,5.59,5.59,0,0,1-1.24,3.72,4.37,4.37,0,0,1-3.56,1.48,9.27,9.27,0,0,1-2-.2,4.72,4.72,0,0,1-1.76-.84,13,13,0,0,1-3-2.72c-.85-1.07-1.73-2.08-2.64-3-.27-.27-.91-.84-1.92-1.72l-3.2-2.76c-1.12-1-2.17-1.81-3.16-2.56a5.79,5.79,0,0,0-1.8-1.12h-1a5.94,5.94,0,0,0-1.32.88c-.35.32-.73.67-1.16,1a15.41,15.41,0,0,1-2.6,2c-.93.56-1.85,1.11-2.76,1.64a64.55,64.55,0,0,1-12,5.44,78.52,78.52,0,0,1-12.68,3.12c-.8.11-1.61.24-2.44.4a12.85,12.85,0,0,1-2.44.24,2.42,2.42,0,0,1-1.08-.12c-.08-.08.12-.33.6-.76a12.29,12.29,0,0,1,3.08-1.92l3.4-1.6c2.61-1.23,4.93-2.29,7-3.2s4-1.87,5.8-2.88a42.94,42.94,0,0,0,5.48-3.6,51.31,51.31,0,0,0,5.84-5.36.79.79,0,0,1,0-.28.58.58,0,0,0,0-.2,1.92,1.92,0,0,0-1-1.16,20.92,20.92,0,0,0-2.2-1.28c-.88-.45-1.83-.89-2.84-1.32L990.15,49A25,25,0,0,1,987.87,48c-.64-.35-1-.63-1-.84ZM1004,2.88a3.71,3.71,0,0,1-1.24,1,5.84,5.84,0,0,0-1.32.88,7.42,7.42,0,0,0-.68,1.52c-.35.91-.72,1.92-1.12,3s-.77,2.19-1.12,3.2-.57,1.68-.68,2q-.48,1.37-1.64,4.6t-2.72,7.36q-1.56,4.13-3.36,8.56t-3.52,8.2a70.2,70.2,0,0,1-3.2,6.28c-1,1.68-1.8,2.6-2.44,2.76a3.36,3.36,0,0,1-1.2.12c-.43,0-.85,0-1.28,0h-1.68q-1.28,0-2.64-.12a14.62,14.62,0,0,1-2.44-.4q-1.08-.28-1.08-.84a9.72,9.72,0,0,1,.76-3q.76-2,2-4.64T976,37.8q1.44-2.92,2.84-5.64t2.48-5c.72-1.52,1.27-2.73,1.64-3.64.8-2,1.53-4.09,2.2-6.2s1.32-4.23,2-6.36c.11-.37.35-1.16.72-2.36s.77-2.44,1.2-3.72a35.79,35.79,0,0,1,1.32-3.4c.45-1,.84-1.48,1.16-1.48.64,0,1.57.05,2.8.16s2.51.28,3.84.52a27.09,27.09,0,0,1,3.68.92A4.13,4.13,0,0,1,1004,2.88Z"/><path d="M1049.33,60a9.13,9.13,0,0,1,.7-3.57,8.59,8.59,0,0,1,2-2.9,9.32,9.32,0,0,1,2.94-1.93,9.13,9.13,0,0,1,3.57-.7,9.83,9.83,0,0,1,3.71.7,9.69,9.69,0,0,1,3.08,2,8.84,8.84,0,0,1,2.07,3,9.46,9.46,0,0,1,.73,3.75,8.68,8.68,0,0,1-.73,3.6,9.25,9.25,0,0,1-2,2.88,8.79,8.79,0,0,1-3,1.88,10.2,10.2,0,0,1-7.35,0,9.17,9.17,0,0,1-3-1.93,8.83,8.83,0,0,1-2-2.94A9.39,9.39,0,0,1,1049.33,60Zm1.82.07a7.23,7.23,0,0,0,3.92,6.82,7.36,7.36,0,0,0,3.61.85,8,8,0,0,0,3.6-.92,7.41,7.41,0,0,0,2.8-2.58A7.59,7.59,0,0,0,1066.2,60a7.06,7.06,0,0,0-1.12-4.09,6.76,6.76,0,0,0-2.8-2.42,8.59,8.59,0,0,0-3.6-.77,8,8,0,0,0-3.61.84,7.33,7.33,0,0,0-2.8,2.49A6.92,6.92,0,0,0,1051.15,60Z"/><path d="M1108.2,27.77a.68.68,0,0,1,.25-.6A.77.77,0,0,1,1109,27a1.13,1.13,0,0,1,.56.21.59.59,0,0,1,.24.52q0,10.58.25,21t.24,21a.62.62,0,0,1-.7.7q-5.17,0-10.29-.21T1089,70.05a.7.7,0,0,1,0-1.4h18.48a.62.62,0,0,0,.7-.7Z"/></g></g></svg>