<svg xmlns="http://www.w3.org/2000/svg" viewBox="0 0 1177.56 83.88"><defs><style>.cls-1{fill:#950732;}</style></defs><title>2</title><g id="レイヤー_2" data-name="レイヤー 2"><g id="top"><path d="M73.4,40.81H.76A.66.66,0,0,1,0,40.13c0-.45.23-.68.76-.68H54.6c.37,0,.91-.52,1.6-1.56s1.41-2.2,2.16-3.48,1.45-2.44,2.12-3.48,1.19-1.56,1.56-1.56a6.4,6.4,0,0,1,1,.72c.59.48,1.28,1.08,2.08,1.8l2.64,2.4c1,.88,1.85,1.72,2.68,2.52s1.52,1.51,2.08,2.12a15,15,0,0,1,1,1.16.83.83,0,0,1,.08.2.83.83,0,0,0,.08.2Z"/><path d="M87.72,48,84.6,40.25v-.4h2c.93,0,1.92,0,3-.08s2-.12,2.84-.2A7.28,7.28,0,0,0,94,39.29a3.3,3.3,0,0,0,1-1q.56-.72,1.08-1.56c.35-.56.65-1.11.92-1.64s.48-1,.64-1.36.4-1.19.72-2.28.68-2.33,1.08-3.72.84-2.83,1.32-4.32,1-2.87,1.4-4.12a33.25,33.25,0,0,1,1.28-3.12q.6-1.25,1.08-1.32c.37.16,1.11.44,2.2.84L110.24,17c1.2.45,2.28.88,3.24,1.28a5.24,5.24,0,0,1,1.6.84l-.08.32a17.71,17.71,0,0,1-2.44,2,17.71,17.71,0,0,0-2.44,2,57.63,57.63,0,0,0-4.48,5q-2.08,2.64-4.24,5.2-.24.31-1,1.08L99,36.45,97.56,38a6.35,6.35,0,0,0-.72.88l.32.32H107c.27,0,.49-.17.68-.52a2,2,0,0,0,.28-.92,2.82,2.82,0,0,0-.4-1.08c-.27-.51-.51-1-.72-1.52a4.54,4.54,0,0,1-.36-1.32c0-.37.2-.56.68-.56a6.73,6.73,0,0,1,3.2.92,12.83,12.83,0,0,1,3.08,2.36,13.15,13.15,0,0,1,2.28,3.16A7.12,7.12,0,0,1,116.6,43a5.21,5.21,0,0,1-1.12,3.44,4,4,0,0,1-3.28,1.36q-2.08,0-2.76-1.08a5.84,5.84,0,0,1-.84-2.4c-.11-.88-.21-1.69-.32-2.44A1.16,1.16,0,0,0,107,40.73a2.77,2.77,0,0,0-.68.12c-.29.08-.44.23-.44.44v8c0,.59.56,1.21,1.68,1.88s2.35,1.45,3.68,2.36a19.55,19.55,0,0,1,3.68,3.28,6.81,6.81,0,0,1,1.68,4.64,7.8,7.8,0,0,1-.72,3.52q-.72,1.44-3.12,1.44a3.12,3.12,0,0,1-3.2-1.92,13.5,13.5,0,0,1-1-4.24c-.11-1.55-.23-3-.36-4.24s-.6-1.92-1.4-1.92a.94.94,0,0,0-.72.36,2.7,2.7,0,0,0-.48.76V77.05a1.43,1.43,0,0,1-1.08,1.32,12.15,12.15,0,0,1-2.44.68,19.55,19.55,0,0,1-2.76.28c-.93,0-1.59,0-2,0a.71.71,0,0,1-.8-.8V59c0-.43-.16-.64-.48-.64a2.37,2.37,0,0,0-1.68,1.08,17.79,17.79,0,0,0-1.76,2.68c-.59,1.07-1.17,2.23-1.76,3.48S89.75,68,89.16,69.05a17.79,17.79,0,0,1-1.76,2.68,2.37,2.37,0,0,1-1.68,1.08c-.48,0-.72-.21-.72-.64a31.69,31.69,0,0,1,.8-7.08q.8-3.48,1.44-7.08c.16-1,.28-1.93.36-2.92s.17-2,.28-2.92a1.41,1.41,0,0,1,.08-.4q.08-.24.24-.24a5.76,5.76,0,0,1,1.88.32c.61.21,1.23.44,1.84.68s1.23.47,1.84.68a5.76,5.76,0,0,0,1.88.32.55.55,0,0,0,.48-.24A7.49,7.49,0,0,0,96.24,52c0-.72,0-1.52,0-2.4V45.45a.71.71,0,0,0-.8-.8,4.46,4.46,0,0,0-2.08.6c-.75.4-1.47.83-2.16,1.28l-1.88,1.24a2.08,2.08,0,0,1-1.32.48ZM86,18.81a5.3,5.3,0,0,1,1.52.36,19,19,0,0,0,2.12.6,7.37,7.37,0,0,0,2,.2,1.11,1.11,0,0,0,1.12-.76,5.1,5.1,0,0,0,.2-1.32c0-.56.07-1,.12-1.4s.16-1.17.32-2.4.37-2.52.64-3.88.56-2.59.88-3.68.64-1.67,1-1.72a5.26,5.26,0,0,1,1.8.4q1.49.48,3.24,1.08c1.17.4,2.27.8,3.28,1.2a17.63,17.63,0,0,1,1.92.84,2.78,2.78,0,0,1,.4.24c.16.11.24.21.24.32a.65.65,0,0,1-.32.48,6.29,6.29,0,0,1-.76.48,6.85,6.85,0,0,1-.88.4,1.78,1.78,0,0,0-.6.32,11.33,11.33,0,0,0-1.2,1.2c-.37.43-.77.85-1.2,1.28Q100,14.9,98.2,16.65a32.4,32.4,0,0,1-3.92,3.2,1.76,1.76,0,0,0-.12,1.68,10.39,10.39,0,0,0,1,2c.43.67.84,1.33,1.24,2a3.81,3.81,0,0,1,.6,2,3.48,3.48,0,0,1-1.24,2.6,3.36,3.36,0,0,1-3.44,1,8.27,8.27,0,0,1-1-.32,4.78,4.78,0,0,1-1-.48,1.2,1.2,0,0,1-.52-.52c-.37-1.07-.73-2.12-1.08-3.16s-.73-2.09-1.16-3.16a21,21,0,0,0-.92-1.92,21,21,0,0,1-.92-1.92,1.19,1.19,0,0,1-.08-.48Zm47.12,13.12-.24-.24H112.68a.4.4,0,0,1,0-.8h11.6a.71.71,0,0,0,.8-.8V6.33a.71.71,0,0,1,.8-.8,53.56,53.56,0,0,1,10.64,1l.4.32a.84.84,0,0,1-.28.6l-.56.56-.56.56a.91.91,0,0,0-.28.68v6.8a1.6,1.6,0,0,0,.32.8c.21.32.43.48.64.48a1.61,1.61,0,0,0,1.08-.64,9.72,9.72,0,0,0,1.12-1.48c.35-.56.68-1.11,1-1.64a12.89,12.89,0,0,1,.8-1.2l.4-.16a2.19,2.19,0,0,1,.72.36,9,9,0,0,1,.8.64,9,9,0,0,0,.8.64,1.29,1.29,0,0,0,.72.28c.48,0,.85-.33,1.12-1a17.38,17.38,0,0,0,.72-2.24c.21-.83.44-1.57.68-2.24s.6-1,1.08-1a6.48,6.48,0,0,1,1.6.76c.91.51,1.89,1.08,3,1.72l3,1.84c1,.59,1.6,1,1.92,1.12l.16.32a9.34,9.34,0,0,1-1.48,1.6c-.56.48-1.11,1-1.64,1.52s-1.49,1.53-2.56,2.68-2.12,2.36-3.16,3.64a32.82,32.82,0,0,0-2.68,3.8,6.52,6.52,0,0,0-1.12,3.16.68.68,0,0,0,.52.72,3.07,3.07,0,0,0,.92.16,4.46,4.46,0,0,0,2.76-.76,7.18,7.18,0,0,0,1.68-1.8,20.39,20.39,0,0,0,1.16-2,3.62,3.62,0,0,1,1.2-1.44,4.34,4.34,0,0,1,2,.84,19.14,19.14,0,0,1,2.56,2,23.58,23.58,0,0,1,2.12,2.16c.59.69.85,1.17.8,1.44a3.3,3.3,0,0,1-.4.6A.79.79,0,0,1,159,32H142.2a3.19,3.19,0,0,0-1,.68c-.53.45-1.19,1-2,1.72s-1.59,1.45-2.44,2.28-1.65,1.61-2.4,2.36-1.39,1.41-1.92,2a5.4,5.4,0,0,0-.88,1.12l-.16.4a1.61,1.61,0,0,0,.12.56.45.45,0,0,0,.44.32l9.44.56a2.46,2.46,0,0,0,1.92-.76,16.15,16.15,0,0,0,1.68-1.88l1.52-2A2.74,2.74,0,0,1,148,38.33c.16,0,.67.21,1.52.8s1.76,1.27,2.72,2,1.83,1.51,2.6,2.2S156,44.52,156,44.73a.71.71,0,0,1-.32.56,6.29,6.29,0,0,1-.76.48,3.4,3.4,0,0,0-.76.56,1.2,1.2,0,0,0-.32.88V75.45a1.75,1.75,0,0,1-1.2,1.6,11.48,11.48,0,0,1-2.76.84,23.67,23.67,0,0,1-3.08.36c-1,0-1.76.08-2.24.08a.71.71,0,0,1-.8-.8V59.61a1.73,1.73,0,0,0-.28-.88,1.86,1.86,0,0,1-.28-1,.91.91,0,0,1,.28-.68.84.84,0,0,0,.28-.6V45.85a.71.71,0,0,0-.8-.8H132.28a.71.71,0,0,0-.8.8v25a1.29,1.29,0,0,0,.56.88,1.6,1.6,0,0,0,.88.48h8.32a.4.4,0,0,1,0,.8h-8.4a.73.73,0,0,0-.64.36,2.67,2.67,0,0,0-.36.84l-.24,1c-.08.32-.15.59-.2.8a4.47,4.47,0,0,1-1.32,2,5.5,5.5,0,0,1-1.92,1,9.37,9.37,0,0,1-2.28.36c-.8,0-1.57,0-2.32,0-.32,0-.68,0-1.08,0s-.6-.28-.6-.76V48.73a.56.56,0,0,0-.64-.64,2.78,2.78,0,0,0-1.52.52,16.67,16.67,0,0,0-1.6,1.2,19.25,19.25,0,0,1-1.56,1.2,2.61,2.61,0,0,1-1.48.52,2.15,2.15,0,0,1-.4,0,.26.26,0,0,1-.24-.28c0-.27.29-.68.88-1.24s1.24-1.16,2-1.8,1.43-1.24,2.12-1.8a11.53,11.53,0,0,0,1.44-1.32,3,3,0,0,0,.4-1.12c.11-.53.23-1.07.36-1.6a10.6,10.6,0,0,1,.44-1.4c.16-.4.37-.6.64-.6a2.52,2.52,0,0,1,1.32.36,1.3,1.3,0,0,0,1.4-.12,13.54,13.54,0,0,0,1.6-1.48c.69-.72,1.43-1.49,2.2-2.32s1.51-1.64,2.2-2.44,1.2-1.41,1.52-1.84ZM117.32,18.41h5.92l.24.24-.24.24h-5.92l-.24-.24ZM133.4,58.17l-.16-.24a6.36,6.36,0,0,1,1.32-.12c.77,0,1.61,0,2.52,0s1.79,0,2.64,0l1.68,0,.24.24-.24.32H134Zm7.12-38.32a2.41,2.41,0,0,0-1.76-.84c-.8-.08-1.49-.12-2.08-.12a1.33,1.33,0,0,0-.88.48,1.81,1.81,0,0,0-.56.88,5.79,5.79,0,0,0,0,1.32,19.45,19.45,0,0,0,.2,2.08,15.68,15.68,0,0,0,.4,1.92c.16.56.35.84.56.84s.63-.27,1.08-.8a14,14,0,0,0,1.32-1.88c.43-.72.81-1.41,1.16-2.08s.57-1.13.68-1.4Z"/><path d="M178.36,12.33a.85.85,0,0,1,.36-1A1.89,1.89,0,0,1,179.8,11a5.84,5.84,0,0,1,3.36,1.64A29.61,29.61,0,0,1,187,16.49,35.12,35.12,0,0,1,190.28,21a7.77,7.77,0,0,1,1.36,3.56,16,16,0,0,1-1.44,6.64q-1.44,3.2-3.16,6.48a70.82,70.82,0,0,0-3.16,6.92,21.46,21.46,0,0,0-1.44,8,7.17,7.17,0,0,0,.48,2.44,1.81,1.81,0,0,0,1.84,1.32,2.47,2.47,0,0,0,1.68-.92,15.06,15.06,0,0,0,1.76-2.28,29.45,29.45,0,0,0,1.68-3q.8-1.61,1.56-3c.51-.93,1-1.72,1.4-2.36a2.57,2.57,0,0,1,1.2-1.12c.16,0,.24,0,.24.28a1.31,1.31,0,0,1-.08.52c-1,2.88-2,5.81-2.92,8.8a30.77,30.77,0,0,0-1.4,9.2,18.63,18.63,0,0,0,.48,3.64,29.49,29.49,0,0,1,.6,4.48,8.1,8.1,0,0,1-.6,3.8c-.48,1.07-1.52,1.6-3.12,1.6a7.08,7.08,0,0,1-4-1.16,10,10,0,0,1-2.92-3.08,17.7,17.7,0,0,1-1.92-4.32,38.75,38.75,0,0,1-1.12-4.88c-.27-1.65-.45-3.25-.56-4.8s-.16-2.88-.16-4a46.53,46.53,0,0,1,.68-7.92q.68-3.91,1.52-7.8t1.56-7.8a43.7,43.7,0,0,0,.72-7.92,21.57,21.57,0,0,0-.24-3.36,17.53,17.53,0,0,0-.88-3.28A12,12,0,0,0,179,14,5.49,5.49,0,0,1,178.36,12.33Zm24.32,38.56c1,1.33,1.87,2.56,2.56,3.68a20.19,20.19,0,0,0,2.24,3,12.58,12.58,0,0,0,2.88,2.32,15.64,15.64,0,0,0,4.48,1.64,16.25,16.25,0,0,0,3.24.48c1.09.05,2.17.08,3.24.08a38.8,38.8,0,0,0,6.36-.52,38.8,38.8,0,0,1,6.36-.52,23.26,23.26,0,0,1,2.64.16,9.14,9.14,0,0,1,2.64.68,5.71,5.71,0,0,1,2,1.48,3.63,3.63,0,0,1,.84,2.48,3.88,3.88,0,0,1-1,2.68,8.07,8.07,0,0,1-2.36,1.8,11.32,11.32,0,0,1-3,1,14.52,14.52,0,0,1-2.84.32H218.2A14.75,14.75,0,0,1,209,68.58a17,17,0,0,1-6.28-10.09,28.7,28.7,0,0,1-.64-5.92,3.39,3.39,0,0,1,.4-1.92ZM214.6,35.21c.43-.43,1-1,1.6-1.56s1.27-1.27,1.88-2,1.19-1.39,1.72-2.08a5.88,5.88,0,0,0,1-1.84l-.16-.56a2.28,2.28,0,0,0-1.84-.87H215a35.25,35.25,0,0,0-4.68.31,33.67,33.67,0,0,1-4.68.32c-.48,0-.72-.26-.72-.79s.42-1.16,1.24-1.74a15.72,15.72,0,0,1,3.2-1.67c1.31-.52,2.75-1,4.32-1.46s3.11-.85,4.6-1.19,2.83-.62,4-.83a16.59,16.59,0,0,1,2.56-.32q1.68,0,4.08.24a21.17,21.17,0,0,1,4.64,1,11.55,11.55,0,0,1,3.84,2.1,4.4,4.4,0,0,1,1.6,3.56,3.52,3.52,0,0,1-.48,2,2.82,2.82,0,0,1-1.28,1,6.1,6.1,0,0,1-1.8.4l-2,.16c-1.33.16-2.65.39-4,.68s-2.6.63-3.88,1a55.37,55.37,0,0,0-7.6,2.8c-.53.27-1.07.56-1.6.88a5,5,0,0,1-1.68.64Z"/><path class="cls-1" d="M257.87,56.25a1.5,1.5,0,0,1-.63-.68c-.18-.32,0-.49.54-.49h23.67l.18.18-.09.09-.63.27Zm6.66-9.63a18.12,18.12,0,0,1-1.66-2.3c-.81-1.22-1.64-2.52-2.48-3.87s-1.59-2.57-2.25-3.69-1-1.72-.9-1.84l.27-.27A33.65,33.65,0,0,0,263,33.3q2.66-.9,5.35-1.85t5.4-1.62a22.92,22.92,0,0,1,5.58-.67q.81,0,.81.9c0,.9-.61,2-1.84,3.42s-2.64,2.81-4.23,4.27-3.17,2.88-4.73,4.23a21.24,21.24,0,0,0-3.24,3.29l-1,1.35Zm26.55,8.46.32-.14a1.48,1.48,0,0,0,.31-.13c.18-.12.26-.68.23-1.66s-.05-2.06-.05-3.2a24.6,24.6,0,0,1,.18-3.11c.12-.92.42-1.39.9-1.39H304a5,5,0,0,1,1.35.36q1,.36,1,.81c0,.3-.22.58-.67.85a3.36,3.36,0,0,0-.95.77,6.38,6.38,0,0,0-.4,1.21c-.21.76-.44,1.58-.68,2.48s-.45,1.75-.63,2.56a12.66,12.66,0,0,0-.27,1.4,58.81,58.81,0,0,0,.68,8.91,58.8,58.8,0,0,1,.67,8.91c0,1.2,0,2.4,0,3.6s0,2.4,0,3.6c0,.6-.49,1.09-1.48,1.49a17.47,17.47,0,0,1-3.38.89c-1.26.21-2.5.36-3.73.45s-2.06.14-2.48.14a1.48,1.48,0,0,1-.58-.14.49.49,0,0,1-.32-.49V65.61q0-.72-.81-.72A7,7,0,0,0,288.52,66q-1.93,1.08-4.55,2.7t-5.58,3.51q-3,1.89-6,3.51a52,52,0,0,1-5.81,2.7,13.79,13.79,0,0,1-4.86,1.08,2.92,2.92,0,0,1-.45,0,.28.28,0,0,1-.27-.31,1,1,0,0,1,.36-.63l.54-.54c1.26-1.08,3-2.56,5.18-4.46s4.41-3.88,6.66-6,4.29-4.14,6.12-6.12a17.6,17.6,0,0,0,3.55-5,9.67,9.67,0,0,1,.45-.94c.12-.21.45-.32,1-.32ZM261.2,8.28c-.12-.42,0-.64.27-.68s.6,0,.9,0a19.34,19.34,0,0,1,4.95.72,20,20,0,0,1,5,2.07,13.08,13.08,0,0,1,3.82,3.37,7.63,7.63,0,0,1,1.53,4.73,5.77,5.77,0,0,1-1.35,3.91,4.68,4.68,0,0,1-3.78,1.58,5.62,5.62,0,0,1-3.6-1.22,12.67,12.67,0,0,1-2.7-3,22.72,22.72,0,0,1-2-3.78c-.57-1.35-1-2.53-1.4-3.55-.24-.6-.54-1.31-.9-2.12A11.19,11.19,0,0,1,261.2,8.28Zm31.86,3.87a4.67,4.67,0,0,0,.32-2.16c0-1-.08-2-.14-3.06s-.12-2.14-.18-3.2a11.22,11.22,0,0,1,.09-2.56c.06-.18.14-.42.23-.72A.56.56,0,0,1,294,0a21.26,21.26,0,0,1,2.43.22c1.08.16,2.21.34,3.38.54l3.42.64a20.66,20.66,0,0,1,2.47.58q.72.18.72.63c0,.54-.58,1.14-1.75,1.8s-2.43,1.39-3.78,2.2a22.91,22.91,0,0,0-3.56,2.61c-1,.94-1.35,1.88-1,2.84l.54.36c.42,0,.93,0,1.53,0s1.23,0,1.89,0a13.31,13.31,0,0,0,1.85-.13,2.85,2.85,0,0,0,1.3-.5,6.24,6.24,0,0,0,1-1.08l1.31-1.67A18.49,18.49,0,0,1,307,7.65,1.72,1.72,0,0,1,308.09,7a3,3,0,0,1,.9.18,19.89,19.89,0,0,1,1.76,1.17c.93.66,1.89,1.39,2.88,2.2s1.87,1.58,2.65,2.3,1.17,1.17,1.17,1.35a1.8,1.8,0,0,1-.67,1.12l-1,1-.27.63q0,1.17.09,2.25t.09,2.25a7.74,7.74,0,0,1-.4,2.47,7.81,7.81,0,0,0-.41,2.48V41.22q0,.72-1.26,1.26a18.6,18.6,0,0,1-2.92.94,31.27,31.27,0,0,1-3.24.63,16.83,16.83,0,0,1-2.12.23.64.64,0,0,1-.63-.5,5.47,5.47,0,0,1-.27-1.17,11.12,11.12,0,0,0-.27-1.35,3,3,0,0,0-.54-1.12,14.8,14.8,0,0,0-1.75-.14C301,40,300,40,299,40s-2,0-3,0-1.68,0-2.16,0a1.35,1.35,0,0,0-.94.54,13.33,13.33,0,0,0-1,1.31,18.15,18.15,0,0,1-1.12,1.43,3.87,3.87,0,0,1-1.13,1,15.49,15.49,0,0,1-6.12,1.44.8.8,0,0,1-.9-.9q0-9-.4-18t-.41-17.95q0-.9.72-.9a5.47,5.47,0,0,1,2.12.67c.93.45,1.89,1,2.88,1.53s2,1.08,2.92,1.53a5.84,5.84,0,0,0,2.25.68ZM292.61,38a.8.8,0,0,0,.9.9h9.63a.8.8,0,0,0,.9-.9V14.58a.8.8,0,0,0-.9-.9h-9.63a.8.8,0,0,0-.9.9Zm9.27-12.06.18.27a4.1,4.1,0,0,1-1.3.13c-.81,0-1.68.05-2.61.05s-1.8,0-2.61-.05a4.2,4.2,0,0,1-1.31-.13q0-.18.45-.36a2.06,2.06,0,0,1,.63-.18h5.94Zm5.49,32.76a4.55,4.55,0,0,1,1.31.36l2,.76c.69.27,1.36.53,2,.77l1.53.54a147.34,147.34,0,0,0,16,4.77q2.07.45,4.23.81A16.53,16.53,0,0,1,338.6,68a1,1,0,0,0,.32.18c.15.06.22.15.22.27,0,.3-.31.77-.94,1.39l-1.31,1.31c-.78.78-1.53,1.57-2.25,2.38a13.93,13.93,0,0,0-1.89,2.75,4.49,4.49,0,0,0-.4.9c-.15.42-.32.82-.5,1.21a9.14,9.14,0,0,1-.58,1.08c-.21.33-.44.5-.68.5a1.25,1.25,0,0,1-.54-.09,59.61,59.61,0,0,1-5.58-3c-2-1.22-4.06-2.56-6.07-4a71.86,71.86,0,0,1-5.67-4.5,28.29,28.29,0,0,1-4.28-4.59,7.47,7.47,0,0,1-1.17-2.21A9.23,9.23,0,0,1,307,59Zm.18-3.06a.52.52,0,0,1-.36-.18.85.85,0,0,1,.9-.72h14a1,1,0,0,0,.81-.54c1-1.2,1.88-2.41,2.75-3.65s1.78-2.44,2.74-3.64l.54-.27.54.18q2.34,2.16,4.77,4.14t5,4l.18.45-.27.27Zm10.26-27.36a.84.84,0,0,1,.81-.86c.48,0,.9,0,1.26,0a38.17,38.17,0,0,1,5.36.45,23.42,23.42,0,0,1,5.85,1.62,14.29,14.29,0,0,1,4.68,3.15,6.79,6.79,0,0,1,1.93,5q0,5.49-5.49,5.49h-1.3a3.7,3.7,0,0,1-1.31-.18,7.29,7.29,0,0,1-1.89-1.71c-.78-.9-1.6-1.89-2.47-3S323.56,36,322.81,35l-1.67-2.25a24.42,24.42,0,0,0-1.8-2.16A7.45,7.45,0,0,1,317.81,28.26Zm.36-6.39a10.91,10.91,0,0,1,.68-1.58c.27-.5.52-1,.76-1.48.54-1.14,1.08-2.26,1.62-3.38s1-2.23,1.53-3.37a26.26,26.26,0,0,0,.95-2.84,11.67,11.67,0,0,1,1.12-2.74.86.86,0,0,1,.81-.54,7.35,7.35,0,0,1,2.52,1c1.26.7,2.57,1.49,3.92,2.39a33.16,33.16,0,0,1,3.55,2.7q1.53,1.35,1.53,2,0,.36-.54.72c-.3.18-.88.51-1.75,1s-1.91,1-3.11,1.57-2.49,1.17-3.87,1.8l-3.82,1.76c-1.17.54-2.19,1-3.06,1.3a7,7,0,0,1-1.58.5,8.56,8.56,0,0,1-1-.05C318.07,22.61,318,22.35,318.17,21.87Z"/><path d="M420.74,51.69c.21.16.24.51.08,1a11.17,11.17,0,0,1-.68,1.68,18.05,18.05,0,0,1-.92,1.64c-.32.51-.53.87-.64,1.08-.91,1.6-1.85,3.17-2.84,4.72a25.54,25.54,0,0,1-3.48,4.32,32.48,32.48,0,0,1-11,7.36,34.08,34.08,0,0,1-13,2.56,21.9,21.9,0,0,1-9.44-2,15,15,0,0,1-6.8-6.72c-.21-.37-.45-.87-.72-1.48s-.51-1.24-.72-1.88-.4-1.27-.56-1.88a11.17,11.17,0,0,1-.32-1.64c-.11-1.28-.16-2.57-.16-3.88V52.73q0-7.68.6-15.2t.6-15.2a23.46,23.46,0,0,0-.24-3.4,8.07,8.07,0,0,0-1.2-3.16,6.8,6.8,0,0,0-1.24-1.48q-.68-.6-1.32-1.08c-.43-.32-.85-.63-1.28-.92a4.59,4.59,0,0,1-1.12-1.08,1.92,1.92,0,0,1,1-.92,8.49,8.49,0,0,1,1.64-.6,10.65,10.65,0,0,1,1.8-.32c.59,0,1.07-.08,1.44-.08a12.92,12.92,0,0,1,4.16.84,20.26,20.26,0,0,1,4.56,2.28,16.69,16.69,0,0,1,3.68,3.28,6,6,0,0,1,1.52,3.84,6.9,6.9,0,0,1-.36,2.2,15.55,15.55,0,0,1-.88,2.12c-.35.69-.71,1.39-1.08,2.08A11.56,11.56,0,0,0,380.9,28a82,82,0,0,0-2.84,12.8,94.27,94.27,0,0,0-.92,13q0,6.65,3,9.36t9.48,2.72a32.83,32.83,0,0,0,9-1.16,38,38,0,0,0,7.72-3.12,59.84,59.84,0,0,0,7.12-4.52q3.48-2.57,7.08-5.36A.33.33,0,0,1,420.74,51.69Z"/><path d="M441.06,17.05a1.17,1.17,0,0,1,.68-.36,6.12,6.12,0,0,1,.76,0,17.75,17.75,0,0,1,5.12.8,17.31,17.31,0,0,1,4.84,2.32,12.75,12.75,0,0,1,3.6,3.72,9,9,0,0,1,1.4,4.92,16,16,0,0,1-.68,4.64c-.45,1.49-.95,3-1.48,4.44s-1,2.95-1.48,4.44a16,16,0,0,0-.68,4.64,17.32,17.32,0,0,0,.36,3.28,15.7,15.7,0,0,0,1.12,3.52,8.77,8.77,0,0,0,2,2.84,4.35,4.35,0,0,0,3.08,1.16,4.65,4.65,0,0,0,3-1,10.9,10.9,0,0,0,2.28-2.48,22.45,22.45,0,0,0,1.8-3.2c.53-1.15,1-2.21,1.48-3.2A25.22,25.22,0,0,1,469.5,45c.4-.67.84-1,1.32-1q.31,0,.36.36a4.39,4.39,0,0,1,0,.52,21.78,21.78,0,0,1-.32,3.68c-.21,1.23-.47,2.44-.76,3.64s-.55,2.4-.76,3.6a21.05,21.05,0,0,0-.32,3.64,20.4,20.4,0,0,0,.4,3.8,15.9,15.9,0,0,1,.28,4,5.76,5.76,0,0,1-1.12,3.2q-1,1.32-3.72,1.32a12.28,12.28,0,0,1-3.64-.56,15.49,15.49,0,0,1-3.4-1.52,21.38,21.38,0,0,1-4.44-3.52,27.33,27.33,0,0,1-3.72-4.76A26.44,26.44,0,0,1,447.14,56a17.3,17.3,0,0,1-1-5.56v-23a8,8,0,0,0-.76-3.4,21.22,21.22,0,0,0-1.72-3c-.64-.93-1.23-1.75-1.76-2.44A4.26,4.26,0,0,1,441.06,17.05Zm62.32,39.76a4.61,4.61,0,0,1-4.24-2.16A8.52,8.52,0,0,1,497.7,51q-.31-2.09-.48-4.32t-.36-4.44a12.35,12.35,0,0,0-1.08-4.12,10.48,10.48,0,0,0-1.08-1.72c-.56-.77-1.21-1.65-2-2.64s-1.53-2-2.36-3-1.59-2-2.28-2.84-1.27-1.61-1.72-2.2a6.72,6.72,0,0,1-.68-1,.38.38,0,0,1,.36-.44,4.85,4.85,0,0,1,.6,0,14.42,14.42,0,0,1,3,.32,22.77,22.77,0,0,1,2.84.8,26.38,26.38,0,0,1,6.76,3.48A24,24,0,0,1,504.54,34,24.21,24.21,0,0,1,508,40.53,22.49,22.49,0,0,1,509.22,48a24.87,24.87,0,0,1-.2,3.08,8.62,8.62,0,0,1-.84,2.84A5.57,5.57,0,0,1,506.42,56,5.17,5.17,0,0,1,503.38,56.81Z"/><path class="cls-1" d="M558.31,55.08c0,2-.57,3.44-1.71,4.18a4,4,0,0,1-3.73.45,7.52,7.52,0,0,1-3.69-3.06,11,11,0,0,1-1.67-6.43,19.79,19.79,0,0,1,.86-5.72,19.66,19.66,0,0,0,.85-5.71.8.8,0,0,0-.9-.9,10.68,10.68,0,0,0-3.64.63c-1.17.42-2.34.89-3.51,1.4s-2.34,1-3.51,1.39a10.74,10.74,0,0,1-3.65.63,5.79,5.79,0,0,1-3.64-1.22,10,10,0,0,1-2.61-3,14.47,14.47,0,0,1-1.53-3.87,16.71,16.71,0,0,1-.5-3.87c0-.54.23-.78.68-.72a4,4,0,0,1,1.48.58c.54.34,1.08.7,1.62,1.09a5.48,5.48,0,0,0,1.08.67,4.86,4.86,0,0,0,1.71.18h3.24c1.26,0,2.6,0,4-.09s2.74-.14,4-.23,2.33-.19,3.2-.31a6.7,6.7,0,0,0,1.66-.36l.09-.09.27-.63q0-1.17.09-3.06a33.45,33.45,0,0,0,0-3.87,22.72,22.72,0,0,0-.54-3.69A4.27,4.27,0,0,0,547,17a7.78,7.78,0,0,0-1.21-.77,14,14,0,0,1-1.53-.94,13.28,13.28,0,0,1-1.35-1.08,1.59,1.59,0,0,1-.59-1.17c0-.54.44-1,1.31-1.4a11.93,11.93,0,0,1,3.33-.81,19.61,19.61,0,0,1,4.32.05A16.89,16.89,0,0,1,555.57,12a8.38,8.38,0,0,1,3.33,2.34,5.75,5.75,0,0,1,1.3,3.87,18.18,18.18,0,0,1-.81,5.35,18.34,18.34,0,0,0-.81,5.36.8.8,0,0,0,.9.9c.36,0,1.28-.07,2.75-.23s3.06-.32,4.77-.54,3.25-.4,4.63-.58,2.16-.3,2.34-.36a.92.92,0,0,0,.63-.9c0-1.8,0-3.66.14-5.58a28.05,28.05,0,0,0-.27-5.54,12.17,12.17,0,0,0-1.8-4.81,9.83,9.83,0,0,0-4.46-3.51l-.27-.45a1.7,1.7,0,0,1,1-1.22,11.41,11.41,0,0,1,2.12-.85,14,14,0,0,1,2.38-.5,16.36,16.36,0,0,1,1.71-.13,16.14,16.14,0,0,1,3.38.45,20.62,20.62,0,0,1,3.91,1.3,12.51,12.51,0,0,1,3.29,2.16,4,4,0,0,1,1.39,2.93,18.32,18.32,0,0,1-.36,3.6c-.24,1.2-.49,2.4-.76,3.6s-.51,2.4-.72,3.6a20.85,20.85,0,0,0-.32,3.6.8.8,0,0,0,.9.9,18.16,18.16,0,0,0,4.59-.58,18.17,18.17,0,0,1,4.59-.59,26.51,26.51,0,0,1,3.65.27,12.51,12.51,0,0,1,3.55,1A7.14,7.14,0,0,1,604.89,29a5.84,5.84,0,0,1,1,3.56,4.32,4.32,0,0,1-.27,1.75,1.51,1.51,0,0,1-.81.82,3.37,3.37,0,0,1-1.3.22h-1.67a38.91,38.91,0,0,1-7.47-.72,38.91,38.91,0,0,0-7.47-.72c-.36,0-.69,0-1,0a2.33,2.33,0,0,0-.9.32,8.11,8.11,0,0,0-.36,1.84c-.06.7-.12,1.34-.18,1.94-.12,1.44-.24,2.9-.36,4.36s-.3,2.93-.54,4.37a58,58,0,0,1-2.79,11.34A30.29,30.29,0,0,1,576,66.69a33.17,33.17,0,0,1-7.24,6.61,67.06,67.06,0,0,1-10.22,5.63q-1.35.63-3.42,1.35a11.21,11.21,0,0,1-3.6.72q-.54,0-.54-.45c0-.36.36-.8,1.08-1.31s1.53-1,2.43-1.57l2.66-1.58a9.08,9.08,0,0,0,1.75-1.21,45.64,45.64,0,0,0,7.47-8.5,45.1,45.1,0,0,0,4.77-9.32,47.6,47.6,0,0,0,2.52-10.17,83.78,83.78,0,0,0,.72-11.25.76.76,0,0,0-.36-.68,2.15,2.15,0,0,0-.81-.27c-.3,0-.61,0-.94,0h-.77c-.36,0-1.23,0-2.61.13s-2.8.22-4.27.37-2.82.31-4,.49-1.91.36-2,.54a2.33,2.33,0,0,0-.13.31,2.61,2.61,0,0,1-.14.32Z"/><path class="cls-1" d="M661,39.42a6.36,6.36,0,0,0-1.66.76q-.95.6-2,1.35l-2,1.49c-.63.48-1.16.87-1.58,1.17-1.62,1.14-3.63,2.51-6,4.09s-4.92,3.11-7.56,4.55a72.52,72.52,0,0,1-7.78,3.69,20.33,20.33,0,0,1-6.8,1.62l-.36-.36.27-.54c1.74-1.14,4.05-2.77,6.93-4.91s6-4.57,9.27-7.33,6.65-5.68,10-8.78A124.39,124.39,0,0,0,661,27a66.87,66.87,0,0,0,6.7-8.73q2.61-4.14,2.61-7.2a4.73,4.73,0,0,0-.67-2.7,7.69,7.69,0,0,0-1.44-1.62,12.14,12.14,0,0,0-1.44-1,1.14,1.14,0,0,1-.68-.94q0-.36.45-.36a41.89,41.89,0,0,1,5.67.45,26.3,26.3,0,0,1,6.17,1.62,14.52,14.52,0,0,1,4.95,3.19,7,7,0,0,1,2,5.18,5.59,5.59,0,0,1-1.3,3.6,16.23,16.23,0,0,1-3.24,3,48,48,0,0,1-4.19,2.71q-2.25,1.3-4.18,2.65a17,17,0,0,0-3.24,2.88,5.14,5.14,0,0,0-1.31,3.42,1.86,1.86,0,0,0,.86,1.53c.57.42,1.18.85,1.84,1.3a13.54,13.54,0,0,1,1.85,1.53,3,3,0,0,1,.85,2.21q0,6.75-.18,13.36t-.18,13.37c0,1.62.06,3.35.18,5.17a15.56,15.56,0,0,1-.45,5.09A4.57,4.57,0,0,1,671,79.56a6.15,6.15,0,0,1-3.29.72,6.67,6.67,0,0,1-3.33-.77,6.46,6.46,0,0,1-2.2-2,8.27,8.27,0,0,1-1.22-2.88,15.3,15.3,0,0,1-.36-3.33,114.86,114.86,0,0,1,.68-12.42,114.85,114.85,0,0,0,.67-12.42c0-.48,0-1,.05-1.62s0-1.22,0-1.85a12.36,12.36,0,0,0-.13-1.84,6.26,6.26,0,0,0-.41-1.53Z"/><path class="cls-1" d="M739,7.56c0-.48.35-.9,1-1.26a13.25,13.25,0,0,1,2.38-1,17.65,17.65,0,0,1,2.66-.58A15.55,15.55,0,0,1,747,4.59a16.19,16.19,0,0,1,3.67.54,21,21,0,0,1,4.31,1.57,14.21,14.21,0,0,1,3.58,2.48A4.32,4.32,0,0,1,760,12.33a19.8,19.8,0,0,1-1,6.39,40.33,40.33,0,0,0-1.58,6.3q-.27,1.8-.36,3.51T756.94,32c0,.36.26.63.77.81a8.15,8.15,0,0,0,1.8.4,15.36,15.36,0,0,0,2,.14h1.39a62.65,62.65,0,0,1,7.43,1.12A32.4,32.4,0,0,1,778,37.12a18.94,18.94,0,0,1,6,4.55,10.43,10.43,0,0,1,2.43,7.11,7.12,7.12,0,0,1-1.39,4.5,5.09,5.09,0,0,1-4.28,1.8,7,7,0,0,1-4.18-1.49,25.41,25.41,0,0,1-4-3.73A53.12,53.12,0,0,1,768.69,45c-1.23-1.76-2.48-3.4-3.74-4.9a26,26,0,0,0-3.78-3.74,6.21,6.21,0,0,0-3.87-1.48q-.9,0-.9.81,0,9.9.32,19.71T757,75.06a6.4,6.4,0,0,1-1,4q-1,1.26-3.87,1.26a6.13,6.13,0,0,1-4.27-1.35,7.78,7.78,0,0,1-2.16-3.42A16.16,16.16,0,0,1,745,71.1q-.09-2.34-.09-4.41,0-7.38.68-14.72t.67-14.71c0-1.26,0-2.93,0-5s0-4.19,0-6.38-.06-4.28-.18-6.26a23.38,23.38,0,0,0-.63-4.59,10.74,10.74,0,0,0-1.62-3.56,10.3,10.3,0,0,0-3-2.47c-.3-.18-.61-.34-.94-.5a4.11,4.11,0,0,1-1-.58Z"/><path d="M821.56,38.33q-.55.56-1.68,1.8c-.75.83-1.54,1.67-2.4,2.52s-1.67,1.6-2.44,2.24a3.34,3.34,0,0,1-1.8,1,.35.35,0,0,1-.4-.4,9,9,0,0,1,1-2.88q1-2.16,2.4-4.72c.91-1.71,1.79-3.33,2.64-4.88s1.44-2.67,1.76-3.36A68.28,68.28,0,0,0,825,17.37c.11-.48.35-1.41.72-2.8s.77-2.83,1.2-4.32.87-2.81,1.32-4,.84-1.72,1.16-1.72a.33.33,0,0,1,.24.08c.43.16,1.29.44,2.6.84s2.67.84,4.08,1.32,2.67,1,3.76,1.44,1.64.91,1.64,1.28a4.11,4.11,0,0,1-.84,1.48l-2.12,2.88q-1.28,1.72-2.76,3.76t-2.76,4a33.42,33.42,0,0,0-2.12,3.72,7,7,0,0,0-.84,2.8.9.9,0,0,0,.44.72,5.3,5.3,0,0,0,1,.56,6.07,6.07,0,0,0,1.12.36l.88.2.4.32a1.14,1.14,0,0,1-.8.92.86.86,0,0,0-.64.92V76.49c0,.59-.41,1.07-1.24,1.44a13.21,13.21,0,0,1-2.88.88,28.28,28.28,0,0,1-3.24.44c-1.07.08-1.81.12-2.24.12a.71.71,0,0,1-.8-.8V44.65a13.66,13.66,0,0,1,.24-2.6,13.66,13.66,0,0,0,.24-2.6c0-.27,0-.56,0-.88s-.23-.48-.6-.48Zm14.64,3.2a5.82,5.82,0,0,1,.48-1.36c.32-.75.73-1.65,1.24-2.72S839,35.22,839.6,34s1.2-2.44,1.76-3.56,1-2.13,1.48-3,.72-1.55.88-1.92c.91-2.19,1.77-4.4,2.6-6.64s1.59-4.48,2.28-6.72c.32-1.07.63-2.16.92-3.28s.63-2.21,1-3.28a.72.72,0,0,1,.64-.48,18.13,18.13,0,0,1,2,.6L857,7c1.41.48,2.75,1,4,1.4a17.47,17.47,0,0,1,2.12.84,1.58,1.58,0,0,1,.48.36q.17.19,0,.6a20.42,20.42,0,0,1-1.76,2.92c-.8,1.15-1.47,2.09-2,2.84q-1.12,1.68-2.8,4t-3.68,5q-2,2.64-4.2,5.32t-4.44,5a58.16,58.16,0,0,1-4.36,4,14.86,14.86,0,0,1-4,2.48Zm40,8a19.65,19.65,0,0,1,2,1.4q1.56,1.16,3.24,2.52c1.12.91,2.12,1.76,3,2.56s1.32,1.28,1.32,1.44a.31.31,0,0,1-.24.32,1.41,1.41,0,0,1-.4.08H866.6a.71.71,0,0,0-.8.8v18.4c0,.48-.43.87-1.28,1.16a19.18,19.18,0,0,1-3,.72,27.2,27.2,0,0,1-3.24.36c-1,0-1.75.08-2.12.08a.71.71,0,0,1-.8-.8V28c0-.48,0-1,0-1.68a7,7,0,0,1,.32-1.84,4.12,4.12,0,0,1,.8-1.48,1.86,1.86,0,0,1,1.48-.6h13q.31,0,1.2-1.08c.59-.72,1.21-1.52,1.88-2.4s1.33-1.73,2-2.56a5.84,5.84,0,0,1,1.64-1.56,7.72,7.72,0,0,1,1.64,1.12c.88.69,1.84,1.47,2.88,2.32s2,1.68,3,2.48,1.53,1.33,1.8,1.6l.16.4a1.22,1.22,0,0,1-.32.48.69.69,0,0,1-.48.24h-19.6a.71.71,0,0,0-.8.8V38.41a1.11,1.11,0,0,0,.6,1,2.27,2.27,0,0,0,1.16.36,3.79,3.79,0,0,0,2.64-1.13,16.24,16.24,0,0,0,2.16-2.51c.64-.92,1.2-1.75,1.68-2.51s.93-1.13,1.36-1.13a4.88,4.88,0,0,1,1.92,1,35.84,35.84,0,0,1,2.92,2.22,29.18,29.18,0,0,1,2.64,2.51c.77.83,1.16,1.44,1.16,1.81a.39.39,0,0,1-.28.37,1.21,1.21,0,0,1-.44.12H866.84a.71.71,0,0,0-.8.8V56a.71.71,0,0,0,.8.8c.53,0,1.16,0,1.88,0a6.14,6.14,0,0,0,1.72-.12,13.57,13.57,0,0,0,2.76-3.44,22.38,22.38,0,0,1,2.52-3.6Z"/><path d="M916,12.17c.53.59,1,1.13,1.44,1.64a8.76,8.76,0,0,0,1.32,1.28,5.55,5.55,0,0,0,1.56.84,6.73,6.73,0,0,0,2.24.32,17.82,17.82,0,0,0,5.44-.84q2.64-.84,5.24-1.88t5.24-1.88a17.82,17.82,0,0,1,5.44-.84,7.46,7.46,0,0,1,3.24.88,17.46,17.46,0,0,1,3.4,2.2,14.66,14.66,0,0,1,2.72,2.92,5.45,5.45,0,0,1,1.12,3.12c0,.48-.63,1.21-1.88,2.2s-2.81,2.12-4.68,3.4-3.88,2.64-6,4.08-4.17,2.85-6,4.24A49.16,49.16,0,0,0,931,37.73c-1.25,1.2-1.88,2.2-1.88,3a1.34,1.34,0,0,0,.24.76.73.73,0,0,0,.64.36,15.43,15.43,0,0,0,3.64-.44c1.2-.29,2.39-.6,3.56-.92s2.36-.63,3.56-.92a15.43,15.43,0,0,1,3.64-.44,28.39,28.39,0,0,1,7.64,1,20.52,20.52,0,0,1,6.6,3.12,15.38,15.38,0,0,1,4.6,5.32A16,16,0,0,1,965,56.25a17.07,17.07,0,0,1-1.72,8,16.69,16.69,0,0,1-4.6,5.56,24.37,24.37,0,0,1-6.6,3.6,45.89,45.89,0,0,1-7.76,2.08,63.45,63.45,0,0,1-8.08.92c-2.69.13-5.19.2-7.48.2h-1.08c-.51,0-1,0-1.52,0a10,10,0,0,1-1.36-.16q-.6-.12-.6-.36c0-.21.23-.39.68-.52l.92-.28q3-.79,6.4-1.8a60.56,60.56,0,0,0,6.6-2.4,47.81,47.81,0,0,0,6.16-3.2,24.7,24.7,0,0,0,5.12-4.16,18.65,18.65,0,0,0,3.52-5.44,17.39,17.39,0,0,0,1.32-6.92,10.29,10.29,0,0,0-.68-3.64,10.07,10.07,0,0,0-1.92-3.2,10.33,10.33,0,0,0-2.92-2.28,7.61,7.61,0,0,0-3.6-.88c-2,0-3.81.07-5.52.2a18.09,18.09,0,0,0-5.36,1.32A25.08,25.08,0,0,0,930,45.45,39.33,39.33,0,0,0,925.6,49c-1.41,1.31-2.77,2.65-4.08,4s-2.57,2.75-3.8,4.08c-.48.48-1,1-1.56,1.72a14.54,14.54,0,0,1-1.84,1.84,13.36,13.36,0,0,1-2.08,1.44,4.47,4.47,0,0,1-2.2.6,3.4,3.4,0,0,1-1.92-.52,4.4,4.4,0,0,1-1.32-1.36A6.11,6.11,0,0,1,906,59a8.4,8.4,0,0,1-.24-2c0-1.07.84-2.57,2.52-4.52a86.22,86.22,0,0,1,6.32-6.48q3.79-3.55,8.24-7.48t8.24-7.6a77.2,77.2,0,0,0,6.32-6.8Q940,21,940,19.13a1,1,0,0,0-.52-.76,5,5,0,0,0-.92-.52A9.19,9.19,0,0,0,934,19.12q-2,1.18-3.84,2.53t-3.76,2.49a7.93,7.93,0,0,1-4.16,1.15,5.76,5.76,0,0,1-2.88-.83,10.52,10.52,0,0,1-2.56-2.1A11.71,11.71,0,0,1,915,19.54a6.86,6.86,0,0,1-.72-2.89,19.67,19.67,0,0,1,.16-2.44,3.64,3.64,0,0,1,1-2.2Z"/><path d="M998.36,30.33l3.44,3.28a1.26,1.26,0,0,0,.8.28c.37,0,.69,0,1,0a20.53,20.53,0,0,0,5.72-.8c1.84-.53,3.68-1.11,5.52-1.72s3.7-1.19,5.56-1.72a21,21,0,0,1,5.76-.8,15,15,0,0,1,7.12,1.6,14.63,14.63,0,0,1,5,4.24,18.27,18.27,0,0,1,2.92,6.12,26.82,26.82,0,0,1,1,7.16,25.75,25.75,0,0,1-1.56,9.12,27,27,0,0,1-4.28,7.52,29.7,29.7,0,0,1-6.4,5.88,43.06,43.06,0,0,1-16.52,6.8,48.66,48.66,0,0,1-8.92.84,3.86,3.86,0,0,1-.6,0,.93.93,0,0,1-.52-.28,2.87,2.87,0,0,1,1.28-.88c.64-.27,1.33-.53,2.08-.8s1.48-.51,2.2-.72,1.29-.4,1.72-.56a25.46,25.46,0,0,0,4.32-2.2q2.08-1.32,4-2.68a34,34,0,0,0,9.6-10.12,25.86,25.86,0,0,0,3.36-13.48,41.9,41.9,0,0,0-.24-4.2,18.72,18.72,0,0,0-1-4.48,9.25,9.25,0,0,0-2.24-3.56,5.43,5.43,0,0,0-4-1.44,10,10,0,0,0-3.84.8,20.23,20.23,0,0,0-3.68,2,26.48,26.48,0,0,0-3.32,2.68c-1,1-2,1.93-2.76,2.84-.53.59-1.07,1.2-1.6,1.84a7.57,7.57,0,0,1-1.84,1.6,4,4,0,0,1-1.12.52,4.63,4.63,0,0,1-1.12.12,7.55,7.55,0,0,1-3.64-.84,8.26,8.26,0,0,1-2.64-2.24,10.11,10.11,0,0,1-1.64-3.16,12.15,12.15,0,0,1-.56-3.68q0-1.12.12-2.64a4,4,0,0,1,.92-2.4Zm10.32-8.16c0-.48.43-1,1.28-1.48a29.86,29.86,0,0,1,2.84-1.48c1-.48,2-.93,2.88-1.36s1.32-.77,1.32-1a.77.77,0,0,0-.48-.72,5.08,5.08,0,0,0-1.16-.48l-1.24-.32c-.69-.21-1.57-.52-2.64-.92a21.09,21.09,0,0,1-3.12-1.48,11.86,11.86,0,0,1-2.6-2,3.5,3.5,0,0,1-1.08-2.48c0-.53.24-.8.72-.8a12.57,12.57,0,0,1,3,.36c1,.24,2,.51,2.92.8s1.93.56,2.92.8a12.69,12.69,0,0,0,3,.36,29.63,29.63,0,0,0,4.36-.32,29.63,29.63,0,0,1,4.36-.32,15,15,0,0,1,3.12.36,12,12,0,0,1,3.16,1.16,8.31,8.31,0,0,1,2.48,2,4.46,4.46,0,0,1,1,3,1.74,1.74,0,0,1-.4,1.28,3.61,3.61,0,0,1-1.12.72,7.8,7.8,0,0,1-2,.64c-.82.16-1.7.29-2.64.4s-1.85.23-2.76.36a23.15,23.15,0,0,0-2.32.44q-3.68.88-7.32,1.92a27.24,27.24,0,0,1-7.48,1,5.59,5.59,0,0,1-.56,0C1008.81,22.5,1008.68,22.38,1008.68,22.17Z"/><path d="M1110,45.85c0,.75,0,1.43,0,2a9.79,9.79,0,0,0,.08,1.8,4.83,4.83,0,0,0,.56,1.68A6.21,6.21,0,0,0,1112,53a14.5,14.5,0,0,0,4,2.52c1.55.67,3.15,1.29,4.8,1.88s3.28,1.2,4.88,1.84a18.89,18.89,0,0,1,4.28,2.36,11,11,0,0,1,3,3.44,10.37,10.37,0,0,1,1.16,5.16,3.92,3.92,0,0,1-.88,2.92,4.22,4.22,0,0,1-3,.84,6.59,6.59,0,0,1-3.16-.8,14.09,14.09,0,0,1-2.84-2,36,36,0,0,1-2.6-2.64,35,35,0,0,0-2.56-2.6,14.63,14.63,0,0,0-2.76-2,5.63,5.63,0,0,0-3-.72,1.64,1.64,0,0,0-.88.32c-.27.16-.45.6-.56,1.32a23.06,23.06,0,0,1-.56,2.56,15.39,15.39,0,0,1-1.24,3.08,9.58,9.58,0,0,1-2.6,3,14.09,14.09,0,0,1-4.56,2.28,24.09,24.09,0,0,1-7.12.88,28.12,28.12,0,0,1-5.56-.56,15.79,15.79,0,0,1-5-1.92,10.9,10.9,0,0,1-3.68-3.56,10,10,0,0,1-1.4-5.48,11.76,11.76,0,0,1,1.16-5.68,8,8,0,0,1,3.08-3.16,11.9,11.9,0,0,1,4.36-1.4c1.63-.21,3.28-.4,5-.56s3.31-.36,4.88-.6a11.46,11.46,0,0,0,4.12-1.4.69.69,0,0,0,.4-.72,16.61,16.61,0,0,0,.2-3.08c0-1,0-2.07,0-3.08,0-2.77-.08-5.55-.24-8.32s-.29-5.55-.4-8.32c0-1.65,0-3.4,0-5.24a17.18,17.18,0,0,0-.56-5.08,7.4,7.4,0,0,0-1-2.2,5.47,5.47,0,0,0-1.44-1.4,11.49,11.49,0,0,0-1.88-1c-.69-.29-1.41-.63-2.16-1-.37-.11-.56-.29-.56-.56,0-.64.47-1.16,1.4-1.56a11.6,11.6,0,0,1,3.48-.8,21.6,21.6,0,0,1,4.52.08,18.69,18.69,0,0,1,4.52,1.08,9.46,9.46,0,0,1,3.48,2.24,5,5,0,0,1,1.4,3.6,7.77,7.77,0,0,1-.48,2.68c-.32.88-.67,1.73-1,2.56s-.72,1.64-1,2.44a6.42,6.42,0,0,0-.48,2.4c0,.53.24.8.72.8a10.94,10.94,0,0,0,3.72-.64c1.2-.43,2.4-.89,3.6-1.4s2.4-1,3.6-1.4a11.19,11.19,0,0,1,3.8-.64,14.08,14.08,0,0,1,2.24.2,7.64,7.64,0,0,1,2.24.72,4.92,4.92,0,0,1,1.72,1.4,3.46,3.46,0,0,1,.68,2.16,4,4,0,0,1-1.48,3.24,10.09,10.09,0,0,1-3.56,1.88,22.82,22.82,0,0,1-4.32.88,35.81,35.81,0,0,1-3.68.24,8.85,8.85,0,0,1-2.56-.36,22,22,0,0,1-2.32-.84c-.75-.32-1.45-.6-2.12-.84a5.78,5.78,0,0,0-2-.36.72.72,0,0,0-.8.72,19.39,19.39,0,0,0-.32,2.92c0,1.15-.08,2.32-.08,3.52s0,2.39.08,3.56S1110,44.94,1110,45.85Zm-26.72,18.4a3.48,3.48,0,0,0,.84,2.44,6,6,0,0,0,2,1.44,9.88,9.88,0,0,0,2.6.72,18.43,18.43,0,0,0,2.52.2,20.05,20.05,0,0,0,4.28-.48,13.14,13.14,0,0,0,4-1.56,8.81,8.81,0,0,0,2.92-2.84,7.71,7.71,0,0,0,1.12-4.24,1.08,1.08,0,0,0-.56-.92,4.51,4.51,0,0,0-1.28-.56,7.26,7.26,0,0,0-1.48-.24c-.51,0-.89,0-1.16,0-1.07,0-2.49,0-4.28.08a28.44,28.44,0,0,0-5.24.64,12.86,12.86,0,0,0-4.44,1.8A4,4,0,0,0,1083.32,64.25Z"/><path d="M1156.12,67.69a10.56,10.56,0,0,1,.8-4.08,9.93,9.93,0,0,1,2.24-3.32,10.65,10.65,0,0,1,7.44-3,11.38,11.38,0,0,1,4.24.8,11,11,0,0,1,3.52,2.24,10,10,0,0,1,2.36,3.4,10.75,10.75,0,0,1,.84,4.28,10,10,0,0,1-.84,4.12,10.5,10.5,0,0,1-2.28,3.28,10.08,10.08,0,0,1-3.4,2.16,11.2,11.2,0,0,1-4.12.76,11.32,11.32,0,0,1-4.28-.8,10.6,10.6,0,0,1-3.4-2.2A10.2,10.2,0,0,1,1157,72,10.75,10.75,0,0,1,1156.12,67.69Zm2.08.08a8.28,8.28,0,0,0,4.48,7.8,8.39,8.39,0,0,0,4.12,1,9.15,9.15,0,0,0,4.12-1,8.45,8.45,0,0,0,3.2-3,8.7,8.7,0,0,0,1.28-4.84,8.14,8.14,0,0,0-1.28-4.68,7.77,7.77,0,0,0-3.2-2.76,9.71,9.71,0,0,0-4.12-.88,9.11,9.11,0,0,0-4.12,1,8.44,8.44,0,0,0-3.2,2.84A8,8,0,0,0,1158.2,67.77Z"/></g></g></svg>