<svg xmlns="http://www.w3.org/2000/svg" viewBox="0 0 1123.9 74.32"><defs><style>.cls-1{fill:#950732;}</style></defs><title>3</title><g id="レイヤー_2" data-name="レイヤー 2"><g id="top"><path d="M2.1,47.37a.62.62,0,0,1-.7.7A1.89,1.89,0,0,1,.73,48c-.21-.06-.31-.26-.31-.59q0-10.57-.21-21T0,5.37a.62.62,0,0,1,.7-.7q5.18,0,10.26.25t10.25.24c.51,0,.77.23.77.7s-.26.7-.77.7H2.8a.62.62,0,0,0-.7.7Z"/><path d="M52.5,9.08c0-.42.33-.77,1-1.05a7.17,7.17,0,0,1,2.45-.49,20.53,20.53,0,0,1,3.18.11,13.7,13.7,0,0,1,3.16.66A7.88,7.88,0,0,1,64.68,9.6a2.44,2.44,0,0,1,1,1.93,3.23,3.23,0,0,1-.31,1.4c-.22.42-.45.84-.71,1.26A13.34,13.34,0,0,0,64,15.48a3.06,3.06,0,0,0-.32,1.37c0,.61.33.91,1,.91a7.35,7.35,0,0,0,2.77-.59c1-.4,1.94-.83,3-1.3s2.06-.9,3.11-1.29a9.14,9.14,0,0,1,3.26-.6c.56,0,1.12,0,1.68.07a4.78,4.78,0,0,1,1.54.39,2.57,2.57,0,0,1,1.12.94,3,3,0,0,1,.42,1.68,3.15,3.15,0,0,1-1.36,2.59,11.23,11.23,0,0,1-3.43,1.71,31.8,31.8,0,0,1-4.56,1.09c-1.65.28-3.23.54-4.72.77s-2.8.49-3.92.77a3.33,3.33,0,0,0-2.1,1.12,7.25,7.25,0,0,0-.28,1l-.46,2c-.16.73-.3,1.43-.42,2.11S60,31.29,60,31.48a.38.38,0,0,0,.42.28,25.62,25.62,0,0,0,5.25-.56c1.77-.37,3.48-.79,5.11-1.26.33-.09.49-.23.49-.42a2.17,2.17,0,0,0-.35-1c-.23-.39-.45-.77-.67-1.12a3.07,3.07,0,0,1-.38-.9c0-.26.12-.39.49-.39a2.81,2.81,0,0,1,1.64.52,9.42,9.42,0,0,1,1.4,1.23c.45.47.9.95,1.37,1.43a4.4,4.4,0,0,0,1.54,1.09,21.13,21.13,0,0,0,2.49,1,21.68,21.68,0,0,1,2.48,1,34.53,34.53,0,0,1,4.9,2.59,16.61,16.61,0,0,1,3.71,3.22,13.14,13.14,0,0,1,2.38,4.2,16.61,16.61,0,0,1,.84,5.53,15.75,15.75,0,0,1-2.83,9.62,20.92,20.92,0,0,1-7.18,6.1,33.09,33.09,0,0,1-9.52,3.21,55,55,0,0,1-9.87.95H62.47a2.64,2.64,0,0,1-1.22-.28c.14-.28.82-.63,2-1s2.69-1,4.44-1.64a51.22,51.22,0,0,0,5.6-2.6,26.19,26.19,0,0,0,5.5-3.88A20.46,20.46,0,0,0,83,52.86a15.15,15.15,0,0,0,1.68-7.31,18.14,18.14,0,0,0-.56-4.3,14.53,14.53,0,0,0-1.71-4.17,10.57,10.57,0,0,0-3-3.15,7,7,0,0,0-4.16-1.26.67.67,0,0,0-.63.42C74.08,34,73.54,35,73,35.92a24,24,0,0,1-1.71,2.84c-.61.89-1.29,1.8-2,2.73s-1.47,1.88-2.17,2.84-1.35,1.93-2,2.94a14,14,0,0,0-1.4,3,3.48,3.48,0,0,0-.11,1.44A10.9,10.9,0,0,0,64,53.21l.42,1.51a5.55,5.55,0,0,1,.21,1.47,3.08,3.08,0,0,1-.88,2.24,2.9,2.9,0,0,1-2.2.91A3.12,3.12,0,0,1,60.17,59a9,9,0,0,1-1.23-.69c-.37-.26-.72-.5-1-.71a1.74,1.74,0,0,0-.84-.31,1.59,1.59,0,0,0-.59.28,3.81,3.81,0,0,0-.6.42c-.93.65-1.9,1.27-2.9,1.85a30.41,30.41,0,0,1-3.12,1.58,18.84,18.84,0,0,1-2.66,1,15.08,15.08,0,0,1-2.2.45,18.61,18.61,0,0,1-2.28.14H39.9a2.06,2.06,0,0,1-1.61-.7,5.63,5.63,0,0,1-1-1.68,10.69,10.69,0,0,1-.56-2,11.7,11.7,0,0,1-.17-1.75,16.93,16.93,0,0,1,1.15-6.33,20.21,20.21,0,0,1,3.12-5.33,31.06,31.06,0,0,1,4.44-4.44q2.49-2,5.15-3.78c.19-.14.45-.33.81-.56l1.08-.74L53.34,35a2.47,2.47,0,0,0,.63-.56,4.91,4.91,0,0,0,1.12-2.77c.09-1,.14-2,.14-3,0-.14,0-.39,0-.74a4.24,4.24,0,0,0,0-1,4.63,4.63,0,0,0-.21-.87.54.54,0,0,0-.56-.39H45.92a4.24,4.24,0,0,1-2.59-.88,9,9,0,0,1-2-1.92q-.28-.42-.63-1a12.75,12.75,0,0,1-.63-1.22,11.23,11.23,0,0,1-.49-1.3,3.86,3.86,0,0,1-.21-1.15,2.62,2.62,0,0,1,.07-.49c.05-.23.16-.35.35-.35a3.29,3.29,0,0,1,1.05.35q.76.35,1.71.81a19.63,19.63,0,0,0,2,.8,5.87,5.87,0,0,0,1.86.35H56a.62.62,0,0,0,.7-.7V11.88c0-.19-.18-.41-.53-.67A7,7,0,0,0,55,10.52l-1.33-.6-.91-.42Zm-9.38,44.8c0,.89.16,1.39.49,1.5a5.12,5.12,0,0,0,1.61.18,12.26,12.26,0,0,0,2.34-.35,21.15,21.15,0,0,0,3.19-1,15,15,0,0,0,2.83-1.44q1.23-.8,1.23-1.71a7.3,7.3,0,0,0-.18-1.58c-.11-.53-.22-1.06-.31-1.57A16.75,16.75,0,0,1,54,43.8a11.32,11.32,0,0,0-.52-4.06q-.13-.29-.21-.42c-.05-.09-.19-.14-.42-.14a2.11,2.11,0,0,0-1.58.53c-.35.35-.73.75-1.15,1.22-.79.89-1.61,1.77-2.45,2.66a23,23,0,0,0-2.27,2.8,14.33,14.33,0,0,0-1.65,3.15,10.08,10.08,0,0,0-.63,3.57Zm16.8-15.26c0,.56,0,1.18,0,1.86s0,1.36,0,2.06S60,43.93,60,44.6a9.47,9.47,0,0,0,.32,1.72,3.72,3.72,0,0,0,.21.39c.05.06.19.1.42.1a2.4,2.4,0,0,0,1.57-.87,12.5,12.5,0,0,0,1.65-2.07c.51-.79,1-1.59,1.43-2.38s.76-1.4.95-1.82.65-1.12,1.12-1.82.94-1.4,1.43-2.1.92-1.38,1.3-2a5.8,5.8,0,0,0,.7-1.68c0-.28-.05-.42-.28-.42-.61,0-1.46.06-2.55.17s-2.22.3-3.36.53a13.43,13.43,0,0,0-3.12,1,3.21,3.21,0,0,0-1.75,1.58,2.85,2.85,0,0,0-.1.7c0,.33,0,.69,0,1.08v1.93Z"/><path d="M134.82,18.25c.37-.19.86-.44,1.47-.77s1.25-.65,1.92-1a17.46,17.46,0,0,1,1.93-.81,4.76,4.76,0,0,1,1.47-.31q3.15,0,3.15,3.22a4,4,0,0,1-.74,2.55,5.26,5.26,0,0,1-1.92,1.54,10.14,10.14,0,0,1-2.66.88q-1.47.29-2.94.6a28.58,28.58,0,0,0-2.77.73,5.25,5.25,0,0,0-2.13,1.26,7.28,7.28,0,0,0-1.3,1.78,15.42,15.42,0,0,0-.87,2.07c-.37,1-.82,2.41-1.33,4.16s-1.11,3.67-1.79,5.75-1.43,4.18-2.27,6.33a45,45,0,0,1-2.73,5.81,18,18,0,0,1-3.19,4.23,5.22,5.22,0,0,1-3.67,1.65,2.72,2.72,0,0,1-2.73-1.5,7.46,7.46,0,0,1-.7-3.19,9.82,9.82,0,0,1,.91-4.2,22.76,22.76,0,0,1,2.2-3.74c.87-1.2,1.79-2.36,2.77-3.5a24,24,0,0,0,2.52-3.54c.19-.33.54-.94,1-1.85s1-1.88,1.57-2.91,1-2,1.44-2.87a6,6,0,0,0,.63-1.68c0-.33,0-.78,0-1.37s-.22-.87-.73-.87c-1.59,0-3.21,0-4.87-.14a13.88,13.88,0,0,1-4.48-.95,7.28,7.28,0,0,1-3.25-2.52,8.08,8.08,0,0,1-1.26-4.86c0-.42.23-.63.7-.63a4.91,4.91,0,0,1,1.54.32c.61.21,1.22.45,1.85.73l1.86.84a12.49,12.49,0,0,0,1.61.63,7.9,7.9,0,0,0,3,.53c1,0,2,0,3.12,0a12.29,12.29,0,0,0,2.34-.17,1.91,1.91,0,0,0,1.19-.71,2.91,2.91,0,0,0,.49-1.43q.11-.91.18-2.31a4.29,4.29,0,0,0-.6-2.59,8.72,8.72,0,0,0-1.5-1.82c-.56-.51-1.07-1-1.54-1.37a1.73,1.73,0,0,1-.7-1.36.93.93,0,0,1,.59-.81A3.92,3.92,0,0,1,125,7.65c.51-.07,1-.12,1.54-.15l1.12,0,2,0c.79,0,1.6.1,2.41.21a8,8,0,0,1,2.21.63,2.87,2.87,0,0,1,1.4,1.3,2.91,2.91,0,0,1,.17,1.75,15.18,15.18,0,0,1-.49,2q-.32,1-.66,2a5.2,5.2,0,0,0-.31,2.52C134.39,18.19,134.54,18.3,134.82,18.25Zm10,29.19.07-.07.21-.49c0-.93,0-2,0-3.19s.09-2.39.18-3.6a25.22,25.22,0,0,1,.52-3.53A9,9,0,0,1,147,33.65a9.65,9.65,0,0,1,1.85-2c1-.89,2.06-1.79,3.15-2.69l3-2.49a6.75,6.75,0,0,0,1.33-1.26,1.85,1.85,0,0,0-.73-1.54,6.54,6.54,0,0,0-1.72-.91c-.65-.23-1.33-.44-2-.63a5.77,5.77,0,0,1-1.68-.7l-.14-.28a1,1,0,0,1,.59-.63,4,4,0,0,1,1.05-.31,10,10,0,0,1,1.16-.15l.91,0a42.34,42.34,0,0,1,5.25.31,12.09,12.09,0,0,1,4.41,1.37,7.93,7.93,0,0,1,3,3,10.53,10.53,0,0,1,1.16,5.29,3.13,3.13,0,0,1-.56,2.21,3.46,3.46,0,0,1-2.24.52,9.51,9.51,0,0,1-2.45-.31c-.79-.21-1.58-.45-2.35-.71s-1.55-.48-2.34-.7a9.51,9.51,0,0,0-2.45-.31,6.54,6.54,0,0,0-4,1.08c-1,.73-1.44,2-1.44,3.82,0,.79,0,1.81.07,3s.15,2.48.32,3.74a25.38,25.38,0,0,0,.69,3.53,6.22,6.22,0,0,0,1.3,2.56,8.92,8.92,0,0,0,2.94,2.17,30.38,30.38,0,0,0,3.43,1.33l3.46,1.09A9.52,9.52,0,0,1,165,54.69a7.59,7.59,0,0,1,2.17,2.65,9.7,9.7,0,0,1,.84,4.38v.8a1.71,1.71,0,0,1-.14.74,3.89,3.89,0,0,1-2.94,1.68,4.24,4.24,0,0,1-3-1.19,32,32,0,0,1-2.45-2.59A32,32,0,0,0,157,58.57a4.24,4.24,0,0,0-3-1.19,2.15,2.15,0,0,0-.6.07.64.64,0,0,0-.38.42,5.75,5.75,0,0,0-.18,1.05c0,.37-.05.72-.1,1a8.57,8.57,0,0,1-3.57,6,11.26,11.26,0,0,1-4.24,1.82,22.11,22.11,0,0,1-4.58.49,21.62,21.62,0,0,1-4.45-.46,12.58,12.58,0,0,1-4-1.54,8.75,8.75,0,0,1-2.94-2.83,7.87,7.87,0,0,1-1.12-4.34,8.82,8.82,0,0,1,1.61-5.39,11.82,11.82,0,0,1,4-3.46,18.26,18.26,0,0,1,5.31-1.86,41,41,0,0,1,5.57-.7Zm.28,7.49c0-.33,0-.64,0-1a1.56,1.56,0,0,0-.24-.94,1,1,0,0,0-.6-.46,6.87,6.87,0,0,0-1-.27,6.56,6.56,0,0,0-1.06-.14c-.35,0-.61,0-.8,0-.93,0-2,0-3.29.1a16.24,16.24,0,0,0-3.57.6,6.94,6.94,0,0,0-2.87,1.61,4,4,0,0,0-1.19,3.08,3.12,3.12,0,0,0,.66,2.06,4.66,4.66,0,0,0,1.65,1.26,7.73,7.73,0,0,0,2.17.64,16,16,0,0,0,2.17.17,13.22,13.22,0,0,0,3.11-.35,6.93,6.93,0,0,0,2.52-1.15A5.23,5.23,0,0,0,144.51,58,7.34,7.34,0,0,0,145.11,54.93Z"/><path d="M199.78,30.43a.62.62,0,0,0-.7-.7c-1.45,0-3-.06-4.66-.17a16.72,16.72,0,0,1-4.62-1,8.68,8.68,0,0,1-3.53-2.42,6.73,6.73,0,0,1-1.4-4.55c0-.47.32-.67.95-.59a9.1,9.1,0,0,1,2.13.52c.79.28,1.55.58,2.28.91a8.89,8.89,0,0,0,1.43.56,8.71,8.71,0,0,0,2.21.39c.72,0,1.45,0,2.2,0,1.17,0,2.17,0,3,0a4.4,4.4,0,0,0,2.1-.53,3,3,0,0,0,1.26-1.54,9,9,0,0,0,.42-3.15c0-.79,0-1.73.1-2.8a7.45,7.45,0,0,0-.24-2.73,4,4,0,0,0-.91-1.5A9.79,9.79,0,0,0,200.52,10c-.45-.33-.83-.62-1.16-.88s-.49-.45-.49-.59.19-.42.56-.56a5.53,5.53,0,0,1,1.26-.31c.47-.07.92-.12,1.36-.15l.88,0,2.69,0a18.8,18.8,0,0,1,3.37.39A8.38,8.38,0,0,1,211.82,9,2.51,2.51,0,0,1,213,11.25a6.21,6.21,0,0,1-.56,2.52,26.06,26.06,0,0,1-1.22,2.42q-.67,1.15-1.23,2.31a5.08,5.08,0,0,0-.56,2.2c0,.23.14.35.42.35a4.57,4.57,0,0,0,2.31-.74c.84-.48,1.73-1,2.66-1.6a32.44,32.44,0,0,1,2.87-1.62,6.52,6.52,0,0,1,2.94-.73,8.07,8.07,0,0,1,1.82.21,5.05,5.05,0,0,1,1.61.66,4,4,0,0,1,1.16,1.19,3.4,3.4,0,0,1,.45,1.79,2.93,2.93,0,0,1-1.22,2.27,12.15,12.15,0,0,1-3.05,1.79,31,31,0,0,1-4,1.36c-1.45.4-2.82.75-4.13,1.06s-2.43.57-3.36.8a4.45,4.45,0,0,0-1.68.63,13.32,13.32,0,0,0-2.76,5c-.82,2.32-1.63,4.9-2.42,7.78s-1.57,5.83-2.34,8.89a71.21,71.21,0,0,1-2.63,8.36,27.09,27.09,0,0,1-3.26,6.23,5.1,5.1,0,0,1-4.16,2.45,3.28,3.28,0,0,1-1.82-.49,5,5,0,0,1-1.33-1.26,5.62,5.62,0,0,1-.84-1.72,6.34,6.34,0,0,1-.28-1.85,11.74,11.74,0,0,1,1-4.41,37.42,37.42,0,0,1,2.49-4.93q1.5-2.56,3.21-5.29c1.15-1.82,2.22-3.65,3.23-5.5a37.9,37.9,0,0,0,2.48-5.53A16.23,16.23,0,0,0,199.78,30.43Zm12.11,18.13.28.21a15.07,15.07,0,0,0,1.5,3.11,15.54,15.54,0,0,0,2.21,2.77,12.14,12.14,0,0,0,2.8,2.1,10.29,10.29,0,0,0,3.22,1.12,17.67,17.67,0,0,0,3.57.21c1.21,0,2.43-.13,3.64-.25l3.6-.35c1.2-.11,2.4-.17,3.61-.17a18.68,18.68,0,0,1,2.14.14,7.58,7.58,0,0,1,2.13.56,4.45,4.45,0,0,1,1.65,1.22,3.17,3.17,0,0,1,.66,2.07,3.64,3.64,0,0,1-1.05,2.76,6.77,6.77,0,0,1-2.59,1.54,12.84,12.84,0,0,1-3.26.67c-1.14.09-2.13.14-3,.14-2.66,0-5.3-.1-7.91-.32a21.34,21.34,0,0,1-7-1.71,11.85,11.85,0,0,1-5-4.27q-1.92-2.86-1.92-7.91c0-.61,0-1.18,0-1.72a6.59,6.59,0,0,1,.31-1.71Zm13.44-9.1c.14-.14.41-.38.8-.73s.81-.73,1.23-1.13a12.65,12.65,0,0,0,1.09-1.15,1.73,1.73,0,0,0,.45-.77,1,1,0,0,0-.45-.87,3.53,3.53,0,0,0-1.09-.5,6.94,6.94,0,0,0-1.29-.21l-1.09,0h-7.77a2.21,2.21,0,0,1-.46-.07c-.21,0-.31-.16-.31-.35a.53.53,0,0,1,.1-.28c.08-.09.16-.19.25-.28a11,11,0,0,1,3.5-1.89,30.85,30.85,0,0,1,5-1.33,31.36,31.36,0,0,1,5.6-.49,20.19,20.19,0,0,1,5.22.63A8.78,8.78,0,0,1,240,32.08a4.93,4.93,0,0,1,1.5,3.74v.84a2.74,2.74,0,0,1-.14.84,2,2,0,0,1-1.78,1.26L237.3,39c-2,.19-4,.44-6,.77a35.74,35.74,0,0,1-5.95.49l-.28-.28Z"/><path d="M287.63,64.66a.93.93,0,0,1,.42-.42c2.15-1.26,4.16-2.38,6.05-3.36s3.61-2,5.15-2.94a31.14,31.14,0,0,0,4.13-3.11,15.2,15.2,0,0,0,3.08-3.93,18.7,18.7,0,0,0,1.89-5.35,38,38,0,0,0,.63-7.49,31.64,31.64,0,0,0-.56-5.88,23.68,23.68,0,0,0-1.82-5.64,19.66,19.66,0,0,0-3.22-4.86,15.83,15.83,0,0,0-4.76-3.57,13.75,13.75,0,0,0-4.45-1.47,35.22,35.22,0,0,0-4.65-.28l-.6,0a6.8,6.8,0,0,0-.8,0,1.88,1.88,0,0,0-.74.14.61.61,0,0,0-.38.42,2.42,2.42,0,0,0,.59,1.75c.49.7,1,1.5,1.65,2.42A23,23,0,0,1,290.92,24a7.46,7.46,0,0,1,.77,3.32,31.1,31.1,0,0,1-.7,6.12,48.06,48.06,0,0,1-2.07,7.14,55.8,55.8,0,0,1-3.29,7.25,35,35,0,0,1-4.3,6.33,21.36,21.36,0,0,1-5.25,4.48,11.5,11.5,0,0,1-6,1.72,7.21,7.21,0,0,1-5-1.92,15.42,15.42,0,0,1-3.43-4.69,24.94,24.94,0,0,1-2-5.88A28,28,0,0,1,259,42.4a24.66,24.66,0,0,1,2.73-11.55,29.1,29.1,0,0,1,7.21-9A33.63,33.63,0,0,1,279.16,16,34.45,34.45,0,0,1,290.85,14a29.89,29.89,0,0,1,10.67,1.92,27.84,27.84,0,0,1,8.9,5.39,26.13,26.13,0,0,1,6.08,8.27,24.35,24.35,0,0,1,2.28,10.6,21.26,21.26,0,0,1-2.56,10.5,25,25,0,0,1-6.68,7.8,29.5,29.5,0,0,1-9.38,4.83,35.31,35.31,0,0,1-10.64,1.65,9.49,9.49,0,0,0-1,0A1.44,1.44,0,0,1,287.63,64.66Zm-22.12-25.2a23.17,23.17,0,0,0,.24,3,18.58,18.58,0,0,0,.84,3.46,8.68,8.68,0,0,0,1.65,2.87A3.41,3.41,0,0,0,270.9,50a6.15,6.15,0,0,0,3.85-1.5,18.51,18.51,0,0,0,3.57-3.92,39.49,39.49,0,0,0,3.11-5.39,53.38,53.38,0,0,0,2.45-5.92,51.6,51.6,0,0,0,1.61-5.53,19.57,19.57,0,0,0,.6-4.2c0-.42,0-1-.11-1.68a9.88,9.88,0,0,0-.42-2.07,5.85,5.85,0,0,0-.87-1.75,1.71,1.71,0,0,0-1.4-.73,11,11,0,0,0-4.66,1.05,17.17,17.17,0,0,0-4.23,2.8,26.12,26.12,0,0,0-3.61,4A29.79,29.79,0,0,0,268,29.83a27,27,0,0,0-1.82,5A18.89,18.89,0,0,0,265.51,39.46Z"/><path class="cls-1" d="M333.21,33.36l-.08-.08.16-.16c.48,0,1.29,0,2.44,0s2.45,0,3.92,0,3,0,4.56,0,3.05,0,4.44,0l3.52.08a13.16,13.16,0,0,1,1.76.12,7.21,7.21,0,0,1-2.32.4H333.77ZM374.57,4.08V31.76a.71.71,0,0,0,.8.8h15.2a2.26,2.26,0,0,0,1.72-1.12,22.56,22.56,0,0,0,1.6-2.48c.51-.91,1-1.73,1.4-2.48s.8-1.12,1.12-1.12A5.51,5.51,0,0,1,398,26.48c.88.75,1.81,1.59,2.8,2.52s1.88,1.8,2.68,2.6,1.2,1.28,1.2,1.44c0,.59-.57.91-1.72,1s-2.47,0-4,0l-4.28-.24a4.75,4.75,0,0,0-2.6.28,1.22,1.22,0,0,0-.48,1,.72.72,0,0,1,.08.24.24.24,0,0,0,.08.16c.16.16.69.59,1.6,1.28s1.91,1.43,3,2.2,2.15,1.51,3.16,2.2l2,1.36.24.32V43l-.24.24a50.54,50.54,0,0,0-9.28,2.64q-4.49,1.75-9,3.52l-.88.36a.64.64,0,0,0-.4.76,2.06,2.06,0,0,0,.68.68c.35.24.73.49,1.16.76s.84.51,1.24.72l.92.48A77.94,77.94,0,0,0,395.85,58a65.92,65.92,0,0,0,10.48,3.28l.24.32-.24.48a19.14,19.14,0,0,0-4.28,3.8,21.76,21.76,0,0,0-2.84,4.92,5.28,5.28,0,0,0-.32.88,10,10,0,0,1-.4,1.12,2.44,2.44,0,0,1-.6.88.69.69,0,0,1-.76.16,18.63,18.63,0,0,1-2.92-1.56c-.93-.61-1.85-1.24-2.76-1.88a42.45,42.45,0,0,1-6.56-6.32A59.05,59.05,0,0,1,379.13,56,46.68,46.68,0,0,1,375,47a28,28,0,0,1-1.56-9,2.34,2.34,0,0,1,.08-.48c.05-.21.16-.32.32-.32.32,0,.79.51,1.4,1.52s1.25,2.16,1.92,3.44,1.29,2.52,1.88,3.72,1,2,1.2,2.36a1.6,1.6,0,0,0,.8.32c.32,0,1-.61,2-1.84a51.77,51.77,0,0,0,3-4.24q1.56-2.4,2.76-4.64a8.68,8.68,0,0,0,1.2-3c0-.43-.27-.69-.8-.8a20,20,0,0,0-3.84-.44c-1.33,0-2.64-.09-3.92-.2L377,33.2c-1.49-.11-3-.16-4.48-.16a1.75,1.75,0,0,0-1.6,1,9.39,9.39,0,0,1-1.12,1.68,24.77,24.77,0,0,1-3.6,3.64,26.93,26.93,0,0,0-3.6,3.56,4.87,4.87,0,0,0-.16,1.28c-.05.8-.12,1.8-.2,3s-.16,2.49-.24,3.88-.15,2.69-.2,3.92-.08,2.27-.08,3.12a6.53,6.53,0,0,0,.08,1.44c.21.43.39.67.52.72a3.29,3.29,0,0,0,.92.08,18.09,18.09,0,0,0,5.56-.88,18.09,18.09,0,0,1,5.56-.88h1l.16.16V59a13.47,13.47,0,0,1-5.84,4.64,78,78,0,0,1-7.72,2.76c-2.75.83-5.49,1.77-8.24,2.84a21.56,21.56,0,0,0-7.32,4.72l-.28.28a.49.49,0,0,1-.36.12c-.11,0-.21-.08-.32-.24a2.78,2.78,0,0,1-.24-.4A16.87,16.87,0,0,1,344,71.84q-.79-1.44-1.68-3c-.59-1-1.11-2-1.56-2.92a6.31,6.31,0,0,1-.68-1.68c0-.27.11-.43.32-.48a8.83,8.83,0,0,1,2.44-.44l3.32-.24c1.12-.08,2.16-.17,3.12-.28a3.89,3.89,0,0,0,1.92-.56,4.3,4.3,0,0,0,.44-1.8c.13-1,.24-2.2.32-3.48s.13-2.51.16-3.68,0-2,0-2.32,0-.72,0-1.2a.68.68,0,0,0-.76-.72,8.29,8.29,0,0,0-2.28,1c-1.25.67-2.71,1.4-4.36,2.2s-3.35,1.53-5.08,2.2a12.82,12.82,0,0,1-4.52,1,.35.35,0,0,1-.4-.4c0-.32.53-.95,1.6-1.88s2.28-1.93,3.64-3l3.92-3.08c1.25-1,2.09-1.64,2.52-2,2-1.71,3.95-3.45,5.92-5.24a18.68,18.68,0,0,0,4.56-6.28,5.58,5.58,0,0,1,.32-.56.62.62,0,0,1,.56-.24c.21,0,.65,0,1.32.08s1.36.08,2.08.08a8,8,0,0,0,1.88-.2c.53-.13.8-.39.8-.76V.8a.71.71,0,0,1,.8-.8c.64,0,1.45,0,2.44.08s2,.15,3,.28,2,.28,3,.44a14,14,0,0,1,2.28.56l.44.2a.38.38,0,0,1,.28.36,1.54,1.54,0,0,1-.52.88,6,6,0,0,1-.76.72Zm-36.48,6.08h23.28a1.21,1.21,0,0,1,.44.12.38.38,0,0,1,.28.36,6.64,6.64,0,0,1-1.56.08c-1,0-2.25,0-3.8,0s-3.25,0-5.12,0-3.68,0-5.44,0-3.37,0-4.84,0h-3.24l-.32-.32Zm3.2,11.2h20.08a1.21,1.21,0,0,1,.44.12.38.38,0,0,1,.28.36,5.19,5.19,0,0,1-1.36.08c-.85,0-2,0-3.28,0s-2.81,0-4.44,0-3.2,0-4.72,0-2.91,0-4.16,0h-2.84L341,21.6Zm35-10.8c0-.43.27-.64.8-.64h9.92c.27,0,.67-.37,1.2-1.12s1.11-1.59,1.72-2.52,1.2-1.77,1.76-2.52,1-1.12,1.24-1.12a4.86,4.86,0,0,1,1.2.92l2.32,2.08,2.4,2.2c.75.69,1.23,1.15,1.44,1.36l.56.56c.27.27.4.48.4.64s-.16.32-.48.32l-4.88.32c-1.6.11-3.23.16-4.88.16h-3c-1.52,0-3.11,0-4.76,0s-3.17-.09-4.56-.2A7.14,7.14,0,0,1,376.33,10.56ZM398.81,22a12.73,12.73,0,0,1-3.52.48q-3.19,0-6.32-.12t-6.32-.28c-1,0-2-.08-3-.08s-2,0-3-.08a.45.45,0,0,1-.32-.16c.05-.32.49-.53,1.32-.64a21.49,21.49,0,0,1,2.8-.16c1,0,2.05,0,3,.08s1.64.08,2,.08c.16,0,.49-.32,1-1s1.05-1.36,1.64-2.16,1.13-1.57,1.64-2.32.84-1.25,1-1.52a.32.32,0,0,0,.16,0,.32.32,0,0,1,.16,0,5.05,5.05,0,0,1,1.48,1c.83.67,1.69,1.44,2.6,2.32s1.76,1.73,2.56,2.56a7.93,7.93,0,0,1,1.36,1.64Z"/><path class="cls-1" d="M449.13,48.24a10.28,10.28,0,0,1-.2-2.52c0-1.47,0-3.11,0-4.92s0-3.55,0-5.2,0-2.75,0-3.28a.71.71,0,0,0-.8-.8H437.45a.71.71,0,0,0-.8.8q0,4.49-.24,8.92t-.24,8.92l.32.48a2.89,2.89,0,0,0,1.56-.16c.72-.21,1.51-.45,2.36-.72l2.52-.8a10.21,10.21,0,0,1,2-.48l.32.32-.24.48q-1,.64-2.88,2.16c-1.28,1-2.73,2.15-4.36,3.4s-3.33,2.56-5.12,3.92-3.47,2.59-5,3.68-3,2-4.16,2.72A6.38,6.38,0,0,1,421,66.24a.49.49,0,0,1-.52-.36l-.2-.6c-.59-1.55-1.21-3.09-1.88-4.64s-1.32-3.09-2-4.64v-.24l.16-.4a11.83,11.83,0,0,1,2.2-.52c1.09-.19,2.23-.41,3.4-.68a21.53,21.53,0,0,0,3.08-.92c.88-.35,1.32-.76,1.32-1.24V9.92a1.16,1.16,0,0,0-.52-.84,2.19,2.19,0,0,0-.92-.52,5.4,5.4,0,0,0-1.28,0q-.8.07-1.68.12l-1.84.08a5.23,5.23,0,0,1-1.76-.2c-.43-.11-.61-.27-.56-.48a.38.38,0,0,1,.4-.32h14.8c.43,0,.92-.33,1.48-1a25,25,0,0,0,1.68-2.28c.56-.85,1.11-1.67,1.64-2.44A4.39,4.39,0,0,1,439.45.56h.32A24.31,24.31,0,0,1,443.57,4c1.15,1.28,2.33,2.53,3.56,3.76l.08.24-.16.32-.56.24h-9a.71.71,0,0,0-.8.8V28.24c0,.48.29.67.88.56l.4-.16c.11-.16.31-.51.6-1l.92-1.68.84-1.56c.24-.45.41-.68.52-.68.37,0,.84.4,1.4,1.2l1.8,2.56a16.52,16.52,0,0,0,2,2.36,1.67,1.67,0,0,0,2,.52c.16-.16.36-.39.6-.68a1.34,1.34,0,0,0,.36-.84V3a1.53,1.53,0,0,1,.12-.6.5.5,0,0,1,.52-.28,4.82,4.82,0,0,1,1.48.6c.77.4,1.67.84,2.68,1.32s2,.92,3.08,1.32a7.83,7.83,0,0,0,2.76.6h15.12l.56-.24,1-1c.51-.53,1-1.09,1.64-1.68s1.13-1.11,1.64-1.56.81-.68.92-.68a5.14,5.14,0,0,1,1.68,1c.91.67,1.89,1.43,3,2.28s2.07,1.68,3,2.48a16.55,16.55,0,0,1,1.72,1.6.64.64,0,0,1-.48.6c-.32.13-.67.27-1,.4a3.88,3.88,0,0,0-1,.56,1.26,1.26,0,0,0-.48,1.08v33.6c0,.64-.41,1.08-1.24,1.32a16.33,16.33,0,0,1-2.76.52c-1,.11-1.93.24-2.76.4s-1.24.48-1.24,1V62.08a1.23,1.23,0,0,0,.92,1.16,6.36,6.36,0,0,0,2.08.4,12.36,12.36,0,0,0,2.28-.12,4.64,4.64,0,0,0,1.52-.4,7.54,7.54,0,0,0,.52-1.08c.29-.67.63-1.41,1-2.24s.76-1.63,1.16-2.4a6.89,6.89,0,0,1,1-1.56,3.18,3.18,0,0,1,.52,1.84c.08,1,.15,1.65.2,2.08a7.82,7.82,0,0,0,.6,2c.29.64.6,1.27.92,1.88a16.59,16.59,0,0,1,.84,1.88,5.44,5.44,0,0,1,.36,1.92,4.44,4.44,0,0,1-.64,2.4,6.11,6.11,0,0,1-1.64,1.76,8.11,8.11,0,0,1-2.24,1.12,7.84,7.84,0,0,1-2.44.4H472.41a2.79,2.79,0,0,1-1.32-.36,6.17,6.17,0,0,1-1.28-.92,5.91,5.91,0,0,1-1-1.2,2.37,2.37,0,0,1-.4-1.28V45.92a.87.87,0,0,0-.64-.88,3.46,3.46,0,0,0-1.2-.24,1.64,1.64,0,0,0-1.6,1.12,5.21,5.21,0,0,0-.52,1.68,13.74,13.74,0,0,1-.36,1.76,29.23,29.23,0,0,1-2.8,7,46,46,0,0,1-4.52,6.76,32.67,32.67,0,0,1-5.84,5.68,29.55,29.55,0,0,1-7,3.92,21.58,21.58,0,0,1-8,1.48,2.51,2.51,0,0,1-.56-.08.38.38,0,0,1-.32-.4c0-.16.29-.43.88-.8s1.25-.76,2-1.16,1.47-.76,2.16-1.08a9,9,0,0,0,1.36-.72,25.81,25.81,0,0,0,4.6-3.8,28.8,28.8,0,0,0,3.72-4.8,24.48,24.48,0,0,0,2.52-5.48,19.42,19.42,0,0,0,.92-5.92.72.72,0,0,0-.44-.64,4.8,4.8,0,0,0-1-.4,6.27,6.27,0,0,0-1.2-.2c-.4,0-.68,0-.84,0ZM423.93,31c-.8.05-1.6.15-2.4.28a15,15,0,0,1-2.4.2.56.56,0,0,1,0-1.12l1.2,0c.75,0,1.51,0,2.28,0a7.14,7.14,0,0,1,1.76.16C424.77,30.59,424.62,30.77,423.93,31Zm51.92,12.48.56-.56.24-.56V32.72a.86.86,0,0,0-.24-.64.86.86,0,0,1-.24-.64,1.89,1.89,0,0,1,.24-.92,1.89,1.89,0,0,0,.24-.92V8.32a.71.71,0,0,0-.8-.8h-16a.71.71,0,0,0-.8.8V43a.71.71,0,0,0,.8.8h15.44Zm-1.6-24.32c-.53,0-1.47,0-2.8,0s-2.72,0-4.16,0-2.77,0-4,0A10.52,10.52,0,0,1,461,19l-.16-.24a19,19,0,0,1,2.24-.12c1.28,0,2.71,0,4.28,0s3.08,0,4.52,0,2.4,0,2.88,0l.16.16-.08.08ZM461,31.44a2,2,0,0,1,.48-.32,1.14,1.14,0,0,1,.48-.16h11.36a2.06,2.06,0,0,1,.68.16,1.78,1.78,0,0,1,.6.32,4.47,4.47,0,0,1-1.16.08c-.67,0-1.48,0-2.44,0s-2,0-3.12,0-2.16,0-3.12,0h-2.52A5,5,0,0,1,461,31.44Z"/><path d="M562.36,46c.19.14.21.44.07.91a8.76,8.76,0,0,1-.6,1.47,16.34,16.34,0,0,1-.8,1.44,10.8,10.8,0,0,0-.56.94q-1.19,2.1-2.48,4.13a22.76,22.76,0,0,1-3,3.78,28.31,28.31,0,0,1-9.62,6.44,30,30,0,0,1-11.38,2.24,19.07,19.07,0,0,1-8.26-1.75,14.72,14.72,0,0,1-6.58-7.17q-.35-.81-.63-1.65c-.19-.56-.35-1.11-.49-1.65a10.5,10.5,0,0,1-.28-1.43c-.09-1.12-.14-2.25-.14-3.4V46.88q0-6.72.52-13.3t.53-13.3a20.36,20.36,0,0,0-.21-3,7.08,7.08,0,0,0-1-2.77,6.1,6.1,0,0,0-1.08-1.29c-.4-.35-.79-.67-1.16-.95s-.75-.55-1.12-.8a4.41,4.41,0,0,1-1-.95,1.65,1.65,0,0,1,.84-.8,7.33,7.33,0,0,1,1.44-.53,10,10,0,0,1,1.57-.28c.51,0,.93-.07,1.26-.07a11.25,11.25,0,0,1,3.64.73,17.75,17.75,0,0,1,4,2A14.91,14.91,0,0,1,529,14.47a5.19,5.19,0,0,1,1.33,3.36,6,6,0,0,1-.31,1.92,13.58,13.58,0,0,1-.78,1.86c-.3.61-.61,1.21-.94,1.82a10.12,10.12,0,0,0-.77,1.82A71.19,71.19,0,0,0,525,36.45a81.6,81.6,0,0,0-.81,11.41q0,5.8,2.62,8.19t8.3,2.38a28.85,28.85,0,0,0,7.84-1,34.16,34.16,0,0,0,6.76-2.73,55.12,55.12,0,0,0,6.23-4c2-1.49,4.09-3.06,6.19-4.69A.28.28,0,0,1,562.36,46Z"/><path d="M595.68,30.43a.62.62,0,0,0-.7-.7c-1.45,0-3-.06-4.65-.17a16.57,16.57,0,0,1-4.62-1,8.65,8.65,0,0,1-3.54-2.42,6.73,6.73,0,0,1-1.4-4.55c0-.47.32-.67,1-.59a9.1,9.1,0,0,1,2.13.52c.79.28,1.55.58,2.28.91a8.89,8.89,0,0,0,1.43.56,8.71,8.71,0,0,0,2.21.39c.72,0,1.45,0,2.2,0,1.17,0,2.17,0,3,0a4.4,4.4,0,0,0,2.1-.53,3,3,0,0,0,1.26-1.54,9,9,0,0,0,.42-3.15c0-.79,0-1.73.11-2.8a7.65,7.65,0,0,0-.25-2.73,4,4,0,0,0-.91-1.5A9.79,9.79,0,0,0,596.42,10c-.45-.33-.83-.62-1.16-.88s-.49-.45-.49-.59.19-.42.56-.56a5.53,5.53,0,0,1,1.26-.31c.47-.07.92-.12,1.37-.15l.87,0,2.7,0a18.8,18.8,0,0,1,3.36.39A8.38,8.38,0,0,1,607.72,9a2.51,2.51,0,0,1,1.19,2.24,6.21,6.21,0,0,1-.56,2.52,26.06,26.06,0,0,1-1.22,2.42q-.68,1.15-1.23,2.31a5.08,5.08,0,0,0-.56,2.2c0,.23.14.35.42.35a4.57,4.57,0,0,0,2.31-.74c.84-.48,1.73-1,2.66-1.6a32.44,32.44,0,0,1,2.87-1.62,6.52,6.52,0,0,1,2.94-.73,8.07,8.07,0,0,1,1.82.21,5.05,5.05,0,0,1,1.61.66,4,4,0,0,1,1.16,1.19,3.4,3.4,0,0,1,.45,1.79,2.93,2.93,0,0,1-1.22,2.27,12.15,12.15,0,0,1-3.05,1.79,31,31,0,0,1-4,1.36c-1.45.4-2.82.75-4.13,1.06s-2.43.57-3.36.8a4.45,4.45,0,0,0-1.68.63,13.32,13.32,0,0,0-2.76,5c-.82,2.32-1.63,4.9-2.42,7.78s-1.57,5.83-2.34,8.89A71.21,71.21,0,0,1,594,58.15a27.49,27.49,0,0,1-3.25,6.23,5.13,5.13,0,0,1-4.17,2.45,3.28,3.28,0,0,1-1.82-.49,5,5,0,0,1-1.33-1.26,5.62,5.62,0,0,1-.84-1.72,6.34,6.34,0,0,1-.28-1.85,11.74,11.74,0,0,1,1-4.41,37.42,37.42,0,0,1,2.49-4.93q1.5-2.56,3.22-5.29t3.22-5.5a37.9,37.9,0,0,0,2.48-5.53A16.23,16.23,0,0,0,595.68,30.43Zm12.11,18.13.28.21a15.11,15.11,0,0,0,1.51,3.11,15.49,15.49,0,0,0,2.2,2.77,12.14,12.14,0,0,0,2.8,2.1,10.29,10.29,0,0,0,3.22,1.12,17.67,17.67,0,0,0,3.57.21c1.21,0,2.43-.13,3.64-.25l3.61-.35c1.19-.11,2.39-.17,3.6-.17a18.68,18.68,0,0,1,2.14.14,7.58,7.58,0,0,1,2.13.56,4.45,4.45,0,0,1,1.65,1.22,3.17,3.17,0,0,1,.66,2.07,3.64,3.64,0,0,1-1,2.76,6.77,6.77,0,0,1-2.59,1.54,12.86,12.86,0,0,1-3.25.67c-1.15.09-2.14.14-3,.14-2.66,0-5.3-.1-7.91-.32a21.22,21.22,0,0,1-7-1.71,11.74,11.74,0,0,1-5-4.27Q607,57.25,607,52.2c0-.61,0-1.18,0-1.72a6.59,6.59,0,0,1,.31-1.71Zm13.44-9.1c.14-.14.41-.38.81-.73s.8-.73,1.22-1.13a12.65,12.65,0,0,0,1.09-1.15,1.73,1.73,0,0,0,.45-.77,1,1,0,0,0-.45-.87,3.53,3.53,0,0,0-1.09-.5A6.94,6.94,0,0,0,622,34.1l-1.09,0h-7.77a2.14,2.14,0,0,1-.45-.07c-.21,0-.32-.16-.32-.35a.47.47,0,0,1,.11-.28,3,3,0,0,1,.24-.28,11,11,0,0,1,3.5-1.89,30.85,30.85,0,0,1,5-1.33,31.36,31.36,0,0,1,5.6-.49,20.19,20.19,0,0,1,5.22.63,8.78,8.78,0,0,1,3.85,2.07,4.93,4.93,0,0,1,1.5,3.74v.84a2.74,2.74,0,0,1-.14.84,2,2,0,0,1-1.78,1.26L633.2,39c-2,.19-4,.44-6,.77a35.74,35.74,0,0,1-6,.49L621,40Z"/><path d="M655,15.66a1,1,0,0,1,.59-.32c.21,0,.44,0,.67,0a15.29,15.29,0,0,1,4.48.7A15,15,0,0,1,665,18a11.36,11.36,0,0,1,3.16,3.25,7.93,7.93,0,0,1,1.22,4.31,13.81,13.81,0,0,1-.6,4.06c-.39,1.31-.82,2.6-1.29,3.88s-.9,2.58-1.29,3.89a13.81,13.81,0,0,0-.6,4.06,15.06,15.06,0,0,0,.31,2.87,13.67,13.67,0,0,0,1,3.08,7.46,7.46,0,0,0,1.75,2.48,3.77,3.77,0,0,0,2.69,1,4.06,4.06,0,0,0,2.59-.88,9.19,9.19,0,0,0,2-2.16,20,20,0,0,0,1.58-2.81c.47-1,.9-1.93,1.29-2.8s.78-1.58,1.12-2.17.74-.87,1.16-.87c.19,0,.29.1.31.31a3.51,3.51,0,0,1,0,.46,18.43,18.43,0,0,1-.28,3.22c-.19,1.07-.41,2.14-.66,3.18s-.48,2.1-.67,3.16a17.74,17.74,0,0,0-.28,3.18,18.31,18.31,0,0,0,.35,3.32,13.76,13.76,0,0,1,.24,3.5,5,5,0,0,1-1,2.8c-.59.77-1.67,1.16-3.26,1.16a10.61,10.61,0,0,1-3.19-.49,13.9,13.9,0,0,1-3-1.33,18.85,18.85,0,0,1-3.89-3.08,23.87,23.87,0,0,1-3.25-4.16,23.54,23.54,0,0,1-2.24-4.77,15.06,15.06,0,0,1-.84-4.86V24.76a6.85,6.85,0,0,0-.67-3,18.08,18.08,0,0,0-1.5-2.67c-.56-.81-1.07-1.52-1.54-2.13A3.78,3.78,0,0,1,655,15.66Zm54.53,34.79a4,4,0,0,1-3.71-1.89,7.61,7.61,0,0,1-1.26-3.22q-.29-1.81-.42-3.78c-.09-1.31-.2-2.6-.31-3.89a11.13,11.13,0,0,0-1-3.6,9.28,9.28,0,0,0-.95-1.51c-.48-.67-1.06-1.44-1.71-2.31s-1.34-1.73-2.06-2.62-1.39-1.71-2-2.48-1.11-1.42-1.5-1.93a4.94,4.94,0,0,1-.6-.84.33.33,0,0,1,.32-.38,3.56,3.56,0,0,1,.52,0,12.24,12.24,0,0,1,2.63.28,21,21,0,0,1,2.48.7A23.27,23.27,0,0,1,706,26a20.66,20.66,0,0,1,4.62,4.52,20.93,20.93,0,0,1,3,5.71,19.52,19.52,0,0,1,1.09,6.54,20.37,20.37,0,0,1-.18,2.69,7.67,7.67,0,0,1-.73,2.49,4.87,4.87,0,0,1-1.54,1.82A4.47,4.47,0,0,1,709.57,50.45Z"/><path d="M761,41.56a2.39,2.39,0,0,1,2.14,1.15,4.44,4.44,0,0,1,.73,2.42,3.28,3.28,0,0,1-1.36,2.94,8.2,8.2,0,0,1-3.26,1.22,19.14,19.14,0,0,1-3.88.25c-1.33,0-2.44-.07-3.33-.07a.71.71,0,0,0-.63.32,1.53,1.53,0,0,0-.24.77c0,.3,0,.6,0,.9v.74q0,9.94,10.15,9.94a15,15,0,0,0,5.22-.91,14.45,14.45,0,0,0,4.41-2.56,11.83,11.83,0,0,0,4.16-9.2,14.8,14.8,0,0,0-1.26-6,31.91,31.91,0,0,0-2.8-5.14,31.5,31.5,0,0,0-2.8-3.64A9.13,9.13,0,0,1,767,33.16a.36.36,0,0,1,.35-.39,1.38,1.38,0,0,1,.56,0,15.81,15.81,0,0,1,5.67,2.59,24.69,24.69,0,0,1,5,4.69A25,25,0,0,1,782.12,46a15.52,15.52,0,0,1-.31,13.41,15.77,15.77,0,0,1-4.44,5.18A19.33,19.33,0,0,1,771,67.63a27.07,27.07,0,0,1-7.39,1q-8.61,0-12.39-4.59t-3.78-12.84a7.49,7.49,0,0,1,.07-1.16,3,3,0,0,0-.14-1.22c0-.09-.14-.26-.28-.49a2.88,2.88,0,0,0-.35-.49,7.43,7.43,0,0,0-2.83-2.21c-1-.44-2-.9-3-1.4a6.61,6.61,0,0,1-2.35-2.06,7.28,7.28,0,0,1-.94-4.13,6.38,6.38,0,0,1,1.05-3.57A21,21,0,0,1,741,31.58c.81-.86,1.57-1.62,2.27-2.27a2.65,2.65,0,0,0,1-1.75c0-.37-.36-.89-1.08-1.54s-1.53-1.41-2.42-2.27a20.79,20.79,0,0,1-2.41-2.81,5.21,5.21,0,0,1-1.09-3.11,1.7,1.7,0,0,1,0-.35c0-.14.08-.21.17-.21a5.55,5.55,0,0,1,2.28.81c1,.53,2.15,1.13,3.46,1.78a40.47,40.47,0,0,0,4.2,1.79,13.11,13.11,0,0,0,4.41.8c.37,0,.68-.29.91-.87a11.09,11.09,0,0,0,.56-2,20.09,20.09,0,0,0,.28-2.27c0-.75.07-1.26.07-1.54V13.81c0-.4,0-.77,0-1.12a2.23,2.23,0,0,0-.11-.67,2.84,2.84,0,0,0-.77-1.16c-.37-.34-.76-.67-1.15-1s-.74-.57-1-.8-.42-.42-.42-.56.15-.35.45-.49a5.37,5.37,0,0,1,1.09-.35,9.13,9.13,0,0,1,1.23-.18l.8,0a12.49,12.49,0,0,1,3.33.49,13.1,13.1,0,0,1,3.32,1.44A8.71,8.71,0,0,1,763,11.74,5.38,5.38,0,0,1,764,15a3.85,3.85,0,0,1-.63,1.79c-.42.72-.9,1.45-1.43,2.2s-1,1.43-1.44,2.07a3.17,3.17,0,0,0-.63,1.29,1,1,0,0,0,.56.8c.37.26.78.58,1.23.95a7,7,0,0,1,1.22,1.36,3.59,3.59,0,0,1,.56,2.07,2.36,2.36,0,0,1-1,2.17,6.25,6.25,0,0,1-2.28.84,19.16,19.16,0,0,1-2.41.25,2.35,2.35,0,0,0-1.51.38,6.07,6.07,0,0,0-1.05,1.71,24.64,24.64,0,0,0-1,2.7c-.3,1-.55,1.91-.76,2.8a9.67,9.67,0,0,0-.32,2,7.23,7.23,0,0,0,0,.77c0,.28.19.42.52.42ZM748.21,41a3.85,3.85,0,0,0,1.12-1.92,21.47,21.47,0,0,0,.67-3c.16-1.09.26-2.15.31-3.18s.07-1.84.07-2.45c0-.42-.23-.63-.7-.63a9.81,9.81,0,0,0-2.76.49,15.62,15.62,0,0,0-3.19,1.36,11.11,11.11,0,0,0-2.62,2A3.54,3.54,0,0,0,740,36.17a2.73,2.73,0,0,0,1,2,8.47,8.47,0,0,0,2.24,1.54,12.3,12.3,0,0,0,2.69.95A10.83,10.83,0,0,0,748.21,41Z"/><path d="M833.33,64.66a.93.93,0,0,1,.42-.42q3.22-1.89,6-3.36T845,57.94a31.14,31.14,0,0,0,4.13-3.11,15.2,15.2,0,0,0,3.08-3.93,18.7,18.7,0,0,0,1.89-5.35,38,38,0,0,0,.63-7.49,31.64,31.64,0,0,0-.56-5.88,23.68,23.68,0,0,0-1.82-5.64,19.66,19.66,0,0,0-3.22-4.86,15.83,15.83,0,0,0-4.76-3.57,13.78,13.78,0,0,0-4.44-1.47,35.48,35.48,0,0,0-4.66-.28l-.6,0a6.8,6.8,0,0,0-.8,0,1.88,1.88,0,0,0-.74.14.63.63,0,0,0-.38.42,2.42,2.42,0,0,0,.59,1.75c.5.7,1,1.5,1.65,2.42A23,23,0,0,1,836.62,24a7.46,7.46,0,0,1,.77,3.32,31.1,31.1,0,0,1-.7,6.12,46.89,46.89,0,0,1-2.07,7.14,55.8,55.8,0,0,1-3.29,7.25,35,35,0,0,1-4.3,6.33,21.36,21.36,0,0,1-5.25,4.48,11.5,11.5,0,0,1-6,1.72,7.21,7.21,0,0,1-5-1.92,15.42,15.42,0,0,1-3.43-4.69,24.94,24.94,0,0,1-2-5.88,28,28,0,0,1-.63-5.43,24.66,24.66,0,0,1,2.73-11.55,29.1,29.1,0,0,1,7.21-9A33.63,33.63,0,0,1,824.86,16,34.45,34.45,0,0,1,836.55,14a29.89,29.89,0,0,1,10.67,1.92,27.84,27.84,0,0,1,8.9,5.39,26.31,26.31,0,0,1,6.09,8.27,24.49,24.49,0,0,1,2.27,10.6,21.26,21.26,0,0,1-2.56,10.5,25,25,0,0,1-6.68,7.8,29.5,29.5,0,0,1-9.38,4.83,35.31,35.31,0,0,1-10.64,1.65,9.49,9.49,0,0,0-1,0A1.44,1.44,0,0,1,833.33,64.66Zm-22.12-25.2a21.72,21.72,0,0,0,.25,3,17.8,17.8,0,0,0,.83,3.46,8.68,8.68,0,0,0,1.65,2.87A3.41,3.41,0,0,0,816.6,50a6.15,6.15,0,0,0,3.85-1.5A18.51,18.51,0,0,0,824,44.54a39.49,39.49,0,0,0,3.11-5.39,53.38,53.38,0,0,0,2.45-5.92,51.6,51.6,0,0,0,1.61-5.53,19.57,19.57,0,0,0,.6-4.2c0-.42,0-1-.11-1.68a9.88,9.88,0,0,0-.42-2.07,5.85,5.85,0,0,0-.87-1.75,1.71,1.71,0,0,0-1.4-.73,11,11,0,0,0-4.66,1.05,17.17,17.17,0,0,0-4.23,2.8,25.55,25.55,0,0,0-3.6,4,29.12,29.12,0,0,0-2.84,4.72,27,27,0,0,0-1.82,5A18.89,18.89,0,0,0,811.21,39.46Z"/><path d="M896.61,38.76l.21.21a8.79,8.79,0,0,1-.28,2.17,21.39,21.39,0,0,1-.7,2.24c-.28.75-.57,1.49-.88,2.24s-.54,1.45-.73,2.1A29.83,29.83,0,0,0,893,56a15.13,15.13,0,0,0,.46,3.33,21.34,21.34,0,0,1,.52,3.88,6.4,6.4,0,0,1-.63,3.25c-.47.91-1.49,1.37-3.08,1.37a5.81,5.81,0,0,1-3.47-1.08,9,9,0,0,1-2.51-2.84,18.41,18.41,0,0,1-1.68-4,37.31,37.31,0,0,1-1.06-4.45,43.3,43.3,0,0,1-.52-4.3c-.09-1.38-.14-2.56-.14-3.54a38.88,38.88,0,0,1,.66-7.17q.67-3.54,1.48-7.08t1.47-7.07a38.88,38.88,0,0,0,.66-7.17,7.6,7.6,0,0,0-.38-2.35c-.26-.77-.54-1.5-.84-2.2s-.59-1.4-.85-2.1a6,6,0,0,1-.38-2c0-.47.21-.7.63-.7a7.9,7.9,0,0,1,3.89,1.12,15.64,15.64,0,0,1,3.6,2.8,15.36,15.36,0,0,1,2.63,3.71,8.82,8.82,0,0,1,1,3.92,13.36,13.36,0,0,1-1.33,5.57c-.89,1.93-1.85,4-2.9,6.05a68.72,68.72,0,0,0-2.87,6.58,19.72,19.72,0,0,0-1.3,7.07c0,.28,0,.7.07,1.26a13.25,13.25,0,0,0,.24,1.61,4.16,4.16,0,0,0,.57,1.36,1.15,1.15,0,0,0,1,.6c.7,0,1.45-.55,2.24-1.64A33.22,33.22,0,0,0,892.58,46c.78-1.42,1.47-2.82,2.11-4.19a17.24,17.24,0,0,1,1.57-2.91Zm23.15-14.21c0-1.54,0-2.93.07-4.17a9.1,9.1,0,0,0-.42-3.25,5,5,0,0,0-1.83-2.38,11.43,11.43,0,0,0-4.14-1.61l-.21-.28a.25.25,0,0,0,0-.14.35.35,0,0,1,0-.14c0-.56.31-1.05,1.09-1.47a11.25,11.25,0,0,1,2.87-1,16,16,0,0,1,3.76-.34,13.41,13.41,0,0,1,3.75.56,7,7,0,0,1,2.88,1.61,3.79,3.79,0,0,1,1.16,2.9,9.66,9.66,0,0,1-.7,3.64,9.66,9.66,0,0,0-.7,3.64c0,.42.23.63.7.63a4.58,4.58,0,0,0,1.61-.28c.51-.19,1-.39,1.54-.6l1.54-.59a4.58,4.58,0,0,1,1.61-.28,6.66,6.66,0,0,1,1.61.21,4.63,4.63,0,0,1,1.5.66A4.15,4.15,0,0,1,938.5,23a2.65,2.65,0,0,1,.46,1.57,3.33,3.33,0,0,1-.73,2.24,4.72,4.72,0,0,1-1.9,1.29,12.75,12.75,0,0,1-2.62.71l-2.87.48a21.37,21.37,0,0,0-2.59.63,4.37,4.37,0,0,0-1.89,1.16,13.8,13.8,0,0,0-.14,1.89v1.89c0,1,0,2-.07,3.15s-.06,2.25,0,3.39a23.86,23.86,0,0,0,.28,3.33,12.42,12.42,0,0,0,.8,2.94,2.69,2.69,0,0,0,1.4,1.16c.75.34,1.65.73,2.69,1.15s2.16.89,3.33,1.4a14.37,14.37,0,0,1,3.18,1.89,10.4,10.4,0,0,1,2.42,2.66,6.67,6.67,0,0,1,1,3.64,3.72,3.72,0,0,1-.84,2.52,3.06,3.06,0,0,1-2.45,1,4,4,0,0,1-2.62-.95,17.17,17.17,0,0,1-2.17-2.1,26.47,26.47,0,0,0-2.1-2.13,3.65,3.65,0,0,0-2.49-1c-.14,0-.38.33-.74,1s-.72,1.39-1.12,2.21-.8,1.61-1.22,2.38A5.51,5.51,0,0,1,924.4,64a9.45,9.45,0,0,1-2,1.12,14.22,14.22,0,0,1-2.52.77,25,25,0,0,1-2.62.42,23.11,23.11,0,0,1-2.35.14,20.2,20.2,0,0,1-4.44-.49,12.39,12.39,0,0,1-4-1.61,9.09,9.09,0,0,1-2.91-2.91A8.18,8.18,0,0,1,902.42,57a7.92,7.92,0,0,1,1.33-4.69,10.15,10.15,0,0,1,3.4-3,16.27,16.27,0,0,1,4.55-1.69,32.16,32.16,0,0,1,4.79-.66h.84a7.78,7.78,0,0,0,1.09-.07,2.7,2.7,0,0,0,.91-.28.68.68,0,0,0,.38-.63V32.67a.62.62,0,0,0-.7-.7h-9.59a3.63,3.63,0,0,1-2-.88A17.44,17.44,0,0,1,905.08,29a13.64,13.64,0,0,1-1.89-2.49,4.5,4.5,0,0,1-.77-2.13.56.56,0,0,1,.63-.63,2.86,2.86,0,0,1,1.19.28c.43.19.87.41,1.34.67a13.31,13.31,0,0,0,1.44.66,4.12,4.12,0,0,0,1.51.28h9.82a1.19,1.19,0,0,0,.67-.28,6.41,6.41,0,0,0,.6-.49ZM905.15,56.26a2.89,2.89,0,0,0,.63,1.93,4.23,4.23,0,0,0,1.54,1.12,6.66,6.66,0,0,0,2,.48c.72.07,1.38.11,2,.11a22.42,22.42,0,0,0,3.5-.25,8.06,8.06,0,0,0,2.84-.94,5,5,0,0,0,1.92-2,7.68,7.68,0,0,0,.7-3.57,1,1,0,0,0-.56-.84,4,4,0,0,0-1.33-.31c-.61-.08-1.26-.12-2-.15l-2,0h-1.5a24.49,24.49,0,0,0-2.45.14,8.8,8.8,0,0,0-2.52.63,5.45,5.45,0,0,0-2,1.37A3.3,3.3,0,0,0,905.15,56.26Z"/><path d="M951.7,39.53a.91.91,0,0,1,.07-.42c.89-2.15,1.87-4.23,2.94-6.27s2-4.11,2.94-6.26a94.6,94.6,0,0,0,4.41-13.3c.33-1.26.6-2.53.81-3.82s.47-2.55.8-3.81c.09-.47.3-.7.63-.7a9.1,9.1,0,0,1,1.79.38c.91.26,1.87.57,2.9.92l3,1,2,.7.67.28a.84.84,0,0,1,.45.49c0,.09,0,.17-.07.25a1.39,1.39,0,0,0-.21.17,21.1,21.1,0,0,0-2.45,3,53,53,0,0,0-2.83,4.48c-.91,1.61-1.71,3.17-2.38,4.66a9.24,9.24,0,0,0-1,3.5.82.82,0,0,0,.6.84,7.6,7.6,0,0,0,1.29.32c.47.06.9.15,1.3.24s.59.3.59.63a.78.78,0,0,1-.59.77.78.78,0,0,0-.6.77V67.67q0,.77-1.08,1.26a11.69,11.69,0,0,1-2.52.77,21.94,21.94,0,0,1-2.84.38c-.93.07-1.59.11-2,.11a.62.62,0,0,1-.7-.7V39.67a13.63,13.63,0,0,1,.25-2.63,14.27,14.27,0,0,0,.24-2.62v-.77c0-.33-.14-.49-.42-.49s-.8.3-1.43.91-1.31,1.29-2,2.06-1.47,1.51-2.24,2.21a7.42,7.42,0,0,1-2,1.4Zm57.19-32.48.42.14c.28.28.85.79,1.72,1.54s1.76,1.54,2.69,2.38,1.77,1.61,2.52,2.31a13,13,0,0,1,1.26,1.26l-.14.42-.14.14-.49.21c-.23,0-.68,0-1.33-.07s-1.33-.07-2-.07a9.18,9.18,0,0,0-1.85.17c-.54.12-.81.34-.81.67V62.56a5,5,0,0,1-.84,2.9,7.51,7.51,0,0,1-2.13,2.07,13.9,13.9,0,0,1-2.84,1.4c-1,.37-2,.68-2.87.91a11.77,11.77,0,0,0-1.36.35,4.55,4.55,0,0,1-1.37.21.77.77,0,0,1-.66-.35,2.51,2.51,0,0,1-.39-.84q-.13-.49-.24-1c-.07-.35-.13-.61-.18-.8-.23-.84-.43-1.54-.59-2.1a7.75,7.75,0,0,0-.6-1.47,4.47,4.47,0,0,0-1-1.19c-.42-.37-1-.84-1.68-1.4a4,4,0,0,1-.45-.35.61.61,0,0,1-.25-.49c0-.19.15-.3.46-.35a4.38,4.38,0,0,1,.59-.07h5.53a1,1,0,0,0,.74-.49,3.85,3.85,0,0,0,.52-.84,6.09,6.09,0,0,0,.21-1.47c0-.75.07-1.65.07-2.69V51.11c0-1.19,0-2.34,0-3.46s0-2.12,0-3v-2q.13-6.72.21-13.3t.07-13.3a.58.58,0,0,0-.24-.42.75.75,0,0,0-.46-.21H974a.35.35,0,1,1,0-.7h29c.37,0,.83-.33,1.37-1A18.67,18.67,0,0,0,1006,11.5L1007.42,9c.47-.82.82-1.39,1.05-1.72ZM990.76,21.61l.35-.14a12.39,12.39,0,0,1,1.3.87c.67.49,1.4,1.06,2.17,1.68l2.2,1.82,1.4,1.16.14.42a1.59,1.59,0,0,1-.59.56c-.26.14-.52.27-.77.38a2.66,2.66,0,0,0-.67.43.81.81,0,0,0-.28.66v19.6a1.68,1.68,0,0,1-.87,1.47,7.51,7.51,0,0,1-2.07.88,17.94,17.94,0,0,1-2.41.45c-.82.09-1.44.14-1.86.14a.62.62,0,0,1-.7-.7V27.77a.62.62,0,0,0-.7-.7h-4.69a.62.62,0,0,0-.7.7V45l.21.49a2.11,2.11,0,0,0,1.72.84c.58,0,1.22-.07,1.92-.07a.31.31,0,0,1,.35.35q0,.42-.63.42a13.33,13.33,0,0,1-1.36-.07,6.27,6.27,0,0,0-1.37,0,.63.63,0,0,0-.63.7v3.22c0,.33-.3.63-.91.91a13.31,13.31,0,0,1-2.06.74c-.77.21-1.52.38-2.24.52a9.59,9.59,0,0,1-1.51.21,4.84,4.84,0,0,1-.63,0c-.23,0-.35-.17-.35-.45q0-7.48-.21-14.88T974.1,23c0-.42.23-.63.7-.63a5.44,5.44,0,0,1,2.31.56c.79.37,1.61.77,2.45,1.19s1.7.82,2.59,1.19a7.21,7.21,0,0,0,2.8.56,5.48,5.48,0,0,0,.88-.07l.87-.14Z"/><path d="M1055.37,44.36a13.11,13.11,0,0,1,.07-1.44,12.8,12.8,0,0,0,.07-1.43,8.62,8.62,0,0,1,1.68-5.32,43.85,43.85,0,0,1,3.71-4.31,38.44,38.44,0,0,0,3.71-4.37,9.14,9.14,0,0,0,1.68-5.53,10.45,10.45,0,0,0-.91-4.69,7.25,7.25,0,0,0-2.52-2.87,10.07,10.07,0,0,0-3.78-1.44,27.17,27.17,0,0,0-4.62-.38h-.67a1.86,1.86,0,0,0-.59.07,1.57,1.57,0,0,0-1.12,1.26,12.67,12.67,0,0,0-.38,2.52c-.08,1-.15,2-.21,3.11a9.88,9.88,0,0,1-.64,3,5.56,5.56,0,0,1-1.6,2.27,4.74,4.74,0,0,1-3.12.91,8.69,8.69,0,0,1-1.43-.11,4.46,4.46,0,0,1-1.37-.42,3,3,0,0,1-1-.87,2.26,2.26,0,0,1-.42-1.4,9,9,0,0,1,.52-2.8,11.37,11.37,0,0,1,1.23-2.59,10.55,10.55,0,0,1,3.05-3.05,17.86,17.86,0,0,1,4-2,25.86,25.86,0,0,1,4.49-1,30.74,30.74,0,0,1,10.11.21,16.37,16.37,0,0,1,5.15,1.81,10.65,10.65,0,0,1,3.71,3.57,10.74,10.74,0,0,1,1.43,5.78,10,10,0,0,1-1.89,6.3,22.3,22.3,0,0,1-4.51,4.37q-2.62,1.93-5.36,3.82a15.39,15.39,0,0,0-4.41,4.62,8.09,8.09,0,0,0-.77,1.54,6.38,6.38,0,0,0-.28,1.23c-.05.39-.1.78-.17,1.15a7.65,7.65,0,0,1-.39,1.26.66.66,0,0,1-.35.42,1.74,1.74,0,0,1-.56.07,1.08,1.08,0,0,1-.87-.38,2.35,2.35,0,0,1-.46-.92,5.53,5.53,0,0,1-.17-1.08C1055.38,44.9,1055.37,44.59,1055.37,44.36Zm-3.64,14.56a4.73,4.73,0,0,1,1.75-4.09,5.85,5.85,0,0,1,3.89-1.2,6.71,6.71,0,0,1,3.88,1.51,4.72,4.72,0,0,1,1.75,3.92,4.84,4.84,0,0,1-1.75,4,6.38,6.38,0,0,1-3.88,1.5,5.9,5.9,0,0,1-3.89-1.26A5.1,5.1,0,0,1,1051.73,58.92Z"/><path d="M1121.8,27.77a.7.7,0,0,1,.24-.6.81.81,0,0,1,.57-.13,1.13,1.13,0,0,1,.56.21.59.59,0,0,1,.24.52q0,10.58.25,21t.24,21a.62.62,0,0,1-.7.7q-5.17,0-10.29-.21t-10.29-.21a.7.7,0,1,1,0-1.4h18.48a.62.62,0,0,0,.7-.7Z"/></g></g></svg>