<svg xmlns="http://www.w3.org/2000/svg" viewBox="0 0 45.05 45.3"><defs><style>.cls-1{fill:#fff;}</style></defs><title>1</title><g id="レイヤー_2" data-name="レイヤー 2"><g id="opening-1"><path class="cls-1" d="M0,8.45a19.63,19.63,0,0,0,3.85.25H11.3a18.47,18.47,0,0,0,3.8-.25V11.7a20.49,20.49,0,0,0-3.45-.2H3.85A27.05,27.05,0,0,0,0,11.7ZM1.5,45.3a32.18,32.18,0,0,0,.3-4.95V33.9a28.44,28.44,0,0,0-.25-4.5A25.13,25.13,0,0,0,5,29.6h6.1a18.27,18.27,0,0,0,3.25-.2,30,30,0,0,0-.15,4.2v6.6a30.22,30.22,0,0,0,.2,4H11.5V42.4H4.6v2.9ZM1.6,1.55a19,19,0,0,0,3.65.25H10.5a19.26,19.26,0,0,0,3.65-.25V4.7a26.74,26.74,0,0,0-3.65-.2H5.25a25.36,25.36,0,0,0-3.65.2Zm.25,14a20.87,20.87,0,0,0,3.45.2h5.55a19.55,19.55,0,0,0,3.35-.2V18.6a23.67,23.67,0,0,0-3.35-.2H5.3a22.89,22.89,0,0,0-3.45.2Zm0,6.85a20.12,20.12,0,0,0,3.45.2h5.5a20.21,20.21,0,0,0,3.4-.2v3.1a21.78,21.78,0,0,0-3.4-.2H5.25a21.37,21.37,0,0,0-3.4.2Zm2.7,17.4h7V32.1H4.55Zm16-21.65a24,24,0,0,0-4.7.3v-3a24.28,24.28,0,0,0,4.7.3h2.9V12H21.7a23.24,23.24,0,0,0-4.1.25V9.45a29.62,29.62,0,0,0,4.1.2h1.7V6.35H20.65a25.13,25.13,0,0,0-4.25.25v-3a18.91,18.91,0,0,0,4.3.3h2.7A18.19,18.19,0,0,0,23.1,0h3.3a17.56,17.56,0,0,0-.3,3.9h7.6A13.17,13.17,0,0,0,33.4,0h3.3a20.94,20.94,0,0,0-.3,3.9h3.35A19.48,19.48,0,0,0,44,3.6v3a26.23,26.23,0,0,0-4.25-.25H36.4v3.3h2.3a30.56,30.56,0,0,0,4.1-.2v2.8A23.59,23.59,0,0,0,38.7,12H36.4v3.7h3.85a23.13,23.13,0,0,0,4.65-.3v3a23.72,23.72,0,0,0-4.65-.3H31.3v3.2h5.9a41.22,41.22,0,0,0,4.85-.25c-.15.8-.15,1.25-.2,1.65,0,.8,0,.8-.05,3.45v8A14.22,14.22,0,0,0,45.05,34V36.9a27.84,27.84,0,0,0-3.25-.25V40.7c0,3-1,3.8-4.8,3.8-1.45,0-3.35,0-5-.2a13,13,0,0,0-.55-2.85,37.72,37.72,0,0,0,5.7.4c1.45,0,1.8-.25,1.8-1.4v-3.8H21.15V39.7a44.67,44.67,0,0,0,.2,5.5h-3.2a52.64,52.64,0,0,0,.2-5.5V36.65a12.88,12.88,0,0,0-2.65.25V34a12.18,12.18,0,0,0,2.65.25V26.05a47.7,47.7,0,0,0-.2-4.85c1.4.1,2.7.15,5.5.15h5v-3.2Zm8.15,5.6h-7.5V27.7h7.5Zm0,6.3h-7.5V34.2h7.5ZM33.7,9.65V6.35H26.1v3.3Zm0,6V12H26.1v3.7Zm5.3,12V23.75H31.3V27.7Zm0,6.5V30.05H31.3V34.2Z"/></g></g></svg>