<svg xmlns="http://www.w3.org/2000/svg" viewBox="0 0 45.95 44.55"><defs><style>.cls-1{fill:#fff;}</style></defs><title>2</title><g id="レイヤー_2" data-name="レイヤー 2"><g id="opening-1"><path class="cls-1" d="M23,3.2A16.18,16.18,0,0,0,22.7,0h3.7a19.53,19.53,0,0,0-.25,3.25V5H39.9a40.84,40.84,0,0,0,5.45-.3V8.15A42.07,42.07,0,0,0,40.1,7.9H8.1c0,22-1.15,29.15-5.4,36.65A10.25,10.25,0,0,0,0,42.15,25.15,25.15,0,0,0,3.6,32.6c.9-4.7,1.3-11.65,1.3-22V9c-.05-1.7-.1-2.95-.25-4.25C6.3,4.9,8.05,5,10,5H23ZM24.4,14a22.85,22.85,0,0,0-.25-4.5h3.6A21.9,21.9,0,0,0,27.5,14v16.7H38a27,27,0,0,0,4.45-.25v3.3A26.29,26.29,0,0,0,38,33.45H27.5v7.4H41.05a31.91,31.91,0,0,0,4.9-.3V44a37.86,37.86,0,0,0-5.2-.3H12.1a40.52,40.52,0,0,0-5.2.3V40.6a30.55,30.55,0,0,0,4.9.25H24.4v-7.4H15.15a23,23,0,0,0-4.3.25V30.4a21.76,21.76,0,0,0,4.25.25h9.3Zm-5.9-3c-1.1,4-1.35,4.85-1.65,5.9a22.3,22.3,0,0,0,6.35,7.75,11.67,11.67,0,0,0-1.9,2.55,32.23,32.23,0,0,1-5.55-7.35,28.77,28.77,0,0,1-5.15,8.4,7.43,7.43,0,0,0-2.35-1.9A23.65,23.65,0,0,0,13.7,17.5a25.54,25.54,0,0,0,1.6-7.1Zm20-.15c-.2.8-.2.8-.9,3.3C37.1,15.6,37,16.1,36.7,17a21.86,21.86,0,0,0,8.4,8.55,12.08,12.08,0,0,0-2.05,2.6A29.74,29.74,0,0,1,35.6,19.9a29.91,29.91,0,0,1-4.8,7.7,8.08,8.08,0,0,0-2.45-1.85,23.31,23.31,0,0,0,5.5-8.9A22.22,22.22,0,0,0,35.3,10.2Z"/></g></g></svg>