<svg xmlns="http://www.w3.org/2000/svg" viewBox="0 0 51.36 65.04"><defs><style>.cls-1{fill:#3c2213;}</style></defs><title>1</title><g id="レイヤー_2" data-name="レイヤー 2"><g id="load-view"><path class="cls-1" d="M42.32,16.72A8.71,8.71,0,0,1,45,16c3.28,0,4.32,1.2,4.32,2.8,0,1.2-1,2.16-3,2.88a58.17,58.17,0,0,1-14.4,2.08,10.45,10.45,0,0,1-3.44-.64c-1-.32-1.36,0-1.36,1,0,4.64.32,13.76.88,19.28l.16,1.52a.86.86,0,0,0,.72.8A63.81,63.81,0,0,1,39.44,49.2c4.8,2.08,11.92,6.64,11.92,10.64a2.21,2.21,0,0,1-2.24,2.48c-1,0-2.16-.88-3.84-2.4a43.76,43.76,0,0,0-8.48-6.24,31.51,31.51,0,0,0-6.72-2.88c-1-.24-1.28,0-1.28,1v1.76C28.8,60.56,23.36,65,14,65,5.68,65,0,61.44,0,55.6c0-7.52,9.36-10.88,18.64-10.88,1.6,0,3,.08,4.32.16.8.08,1.12-.16,1-1,0-2-.24-3.92-.32-5.92C23.44,32.16,23,25.36,23,21.68c0-5.36,0-13.52-.24-15a3,3,0,0,0-1.92-2.48h-.16a20.93,20.93,0,0,0-4.16-.56A1.45,1.45,0,0,1,15,2.24,1.53,1.53,0,0,1,16.24.48h.16A23,23,0,0,1,20.72,0c3.92,0,8.8,2.64,8.8,4.56a8,8,0,0,1-.64,2.56l-.8,2.32c-.64,2-.72,5.52-1,8.72-.08.64.16.88.72,1h1.6a36.72,36.72,0,0,0,10.4-1.52ZM12.4,60.08c9.6,0,11.44-3.12,11.84-9.76a.9.9,0,0,0-.8-1,45.52,45.52,0,0,0-6.64-.48c-7.6,0-13.36,2.72-13.36,6.48C3.44,57.92,6,60.08,12.4,60.08Z"/></g></g></svg>