<svg xmlns="http://www.w3.org/2000/svg" viewBox="0 0 42.64 69.64"><defs><style>.cls-1{fill:#3c2213;}</style></defs><title>2</title><g id="レイヤー_2" data-name="レイヤー 2"><g id="load-view"><path class="cls-1" d="M0,24.17a1.55,1.55,0,0,1,.72-1,.87.87,0,0,1,.4-.08c.56,0,1,.16,1.12.64l.08.16c1.36,2.64,2.4,4,4,4,1.2,0,3.44-.89,6.32-2.08,4.64-1.92,11-4.48,16.32-4.48,8.24,0,13.68,6.64,13.68,17.28,0,17.44-13.2,27.2-33.44,31a1.59,1.59,0,0,1-1.92-1.12,1.2,1.2,0,0,1,1-1.76c18.88-4.72,29-13.76,29-29,0-8.64-3.6-12.81-8.72-12.81-5.36,0-13.44,4.73-16.4,6.73l-1.28.88c-1.2.88-2.24,1.68-3.76,1.68-2.24,0-5.52-3.12-6.4-5.12C-.08,27.53,0,26.33,0,24.33ZM16.64,11.44A18,18,0,0,0,19.12,10c1.6-.89,1.52-1.37-.16-1.77A22,22,0,0,1,8.56,2.4,1.45,1.45,0,0,1,8.48.56,1.11,1.11,0,0,1,10.16.24a24.56,24.56,0,0,0,14.4,4.24,19.38,19.38,0,0,0,3.6-.32,17.83,17.83,0,0,1,2.56-.24c2.8,0,5.92,1.12,5.92,3.36,0,1.36-1.28,1.92-2.88,2a18.64,18.64,0,0,0-5.2.8c-3.28,1-8.48,3.36-12.16,4.8l-1,.4a1.29,1.29,0,0,1-1.68-.71c-.4-.73-.32-1.29.48-1.69h.16Z"/></g></g></svg>