<svg xmlns="http://www.w3.org/2000/svg" viewBox="0 0 49.36 56"><defs><style>.cls-1{fill:#3c2213;}</style></defs><title>3</title><g id="レイヤー_2" data-name="レイヤー 2"><g id="load-view"><path class="cls-1" d="M2.08,32.08a1.27,1.27,0,0,1,1.2,1.36c0,9.28,2.24,17,20.4,17a65.82,65.82,0,0,0,19-2.4,13,13,0,0,1,2.8-.56c1.84,0,3.84,1.12,3.84,2.8,0,1.52-.8,2.24-3.12,3.12C42.72,54.64,36,56,24.16,56,7.12,56,0,48.88,0,38a34.09,34.09,0,0,1,.4-4.56,1.62,1.62,0,0,1,1.52-1.36ZM22.64,8.56c-7.36,0-12.48-1-18-5.84A1.42,1.42,0,0,1,4.48.64,1.52,1.52,0,0,1,6.56.24c5.28,3.2,9.2,3.84,15.2,3.84s8.64-.48,10.8-1a11.4,11.4,0,0,1,3.12-.48c2.88,0,6.8,1.36,6.8,3.36,0,1.6-.88,2.08-2.72,2.48l-1.44.32a42.15,42.15,0,0,0-7.12,2c-4,1.68-10.64,5-15.36,7.6h-.08l-.4.32c-.48.24-.8.16-1-.16l-.08-.24-.32-.56c-.48-.88-.32-1.6.48-2l10.08-6.4q1.32-.72-.24-.72Z"/></g></g></svg>