<svg xmlns="http://www.w3.org/2000/svg" viewBox="0 0 61.04 65.28"><defs><style>.cls-1{fill:#3c2213;}</style></defs><title>4</title><g id="レイヤー_2" data-name="レイヤー 2"><g id="load-view"><path class="cls-1" d="M46.4,59.28c1.36.32,3.12,1.84,3.12,3.44,0,1.76-1.68,2.56-4.8,2.56a49,49,0,0,1-9.44-1C28,62.56,21,57.92,21,49a18.43,18.43,0,0,1,5-12.72c2-2.16,1.68-2.8-1.2-1.84-4.8,1.6-9.52,3.2-12.32,4.8-1.6.88-3,1.68-4.16,2.32-2.24,1.28-3.52,2.16-5,2.16A3.52,3.52,0,0,1,0,40.48,2.81,2.81,0,0,1,2.08,37.6l2.24-.8a46.31,46.31,0,0,0,4.56-1.68A29.44,29.44,0,0,0,17.36,29c4.88-4.88,17.68-17.6,21-23.52.08,0,0-.08-.08-.16a.36.36,0,0,0-.4,0c-4.16,1-9.6,2.64-13.44,4a14.61,14.61,0,0,0-3.36,1.6,5.09,5.09,0,0,1-2.64,1c-1.68,0-6.16-3.44-6.56-6.72V5A7.65,7.65,0,0,1,12,1.68,1.34,1.34,0,0,1,12.64.8.87.87,0,0,1,13,.72c.4,0,.72.08.88.4v.16c1.36,2.48,2.48,4.4,3.92,4.4,2.88,0,15-2.88,18.08-3.84A7.46,7.46,0,0,0,38.4.64,3.47,3.47,0,0,1,40,0c1.84,0,6.48,3.28,6.48,5.52,0,1.28-.64,1.44-1.52,2H44.8a9.91,9.91,0,0,0-2.48,1.92c-6.4,6.8-10.72,11-16.24,16.16l-6.16,5.76c-.88.8-.72,1,.4.64l1.84-.56C30,29,40.24,26.32,44.64,25.28c5.76-1.28,8.8-1.92,10.72-1.92C58.24,23.36,61,25,61,27c0,1.52-1.12,2.4-4.08,2.4H55.6a42,42,0,0,0-5.36.08c-7.36.56-14.32,2.48-17.44,5C28.88,37.6,25,41.44,25,48.24c0,6.32,5,9.6,12.4,10.64a44.71,44.71,0,0,0,6.08.32,10,10,0,0,1,2.72.08Z"/></g></g></svg>