<svg xmlns="http://www.w3.org/2000/svg" viewBox="0 0 70.7 57.62"><defs><style>.cls-1{fill:#fff;}</style></defs><title>0</title><g id="レイヤー_2" data-name="レイヤー 2"><g id="opening-1"><path class="cls-1" d="M50.78,0a14.71,14.71,0,0,1,8.89,3.12A24.44,24.44,0,0,1,66,10.35a35.11,35.11,0,0,1,3.56,8.89,39.31,39.31,0,0,1,1.17,9.57,41.09,41.09,0,0,1-2,12.65,28.4,28.4,0,0,1-6.54,11,16.41,16.41,0,0,1-11.38,5.18h-31A16.23,16.23,0,0,1,8.4,52.54a27.2,27.2,0,0,1-6.5-11A43.23,43.23,0,0,1,0,28.81,42,42,0,0,1,2,16.16a28.35,28.35,0,0,1,6.5-11A15.93,15.93,0,0,1,19.82,0h31ZM47.46,44.53a9,9,0,0,0,6.2-2.78,15.16,15.16,0,0,0,3.57-6,23.19,23.19,0,0,0,1.07-6.93,21.62,21.62,0,0,0-1.12-6.89,16.41,16.41,0,0,0-3.57-6,8.66,8.66,0,0,0-6.15-2.83H22.85a8.68,8.68,0,0,0-6.15,2.83,16.41,16.41,0,0,0-3.57,6A21.9,21.9,0,0,0,12,28.81a22.89,22.89,0,0,0,1.08,6.93,15,15,0,0,0,3.56,6,9,9,0,0,0,6.2,2.78Z"/></g></g></svg>