<svg xmlns="http://www.w3.org/2000/svg" viewBox="0 0 66.21 57.42"><defs><style>.cls-1{fill:#fff;}</style></defs><title>2</title><g id="レイヤー_2" data-name="レイヤー 2"><g id="opening-1"><path class="cls-1" d="M1.76,0H44.92a6.6,6.6,0,0,1,1.17.1h.59A21,21,0,0,1,57.91,3.22a18.48,18.48,0,0,1,6.35,6.69,16.31,16.31,0,0,1,1.95,7.57,16.82,16.82,0,0,1-1.9,7.67A18,18,0,0,1,58,31.84,21.25,21.25,0,0,1,46.68,35H19a6.29,6.29,0,0,0-3.08.88,5.37,5.37,0,0,0-2.39,3.91v2a2.79,2.79,0,0,0,.63,2,3.16,3.16,0,0,0,2.49.59H64.26V57.42H11.33q-5.47,0-8.35-2.68C1.06,53,.06,50.39,0,47.07V39.75a17.63,17.63,0,0,1,1.9-7.87,18,18,0,0,1,6.35-6.83,20.91,20.91,0,0,1,11.28-3.17H47.27A6.61,6.61,0,0,0,50.34,21a5.16,5.16,0,0,0,1.81-1.66,3.4,3.4,0,0,0,0-3.8,5.16,5.16,0,0,0-1.81-1.66,6.49,6.49,0,0,0-3.07-.83H1.76Z"/></g></g></svg>