<svg xmlns="http://www.w3.org/2000/svg" viewBox="0 0 64.06 57.42"><defs><style>.cls-1{fill:#fff;}</style></defs><title>3</title><g id="レイヤー_2" data-name="レイヤー 2"><g id="opening-1"><path class="cls-1" d="M.2,44.34H45.12a6.28,6.28,0,0,0,3.07-.88A5.46,5.46,0,0,0,50,41.7a3.86,3.86,0,0,0,0-4.1,5.46,5.46,0,0,0-1.81-1.76A6.28,6.28,0,0,0,45.12,35H.39V21.88H44.73A6.61,6.61,0,0,0,47.8,21a5,5,0,0,0,1.81-1.7,4,4,0,0,0,.59-2.05,3.78,3.78,0,0,0-.59-2,5.08,5.08,0,0,0-1.81-1.71,6.61,6.61,0,0,0-3.07-.83H0V0H44.14A21,21,0,0,1,55.42,3a17.41,17.41,0,0,1,6.35,6.69,16.9,16.9,0,0,1,1.9,7.62,16,16,0,0,1-2,7.51A13.78,13.78,0,0,1,59.47,28a18.2,18.2,0,0,1,2.74,3.71,18.35,18.35,0,0,1,1.85,7.91,16.85,16.85,0,0,1-2,7.66,18.37,18.37,0,0,1-6.35,6.84,20.65,20.65,0,0,1-11.23,3.17H44a6.8,6.8,0,0,1-1.18.1H.2Z"/></g></g></svg>