<svg xmlns="http://www.w3.org/2000/svg" viewBox="0 0 714.14 181.64"><defs><style>.cls-1{opacity:0.2;}.cls-2{fill:#fff;}</style></defs><title>1</title><g id="レイヤー_2" data-name="レイヤー 2"><g id="opening-1"><g class="cls-1"><path class="cls-2" d="M152.34,4.69A43.82,43.82,0,0,1,179,14.06a73.13,73.13,0,0,1,18.9,21.68A105.23,105.23,0,0,1,208.59,62.4a117.68,117.68,0,0,1,3.52,28.71,122.88,122.88,0,0,1-6,37.94,85.29,85.29,0,0,1-19.63,33q-13.62,14.36-34.13,15.53H59.47Q39,176.65,25.2,162.3A81.41,81.41,0,0,1,5.71,129.2,130,130,0,0,1,0,91.11,125.5,125.5,0,0,1,5.86,53.17a85.16,85.16,0,0,1,19.48-33.1Q39,5.57,59.47,4.69h92.87Zm-10,133.59A26.83,26.83,0,0,0,161,129.93a45.15,45.15,0,0,0,10.69-18,68.92,68.92,0,0,0,3.22-20.8,64.79,64.79,0,0,0-3.37-20.65,49,49,0,0,0-10.69-18A26.07,26.07,0,0,0,142.38,44H68.55A26,26,0,0,0,50.1,52.44a49,49,0,0,0-10.7,18A65.05,65.05,0,0,0,36,91.11a68.92,68.92,0,0,0,3.22,20.8,45,45,0,0,0,10.69,18,26.81,26.81,0,0,0,18.6,8.35Z"/><path class="cls-2" d="M446.72,4.69a43.84,43.84,0,0,1,26.66,9.37,73.13,73.13,0,0,1,18.9,21.68A105.6,105.6,0,0,1,503,62.4a118.17,118.17,0,0,1,3.51,28.71,122.87,122.87,0,0,1-6,37.94,85.54,85.54,0,0,1-19.63,33q-13.62,14.36-34.13,15.53H353.85q-20.52-.89-34.28-15.24a81.5,81.5,0,0,1-19.48-33.1,130,130,0,0,1-5.71-38.09,125.81,125.81,0,0,1,5.85-37.94,85.18,85.18,0,0,1,19.49-33.1q13.62-14.5,34.13-15.38h92.87Zm-10,133.59a26.81,26.81,0,0,0,18.6-8.35,45.15,45.15,0,0,0,10.69-18,68.93,68.93,0,0,0,3.23-20.8,65.06,65.06,0,0,0-3.37-20.65,49.17,49.17,0,0,0-10.7-18A26,26,0,0,0,436.76,44H362.93a26.05,26.05,0,0,0-18.46,8.49,49,49,0,0,0-10.69,18,64.79,64.79,0,0,0-3.37,20.65,68.92,68.92,0,0,0,3.22,20.8,45.17,45.17,0,0,0,10.7,18,26.79,26.79,0,0,0,18.6,8.35Z"/><path class="cls-2" d="M618.93,78.22a18.64,18.64,0,0,1-4-14.35,19.82,19.82,0,0,1,7.47-13.19L680.16,5.86A21.18,21.18,0,0,1,694.8,0a19.74,19.74,0,0,1,13.48,5.71A19,19,0,0,1,714.14,19V162.6q-1.75,17.58-19.34,19a20.49,20.49,0,0,1-14.2-5.42,17.54,17.54,0,0,1-6-13.62V60.06L646.46,81.74a18.23,18.23,0,0,1-14.35,3.81A18.47,18.47,0,0,1,618.93,78.22Z"/></g></g></g></svg>