<svg xmlns="http://www.w3.org/2000/svg" viewBox="0 0 794.71 172.85"><defs><style>.cls-1{opacity:0.2;}.cls-2{fill:#fff;}</style></defs><title>2</title><g id="レイヤー_2" data-name="レイヤー 2"><g id="opening-2"><g class="cls-1"><path class="cls-2" d="M152.34,0A43.83,43.83,0,0,1,179,9.38a73,73,0,0,1,18.9,21.67,105.38,105.38,0,0,1,10.69,26.66,117.7,117.7,0,0,1,3.52,28.72,122.63,122.63,0,0,1-6,37.94,85.25,85.25,0,0,1-19.63,32.95q-13.62,14.37-34.13,15.53H59.47Q39,172,25.2,157.62A81.51,81.51,0,0,1,5.71,124.51,129.9,129.9,0,0,1,0,86.43,125.46,125.46,0,0,1,5.86,48.49,85.2,85.2,0,0,1,25.34,15.38Q39,.87,59.47,0h92.87Zm-10,133.59A26.79,26.79,0,0,0,161,125.24a45.11,45.11,0,0,0,10.69-18,69,69,0,0,0,3.22-20.8,64.8,64.8,0,0,0-3.37-20.66,49.09,49.09,0,0,0-10.69-18,26.07,26.07,0,0,0-18.46-8.49H68.55A26,26,0,0,0,50.1,47.75a49.12,49.12,0,0,0-10.7,18A65.07,65.07,0,0,0,36,86.43a69,69,0,0,0,3.22,20.8,45,45,0,0,0,10.69,18,26.77,26.77,0,0,0,18.6,8.35Z"/><path class="cls-2" d="M446.72,0a43.85,43.85,0,0,1,26.66,9.38,73,73,0,0,1,18.9,21.67A105.75,105.75,0,0,1,503,57.71a118.19,118.19,0,0,1,3.51,28.72,122.92,122.92,0,0,1-6,37.94,85.5,85.5,0,0,1-19.63,32.95q-13.62,14.37-34.13,15.53H353.85q-20.52-.87-34.28-15.23a81.6,81.6,0,0,1-19.48-33.11,129.9,129.9,0,0,1-5.71-38.08,125.76,125.76,0,0,1,5.85-37.94,85.22,85.22,0,0,1,19.49-33.11Q333.34.87,353.85,0h92.87Zm-10,133.59a26.77,26.77,0,0,0,18.6-8.35,45.11,45.11,0,0,0,10.69-18,69,69,0,0,0,3.23-20.8,65.08,65.08,0,0,0-3.37-20.66,49.12,49.12,0,0,0-10.7-18,26,26,0,0,0-18.45-8.49H362.93a26.07,26.07,0,0,0-18.46,8.49,49.09,49.09,0,0,0-10.69,18,64.8,64.8,0,0,0-3.37,20.66,69,69,0,0,0,3.22,20.8,45.13,45.13,0,0,0,10.7,18,26.77,26.77,0,0,0,18.6,8.35Z"/><path class="cls-2" d="M598.12,19.63a19,19,0,0,1,5.72-13.92A18.92,18.92,0,0,1,617.75,0H730.84a22.09,22.09,0,0,1,3.52.29h1.75q20.5.6,33.69,9.38t19.05,20.07a48.87,48.87,0,0,1,5.86,22.7,50.36,50.36,0,0,1-5.72,23q-5.7,11.28-19,20.07t-33.84,9.37h-83.2a18.77,18.77,0,0,0-9.23,2.64,16.31,16.31,0,0,0-7.18,11.72v6.15a8.29,8.29,0,0,0,1.91,5.86q1.9,2.06,7.47,1.76H773.61a20,20,0,0,1,19.63,19.63,19.51,19.51,0,0,1-19.63,19.63H630.06q-16.41,0-25-8.06t-8.94-23v-22a52.77,52.77,0,0,1,5.72-23.59q5.72-11.57,19-20.5t33.84-9.53h83.2a19.65,19.65,0,0,0,9.23-2.49,15.8,15.8,0,0,0,5.42-5,10.14,10.14,0,0,0,0-11.42,15.9,15.9,0,0,0-5.42-5,19.76,19.76,0,0,0-9.23-2.49H617.75A18.22,18.22,0,0,1,604,33.4,18.25,18.25,0,0,1,598.12,19.63Z"/></g></g></g></svg>