<svg xmlns="http://www.w3.org/2000/svg" viewBox="0 0 792.95 172.85"><defs><style>.cls-1{opacity:0.2;}.cls-2{fill:#fff;}</style></defs><title>3</title><g id="レイヤー_2" data-name="レイヤー 2"><g id="opening-3"><g class="cls-1"><path class="cls-2" d="M152.34,0A43.83,43.83,0,0,1,179,9.38a73,73,0,0,1,18.9,21.67,105.38,105.38,0,0,1,10.69,26.66,117.7,117.7,0,0,1,3.52,28.72,122.93,122.93,0,0,1-6,37.94,85.25,85.25,0,0,1-19.63,32.95q-13.62,14.37-34.13,15.53H59.47Q39,172,25.2,157.62A81.51,81.51,0,0,1,5.71,124.51,129.9,129.9,0,0,1,0,86.43,125.46,125.46,0,0,1,5.86,48.49,85.2,85.2,0,0,1,25.34,15.38Q39,.87,59.47,0h92.87Zm-10,133.59A26.79,26.79,0,0,0,161,125.24a45.11,45.11,0,0,0,10.69-18,69,69,0,0,0,3.22-20.8,64.8,64.8,0,0,0-3.37-20.66,49.09,49.09,0,0,0-10.69-18,26.07,26.07,0,0,0-18.46-8.49H68.55A26,26,0,0,0,50.1,47.75a49.12,49.12,0,0,0-10.7,18A65.07,65.07,0,0,0,36,86.43a69,69,0,0,0,3.22,20.8,45,45,0,0,0,10.69,18,26.77,26.77,0,0,0,18.6,8.35Z"/><path class="cls-2" d="M446.72,0a43.85,43.85,0,0,1,26.66,9.38,73,73,0,0,1,18.9,21.67A105.75,105.75,0,0,1,503,57.71a118.19,118.19,0,0,1,3.51,28.72,122.92,122.92,0,0,1-6,37.94,85.5,85.5,0,0,1-19.63,32.95q-13.62,14.37-34.13,15.53H353.85q-20.52-.87-34.28-15.23a81.6,81.6,0,0,1-19.48-33.11,129.9,129.9,0,0,1-5.71-38.08,125.76,125.76,0,0,1,5.85-37.94,85.22,85.22,0,0,1,19.49-33.11Q333.34.87,353.85,0h92.87Zm-10,133.59a26.77,26.77,0,0,0,18.6-8.35,45.11,45.11,0,0,0,10.69-18,69,69,0,0,0,3.23-20.8,65.08,65.08,0,0,0-3.37-20.66,49.25,49.25,0,0,0-10.7-18,26,26,0,0,0-18.45-8.49H362.93a26.05,26.05,0,0,0-18.46,8.49,49.09,49.09,0,0,0-10.69,18,64.8,64.8,0,0,0-3.37,20.66,69,69,0,0,0,3.22,20.8,45.13,45.13,0,0,0,10.7,18,26.75,26.75,0,0,0,18.6,8.35Z"/><path class="cls-2" d="M598.12,152.64A20,20,0,0,1,617.75,133H736.11a18.57,18.57,0,0,0,9.23-2.64,16.51,16.51,0,0,0,5.42-5.27,11.64,11.64,0,0,0,0-12.31,16.51,16.51,0,0,0-5.42-5.27,18.77,18.77,0,0,0-9.23-2.64H618.34A18.22,18.22,0,0,1,604.57,99a18.2,18.2,0,0,1-5.86-13.77,19.51,19.51,0,0,1,19.63-19.63h116.6a19.65,19.65,0,0,0,9.23-2.49A15.27,15.27,0,0,0,749.59,58a11.78,11.78,0,0,0,1.76-6.15A11.33,11.33,0,0,0,749.59,46a15.29,15.29,0,0,0-5.42-5.13,19.76,19.76,0,0,0-9.23-2.49H617.17a18.22,18.22,0,0,1-13.77-5.86A17.32,17.32,0,0,1,597.54,19a18.1,18.1,0,0,1,5.71-13.47A19.21,19.21,0,0,1,617.17,0h116Q753.69.3,767,8.94t19,20.06a50.73,50.73,0,0,1,5.72,22.86,48,48,0,0,1-5.86,22.55,41.08,41.08,0,0,1-6.74,9.67,54.77,54.77,0,0,1,8.2,11.13A54.89,54.89,0,0,1,793,119a50.62,50.62,0,0,1-5.86,23q-5.87,11.58-19,20.51T734.36,172H732.6a20.91,20.91,0,0,1-3.52.3H617.75a19.53,19.53,0,0,1-19.63-19.63Z"/></g></g></g></svg>