<svg xmlns="http://www.w3.org/2000/svg" viewBox="0 0 104.08 23.85"><defs><style>.cls-1{fill:#fff;}</style></defs><title>menu</title><g id="レイヤー_2" data-name="レイヤー 2"><g id="chapter"><path class="cls-1" d="M1.92,22.23C1.53,21-2,10.14,1.68,4.44A7.62,7.62,0,0,1,7.59,1a7.26,7.26,0,0,1,5.58,1.68A7.21,7.21,0,0,1,19,.81a7.47,7.47,0,0,1,5.85,3.45c3.72,5.7.21,16.53-.24,17.76a2,2,0,0,1-2.49,1.23L20,22.62a2,2,0,0,1-1.23-2.52c1.26-3.69,2.37-9.87.9-12.24a1.7,1.7,0,0,0-1.53-.81c-1.59,0-1.86,1.59-1.86,3.27a3,3,0,0,1-3,3,3.18,3.18,0,0,1-3.09-3.18c.12-1.86-.39-3.06-1.71-3.06a2.18,2.18,0,0,0-1.74,1c-1.89,2.31-.39,8.52.9,12.21a2,2,0,0,1-1.2,2.55l-2.07.63A2.1,2.1,0,0,1,1.92,22.23Zm4.26-.15a1.22,1.22,0,0,0,.75-1.53c-1.29-3.72-2.88-10-.78-12.9A2.81,2.81,0,0,1,8.52,6.27c1.86,0,2.7,1.68,2.52,3.84a2.35,2.35,0,0,0,2.28,2.37,2.22,2.22,0,0,0,2.19-2.16c0-2.4.57-4.05,2.64-4.05a2.35,2.35,0,0,1,2.16,1.14c1.8,2.73.45,9.27-.78,13a1.16,1.16,0,0,0,.75,1.5l2.07.63a1.1,1.1,0,0,0,1.5-.75c.42-1.2,3.84-11.67.36-17.07A6.74,6.74,0,0,0,18.9,1.59a6.39,6.39,0,0,0-5.13,1.62c-.51.39-.63.54-1,.18A6.38,6.38,0,0,0,8.37,1.74,7.1,7.1,0,0,0,2.31,4.89c-3.48,5.37,0,15.87.36,17.07a1.27,1.27,0,0,0,1.5.75Z"/><path class="cls-1" d="M32.73,21,31.92,3.06a2.93,2.93,0,0,1,3-3.06h13.2a2,2,0,0,1,2,2V4a2,2,0,0,1-2,2H38l.12,3h8.52a2,2,0,0,1,2,2v2a2,2,0,0,1-2,2H38.4l.12,2.85,9.36-.6A2,2,0,0,1,50,19l.18,2a2,2,0,0,1-1.86,2.1l-12.6.78A3,3,0,0,1,32.73,21Zm15.51,1.29A1.23,1.23,0,0,0,49.35,21l-.15-2A1.2,1.2,0,0,0,48,17.91l-9.81.66a.39.39,0,0,1-.39-.42l-.18-3.63c0-.42.24-.45.39-.45h8.64a1.16,1.16,0,0,0,1.2-1.17v-2a1.2,1.2,0,0,0-1.2-1.2H37.77a.4.4,0,0,1-.42-.36L37.2,5.52c-.06-.21.15-.39.39-.39h10.5A1.2,1.2,0,0,0,49.29,4V2a1.18,1.18,0,0,0-1.2-1.2H34.89A2.15,2.15,0,0,0,32.73,3L33.51,21a2.18,2.18,0,0,0,2.31,2.1Z"/><path class="cls-1" d="M56.88,21.42,55.56,4.65a3,3,0,0,1,5.19-2.22L70.32,13.2l.81-9.81a2,2,0,0,1,2.1-1.83l2,.18A1.92,1.92,0,0,1,77,3.84L75.75,20.61a3,3,0,0,1-5.19,1.74L62.19,13l.63,8A2,2,0,0,1,61,23.07l-2,.15A2,2,0,0,1,56.88,21.42Zm4,.87A1.19,1.19,0,0,0,62,21l-.72-9.15a.41.41,0,0,1,.69-.3l9.18,10.29a2.21,2.21,0,0,0,2.31.6A2.25,2.25,0,0,0,75,20.55L76.23,3.78a1.14,1.14,0,0,0-1.08-1.26l-2-.15c-.66-.15-1.23.54-1.29,1L71.1,14.19c-.12.36-.48.48-.72.24L60.15,2.94a2.26,2.26,0,0,0-2.49-.54,2.18,2.18,0,0,0-1.32,2.19l1.32,16.74A1.26,1.26,0,0,0,59,22.44Z"/><path class="cls-1" d="M85,19.8C80.73,14.28,83,5.28,83.31,4.26a2,2,0,0,1,2.4-1.41l1.92.57A1.91,1.91,0,0,1,89,5.82c-.51,1.95-1.44,7.65.66,10.44.87,1.11,2.31,1.65,4.38,1.65s2.67-.66,3-1.2c2-2.67.72-9.06.09-11.07a2,2,0,0,1,1.35-2.46l1.86-.6a2,2,0,0,1,2.49,1.35c.33,1.08,3.09,10.77-1,16.32a9.26,9.26,0,0,1-7.83,3.6Q88,23.85,85,19.8Zm16.29,0c3.84-5.22,1.17-14.58.87-15.6a1.19,1.19,0,0,0-1.5-.78l-1.92.54a1.28,1.28,0,0,0-.78,1.47c0,.12,2.46,8.22-.21,11.76-.45.66-1.38,1.53-3.66,1.53s-4-.63-5-2c-2.28-3-1.35-9-.78-11.07a1.22,1.22,0,0,0-.84-1.47l-1.89-.51a1.23,1.23,0,0,0-1.47.84c-.27.93-2.49,9.57,1.53,14.85,1.89,2.49,4.74,3.72,8.46,3.72A8.67,8.67,0,0,0,101.25,19.77Z"/></g></g></svg>