<svg xmlns="http://www.w3.org/2000/svg" viewBox="0 0 354.5 20.09"><defs><style>.cls-1{fill:#fff;}</style></defs><title>name</title><g id="レイヤー_2" data-name="レイヤー 2"><g id="chapter"><path class="cls-1" d="M6.93,17.67V13.8a8.29,8.29,0,0,1-5.25-3.08C-1,7.1.3,2.32.48,1.8A1.73,1.73,0,0,1,2.63.65l1.62.47A1.72,1.72,0,0,1,5.43,3.25c-.2.7-.6,3.12.37,4.35.68.85,2,1.3,3.78,1.27,2,0,3.35-.42,3.87-1.2.72-1.07.23-3,0-3.62a1.74,1.74,0,0,1,1-2.2L16,1.22a1.73,1.73,0,0,1,2.25,1c.2.45,1.75,4.85-.55,8.33a7.88,7.88,0,0,1-5.64,3.27v3.85a1.69,1.69,0,0,1-1.7,1.7H8.65A1.69,1.69,0,0,1,6.93,17.67Zm3.45,1a1.09,1.09,0,0,0,1-1V13.52a.31.31,0,0,1,.25-.32,7.8,7.8,0,0,0,5.45-3c2.19-3.17.69-7.27.49-7.72a1,1,0,0,0-1.29-.55l-1.63.57c-.5.18-.57.8-.57,1.35,0,0,1,2.68-.1,4.23-.73,1-2.35,1.52-4.45,1.52S6.05,9,5.28,8c-1.35-1.8-.5-4.88-.5-4.9,0-.6-.2-1.15-.68-1.3L2.43,1.27A1,1,0,0,0,1.13,2c-.1.47-1.45,5,1.1,8.27a8.17,8.17,0,0,0,5.1,2.85.43.43,0,0,1,.32.38v4.17a1,1,0,0,0,1,1Z"/><path class="cls-1" d="M37.63,11.87A7.33,7.33,0,1,1,30.3,4.45,7.39,7.39,0,0,1,37.63,11.87Zm-.66,0a6.67,6.67,0,1,0-6.67,6.77A6.72,6.72,0,0,0,37,11.87Zm-6.39,3.78c-.08,0-.2.07-.3,0a9.48,9.48,0,0,1-2.73-2.35c-1.27-1.8-.67-3.8,1.38-3.8a1.93,1.93,0,0,1,1.5.7,1.64,1.64,0,0,1,1.5-.7c2.15.2,2.47,2.12,1.35,3.8A8.22,8.22,0,0,1,30.58,15.65Zm1.35-5.48a1.3,1.3,0,0,0-1.2.78c-.08.25-.63.32-.63,0a1.15,1.15,0,0,0-1.17-.78c-1.58.13-1.63,1.55-.83,2.73a7.51,7.51,0,0,0,2.33,2,7.73,7.73,0,0,0,2.32-2C33.58,11.7,33.43,10.17,31.93,10.17Z"/><path class="cls-1" d="M42.6,17.54A2.5,2.5,0,0,1,43,14.9l4.13-4.68h-3.6a1.69,1.69,0,0,1-1.65-1.65V6.92a1.66,1.66,0,0,1,1.65-1.65h9a2.46,2.46,0,0,1,2.25,1.45,2.49,2.49,0,0,1-.4,2.63l-4.1,4.7H51.9a1.66,1.66,0,0,1,1.65,1.65v1.65A1.65,1.65,0,0,1,51.9,19h-7A2.51,2.51,0,0,1,42.6,17.54Zm9.3.78a1,1,0,0,0,1-1V15.7a1,1,0,0,0-1-1H49.6a.33.33,0,0,1-.25-.53l4.58-5.25A1.85,1.85,0,0,0,54.23,7a1.81,1.81,0,0,0-1.65-1h-9a1,1,0,0,0-1,1V8.57a1,1,0,0,0,1,1h4.32a.3.3,0,0,1,.23.52L43.5,15.32a1.8,1.8,0,0,0,1.35,3Z"/><path class="cls-1" d="M73.92,11.87A7.32,7.32,0,1,1,66.6,4.45,7.38,7.38,0,0,1,73.92,11.87Zm-.65,0a6.67,6.67,0,1,0-6.67,6.77A6.72,6.72,0,0,0,73.27,11.87Zm-6.39,3.78c-.08,0-.2.07-.3,0a9.48,9.48,0,0,1-2.73-2.35c-1.27-1.8-.67-3.8,1.38-3.8a1.93,1.93,0,0,1,1.5.7,1.64,1.64,0,0,1,1.5-.7c2.15.2,2.47,2.12,1.35,3.8A8.22,8.22,0,0,1,66.88,15.65Zm1.35-5.48A1.3,1.3,0,0,0,67,11c-.08.25-.63.32-.63,0a1.15,1.15,0,0,0-1.17-.78c-1.58.13-1.63,1.55-.83,2.73a7.51,7.51,0,0,0,2.33,2,7.73,7.73,0,0,0,2.32-2C69.88,11.7,69.73,10.17,68.23,10.17Z"/><path class="cls-1" d="M80,17.12C79.83,16.35,79.73,16,78.2,8a1.67,1.67,0,0,1,1.3-1.95l1.6-.33a1.68,1.68,0,0,1,2,1.3l.23,1.28a7.51,7.51,0,0,1,6.77-1.08,1.6,1.6,0,0,1,1,2.08l-.52,1.57a1.65,1.65,0,0,1-2.08,1,2.34,2.34,0,0,0-2.27.45,4.43,4.43,0,0,0-1.32,3.85,2.5,2.5,0,0,1-2.45,2.92A2.42,2.42,0,0,1,80,17.12Zm4.22-.82a5.32,5.32,0,0,1,1.5-4.4,2.82,2.82,0,0,1,3-.63,1,1,0,0,0,1.25-.62l.53-1.55a1,1,0,0,0-.6-1.25,6.83,6.83,0,0,0-6.52,1.3A.35.35,0,0,1,82.75,9L82.4,7.15a1,1,0,0,0-1.15-.75l-1.62.27a1.08,1.08,0,0,0-.8,1.2c0,.18,1.82,9.05,1.82,9.1a1.81,1.81,0,1,0,3.55-.67Z"/><path class="cls-1" d="M109.05,16.85l-.88,1.24c-.77,1.16-1.82.83-2.72-.07a6.85,6.85,0,0,1-4.17,1.48,6.09,6.09,0,0,1-6-7.1A6.29,6.29,0,0,1,97,9.1,9.46,9.46,0,0,1,95.8,8a1.56,1.56,0,0,1,0-2.17,6.54,6.54,0,0,1,7.43-1.35c4.24,1.87,2.79,5.47,3.82,8.12a5.7,5.7,0,0,0,1.55,2.18A1.53,1.53,0,0,1,109.05,16.85Zm-.83-1.63.08-.05a4.72,4.72,0,0,1-1.83-2.42c-1-2.85.35-6.13-3.49-7.78a6.11,6.11,0,0,0-6.75,1.25,1,1,0,0,0,0,1.33,8,8,0,0,0,1.25,1.07,5,5,0,0,1,2-.8A7.41,7.41,0,0,1,102.2,8a.35.35,0,0,1-.17.68,6.57,6.57,0,0,0-2.48-.1,4.46,4.46,0,0,0-3.7,3.95,5.51,5.51,0,0,0,5.43,6.37,6.38,6.38,0,0,0,3.94-1.45.35.35,0,0,1,.43,0c.9.78,1.37,1.2,2,.33l.87-1.28A.84.84,0,0,0,108.22,15.22Zm-4.79-1a.35.35,0,0,1-.05.27,2.32,2.32,0,0,1-2.1,1.08,2.18,2.18,0,0,1-2.13-2.45,2.6,2.6,0,0,1,2.78-2c.45,0,.82,0,.85.3A17.41,17.41,0,0,0,103.43,14.2Zm-.65.07a21.33,21.33,0,0,1-.58-2.57c-1.37,0-2.32.47-2.45,1.47C99.53,15,101.7,15.5,102.78,14.27Z"/><path class="cls-1" d="M132.13,17.57,131,3.6a2.47,2.47,0,0,1,4.32-1.85l8,9L144,2.55A1.65,1.65,0,0,1,145.75,1l1.65.15a1.6,1.6,0,0,1,1.52,1.75l-1.07,14a2.48,2.48,0,0,1-4.33,1.44l-7-7.82.53,6.65A1.69,1.69,0,0,1,135.55,19l-1.65.12A1.68,1.68,0,0,1,132.13,17.57Zm3.35.72a1,1,0,0,0,.92-1.07l-.6-7.62a.34.34,0,0,1,.58-.25L144,17.92a1.85,1.85,0,0,0,1.93.5,1.88,1.88,0,0,0,1.25-1.57l1.05-14a1,1,0,0,0-.9-1L145.7,1.7c-.55-.13-1,.45-1.08.87l-.65,9c-.1.3-.4.4-.6.2l-8.52-9.58a1.88,1.88,0,0,0-2.07-.45,1.81,1.81,0,0,0-1.1,1.83l1.1,14a1,1,0,0,0,1.1.92Z"/><path class="cls-1" d="M167.82,11.87a7.32,7.32,0,1,1-7.32-7.42A7.38,7.38,0,0,1,167.82,11.87Zm-.65,0a6.67,6.67,0,1,0-6.67,6.77A6.72,6.72,0,0,0,167.17,11.87Zm-6.4,3.78a.35.35,0,0,1-.3,0,9.64,9.64,0,0,1-2.72-2.35c-1.27-1.8-.67-3.8,1.38-3.8a1.93,1.93,0,0,1,1.5.7,1.64,1.64,0,0,1,1.49-.7c2.15.2,2.48,2.12,1.35,3.8A8.12,8.12,0,0,1,160.77,15.65Zm1.35-5.48a1.3,1.3,0,0,0-1.2.78c-.07.25-.62.32-.62,0a1.15,1.15,0,0,0-1.17-.78c-1.58.13-1.63,1.55-.83,2.73a7.51,7.51,0,0,0,2.33,2,8,8,0,0,0,2.32-2C163.77,11.7,163.62,10.17,162.12,10.17Z"/><path class="cls-1" d="M189.33,10.07a9.91,9.91,0,1,1,19.82,0,9.91,9.91,0,1,1-19.82,0Zm19.17,0a9.26,9.26,0,1,0-9.25,9.37A9.35,9.35,0,0,0,208.5,10.07Zm-13,1.6a3.6,3.6,0,0,1-.55-3.5,2.29,2.29,0,0,1,2.28-1.4,2.41,2.41,0,0,1,2,1,2.33,2.33,0,0,1,2-1,2.4,2.4,0,0,1,2.33,1.4,3.75,3.75,0,0,1-.58,3.5,11.34,11.34,0,0,1-3.6,3.1c0,.08-.22.08-.27,0A11.14,11.14,0,0,1,195.52,11.67Zm6.9-.35a3.11,3.11,0,0,0,.5-2.87,1.74,1.74,0,0,0-1.7-1,1.88,1.88,0,0,0-1.67,1.15c-.05.3-.45.35-.63,0a1.8,1.8,0,0,0-1.67-1.15,1.74,1.74,0,0,0-1.7,1,3.11,3.11,0,0,0,.5,2.87,10.4,10.4,0,0,0,3.2,2.78A10.74,10.74,0,0,0,202.42,11.32Z"/><path class="cls-1" d="M214.4,18l-1-14.75A1.64,1.64,0,0,1,215,1.5l1.75-.1a1.64,1.64,0,0,1,1.65,1.52l.32,5,3.45-2.52a1.66,1.66,0,0,1,2.3.32l1,1.35a1.71,1.71,0,0,1-.32,2.3l-4,2.93L225,15a1.65,1.65,0,0,1,.4,2.33l-.92,1.35a1.7,1.7,0,0,1-2.3.39l-2.88-2,.08.6a1.72,1.72,0,0,1-1.55,1.75l-1.65.12A1.62,1.62,0,0,1,214.4,18Zm3.35.75a1,1,0,0,0,.92-1.05l-.09-1.28c0-.25.34-.47.55-.27l3.37,2.39a1,1,0,0,0,1.4-.25l.95-1.32a1,1,0,0,0-.23-1.37l-4.3-3a.34.34,0,0,1,0-.53l4.33-3.2a1,1,0,0,0,.2-1.37l-1-1.33a1,1,0,0,0-1.4-.2L218.58,8.8a.34.34,0,0,1-.53-.25L217.7,3a1,1,0,0,0-1-.92l-1.7.1a1,1,0,0,0-.92,1.07l1,14.75a1,1,0,0,0,1,.92Z"/><path class="cls-1" d="M239.45,17.79a5.84,5.84,0,0,1-8-1.12c-2.27-3.15-1.27-8.6-1.17-9.2a1.67,1.67,0,0,1,1.6-1.32,15.32,15.32,0,0,1,1.94.37,1.64,1.64,0,0,1,1.3,2c-.37,1.8-.32,4.38.3,5.2.28.4,1,.33,1.45-.05.88-.8,1.45-3.07,1.53-4.4a2.41,2.41,0,0,1,2.47-2.35,2.48,2.48,0,0,1,2.43,2.48,34.86,34.86,0,0,0,.27,4.8c.3,1.17.5,1.8.53,1.85a1.66,1.66,0,0,1-1.1,2l-1.55.53A1.69,1.69,0,0,1,239.45,17.79Zm3.3-.37a.93.93,0,0,0,.62-1.22c0-.05-.17-.68-.47-1.9a36.33,36.33,0,0,1-.3-5,1.8,1.8,0,0,0-3.6-.1c-.08,1.42-.65,3.9-1.75,4.87a1.79,1.79,0,0,1-2.4,0c-.88-1.17-.78-4.12-.4-5.77a1,1,0,0,0-.8-1.18l-1.82-.35c-.45-.1-.85.33-1,.78s-1.13,5.77,1,8.7a5.38,5.38,0,0,0,7.48.74c.25-.17.45-.07.55.23a1,1,0,0,0,1.25.68Z"/><path class="cls-1" d="M250.43,17.12c-.15-.77-.25-1.17-1.78-9.12A1.67,1.67,0,0,1,250,6.05l1.6-.33A1.69,1.69,0,0,1,253.5,7l.22,1.28a7.54,7.54,0,0,1,6.78-1.08,1.6,1.6,0,0,1,1,2.08L261,10.87a1.65,1.65,0,0,1-2.08,1,2.33,2.33,0,0,0-2.27.45,4.45,4.45,0,0,0-1.33,3.85,2.49,2.49,0,0,1-2.44,2.92A2.41,2.41,0,0,1,250.43,17.12Zm4.22-.82a5.29,5.29,0,0,1,1.5-4.4,2.82,2.82,0,0,1,3-.63,1,1,0,0,0,1.25-.62l.53-1.55a1,1,0,0,0-.6-1.25,6.86,6.86,0,0,0-6.53,1.3c-.14.15-.42.15-.57-.15l-.35-1.85a1,1,0,0,0-1.15-.75l-1.62.27a1.08,1.08,0,0,0-.8,1.2c0,.18,1.82,9.05,1.82,9.1a1.81,1.81,0,1,0,3.55-.67Z"/><path class="cls-1" d="M266,5.8c-1.62-2.25-.67-4.7,1.65-4.7a2.35,2.35,0,0,1,1.92,1,2.39,2.39,0,0,1,1.93-1c2.35,0,3.07,2.6,1.65,4.7a11.74,11.74,0,0,1-3.4,3,.3.3,0,0,1-.35,0A11.81,11.81,0,0,1,266,5.8Zm6.57-.38c1.13-1.57.68-3.52-1.07-3.65a1.7,1.7,0,0,0-1.63,1.08c-.05.25-.52.27-.62,0a1.7,1.7,0,0,0-1.6-1.08c-1.85,0-2.22,2-1.1,3.65a10.19,10.19,0,0,0,3,2.68A9.71,9.71,0,0,0,272.52,5.42ZM267.05,17.5V11.35A1.63,1.63,0,0,1,268.7,9.7h1.65A1.65,1.65,0,0,1,272,11.35V17.5a1.66,1.66,0,0,1-1.65,1.64H268.7A1.65,1.65,0,0,1,267.05,17.5Zm3.3,1a1,1,0,0,0,1-1V11.35a1,1,0,0,0-1-1H268.7a1,1,0,0,0-1,1V17.5a1,1,0,0,0,1,1Z"/><path class="cls-1" d="M278.8,17.9c-.25-.68-2.13-6.53.1-10.1a6.1,6.1,0,0,1,8.62-1.58,6.14,6.14,0,0,1,8.63,1.58c2.19,3.57.32,9.42.12,10.1a1.65,1.65,0,0,1-2.1,1l-1.55-.53a1.68,1.68,0,0,1-1.07-2.07c.6-1.8.95-4.77.4-5.92a1,1,0,0,0-1.48-.2c-.45.6-.42,1.17-.47,2.42a2.42,2.42,0,0,1-2.48,2.63,2.45,2.45,0,0,1-2.5-2.63c0-.77.08-2-.45-2.45a1.13,1.13,0,0,0-1.5.23c-.65,1.1-.2,4.12.4,5.92a1.65,1.65,0,0,1-1.05,2.07l-1.55.53A1.63,1.63,0,0,1,278.8,17.9Zm3.42-.13a1,1,0,0,0,.63-1.27c-.5-1.45-1.23-5-.33-6.45a1.74,1.74,0,0,1,2.5-.33c.63.63.65,1.88.65,2.9a1.85,1.85,0,0,0,1.85,2,1.78,1.78,0,0,0,1.83-2c0-1,0-2.37.65-2.9a1.76,1.76,0,0,1,2.52.33c.88,1.47.15,5-.32,6.45a1,1,0,0,0,.62,1.27l1.58.52a1,1,0,0,0,1.25-.62c.2-.63,2-6.25-.08-9.55a5.46,5.46,0,0,0-7.85-1.22.33.33,0,0,1-.42,0,5.47,5.47,0,0,0-7.85,1.22c-2.05,3.3-.23,8.92,0,9.55a1,1,0,0,0,1.25.62Z"/><path class="cls-1" d="M316.1,11.87a7.33,7.33,0,1,1-7.33-7.42A7.39,7.39,0,0,1,316.1,11.87Zm-.65,0a6.68,6.68,0,1,0-6.68,6.77A6.73,6.73,0,0,0,315.45,11.87Zm-6.4,3.78c-.08,0-.2.07-.3,0A9.48,9.48,0,0,1,306,13.3c-1.27-1.8-.67-3.8,1.38-3.8a1.93,1.93,0,0,1,1.5.7,1.64,1.64,0,0,1,1.5-.7c2.15.2,2.47,2.12,1.35,3.8A8.22,8.22,0,0,1,309.05,15.65Zm1.35-5.48a1.3,1.3,0,0,0-1.2.78c-.08.25-.63.32-.63,0a1.15,1.15,0,0,0-1.17-.78c-1.58.13-1.63,1.55-.83,2.73a7.51,7.51,0,0,0,2.33,2,7.73,7.73,0,0,0,2.32-2C312.05,11.7,311.9,10.17,310.4,10.17Z"/><path class="cls-1" d="M322.5,16.75l-2.1-8.68a1.61,1.61,0,0,1,1.22-2l1.6-.4a1.53,1.53,0,0,1,2,1.32c2.9-2.37,8-1.67,9.67,1.68s-.37,8.3-.6,8.82a1.68,1.68,0,0,1-2.17.85l-1.53-.7a1.62,1.62,0,0,1-.82-2.17c.65-1.48,1.05-3.78.7-4.58-.25-.55-1.58-.6-2.13-.07-.92.85-1.17,3.47-1,5.07a2.46,2.46,0,0,1-4.85.83Zm4.2-.75c-.18-1.73.05-4.65,1.22-5.65,1-.85,2.75-.53,3.15.27.58,1.15-.05,3.75-.67,5.15a1,1,0,0,0,.5,1.33l1.5.65a1,1,0,0,0,1.32-.5c.23-.53,2-5.1.6-8.25s-6.77-3.68-9.05-1.13a.33.33,0,0,1-.55-.15l-.15-.67c-.22-.75-.6-.88-1.17-.73l-1.63.4a1,1,0,0,0-.72,1.2l2.07,8.7a1.86,1.86,0,0,0,1.8,1.4A1.83,1.83,0,0,0,326.7,16Z"/><path class="cls-1" d="M354.5,11.87a7.33,7.33,0,1,1-7.33-7.42A7.39,7.39,0,0,1,354.5,11.87Zm-.65,0a6.68,6.68,0,1,0-6.68,6.77A6.73,6.73,0,0,0,353.85,11.87Zm-6.4,3.78c-.08,0-.2.07-.3,0a9.48,9.48,0,0,1-2.73-2.35c-1.27-1.8-.67-3.8,1.38-3.8a1.93,1.93,0,0,1,1.5.7,1.64,1.64,0,0,1,1.5-.7c2.15.2,2.47,2.12,1.35,3.8A8.22,8.22,0,0,1,347.45,15.65Zm1.35-5.48a1.3,1.3,0,0,0-1.2.78c-.08.25-.63.32-.63,0a1.15,1.15,0,0,0-1.17-.78c-1.58.13-1.63,1.55-.83,2.73a7.51,7.51,0,0,0,2.33,2,7.73,7.73,0,0,0,2.32-2C350.45,11.7,350.3,10.17,348.8,10.17Z"/></g></g></svg>