<svg xmlns="http://www.w3.org/2000/svg" viewBox="0 0 285 285"><defs><style>.cls-1{fill:#faf6d9;}.cls-2{fill:#583726;}</style></defs><title>next</title><g id="レイヤー_2" data-name="レイヤー 2"><g id="レイヤー_1-2" data-name="レイヤー 1"><circle class="cls-1" cx="142.5" cy="142.5" r="142.5"/><path class="cls-2" d="M143.5,11h-3.27c-1.58,0-3.16.11-4.73.2a1.5,1.5,0,0,0,.09,3h.09c2.59-.15,5.22-.23,7.82-.23a1.53,1.53,0,0,0,1.15-.53,1.49,1.49,0,0,0,1.13.55c2.6.05,5.23.17,7.81.37h.12a1.5,1.5,0,0,0,.12-3c-2.64-.21-5.31-.33-8-.38h0a1.53,1.53,0,0,0-1.15.53A1.5,1.5,0,0,0,143.5,11ZM127.72,12h-.18q-4,.48-7.91,1.2a1.5,1.5,0,0,0-1.21,1.75,1.52,1.52,0,0,0,1.48,1.23l.27,0c2.55-.47,5.15-.86,7.73-1.17a1.5,1.5,0,0,0-.18-3ZM112.17,14.8a1.47,1.47,0,0,0-.36,0l-.85.22h-.06l-.12,0h0l-.06,0h-.13l-.06,0h-.7l-.12,0h-.12l-.13,0h-.11l-.18,0h-.11l-.14,0h0l0,0h-.05l-.19.05h-.06l-.19.05h0l0,0h0l-.24.06h0l-.24.07h0l-.29.08h0c-1.16.33-2.31.68-3.45,1a1.5,1.5,0,0,0,.46,2.93,1.35,1.35,0,0,0,.44-.07c2.48-.77,5-1.48,7.53-2.1a1.5,1.5,0,0,0-.36-3ZM97.09,19.53a1.47,1.47,0,0,0-.54.1h0l0,0h-.21l-.06,0h-.12l-.12,0h-.11L95.7,20h0c-2.2.86-4.36,1.78-6.49,2.74a1.5,1.5,0,0,0,.62,2.87,1.37,1.37,0,0,0,.62-.14c2.36-1.07,4.79-2.08,7.21-3a1.5,1.5,0,0,0-.53-2.9Zm-14.4,6.54a1.44,1.44,0,0,0-.69.17c-.73.39-1.46.78-2.18,1.18h0l0,0h0l-.12.07h0l0,0h0l0,0h0l-.11.06h0l0,0h0l0,0h0l-.11.07h0l0,0h0l0,0h0l-.12.07h0l0,0h0l0,0h0l-.08.05h0l0,0h-.07l0,0h0l-.08.05h0l0,0h0l0,0h0l-.11.07h0l0,0h0l0,0h0l-.12.07h0l0,0h0l0,0h0l-.12.07h0l0,0h0l0,0h0l-.17.1h0c-.9.52-1.78,1.05-2.66,1.59A1.5,1.5,0,0,0,75.83,33a1.51,1.51,0,0,0,.78-.22c2.21-1.35,4.5-2.65,6.79-3.87a1.5,1.5,0,0,0-.71-2.82ZM69.2,34.31a1.43,1.43,0,0,0-.85.27l-1.22.86h0l0,0h0l0,0h0l0,0h0l0,0,0,0h0l0,0h0l-.1.08h0l0,0h0c-1,.69-1.88,1.38-2.81,2.09h0l-.16.12h0l0,0h0l0,0h0l-.11.09h0l0,0h0l0,0h0l-.07,0h0l0,0h0l0,0v0l0,0h0l0,0h0l0,0,0,0h0l0,0,0,0-.05,0h0l0,0h0l0,0,0,0,0,0h0l0,0h0l0,0h0l0,0h0l0,0h0l-.05,0h0l0,0h0l0,0h0l-.09.07h0l0,0h0l0,0h0l-.09.08h0l0,0h0l-.14.11h0l0,0h0l0,0a1.51,1.51,0,0,0-.25,2.11,1.53,1.53,0,0,0,1.18.57,1.47,1.47,0,0,0,.93-.33c2-1.61,4.15-3.18,6.27-4.66a1.5,1.5,0,0,0-.86-2.73ZM56.81,44.12a1.5,1.5,0,0,0-1,.38c-.79.7-1.56,1.41-2.33,2.13h0l-.14.13h0l0,0h0l-.09.09h0l0,0h0l0,0h0l0,.05h0l0,0,0,0,0,0,0,0,0,0,0,0,0,0,0,0,0,0,0,0,0,0,0,0v0l0,0h0l0,0,0,0,0,0h0l0,0h0l0,0h0l0,0h0l0,0h0l0,0h0l0,0h0l0,0h0l0,0h0l-.08.08h0l0,0h0l0,0h0L52,48h0l0,0h0l-.13.12h0l0,0h0l-.13.13h0l0,0h0l-.09.09h0l0,0h0l0,0h0l-.08.08h0l0,0h0l-.13.13h0l0,0h0L51,49h0l0,0h0l0,0h0l-.08.09h0l0,0h0l0,0h0l-.05,0h0l0,0h0l0,0h0l0,0h0l0,0h0l0,0h0l0,0h0l0,0h0l0,0h0l0,0v0l0,0,0,0,0,0,0,0,0,0,0,0,0,0,0,0,0,0,0,0h0L50,50h0a1.5,1.5,0,0,0,0,2.12,1.48,1.48,0,0,0,1,.43,1.51,1.51,0,0,0,1.07-.44c1.82-1.85,3.73-3.66,5.66-5.39a1.5,1.5,0,0,0-1-2.62ZM45.69,55.36a1.49,1.49,0,0,0-1.12.51c-.45.51-.9,1-1.34,1.55h0l0,0h0l0,0h0l0,.06h0l0,0v0l0,0,0,0,0,0,0,0v0l0,0v0l0,0h0l0,0h0l-.07.1h0l0,0h0l-.12.14h0c-.64.77-1.27,1.54-1.89,2.32h0l0,0h0l0,0h0l0,0h0l0,0v0l0,0,0,0,0,0v0h0l0,.06h0l0,0h0l0,0h0c-.29.37-.59.74-.88,1.12a1.51,1.51,0,0,0,.27,2.1,1.51,1.51,0,0,0,2.11-.27c1.59-2.05,3.26-4.08,5-6a1.5,1.5,0,0,0-.14-2.12,1.49,1.49,0,0,0-1-.37ZM36,67.86a1.5,1.5,0,0,0-1.23.65q-1.26,1.84-2.46,3.74h0l0,0h0l-.07.11h0l0,0v0l0,0h0l-.06.1v0l0,0v0l0,0,0,0v0l0,0h0l0,0h0l0,0v0l0,0h0l0,.05h0l0,0h0l0,0h0l-.06.1h0l0,0h0l0,0h0l-.07.11h0l0,0h0c-.33.53-.65,1.07-1,1.6h0l0,.06h0l-.06.11h0a1.5,1.5,0,0,0,.52,2,1.44,1.44,0,0,0,.77.21,1.5,1.5,0,0,0,1.29-.73c1.32-2.23,2.74-4.44,4.2-6.59A1.49,1.49,0,0,0,36,67.86ZM27.92,81.44a1.51,1.51,0,0,0-1.34.81c-.68,1.33-1.35,2.67-2,4h0l-.08.16h0l0,0h0l0,0h0l-.05.11h0l0,0v.07l0,0v0l0,0V87l0,0h0l0,.07h0l0,0h0l0,0h0l-.08.17h0l-.9,2h0l0,0h0l0,0a1.5,1.5,0,0,0,.77,2,1.46,1.46,0,0,0,.61.13,1.5,1.5,0,0,0,1.37-.9c1.05-2.37,2.18-4.74,3.37-7a1.5,1.5,0,0,0-.64-2,1.55,1.55,0,0,0-.69-.16ZM21.54,95.9a1.49,1.49,0,0,0-1.41,1h0V97l0,.06v0l0,0h0v0h0l-.06.18h0v.05h0c-.45,1.21-.87,2.43-1.28,3.66h0a2.25,2.25,0,0,1-.08.24h0v0h0l0,.14h0v0h0v0h0l0,0h0l0,.08h0v0h0v.11l0,.06v.45l0,0v.08l0,0h0l0,0h0l0,.11h0v0h0v.05h0l0,.11h0l0,0h0l0,0h0l0,.12h0v.06h0a2.17,2.17,0,0,1-.07.24h0l-.27.9a1.5,1.5,0,0,0,1,1.87,1.59,1.59,0,0,0,.43.06,1.5,1.5,0,0,0,1.44-1.06c.75-2.49,1.58-5,2.48-7.41A1.5,1.5,0,0,0,22.06,96a1.58,1.58,0,0,0-.52-.09ZM17,111a1.49,1.49,0,0,0-1.46,1.16q-.9,3.81-1.58,7.71h0V120h0V120a1.51,1.51,0,0,0,1.23,1.74l.25,0a1.51,1.51,0,0,0,1.48-1.25c.44-2.56,1-5.13,1.56-7.66a1.5,1.5,0,0,0-1.11-1.8,1.45,1.45,0,0,0-.35,0Zm-2.68,15.58a1.49,1.49,0,0,0-1.49,1.33c0,.2-.05.39-.07.59h0v.1h0V129h0v.12h0v.06h0v.06h0q-.33,3.31-.5,6.68a1.5,1.5,0,0,0,1.43,1.57h.07a1.5,1.5,0,0,0,1.5-1.42c.13-2.6.33-5.22.62-7.8a1.49,1.49,0,0,0-1.33-1.65Zm-.78,15.79h0A1.5,1.5,0,0,0,12,143.92q0,3.33.23,6.62h0v0h0v0h0v.05h0v.47h0v0h0c0,.22,0,.44,0,.66a1.5,1.5,0,0,0,1.5,1.38h.1a1.5,1.5,0,0,0,1.39-1.6c-.18-2.59-.29-5.21-.31-7.81a1.5,1.5,0,0,0-1.5-1.49Zm1.12,15.77-.2,0a1.48,1.48,0,0,0-1.29,1.67c.06.52.13,1,.21,1.54h0v0h0v0h0l0,.14h0v.26h0v.17h0l0,.12h0v.06h0v.06h0c.22,1.47.47,2.92.74,4.37h0l0,.18h0V167h0V167h0v.06h0v.22l0,.18h0c0,.09,0,.17.06.27A1.5,1.5,0,0,0,15.89,169a1.36,1.36,0,0,0,.29,0,1.5,1.5,0,0,0,1.19-1.76c-.5-2.54-.92-5.14-1.26-7.71a1.5,1.5,0,0,0-1.48-1.31Zm3,15.52a1.18,1.18,0,0,0-.37.05,1.5,1.5,0,0,0-1.08,1.82l.09.34h0v.37h0l0,.06h0v.06h0v.05h0q.91,3.42,2,6.76a1.51,1.51,0,0,0,1.43,1,1.48,1.48,0,0,0,.46-.08,1.5,1.5,0,0,0,1-1.89c-.81-2.46-1.54-5-2.19-7.5a1.52,1.52,0,0,0-1.46-1.12Zm4.9,15a1.49,1.49,0,0,0-1.4,2c.66,1.67,1.35,3.31,2.07,4.94h0l0,0h0l.06.13h0l0,0v0l0,0V196l0,.06v.05l0,0v.08l0,.05h0l0,0h0l0,0h0c.25.57.51,1.13.77,1.69a1.51,1.51,0,0,0,1.36.87,1.61,1.61,0,0,0,.64-.14,1.5,1.5,0,0,0,.72-2c-1.1-2.35-2.14-4.76-3.09-7.17a1.5,1.5,0,0,0-1.39-.95ZM29.23,203a1.57,1.57,0,0,0-.72.18,1.51,1.51,0,0,0-.6,2l.08.14h0l0,0h0l.07.12h0v0h0l0,0h0l0,0h0l0,.07h0v.05l0,0v0l.06.1v.07l0,0v0l0,0h0l0,.06,0,0v0l0,0v.05l0,0,0,0v0l0,0v0l0,0v0l0,0h0l0,.05v0l0,0v0l0,0v0l0,0h0l0,.05h0l0,0v0l0,0v0l0,0h0l0,.05h0l0,0h0l0,0h0l0,.05h0l0,0v0l0,0v0l0,0h0l0,.05h0l0,0h0l0,0v0l0,0h0l0,0h0l0,.05h0l0,0h0l.06.11h0l0,.05h0l0,0h0l.06.1h0l0,0h0l0,0h0l.07.11h0l0,.05h0l0,0h0l.06.1h0l0,.05h0l.1.16h0l0,.06h0q1,1.69,2,3.36a1.48,1.48,0,0,0,1.27.71,1.51,1.51,0,0,0,1.27-2.3c-1.38-2.2-2.7-4.47-3.94-6.75a1.51,1.51,0,0,0-1.32-.78Zm8.38,13.4a1.5,1.5,0,0,0-1.22,2.37c.45.63.9,1.25,1.36,1.87h0l0,0h0l.07.1h0l0,0h0l0,0h0l.07.1h0l0,0h0l0,0h0l0,.05h0l0,0h0l0,0v0l0,0h0l0,0h0l0,0v0l0,0,0,0,0,0,0,0,0,0,0,0,0,0v0l0,0,0,0,0,0,0,0,0,0,0,0,0,0v0l0,0,0,0v0l0,0v0l0,0h0l0,0v0l.05.06h0l0,0v0l0,0,0,0,0,0v0l0,0,0,0,0,0v0l0,0,0,0,0,0v0l0,0v0l0,0,0,0v0l0,0,0,0h0l0,.06v0l0,0,0,0,0,0h0l0,0v0l0,0v0l0,0,0,0,0,0,0,0,0,0,0,0,0,0,0,0v0l0,0,0,0,0,0,0,0,0,0v0l0,0,0,0,0,0h0l0,0h0l0,0v0l0,0h0l0,0h0l0,0h0l0,0h0l0,0h0l.07.09h0l0,0h0l0,0h0l.08.09h0l0,0h0l0,0h0l.07.1h0l0,.05h0l.12.15h0l.63.78a1.5,1.5,0,0,0,1.16.55,1.55,1.55,0,0,0,1-.33,1.51,1.51,0,0,0,.22-2.11c-1.64-2-3.23-4.11-4.73-6.22a1.52,1.52,0,0,0-1.23-.63Zm10,12.29a1.5,1.5,0,0,0-1.11,2.51h0l0,.05,0,0,0,0,0,0h0l0,0h0l0,.05h0l0,0h0l0,0h0c1.26,1.37,2.54,2.7,3.85,4h0l.13.13h0l0,0h0l0,0h0l0,0v0l0,0v0l0,0,0,0v0L51,236h0l0,0h0l0,0h0l.92.9a1.5,1.5,0,0,0,2.09-2.16c-1.87-1.81-3.7-3.69-5.45-5.61a1.51,1.51,0,0,0-1.11-.48Zm11.36,11a1.5,1.5,0,0,0-1,2.64l.76.65h0l.14.12h0l0,0h0l.09.08h0l0,0h0l0,0h0l.09.07h0l0,0h0l0,0v0l0,0,0,0,0,0h0l0,0,0,0,0,0,.09.07h0l0,0h0l0,0h0l.1.08h0l0,0h0l.15.12h0q2.09,1.71,4.24,3.35a1.5,1.5,0,0,0,2.1-.3A1.5,1.5,0,0,0,66,245c-2.07-1.56-4.12-3.21-6.09-4.9a1.46,1.46,0,0,0-1-.37Zm12.6,9.55a1.5,1.5,0,0,0-.84,2.74q1.71,1.14,3.45,2.22h0l0,0h0l.11.07h0l0,0h0l0,0h0l0,0,0,0,0,0h0l0,0,0,0h0l0,0h0l.05,0h0l0,0h0l.05,0h0l.11.06h0l0,0h0c.84.51,1.68,1,2.53,1.51a1.43,1.43,0,0,0,.75.2,1.49,1.49,0,0,0,.75-2.79c-2.24-1.31-4.47-2.7-6.63-4.14a1.49,1.49,0,0,0-.83-.25Zm13.66,8a1.5,1.5,0,0,0-.67,2.84l.33.17h0l0,0h0l0,0h0l0,0h0l0,0,0,0h.08l0,0h0q3.19,1.58,6.48,3h0l.09,0a1.59,1.59,0,0,0,.59.12,1.5,1.5,0,0,0,.59-2.88c-2.38-1-4.76-2.13-7.08-3.29a1.51,1.51,0,0,0-.68-.16Zm14.53,6.22a1.5,1.5,0,0,0-.51,2.91c1,.36,2,.7,3,1h0l.24.08h0l.19.06h.06l.13.05H103l.18.06h0l0,0h.06l.12,0h.12l.12,0h.12l.13,0H104l.13.05h.06l0,0h0l.14,0h.06l0,0h0l.15,0h0l0,0h0l2.13.64a1.52,1.52,0,0,0,.42.06,1.5,1.5,0,0,0,.41-2.95c-2.49-.72-5-1.53-7.43-2.4a1.52,1.52,0,0,0-.51-.09Zm15.18,4.4a1.5,1.5,0,0,0-.33,3q3.9.87,7.87,1.51l.23,0a1.5,1.5,0,0,0,.24-3c-2.57-.42-5.15-.91-7.68-1.48a1.24,1.24,0,0,0-.33,0Zm15.61,2.52a1.5,1.5,0,0,0-.15,3l.84.08h.71c1.49.13,3,.23,4.49.31h1.34l.61,0h0a1.5,1.5,0,0,0,.06-3c-2.6-.1-5.22-.28-7.8-.53Zm23.7.21h-.12c-2.58.21-5.21.35-7.81.4a1.5,1.5,0,0,0,0,3h.07c2.43-.05,4.85-.17,7.24-.35h.71a1.5,1.5,0,0,0-.12-3Zm15.65-2.24a1.53,1.53,0,0,0-.3,0c-2.54.52-5.13,1-7.7,1.34a1.5,1.5,0,0,0,.21,3l.21,0,2-.31h0l.18,0h.19l.12,0h1.86l.17,0H167l.18,0h.07c1-.18,2-.37,2.93-.57a1.5,1.5,0,0,0-.3-3Zm15.26-4.13a1.34,1.34,0,0,0-.48.08c-2.46.83-5,1.59-7.48,2.27a1.5,1.5,0,0,0,.39,2.95,1.74,1.74,0,0,0,.39-.05l.36-.1h0l0,0h.34l.08,0h.1c1.19-.33,2.36-.68,3.54-1h0l.19-.06h0l0,0h.06l.13-.05h.06l0,0H183l.08,0h.16l.08,0h.2l0,0H184l0,0h.19l.06,0h.17l.12,0h.12l.17-.06h0l0,0h0l.63-.21a1.5,1.5,0,0,0-.48-2.92Zm14.63-6a1.45,1.45,0,0,0-.64.14c-2.34,1.13-4.75,2.19-7.15,3.17a1.5,1.5,0,0,0,.57,2.89,1.36,1.36,0,0,0,.56-.11q3.72-1.51,7.31-3.24a1.5,1.5,0,0,0-.65-2.85Zm13.81-7.71a1.5,1.5,0,0,0-.81.24c-2.19,1.4-4.44,2.75-6.71,4a1.5,1.5,0,0,0-.58,2,1.52,1.52,0,0,0,1.32.77,1.58,1.58,0,0,0,.72-.19l.69-.39h0l0,0h0l.12-.06h0l0,0h.06l.07,0h0l0,0h0l0,0h0l0,0h0l0,0h0l0,0h0l0,0h0l.05,0h0l0,0h0l0,0h0l.1-.06h0l0,0h0l0,0h0l.05,0h0l0,0h0l0,0h0l0,0h0l.05,0h0l.05,0h0l0,0h0l.05,0h0l.05,0h0l0,0h0l0,0h0l0,0h0l.05,0h0l0,0h0l0,0h0l0,0h0l0,0h0l0,0h0l0,0h0l0,0h0l0,0h.05l0,0h0l0,0h0l0,0h0l0,0h0l0,0h0l.11-.06h0l0,0h0l0,0h0l.12-.07h0l0,0h0l0,0h0l.12-.08h0l0,0h0c1-.62,2-1.25,3.05-1.9a1.49,1.49,0,0,0,.45-2.07,1.52,1.52,0,0,0-1.26-.69Zm12.77-9.32a1.46,1.46,0,0,0-1,.35c-2,1.65-4.08,3.26-6.17,4.79a1.5,1.5,0,0,0,.88,2.72,1.55,1.55,0,0,0,.89-.29c1-.75,2-1.52,3-2.29h0l0,0h0l.09-.08h0l0,0h0l0,0h0l0,0h0l0,0h0l0,0,0,0,0,0,0,0h0l0,0h0l0,0h0l0,0h0l.11-.09h0l0,0h0c.85-.66,1.69-1.34,2.52-2a1.5,1.5,0,0,0-1-2.65Zm11.55-10.79a1.48,1.48,0,0,0-1.09.46c-1.79,1.89-3.65,3.74-5.55,5.51a1.49,1.49,0,0,0-.07,2.12,1.47,1.47,0,0,0,1.09.48,1.51,1.51,0,0,0,1-.41q1.88-1.74,3.67-3.57h0l.14-.13h0l0,0h0l.09-.08h0l0,0h0l0,0h0l.08-.08h0l0,0h0l0,0v0l.08-.08h0l0,0h0l0,0h0l0,0,0,0,0,0,0,0v0l0,0,0,0,.08-.09h0l0,0h0l0,0h0l.09-.1h0l0,0h0l.85-.89a1.5,1.5,0,0,0-.06-2.11,1.47,1.47,0,0,0-1-.41ZM248,218.31a1.52,1.52,0,0,0-1.21.6c-1.54,2.09-3.17,4.15-4.84,6.14a1.49,1.49,0,0,0,.19,2.11,1.46,1.46,0,0,0,1,.35,1.51,1.51,0,0,0,1.15-.53q1.08-1.29,2.13-2.61h0l.15-.2h0l0,0h0l.08-.09h0l0,0h0l0,0h0l.08-.1h0l0,0h0l.08-.1h0l0,0h0l0,0h0l.07-.09h0l0,0h0l0,0h0l.07-.09h0l0,0h0l0,0h0l0-.05h0l0,0,0,0,0,0v0l0,0h0l0-.05h0l0,0v0l0,0h0l0,0h0l0,0v0l0,0v0l0,0,0,0,0,0h0l0,0v0l0,0v0l0,0v0l0,0h0l0,0h0l0,0,0,0,0,0v0l0,0h0l0,0v0l0,0,0,0,0,0h0l0-.05h0l0,0v0l0,0,0,0,0,0h0l0,0h0l0,0v0l0,0h0l0,0h0l0,0,0,0,0,0v0l0,0h0l0-.05h0l0,0v0l0,0h0l0,0h0l0-.05h0l0,0v0l0,0h0l.07-.1h0l0,0v0l0,0h0l0,0h0l0-.05h0l0,0v0l0,0h0l0-.05h0a1.49,1.49,0,0,0-1.2-2.39Zm8.62-13.25a1.51,1.51,0,0,0-1.31.76c-1.27,2.25-2.64,4.5-4.06,6.67a1.51,1.51,0,0,0,.44,2.08,1.53,1.53,0,0,0,.82.24,1.51,1.51,0,0,0,1.26-.68v0l0,0v0l0,0v0l0,0v0l0,0h0l0,0h0l0,0h0l0,0h0l.06-.1h0l0,0h0l0,0h0l.07-.1h0l0,0h0l0,0h0l.06-.1h0l0,0h0l.1-.15h0l0-.05h0l.1-.15h0l0-.05h0l.1-.15h0l.09-.15h0l0,0h0l.13-.21h0l.13-.21h0l.1-.16h0l0-.05h0l.1-.16h0l0,0h0l.09-.16h0l.12-.2h0l.12-.21h0l.09-.16h0l0-.05h0l.09-.16h0l0-.06h0l.09-.16h0l0-.05h0l.09-.16h0l.13-.22h0l0-.05h0c.52-.86,1-1.72,1.51-2.59a1.49,1.49,0,0,0-1.3-2.24Zm7-14.2a1.5,1.5,0,0,0-1.39.92c-1,2.4-2.08,4.79-3.22,7.12a1.51,1.51,0,0,0,.69,2,1.55,1.55,0,0,0,.66.15,1.51,1.51,0,0,0,1.35-.84q1.76-3.58,3.29-7.29a1.5,1.5,0,0,0-.81-2,1.44,1.44,0,0,0-.57-.11Zm5.16-14.94a1.51,1.51,0,0,0-1.45,1.09c-.69,2.5-1.47,5-2.32,7.47a1.49,1.49,0,0,0,.93,1.9,1.37,1.37,0,0,0,.49.09,1.49,1.49,0,0,0,1.41-1c.14-.4.27-.79.41-1.18,0,0,0,0,0,0v-.05h0l.05-.18h0v-.1h0l0-.06h0l0-.05v-.13l0,0v-.23l0-.06h0v-.16l0-.12v-.12l0-.13h0v-.06l0,0h0l.06-.19h0v0h0l.05-.19h0v-.05h0c0-.08.05-.16.08-.24h0v-.05h0l.06-.19h0l0-.05h0l.06-.19h0v0h0l.06-.19h0l0,0h0l.06-.18h0v0h0l0,0h0l0-.15h0v0h0v0h0l.06-.19h0v0h0l.05-.18h0v-.05h0v0h0l0-.14h0l0,0h0v0h0l0-.14h0v0h0v0h0l0-.14h0v0h0v0h0l.05-.18h0v0h0l.05-.19h0v0h0v0h0l0-.15h0v0h0v0h0l0-.14h0v-.05h0c.06-.21.11-.42.17-.63a1.5,1.5,0,0,0-1-1.85,1.37,1.37,0,0,0-.4-.05Zm3.29-15.46a1.49,1.49,0,0,0-1.48,1.27c-.38,2.57-.85,5.16-1.39,7.7a1.5,1.5,0,0,0,1.15,1.78,1.63,1.63,0,0,0,.31,0,1.5,1.5,0,0,0,1.47-1.19c0-.12.05-.24.08-.36h0v-.06h0v-.05h0l0-.12h0v-.17h0v-.06h0v-.49h0l0-.07v-.17h0l0-.13h0v-.1h0v0h0l0-.14V168h0v0h0l0-.14h0v0h0v0h0v0h0l0-.14h0v-.15h0v-.09h0v0h0V167h0l0-.13h0v-.81h0V166h0v0h0l0-.12h0v-.06h0v0h0c0-.08,0-.16,0-.24h0c.19-1.07.37-2.14.53-3.22a1.51,1.51,0,0,0-1.26-1.71Zm1.4-15.75a1.5,1.5,0,0,0-1.5,1.46c-.07,2.6-.23,5.22-.46,7.8a1.5,1.5,0,0,0,1.37,1.63H273a1.5,1.5,0,0,0,1.49-1.37c.1-1.14.19-2.27.26-3.42h0v-.06h0c0-.08,0-.17,0-.25h0v-.06h0v-.05h0v-.06h0v-.12h0v-.05h0v0h0v0h0v-.12h0v-.17h0v-.06h0v-.38h0v-1.34h0v-.21h0v-.31h0v-.09h0v-1h0a1.5,1.5,0,0,0-1.46-1.54ZM273,128.9h-.14a1.51,1.51,0,0,0-1.36,1.63c.24,2.58.4,5.21.48,7.81a1.51,1.51,0,0,0,1.5,1.45h.05a1.5,1.5,0,0,0,1.45-1.55c0-1.24-.09-2.47-.17-3.7h0v-.06h0v-.18h0v-.18h0v-.64h0v-.14h0v0h0v-.05h0c-.07-1-.15-2-.24-3A1.51,1.51,0,0,0,273,128.9Zm-2.41-15.62a1.17,1.17,0,0,0-.32,0,1.5,1.5,0,0,0-1.15,1.78c.55,2.53,1,5.12,1.43,7.68a1.49,1.49,0,0,0,1.48,1.28l.23,0a1.49,1.49,0,0,0,1.25-1.71v-.1h0v-.44h0v-.12h0v0h0v0h0l0-.18h0v0h0c-.22-1.3-.45-2.59-.69-3.88h0l0-.06h0v-.06h0l0-.18h0v0h0v0h0l0-.12h0v-.17h0v-.06h0v-.51l0-.06v-.17h0l0-.14h0v0h0v0h0c-.07-.38-.15-.75-.24-1.13a1.49,1.49,0,0,0-1.46-1.18Zm-4.3-15.21a1.67,1.67,0,0,0-.49.08,1.51,1.51,0,0,0-.92,1.91c.86,2.45,1.65,5,2.35,7.46a1.5,1.5,0,0,0,1.44,1.09,1.4,1.4,0,0,0,.41-.06,1.5,1.5,0,0,0,1-1.85h0l0,0v-.16l0-.13h0v0h0v0h0c-.31-1.08-.63-2.16-1-3.24h0c0-.08-.05-.16-.08-.24h0v0h0l-.05-.18v-.07l0,0h0l0-.12v-.12l0-.12v-.12l0-.11v-.19l0,0v-.18l0-.07h0v-.16l0-.07h0v0h0V101h0l-.05-.13h0v0h0v0h0l-.06-.18h0v0h0l-.07-.18h0c-.13-.41-.27-.81-.41-1.21a1.5,1.5,0,0,0-1.42-1ZM260.12,83.5a1.55,1.55,0,0,0-.66.15,1.5,1.5,0,0,0-.68,2C259.93,88,261,90.38,262,92.77a1.5,1.5,0,0,0,2,.8,1.5,1.5,0,0,0,.8-2v0h0l0-.11v-.1l0,0h0l0,0v0l0,0v-.07l0,0h0l0-.06h0l0,0h0l0,0h0l0,0h0l0-.06h0l0,0h0l0,0h0l-.08-.17h0l0-.05h0l-.08-.17h0c-.39-.92-.8-1.83-1.22-2.74h0l-.1-.22h0l0,0h0l-.05-.11h0l0,0h0l0,0h0l-.05-.11h0l0,0h0l0,0h0l-.05-.1h0l0,0h0l0,0h0l-.05-.11h0l0,0v0l0,0v0l0,0h0l0,0v0l0,0h0v-.06l0,0v0l0,0v0l0,0V85.9l0-.05v0l0,0v0l0,0v-.08l0,0,0,0v-.11l0,0v0l0-.06v0l0,0v0h0l-.06-.12h0l0,0h0v0h0l-.08-.16h0l0,0h0l-.08-.17h0l-.11-.23h0l0-.08a1.5,1.5,0,0,0-1.35-.83Zm-7.85-13.72a1.53,1.53,0,0,0-.82.24A1.5,1.5,0,0,0,251,72.1c1.42,2.17,2.8,4.41,4.08,6.66a1.51,1.51,0,0,0,1.31.76,1.52,1.52,0,0,0,.74-.2,1.5,1.5,0,0,0,.56-2l-.08-.15h0l0,0h0l0,0h0l-.05-.07h0l0,0v0l0,0v0l0,0v0l0,0,0,0v0l0,0v0l0,0v0l0-.05h0l0,0v0l0,0v0l0,0h0l0-.05h0l0,0h0l0,0h0l-.06-.1h0l0,0h0a2.39,2.39,0,0,1-.13-.21h0L255.8,74h0l-.13-.21h0l0,0h0l-.09-.15h0l0,0h0l-.09-.15h0l-.09-.16h0l0,0h0l-.1-.16h0l0,0h0l-.1-.16h0l0,0h0l-.13-.21h0l-1.35-2.1a1.52,1.52,0,0,0-1.26-.67Zm-9.46-12.67a1.56,1.56,0,0,0-1,.35,1.5,1.5,0,0,0-.17,2.12c1.67,2,3.31,4,4.86,6.12a1.52,1.52,0,0,0,1.21.6,1.51,1.51,0,0,0,1.2-2.4l0,0h0l0-.05h0l0,0h0l-.07-.1h0l0,0h0l-.11-.15h0l0-.05h0l-.11-.15h0l0,0h0l-.08-.1h0l0,0h0l0,0h0l-.08-.09h0l0,0h0l0-.05h0l-.08-.09h0l0,0h0l-.07-.09h0l0-.05h0l0,0h0l0,0h0l0,0h0l0,0v0l0,0v0l0,0h0l0,0,0,0,0,0v0l0,0h0l0-.05h0l0,0,0,0,0,0,0,0v0l0,0,0,0,0,0,0,0,0,0v0l0,0v0l-.05-.06h0l0,0h0l0,0h0L247,61.4h0l0,0h0l-.12-.15h0c-.87-1.11-1.77-2.21-2.68-3.29h0l-.12-.15h0l0,0h0l0,0v0l0,0a1.51,1.51,0,0,0-1.15-.53ZM231.89,45.68a1.47,1.47,0,0,0-1.09.48,1.5,1.5,0,0,0,.07,2.12c1.91,1.76,3.78,3.61,5.57,5.48a1.51,1.51,0,0,0,1.09.47,1.48,1.48,0,0,0,1-.42,1.5,1.5,0,0,0,.05-2.12L237,50h0l-.14-.13h0l0,0h0l0,0h0l-.08-.09h0l0,0h0l0,0h0l0,0h0l0,0,0,0,0,0,0,0,0,0h0l0,0h0l0,0,0,0h0l0,0,0,0,0,0,0,0,0,0v0l0,0v0l0,0h0L236,49h0l0,0h0l0,0h0l-.13-.13h0c-.94-.93-1.9-1.84-2.87-2.75a1.52,1.52,0,0,0-1-.39Zm-12.21-10a1.5,1.5,0,0,0-.88,2.72c2.1,1.52,4.18,3.13,6.19,4.78a1.5,1.5,0,1,0,1.9-2.32h0l0,0h0l0,0h0l0,0v0l0,0,0,0,0,0h0l0,0h0l0,0,0,0,0,0h0l0,0h0l0,0,0,0,0,0h0l0,0,0,0,0,0,0,0,0,0,0,0h0l0,0,0,0,0,0,0,0,0,0h0l0,0,0,0,0,0h0l0,0h0l0,0v0l0,0h0l-.1-.08h0l0,0h0l0,0h0l-.11-.09h0l0,0h0l-.15-.12h0c-1.55-1.24-3.14-2.45-4.75-3.61a1.49,1.49,0,0,0-.87-.29Zm-13.34-8.47a1.52,1.52,0,0,0-1.32.77,1.5,1.5,0,0,0,.59,2c2.27,1.25,4.53,2.6,6.72,4a1.48,1.48,0,0,0,.8.23,1.5,1.5,0,0,0,.81-2.76q-3.37-2.14-6.88-4.09a1.57,1.57,0,0,0-.72-.18Zm-14.28-6.8a1.51,1.51,0,0,0-1.39.94,1.5,1.5,0,0,0,.83,2c2.41,1,4.81,2,7.16,3.15a1.61,1.61,0,0,0,.64.14A1.5,1.5,0,0,0,200,23.7q-2.37-1.12-4.78-2.16h0l-.17-.07h0l-.05,0h0l-.05,0h0l-.06,0h0l0,0h-.07l0,0h0l0,0,0,0h-.12l-.13-.05h0l0,0h0l-1.65-.68a1.59,1.59,0,0,0-.56-.11Zm-15-5a1.5,1.5,0,0,0-1.45,1.12,1.49,1.49,0,0,0,1.06,1.83c2.51.67,5,1.43,7.49,2.25a1.5,1.5,0,0,0,.94-2.85c-1.06-.35-2.13-.69-3.2-1h0l-.24-.08s0,0,0,0h-.06l-.18-.06h-.12l-.12,0h0l-.06,0h0l-.24-.07h0l-.06,0h0l-.18-.05h0l-.06,0h0l-.18-.05h0l-.05,0h-.06l-.12,0h0l-.06,0h-.06l-.12,0h-.13l-.17,0h-.07l-.05,0h0l-.12,0h-.07l0,0h0l-.11,0h0l0,0H179l-.05,0h-.13l0,0h0l-.05,0h-.45l-.08,0H178l-.14,0h-.05a3.37,3.37,0,0,1-.34-.09,1.73,1.73,0,0,0-.38-.05Zm-15.5-3.12a1.5,1.5,0,0,0-.2,3c2.57.36,5.16.8,7.7,1.31a1.53,1.53,0,0,0,.3,0,1.5,1.5,0,0,0,.3-3h0l-.14,0h-.18l-.06,0h-.77l-.12,0h-.12l-.18,0H168l-.18,0h-.07l-.24,0h-.06l-.18,0h-.07l-.24,0h-.06L166.6,13h-.06l-.18,0h-.13l-.12,0h-.19l-.11,0h-1l-.14,0h-.11l-2.77-.41Z"/><path class="cls-2" d="M82.08,192.06a8.14,8.14,0,0,1-1.8-5.7l1.5-3q26.1-12,35.25-14.55l3,1.5a6.74,6.74,0,0,1,1.5,5.4l-1.5,3q-6.6,3.45-29.25,12.75a7.25,7.25,0,0,1-5.7,2.1Zm18.3-88.5q-8.25-2.85-17.1-5.4a9.05,9.05,0,0,1-1.5-5.7l1.5-3a9.56,9.56,0,0,1,5.55-1.65,8.94,8.94,0,0,1,2,.15,290.29,290.29,0,0,1,30.75,11.1,8.22,8.22,0,0,1,1.5,5.85l-1.5,3a9,9,0,0,1-4.5,1.8Q111.48,107.76,100.38,103.56Zm25.05,39.15a6.74,6.74,0,0,1-1.5-5.4l1.5-3a22.11,22.11,0,0,0,6.75-8.85q2.1-5.1,2.7-15.6l.15-3.45a80.34,80.34,0,0,0-3-20.55,6.67,6.67,0,0,1,1.8-4.2,7.15,7.15,0,0,1,4.5-1.65,6.31,6.31,0,0,1,1.5.15l3,1.5a70,70,0,0,1,4.5,19.8l51.45.6a8.76,8.76,0,0,1,5.7,2.55,7.77,7.77,0,0,1,1.65,5,7.12,7.12,0,0,1-.15,1.65q-2.1,6.3-4.2,11.18a53.42,53.42,0,0,1-5.1,9.22,8.76,8.76,0,0,1-5.85,2.55,4.55,4.55,0,0,1-1.35-.15l-3-1.5a6.74,6.74,0,0,1-1.5-5.4l1.5-3,5.7-10.2-45.15-.6a64,64,0,0,1-3.9,16.05,37.25,37.25,0,0,1-8.4,12.75,10.43,10.43,0,0,1-5.1,2.4A6.67,6.67,0,0,1,125.43,142.71Zm15.9,51.45a6.74,6.74,0,0,1-1.5-5.4l1.5-3q8.85-4.65,14.1-17.25a46,46,0,0,0,3.6-18.3,33.47,33.47,0,0,0-.15-3.75,28.65,28.65,0,0,0-2.55-9.75,27.63,27.63,0,0,1-2.7-9l1.5-3a9.05,9.05,0,0,1,5.7-1.5l3,1.5a47,47,0,0,1,4.8,11.25,51.72,51.72,0,0,1,1.5,13.35,124.92,124.92,0,0,1-.9,13.8q8,5.85,13.65,10.65a54.61,54.61,0,0,0,14.1,9,8.1,8.1,0,0,1,2.1,6.3l-1.5,3a6.74,6.74,0,0,1-5.4,1.5,69.19,69.19,0,0,1-10.8-6.22q-5.25-3.68-12.3-9.53l-3.75-3a50,50,0,0,1-4.65,8.48,71.16,71.16,0,0,1-8,9.07,13,13,0,0,1-7.2,3.6A6.67,6.67,0,0,1,141.33,194.16Z"/></g></g></svg>