<svg xmlns="http://www.w3.org/2000/svg" viewBox="0 0 68.44 65.53"><defs><style>.cls-1{fill:#faf7d9;opacity:0.2;}</style></defs><title>star</title><g id="レイヤー_2" data-name="レイヤー 2"><g id="chapter"><path class="cls-1" d="M38.23,2.49,45.34,16.9a4.46,4.46,0,0,0,3.37,2.44L64.6,21.65a4.47,4.47,0,0,1,2.48,7.63L55.58,40.49a4.47,4.47,0,0,0-1.29,4L57,60.28A4.47,4.47,0,0,1,50.52,65L36.3,57.53a4.44,4.44,0,0,0-4.16,0L17.92,65a4.47,4.47,0,0,1-6.49-4.72l2.71-15.82a4.49,4.49,0,0,0-1.28-4L1.36,29.28a4.47,4.47,0,0,1,2.48-7.63l15.89-2.31A4.46,4.46,0,0,0,23.1,16.9L30.21,2.49A4.47,4.47,0,0,1,38.23,2.49Z"/></g></g></svg>