<svg xmlns="http://www.w3.org/2000/svg" viewBox="0 0 636.12 210.4"><defs><style>.cls-1{fill:#30353a;}.cls-2{fill:#c45c66;}</style></defs><title>virtual-neet</title><g id="レイヤー_2" data-name="レイヤー 2"><g id="chapter"><path class="cls-1" d="M631.11,207.47l-.45-1.43a26.7,26.7,0,0,1-8,1.36,19.16,19.16,0,0,1-7.71-1.63c-3.51-1.48-6.82-3.83-11-5.88a34.52,34.52,0,0,0-15.91-3.69,44.68,44.68,0,0,0-12.75,1.62,45.55,45.55,0,0,0-6.7,2.58,77,77,0,0,1-9,3.94,40.85,40.85,0,0,1-13.05,1.86,42.14,42.14,0,0,1-11.91-1.51,41.36,41.36,0,0,1-6.27-2.42A77.6,77.6,0,0,0,519,198.2a43.5,43.5,0,0,0-14-2,44.73,44.73,0,0,0-12.75,1.62,45.84,45.84,0,0,0-6.69,2.58,77.76,77.76,0,0,1-9,3.94,41,41,0,0,1-13.06,1.86,42.2,42.2,0,0,1-11.91-1.51,41.22,41.22,0,0,1-6.26-2.42,77.78,77.78,0,0,0-9.38-4.07,43.44,43.44,0,0,0-14-2,44.63,44.63,0,0,0-12.75,1.62,45.55,45.55,0,0,0-6.7,2.58,77.76,77.76,0,0,1-9,3.94,40.92,40.92,0,0,1-13.06,1.86,42.14,42.14,0,0,1-11.91-1.51,41.22,41.22,0,0,1-6.26-2.42,77.78,77.78,0,0,0-9.38-4.07,43.5,43.5,0,0,0-14-2,44.73,44.73,0,0,0-12.75,1.62,45.4,45.4,0,0,0-6.69,2.58,77.76,77.76,0,0,1-9,3.94,41,41,0,0,1-13.06,1.86,38.77,38.77,0,0,1-18.18-3.93,76.91,76.91,0,0,0-9.37-4.07,43.48,43.48,0,0,0-14-2A44.63,44.63,0,0,0,243,197.82a45.55,45.55,0,0,0-6.7,2.58,77.76,77.76,0,0,1-9,3.94,41,41,0,0,1-13.06,1.86A38.77,38.77,0,0,1,196,202.27a76.91,76.91,0,0,0-9.37-4.07,43.5,43.5,0,0,0-14-2,44.73,44.73,0,0,0-12.75,1.62,46,46,0,0,0-6.7,2.58,77,77,0,0,1-9,3.94,40.85,40.85,0,0,1-13.05,1.86,42.22,42.22,0,0,1-11.92-1.51,41.64,41.64,0,0,1-6.26-2.42,77.09,77.09,0,0,0-9.38-4.07,43.44,43.44,0,0,0-14-2,44.63,44.63,0,0,0-12.75,1.62,45.55,45.55,0,0,0-6.7,2.58,77.76,77.76,0,0,1-9,3.94,41,41,0,0,1-13.06,1.86,89.73,89.73,0,0,1-12-.65,45.57,45.57,0,0,1-11.57-3.2c-3.87-1.53-8.52-3.51-16-5.86-1.56-.48-2.73-.84-3.53-1.15a4.46,4.46,0,0,1-1.17-.62,1.24,1.24,0,0,1-.33-.4,3.93,3.93,0,0,1-.32-1.46C3,192.1,3,191.06,3,189.7a3.71,3.71,0,0,1,.31-1.56A5.7,5.7,0,0,1,5.16,186c1.32-1.06,3.15-2,4.77-3.33a9.36,9.36,0,0,0,2.15-2.43A6.92,6.92,0,0,0,13,176.7a7,7,0,0,0-.55-2.75A8.78,8.78,0,0,0,9.7,170.6c-1.64-1.28-3.45-2.23-4.72-3.3a5.88,5.88,0,0,1-1.46-1.62,4.05,4.05,0,0,1-.21-3.54A5.75,5.75,0,0,1,5.16,160c1.32-1.06,3.15-2,4.77-3.34a9,9,0,0,0,2.15-2.43,6.88,6.88,0,0,0,.92-3.48,7,7,0,0,0-.55-2.75,8.78,8.78,0,0,0-2.75-3.35c-1.64-1.29-3.45-2.24-4.72-3.3a6,6,0,0,1-1.46-1.62,4.05,4.05,0,0,1-.21-3.54A5.7,5.7,0,0,1,5.16,134c1.32-1.06,3.15-2,4.77-3.33a9.36,9.36,0,0,0,2.15-2.43,6.92,6.92,0,0,0,.92-3.49,7,7,0,0,0-.55-2.75,8.78,8.78,0,0,0-2.75-3.35c-1.64-1.29-3.45-2.24-4.72-3.3a6,6,0,0,1-1.46-1.62,4.05,4.05,0,0,1-.21-3.54A5.77,5.77,0,0,1,5.16,108c1.32-1,3.15-2,4.77-3.33a9.36,9.36,0,0,0,2.15-2.43A6.92,6.92,0,0,0,13,98.71,7,7,0,0,0,12.45,96,8.78,8.78,0,0,0,9.7,92.61C8.06,91.33,6.25,90.38,5,89.32a6,6,0,0,1-1.46-1.63,3.67,3.67,0,0,1-.52-2,3.76,3.76,0,0,1,.31-1.57A5.75,5.75,0,0,1,5.16,82c1.32-1.06,3.15-2,4.77-3.34a9.15,9.15,0,0,0,2.15-2.42A6.92,6.92,0,0,0,13,72.72,7,7,0,0,0,12.45,70,8.78,8.78,0,0,0,9.7,66.62C8.06,65.33,6.25,64.38,5,63.32A6,6,0,0,1,3.52,61.7a4.05,4.05,0,0,1-.21-3.54A5.7,5.7,0,0,1,5.16,56c1.32-1.06,3.15-2,4.77-3.33a9.36,9.36,0,0,0,2.15-2.43A7.11,7.11,0,0,0,12.45,44,8.78,8.78,0,0,0,9.7,40.62C8.06,39.33,6.25,38.38,5,37.32A6.17,6.17,0,0,1,3.52,35.7a3.74,3.74,0,0,1-.52-2,3.79,3.79,0,0,1,.31-1.57A5.84,5.84,0,0,1,5.16,30c1.33-1.06,3.15-2,4.77-3.34a9.36,9.36,0,0,0,2.15-2.43A6.92,6.92,0,0,0,13,20.71a10.66,10.66,0,0,0-1.46-4.88A65.26,65.26,0,0,0,7.12,9.2,25.74,25.74,0,0,1,5.38,6.49,4,4,0,0,1,4.8,4.85c0-.16,0-.13,0-.17a1.34,1.34,0,0,1,.61-.32,26.8,26.8,0,0,1,8-1.36,19.12,19.12,0,0,1,7.71,1.63c3.51,1.48,6.82,3.83,11,5.88A34.49,34.49,0,0,0,48,14.2a44.73,44.73,0,0,0,12.75-1.62A45.84,45.84,0,0,0,67.48,10a76.09,76.09,0,0,1,9-3.94A41,41,0,0,1,89.58,4.2a42.2,42.2,0,0,1,11.91,1.51,41.22,41.22,0,0,1,6.26,2.42,77.78,77.78,0,0,0,9.38,4.07,43.44,43.44,0,0,0,14,2,44.68,44.68,0,0,0,12.75-1.62,45.55,45.55,0,0,0,6.7-2.58,76.09,76.09,0,0,1,9-3.94A40.85,40.85,0,0,1,172.65,4.2a42.22,42.22,0,0,1,11.92,1.51,41.64,41.64,0,0,1,6.26,2.42,77.6,77.6,0,0,0,9.37,4.07,43.55,43.55,0,0,0,14,2,44.68,44.68,0,0,0,12.75-1.62,45.55,45.55,0,0,0,6.7-2.58,75.39,75.39,0,0,1,9-3.94,40.85,40.85,0,0,1,13-1.86,42.22,42.22,0,0,1,11.92,1.51,41.22,41.22,0,0,1,6.26,2.42,77.78,77.78,0,0,0,9.38,4.07,43.44,43.44,0,0,0,14,2A44.63,44.63,0,0,0,310,12.58a45.55,45.55,0,0,0,6.7-2.58,76.09,76.09,0,0,1,9-3.94A40.89,40.89,0,0,1,338.81,4.2a42.22,42.22,0,0,1,11.92,1.51A41.22,41.22,0,0,1,357,8.13a77.09,77.09,0,0,0,9.38,4.07,43.44,43.44,0,0,0,14,2,44.68,44.68,0,0,0,12.75-1.62A45.55,45.55,0,0,0,399.8,10a75.39,75.39,0,0,1,9-3.94A40.85,40.85,0,0,1,421.89,4.2a42.22,42.22,0,0,1,11.92,1.51,41.22,41.22,0,0,1,6.26,2.42,77.78,77.78,0,0,0,9.38,4.07,43.44,43.44,0,0,0,14,2,44.68,44.68,0,0,0,12.75-1.62,45.55,45.55,0,0,0,6.7-2.58,76.09,76.09,0,0,1,9-3.94A41,41,0,0,1,505,4.2a42.14,42.14,0,0,1,11.91,1.51,41.36,41.36,0,0,1,6.27,2.42,77.6,77.6,0,0,0,9.37,4.07,43.5,43.5,0,0,0,14,2,44.68,44.68,0,0,0,12.75-1.62A45.55,45.55,0,0,0,566,10a77.76,77.76,0,0,1,9-3.94A41,41,0,0,1,588.07,4.2a89.83,89.83,0,0,1,12,.65,45.38,45.38,0,0,1,11.56,3.2c3.88,1.53,8.52,3.51,16,5.86,1.56.48,2.74.84,3.53,1.15a4.57,4.57,0,0,1,1.18.62,1.24,1.24,0,0,1,.33.4,4.15,4.15,0,0,1,.32,1.46c.07.76.09,1.8.09,3.16a4,4,0,0,1-.31,1.56A5.82,5.82,0,0,1,631,24.45c-1.32,1.06-3.14,2-4.76,3.33A9.18,9.18,0,0,0,624,30.21a6.72,6.72,0,0,0-.92,3.49,6.65,6.65,0,0,0,.55,2.75,8.69,8.69,0,0,0,2.75,3.35c1.64,1.28,3.45,2.23,4.72,3.3a6,6,0,0,1,1.46,1.62,3.79,3.79,0,0,1,.52,2,4.1,4.1,0,0,1-.31,1.57A5.87,5.87,0,0,1,631,50.44c-1.32,1.06-3.14,2-4.76,3.34A8.88,8.88,0,0,0,624,56.21a7.09,7.09,0,0,0-.37,6.23,8.69,8.69,0,0,0,2.75,3.35c1.64,1.29,3.45,2.24,4.72,3.3a6.19,6.19,0,0,1,1.46,1.62,3.83,3.83,0,0,1,.52,2,4,4,0,0,1-.31,1.56A5.82,5.82,0,0,1,631,76.44c-1.32,1.06-3.14,2-4.76,3.33A9.18,9.18,0,0,0,624,82.2a6.72,6.72,0,0,0-.92,3.49,6.65,6.65,0,0,0,.55,2.75,8.69,8.69,0,0,0,2.75,3.35c1.64,1.28,3.45,2.23,4.72,3.3a6,6,0,0,1,1.46,1.62,3.8,3.8,0,0,1,.52,2,4,4,0,0,1-.31,1.56,5.9,5.9,0,0,1-1.86,2.19c-1.32,1-3.14,2-4.76,3.33A9.18,9.18,0,0,0,624,108.2a6.72,6.72,0,0,0-.92,3.49,6.65,6.65,0,0,0,.55,2.75,8.69,8.69,0,0,0,2.75,3.35c1.64,1.28,3.45,2.23,4.72,3.29a6.22,6.22,0,0,1,1.46,1.63,3.78,3.78,0,0,1,.52,2,4.09,4.09,0,0,1-.31,1.56,5.87,5.87,0,0,1-1.86,2.18c-1.32,1.06-3.14,2-4.76,3.34a9,9,0,0,0-2.15,2.42,6.72,6.72,0,0,0-.92,3.49,6.65,6.65,0,0,0,.55,2.75,8.69,8.69,0,0,0,2.75,3.35c1.64,1.29,3.45,2.24,4.72,3.3a6.19,6.19,0,0,1,1.46,1.62,3.8,3.8,0,0,1,.52,2,4,4,0,0,1-.31,1.56,5.82,5.82,0,0,1-1.86,2.19c-1.32,1.06-3.14,2-4.76,3.33a9.18,9.18,0,0,0-2.15,2.43,6.72,6.72,0,0,0-.92,3.49,6.62,6.62,0,0,0,.55,2.75,8.69,8.69,0,0,0,2.75,3.35c1.64,1.29,3.45,2.24,4.72,3.3a6.35,6.35,0,0,1,1.46,1.62,3.9,3.9,0,0,1,.21,3.47,7.21,7.21,0,0,1-1.92,2.42c-1.35,1.21-3.16,2.35-4.73,3.7a10.77,10.77,0,0,0-2.09,2.32,5.76,5.76,0,0,0-1,3.15,6.11,6.11,0,0,0,.22,1.61h0a27.61,27.61,0,0,0,5.14,9.55c.93,1.23,1.78,2.29,2.35,3.14a6.72,6.72,0,0,1,.63,1.07,1.38,1.38,0,0,1,.15.49h.11l-.1-.05v0h.11l-.1-.05,0,0,0,0h0l0,0,0,0a.54.54,0,0,1-.2.16,4.07,4.07,0,0,1-.76.32l.45,1.43.45,1.43a5.34,5.34,0,0,0,2.13-1.15,3.24,3.24,0,0,0,.68-1,3,3,0,0,0,.24-1.15,4.35,4.35,0,0,0-.41-1.72,15.27,15.27,0,0,0-1.72-2.69c-1.05-1.39-2.33-2.95-3.48-4.72a20.44,20.44,0,0,1-2.77-5.89h0a3.27,3.27,0,0,1-.11-.83,2.59,2.59,0,0,1,.28-1.18,7.14,7.14,0,0,1,1.91-2.18c1.37-1.16,3.21-2.31,4.8-3.77a11,11,0,0,0,2.09-2.54,6.89,6.89,0,0,0,.36-6.16,8.69,8.69,0,0,0-2.75-3.35c-1.63-1.29-3.44-2.24-4.72-3.3a6.19,6.19,0,0,1-1.46-1.62,3.83,3.83,0,0,1-.51-2,3.87,3.87,0,0,1,.3-1.56,5.82,5.82,0,0,1,1.86-2.19c1.32-1.06,3.15-2,4.77-3.33a9,9,0,0,0,2.14-2.44,7,7,0,0,0,.37-6.23,8.69,8.69,0,0,0-2.75-3.35c-1.63-1.29-3.44-2.24-4.72-3.3a6.35,6.35,0,0,1-1.46-1.62,3.83,3.83,0,0,1-.51-2,3.87,3.87,0,0,1,.3-1.56,5.82,5.82,0,0,1,1.86-2.19c1.32-1.06,3.15-2,4.77-3.33a9.33,9.33,0,0,0,2.14-2.43,7,7,0,0,0,.37-6.24,8.69,8.69,0,0,0-2.75-3.35c-1.63-1.28-3.44-2.23-4.72-3.29a6.22,6.22,0,0,1-1.46-1.63,3.79,3.79,0,0,1-.51-2,3.89,3.89,0,0,1,.3-1.57,5.87,5.87,0,0,1,1.86-2.18c1.32-1.06,3.15-2,4.77-3.34a9.17,9.17,0,0,0,2.14-2.43,7,7,0,0,0,.37-6.24,8.77,8.77,0,0,0-2.75-3.35c-1.63-1.28-3.44-2.23-4.72-3.29a6.35,6.35,0,0,1-1.46-1.62,3.83,3.83,0,0,1-.51-2,4,4,0,0,1,.3-1.57,5.87,5.87,0,0,1,1.86-2.18c1.32-1.06,3.15-2,4.77-3.34a9,9,0,0,0,2.14-2.43,7,7,0,0,0,.37-6.23,8.69,8.69,0,0,0-2.75-3.35c-1.63-1.29-3.44-2.24-4.72-3.3a6.19,6.19,0,0,1-1.46-1.62,3.83,3.83,0,0,1-.51-2,3.87,3.87,0,0,1,.3-1.56,5.82,5.82,0,0,1,1.86-2.19c1.32-1,3.15-2,4.77-3.33a9.33,9.33,0,0,0,2.14-2.43,7,7,0,0,0,.37-6.24,8.69,8.69,0,0,0-2.75-3.35c-1.63-1.28-3.44-2.23-4.72-3.29a6.35,6.35,0,0,1-1.46-1.62,3.83,3.83,0,0,1-.51-2,4,4,0,0,1,.3-1.57A5.87,5.87,0,0,1,628.28,30c1.32-1.06,3.15-2,4.77-3.33a9.33,9.33,0,0,0,2.14-2.43,6.82,6.82,0,0,0,.93-3.49,33.7,33.7,0,0,0-.16-3.95,6.07,6.07,0,0,0-.68-2.21,4.21,4.21,0,0,0-1.13-1.28,8.35,8.35,0,0,0-2.33-1.17c-.9-.32-2-.64-3.25-1.05C618.74,8,614,5.57,608.93,3.84a44,44,0,0,0-8.43-2,93.62,93.62,0,0,0-12.43-.67,45,45,0,0,0-12.75,1.63,44.45,44.45,0,0,0-6.7,2.58,77.76,77.76,0,0,1-9,3.94,40.72,40.72,0,0,1-13.06,1.85A41.9,41.9,0,0,1,534.6,9.7a41.64,41.64,0,0,1-6.26-2.42A77.09,77.09,0,0,0,519,3.21a43.68,43.68,0,0,0-14-2,45,45,0,0,0-12.75,1.63,44.45,44.45,0,0,0-6.7,2.58,77.76,77.76,0,0,1-9,3.94,40.72,40.72,0,0,1-13.06,1.85,41.83,41.83,0,0,1-11.91-1.5,41.77,41.77,0,0,1-6.27-2.42,76.91,76.91,0,0,0-9.37-4.07,43.75,43.75,0,0,0-14-2,41.79,41.79,0,0,0-19.45,4.21,76.87,76.87,0,0,1-9,3.94,40.72,40.72,0,0,1-13.06,1.85,41.83,41.83,0,0,1-11.91-1.5,41.77,41.77,0,0,1-6.27-2.42,76.91,76.91,0,0,0-9.37-4.07,43.75,43.75,0,0,0-14-2,44.92,44.92,0,0,0-12.74,1.63,44.45,44.45,0,0,0-6.7,2.58,77.76,77.76,0,0,1-9,3.94,40.72,40.72,0,0,1-13.06,1.85,41.83,41.83,0,0,1-11.91-1.5,41.77,41.77,0,0,1-6.27-2.42,76.91,76.91,0,0,0-9.37-4.07,43.75,43.75,0,0,0-14-2,41.79,41.79,0,0,0-19.45,4.21,76.87,76.87,0,0,1-9,3.94,40.72,40.72,0,0,1-13.06,1.85,42,42,0,0,1-11.92-1.5A41.64,41.64,0,0,1,196,7.28a77.6,77.6,0,0,0-9.37-4.07,43.75,43.75,0,0,0-14-2A45.05,45.05,0,0,0,159.9,2.83a44.31,44.31,0,0,0-6.69,2.58,77.76,77.76,0,0,1-9,3.94,40.72,40.72,0,0,1-13.06,1.85A41.83,41.83,0,0,1,119.2,9.7a41.22,41.22,0,0,1-6.26-2.42,77.78,77.78,0,0,0-9.38-4.07,43.68,43.68,0,0,0-14-2A45,45,0,0,0,76.83,2.83a44.45,44.45,0,0,0-6.7,2.58,77.76,77.76,0,0,1-9,3.94A40.6,40.6,0,0,1,48,11.2,31.44,31.44,0,0,1,37.56,9.53C33.17,8,29.74,5.75,26.09,3.73a34,34,0,0,0-5.77-2.62A21.74,21.74,0,0,0,13.45,0,29.56,29.56,0,0,0,4.56,1.5a4.23,4.23,0,0,0-2,1.24A3.22,3.22,0,0,0,1.8,4.85a5.39,5.39,0,0,0,.46,2.07,19.18,19.18,0,0,0,2.05,3.49C5.55,12.21,7,14.12,8.15,16a17,17,0,0,1,1.37,2.62A6,6,0,0,1,10,20.71a3.76,3.76,0,0,1-.31,1.57,5.94,5.94,0,0,1-1.85,2.19c-1.33,1.05-3.15,2-4.77,3.33A9.36,9.36,0,0,0,.92,30.23,6.92,6.92,0,0,0,0,33.72a7,7,0,0,0,.55,2.75A8.78,8.78,0,0,0,3.3,39.82c1.64,1.29,3.45,2.24,4.72,3.3a6,6,0,0,1,1.46,1.62,4.05,4.05,0,0,1,.21,3.54,5.79,5.79,0,0,1-1.85,2.19c-1.33,1.06-3.15,2-4.77,3.33A9.25,9.25,0,0,0,.92,56.24a7.09,7.09,0,0,0-.37,6.23A8.78,8.78,0,0,0,3.3,65.82c1.64,1.29,3.45,2.24,4.72,3.3a6.17,6.17,0,0,1,1.46,1.62,4.05,4.05,0,0,1,.21,3.54,5.79,5.79,0,0,1-1.85,2.19c-1.33,1.06-3.15,2-4.77,3.33A9.36,9.36,0,0,0,.92,82.23,6.92,6.92,0,0,0,0,85.72a7,7,0,0,0,.55,2.75A8.78,8.78,0,0,0,3.3,91.82C4.94,93.1,6.75,94.05,8,95.11a6,6,0,0,1,1.46,1.63,3.67,3.67,0,0,1,.52,2,3.76,3.76,0,0,1-.31,1.57,5.84,5.84,0,0,1-1.85,2.18c-1.33,1.06-3.15,2-4.77,3.34a9,9,0,0,0-2.15,2.43,7.09,7.09,0,0,0-.37,6.23,8.82,8.82,0,0,0,2.75,3.36c1.64,1.28,3.45,2.23,4.72,3.29a6.17,6.17,0,0,1,1.46,1.62,3.74,3.74,0,0,1,.52,2,3.79,3.79,0,0,1-.31,1.57,5.84,5.84,0,0,1-1.85,2.18c-1.33,1.06-3.15,2-4.77,3.34a9,9,0,0,0-2.15,2.43,7.09,7.09,0,0,0-.37,6.23,8.78,8.78,0,0,0,2.75,3.35c1.64,1.29,3.45,2.24,4.72,3.3a6,6,0,0,1,1.46,1.62,4.05,4.05,0,0,1,.21,3.54,5.79,5.79,0,0,1-1.85,2.19c-1.33,1-3.15,2-4.77,3.33a9.36,9.36,0,0,0-2.15,2.43A6.92,6.92,0,0,0,0,163.71a7,7,0,0,0,.55,2.75,8.78,8.78,0,0,0,2.75,3.35C4.94,171.09,6.75,172,8,173.1a6.17,6.17,0,0,1,1.46,1.62,3.74,3.74,0,0,1,.52,2,3.79,3.79,0,0,1-.31,1.57,5.84,5.84,0,0,1-1.85,2.18c-1.33,1.06-3.15,2-4.77,3.33a9.36,9.36,0,0,0-2.15,2.43A6.92,6.92,0,0,0,0,189.7a29.81,29.81,0,0,0,.16,4,5.71,5.71,0,0,0,.68,2.21A4.31,4.31,0,0,0,2,197.14a8.27,8.27,0,0,0,2.34,1.17c.89.32,2,.64,3.24,1.05,9.84,3.07,14.56,5.47,19.65,7.2a43.88,43.88,0,0,0,8.42,2,93.78,93.78,0,0,0,12.44.67,45,45,0,0,0,12.75-1.63A44.45,44.45,0,0,0,67.5,205a77.76,77.76,0,0,1,9-3.94A40.67,40.67,0,0,1,89.6,199.2a38.64,38.64,0,0,1,18.18,3.92,77.6,77.6,0,0,0,9.37,4.07,43.75,43.75,0,0,0,14,2,45.05,45.05,0,0,0,12.75-1.63,44.45,44.45,0,0,0,6.7-2.58,77,77,0,0,1,9-3.94,40.6,40.6,0,0,1,13.05-1.85,41.9,41.9,0,0,1,11.92,1.5,41.22,41.22,0,0,1,6.26,2.42,77.78,77.78,0,0,0,9.38,4.07,43.68,43.68,0,0,0,14,2A45,45,0,0,0,227,207.57a44.45,44.45,0,0,0,6.7-2.58,77.76,77.76,0,0,1,9-3.94,40.67,40.67,0,0,1,13.06-1.85,41.88,41.88,0,0,1,11.91,1.5,41.22,41.22,0,0,1,6.26,2.42,77.78,77.78,0,0,0,9.38,4.07,43.68,43.68,0,0,0,14,2,45,45,0,0,0,12.75-1.63,44.45,44.45,0,0,0,6.7-2.58,77.76,77.76,0,0,1,9-3.94,40.6,40.6,0,0,1,13-1.85,41.9,41.9,0,0,1,11.92,1.5,41.22,41.22,0,0,1,6.26,2.42,77.78,77.78,0,0,0,9.38,4.07,43.68,43.68,0,0,0,14,2,45,45,0,0,0,12.75-1.63,44.45,44.45,0,0,0,6.7-2.58,77.76,77.76,0,0,1,9-3.94,40.72,40.72,0,0,1,13.06-1.85,41.88,41.88,0,0,1,11.91,1.5,41.22,41.22,0,0,1,6.26,2.42,77.78,77.78,0,0,0,9.38,4.07,43.68,43.68,0,0,0,14,2,45,45,0,0,0,12.75-1.63,44.45,44.45,0,0,0,6.7-2.58,77.76,77.76,0,0,1,9-3.94A40.6,40.6,0,0,1,505,199.2a38.54,38.54,0,0,1,18.18,3.92,77.6,77.6,0,0,0,9.37,4.07,43.8,43.8,0,0,0,14,2A41.79,41.79,0,0,0,566,205a76.87,76.87,0,0,1,9-3.94,40.72,40.72,0,0,1,13.06-1.85,31.33,31.33,0,0,1,10.47,1.67c4.39,1.49,7.82,3.78,11.47,5.8a34,34,0,0,0,5.77,2.62,21.79,21.79,0,0,0,6.87,1.11,29.57,29.57,0,0,0,8.9-1.5Z"/><path class="cls-1" d="M392.81,149.24l3.54-10.1c.13-.33.38-.42.76-.27l3.27,1.57a.45.45,0,0,1,.22.65L392.11,157a.39.39,0,0,1-.34.21.43.43,0,0,1-.33-.24l-7.12-16.5a.44.44,0,0,1,.27-.65l6.92-2.53c.33-.09.51,0,.56.38Z"/><path class="cls-1" d="M404.13,142.48l-1-4.75c-.07-.36.08-.55.45-.58l9.2-.27c.38,0,.56.2.56.6l-.18,2.91a.47.47,0,0,1-.47.5l-8.06,2C404.38,142.93,404.2,142.8,404.13,142.48ZM404,152l8.44.42c.3,0,.42.18.38.5l-.18,2.37a.49.49,0,0,1-.4.49l-7.26,1a.44.44,0,0,1-.51-.33l-1-3.85C403.27,152.22,403.45,152,404,152Zm1.79-10.62c-.08-.41.1-.6.54-.56l5.12.68a.51.51,0,0,1,.45.53L410,154.16l-2.93.14Z"/><path class="cls-1" d="M418.2,156.54l-1.15-18.39c0-.34.16-.57.56-.69l5.33-.72c.38,0,.56.15.56.56L421.82,156a.37.37,0,0,1-.33.47l-2.89.38C418.35,156.9,418.21,156.79,418.2,156.54Zm2.64-14.69,3.85-5.06a.44.44,0,0,1,.69,0l6,4.35a.55.55,0,0,1,.2.49l-.29,3.09a.38.38,0,0,1-.16.27l-10.48,6.25-.49-1.93,7.3-6.45Zm3.18,5.64,8,6.36a.44.44,0,0,1,0,.7l-3.22,2.57a.37.37,0,0,1-.61-.09l-5.93-8.1Z"/><path class="cls-1" d="M435.94,144.29l-.92-5.82c-.06-.41.15-.57.63-.49l13.77,1.7a.46.46,0,0,1,.4.53l-.26,2.38a.5.5,0,0,1-.47.45l-12.5,1.74A.51.51,0,0,1,435.94,144.29Zm4.32,12.09.83-12.4c0-.27.21-.4.54-.38l2.8.26a.5.5,0,0,1,.4.59l0,12.36c0,.33-.14.45-.42.38l-3.7-.25A.48.48,0,0,1,440.26,156.38Z"/><path class="cls-1" d="M466,155l-5.71,1.86a.45.45,0,0,1-.45,0l-4.79-2.1a.6.6,0,0,1-.33-.47L453,139.63c0-.31.1-.51.45-.6l5.15-1.5q.63-.18.6.42L458.45,152l2.83,1.94,4.74-1.83Zm-1.65.92-.54-17a.57.57,0,0,1,.45-.6l4.47-1.08c.36-.09.53.08.5.52l-2,18.58c0,.3-.18.42-.47.36l-2.08-.34C464.48,156.39,464.38,156.24,464.37,156Z"/><path class="cls-1" d="M472.26,154.72l6.8-17.66a.42.42,0,0,1,.56-.32l3.05.9a.4.4,0,0,1,.31.56l-4.45,18.58a.53.53,0,0,1-.76.36l-5.18-1.65C472.25,155.41,472.14,155.16,472.26,154.72Zm5.93-6.35,5.38.67a.61.61,0,0,1,.56.74l0,2a.63.63,0,0,1-.56.65l-5.39.15Zm2.24-8.58,2.6-.9a.52.52,0,0,1,.67.41l6.87,15.16c.14.31.1.53-.11.67l-3.83,2a.51.51,0,0,1-.8-.32Z"/><path class="cls-1" d="M494.88,156.65l-1.34-18A.58.58,0,0,1,494,138l5.64-.92q.54-.09.45.51l-2.06,15.25,9.65-1.7c.44-.06.61.16.52.67l-.7,4.48a.56.56,0,0,1-.56.47l-11.48.45A.51.51,0,0,1,494.88,156.65Z"/><path class="cls-1" d="M518.08,155.62l1-18.83a.37.37,0,0,1,.23-.35q.2-.08.42.15l10.6,14a.35.35,0,0,1-.05.54l-1.48,1.45a.38.38,0,0,1-.6,0L523.72,148l.76,8.49c0,.42-.1.61-.45.56l-5.46-.85C518.21,156.17,518.05,156,518.08,155.62Zm11.13.52-1.1-19c-.06-.42.15-.58.63-.49l5.41,1.54a.5.5,0,0,1,.32.58l-1.64,17.74c0,.33-.2.47-.47.42l-2.71-.33A.44.44,0,0,1,529.21,156.14Z"/><path class="cls-1" d="M539.38,154.81c-.34.08-.53-.1-.56-.53l-1.66-15.12q-.06-.67.63-.69l13.66-.92c.57,0,.76.24.58.72l-.76,4.72c0,.3-.22.45-.56.45H542.4l-.26,11c0,.23-.16.36-.43.4Zm-1.25-.62a.51.51,0,0,1,.44-.67l12.07-1.46c.35,0,.51.16.5.52l-.34,4c0,.25-.21.36-.54.31l-11.19-.31a.42.42,0,0,1-.47-.38Zm3.6-6.9a.46.46,0,0,1,.32-.67l7.23-1.32c.37-.06.54.12.51.56l-.4,3.85q0,.42-.54.51l-5.77,0a.47.47,0,0,1-.59-.36Z"/><path class="cls-1" d="M557,154.81c-.35.08-.54-.1-.56-.53l-1.66-15.12q-.08-.67.63-.69l13.65-.92c.57,0,.77.24.59.72l-.76,4.72c0,.3-.22.45-.56.45h-8.31l-.27,11c0,.23-.16.36-.43.4Zm-1.26-.62a.51.51,0,0,1,.45-.67l12.07-1.46c.34,0,.51.16.49.52l-.33,4c0,.25-.21.36-.54.31l-11.2-.31a.43.43,0,0,1-.47-.38Zm3.61-6.9a.46.46,0,0,1,.31-.67l7.23-1.32c.38-.06.55.12.52.56l-.41,3.85c0,.28-.19.45-.53.51l-5.78,0a.46.46,0,0,1-.58-.36Z"/><path class="cls-1" d="M573.79,144.29l-.91-5.82c-.06-.41.14-.57.62-.49l13.77,1.7a.47.47,0,0,1,.41.53l-.27,2.38a.5.5,0,0,1-.47.45l-12.5,1.74A.51.51,0,0,1,573.79,144.29Zm4.33,12.09.82-12.4c0-.27.21-.4.54-.38l2.8.26a.5.5,0,0,1,.4.59l0,12.36c0,.33-.15.45-.43.38l-3.69-.25A.48.48,0,0,1,578.12,156.38Z"/><g id="logo"><path class="cls-2" d="M85.6,58.06,72.91,53.3a3.3,3.3,0,0,0-.37-.13l.9-2.8a.28.28,0,0,0-.18-.34l-1.2-.39a.28.28,0,0,0-.34.18l-2.66,8.29L48.92,119.6c-.52,1.59-.14,2.59,1.15,3l19.22,7.23a3,3,0,0,0,.37.11l-.58,2.71a.56.56,0,0,0,.43.66l.68.15a.55.55,0,0,0,.65-.43l1.73-8,14-64.54C86.93,59.2,86.6,58.41,85.6,58.06Z"/><path class="cls-2" d="M122.49,123.13l-1.66-3.75a.93.93,0,0,0,0-.13L103,78.16c-.29-.94-1-1.29-2.29-1.06L89.31,79.57h0l-.56-2.43a.26.26,0,0,0-.32-.2l-1.23.28a.26.26,0,0,0-.2.33l1.16,5,10.08,46c.3,1.23,1,1.67,2.12,1.32l19.51-8.31,1,2.24a.55.55,0,0,0,.73.28l.64-.28A.55.55,0,0,0,122.49,123.13Z"/><path class="cls-2" d="M105.37,74.56l-.93-2a11.28,11.28,0,0,0-10.69-6.49l-2.3.1h0a14.65,14.65,0,0,0,8.39-13.92h0a14.65,14.65,0,0,0,13.92,8.39h0a14.42,14.42,0,0,0-8.4,13.63Z"/><path class="cls-2" d="M118.2,65.82l-.14-1.71a8.72,8.72,0,0,0-6-7.58l-1.7-.55h0a11.36,11.36,0,0,0,9.84-7.85h0A11.36,11.36,0,0,0,128,58h0a11.18,11.18,0,0,0-9.77,7.64Z"/><path class="cls-1" d="M183.59,80.3a.27.27,0,0,0-.28-.27l-31.67.55-17.33.14c-1.41.06-2,.76-1.76,2.11l3.26,21-3.55.63a.41.41,0,0,0-.33.47l.17,1a.41.41,0,0,0,.47.33l4.8-.85.38,0,39.77-7c1-.12,1.49-.62,1.49-1.5l.53-15s0,0,0,0l3.78-.07a.28.28,0,0,0,.28-.29Z"/><path class="cls-1" d="M251.75,78.2a.27.27,0,0,0-.32-.23l-11.12,2-5.89.95.36-3.95a1.8,1.8,0,0,0-1.06-2.21l-6.22-1.3,11.6-1.52c1.46-.06,2.11-.73,1.94-2l-3.18-22.48c-.17-1.18-.88-1.56-2.11-1.15L204.27,58.5a1.51,1.51,0,0,0-.22.11l-4.26,1.66a.4.4,0,0,0-.23.52l.36.93a.4.4,0,0,0,.52.23l2.9-1.12,2.43,13.63c.23,1.12,1,1.62,2.29,1.5l12.48-1.63-2.81,9.26-22,3.57c-1.41.29-1.94,1.08-1.58,2.38l4.23,19c.35,1.29,1.09,1.74,2.2,1.32l10.26-3.46-5,16.69a1.82,1.82,0,0,0,1.5,2.56l20.19,4.41c1.58.41,2.47,0,2.64-1.33L232.78,99l14.78-5A2.09,2.09,0,0,0,249,91.92l-.44-11.29a1.58,1.58,0,0,0,0-.31l3.22-.57a.3.3,0,0,0,.23-.33Z"/><path class="cls-1" d="M309.67,92.89l-18.73-5.62.07-1.88.87-21.2a.26.26,0,0,0-.26-.28l-1.26-.06a.28.28,0,0,0-.28.27l-.14,3.46-19.42-1.06c-1.12-.11-1.59.44-1.41,1.68L271,81.28l-.89-.27-8.76-2.69a.28.28,0,0,0-.34.18l-.37,1.2a.29.29,0,0,0,.18.35l3.13,1-1.23,22.63q-.09,1.68,1.59,1.5l10-.52,3.44,24.51c.18,1,.85,1.44,2,1.32l8.11-.71a1.74,1.74,0,0,0,1.68-1.85l.87-24.12,5.74-.3-1.15,11.28c-.05.94.47,1.41,1.59,1.41l6.13-.62-.72,2.65a.55.55,0,0,0,.39.68l.67.18a.55.55,0,0,0,.68-.38l1.06-3.91a2.13,2.13,0,0,0,.08-.27l5.47-20.1C310.58,93.62,310.37,93.12,309.67,92.89Z"/><path class="cls-1" d="M348.15,84.07l-11.64-2.29a1.75,1.75,0,0,0-2.29,1.14l-4.9,17.24a.15.15,0,0,0,0,.07l-6.72,23.15a.56.56,0,0,0,.38.69l.67.2a.56.56,0,0,0,.68-.38l.72-2.48,18.37,5.16c1.29.35,2.05,0,2.29-1.06l4.05-38.88A2,2,0,0,0,348.15,84.07Z"/><path class="cls-1" d="M392.85,119.78l-3.44-12.26c0-.14-.06-.26-.1-.39l3.07-.47a.29.29,0,0,0,.23-.32l-.19-1.24a.29.29,0,0,0-.32-.23l-18.67,2.9-1.3.19,4-49.64a1.92,1.92,0,0,0-1.94-2.38L351.5,52.86a4,4,0,0,0-.79-.11l-.27-2.57a.29.29,0,0,0-.3-.25l-1.25.14a.28.28,0,0,0-.25.3l.66,6.24,7,71.1c.06,1.3.67,1.74,1.85,1.33L391.26,122C392.56,121.57,393.09,120.84,392.85,119.78Z"/><path class="cls-2" d="M408,68.75v.15l2,18.7c.12,1.47.8,2.05,2,1.76l34.65-5.91a1.89,1.89,0,0,0,1.5-2.11L447.64,71c0-1.06-.65-1.62-1.94-1.68l-36-2.29h0l-4.42-.28a.55.55,0,0,0-.59.52l-.05.7a.55.55,0,0,0,.51.58Z"/><path class="cls-2" d="M458.74,113.23l-.38-1.2a.29.29,0,0,0-.35-.18l-2.54.81-.86-11.84c0-1.29-.74-1.85-2.21-1.67l-45.32,5.9c-1.58.24-2.29,1-2.11,2.12l2.47,20.37c.29,1.47,1.08,2,2.38,1.67l38.26-12.32,10.48-3.32A.27.27,0,0,0,458.74,113.23Z"/><path class="cls-1" d="M520.21,96.08a.29.29,0,0,0-.32-.22l-3,.51L517.42,82c.12-1-.35-1.52-1.41-1.58l-41.43.33h-7.23a.56.56,0,0,0-.56.56V82a.54.54,0,0,0,.55.55h3.05c0,.11,0,.22,0,.33l3.26,21.08c.23,1.17.88,1.67,1.94,1.5l37.91-6.64,6.65-1.13a.29.29,0,0,0,.23-.32Z"/><path class="cls-1" d="M586.59,81.86a.27.27,0,0,0-.31-.23l-14,1.94-15.17,2L560,52.59c0-1.59-.62-2.44-2-2.56l-23.1,1.06a3.78,3.78,0,0,0-.63.1L534,48.62a.29.29,0,0,0-.3-.25l-1.25.12a.29.29,0,0,0-.25.3l.43,4.41a4.74,4.74,0,0,0,0,.63L539.06,127c.06,1.64.82,2.38,2.29,2.2l10.25-1.29-.21,2.54a.56.56,0,0,0,.5.6l.7.06a.55.55,0,0,0,.59-.5l.6-7,1.92-22.16,23.65,4.95c1.59.53,2.41-.09,2.47-1.85L583.94,85a3.46,3.46,0,0,0,0-1.17l2.61-.36a.28.28,0,0,0,.24-.31Z"/></g></g></g></svg>