<svg xmlns="http://www.w3.org/2000/svg" viewBox="0 0 220.88 39.35"><defs><style>.cls-1{fill:#fff;}</style></defs><title>アセット 73</title><g id="レイヤー_2" data-name="レイヤー 2"><g id="opening-3"><path class="cls-1" d="M22.6,9.2a9.32,9.32,0,0,0-1.88-3.52A8.75,8.75,0,0,0,13.8,2.8c-6.48,0-10.56,5-10.56,12.92s4.12,13,10.56,13a9.13,9.13,0,0,0,7.48-3.35,8.94,8.94,0,0,0,1.6-4l3.32.8A12.92,12.92,0,0,1,24,26.88c-2.24,3-5.88,4.63-10.36,4.63A12.77,12.77,0,0,1,4.32,28C1.52,25.2,0,20.84,0,15.84,0,10.68,1.6,6.32,4.56,3.4A12.63,12.63,0,0,1,13.72,0c3.76,0,6.8,1.08,9,3.24a12.24,12.24,0,0,1,3.12,5Z"/><path class="cls-1" d="M39,31a28.94,28.94,0,0,0,.28-4.51V5.08A29.33,29.33,0,0,0,39,.56h3.56a24.86,24.86,0,0,0-.32,4.56v6.76a13.66,13.66,0,0,1-.12,2,9.08,9.08,0,0,1,2.2-2.72,8.59,8.59,0,0,1,6-2.16C55,9,57.8,11.76,57.8,16.44v10A30.13,30.13,0,0,0,58.08,31h-3.6a27.94,27.94,0,0,0,.28-4.51V17c0-3.48-1.72-5.36-4.84-5.36a6.93,6.93,0,0,0-5.64,2.92,9.28,9.28,0,0,0-2,4.2v7.68A32.11,32.11,0,0,0,42.56,31Z"/><path class="cls-1" d="M85.92,28.12a10.52,10.52,0,0,1-3.68,2.43,11.81,11.81,0,0,1-4.16.8c-4.4,0-7.08-2.28-7.08-6.07,0-3.2,2-5.52,5.72-6.56,2.36-.68,4.28-.92,9.2-1V15.36c0-2.72-1.72-4.12-5-4.12a6.56,6.56,0,0,0-5,1.72,5.62,5.62,0,0,0-1.24,2.32l-3.12-.68A7.92,7.92,0,0,1,73.8,11c1.64-1.52,4-2.28,7-2.28,5.28,0,8,2.24,8,6.56V26.55a25.58,25.58,0,0,0,.32,4.4H85.92Zm0-8.08c-4.76.12-7,.4-8.84,1.16-2,.84-3,2.2-3,4.12,0,2.19,1.64,3.6,4.24,3.6a9.08,9.08,0,0,0,6.4-2.84,4.36,4.36,0,0,0,1.24-3.44Z"/><path class="cls-1" d="M102.68,39.35a32.86,32.86,0,0,0,.28-4.48V14a31.53,31.53,0,0,0-.28-4.6h3.2v2.28a13.17,13.17,0,0,1-.12,1.64A9.15,9.15,0,0,1,113.92,9c6.16,0,9.92,4.2,9.92,11.16,0,6.8-3.84,11.15-9.84,11.15a9.55,9.55,0,0,1-8.24-4.23,22.22,22.22,0,0,1,.16,2.8v4.95a30.39,30.39,0,0,0,.28,4.52Zm18-19.19c0-5.44-2.56-8.56-7-8.56S106,15,106,20.2a9,9,0,0,0,2.28,6.39,7.84,7.84,0,0,0,5.48,2.12C118.08,28.71,120.72,25.48,120.72,20.16Z"/><path class="cls-1" d="M142.68,3.44a28.92,28.92,0,0,0-.28,4.44V9.4h1.92a24.58,24.58,0,0,0,4.08-.24v3a24,24,0,0,0-4.08-.24H142.4V25.88a2.9,2.9,0,0,0,.52,2.12,2.75,2.75,0,0,0,2,.67,5.54,5.54,0,0,0,3.16-1l.88,2.8a10.76,10.76,0,0,1-4.52.92,5.48,5.48,0,0,1-3.92-1.24c-.8-.8-1.12-1.95-1.12-3.83V12h-1.6a26.76,26.76,0,0,0-3.6.24v-3a18.13,18.13,0,0,0,3.6.24h1.6V7.88a30.35,30.35,0,0,0-.28-4.44Z"/><path class="cls-1" d="M162.28,20.64c.12,2.68.52,4.15,1.6,5.6A6.69,6.69,0,0,0,169.52,29a6.54,6.54,0,0,0,6.6-4.68l2.8,1.12a9.51,9.51,0,0,1-2.2,3.31,10,10,0,0,1-7.24,2.8c-6.28,0-10.24-4.39-10.24-11.31s3.92-11.32,9.92-11.32c5.16,0,8.88,3.32,9.68,8.68,0,.44.2,2,.28,3.08Zm13.64-2.52a7.3,7.3,0,0,0-2.12-4.92,6.49,6.49,0,0,0-4.72-1.8,6.26,6.26,0,0,0-5.68,3.48,8.37,8.37,0,0,0-1,3.24Z"/><path class="cls-1" d="M204.72,12.48a9.49,9.49,0,0,0-3.24-.6,5.9,5.9,0,0,0-4.92,2.44,6.58,6.58,0,0,0-1.48,4v8.16a31.25,31.25,0,0,0,.28,4.47h-3.6a36.34,36.34,0,0,0,.28-4.51V13.92a29,29,0,0,0-.28-4.52h3.32v2.28a11.63,11.63,0,0,1,0,1.2,7,7,0,0,1,2.2-2.44A8,8,0,0,1,202,9a18.37,18.37,0,0,1,3.56.36Z"/><path class="cls-1" d="M220.88,13.36h-4v-4h4Zm-4,17.59V27h4V31Z"/></g></g></svg>