<svg xmlns="http://www.w3.org/2000/svg" viewBox="0 0 401.2 89.47"><defs><style>.cls-1{fill:#009299;}.cls-2{fill:none;stroke:#009299;stroke-linecap:round;stroke-linejoin:round;stroke-width:4px;stroke-dasharray:10 15;}</style></defs><title>title</title><g id="レイヤー_2" data-name="レイヤー 2"><g id="menu"><g id="title"><path class="cls-1" d="M33.16,29a3.58,3.58,0,0,1-.8-2.88l.8-1.6a6.06,6.06,0,0,1,3.44-1,12.61,12.61,0,0,1,1.52.16l.16.16H48.44l3.36-.32H63l1.6.8a3.58,3.58,0,0,1,.8,2.88l-.8,1.6a4.81,4.81,0,0,1-2.4,1H51.8l-3.36.32H38.28A8.89,8.89,0,0,1,33.16,29ZM48.44,41.52a40.25,40.25,0,0,1-9.52-1.12,3.58,3.58,0,0,1-.8-2.88l.8-1.6a14.71,14.71,0,0,1,5.36-1c.48,0,1.25,0,2.32.16l5.2.32H59l1.6.8a3.81,3.81,0,0,1,.88,2.4,3.53,3.53,0,0,1-.08.8L60.6,41a4.23,4.23,0,0,1-2.4,1C55,41.68,51.74,41.52,48.44,41.52Zm-6,36.24a4.85,4.85,0,0,1-.8-3l.16-.64q-3.21-6.17-3.2-15.28a3.53,3.53,0,0,1,1-2.24,10.57,10.57,0,0,1,4.48-1h4.88q2.64.24,8,.4a30.27,30.27,0,0,1,7.52,1.2A14.33,14.33,0,0,1,66,64v7.84a7,7,0,0,1,.08,1.2,8.72,8.72,0,0,1-1.2,4.56,6.54,6.54,0,0,1-3.52,1.28H45.16A5,5,0,0,1,42.44,77.76Zm5.28-25a30,30,0,0,1-8.16-1.12,3.58,3.58,0,0,1-.8-2.88l.8-1.6a5.77,5.77,0,0,1,3.28-1,9.43,9.43,0,0,1,1.52.16c.75,0,1.84.08,3.28.08q4.63.16,7.68.4a36,36,0,0,1,5.92,1,3.58,3.58,0,0,1,.8,2.88l-.8,1.6a7.74,7.74,0,0,1-4,1A7.59,7.59,0,0,1,56,53.2,67.78,67.78,0,0,0,47.72,52.72Zm.76-35.4c-2.11-1.09-4.49-2.44-7.16-4a3.58,3.58,0,0,1-.8-2.88l.8-1.6a4.83,4.83,0,0,1,3-.8q3.2,1.75,6.48,3.36l6.4,3.2a3.58,3.58,0,0,1,.8,2.88l-.8,1.6a4.85,4.85,0,0,1-2.4,1A41.82,41.82,0,0,1,48.48,17.32ZM59.64,72.64v-1l.16-.16V64l-.16-1.52L45,61.84v1.68a48.29,48.29,0,0,0,1.2,5.08,21.38,21.38,0,0,0,1.68,4Zm14.72,4A12.06,12.06,0,0,1,73.08,71a5,5,0,0,1-2.56-1,3.6,3.6,0,0,1-.8-2.88l.8-1.6L72,65V63.52q-.48-4.32-.88-6.56c-.32-1.55-.67-3.65-1-6.32l.8-1.6c1.07-.43,2.67-1,4.8-1.76h6.88l.48.16V45.36L77.88,45H66.68a3.51,3.51,0,0,1-2.24-1,3.58,3.58,0,0,1-.8-2.88l.8-1.6,1.6-.8h10.4V37.52L76,31H71.64l-2.08.16-1.6-.8a3.58,3.58,0,0,1-.8-2.88l.8-1.6a12.83,12.83,0,0,1,5.52-1.2,16.75,16.75,0,0,1,1.84.08V23.44l-.16-2.64H66a3.53,3.53,0,0,1-2.24-1A3.58,3.58,0,0,1,63,17l.8-1.6,1.6-.8h9v-.48a18.71,18.71,0,0,1-.48-5.6l.8-1.6a3.58,3.58,0,0,1,2.88-.8l1.6.8a23.14,23.14,0,0,1,1.44,7.68h8V10a7.83,7.83,0,0,1,1.2-4.24A3.58,3.58,0,0,1,92.68,5l1.6.8a4.89,4.89,0,0,1,.88,2.8,4,4,0,0,1-.08.88l-.16,5.28h6.72l1.6.8a3.58,3.58,0,0,1,.8,2.88l-.8,1.6a6.11,6.11,0,0,1-3.36,1L95.24,21v4.4a3.58,3.58,0,0,1,2.88.8,4.89,4.89,0,0,1,.8,3l-.8,1.6a3.58,3.58,0,0,1-2.88.8v7.52h.64L102,39a4,4,0,0,1,2.56,1.12,3.58,3.58,0,0,1,.8,2.88l-.8,1.6a4.85,4.85,0,0,1-3,.8L96,45.2l-6.72.32v1.6l.16.64q2.16.24,6.48.4a17.19,17.19,0,0,1,6.16,1.36,7.2,7.2,0,0,1,1.12,3.92,12.42,12.42,0,0,1-.16,1.52l-.8,10.48a3.22,3.22,0,0,1,2.24.8,3.58,3.58,0,0,1,.8,2.88l-.8,1.6a3.46,3.46,0,0,1-2.4.8A6.33,6.33,0,0,1,101,75.2a3.58,3.58,0,0,1-2.88.8l-1.6-.8a4.78,4.78,0,0,1-.8-3l.16-.8H79.48V73L79.8,75l-.8,1.6a4,4,0,0,1-2.4,1A3.56,3.56,0,0,1,74.36,76.64Zm8.8-23-6.4-.16v.8l.16.8,6.24.16Zm0,11.44v-3.6l-5.28-.16v1l.32,2.8ZM88.92,20.8H81.4v2.48l.32,1.6,7.2.48Zm0,10.8-6.72-.32v1.28l.64,6.56,6.08.16Zm7.76,23L89.48,54v1.92l7.2.48ZM96,65.12v-.48l.16-1.92-6.72-.56v3Z"/><path class="cls-1" d="M130.44,79.2a4.78,4.78,0,0,1-.8-3,50.79,50.79,0,0,0,4-9.6,34,34,0,0,0,1.4-9.68V38.8a55.15,55.15,0,0,0-1.64-8.44q-1.17-4.2-3-9.08l.8-1.6a93.63,93.63,0,0,1,10.56-1.2q5.43-.32,13.68-.56v-.48a35.35,35.35,0,0,0-1.2-3.84,11.77,11.77,0,0,1-.88-4l.8-1.6a3.58,3.58,0,0,1,2.88-.8l1.6.8a32.84,32.84,0,0,1,3.2,9.92h8l5.44-.16.16.16h13.84l1.6.8a3.61,3.61,0,0,1,.8,2.88l-.8,1.6a4.3,4.3,0,0,1-2.4,1H175l-4.8-.16-.16.16H150.68L138.6,25v.64a29.86,29.86,0,0,1,1.6,6.48,39.71,39.71,0,0,0,1.2,6.64V56.88q-.65,13.2-6.48,22.32A3.6,3.6,0,0,1,132,80Zm22.16-3a7.18,7.18,0,0,1-3.52-1,3.58,3.58,0,0,1-.8-2.88l.8-1.6a8.5,8.5,0,0,1,4-1,16.25,16.25,0,0,1,1.76.16l2.4.32h8v-.32a11.45,11.45,0,0,1-.8-4.48,29.44,29.44,0,0,0-.32-4.56h-5l-5.6.48-1.6-.8a3.58,3.58,0,0,1-.8-2.88l.8-1.6a12.31,12.31,0,0,1,4-1.16,42.7,42.7,0,0,1,5.24-.28h2.88V51.76L164,48.24h-.32l-.32.64a4.85,4.85,0,0,1-3,.8,26.48,26.48,0,0,1-4.52-1.88c-1.47-.77-3.11-1.75-4.92-2.92l-2.24,3.68h-.32l-1,1.6a3.6,3.6,0,0,1-2.88.8l-1.6-.8a4.77,4.77,0,0,1-.8-3,58.16,58.16,0,0,0,8.64-18.24,3.58,3.58,0,0,1,2.88-.8l1.6.8a3.61,3.61,0,0,1,.8,2.88,27.85,27.85,0,0,1-2.24,7.52,87.26,87.26,0,0,0,9.6,5.12v.16h.32V43.12l-.16-.16V36.24l-.16-1.76a3.53,3.53,0,0,1,1-2.24,3.58,3.58,0,0,1,2.88-.8l1.6.8a5.56,5.56,0,0,1,1,3.68v7H170a42,42,0,0,0,5.6-14.4,3.58,3.58,0,0,1,2.88-.8l1.6.8a4.08,4.08,0,0,1,.88,2.56,3.53,3.53,0,0,1-.08.8,30,30,0,0,1-1.44,6.4q3.27,2.24,6,3.72a29.52,29.52,0,0,0,5.48,2.36,3.61,3.61,0,0,1,.8,2.88l-.8,1.6a4,4,0,0,1-2.56.88,3.53,3.53,0,0,1-.8-.08,22.36,22.36,0,0,1-5.6-2.4q-3.53-2.09-5.36-3a15.91,15.91,0,0,1-3.84,5.12l-1.92.16-.64-.16V51.6l.16,2.4h2.72l8-.48,1.68.8a3.61,3.61,0,0,1,.8,2.88l-.8,1.6a19.62,19.62,0,0,1-6,1.2l-6.4.24V61q.39,4.88,1,9h1.92l15.28-.64,1.6.8a3.61,3.61,0,0,1,.8,2.88l-.8,1.6a37.67,37.67,0,0,1-10,1.28c-3.52,0-6.94.16-10.24.48H157.24A31.57,31.57,0,0,0,152.6,76.24Z"/><path class="cls-1" d="M269.32,38.4q-4.08-.16-6-.4h-7.2l-2.4-.32H239.48l-5.92.32H219.08a3.51,3.51,0,0,1-2.24-1,3.58,3.58,0,0,1-.8-2.88l.8-1.6,1.6-.8h15.12l5.92-.32h14.24l2.4.32h7.2l2.16.16q4.95.31,8.28.68a55.09,55.09,0,0,1,6.44,1.08,3.61,3.61,0,0,1,.8,2.88l-.8,1.6a6.55,6.55,0,0,1-3.76,1,6.84,6.84,0,0,1-1.2-.08A43.93,43.93,0,0,0,269.32,38.4Z"/><path class="cls-1" d="M347.8,75.6a16.63,16.63,0,0,1-3.2-6.08h-2.08l-4,8.16a3.6,3.6,0,0,1-2.88.8l-1.6-.8a3.81,3.81,0,0,1-.88-2.4,3,3,0,0,1,.08-.8l1.92-4.8h-3.68l-3.2.48a3.56,3.56,0,0,1-2.24-1Q324.6,63,322.92,56.48a66.8,66.8,0,0,1-2-13.12l.8-1.6.64-.32v-.32h-9.2l-1.28.16a3.51,3.51,0,0,1-2.24-1A17.72,17.72,0,0,1,307.88,33a36.85,36.85,0,0,0-1-7.68V15.92l-.48-5.12h-.32a3.58,3.58,0,0,1-.8-2.88l.8-1.6a5,5,0,0,1,3-1,9.21,9.21,0,0,1,1.36.16l1.76.32H322c.69,0,1.76.08,3.2.08,3,.11,5.45.25,7.4.44a29.11,29.11,0,0,1,5.56,1.08,3.61,3.61,0,0,1,.8,2.88l-.8,1.6a6.06,6.06,0,0,1-3.44,1,12.23,12.23,0,0,1-1.52-.16l-5.12-.32v3.36a24.85,24.85,0,0,1,7.68,1.44,23.53,23.53,0,0,1,1,6.8q0,2.4.16,7l-.8,1.6a8.43,8.43,0,0,1-4.56,1.2,11.85,11.85,0,0,1-1.52-.08l-1.76-.16v.32l.16,1.12h2.24l5-.32,1.6.8a3.61,3.61,0,0,1,.8,2.88l-.8,1.6h-.16v.32h9.12l.16.16h10.72l1.6.8A68,68,0,0,1,360,53.76q.07,5.68.64,12.72l-.8,1.6a8.13,8.13,0,0,1-4.08,1.2l-4.32.24v.32l.8,1.6c.53.27,1.92.85,4.16,1.76a3.61,3.61,0,0,1,.8,2.88l-.8,1.6a5.16,5.16,0,0,1-3,1A10.48,10.48,0,0,1,347.8,75.6Zm-26.4-60,.48-.16V12.08h-9v1.44L313,15.6Zm9.28,10.48-.16-3.68a24.85,24.85,0,0,0-3.84-.52c-1.34-.08-3-.12-5.12-.12l-.16.16h-8.24v3.36l.16,1.28,17.36,1Zm-8.48,8.8V34.4L322,33.28l-7.92-.48v.48l.16,1.6Zm18.72,13,2.24-.32H353.4v-.8h-7l-.16-.16h-9.44l-9.12.32v.48l5.92.48Zm12.8,6.72-.16-.8h-10.4l-2.24.32h-7.36l-5-.32v.32l.32,1.12h8l.16-.16h7.2a73.1,73.1,0,0,0,9.44.48Zm-22.4,9,4.8-.32h16.16l2.08-.16V62l-10.08-.64h-7.2l-6.24.16v1L331,63.6Zm8.8-33.2a4.77,4.77,0,0,1-.8-3,23,23,0,0,0,2.4-5.44V13a3.53,3.53,0,0,1,1-2.24,3.58,3.58,0,0,1,2.88-.8l1.6.8a7.6,7.6,0,0,1,1,3.84c0,.32-.06.91-.16,1.76h9l.16.16h9.68l1.6.8a3.74,3.74,0,0,1,.8,3l-.8,1.6a4.88,4.88,0,0,1-2.4,1h-8.88l-.16-.16H347.8a18.88,18.88,0,0,1-3,7.68,4.88,4.88,0,0,1-2.4,1A3.51,3.51,0,0,1,340.12,30.4Zm24.08,5.76H353.4a7.68,7.68,0,0,1-1.28.08,9.09,9.09,0,0,1-4.64-1.2,3.58,3.58,0,0,1-.8-2.88l.8-1.6a8.5,8.5,0,0,1,4-1,16.25,16.25,0,0,1,1.76.16l.16.16h11.28a5,5,0,0,1,2.56,1,3.61,3.61,0,0,1,.8,2.88l-.8,1.6a4.71,4.71,0,0,1-2.88,1Z"/><line class="cls-2" x1="2" y1="2" x2="2" y2="87.47"/><line class="cls-2" x1="399.2" y1="2" x2="399.2" y2="87.47"/></g></g></g></svg>