<svg xmlns="http://www.w3.org/2000/svg" viewBox="0 0 62.57 66.88"><defs><style>.cls-1{fill:#3c2213;}</style></defs><title>アセット 7</title><g id="レイヤー_2" data-name="レイヤー 2"><g id="load-view"><path class="cls-1" d="M30.73,10.8c.8-.32.8-.32,1-.48a.08.08,0,0,0,.08-.08,5.06,5.06,0,0,1,2.39-.72,2.85,2.85,0,0,1,2.73,2.64c0,1.6-1.84,2.64-2.88,3.2a59,59,0,0,1-12,4,.7.7,0,0,0-.64.64c-2.79,9-8.64,23.36-15.2,32.56C5.2,53.92,4.4,55,2.8,55S.64,53.36.64,52A6.81,6.81,0,0,1,2,48.16c4.4-6.08,11.2-16,14.72-26.32.32-1,.08-1.44-1-1.28-1.52.08-3,.16-4.48.16-5.44,0-8.32-2-11-6.88A1.28,1.28,0,0,1,.56,12a1.71,1.71,0,0,1,1.84-.08l.16.16c2.56,2.56,4.56,3.84,9.6,3.84a39.3,39.3,0,0,0,5.92-.64.83.83,0,0,0,.72-.72A59.27,59.27,0,0,0,20.08,6.4,1.85,1.85,0,0,0,18.8,4.16h-.15a25.59,25.59,0,0,0-2.89-.8A1.24,1.24,0,0,1,14.64,2,1.35,1.35,0,0,1,15.76.48,17.73,17.73,0,0,1,19.28,0a11.3,11.3,0,0,1,5.6,1.28c1.28.88,1,2.16-1.27,10.88-.33,1,.24,1.52,1.27,1.12a41.9,41.9,0,0,0,5.69-2.48ZM44.65,47.68a.86.86,0,0,0,.71.8,40.47,40.47,0,0,1,12.25,5.84c3.44,2.32,5,4.64,5,6.48,0,1.52-.56,2.64-1.92,2.64-1,0-1.92-.72-3.12-1.92l-.64-.64a30.73,30.73,0,0,0-10.64-7c-.81-.32-1.12-.08-1,.72A9.25,9.25,0,0,1,45.29,56c0,6.72-5,10.88-13,10.88C24,66.88,19.61,62.72,19.61,58c0-6.48,6.47-10.56,17-10.56h2.56c.88.08,1.11-.24,1-1.12L40.09,45a69.92,69.92,0,0,1-.48-7.92,13.13,13.13,0,0,1,4-10.16c2.24-2.16,5.28-3.28,7.84-4.4l1.12-.48c1.44-.64,1.12-1.36-.08-2.24-1.84-1.52-4.72-2.16-7.92-2.24a1.39,1.39,0,0,1-1.52-1.52,1.56,1.56,0,0,1,1.52-1.68h1.76a18.71,18.71,0,0,1,7.92,1.36c4.56,1.84,7.12,5.36,7.12,8.32,0,2-.72,3-2.32,3a4.69,4.69,0,0,1-1.84-.32,14.23,14.23,0,0,0-4.08-.48H53c-2.88.4-5.6,1.28-7.44,3.12s-2.32,4-2.24,6.8c.07,1.52.4,4.24.8,7.36Zm-4,5.12c0-.4-.08-.48-.48-.56a35.67,35.67,0,0,0-6-.56c-7.35,0-11.2,2.8-11.2,5.52,0,2.56,2.65,4.64,8.4,4.64,7.85,0,9.29-3.84,9.29-8.4Z"/></g></g></svg>