<svg xmlns="http://www.w3.org/2000/svg" viewBox="0 0 74.83 73.83"><defs><style>.cls-1{fill:#3c2213;}</style></defs><title>アセット 8</title><g id="レイヤー_2" data-name="レイヤー 2"><g id="load-view"><path class="cls-1" d="M63.15,7.78a.87.87,0,0,0,.72-.32L66,4.74q1.2-1.56,2.88-.24l4.56,3.84a1.36,1.36,0,0,1,.4,2,2.18,2.18,0,0,1-1.92.8H12.51c-.72,0-1,.24-1,1V29c0,13.12-.48,30.72-9.44,43.52v.08c-.32.56-.88.64-1.6.24A1.07,1.07,0,0,1,.19,71.3C6.35,58.5,6.83,43.06,6.83,29.06V8.34C6.83,6.42,8,5.86,9.55,6.58L12,7.7a1,1,0,0,0,.48.08h22.8c.72,0,1-.24,1-1V2.1A1.85,1.85,0,0,1,38.51,0l3.2.4C43,.58,44,1.62,43.15,2.58a3.9,3.9,0,0,1-1.44.88c-.48.24-.8.48-.8,1V6.82c0,.72.24,1,1,1Zm-2,48.88c-.16-.08-.24,0-.4.24a3.44,3.44,0,0,1-2.32,1.28.89.89,0,0,0-.72.56l-.88,2q-.72,1.56,1,1.44c.72,0,1.6-.08,2.32-.08,1.12-.08,1.36-.64.64-1.28l-1.28-1.36a.75.75,0,0,1,.08-1.2l.24-.08a1.72,1.72,0,0,1,1.52-.08c4.64,1.84,6.24,4.64,6.24,6.56a2.11,2.11,0,0,1-2.88,2.16c-.16-.08-.4-.16-.48-.32L63.87,66l-.16-.16-.16-.72a.87.87,0,0,0-1-.4l-3.6.64L53.07,66.5a1.68,1.68,0,0,0-.64.48l-.64.56c-.8.4-1.36.24-1.68-.72l-.88-2.24c-.56-1.36-.08-2.16,1.52-2.16.56,0,1-.08,1.52-.08a.87.87,0,0,0,.88-.64,36.36,36.36,0,0,0,1.28-5.28,1.91,1.91,0,0,1,2.32-1.68l3,.48c.4.08.56-.08.56-.48s-.16-.56-.56-.56H48c-.72,0-1,.24-1,1v12.4c0,.8.24.88,3.36.88h9c3.92,0,7.28-.08,8.56-.16a1.69,1.69,0,0,0,1.44-.88A22.17,22.17,0,0,0,71,62.1c.08-.48.4-.64.88-.64a.59.59,0,0,1,.64.64l.24,5c0,.4.24.64.64.88a2.08,2.08,0,0,1,1.44,1.92c0,2.32-2.32,3.12-15.52,3.12H49.87c-6.16,0-7.36-1.12-7.36-4.72V55.14c0-.72-.24-1-1-1H36.43a.76.76,0,0,0-.88.72C32.75,66.1,25,71,11.31,73.78c-.8.16-1.36-.08-1.52-.8v-.16a1,1,0,0,1,.72-1.36c11.84-3.28,17.68-7.92,19.84-16.08.24-.88,0-1.2-.88-1.2H25.23c-.72,0-1,.24-1,1V56.9c0,.64-1.76,1.84-3.6,1.84h-.16l-.16-.08a.5.5,0,0,1-.48-.32l-.08-.16a1,1,0,0,1-.08-.48V36.1c0-1.76.88-2.16,2.4-1.52l2.32,1c0,.08.16.08.32.08h9.44a1,1,0,0,0,.88-.48c.4-1,1-2.24,1.44-3.44A2,2,0,0,1,39,30.34h.16l2.8.88c1.36.4,1.92,1.52,1,2.24a4.67,4.67,0,0,1-1.76.64c-.32,0-.48.16-.72.4L40,35c-.56.48-.48.64.16.64H59.23A.87.87,0,0,0,60,35.3l1-1.12a2.18,2.18,0,0,1,2.8-.24l2.88,2.32h.08c1,1,1.12,2,.16,2.72h-.16l-1.28.56a.87.87,0,0,0-.64.88v14a.48.48,0,0,1-.08.32v.08a.56.56,0,0,1-.32.4,8,8,0,0,1-2.72,1.44ZM25.55,27.54c0-1.76-.56-2-1.76-.72a51.06,51.06,0,0,1-10.4,7.76,1.17,1.17,0,0,1-1.68-.32A1.25,1.25,0,0,1,12,32.5,39,39,0,0,0,22,22.26c.64-.8.32-1.36-.8-1.36h-6a1.85,1.85,0,0,1-2-1.6c-.24-1,.24-1.6,1.28-1.6H24.59c.72,0,1-.24,1-1v-3.6a1.85,1.85,0,0,1,2.32-2.08l2.64.32c1.2.16,2,1,1.36,2l-.16.16a2.24,2.24,0,0,1-1,.64,1,1,0,0,0-.72,1v1.52c0,.72.24,1,1,1h1.36c.32,0,.48-.16.72-.4l1.36-1.68a2,2,0,0,1,2.88-.32c1,.88,2.16,1.84,3.36,2.88a1.77,1.77,0,0,1,.4,1.68c0,.08,0,.08-.08.24a2.21,2.21,0,0,1-1.84.8H30.43c-.32,0-.4.08-.4.4s.16.4.4.48c6.4,1.28,8.48,4.16,8.48,6.08A2.2,2.2,0,0,1,36,30l-.4-.16-.72-.72a28,28,0,0,0-3.36-3.68c-.88-.88-1.52-.56-1.52.72v7c0,.64-1.84,1.6-3.36,1.6h-.48a.59.59,0,0,1-.64-.64ZM24.27,42.18c0,.72.24,1,1,1H38.75c.72,0,1-.24,1-1V39.94c0-.72-.24-1-1-1H25.23c-.72,0-1,.24-1,1Zm0,7.84c0,.72.24,1,1,1H38.75c.72,0,1-.24,1-1V47.46c0-.72-.24-1-1-1H25.23c-.72,0-1,.24-1,1Zm38-29.12c-1.44,0-1.76.64-.56,1.52A50.12,50.12,0,0,0,72.83,28.5c.08,0,.08,0,.24.08a1.37,1.37,0,0,1,.56,1v.16a1.19,1.19,0,0,1-.88,1,3.49,3.49,0,0,0-1.52,1c-1,1-2.08,1.6-3.44.72a36.61,36.61,0,0,1-8.48-7.76c-1.28-1.76-1.92-1.52-1.92.56v7.6c0,.64-1.76,1.52-3.44,1.52h-.48a.59.59,0,0,1-.64-.64V26.18c0-1.44-.56-1.76-1.68-.72a41,41,0,0,1-8.64,5.6,1.43,1.43,0,0,1-1.92-.4l-.16-.16a1.45,1.45,0,0,1,.48-1.76,31.67,31.67,0,0,0,7.52-6.4c.88-.88.56-1.44-.64-1.44H44.11a1.85,1.85,0,0,1-2-1.6c-.24-1,.24-1.6,1.28-1.6h8.48c.72,0,1-.24,1-1V13.62a1.85,1.85,0,0,1,2.32-2.08l2.64.24H58c1.12.32,1.92,1.12,1.52,2.08l-.16.16a5.71,5.71,0,0,1-1.2.64,1,1,0,0,0-.72,1v1c0,.72.24,1,1,1h6c.32,0,.48-.16.72-.4a14.45,14.45,0,0,1,1.44-1.84,1.85,1.85,0,0,1,2.88-.24c1,.88,2.16,1.92,3.44,3a1.31,1.31,0,0,1,.4,1.84,2.32,2.32,0,0,1-1.92.88Zm-18,21.28c0,.72.24,1,1,1H59.31c.72,0,1-.24,1-1V39.94c0-.72-.24-1-1-1H45.23c-.72,0-1,.24-1,1Zm1,4.32c-.72,0-1,.24-1,1V50c0,.72.24,1,1,1H59.31c.72,0,1-.24,1-1V47.46c0-.72-.24-1-1-1Z"/></g></g></svg>