<svg xmlns="http://www.w3.org/2000/svg" viewBox="0 0 73.43 73.7"><defs><style>.cls-1{fill:#3c2213;}</style></defs><title>アセット 9</title><g id="レイヤー_2" data-name="レイヤー 2"><g id="load-view"><path class="cls-1" d="M61.77,20.94c.32,0,.48-.16.72-.4L65,17.66a2,2,0,0,1,2.88-.32,60.41,60.41,0,0,1,4.88,4l.16.08a1.36,1.36,0,0,1,.32,1.84,2.23,2.23,0,0,1-2,1H57.53c-.56,0-.72.24-.88.72-2.56,11.52-5.92,20.24-11.44,27.6-.56.64-.48,1.12.32,1.52C62.89,61.34,68,67.9,68,71.34c0,1.76-1.28,2.56-3,2.16a.87.87,0,0,1-.4-.08l-.48-.32L64,72.94c-4.56-4.56-12.4-10.16-22.56-15.36a.77.77,0,0,0-1,.16C32.09,65.5,19.77,70.62,1.61,73.66a1.26,1.26,0,0,1-1.52-1,.92.92,0,0,1,.8-1.36c15.68-3.44,26.4-8.08,34.32-15.2.72-.64.64-1.12-.24-1.52C29.77,52.3,23.53,49.9,17.53,48a.74.74,0,0,0-1,.32l-.32.72L15,51.42v.16a1.46,1.46,0,0,1-1,.8,5.89,5.89,0,0,1-2.64-.08c-1.44-.24-1.76-1.52-1.12-2.72a262.2,262.2,0,0,0,11.6-24c.4-1,.08-1.36-.88-1.36H2.09a2,2,0,0,1-2-1.6L0,22.46a1.25,1.25,0,0,1,1.36-1.52H23.05a.9.9,0,0,0,.88-.56,198.39,198.39,0,0,0,7.2-18.8A1.92,1.92,0,0,1,33.53.06l3.52.72C38.41,1,39.13,2.06,38.25,3a3.6,3.6,0,0,1-1.76.8,1.1,1.1,0,0,0-.8.64c-1.52,3.84-3.52,9-6.16,15.12-.4,1-.08,1.36.88,1.36ZM28.25,24.22a.9.9,0,0,0-.88.56c-3,6.8-5.84,13.44-8.8,19.52-.32.72-.16,1.12.56,1.36,7.6,2,13.92,3.84,19.68,5.84a.81.81,0,0,0,1-.32c5.52-6.8,8.72-15.12,11.2-25.76.16-.88-.08-1.2-1-1.2Z"/></g></g></svg>