<svg xmlns="http://www.w3.org/2000/svg" viewBox="0 0 76.28 73.27"><defs><style>.cls-1{fill:#3c2213;}</style></defs><title>アセット 10</title><g id="レイヤー_2" data-name="レイヤー 2"><g id="load-view"><path class="cls-1" d="M18.76,36.34a.91.91,0,0,0-.64.24A89.55,89.55,0,0,1,1.72,48.66a1,1,0,0,1-1.44-.24c-.4-.64-.4-1.12.16-1.36L.6,46.9a83.9,83.9,0,0,0,11.12-9c1-1,.8-1.6-.64-1.6H6.44a1.77,1.77,0,0,1-1.92-1.6c-.4-1,.08-1.68,1.12-1.6H16.12a.87.87,0,0,0,.72-.32c1.6-1.68,3.2-3.6,4.88-5.76.72-1,.48-1.52-.72-1.52H3a1.91,1.91,0,0,1-2-1.68c-.24-1,.24-1.6,1.28-1.6H16.44c.72,0,1-.24,1-1V14.1c0-.72-.24-1-1-1H6.84a2,2,0,0,1-2.08-1.68c-.24-1,.16-1.68,1.36-1.68H16.44c.72,0,1-.24,1-1V2.1A1.85,1.85,0,0,1,19.72,0l3.12.32H23c1,.32,2,1.12,1.36,2.08a3.56,3.56,0,0,1-1.52,1c-.48.24-.8.48-.8,1V9.06c0,.56.16.72.72.72h.32c.32,0,.48-.16.72-.4l1.68-1.92a1.82,1.82,0,0,1,2.8-.24c1,.64,2.08,1.68,3.28,2.64.64.64,1.12.56,1.52-.16q1.44-3,2.88-6.48A2,2,0,0,1,38.76,2l3.36,1.44c1.28.56,1.76,1.76.72,2.4a3.31,3.31,0,0,1-1.52.4,1.15,1.15,0,0,0-1,.56,98.65,98.65,0,0,1-8.8,14.64c-.48.56-.32.8.4.8h.64c.32,0,.48-.16.72-.4l1.6-2.08a2,2,0,0,1,2.88-.32c1,.88,2.4,2.08,3.68,3.28a1.52,1.52,0,0,1,.32,2.08,2.23,2.23,0,0,1-1.76.72H28.76c-.32,0-.48.16-.72.4-1.52,1.84-3,3.6-4.72,5.44-1.12,1.12-.88,1.68.64,1.68h5a.87.87,0,0,0,.72-.32l1-1.12a2,2,0,0,1,3,0l2.72,2.48c.88.88.8,2-.32,2.4a7,7,0,0,1-1.6.32.91.91,0,0,0-.64.24,59.81,59.81,0,0,1-6.08,5,.82.82,0,0,0-.4.48,3,3,0,0,1-1.76,2.24,1,1,0,0,0-.72,1v2c0,.8.32,1.12,1.12,1L39.4,46.5a1.09,1.09,0,0,1,1.44.88v.16a1.17,1.17,0,0,1-1,1.36l-1.68.48c-3.76,1-7.76,1.92-12.64,3.12a.76.76,0,0,0-.72.88V66.1c0,3.52-.48,6.08-6,7a2.15,2.15,0,0,1-2.32-1.52,3.91,3.91,0,0,0-1.12-1.44L15.24,70c-1-.56-2.8-1-5.6-1.36a1.13,1.13,0,0,1-1.12-1.28.93.93,0,0,1,1.12-1c2.32.24,7.6.48,8.88.48s1.6-.24,1.6-1.12V55c0-.8-.32-1-1.2-.88L7.08,56.74a1.08,1.08,0,0,0-.56.48l-.64.8c-.64.56-1.44.08-1.84-.88L2.92,54.58C2.2,53,2.76,51.94,4.68,51.7c3.6-.56,8.8-1.12,14.64-2a.9.9,0,0,0,.8-1V43.22c0-1.36.72-2,2-1.84l1.28.16a.89.89,0,0,0,.88-.32c1-1.2,1.92-2.4,2.72-3.44.72-.88.4-1.44-.72-1.44ZM22,21.3c0,.72.24,1,1,1h1.92c.32,0,.48-.16.72-.4a79.82,79.82,0,0,0,5.44-8.56c.16-.16.08-.24-.08-.24l-.4.08H23c-.72,0-1,.24-1,1Zm5,51.2a.86.86,0,0,1,.24-1.28l.24-.08C39,65.38,46.6,58.9,52,50.66a.72.72,0,0,0,.08-.88,81.46,81.46,0,0,1-5.52-18.32c-.4-1.92-1-2.08-1.92-.32a78.66,78.66,0,0,1-6.72,10.8l-.16.16a1.23,1.23,0,0,1-1.52.16.91.91,0,0,1-.4-1.36C41.56,30.66,46.36,16.66,48.76,2A1.8,1.8,0,0,1,51.24.34l3.84.8c1.36.24,2.08,1.36,1.2,2.32a3.48,3.48,0,0,1-1.52.8A.86.86,0,0,0,54,5c-1,3.92-1.76,7.2-3,10.8-.32.88,0,1.28.88,1.28H64.52a1,1,0,0,0,.8-.4,13,13,0,0,1,1.92-2.48,2.06,2.06,0,0,1,2.88-.32l.16.16c1.2.88,2.56,2.16,4.08,3.44.56.56,1,1.52.4,2.16a2.49,2.49,0,0,1-1.76.64H68.28a.9.9,0,0,0-1,.8c-1.6,11.6-4.48,21.44-9.52,29.6a.73.73,0,0,0,0,1A47.93,47.93,0,0,0,75.88,68.26a.79.79,0,0,1,.32,1,1.28,1.28,0,0,1-1,.72A4.71,4.71,0,0,0,73,71.22c-1,.88-2.24,1.36-3.6.48a49.46,49.46,0,0,1-14-15.44c-.56-.88-1-.88-1.6-.08-6,7-13.84,12.48-25.12,17a1.19,1.19,0,0,1-1.6-.48ZM50,20.26a.87.87,0,0,0-.88.64c-.4,1.2-1,2.4-1.52,3.68a.9.9,0,0,0-.08.64A87.75,87.75,0,0,0,53.8,44.66c.48,1,1.12,1.12,1.68,0A75,75,0,0,0,61.8,21.38c.08-.8-.16-1.12-1-1.12Z"/></g></g></svg>