<svg xmlns="http://www.w3.org/2000/svg" viewBox="0 0 66.35 70.67"><defs><style>.cls-1{fill:#3c2213;}</style></defs><title>アセット 11</title><g id="レイヤー_2" data-name="レイヤー 2"><g id="load-view"><path class="cls-1" d="M65.6,5.71a4.55,4.55,0,0,1-1.52.64.89.89,0,0,0-.72,1V67.47l-.08.4a5.77,5.77,0,0,1-3.76,2h-.16l-.16-.08a.5.5,0,0,1-.48-.32l-.08-.16a1,1,0,0,1-.08-.48V66.11c0-.72-.24-1-1-1H5.68c-.72,0-1,.24-1,1v2.24c0,.88-1.52,2.32-3.68,2.32H.88l-.16-.08a.5.5,0,0,1-.48-.32l-.08-.16A1.14,1.14,0,0,1,0,69.63V2.75C0,1.07,1,.27,2.56,1.15L4.8,2.35a1,1,0,0,0,.48.08H57.44a.87.87,0,0,0,.72-.32L59.36.75a2.07,2.07,0,0,1,3-.24L65.6,3.07a1.5,1.5,0,0,1,.16,2.48ZM4.72,60.83c0,.72.24,1,1,1H57.6c.72,0,1-.24,1-1V6.59c0-.72-.24-1-1-1H5.68c-.72,0-1,.24-1,1Zm5.36-36.32A2,2,0,0,1,8,22.83c-.24-1,.16-1.68,1.36-1.68H37.2c.72,0,1-.24,1-1V10.35a1.85,1.85,0,0,1,2.32-2.08l3,.32C45,8.75,45.84,9.87,45,10.83a3.15,3.15,0,0,1-1.36.72c-.48.24-.8.48-.8,1v7.6c0,.72.24,1,1,1h2.56c.32,0,.48-.16.72-.4l1.76-2.16a2,2,0,0,1,3-.32c1.2,1,2.64,2.24,3.92,3.44a1.53,1.53,0,0,1,.32,2,2.18,2.18,0,0,1-1.92.8H43.76c-.72,0-1,.24-1,1V51.23c0,3.52-.64,6.16-6.64,7H36c-.88.24-1.68-.48-2.24-1.44a4,4,0,0,0-1.36-1.2c-1.28-.72-3.44-1.28-7-1.68a1.11,1.11,0,0,1-1.12-1.2c0-.72.4-1.2,1.12-1.12,2.64.24,9.36.64,10.8.64,1.6,0,2-.32,2-1.44V25.47c0-.72-.24-1-1-1Zm6.08,3.6a1.69,1.69,0,0,1,1.52,0c8,4.72,10.64,9.92,10.64,13.36,0,2.8-1.84,4.4-4.08,3.2a2,2,0,0,1-.72-1.36c-.8-4.4-4.48-10.32-7.6-13.92a.8.8,0,0,1,.08-1.2Z"/></g></g></svg>