<svg xmlns="http://www.w3.org/2000/svg" viewBox="0 0 71.39 40.16"><defs><style>.cls-1{fill:#3c2213;}</style></defs><title>アセット 12</title><g id="レイヤー_2" data-name="レイヤー 2"><g id="load-view"><path class="cls-1" d="M23.39,3c1.68-1.84,3.36-3,5.2-3s4.08.64,6.56,3c1.92,1.84,4.56,4.8,7.36,7.92C48.83,18,57.31,26.64,68.51,33a5.46,5.46,0,0,1,2.88,4.48c0,1.68-.8,2.64-2.32,2.64-2.56,0-9.92-4.88-16.48-11.44C48.83,25,44.51,20.16,41,16c-2.8-3.28-5.44-6.48-8.4-9.6a5.15,5.15,0,0,0-3.92-1.84c-1,0-1.92.64-3,1.92-1.84,2.16-4.72,5.92-7.52,9.44-1.52,1.92-3,3.84-4.16,5.2-2.16,2.64-3.28,4.32-5.52,4.32-1.92,0-5-2-6.64-3.84a9.3,9.3,0,0,1-1.68-3v-.16a1.55,1.55,0,0,1,.4-1.76,1.44,1.44,0,0,1,1.76,0C3.87,18.08,5.39,19,6.67,19c1,0,2.32-.8,3.6-2,2.8-2.56,6.48-6.72,9.44-10Z"/></g></g></svg>