<svg xmlns="http://www.w3.org/2000/svg" viewBox="0 0 731.8 118.78"><defs><style>.cls-1{fill:#fff;}.cls-2{fill:#009299;}.cls-3,.cls-4,.cls-5{fill:none;stroke:#fff;stroke-linecap:round;stroke-linejoin:round;stroke-width:3px;}.cls-4{stroke-dasharray:10.12 10.12;}.cls-5{stroke-dasharray:9.62 9.62;}</style></defs><title>1</title><g id="レイヤー_2" data-name="レイヤー 2"><g id="menu"><g id="項目"><rect class="cls-1" x="9.7" y="8.63" width="713.36" height="101.68"/><rect class="cls-2" x="10.07" y="10.11" width="98.68" height="98.68"/><path class="cls-1" d="M107.25,11.61v95.68H11.57V11.61h95.68m3-3H8.57V110.29H110.25V8.61Z"/><path class="cls-1" d="M48.54,79.1A2.68,2.68,0,0,1,48,77l.59-1.18A4.21,4.21,0,0,1,51.09,75a7,7,0,0,1,1,.12l6.26.23,1-32.09a21.68,21.68,0,0,0-4.26,1.6,14,14,0,0,1-3.84,1.48l-1.18-.59a2.68,2.68,0,0,1-.59-2.13l.59-1.24a27.56,27.56,0,0,1,12.23-4.49,3.05,3.05,0,0,1,.95-.12,1.23,1.23,0,0,1,.86.26,1.33,1.33,0,0,1,.26.92q0,2.37-1.36,36.17L66.81,75l1.18.59a3.59,3.59,0,0,1,.59,2.25L68,79a3,3,0,0,1-1.78.71l-12.94.23A13.32,13.32,0,0,1,48.54,79.1Z"/><polyline class="cls-3" points="730.3 112.28 730.3 117.28 725.3 117.28"/><line class="cls-4" x1="715.17" y1="117.28" x2="11.56" y2="117.28"/><polyline class="cls-3" points="6.5 117.28 1.5 117.28 1.5 112.28"/><line class="cls-5" x1="1.5" y1="102.67" x2="1.5" y2="11.31"/><polyline class="cls-3" points="1.5 6.5 1.5 1.5 6.5 1.5"/><line class="cls-4" x1="16.62" y1="1.5" x2="720.23" y2="1.5"/><polyline class="cls-3" points="725.3 1.5 730.3 1.5 730.3 6.5"/><line class="cls-5" x1="730.3" y1="16.12" x2="730.3" y2="107.47"/><path class="cls-2" d="M195.62,67.31a22.82,22.82,0,0,1-2.87-10V54.12a11.09,11.09,0,0,1,3.57-7.88,6.77,6.77,0,0,1,4.83-1.89c.21,0,.57,0,1.08.07a7.22,7.22,0,0,1,1.89.49A4.63,4.63,0,0,1,205.59,46l.56.7.07.91-.35.7a1.55,1.55,0,0,1-1.26.35l-.91-.49a1.25,1.25,0,0,0-.77-.77,7.15,7.15,0,0,0-2-.24c-.39,0-.7,0-.91,0a7.87,7.87,0,0,0-2.34,1.54,9,9,0,0,0-2.24,5.57v3.08a21.55,21.55,0,0,0,2.31,8.26,6.18,6.18,0,0,0,4.3,1.12l2-.91v-.14a8.38,8.38,0,0,0,.84-1.4l.28-.56a1.55,1.55,0,0,1,1.26-.35l.7.35a1.74,1.74,0,0,1,.39,1.12,1.2,1.2,0,0,1,0,.35l-1.12,2.2-.42.42a7.2,7.2,0,0,1-4.69,1.75A7.6,7.6,0,0,1,195.62,67.31Z"/><path class="cls-2" d="M219.07,69.15c-.63-.34-1.44-.83-2.42-1.49a1.89,1.89,0,0,1-.35-1.36l.35-.7a1.55,1.55,0,0,1,1.26-.35l1.19.63V66a5.38,5.38,0,0,0,3.22,1A6.06,6.06,0,0,0,226,65.88a4.15,4.15,0,0,0,.87-2.56l0-.45a4.57,4.57,0,0,0-1.4-2.1,30.33,30.33,0,0,0-3.89-1.86A8.39,8.39,0,0,1,218,56.22a8.11,8.11,0,0,1-2-5.81,7.24,7.24,0,0,1,2.1-4.45,8.53,8.53,0,0,1,6.27-1.89,4.2,4.2,0,0,1,1.68.7l.63.77.07.91-.35.7a1.58,1.58,0,0,1-1.26.35l-.7-.35V47h-.14v-.14L223,46.8a5.69,5.69,0,0,0-3.26,1.4,5,5,0,0,0-1,3.26,6.5,6.5,0,0,0,1.12,2.87,8.32,8.32,0,0,0,3.71,2.48,12.89,12.89,0,0,1,3.89,2.07l.56.56a6,6,0,0,1,1.57,4.3c0,.4,0,.69,0,.88A9.76,9.76,0,0,1,228,67.8l-.56.56a10.69,10.69,0,0,1-6.34,1.4A5.31,5.31,0,0,1,219.07,69.15Z"/><path class="cls-2" d="M241.15,69.15c-.63-.34-1.43-.83-2.41-1.49a1.89,1.89,0,0,1-.35-1.36l.35-.7a1.55,1.55,0,0,1,1.26-.35l1.19.63V66a5.36,5.36,0,0,0,3.22,1,6,6,0,0,0,3.67-1.15,4.16,4.16,0,0,0,.88-2.56l0-.45a4.49,4.49,0,0,0-1.4-2.1,30.23,30.23,0,0,0-3.88-1.86,8.27,8.27,0,0,1-3.57-2.69,8.11,8.11,0,0,1-2-5.81,7.14,7.14,0,0,1,2.1-4.45,8.5,8.5,0,0,1,6.26-1.89,4.2,4.2,0,0,1,1.68.7l.63.77.07.91-.35.7a1.55,1.55,0,0,1-1.26.35l-.7-.35V47h-.14v-.14l-1.33-.07a5.66,5.66,0,0,0-3.25,1.4,5,5,0,0,0-1,3.26A6.38,6.38,0,0,0,242,54.33a8.27,8.27,0,0,0,3.71,2.48,12.84,12.84,0,0,1,3.88,2.07l.56.56a6,6,0,0,1,1.58,4.3,8.49,8.49,0,0,1,0,.88,9.76,9.76,0,0,1-1.54,3.18l-.56.56a10.68,10.68,0,0,1-6.33,1.4A5.35,5.35,0,0,1,241.15,69.15Z"/><path class="cls-2" d="M285.78,62.66a1.58,1.58,0,0,1-.35-1.26l.35-.7.89-.47a11,11,0,0,0,1.21-.77,6.26,6.26,0,0,0,.91-.86,34.17,34.17,0,0,0,4.3-10l-4.37-.35h-5.39l-11.94.42a1.53,1.53,0,0,1-1-.42,1.59,1.59,0,0,1-.35-1.26l.35-.7a64.29,64.29,0,0,1,6.44-.52q4.33-.15,6.48-.25h5.39a29.53,29.53,0,0,0,3.5.28,10.82,10.82,0,0,1,3.32.63A3.27,3.27,0,0,1,296,48.1a5.06,5.06,0,0,1-.07.73,33.61,33.61,0,0,1-5.21,11.8l-.91.91a7.51,7.51,0,0,1-3,1.54A1.61,1.61,0,0,1,285.78,62.66Zm-9,11a1.55,1.55,0,0,1-.35-1.26l.35-.7a8.26,8.26,0,0,0,2-1.64,15.63,15.63,0,0,0,1.68-2.35,24.53,24.53,0,0,0,1.54-5.7V58.11l-.77-3.92a1.51,1.51,0,0,1,.42-1,1.55,1.55,0,0,1,1.26-.35l.7.35a7.47,7.47,0,0,1,.57,1.71c.13.61.27,1.38.41,2.31l.14.88V62a46.65,46.65,0,0,1-1,4.74,11.67,11.67,0,0,1-1.66,3.55H282l-1.12,1.75-.63.56-.42.21V73a3.23,3.23,0,0,1-2.31,1Z"/><path class="cls-2" d="M307,67.45a1.89,1.89,0,0,1-.35-1.36l.35-.7a3.19,3.19,0,0,1,1.89-.42h7l.07-.07h5l.07-.07h7.63a21.24,21.24,0,0,0,2.48.1,4.92,4.92,0,0,1,1.89.39,1.55,1.55,0,0,1,.35,1.26l-.35.73a5,5,0,0,1-2.24.46,6,6,0,0,1-.84,0l-1.43-.14H321l-.07.07h-5l-.07.07h-7l-.91.14A1.53,1.53,0,0,1,307,67.45Zm1.82-12.84a2.13,2.13,0,0,1-.35-1.33l.35-.7a29.25,29.25,0,0,1,4.52-.46c1.68,0,3.19-.13,4.55-.24h6.16c1.09.09,2.32.14,3.67.14a12.8,12.8,0,0,1,3.5.49,1.55,1.55,0,0,1,.35,1.26l-.35.7a2.15,2.15,0,0,1-1.33.42l-5.84-.28h-6.16q-4,.27-8.09.42A1.64,1.64,0,0,1,308.84,54.61Z"/><path class="cls-2" d="M345.42,70a2.35,2.35,0,0,1-.42-1.19,1.53,1.53,0,0,1,.42-1c.81-.91,1.56-1.82,2.24-2.74s1.61-2.24,2.8-3.94c-.82-.49-1.81-1.12-3-1.89a18,18,0,0,0-3.15-1.61,1.58,1.58,0,0,1-.35-1.26l.35-.7a2.28,2.28,0,0,1,1.26-.39,1.41,1.41,0,0,1,.39,0,23,23,0,0,1,3.11,1.71q1.79,1.15,3.12,1.86A40.66,40.66,0,0,1,356,53.07a43.75,43.75,0,0,0,3.82-5.92,2.16,2.16,0,0,1,1.33-.35l.7.35a1.61,1.61,0,0,1,.35,1.26,48.05,48.05,0,0,1-3.82,6,46.66,46.66,0,0,0-3.81,6c.65.42,1.47.9,2.45,1.43s1.79,1,2.45,1.44v.14l1.05.63a2.16,2.16,0,0,1,.35,1.33l-.35.7a2.2,2.2,0,0,1-1.33.35,46.85,46.85,0,0,0-6.3-3.64l-1,1.19c-.38.56-.73,1-1.05,1.43a15,15,0,0,0-1.05,1.51l-.56.73h-.14l-.35.7h-.14l-.77,1.12-.49.63a1.58,1.58,0,0,1-1.26.35Z"/><path class="cls-2" d="M379.05,67.28a9.81,9.81,0,0,1-2.62-7.49,12.42,12.42,0,0,1,3.32-7.7l-3-.07a10.37,10.37,0,0,0-2.73.42l-.84-.42a1.92,1.92,0,0,1-.35-1.37l.35-.7a8.83,8.83,0,0,1,2.57-.59c.9-.07,2.1-.11,3.62-.11,1.28.17,2.57.4,3.85.7a22.18,22.18,0,0,1,7-1.4h3.15a17,17,0,0,1,4.45,1.12,1.67,1.67,0,0,1,.35,1.3l-.42.84a2.2,2.2,0,0,1-1.33.35,11.21,11.21,0,0,0-3.05-.84h-3.15l-3.36.35v.14l2.52,2,.35.63h.14l.35.63h.14A7,7,0,0,1,392.16,58a12.81,12.81,0,0,1,.51,3.76c0,.61,0,1.06,0,1.37a11.7,11.7,0,0,1-1.89,4.55l-.91.91A7.32,7.32,0,0,1,385.14,70a8.33,8.33,0,0,1-1,0A9.66,9.66,0,0,1,379.05,67.28Zm8.26-.42A4,4,0,0,0,389,65.28a6.73,6.73,0,0,0,.83-2.34,13,13,0,0,0,.1-2.52,4,4,0,0,0-.54-2.08,17,17,0,0,0-1.66-2.26l-.46-.56a9.48,9.48,0,0,0-4.2-2.45l-1.26.84a10.12,10.12,0,0,0-2.59,7.7,8.92,8.92,0,0,0,.77,2.52h.14a5.87,5.87,0,0,0,2.38,2.38,5.8,5.8,0,0,0,3,.73c.35,0,.61,0,.8,0Z"/><path class="cls-2" d="M413.46,56.71a40.43,40.43,0,0,1-4.28-.7,1.56,1.56,0,0,1-.34-1.26l.34-.7a3.23,3.23,0,0,1,1.62-.42,5.27,5.27,0,0,1,.7.07c1.6.23,2.9.39,3.88.49a29.23,29.23,0,0,1,3.78.7,2.11,2.11,0,0,1,.35,1.33l-.35.7a1.8,1.8,0,0,1-1.12.38,1.69,1.69,0,0,1-.35,0C416.43,57.06,415,56.87,413.46,56.71Zm1-9.56c-2.19-.32-3.82-.58-4.87-.77a1.55,1.55,0,0,1-.34-1.26l.34-.7A2.49,2.49,0,0,1,411,44a5.84,5.84,0,0,1,.63.07,46.43,46.43,0,0,1,8.85,1.68,2.13,2.13,0,0,1,.35,1.33l-.35.7a1.55,1.55,0,0,1-1.26.35A45.31,45.31,0,0,0,414.47,47.15Zm3.29,23.73a1.55,1.55,0,0,1-.35-1.26l.35-.7a20.37,20.37,0,0,0,6.93-2,18.5,18.5,0,0,0,5.74-4.29l1.58-2a7,7,0,0,0,1.12-2.17,1.82,1.82,0,0,1,1.33-.42l.69.35a1.59,1.59,0,0,1,.36,1.26,4.41,4.41,0,0,1-1.2,2.45L432.92,64l-3.54,3.53c-1.59.87-2.86,1.54-3.83,2a21.18,21.18,0,0,1-3.22,1.24,12.57,12.57,0,0,1-3.59.52A1.53,1.53,0,0,1,417.76,70.88Z"/><path class="cls-2" d="M461,74.38h-3.71c-.77-.07-1.87-.15-3.29-.24a13.09,13.09,0,0,1-3.15-.6,1.55,1.55,0,0,1-.35-1.26l.35-.7a2.21,2.21,0,0,1,1.29-.42,5.51,5.51,0,0,1,.6.07c1.47.17,3,.31,4.55.42h3.29c.14-.72.34-1.61.59-2.66a23.73,23.73,0,0,0,.46-2.69c-.4,0-1.05-.08-2-.18a18.38,18.38,0,0,0-2-.1H450.8l-.7-.35a2.13,2.13,0,0,1-.35-1.33l.35-.7.7-.35h6.86l4.48.28.7-5.18-2.8-.21H457l-5,.28h-3l-1.79.14-.7-.35a2.2,2.2,0,0,1-.35-1.33l.35-.7a3.87,3.87,0,0,1,2-.53,3.17,3.17,0,0,1,.53,0h3l5-.28H460c.58.07,1.47.13,2.66.17a8.09,8.09,0,0,1,2.52.53,4.1,4.1,0,0,1,.45,1.85,5.17,5.17,0,0,1-.07.74l-.14.91c-.56,3.54-1,6.34-1.4,8.38s-.85,4.11-1.43,6.21a1.55,1.55,0,0,1-1.26.35Z"/><path class="cls-2" d="M480.06,58.18a12.77,12.77,0,0,0-3.33-1.12,2.2,2.2,0,0,1-.35-1.33l.35-.7a2.14,2.14,0,0,1,1.23-.39,1.29,1.29,0,0,1,.38,0,20.17,20.17,0,0,1,3.19,1.12l3.08,1.33a1.55,1.55,0,0,1,.35,1.26l-.35.7a2.18,2.18,0,0,1-1.33.35A18.27,18.27,0,0,1,480.06,58.18Zm-1.16,16.2a2.16,2.16,0,0,1-.35-1.33l.35-.7c2.08-.25,3.8-.5,5.15-.75a24.59,24.59,0,0,0,4.15-1.14,14.5,14.5,0,0,0,3.9-2.13,14.21,14.21,0,0,0,3.24-4.69,28,28,0,0,0,1.69-6,1.58,1.58,0,0,1,1.26-.35l.7.35a2.19,2.19,0,0,1,.39,1.29,1.76,1.76,0,0,1,0,.46,37.67,37.67,0,0,1-.92,4.22,11.3,11.3,0,0,1-1.56,3.2,2.92,2.92,0,0,0-.91,1.12l-1.4,1.82-1.47,1.43a21.9,21.9,0,0,1-6.23,2.61,35,35,0,0,1-7.21,1Z"/><path class="cls-2" d="M514.83,73.07a8.92,8.92,0,0,1-2.47-1.77,7.88,7.88,0,0,1-1.87-3.39,15.5,15.5,0,0,1-.44-4.34,10.86,10.86,0,0,1,3.15-7.84,14,14,0,0,1,4.48-3A15.69,15.69,0,0,1,523,51.49h3.57a10.13,10.13,0,0,1,6.61,3.12,21.57,21.57,0,0,1,2,3.29,10.54,10.54,0,0,1,1,3.22v2.8a10.37,10.37,0,0,1-1.4,3.57,1.92,1.92,0,0,1-1.33.42l-.73-.35a2.17,2.17,0,0,1-.42-1.12,8.8,8.8,0,0,0,1.19-4.38,5.43,5.43,0,0,0,0-.8A12.2,12.2,0,0,0,530.67,56a7.15,7.15,0,0,0-4.9-1.75v.63l.21,1.4v3.36a64.71,64.71,0,0,1-1.3,7.16,17.44,17.44,0,0,1-2.41,5.4l-.35.35h-.14v.14a5.82,5.82,0,0,1-3.92,1.4A14.18,14.18,0,0,1,514.83,73.07Zm4.78-2.19.49-.49a3,3,0,0,0,.84-1.15,26.58,26.58,0,0,0,1.38-4.38q.51-2.27.93-5.21V56.29l-.28-2h-.42a11.7,11.7,0,0,0-7.42,3.29,9.13,9.13,0,0,0-2.38,6.61c0,.45,0,.78,0,1a5.84,5.84,0,0,0,2,4.55,9.89,9.89,0,0,0,3.64,1.57Z"/><path class="cls-2" d="M548.13,73.33a1.59,1.59,0,0,1-.35-1.26l.35-.7L550,70.18,550,70a12.26,12.26,0,0,0,3-4l.14-.63-1.3-.07h-4.13L547,65a1.61,1.61,0,0,1-.35-1.26L547,63a1.53,1.53,0,0,1,1-.42h3.85l.95.07v-.21l-.46-4.83V52.93l-.07-.21h-.56l-2.1.14a1.64,1.64,0,0,1-1-.42,1.72,1.72,0,0,1-.35-1.3l.35-.7a3.16,3.16,0,0,1,1.51-.38,13.6,13.6,0,0,0,2-.11V46.66l.35-.7a1.72,1.72,0,0,1,1.3-.35l.7.35a1.87,1.87,0,0,1,.42,1v2.8h1.89l2.38-.14h5.74l.49.07V48.9l-.07-2a1.53,1.53,0,0,1,.42-1,1.59,1.59,0,0,1,1.26-.35l.7.35a3.63,3.63,0,0,1,.35,1.61v.93a10.47,10.47,0,0,0,.07,1.31A25,25,0,0,0,571,50a7.77,7.77,0,0,1,2.73.49,1.58,1.58,0,0,1,.35,1.26l-.35.74a2.21,2.21,0,0,1-1.54.42l-4.09-.28V55.8l-.28,3.29v3.5h4.79a3.25,3.25,0,0,1,1.82.42,1.55,1.55,0,0,1,.35,1.26l-.35.7a2.5,2.5,0,0,1-1.43.45,2.54,2.54,0,0,1-.46,0l-.07-.07h-5.77v.14a8.09,8.09,0,0,0,3.22,2.8c.81.3,1.67.65,2.55,1a1.6,1.6,0,0,1,.35,1.29l-.35.7a1.63,1.63,0,0,1-1,.39,1.2,1.2,0,0,1-.35,0,12.79,12.79,0,0,1-5.42-3.11c-.12-.14-.43-.56-.95-1.26a20.73,20.73,0,0,1-1.36-2.1h-4.2l-3.22.14a11.77,11.77,0,0,1-3.82,6.54l-.21.07-.21.42-.63.35v.14a4.62,4.62,0,0,1-2,.91A1.53,1.53,0,0,1,548.13,73.33Zm8.72,3.47a3.5,3.5,0,0,1-1.89-.53,1.55,1.55,0,0,1-.35-1.26l.35-.7a3.17,3.17,0,0,1,1.61-.42c.14,0,.37,0,.7.07l2.59.07v-.14L559.65,72a25.32,25.32,0,0,0-2.7-.1,6.07,6.07,0,0,1-2.13-.39,1.55,1.55,0,0,1-.35-1.26l.35-.73a4.15,4.15,0,0,1,2-.49,6.71,6.71,0,0,1,.77.07l1.61.14V69l-.14-1.4.35-.7a1.55,1.55,0,0,1,1.26-.35l.7.35a4.87,4.87,0,0,1,.56,2.38,12.8,12.8,0,0,0,1.31.07h1a3.58,3.58,0,0,1,1.65.35,1.7,1.7,0,0,1,.35,1.29l-.35.7a2.53,2.53,0,0,1-1.47.46l-2,0v.63l.28,1.19.42.07,2.52-.14.7.35a2,2,0,0,1,.42,1.33l-.35.7a10.92,10.92,0,0,1-3.29.49h-5.74A2.13,2.13,0,0,1,556.85,76.8Zm8.54-24.29-.49-.07h-5.74l-4.13.14v.28l.07,1.19h3.08l7.21.28Zm-.21,6v-.77l.07-.63-7.07-.28H555.1v.84l.07.56,3.64.28Zm-7.42,4.13,1.4-.14h6V61.19h-6.3l-3.36-.28V62.1l.07.49Z"/><path class="cls-2" d="M599.37,73.33a1.88,1.88,0,0,1-.45-1.08V68.78h-4a1.88,1.88,0,0,1-1.09-.45,1.83,1.83,0,0,1-.38-1.4l.38-.77.77-.35H599V64l-.25-1.22V58.21h-.14A25.64,25.64,0,0,1,594,63.76a50,50,0,0,1-6.26,4.85l-1,.1-.77-.38a1.83,1.83,0,0,1-.39-1.4l.39-.77a32.05,32.05,0,0,0,6-4.59,28.93,28.93,0,0,0,4.73-5.88l.63-1.36h-9l-1.68.28-.91-.46a1.88,1.88,0,0,1-.39-1.43l.39-.77a5.31,5.31,0,0,1,2.59-.63h10.11V47.08c-.11-.42-.3-1.23-.56-2.45l.39-.77a2,2,0,0,1,1.47-.38l.77.38a6.21,6.21,0,0,1,.91,3.22v4.1h3.22l2.38-.14h4.79l1,.45a1.72,1.72,0,0,1,.38,1.37l-.38.77-.77.38h-5l-4.52.14v.39a34.52,34.52,0,0,0,12.32,9.1,15.67,15.67,0,0,1,2.21.77,1.67,1.67,0,0,1,.38,1.4l-.38.73a2.19,2.19,0,0,1-1.44.49,33.52,33.52,0,0,1-7.31-3.55,43.28,43.28,0,0,1-6.62-5.2v4.45a15.43,15.43,0,0,1,.21,3.08h3.61a2.22,2.22,0,0,1,1.33-.32l.91.46a1.92,1.92,0,0,1,.45,1.54l-.38.73a2.26,2.26,0,0,1-1.37.56h-4.62v3.78l-.38.77a1.74,1.74,0,0,1-1.37.39Z"/></g></g></g></svg>