<svg xmlns="http://www.w3.org/2000/svg" viewBox="0 0 731.8 118.78"><defs><style>.cls-1{fill:#fff;}.cls-2{fill:#009299;}.cls-3,.cls-4,.cls-5{fill:none;stroke:#fff;stroke-linecap:round;stroke-linejoin:round;stroke-width:3px;}.cls-4{stroke-dasharray:10.12 10.12;}.cls-5{stroke-dasharray:9.62 9.62;}</style></defs><title>2</title><g id="レイヤー_2" data-name="レイヤー 2"><g id="menu"><g id="項目"><rect class="cls-1" x="9.7" y="8.63" width="713.36" height="101.68"/><rect class="cls-2" x="10.07" y="10.11" width="98.68" height="98.68"/><path class="cls-1" d="M107.25,11.61v95.68H11.57V11.61h95.68m3-3H8.57V110.29H110.25V8.61Z"/><path class="cls-1" d="M58.41,83.11a82.58,82.58,0,0,1-9.87-1.41,1.27,1.27,0,0,1-.71-1.13,3.31,3.31,0,0,1,1.42-2.18,21.39,21.39,0,0,1,4-4.61q6.21-5.57,8.63-9.58l1.48-2.36A16.51,16.51,0,0,0,65,58.5a8.4,8.4,0,0,0,.51-2.81A4.91,4.91,0,0,0,64,52.18a12.69,12.69,0,0,0-3.49-2.52,7.33,7.33,0,0,0-8.27,1.6,2.66,2.66,0,0,1-2.13.59l-1.18-.59a2.62,2.62,0,0,1-.71-1.71,4.12,4.12,0,0,1,1.59-2.9q2.13-1.95,7.92-1.95c.83,0,1.46,0,1.9.06a8.7,8.7,0,0,1,4.16,1.63,18.28,18.28,0,0,1,4,3.54,7.87,7.87,0,0,1,2,3.58,19.05,19.05,0,0,1,.24,2.54,13.63,13.63,0,0,1-2.43,7.86,99.08,99.08,0,0,1-12,14.3c1.1.08,1.89.16,2.36.24,2.76.23,5,.47,6.86.7a51.31,51.31,0,0,1,5.37,1,3.58,3.58,0,0,1,.6,2.24l-.6,1.19a3,3,0,0,1-1.77.71C64.68,83.78,61.37,83.39,58.41,83.11Z"/><polyline class="cls-3" points="730.3 112.28 730.3 117.28 725.3 117.28"/><line class="cls-4" x1="715.17" y1="117.28" x2="11.56" y2="117.28"/><polyline class="cls-3" points="6.5 117.28 1.5 117.28 1.5 112.28"/><line class="cls-5" x1="1.5" y1="102.67" x2="1.5" y2="11.31"/><polyline class="cls-3" points="1.5 6.5 1.5 1.5 6.5 1.5"/><line class="cls-4" x1="16.62" y1="1.5" x2="720.23" y2="1.5"/><polyline class="cls-3" points="725.3 1.5 730.3 1.5 730.3 6.5"/><line class="cls-5" x1="730.3" y1="16.12" x2="730.3" y2="107.47"/><path class="cls-2" d="M149.32,73.33a1.59,1.59,0,0,1-.35-1.26l.35-.7,1.82-1.19.07-.14a12.26,12.26,0,0,0,3-4l.14-.63-1.3-.07H148.9l-.7-.35a1.6,1.6,0,0,1-.35-1.26l.35-.7a1.53,1.53,0,0,1,1-.42H153l.95.07v-.21l-.46-4.83V52.93l-.07-.21h-.56l-2.1.14a1.58,1.58,0,0,1-1-.42,1.72,1.72,0,0,1-.35-1.3l.35-.7a3.16,3.16,0,0,1,1.51-.38,13.7,13.7,0,0,0,2-.11V46.66l.35-.7a1.72,1.72,0,0,1,1.3-.35l.7.35a1.87,1.87,0,0,1,.42,1v2.8H158l2.38-.14h5.74l.49.07V48.9l-.07-2a1.53,1.53,0,0,1,.42-1,1.59,1.59,0,0,1,1.26-.35l.7.35a3.63,3.63,0,0,1,.35,1.61v.93a10.47,10.47,0,0,0,.07,1.31,25,25,0,0,0,2.9.14,7.77,7.77,0,0,1,2.73.49,1.58,1.58,0,0,1,.35,1.26l-.35.74a2.16,2.16,0,0,1-1.54.42l-4.09-.28V55.8L169,59.09v3.5h4.79a3.25,3.25,0,0,1,1.82.42,1.55,1.55,0,0,1,.35,1.26l-.35.7a2.5,2.5,0,0,1-1.43.45,2.54,2.54,0,0,1-.46,0l-.07-.07h-5.77v.14a8.09,8.09,0,0,0,3.22,2.8c.81.3,1.67.65,2.55,1A1.6,1.6,0,0,1,174,70.6l-.35.7a1.63,1.63,0,0,1-1.05.39,1.2,1.2,0,0,1-.35,0,12.79,12.79,0,0,1-5.42-3.11c-.12-.14-.43-.56-1-1.26a20.73,20.73,0,0,1-1.36-2.1h-4.2l-3.22.14a11.77,11.77,0,0,1-3.82,6.54l-.21.07-.21.42-.63.35v.14a4.62,4.62,0,0,1-2,.91A1.53,1.53,0,0,1,149.32,73.33ZM158,76.8a3.5,3.5,0,0,1-1.89-.53A1.55,1.55,0,0,1,155.8,75l.35-.7a3.17,3.17,0,0,1,1.61-.42c.14,0,.37,0,.7.07l2.59.07v-.14L160.84,72a25.32,25.32,0,0,0-2.7-.1,6.07,6.07,0,0,1-2.13-.39,1.55,1.55,0,0,1-.35-1.26l.35-.73a4.15,4.15,0,0,1,2-.49,6.71,6.71,0,0,1,.77.07l1.61.14V69l-.14-1.4.35-.7a1.55,1.55,0,0,1,1.26-.35l.7.35a4.87,4.87,0,0,1,.56,2.38,12.8,12.8,0,0,0,1.31.07h1a3.58,3.58,0,0,1,1.65.35,1.71,1.71,0,0,1,.35,1.29l-.35.7a2.53,2.53,0,0,1-1.47.46l-2,0v.63l.28,1.19.42.07,2.52-.14.7.35a2,2,0,0,1,.42,1.33l-.35.7a10.92,10.92,0,0,1-3.29.49h-5.74A2.13,2.13,0,0,1,158,76.8Zm8.54-24.29-.49-.07h-5.74l-4.13.14v.28l.07,1.19h3.08l7.21.28Zm-.21,6v-.77l.07-.63-7.07-.28h-3.08v.84l.07.56,3.64.28ZM159,62.59l1.4-.14h6V61.19H160l-3.36-.28V62.1l.07.49Z"/><path class="cls-2" d="M200.56,73.33a1.88,1.88,0,0,1-.45-1.08V68.78h-4a1.88,1.88,0,0,1-1.09-.45,1.83,1.83,0,0,1-.38-1.4l.38-.77.77-.35h4.38V64l-.25-1.22V58.21h-.14a25.64,25.64,0,0,1-4.62,5.55,50,50,0,0,1-6.26,4.85l-1,.1-.77-.38a1.79,1.79,0,0,1-.39-1.4l.39-.77a31.63,31.63,0,0,0,6.05-4.59,28.93,28.93,0,0,0,4.73-5.88l.63-1.36h-9l-1.68.28-.91-.46a1.88,1.88,0,0,1-.39-1.43L187,52a5.31,5.31,0,0,1,2.59-.63h10.11V47.08c-.12-.42-.3-1.23-.56-2.45l.39-.77a2,2,0,0,1,1.47-.38l.77.38a6.21,6.21,0,0,1,.91,3.22v4.1h3.22L208.3,51h4.79l1,.45a1.72,1.72,0,0,1,.38,1.37l-.38.77-.77.38h-5l-4.52.14v.39a34.43,34.43,0,0,0,12.32,9.1,15.67,15.67,0,0,1,2.21.77,1.68,1.68,0,0,1,.38,1.4l-.38.73a2.19,2.19,0,0,1-1.44.49,33.52,33.52,0,0,1-7.31-3.55,42.8,42.8,0,0,1-6.62-5.2v4.45a16.21,16.21,0,0,1,.21,3.08h3.61a2.22,2.22,0,0,1,1.33-.32L209,66a1.93,1.93,0,0,1,.45,1.54l-.38.73a2.26,2.26,0,0,1-1.37.56h-4.62v3.78l-.38.77a1.74,1.74,0,0,1-1.37.39Z"/><path class="cls-2" d="M230.63,62.45a5.43,5.43,0,0,1-.7-2.45l-.56-11.27a1.8,1.8,0,0,1,.42-1,2.2,2.2,0,0,1,1.26-.38,2.26,2.26,0,0,1,.42,0l1.19.07,2.34-3.5a1.55,1.55,0,0,1,1.4-.42l.7.35a1.58,1.58,0,0,1,.35,1.26l-1.4,2.38,2.87-.07.7.35a5.24,5.24,0,0,1,.46,2.14,4.49,4.49,0,0,1,0,.63l.14,10.71-.42.84a3,3,0,0,1-2,.49l-6.19.28A1.51,1.51,0,0,1,230.63,62.45Zm6.68-8.68-.07-3.5-5.07-.07.21,3.64Zm.07,6.09-.07-3.36-4.93.07.28,3.36Zm13.09,11.3a2.19,2.19,0,0,1-.56-1.75l.35-.7a8.69,8.69,0,0,0,2.56-2.48,13.44,13.44,0,0,0,2.29-6.2,78,78,0,0,0,.86-9.76l-9.56.28a23.59,23.59,0,0,1-.82,3.57,11.74,11.74,0,0,1-1.42,2.94,2.18,2.18,0,0,1-1.33.35l-.7-.35a1.55,1.55,0,0,1-.35-1.26,14,14,0,0,0,1.47-3.64A58.41,58.41,0,0,0,244,43a1.53,1.53,0,0,1,.42-1,1.59,1.59,0,0,1,1.26-.35l.7.35a2.9,2.9,0,0,1,.49,1.89v3.92l1.33,0,9.63-.25.7.35a2.4,2.4,0,0,1,.38,1.3,2.12,2.12,0,0,1,0,.42l-.07,1.29c-.17,3.15-.39,5.8-.69,7.93a25.78,25.78,0,0,1-1.85,6.55,19,19,0,0,1-4.22,6.1l-.84.07Zm-3.94-9.53a2.78,2.78,0,0,1-.64-1.81,2.41,2.41,0,0,1,.54-1.57,1.71,1.71,0,0,1,1.38-.67,2.07,2.07,0,0,1,.56.07,3.14,3.14,0,0,1,1.52.9,2,2,0,0,1,.55,1.41,2.55,2.55,0,0,1-2.63,2.56A2.29,2.29,0,0,1,246.53,61.63Z"/><path class="cls-2" d="M271.33,64a2.13,2.13,0,0,1-.35-1.33c.86-1.19,1.93-2.58,3.19-4.17a11.33,11.33,0,0,0,2.24-4.58h-5.57a1.58,1.58,0,0,1-1-.42,1.57,1.57,0,0,1-.35-1.26l.35-.74a2,2,0,0,1,1.4-.42l.07.07h5.85q.35-1.39.45-2.1a5.93,5.93,0,0,1,.67-2,2.16,2.16,0,0,1,1.33-.35l.7.35a1.61,1.61,0,0,1,.35,1.26,18.09,18.09,0,0,0-.7,2.87,115.31,115.31,0,0,1,13.3,1.16,1.59,1.59,0,0,1,.35,1.26l-.35.7a2.43,2.43,0,0,1-1.61.42c-2-.1-4.08-.23-6.13-.42Q282,54,279.35,54a20.2,20.2,0,0,1-4.1,7.63l-1.4,1.68h-.14l-.35.63a1.93,1.93,0,0,1-1.33.42Zm7.18,8.64a7.15,7.15,0,0,1-1.33-4.86,5.1,5.1,0,0,1,1.47-2.87,6,6,0,0,1,4.27-1.58,8.06,8.06,0,0,1,.84,0,11.62,11.62,0,0,1,3.08.84V62.87a13.32,13.32,0,0,0-.56-2.56,14,14,0,0,1-.63-2.55,1.53,1.53,0,0,1,.42-1,1.55,1.55,0,0,1,1.26-.35l.7.35a22,22,0,0,1,1.57,7.77c0,.44,0,.77,0,1l-.07.21.91.77a5.32,5.32,0,0,1,1.4,3l-.35.73a1.58,1.58,0,0,1-1.26.35l-.7-.35-.42-.8-.21-.07A7.4,7.4,0,0,1,287,73l-.63.56a5.43,5.43,0,0,1-3.85,1.33A6.33,6.33,0,0,1,278.51,72.63Zm7.42-3,.63-2.59c-.87-.35-1.57-.61-2.12-.77a6.42,6.42,0,0,0-1.8-.25,3.34,3.34,0,0,0-.63,0l-1.19.49v.14a2.43,2.43,0,0,0-.91,1.26v1.26A4.08,4.08,0,0,0,281,71.3a2.83,2.83,0,0,0,1.92.81,2.26,2.26,0,0,0,1.37-.46A5.92,5.92,0,0,0,285.93,69.66Zm9.34-9.7-3-1.43a1.55,1.55,0,0,1-.35-1.26l.35-.7a1.63,1.63,0,0,1,1.05-.39,1.2,1.2,0,0,1,.35,0,55.36,55.36,0,0,1,5.77,2.8,1.93,1.93,0,0,1,.42,1.33l-.35.7a1.59,1.59,0,0,1-1.26.35C297.37,61,296.37,60.52,295.27,60Z"/><path class="cls-2" d="M326.25,62.66a1.62,1.62,0,0,1-.36-1.26l.36-.7.89-.47a11,11,0,0,0,1.21-.77,6.26,6.26,0,0,0,.91-.86,34.17,34.17,0,0,0,4.3-10l-4.38-.35H323.8l-11.94.42a1.53,1.53,0,0,1-1-.42,1.55,1.55,0,0,1-.35-1.26l.35-.7a64.29,64.29,0,0,1,6.44-.52q4.33-.15,6.48-.25h5.38a29.86,29.86,0,0,0,3.5.28,10.83,10.83,0,0,1,3.33.63,3.27,3.27,0,0,1,.42,1.65,5.06,5.06,0,0,1-.07.73,33.46,33.46,0,0,1-5.22,11.8l-.9.91a7.48,7.48,0,0,1-3,1.54A1.5,1.5,0,0,1,326.25,62.66Zm-9,11a1.59,1.59,0,0,1-.36-1.26l.36-.7a8.26,8.26,0,0,0,2-1.64A15.14,15.14,0,0,0,321,67.73a24.53,24.53,0,0,0,1.54-5.7V58.11l-.77-3.92a1.55,1.55,0,0,1,.41-1,1.59,1.59,0,0,1,1.27-.35l.69.35a7.49,7.49,0,0,1,.58,1.71c.13.61.27,1.38.41,2.31l.14.88V62a46.65,46.65,0,0,1-1,4.74,11.46,11.46,0,0,1-1.67,3.55h-.13l-1.12,1.75-.63.56-.42.21V73A3.23,3.23,0,0,1,318,74Z"/><path class="cls-2" d="M347.49,67.45a1.88,1.88,0,0,1-.35-1.36l.35-.7a3.19,3.19,0,0,1,1.89-.42h7l.06-.07h5l.06-.07h7.63a21.56,21.56,0,0,0,2.49.1,4.92,4.92,0,0,1,1.89.39,1.55,1.55,0,0,1,.35,1.26l-.35.73a5,5,0,0,1-2.24.46,6,6,0,0,1-.84,0l-1.44-.14h-7.49l-.06.07h-5l-.06.07h-7l-.91.14A1.53,1.53,0,0,1,347.49,67.45Zm1.82-12.84a2.13,2.13,0,0,1-.35-1.33l.35-.7a29.24,29.24,0,0,1,4.51-.46c1.68,0,3.2-.13,4.55-.24h6.16c1.1.09,2.33.14,3.68.14a12.8,12.8,0,0,1,3.5.49,1.55,1.55,0,0,1,.35,1.26l-.35.7a2.15,2.15,0,0,1-1.33.42l-5.85-.28h-6.16c-2.63.19-5.33.32-8.08.42A1.58,1.58,0,0,1,349.31,54.61Z"/><path class="cls-2" d="M385.88,70a2.55,2.55,0,0,1-.42-1.19,1.64,1.64,0,0,1,.42-1,34.1,34.1,0,0,0,2.24-2.74q1-1.39,2.8-3.94-1.21-.73-3-1.89a18,18,0,0,0-3.15-1.61,1.55,1.55,0,0,1-.35-1.26l.35-.7a2.28,2.28,0,0,1,1.26-.39,1.29,1.29,0,0,1,.38,0,23.06,23.06,0,0,1,3.12,1.71c1.19.77,2.23,1.39,3.11,1.86a41.57,41.57,0,0,1,3.82-5.88,43.73,43.73,0,0,0,3.81-5.92,2.2,2.2,0,0,1,1.33-.35l.7.35a1.58,1.58,0,0,1,.35,1.26,46.87,46.87,0,0,1-3.81,6,48.62,48.62,0,0,0-3.82,6c.66.42,1.47.9,2.45,1.43s1.8,1,2.45,1.44v.14L401,64a2.05,2.05,0,0,1,.35,1.33L401,66a2.16,2.16,0,0,1-1.33.35,45.64,45.64,0,0,0-6.3-3.64l-1,1.19a15.29,15.29,0,0,1-1.05,1.43,15,15,0,0,0-1,1.51l-.56.73h-.14l-.35.7h-.14l-.77,1.12-.49.63a1.55,1.55,0,0,1-1.26.35Z"/><path class="cls-2" d="M419.52,67.28a9.86,9.86,0,0,1-2.63-7.49,12.48,12.48,0,0,1,3.33-7.7l-3-.07a10.5,10.5,0,0,0-2.73.42l-.84-.42a2,2,0,0,1-.35-1.37l.35-.7a9,9,0,0,1,2.58-.59c.89-.07,2.1-.11,3.62-.11,1.28.17,2.57.4,3.85.7a22.18,22.18,0,0,1,7-1.4h3.15a16.83,16.83,0,0,1,4.44,1.12,1.64,1.64,0,0,1,.35,1.3l-.42.84a2.16,2.16,0,0,1-1.33.35,11,11,0,0,0-3-.84h-3.15l-3.36.35v.14l2.52,2,.35.63h.14l.35.63h.14A7,7,0,0,1,432.63,58a12.82,12.82,0,0,1,.5,3.76c0,.61,0,1.06,0,1.37a11.63,11.63,0,0,1-1.89,4.55l-.91.91A7.32,7.32,0,0,1,425.61,70a8.33,8.33,0,0,1-1,0A9.66,9.66,0,0,1,419.52,67.28Zm8.26-.42a4,4,0,0,0,1.66-1.58,6.72,6.72,0,0,0,.82-2.34,12.23,12.23,0,0,0,.11-2.52,4,4,0,0,0-.54-2.08,17,17,0,0,0-1.67-2.26l-.45-.56a9.48,9.48,0,0,0-4.2-2.45l-1.26.84a10.14,10.14,0,0,0-2.59,7.7,8.92,8.92,0,0,0,.77,2.52h.14A5.87,5.87,0,0,0,423,66.51a5.79,5.79,0,0,0,3,.73q.52,0,.81,0Z"/><path class="cls-2" d="M453.92,56.71a38.23,38.23,0,0,1-4.27-.7,1.6,1.6,0,0,1-.35-1.26l.35-.7a3.2,3.2,0,0,1,1.61-.42,5,5,0,0,1,.7.07c1.61.23,2.91.4,3.89.49a29.23,29.23,0,0,1,3.78.7,2.11,2.11,0,0,1,.35,1.33l-.35.7a1.75,1.75,0,0,1-1.12.38,1.69,1.69,0,0,1-.35,0C456.9,57.06,455.49,56.87,453.92,56.71Zm1-9.56c-2.19-.32-3.82-.58-4.87-.77a1.59,1.59,0,0,1-.35-1.26l.35-.7a2.48,2.48,0,0,1,1.4-.42,5.36,5.36,0,0,1,.63.07A46.38,46.38,0,0,1,461,45.75a2.13,2.13,0,0,1,.35,1.33l-.35.7a1.55,1.55,0,0,1-1.26.35A45.31,45.31,0,0,0,454.94,47.15Zm3.29,23.73a1.55,1.55,0,0,1-.35-1.26l.35-.7a20.37,20.37,0,0,0,6.93-2,18.5,18.5,0,0,0,5.74-4.29l1.57-2a6.67,6.67,0,0,0,1.12-2.17,2,2,0,0,1,1.33-.42l.7.35a1.55,1.55,0,0,1,.35,1.26,4.3,4.3,0,0,1-1.19,2.45L473.38,64l-3.53,3.53c-1.59.87-2.87,1.54-3.83,2a21.6,21.6,0,0,1-3.22,1.24,12.57,12.57,0,0,1-3.59.52A1.53,1.53,0,0,1,458.23,70.88Z"/><path class="cls-2" d="M501.42,74.38h-3.71c-.77-.07-1.87-.15-3.29-.24a13.09,13.09,0,0,1-3.15-.6,1.55,1.55,0,0,1-.35-1.26l.35-.7a2.18,2.18,0,0,1,1.29-.42,5.51,5.51,0,0,1,.6.07c1.47.17,3,.31,4.55.42H501c.14-.72.34-1.61.59-2.66a23.73,23.73,0,0,0,.46-2.69c-.4,0-1.05-.08-2-.18a18.51,18.51,0,0,0-2-.1h-6.86l-.7-.35a2.05,2.05,0,0,1-.35-1.33l.35-.7.7-.35h6.86l4.48.28.7-5.18-2.8-.21h-3.08l-5,.28h-3l-1.79.14-.7-.35a2.18,2.18,0,0,1-.35-1.33l.35-.7a3.87,3.87,0,0,1,2-.53,3.17,3.17,0,0,1,.53,0h3l5-.28h3.08c.58.07,1.47.13,2.66.17a8.45,8.45,0,0,1,2.52.53,4.13,4.13,0,0,1,.45,1.85,5.17,5.17,0,0,1-.07.74l-.14.91c-.56,3.54-1,6.34-1.4,8.38s-.85,4.11-1.43,6.21a1.57,1.57,0,0,1-1.26.35Z"/><path class="cls-2" d="M520.53,58.18a12.77,12.77,0,0,0-3.33-1.12,2.2,2.2,0,0,1-.35-1.33l.35-.7a2.11,2.11,0,0,1,1.23-.39,1.29,1.29,0,0,1,.38,0A20.17,20.17,0,0,1,522,55.8l3.08,1.33a1.59,1.59,0,0,1,.35,1.26l-.35.7a2.13,2.13,0,0,1-1.33.35A18,18,0,0,1,520.53,58.18Zm-1.16,16.2a2.16,2.16,0,0,1-.35-1.33l.35-.7c2.08-.25,3.79-.5,5.15-.75a24.59,24.59,0,0,0,4.15-1.14,14.5,14.5,0,0,0,3.9-2.13,14.21,14.21,0,0,0,3.24-4.69,28,28,0,0,0,1.69-6,1.58,1.58,0,0,1,1.26-.35l.7.35a2.19,2.19,0,0,1,.39,1.29,1.76,1.76,0,0,1,0,.46,37.67,37.67,0,0,1-.92,4.22,11.3,11.3,0,0,1-1.56,3.2,2.83,2.83,0,0,0-.91,1.12L535,69.73l-1.47,1.43a22,22,0,0,1-6.23,2.61,35,35,0,0,1-7.21,1Z"/><path class="cls-2" d="M568.46,73.47a8.94,8.94,0,0,1-2.17-.56,4.82,4.82,0,0,1-1.59-1l-.7-.7a13.94,13.94,0,0,1-2-3.09,6.78,6.78,0,0,1-.56-3.24A5.8,5.8,0,0,1,563,61.57a36.79,36.79,0,0,0,2.38-3h-2l-.84.28-.49,1a1.58,1.58,0,0,1-1.26.35l-.7-.35a2.74,2.74,0,0,1-.42-1.68c.23-2,.39-3.53.49-4.55s.25-2.54.49-4.55h-.63l-8.09.28a1.43,1.43,0,0,1-1.33-1.72l.35-.7a37,37,0,0,1,5-.45q3.36-.08,5-.18a10,10,0,0,1,.56-3.43,1.59,1.59,0,0,1,1.26-.35l.7.35a2.48,2.48,0,0,1,.42,1.4,5.36,5.36,0,0,1-.07.63l-.14,1.4a110.13,110.13,0,0,1,13.54,1,1.58,1.58,0,0,1,.35,1.26l-.35.74a2.45,2.45,0,0,1-1.4.42,5.36,5.36,0,0,1-.63-.07c-2.56-.14-4.54-.26-5.91-.35-2-.14-4-.21-6-.21l-.7,6.86h.63l2.1-.07,2.73.63c1-.42,2.05-1,3.22-1.58a9.16,9.16,0,0,1,3.46-1.08l.7.35a1.94,1.94,0,0,1,.42,1.4l-.35.7a10.07,10.07,0,0,0-2.31.8c-1,.47-1.71.81-2.2,1l-.07.21.21.14,1.19,1.33a4.07,4.07,0,0,1,.8,2.41l0,.46-.35.7a1.58,1.58,0,0,1-1.26.35l-.7-.35a4.91,4.91,0,0,0-1.54-2.87l-1.12-.63-.77.56c-.73,1-1.43,1.82-2.1,2.59a4.08,4.08,0,0,0-1,3A9.41,9.41,0,0,0,566,69.34l.14.07.35.35a2.1,2.1,0,0,0,1.05.77L570,71h2.8l2.2-.28.7.35a2.07,2.07,0,0,1,.35,1.33l-.35.7a5.27,5.27,0,0,1-2.83.63H570Z"/><path class="cls-2" d="M597.18,70.67q-1.2-5.17-1.72-7.73l-1.64-7.77h-.14l-2.35,3.64h-.14l-.38.66a1.9,1.9,0,0,1-1.51.46l-.77-.39a1.81,1.81,0,0,1-.35-1.36l.35-.74.25-.07a44.42,44.42,0,0,0,4.51-7.64,36.65,36.65,0,0,0,2.7-8.18,1.77,1.77,0,0,1,1.43-.45l.74.38a2.17,2.17,0,0,1,.42,1.33,1.47,1.47,0,0,1,0,.42,56.2,56.2,0,0,1-2.62,8.33q.95,3.75,1.75,7.62c.53,2.57,1.16,5.7,1.89,9.36l.28,1.4-.39.73a2.33,2.33,0,0,1-1.19.46A2,2,0,0,1,597.18,70.67Zm13.44-1.29a2.53,2.53,0,0,1-.49-1.54,2.12,2.12,0,0,1,0-.42l.07-.07V55.62l-.07-.66.07-1.82L610,50.65l-3.64-.07a31.36,31.36,0,0,1-1.43,6.34,1.86,1.86,0,0,1-1.44.35l-.73-.35a1.72,1.72,0,0,1-.39-1.37c.54-2.19,1-4.31,1.37-6.37l1.19-6.33a1.88,1.88,0,0,1,1.43-.39l.77.39a1.7,1.7,0,0,1,.39,1.36l-.46,3.4,1,.07h8.26a4.63,4.63,0,0,1,.74,0,7.44,7.44,0,0,1,3,.6,1.64,1.64,0,0,1,.35,1.36l-.35.74a8.44,8.44,0,0,1-2.66.45,8.67,8.67,0,0,1-1-.07l-.07-.07H613v.67l.21,2.48A17,17,0,0,1,619.79,55a1.88,1.88,0,0,1,.38,1.43l-.38.74a1.61,1.61,0,0,1-1.12.42,1.37,1.37,0,0,1-.39,0,14.24,14.24,0,0,0-5.11-.77v3.85c.73.07,1.89.11,3.5.11a6.68,6.68,0,0,1,2.73.52,1.67,1.67,0,0,1,.39,1.33l-.39.77a2,2,0,0,1-1.33.46l-4.9-.25v4a2.64,2.64,0,0,1-.45,1.86,1.66,1.66,0,0,1-1.33.38Z"/><path class="cls-2" d="M642.57,74.94a2.16,2.16,0,0,1-.35-1.33l.35-.7a24,24,0,0,1,2.56-1.08,7.26,7.26,0,0,0,2.41-1.44,3.71,3.71,0,0,0,.42-1.75,4.11,4.11,0,0,0-1.4-3.11,21.66,21.66,0,0,0-4.76-2.66H639l-.7-.35a2.2,2.2,0,0,1-.35-1.33l.42-.77,1.47-1.33a48.38,48.38,0,0,0,5.32-4.73q2.52-2.58,5-5l-2-.07H637.39l-5,.14a1.51,1.51,0,0,1-1-.42,1.55,1.55,0,0,1-.35-1.26l.35-.7a9.72,9.72,0,0,1,2.66-.38c1.49,0,2.6,0,3.32-.11h10.85c1.4.07,2.56.16,3.47.25a14.9,14.9,0,0,1,2.66.52,1.72,1.72,0,0,1,.38,1.05,1.69,1.69,0,0,1,0,.35l-.35.7-.28.28c-2.13,1.94-4,3.64-5.48,5.1s-3,2.94-4.43,4.46l-1.33,1.12a26.82,26.82,0,0,1,5,2.66v.14l.63.35.91,1a7.25,7.25,0,0,1,1.3,4.51,9.14,9.14,0,0,1,0,1.05,4.4,4.4,0,0,1-1.12,2.31l-.28.28a9.36,9.36,0,0,1-2,1.26c-.69.33-1.63.71-2.82,1.16l-.88.31A1.53,1.53,0,0,1,642.57,74.94Z"/><path class="cls-2" d="M682.82,49.08c-1.09-.07-3.15-.11-6.16-.11a61.91,61.91,0,0,0-6.3.21,21.85,21.85,0,0,1-3.6.14,1.51,1.51,0,0,1-1-.42,1.55,1.55,0,0,1-.35-1.26l.35-.7c1.4-.23,2.8-.39,4.2-.49s3.63-.14,6.68-.14c2.8,0,5.07,0,6.79.07a11.74,11.74,0,0,1,3.75.7,1.61,1.61,0,0,1,.35,1.26l-.35.7a2.7,2.7,0,0,1-1.23.42C684.85,49.28,683.8,49.15,682.82,49.08Zm-9.94,25.58a2.19,2.19,0,0,1-.42-1.12,1.64,1.64,0,0,1,.42-1l1.51-.31a42.14,42.14,0,0,0,4.9-1.21,8.46,8.46,0,0,0,3.22-1.91,8,8,0,0,0,2.19-3.22,11.1,11.1,0,0,0,.64-3.74,6.14,6.14,0,0,0-.64-3,7.16,7.16,0,0,0-1.88-2.08A5.08,5.08,0,0,0,680.58,56a22.31,22.31,0,0,0-3.16-.28c-1.58-.07-3.21-.11-4.89-.11-1.26,0-2.19,0-2.8.07a22.16,22.16,0,0,0-2.27.32,1.56,1.56,0,0,1-1-.42,1.58,1.58,0,0,1-.35-1.26l.35-.7a11.61,11.61,0,0,1,2.69-.63c.75,0,1.74-.07,3-.07,1.89,0,3.75,0,5.6.12a23.91,23.91,0,0,1,3.92.4,7.65,7.65,0,0,1,3,1.42,8.92,8.92,0,0,1,2.18,2.36,8.72,8.72,0,0,1,1.19,4.69c0,.52,0,.9,0,1.16a14.52,14.52,0,0,1-.9,4.16,10.44,10.44,0,0,1-2.85,3.82,11.9,11.9,0,0,1-2.88,2,15.88,15.88,0,0,1-2.94,1.09c-1,.23-2.18.49-3.7.77l-.91.17A1.53,1.53,0,0,1,672.88,74.66Z"/></g></g></g></svg>