<svg xmlns="http://www.w3.org/2000/svg" viewBox="0 0 731.8 118.78"><defs><style>.cls-1{fill:#fff;}.cls-2{fill:#009299;}.cls-3,.cls-4,.cls-5{fill:none;stroke:#fff;stroke-linecap:round;stroke-linejoin:round;stroke-width:3px;}.cls-4{stroke-dasharray:10.12 10.12;}.cls-5{stroke-dasharray:9.62 9.62;}</style></defs><title>3</title><g id="レイヤー_2" data-name="レイヤー 2"><g id="menu"><g id="項目"><rect class="cls-1" x="9.7" y="8.63" width="713.36" height="101.68"/><rect class="cls-2" x="10.07" y="10.11" width="98.68" height="98.68"/><path class="cls-1" d="M107.25,11.61v95.68H11.57V11.61h95.68m3-3H8.57V110.29H110.25V8.61Z"/><path class="cls-1" d="M51.79,78c-.86-.39-1.91-.94-3.13-1.65A3.22,3.22,0,0,1,48,74.13l.59-1.24a3.59,3.59,0,0,1,2.25-.59c.27.12.78.36,1.51.74a12.33,12.33,0,0,0,2.09.86,7.34,7.34,0,0,0,2,.29,4,4,0,0,0,.77-.06A14.64,14.64,0,0,0,61,73.27a8.17,8.17,0,0,0,3-2.15,4.27,4.27,0,0,0,1.06-3,7.65,7.65,0,0,0-.74-3.22,7.38,7.38,0,0,0-1.92-2.63,8.61,8.61,0,0,0-3.48-2,13.77,13.77,0,0,1-3.25-1.06,2.66,2.66,0,0,1-.6-2.13l.6-1.18a11.28,11.28,0,0,1,2.83-1.07c1.74-.39,3.35-2,4.85-4.66A5.44,5.44,0,0,0,64,47.54a6.32,6.32,0,0,0-1.78-4.38,9.67,9.67,0,0,0-3-2.09,7.72,7.72,0,0,0-3.31-.8,7,7,0,0,0-1.12.12,7.52,7.52,0,0,1-2.66.29L50.91,40a3.16,3.16,0,0,1-.71-2.24l.59-1.19a6.18,6.18,0,0,1,3.43-.88,17.5,17.5,0,0,1,1.86.12L57.7,36a11.8,11.8,0,0,1,4,1.22,15.24,15.24,0,0,1,3.93,3,9.33,9.33,0,0,1,2.84,6.85,12.09,12.09,0,0,1-.12,2,10.26,10.26,0,0,1-1.39,4,29.83,29.83,0,0,1-3.4,4.35,14.61,14.61,0,0,1,5.68,7,9.88,9.88,0,0,1,.59,3.31c0,2.44-1.12,4.77-3.37,7a13.44,13.44,0,0,1-4.88,3.22,16.27,16.27,0,0,1-5.4.86l-1.66-.06A8.2,8.2,0,0,1,51.79,78Z"/><polyline class="cls-3" points="730.3 112.28 730.3 117.28 725.3 117.28"/><line class="cls-4" x1="715.17" y1="117.28" x2="11.56" y2="117.28"/><polyline class="cls-3" points="6.5 117.28 1.5 117.28 1.5 112.28"/><line class="cls-5" x1="1.5" y1="102.67" x2="1.5" y2="11.31"/><polyline class="cls-3" points="1.5 6.5 1.5 1.5 6.5 1.5"/><line class="cls-4" x1="16.62" y1="1.5" x2="720.23" y2="1.5"/><polyline class="cls-3" points="725.3 1.5 730.3 1.5 730.3 6.5"/><line class="cls-5" x1="730.3" y1="16.12" x2="730.3" y2="107.47"/><path class="cls-2" d="M132.57,69.55a9.16,9.16,0,0,1-4.8-1.4,20.2,20.2,0,0,1-1.92-3.9,27.26,27.26,0,0,1-1.17-3.94c-.27-1.23-.62-3-1-5.14a1.61,1.61,0,0,1,.42-1,2.13,2.13,0,0,1,1.33-.35l.7.35q.84,4.13,1.63,6.88a26.42,26.42,0,0,0,2.15,5.26,22.33,22.33,0,0,0,3.85.53c1.36.07,2.67.17,4,.31h6l3.46-.31a26.21,26.21,0,0,1,3.57-.11l.21-1.68V60.28l.07-1.89-.28-1.26a1.61,1.61,0,0,1,.42-1,1.85,1.85,0,0,1,1.33-.42l.7.35a7.57,7.57,0,0,1,.6,3.15,8.44,8.44,0,0,1,0,1l-.07.07v4.79a8.48,8.48,0,0,0-.21,2,4.17,4.17,0,0,1-.42,1.89,18.72,18.72,0,0,1-4.58.67,45.67,45.67,0,0,0-4.76.31h-6C135.72,69.69,134,69.58,132.57,69.55Zm5.49-3.71a31.33,31.33,0,0,0-3.57-.24c-.44,0-.78,0-1,0l-1,.14-.77-.42a16.09,16.09,0,0,1-1.59-4.16c-.34-1.45-.68-3.29-1-5.53l-.32-2.1a2.22,2.22,0,0,1,.49-1.19,18.65,18.65,0,0,1,3.92-.7c1.78-.14,3.12-.26,4-.35V49l-.14-3.33h-6.69l-.07.07h-3.5l-.49.07a1.53,1.53,0,0,1-1-.42,1.59,1.59,0,0,1-.35-1.26l.35-.7a2.48,2.48,0,0,1,1.4-.42h3.57l.07-.07h12q3,.28,5.7.39a32.55,32.55,0,0,1,5.6.66,1.85,1.85,0,0,1,.42,1.33l-.35.7a1.66,1.66,0,0,1-1.12.42,1.44,1.44,0,0,1-.35,0q-2.24-.15-6.23-.49-2.9-.26-6.26-.25v1.58l.14,4h2.8a13.6,13.6,0,0,0,2.17.28,5.23,5.23,0,0,1,2.1.56,6.25,6.25,0,0,1,.91,3.15,29.42,29.42,0,0,0,.28,3.43V63a3,3,0,0,1-.56,1.78,4.65,4.65,0,0,1-2.38.7c-.91.05-1.8.12-2.66.21h-2.8a1.6,1.6,0,0,1-1,.21C138.49,65.87,138.23,65.84,138.06,65.84Zm-5.7-8.71,1.75-.14h3.29V55.8l-.14-1.75h-.49l-5,.56-.07.21.49,2.31Zm5.25,3.5-.07-.91h-3.43l-1.4.07v.35a9.63,9.63,0,0,0,.77,2.66l4.13.21Zm5-3.64,2.66-.07v-.63l-.21-2L142.79,54H140v.84l.14,2.17Zm0,5.95,2.87-.21V59.65h-2.8l-2.45.07v.84l.07,2.38Z"/><path class="cls-2" d="M168.93,72.35Q167,67.1,166,63a36.13,36.13,0,0,1-1.17-8.19,1.64,1.64,0,0,1,.42-1l.7-.35h3.29l.07-.07h3l.63-.21a6,6,0,0,0,1.38-2.45,14.69,14.69,0,0,0,.51-3.19l-3.43-.14h-3.68l-1,.07a1.53,1.53,0,0,1-1-.42,1.59,1.59,0,0,1-.35-1.26l.35-.7a3.51,3.51,0,0,1,2-.42h3.68l1.61.14h13.16l2.83-.07a6.5,6.5,0,0,1,3.15.63,1.58,1.58,0,0,1,.35,1.26l-.35.7a2,2,0,0,1-1.26.42,15.33,15.33,0,0,0-2-.22c-.7,0-1.59-.06-2.66-.06l-.07.07h-8.61a28.38,28.38,0,0,1-.41,3.07,11,11,0,0,1-.78,2.5h.56l.07-.07h4.13l1.64.14c1.87.14,3.42.28,4.64.44a29.24,29.24,0,0,1,3.62.68,3.94,3.94,0,0,1,.56,2.13,8.26,8.26,0,0,1-.07.88l-.21,3.92v9.83l-.42.84a2.46,2.46,0,0,1-1.47.56h-5a12.2,12.2,0,0,1-2-.14,13.47,13.47,0,0,0-2-.14l-1.75.14h-7.7a1.52,1.52,0,0,1-1.23.35Zm5.71-2.73v-.28l-.49-5.21V58l-.07-2h-.28l-1.54.21h-3l-1.61.07V57a30.4,30.4,0,0,0,1,5.65q.76,2.74,2.24,7Zm7.56-13.75-1.12-.07H177a5.15,5.15,0,0,0-.14,1.75c.58.07,1.48.13,2.69.17s2.11.11,2.7.18Zm.14,7.63v-.28l-.07-2.59c-1.43-.14-3.22-.21-5.39-.21v2.94l2.59.14Zm-3.78,6.12,4-.14V68.29l-.21-2.06h-2.87l-2.38-.07v.49a19.31,19.31,0,0,0,.35,3Zm10,.14v-8.5l.21-4.76-3.81-.35v3.36l.07.07v3.57l.07.07v3.15l.21,3.39Z"/><path class="cls-2" d="M217.76,73l-.84,0a13.85,13.85,0,0,1-4.48-.74,21.58,21.58,0,0,0-5.29-1l-.21.07a1.53,1.53,0,0,1-1-.42,1.59,1.59,0,0,1-.35-1.26L206,69a5.68,5.68,0,0,0,2.45-1.54,2.91,2.91,0,0,0,.53-1.68,2.07,2.07,0,0,0-.67-1.64,11.07,11.07,0,0,0-1.89-1,2.18,2.18,0,0,1-.35-1.33l.35-.7a11.45,11.45,0,0,0,3.68-3.36l.21-1a2.33,2.33,0,0,0-.84-.63,14.62,14.62,0,0,0-3.26-.21l-2,.35-.7-.35a1.59,1.59,0,0,1-.35-1.26l.35-.7a7.28,7.28,0,0,1,3.61-.81,7.38,7.38,0,0,1,.94,0,6.83,6.83,0,0,1,3.82,1.12l.35.35A3.44,3.44,0,0,1,213,57a4.38,4.38,0,0,1-.22,1.38,3.94,3.94,0,0,1-.62,1.17,12.75,12.75,0,0,1-1.5,1.72l-.63.56V62l.63.56a5.1,5.1,0,0,1,1,3.22l0,.63a6.23,6.23,0,0,1-.84,2.48,16.9,16.9,0,0,0,6.93,1.33h3.08v-.14l-1.05-.63a3.74,3.74,0,0,1-1-2.62,3,3,0,0,1,.84-2,2.17,2.17,0,0,1,1.5-.6l2,0,.42.07v-.28c-.24,0-.57,0-1,0a9.94,9.94,0,0,1-4-.73,1.39,1.39,0,0,1-.35-1H218a4.54,4.54,0,0,1-2.59,1.19l-.7-.35A1.55,1.55,0,0,1,214.4,62l.35-.7a17.56,17.56,0,0,0,2.31-1.68q-.28,0-.84,0a5.14,5.14,0,0,1-2.24-.45,1.58,1.58,0,0,1-.35-1.26l.35-.7.7-.35h3.15l2.1.07.56-.84h-.14l-.07.07h-2.94L215,55.38a5.48,5.48,0,0,1-.84-2.15,32.17,32.17,0,0,1-.28-3.31,2.92,2.92,0,0,1,.49-1.44l.91-.49h3.22v-.35l-.21-1.12h-2.87l-.77.07-.7-.35a1.55,1.55,0,0,1-.35-1.26l.35-.7a2.84,2.84,0,0,1,1.47-.49h7.21l1.26-.07.07.07h3l1.08.07,1.47-.07.7.35a1.58,1.58,0,0,1,.35,1.26l-.35.7a6,6,0,0,1-2.52.53,3.57,3.57,0,0,1-.66,0l-.28-.07v1.75h2.27a4.63,4.63,0,0,1,2,.42,2,2,0,0,1,.39,1.16,1.16,1.16,0,0,1,0,.35l0,.8a26.71,26.71,0,0,1-.23,2.75,5.84,5.84,0,0,1-.65,2,2.13,2.13,0,0,1-1.61.49l-.7-.14h-3.53l-1.19.07-.07.84h5.14a4.11,4.11,0,0,1,2.31.49,1.55,1.55,0,0,1,.35,1.26l-.35.7a2,2,0,0,1-1.26.42l-.84-.07v.14l2.52,1.12a1.55,1.55,0,0,1,.35,1.26l-.35.7a2.16,2.16,0,0,1-1.33.35,9.27,9.27,0,0,1-4-2.17l-1.33-1.47h-1.05l-2.59.21-1,1v.14l1.61.28h3.08a2.48,2.48,0,0,1,1.4.42,2,2,0,0,1,.42,1.4,17.3,17.3,0,0,0-.21,1.78,3.46,3.46,0,0,1-.56,1.65,3.38,3.38,0,0,1-2,.56,3.34,3.34,0,0,1-.63,0l-1.47-.07v.14l.07.28,1.19.14,2-.21.7.35a1.61,1.61,0,0,1,.35,1.26l-.35.7h-.07v.14h.14a26.61,26.61,0,0,1,2.76-.56l.7.35a1.58,1.58,0,0,1,.35,1.26l-.42.77a10,10,0,0,1-2.15.69c-.76.15-1.47.28-2.13.38s-1.1.17-1.28.19ZM207.29,48.41a15.67,15.67,0,0,1-2.73-.7,1.59,1.59,0,0,1-.35-1.26l.35-.7a1.72,1.72,0,0,1,1.05-.38,1.69,1.69,0,0,1,.35,0l2.77.53a7.34,7.34,0,0,1,2.59,1,1.61,1.61,0,0,1,.35,1.26l-.35.7a1.73,1.73,0,0,1-1.33.39A8.55,8.55,0,0,0,207.29,48.41Zm12.22,5a5.94,5.94,0,0,1-.56-2.66h-2.24v1a5.94,5.94,0,0,0,.35,1.68l2.38.07Zm4.55-5.22V46.59a3.19,3.19,0,0,0-1.33-.14l-1.68.07v.21l.28,1.4Zm-.7,5.15a13,13,0,0,1,.35-2.38l-2-.07v.35a11.5,11.5,0,0,1,.63,2.17h1Zm5.07,0v-.07a8.37,8.37,0,0,0,.14-2.24h-2.13l-.21,2.31,2.13.07Z"/><path class="cls-2" d="M261.51,74.31a1.55,1.55,0,0,1-.35-1.26l.35-.7c1-.49,2-.91,2.87-1.26a9.5,9.5,0,0,0,2.73-1.54v-.14l-2.66-2a1.57,1.57,0,0,1-.35-1.26l.35-.7a1.55,1.55,0,0,1,1.26-.35l2.55,1.61v.14l.91.42a20.13,20.13,0,0,0,2.1-5.53h-3l-2.55-.28a11.2,11.2,0,0,1-3.29,6.16,2.21,2.21,0,0,1-1.68.63l-.7-.35a1.55,1.55,0,0,1-.35-1.26L260,66a8.6,8.6,0,0,0,2.31-2.87v-.21h-.07c-1.08.72-1.94,1.26-2.61,1.61a5.78,5.78,0,0,1-2.22.63l-.7-.35a1.58,1.58,0,0,1-.35-1.26l.35-.7A34.25,34.25,0,0,0,260,61.12a11.47,11.47,0,0,0,2.4-2l.07-.21a5.79,5.79,0,0,1-1.58-.7l-.64-.42-.86-.56a1.58,1.58,0,0,1-.35-1.26l.35-.7a2.1,2.1,0,0,1,1.33-.35c.56.28,1.12.59,1.68.94a6.39,6.39,0,0,0,1.75.81c.28-.66.72-1.64,1.33-2.94a18.37,18.37,0,0,0,1.12-3.05H261.3l-1.47-.14A11.16,11.16,0,0,1,257.52,57a1.61,1.61,0,0,1-1.26.35l-.7-.35a2.06,2.06,0,0,1-.42-1.12h-.21l-3.43.35v.91q1.37,1.36,2.4,2.22a9,9,0,0,0,2.15,1.35A1.59,1.59,0,0,1,256.4,62l-.35.7A1.72,1.72,0,0,1,255,63a1.69,1.69,0,0,1-.35,0,8.31,8.31,0,0,1-1.28-.7l-1.14-.79L251.5,61l-.07.35v3l.07.07v7.31a5.9,5.9,0,0,1-.56,2.59,1.58,1.58,0,0,1-1.26.35l-.74-.35a2,2,0,0,1-.42-1.26l.21-1.61v-7l-.07-.07v-3l.07-.63h-.14a51.7,51.7,0,0,1-3.85,5.11,2,2,0,0,1-1.4.42l-.7-.35a2.2,2.2,0,0,1-.35-1.33l.35-.7a18.26,18.26,0,0,0,2.91-3.54q.8-1.29,2.48-3.81h-.21a23.26,23.26,0,0,1-3.5.21A1.37,1.37,0,0,1,243,55l.35-.7a7.84,7.84,0,0,1,2.38-.39,17,17,0,0,0,3-.24V52.09l-.14-2.49h-.28l-2.73.42a1.53,1.53,0,0,1-1-.42,1.59,1.59,0,0,1-.35-1.26l.35-.7c1.54-.37,3.16-.69,4.87-.94a24.74,24.74,0,0,0,4.76-1.23l.7.35a1.61,1.61,0,0,1,.35,1.26l-.35.7a12.5,12.5,0,0,1-3.64,1.33v.28l.21,4.1h.14a35.4,35.4,0,0,1,4.2-.35l.63.21a10.88,10.88,0,0,0,.59-2.84,10.46,10.46,0,0,1,.6-2.8,1.59,1.59,0,0,1,1.26-.35,4.53,4.53,0,0,0,2.38.63h5.25a5.31,5.31,0,0,1,2.62.56,2.13,2.13,0,0,1,.42,1.3,3.79,3.79,0,0,1-.07.59,16.14,16.14,0,0,1-1.4,4.31l-.31.66c-.91,1.87-1.45,3-1.61,3.4l2.06.21h3a5.17,5.17,0,0,1,2.45.56,3.11,3.11,0,0,1,.42,1.57,5.12,5.12,0,0,1-.07.67,17.5,17.5,0,0,1-4.41,9.06h-.14l-.21.42a11.72,11.72,0,0,1-2.88,1.89c-1,.47-2.33,1-3.94,1.54A1.51,1.51,0,0,1,261.51,74.31Z"/><path class="cls-2" d="M289.56,73.07a8.92,8.92,0,0,1-2.47-1.77,7.88,7.88,0,0,1-1.87-3.39,15.5,15.5,0,0,1-.44-4.34,10.86,10.86,0,0,1,3.15-7.84,14,14,0,0,1,4.48-3,15.64,15.64,0,0,1,5.29-1.21h3.57a10.13,10.13,0,0,1,6.61,3.12,21.57,21.57,0,0,1,2,3.29,10.54,10.54,0,0,1,1,3.22v2.8a10.37,10.37,0,0,1-1.4,3.57,1.93,1.93,0,0,1-1.33.42l-.73-.35a2.09,2.09,0,0,1-.42-1.12,8.8,8.8,0,0,0,1.19-4.38,5.52,5.52,0,0,0,0-.8A12.31,12.31,0,0,0,305.4,56a7.16,7.16,0,0,0-4.9-1.75v.63l.21,1.4v3.36a64.71,64.71,0,0,1-1.3,7.16,17.44,17.44,0,0,1-2.41,5.4l-.35.35h-.14v.14a5.84,5.84,0,0,1-3.92,1.4A14.18,14.18,0,0,1,289.56,73.07Zm4.78-2.19.49-.49a3.12,3.12,0,0,0,.84-1.15,26.58,26.58,0,0,0,1.38-4.38q.51-2.27.93-5.21V56.29l-.28-2h-.42a11.68,11.68,0,0,0-7.42,3.29,9.15,9.15,0,0,0-2.38,6.61c0,.45,0,.78,0,1a5.84,5.84,0,0,0,2,4.55,9.89,9.89,0,0,0,3.64,1.57Z"/><path class="cls-2" d="M337.11,62.66a1.55,1.55,0,0,1-.35-1.26l.35-.7.89-.47a9.73,9.73,0,0,0,1.21-.78,5.71,5.71,0,0,0,.91-.85,34.17,34.17,0,0,0,4.3-10l-4.37-.35h-5.39l-11.94.42a1.53,1.53,0,0,1-1-.42,1.59,1.59,0,0,1-.35-1.26l.35-.7a64.29,64.29,0,0,1,6.44-.52c2.89-.09,5.05-.18,6.48-.25h5.39a29.53,29.53,0,0,0,3.5.28,10.82,10.82,0,0,1,3.32.63,3.27,3.27,0,0,1,.42,1.65,5.06,5.06,0,0,1-.07.73A33.43,33.43,0,0,1,342,60.63l-.91.91a7.51,7.51,0,0,1-3,1.54A1.61,1.61,0,0,1,337.11,62.66Zm-9,11a1.55,1.55,0,0,1-.35-1.26l.35-.7a8.26,8.26,0,0,0,2-1.64,15.63,15.63,0,0,0,1.68-2.35A24.53,24.53,0,0,0,333.4,62V58.11l-.77-3.92a1.53,1.53,0,0,1,.42-1,1.55,1.55,0,0,1,1.26-.35l.7.35a7.47,7.47,0,0,1,.57,1.71c.13.61.27,1.38.41,2.31l.14.88V62a46.07,46.07,0,0,1-1,4.74,11.67,11.67,0,0,1-1.66,3.55h-.14l-1.12,1.75-.63.56-.42.21V73a3.23,3.23,0,0,1-2.31,1Z"/><path class="cls-2" d="M358.35,67.45a1.89,1.89,0,0,1-.35-1.36l.35-.7a3.19,3.19,0,0,1,1.89-.42h7l.07-.07h5l.07-.07H380a21.24,21.24,0,0,0,2.48.1,4.92,4.92,0,0,1,1.89.39,1.55,1.55,0,0,1,.35,1.26l-.35.73a5,5,0,0,1-2.24.46,6,6,0,0,1-.84,0l-1.43-.14h-7.49l-.07.07h-5l-.07.07h-7l-.91.14A1.53,1.53,0,0,1,358.35,67.45Zm1.82-12.84a2.11,2.11,0,0,1-.35-1.33l.35-.7a29.25,29.25,0,0,1,4.52-.46c1.68,0,3.19-.13,4.55-.24h6.16c1.09.09,2.32.14,3.67.14a12.8,12.8,0,0,1,3.5.49,1.55,1.55,0,0,1,.35,1.26l-.35.7a2.15,2.15,0,0,1-1.33.42l-5.84-.28h-6.16c-2.64.18-5.34.33-8.09.42A1.64,1.64,0,0,1,360.17,54.61Z"/><path class="cls-2" d="M396.75,70a2.35,2.35,0,0,1-.42-1.19,1.53,1.53,0,0,1,.42-1c.81-.91,1.56-1.82,2.24-2.74s1.61-2.24,2.8-3.94c-.82-.49-1.81-1.12-3-1.89a18,18,0,0,0-3.15-1.61,1.58,1.58,0,0,1-.35-1.26l.35-.7a2.28,2.28,0,0,1,1.26-.39,2,2,0,0,1,.39,0,24.18,24.18,0,0,1,3.11,1.71q1.79,1.15,3.12,1.86a40.66,40.66,0,0,1,3.81-5.88,43.75,43.75,0,0,0,3.82-5.92,2.16,2.16,0,0,1,1.33-.35l.7.35a1.61,1.61,0,0,1,.35,1.26,48.05,48.05,0,0,1-3.82,6,46.66,46.66,0,0,0-3.81,6c.65.42,1.47.9,2.45,1.43s1.79,1,2.45,1.44v.14l1.05.63a2.16,2.16,0,0,1,.35,1.33l-.35.7a2.13,2.13,0,0,1-1.33.35,46.85,46.85,0,0,0-6.3-3.64l-1,1.19c-.38.56-.73,1-1.05,1.43a15,15,0,0,0-1,1.51l-.56.73h-.14l-.35.7H400l-.77,1.12-.49.63a1.58,1.58,0,0,1-1.26.35Z"/><path class="cls-2" d="M430.38,67.28a9.81,9.81,0,0,1-2.62-7.49,12.42,12.42,0,0,1,3.32-7.7l-3-.07a10.37,10.37,0,0,0-2.73.42l-.84-.42a1.91,1.91,0,0,1-.35-1.37l.35-.7a8.83,8.83,0,0,1,2.57-.59c.9-.07,2.1-.11,3.62-.11,1.28.17,2.57.4,3.85.7a22.18,22.18,0,0,1,7-1.4h3.15a17,17,0,0,1,4.45,1.12,1.67,1.67,0,0,1,.35,1.3l-.42.84a2.13,2.13,0,0,1-1.33.35,11.21,11.21,0,0,0-3-.84h-3.15l-3.36.35v.14l2.52,2,.35.63h.14l.35.63h.14A7,7,0,0,1,443.49,58a12.81,12.81,0,0,1,.51,3.76c0,.61,0,1.07,0,1.37a11.7,11.7,0,0,1-1.89,4.55l-.91.91A7.32,7.32,0,0,1,436.47,70a8.33,8.33,0,0,1-1,0A9.66,9.66,0,0,1,430.38,67.28Zm8.26-.42a4,4,0,0,0,1.66-1.58,6.73,6.73,0,0,0,.83-2.34,13,13,0,0,0,.1-2.52,4,4,0,0,0-.54-2.08A17,17,0,0,0,439,56.08l-.46-.56a9.48,9.48,0,0,0-4.2-2.45l-1.26.84a10.12,10.12,0,0,0-2.59,7.7,8.92,8.92,0,0,0,.77,2.52h.14a6,6,0,0,0,5.36,3.11c.35,0,.61,0,.8,0Z"/><path class="cls-2" d="M464.79,56.71a39.85,39.85,0,0,1-4.27-.7,1.54,1.54,0,0,1-.35-1.26l.35-.7a3.17,3.17,0,0,1,1.61-.42,5.13,5.13,0,0,1,.7.07c1.6.23,2.9.39,3.88.49a29.23,29.23,0,0,1,3.78.7,2.1,2.1,0,0,1,.35,1.33l-.35.7a1.8,1.8,0,0,1-1.12.38,1.69,1.69,0,0,1-.35,0C467.76,57.06,466.35,56.87,464.79,56.71Zm1-9.56c-2.19-.32-3.82-.58-4.87-.77a1.55,1.55,0,0,1-.34-1.26l.34-.7a2.49,2.49,0,0,1,1.41-.42,5.84,5.84,0,0,1,.63.07,46.43,46.43,0,0,1,8.85,1.68,2.13,2.13,0,0,1,.35,1.33l-.35.7a1.55,1.55,0,0,1-1.26.35A45.31,45.31,0,0,0,465.8,47.15Zm3.29,23.73a1.55,1.55,0,0,1-.35-1.26l.35-.7A20.37,20.37,0,0,0,476,67a18.5,18.5,0,0,0,5.74-4.29l1.58-2a7,7,0,0,0,1.12-2.17,1.82,1.82,0,0,1,1.33-.42l.69.35a1.56,1.56,0,0,1,.36,1.26,4.41,4.41,0,0,1-1.2,2.45L484.25,64l-3.54,3.53c-1.59.87-2.86,1.54-3.83,2a20.18,20.18,0,0,1-3.22,1.25,12.57,12.57,0,0,1-3.59.52A1.53,1.53,0,0,1,469.09,70.88Z"/><path class="cls-2" d="M512.28,74.38h-3.71c-.77-.07-1.87-.15-3.29-.24a13.09,13.09,0,0,1-3.15-.6,1.55,1.55,0,0,1-.35-1.26l.35-.7a2.21,2.21,0,0,1,1.29-.42,5.51,5.51,0,0,1,.6.07c1.47.17,3,.31,4.55.42h3.29c.14-.72.34-1.61.59-2.66a23.73,23.73,0,0,0,.46-2.69c-.4,0-1-.08-2-.18a18.38,18.38,0,0,0-2-.1h-6.86l-.7-.35a2.13,2.13,0,0,1-.35-1.33l.35-.7.7-.35H509l4.48.28.7-5.18-2.8-.21h-3.08l-5,.28h-3l-1.79.14-.7-.35a2.2,2.2,0,0,1-.35-1.33l.35-.7a3.87,3.87,0,0,1,2-.53,2.36,2.36,0,0,1,.53,0h3l5-.28h3.08c.58.07,1.47.13,2.66.17a8.09,8.09,0,0,1,2.52.53A4.1,4.1,0,0,1,517,58a5.17,5.17,0,0,1-.07.74l-.14.91c-.56,3.55-1,6.34-1.4,8.38s-.85,4.11-1.43,6.21a1.55,1.55,0,0,1-1.26.35Z"/><path class="cls-2" d="M531.39,58.18a13.15,13.15,0,0,0-3.33-1.12,2.18,2.18,0,0,1-.35-1.33l.35-.7a2.14,2.14,0,0,1,1.23-.39,1.76,1.76,0,0,1,.38,0,20.17,20.17,0,0,1,3.19,1.12l3.08,1.33a1.55,1.55,0,0,1,.35,1.26l-.35.7a2.18,2.18,0,0,1-1.33.35A18.27,18.27,0,0,1,531.39,58.18Zm-1.16,16.2a2.16,2.16,0,0,1-.35-1.33l.35-.7c2.08-.25,3.8-.5,5.15-.75a24.59,24.59,0,0,0,4.15-1.14,14.5,14.5,0,0,0,3.9-2.13,14.21,14.21,0,0,0,3.24-4.69,28,28,0,0,0,1.69-6,1.58,1.58,0,0,1,1.26-.35l.7.35a2.19,2.19,0,0,1,.39,1.29,1.71,1.71,0,0,1,0,.46,37.67,37.67,0,0,1-.92,4.22,11.3,11.3,0,0,1-1.56,3.2,2.92,2.92,0,0,0-.91,1.12l-1.4,1.82-1.47,1.43a21.9,21.9,0,0,1-6.23,2.61,35,35,0,0,1-7.21,1Z"/><path class="cls-2" d="M579.32,73.47a9.06,9.06,0,0,1-2.17-.56,4.82,4.82,0,0,1-1.59-1l-.7-.7a14.32,14.32,0,0,1-2-3.09,6.88,6.88,0,0,1-.56-3.24,5.8,5.8,0,0,1,1.47-3.33,34.73,34.73,0,0,0,2.38-3h-2l-.84.28-.49,1a1.6,1.6,0,0,1-1.26.35l-.7-.35a2.88,2.88,0,0,1-.42-1.68c.23-2,.4-3.52.49-4.55s.26-2.55.49-4.55h-.63l-8.09.28a1.65,1.65,0,0,1-1-.46,1.59,1.59,0,0,1-.35-1.26l.35-.7a37.16,37.16,0,0,1,5-.45q3.36-.08,5-.18a10.28,10.28,0,0,1,.56-3.43,1.59,1.59,0,0,1,1.26-.35l.7.35a2.48,2.48,0,0,1,.42,1.4,3.8,3.8,0,0,1-.07.63l-.14,1.4a110,110,0,0,1,13.54,1,1.58,1.58,0,0,1,.35,1.26l-.35.74a2.45,2.45,0,0,1-1.4.42,3.8,3.8,0,0,1-.63-.07q-3.84-.21-5.91-.35-2.94-.21-6-.21l-.7,6.86h.63l2.1-.07,2.73.63c1-.42,2.05-1,3.22-1.58a9.16,9.16,0,0,1,3.46-1.08l.7.35a1.94,1.94,0,0,1,.42,1.4l-.35.7a10.07,10.07,0,0,0-2.31.8c-1,.47-1.71.81-2.2,1l-.07.21.21.14,1.19,1.33a4.07,4.07,0,0,1,.8,2.41l0,.46-.35.7a1.59,1.59,0,0,1-1.26.35l-.7-.35a4.83,4.83,0,0,0-1.54-2.87L579,59.86l-.77.56c-.72.95-1.42,1.82-2.1,2.59a4.08,4.08,0,0,0-1,3,9.41,9.41,0,0,0,1.82,3.32l.14.07.35.35a2.1,2.1,0,0,0,1,.77l2.38.42h2.8l2.2-.28.7.35a2.07,2.07,0,0,1,.35,1.33l-.35.7a5.25,5.25,0,0,1-2.83.63h-2.87Z"/><path class="cls-2" d="M608,70.67c-.79-3.45-1.37-6-1.72-7.73l-1.64-7.77h-.14l-2.35,3.64h-.14l-.38.66a1.93,1.93,0,0,1-1.51.46l-.77-.39a1.81,1.81,0,0,1-.35-1.36l.35-.74.25-.07a44.42,44.42,0,0,0,4.51-7.64,36.65,36.65,0,0,0,2.7-8.18,1.77,1.77,0,0,1,1.43-.45l.74.38a2.17,2.17,0,0,1,.42,1.33,1.47,1.47,0,0,1,0,.42,55,55,0,0,1-2.62,8.33q.94,3.75,1.75,7.62t1.89,9.36l.28,1.4-.39.73a2.33,2.33,0,0,1-1.19.46A2,2,0,0,1,608,70.67Zm13.44-1.29a2.51,2.51,0,0,1-.49-1.54,2.12,2.12,0,0,1,0-.42l.07-.07V55.62L621,55l.07-1.82-.28-2.49-3.64-.07a31.36,31.36,0,0,1-1.43,6.34,1.85,1.85,0,0,1-1.44.35l-.73-.35a1.76,1.76,0,0,1-.39-1.37q.81-3.28,1.37-6.37l1.19-6.33a1.88,1.88,0,0,1,1.43-.39l.77.39a1.67,1.67,0,0,1,.39,1.36l-.46,3.4,1,.07h8.26a6.24,6.24,0,0,1,.74,0,7.44,7.44,0,0,1,3,.6,1.64,1.64,0,0,1,.35,1.36l-.35.74a8.44,8.44,0,0,1-2.66.45,8.67,8.67,0,0,1-1-.07l-.07-.07h-3.36v.67L624,53.8A17,17,0,0,1,630.65,55a1.88,1.88,0,0,1,.38,1.43l-.38.74a1.59,1.59,0,0,1-1.12.42,1.41,1.41,0,0,1-.39,0,14.24,14.24,0,0,0-5.11-.77v3.85c.73.07,1.89.11,3.5.11a6.68,6.68,0,0,1,2.73.52,1.63,1.63,0,0,1,.39,1.33l-.39.77a2,2,0,0,1-1.33.46l-4.9-.25v4a2.64,2.64,0,0,1-.45,1.86,1.66,1.66,0,0,1-1.33.38Z"/><path class="cls-2" d="M653.43,74.94a2.16,2.16,0,0,1-.35-1.33l.35-.7A24,24,0,0,1,656,71.83a7.26,7.26,0,0,0,2.41-1.44,3.71,3.71,0,0,0,.42-1.75,4.11,4.11,0,0,0-1.4-3.11,21.26,21.26,0,0,0-4.76-2.66h-2.8l-.7-.35a2.18,2.18,0,0,1-.35-1.33l.42-.77,1.47-1.33A48.38,48.38,0,0,0,656,54.36q2.52-2.58,5-5l-2-.07H648.25l-5,.14a1.53,1.53,0,0,1-1-.42,1.55,1.55,0,0,1-.35-1.26l.35-.7a9.77,9.77,0,0,1,2.66-.38c1.49,0,2.6,0,3.32-.11H659.1c1.4.07,2.56.15,3.47.25a14.73,14.73,0,0,1,2.66.52,1.66,1.66,0,0,1,.38,1.05,1.69,1.69,0,0,1,0,.35l-.35.7-.28.28q-3.18,2.91-5.48,5.1c-1.53,1.45-3,2.94-4.43,4.46l-1.33,1.12a26.22,26.22,0,0,1,5,2.66v.14l.63.35.91,1a7.25,7.25,0,0,1,1.3,4.51,9.14,9.14,0,0,1,0,1.05,4.4,4.4,0,0,1-1.12,2.31l-.28.28a9.36,9.36,0,0,1-2,1.26c-.69.33-1.63.71-2.82,1.16l-.88.31A1.53,1.53,0,0,1,653.43,74.94Z"/><path class="cls-2" d="M693.68,49.08c-1.09-.07-3.15-.11-6.16-.11a61.91,61.91,0,0,0-6.3.21,21.8,21.8,0,0,1-3.6.14,1.53,1.53,0,0,1-1-.42,1.55,1.55,0,0,1-.35-1.26l.35-.7c1.4-.23,2.8-.39,4.2-.49s3.63-.14,6.68-.14c2.8,0,5.07,0,6.79.07a11.69,11.69,0,0,1,3.75.7,1.58,1.58,0,0,1,.35,1.26l-.35.7a2.66,2.66,0,0,1-1.23.42C695.71,49.28,694.66,49.15,693.68,49.08Zm-9.94,25.58a2.19,2.19,0,0,1-.42-1.12,1.64,1.64,0,0,1,.42-1l1.51-.31a42.14,42.14,0,0,0,4.9-1.21,8.39,8.39,0,0,0,3.22-1.91,7.89,7.89,0,0,0,2.19-3.22,11.1,11.1,0,0,0,.64-3.74,6.14,6.14,0,0,0-.64-3,7.16,7.16,0,0,0-1.88-2.08A5.08,5.08,0,0,0,691.44,56a22.31,22.31,0,0,0-3.16-.28c-1.58-.07-3.21-.11-4.89-.11-1.26,0-2.19,0-2.8.07a22.16,22.16,0,0,0-2.27.32A1.37,1.37,0,0,1,677,54.33l.35-.7A11.61,11.61,0,0,1,680,53c.75,0,1.74-.07,3-.07,1.89,0,3.76,0,5.6.12a23.91,23.91,0,0,1,3.92.4,7.59,7.59,0,0,1,3,1.42,8.92,8.92,0,0,1,2.18,2.36,8.72,8.72,0,0,1,1.19,4.69c0,.52,0,.9,0,1.16a14.87,14.87,0,0,1-.89,4.16,10.6,10.6,0,0,1-2.86,3.82,11.9,11.9,0,0,1-2.88,2,15.88,15.88,0,0,1-2.94,1.09c-1,.23-2.18.49-3.7.77l-.91.17A1.53,1.53,0,0,1,683.74,74.66Z"/></g></g></g></svg>