<svg xmlns="http://www.w3.org/2000/svg" viewBox="0 0 731.8 118.78"><defs><style>.cls-1{fill:#fff;}.cls-2{fill:#009299;}.cls-3,.cls-4,.cls-5{fill:none;stroke:#fff;stroke-linecap:round;stroke-linejoin:round;stroke-width:3px;}.cls-4{stroke-dasharray:10.12 10.12;}.cls-5{stroke-dasharray:9.62 9.62;}</style></defs><title>4</title><g id="レイヤー_2" data-name="レイヤー 2"><g id="menu"><g id="項目"><rect class="cls-1" x="9.7" y="8.63" width="713.36" height="101.68"/><rect class="cls-2" x="10.07" y="10.12" width="98.68" height="98.68"/><path class="cls-1" d="M107.25,11.61v95.68H11.57V11.61h95.68m3-3H8.57V110.29H110.25V8.61Z"/><path class="cls-1" d="M63.5,84.41a12.37,12.37,0,0,1-.77-4.31c0-2.44-.06-4.25-.18-5.44a33.67,33.67,0,0,1-6.12-.53c-2-.35-4.3-.83-7.06-1.42-.94-.23-1.42-1-1.42-2.24a12.31,12.31,0,0,1,.12-1.3q2.66-14.54,14.13-26.6L63,42a6.73,6.73,0,0,1,1.19-.68,2.46,2.46,0,0,1,1-.23c.91,0,1.46.8,1.66,2.42l.35,26.65,4.37-.35,1.19.59a3.64,3.64,0,0,1,.59,2.24l-.59,1.19a10.55,10.55,0,0,1-4.56,1,6.4,6.4,0,0,1-1-.06l.24,8.45-.59,1.18a2.69,2.69,0,0,1-2.13.6ZM62.08,50.32a34.35,34.35,0,0,0-5.77,8.42,49.8,49.8,0,0,0-3.51,10c2,.48,3.69.83,5.17,1.07a22.33,22.33,0,0,0,4.58.23Z"/><polyline class="cls-3" points="730.3 112.28 730.3 117.28 725.3 117.28"/><line class="cls-4" x1="715.17" y1="117.28" x2="11.56" y2="117.28"/><polyline class="cls-3" points="6.5 117.28 1.5 117.28 1.5 112.28"/><line class="cls-5" x1="1.5" y1="102.67" x2="1.5" y2="11.31"/><polyline class="cls-3" points="1.5 6.5 1.5 1.5 6.5 1.5"/><line class="cls-4" x1="16.62" y1="1.5" x2="720.23" y2="1.5"/><polyline class="cls-3" points="725.3 1.5 730.3 1.5 730.3 6.5"/><line class="cls-5" x1="730.3" y1="16.12" x2="730.3" y2="107.47"/><path class="cls-2" d="M155.45,69.62a2.29,2.29,0,0,1-.56-1.29,2.32,2.32,0,0,1,.46-1.12,1.74,1.74,0,0,1,1.4-.35l1,.14a12.35,12.35,0,0,0,4.38-1.4,27.28,27.28,0,0,0,4.24-2.91l.1-.21-2-1.85a24.06,24.06,0,0,1-5-9.7H158a24.19,24.19,0,0,1-2.58-.12,7.45,7.45,0,0,1-2-.51,1.67,1.67,0,0,1-.39-1.36l.39-.81a2.14,2.14,0,0,1,1.4-.45,3.89,3.89,0,0,1,.66.07l1.3.14H166v-3l-.21-2.31a1.93,1.93,0,0,1,.45-1.05,1.65,1.65,0,0,1,1.37-.38l.77.38a8.67,8.67,0,0,1,.63,3.36v3h11.51l1,.45a1.85,1.85,0,0,1,.38,1.44l-.38.77-.74.38h-4.66a14.74,14.74,0,0,1-1.33,4.53,52.88,52.88,0,0,1-2.93,5.2L171,62a35,35,0,0,0,9.83,3.43,2.1,2.1,0,0,1,.39,1.47l-.39.77a2.38,2.38,0,0,1-1.47.45,38.58,38.58,0,0,1-10.43-3.74q-6.22,5.52-12.39,5.67A2,2,0,0,1,155.45,69.62Zm13.06-9.45V60.1l2.76-4.44a14,14,0,0,0,1.82-4.73h-10.5v.14a29.3,29.3,0,0,0,3.92,7.49l.77.63,1.12,1.05Z"/><path class="cls-2" d="M193.77,57.13A19.28,19.28,0,0,1,193,53q-.13-2-.48-4.23a1.88,1.88,0,0,1,.45-1.09,1.83,1.83,0,0,1,1.4-.38l.24.07,2.66-.39h5.81l2.31.11v-.25a9.08,9.08,0,0,1-.35-2.13,14.3,14.3,0,0,0-.24-2.17,2.12,2.12,0,0,1,.42-1,1.71,1.71,0,0,1,1.36-.39l.74.39a5.86,5.86,0,0,1,.59,2.55,17.36,17.36,0,0,0,.21,2.73l-.06.32H212c1.56.14,3.17.24,4.83.31a21.57,21.57,0,0,1,4.76.74,1.57,1.57,0,0,1,.42,1.12,1.29,1.29,0,0,1,0,.38A12.43,12.43,0,0,0,220.72,53a33.41,33.41,0,0,1-.91,3.46,1.66,1.66,0,0,1-1.33.39l-.8-.39a2.5,2.5,0,0,1-.46-1.71c.28-.94.48-1.65.6-2.14.21-.88.4-1.58.56-2.1L212,50.06h-8.86l-.07-.07h-5.81l-1.71.21v.38l.7,5.81-.39.74a1.65,1.65,0,0,1-1.33.38Zm12.15,15.26a1.7,1.7,0,0,1-.39-1.33l.39-.77.73-.35a2.89,2.89,0,0,0,.32-1.37,3.07,3.07,0,0,0,0-.59q-3.36,0-5.49-.21l-.7.07-.74-.39a3.27,3.27,0,0,1-.45-1.22,2.37,2.37,0,0,1,.45-1,2.61,2.61,0,0,1,1.47-.42,5.23,5.23,0,0,1,.71.07,28.47,28.47,0,0,0,3.88.21v-.21A6.46,6.46,0,0,0,205,63.11a2.76,2.76,0,0,1-.74-1.71,12.62,12.62,0,0,1,2.42-3.26,26.57,26.57,0,0,0,2.8-3.08l-1.37-.17h-3.56l-1.86.24-.84-.45a1.91,1.91,0,0,1-.42-1.44l.35-.73a6.43,6.43,0,0,1,2.77-.53h3.56a27.12,27.12,0,0,1,3,.42,10,10,0,0,1,2.4.84,1.94,1.94,0,0,1,.45,1.51l-.39.73A20.42,20.42,0,0,0,211,57.86c-.79.91-1.59,1.79-2.41,2.63l-1.05,1v.21a8,8,0,0,1,.8,1.19,13.17,13.17,0,0,1,.63,1.24c.19.41.32.69.39.86l1.85.07c.89-.05,1.53-.07,1.93-.07a7.54,7.54,0,0,0,1.78-.21l1,.59a1.63,1.63,0,0,1,.39,1.33l-.39.77a2.29,2.29,0,0,1-1.12.46h-3.5l-1.43.07a8.4,8.4,0,0,1,.07.94,5,5,0,0,1-1.4,3.54,1.93,1.93,0,0,1-1.26.52A2,2,0,0,1,205.92,72.39Z"/><path class="cls-2" d="M250.6,73.47a8.94,8.94,0,0,1-2.17-.56,4.77,4.77,0,0,1-1.6-1l-.7-.7a14.52,14.52,0,0,1-2-3.1,6.84,6.84,0,0,1-.56-3.23,5.8,5.8,0,0,1,1.47-3.33,34.73,34.73,0,0,0,2.38-3h-2l-.84.28-.49,1a1.59,1.59,0,0,1-1.26.35l-.7-.35a2.88,2.88,0,0,1-.42-1.68c.24-2,.4-3.53.49-4.55s.26-2.55.49-4.55h-.63l-8.08.28a1.62,1.62,0,0,1-1-.46,1.55,1.55,0,0,1-.35-1.26l.35-.7a36.86,36.86,0,0,1,5-.45q3.36-.08,5-.18a10.28,10.28,0,0,1,.56-3.43,1.61,1.61,0,0,1,1.26-.35l.7.35a2.48,2.48,0,0,1,.42,1.4,3.8,3.8,0,0,1-.07.63l-.14,1.4a110.16,110.16,0,0,1,13.55,1,1.58,1.58,0,0,1,.35,1.26l-.35.74a2.48,2.48,0,0,1-1.4.42,5.36,5.36,0,0,1-.63-.07q-3.86-.21-5.92-.35-2.94-.21-5.95-.21l-.7,6.86h.63l2.1-.07,2.73.63c1-.42,2.06-1,3.22-1.58a9.21,9.21,0,0,1,3.47-1.08l.7.35a2,2,0,0,1,.42,1.4l-.35.7a10.07,10.07,0,0,0-2.31.8c-1,.47-1.72.81-2.21,1l-.07.21.21.14,1.19,1.33a4,4,0,0,1,.81,2.41l0,.46-.35.7a1.59,1.59,0,0,1-1.26.35l-.7-.35a4.78,4.78,0,0,0-1.54-2.87l-1.12-.63-.77.56c-.72,1-1.42,1.82-2.1,2.59a4.17,4.17,0,0,0-1,3,9.57,9.57,0,0,0,1.82,3.32l.14.07.35.35a2.1,2.1,0,0,0,1,.77l2.38.42h2.8l2.21-.28.7.35a2.13,2.13,0,0,1,.35,1.33l-.35.7a5.28,5.28,0,0,1-2.84.63h-2.87Z"/><path class="cls-2" d="M278.61,72.21q-.94-4-1.57-8.19c-.19-1.26-.56-3.61-1.12-7.07l-.21-1.15c-.54.72-1,1.47-1.54,2.24s-1,1.51-1.47,2.17a1.93,1.93,0,0,1-1.33.42l-.7-.35a1.58,1.58,0,0,1-.35-1.26q3.39-5.22,8.15-14.11a1.8,1.8,0,0,1,1.12-.38,1.69,1.69,0,0,1,.35,0l.7.35a1.58,1.58,0,0,1,.35,1.26,31.49,31.49,0,0,1-2.1,3.75,7.83,7.83,0,0,0-1.15,2.73A92.22,92.22,0,0,1,279.56,62l1.36,9.48-.35.7a1.55,1.55,0,0,1-1.26.35Zm10-.77a1.59,1.59,0,0,1-.35-1.26l.7-1.33a3.81,3.81,0,0,1-1.4-1.19l-.07-.87.35-.7a2.07,2.07,0,0,1,1.33-.35l1.33.7.49-1.89-4.9.14-.7-.35A12.27,12.27,0,0,1,284.21,60c-.16-1.68-.35-3.18-.56-4.51a1.61,1.61,0,0,1,.42-1,21.81,21.81,0,0,1,2.8-.46c1-.09,2.14-.16,3.47-.21l.87,0L291,51.18l-7,.21a1.64,1.64,0,0,1-1-.42,1.6,1.6,0,0,1-.35-1.26L283,49a3.67,3.67,0,0,1,1.72-.42c1,0,2.9,0,5.77-.14l-.14-1.12a1.64,1.64,0,0,1,.42-1,1.61,1.61,0,0,1,1.26-.35l.7.35a5.82,5.82,0,0,1,.56,2.24,32.43,32.43,0,0,1,8.09.84,1.68,1.68,0,0,1,.35,1.3l-.35.7a2.59,2.59,0,0,1-1.47.42,43.73,43.73,0,0,0-6.2-.49l.21,2.52c1.59,0,2.86,0,3.82.1a9.51,9.51,0,0,1,2.73.6,2.55,2.55,0,0,1,.56,1.64v1.37c0,1.91,0,3.66.07,5.25a2.25,2.25,0,0,1-.67,1.17,2,2,0,0,1-1.22.58h-5.36l-.77,2.94a11.34,11.34,0,0,0,2.24.77,8,8,0,0,1,2.21.8,1.58,1.58,0,0,1,.35,1.26l-.35.7a1.67,1.67,0,0,1-1.05.39,1.16,1.16,0,0,1-.35,0l-2.28-.66c-.84-.24-1.58-.48-2.24-.74l-1,1.4a1.82,1.82,0,0,1-1.33.42Zm2.87-9.69.07-5.18-5,.21.7,5Zm6.9.07-.07-5.11-4-.14v5.25Z"/><path class="cls-2" d="M323.69,70a1.67,1.67,0,0,1-.38-1.05,1.2,1.2,0,0,1,0-.35l.42-.77A8.06,8.06,0,0,0,327,65.81a4.39,4.39,0,0,0,1.09-2.91,3.57,3.57,0,0,0,0-.66,3.94,3.94,0,0,0-1-2.59q-1.58-.63-2.43-.93a8.15,8.15,0,0,0-1.91-.4H316.2l-2.73.28-.73-.35a2.11,2.11,0,0,1-.35-1.33l.35-.7a7.61,7.61,0,0,1,3.46-.63h6.44a15.72,15.72,0,0,1,6.17,2l.55.63a7.56,7.56,0,0,1,1.44,4.93l0,.95a9.93,9.93,0,0,1-1.9,3.74l-.56.56-.42.21v.14q-.56.31-1.68,1a3.57,3.57,0,0,1-1.82.59Z"/><path class="cls-2" d="M342.66,62.38a1.61,1.61,0,0,1-.35-1.26l.35-.7.91-.91a13.85,13.85,0,0,0,1.79-2.38c.49-.84,1-1.68,1.57-2.52l1-2.87h-3.4l-1.75.14a1.64,1.64,0,0,1-1-.42,2,2,0,0,1-.42-1.33l.35-.7a5.19,5.19,0,0,1,2.24-.49,4.07,4.07,0,0,1,.56,0h3.82a10.08,10.08,0,0,0,.35-3.22l-.07-.7a1.53,1.53,0,0,1,.42-1,1.59,1.59,0,0,1,1.26-.35l.7.35a5.67,5.67,0,0,1,.45,2.31,6,6,0,0,1,0,.7l-.21,1.82h6.16a4.85,4.85,0,0,1,.63,0,5.32,5.32,0,0,1,2.45.56,1.55,1.55,0,0,1,.35,1.26l-.35.7a5.11,5.11,0,0,1-2.1.42c-.19,0-.49,0-.91-.07l-.07-.07h-6.65a12.46,12.46,0,0,1-1.33,4.08,50.74,50.74,0,0,1-3,4.74h-.14l-.21.42H346l-.21.42-.91.91h-.14v.14a2.12,2.12,0,0,1-1.05.42A1.64,1.64,0,0,1,342.66,62.38Zm13.2,8.22A16.86,16.86,0,0,1,353,65.46a1.51,1.51,0,0,1,.42-1,2.05,2.05,0,0,1,1.33-.35l.7.35a10.16,10.16,0,0,0,.94,2,21.9,21.9,0,0,1,1.09,1.92h.14a3,3,0,0,0,1.05,1,8.14,8.14,0,0,0,4,.88,10.31,10.31,0,0,0,1.09,0,11.59,11.59,0,0,0,4-1.4l.07-.14a1.61,1.61,0,0,1,1.26-.35l.7.35a1.67,1.67,0,0,1,.39,1,1.16,1.16,0,0,1,0,.35l-.35.7A13.51,13.51,0,0,1,362.3,73,8.9,8.9,0,0,1,355.86,70.6Zm-.56-14.17a1.55,1.55,0,0,1-.35-1.26l.35-.7a10.18,10.18,0,0,1,3.29-.63h4c.49.07,1.25.13,2.27.17a6.59,6.59,0,0,1,2.1.46,1.55,1.55,0,0,1,.35,1.26l-.35.7a2.21,2.21,0,0,1-1.54.42l-2.83-.28h-4l-2.31.28A1.64,1.64,0,0,1,355.3,56.43Z"/><path class="cls-2" d="M391.14,72.63A13.27,13.27,0,0,1,389.49,68c-.14-1-.43-2.62-.87-4.9h-.14c-.28.35-.72.85-1.33,1.5a5.14,5.14,0,0,0-1.09,1.58,1.62,1.62,0,0,1-1.05.38,1.75,1.75,0,0,1-.35,0l-.7-.35a1.61,1.61,0,0,1-.35-1.26,21.45,21.45,0,0,1,2.52-3.26,24.74,24.74,0,0,0,2.49-3.25h-6.69l-.7-.35a2.18,2.18,0,0,1-.35-1.33l.35-.7.7-.35h8.16l.07.07h3.92l.35.07V54.68l-.07-1.4c-.86-.07-2.17-.13-3.92-.18a18.23,18.23,0,0,1-3.82-.52,1.61,1.61,0,0,1-.35-1.26l.35-.7a4.35,4.35,0,0,1,1.89-.42,6.53,6.53,0,0,1,.81.07l5,.28V48.41a46.57,46.57,0,0,0-4.94-.24,14.79,14.79,0,0,1-4.13-.6,1.59,1.59,0,0,1-.35-1.26l.35-.7a2.2,2.2,0,0,1,1.23-.38,2.12,2.12,0,0,1,.42,0c.81.07,2,.13,3.67.18,1.36,0,2.58.13,3.68.24V45.4l-.21-3,.35-.7a1.59,1.59,0,0,1,1.26-.35l.7.35a4,4,0,0,1,.49,1.93,12.42,12.42,0,0,0,.14,2.06h6a7.08,7.08,0,0,1,3.25.63,1.58,1.58,0,0,1,.35,1.26l-.35.7a1.63,1.63,0,0,1-1.05.39,1.2,1.2,0,0,1-.35,0L403,48.41h-6v2.42a29.29,29.29,0,0,0,3,.14,8.36,8.36,0,0,1,2.87.49,1.55,1.55,0,0,1,.35,1.26l-.35.7a2.79,2.79,0,0,1-1.68.42l-4.13-.28v1l.07,1.33,7.66.56H408l.77.42a1.55,1.55,0,0,1,.35,1.26l-.35.7a2.55,2.55,0,0,1-1.19.42c-1.86,0-3.72-.15-5.56-.32-1.19-.11-3.06-.24-5.6-.38l-.91.14a12.3,12.3,0,0,0-3.36-.28l-.14.21-.84,1v.21a27.56,27.56,0,0,0,.4,4.71q.4,2.33,1.21,5.47H393a6.2,6.2,0,0,0,1.85-.87,3.77,3.77,0,0,1,1.93-.67l.7.35a1.58,1.58,0,0,1,.35,1.26l-.35.7a13.3,13.3,0,0,1-5.39,2.24A1.53,1.53,0,0,1,391.14,72.63ZM395,63.78a1.9,1.9,0,0,1-.42-1.33l.35-.7a2.11,2.11,0,0,1,1.33-.35l.7.35a18,18,0,0,0,3.71,2.94h.28l2.38-2.87a1.91,1.91,0,0,1,1.4-.6.83.83,0,0,1,.31,0l.7.35a1.55,1.55,0,0,1,.35,1.26l-.35.7-.56.28-1.85,2.38a34.79,34.79,0,0,0,4.86,2.55,2,2,0,0,1,.42,1.4l-.35.7a1.78,1.78,0,0,1-1.05.42A44.26,44.26,0,0,1,395,63.78Z"/><path class="cls-2" d="M438.53,71.3a2.45,2.45,0,0,1-.42-1.4c.16-.7.3-1.44.42-2.24v-3h-1a1.93,1.93,0,0,1-1.33.42l-.7-.35a16.44,16.44,0,0,1-.79-3.36c-.15-1.17-.28-2.66-.4-4.48V50.48H434l-.42.14h-4.48v1.75l.07.07v4.41H432a2.06,2.06,0,0,1,1.12.42,2.16,2.16,0,0,1,.35,1.33l-.35.7a2.18,2.18,0,0,1-1.33.35l-.07-.07h-2.8l-.21,6.51H432l1.19-.07.7.35a1.6,1.6,0,0,1,.35,1.29l-.35.7a3.28,3.28,0,0,1-1.75.49h-6.62l-2.87.21-.7-.35a1.59,1.59,0,0,1-.35-1.26l.35-.73a5,5,0,0,1,2-.53l2.1-.1.21-6.51H423a1.58,1.58,0,0,1-1-.42,1.61,1.61,0,0,1-.35-1.26l.35-.7.7-.35h3.64V52.44l-.07-1.82h-2.59l-2.87.14-.7-.35a1.61,1.61,0,0,1-.35-1.26l.35-.74a3.32,3.32,0,0,1,1.72-.49c.44,0,1.06,0,1.85-.07h10.19l.63.21.1-2a3.62,3.62,0,0,1,.53-1.75l.7-.35h7.28c1.24.19,2.38.32,3.43.39a14.52,14.52,0,0,1,3.25.59,4.33,4.33,0,0,1,.77,2.59v3c-.35,2-.61,4.28-.8,6.82q-.24,3.47-.74,6.83a3.35,3.35,0,0,1-1.75.49c-.46,0-1.09,0-1.89.07v.42a6.48,6.48,0,0,0,.84,2.9,2.13,2.13,0,0,0,1.54.42l.7-.07.7.35a1.58,1.58,0,0,1,.35,1.26l-.35.7a2.93,2.93,0,0,1-1.75.53,4.45,4.45,0,0,1-3.11-1.3,5,5,0,0,1-1.19-2.13,18.7,18.7,0,0,1-.49-3l-1.4-.07v2.9L441,69.52a7.26,7.26,0,0,1-.49,1.78,1.57,1.57,0,0,1-1.26.35Zm9-20.33.28-.07v-.28l.07-2.77-.07-.63-4.65-.49h-5.81l-.28,4.1h5.18l2.31.14Zm-2.69,4.83,2.41-.28v-.35l.21-1.47h-2.9l-2.31-.14h-5.18v2.1l1.33.14Zm-.28,6.3,2.27-.14V60.07l.14-1.75h-.35l-1.78.21h-6.44l-1.19-.14v.77l.35,2.8,3.92.14Z"/><path class="cls-2" d="M463.76,67.8a25,25,0,0,1-1.59-5.51c-.31-1.9-.59-4.25-.82-7l-.18-2V49.5l.35-.74a2.2,2.2,0,0,1,1.33-.35l.7.35.35.74v3.71L464,54.5c.23,2.92.48,5.29.75,7.13a25.31,25.31,0,0,0,1.42,5.4l-.46.77a1.55,1.55,0,0,1-1.26.35ZM485,53.28a2.2,2.2,0,0,1-.35-1.33l1.54-2.87a10.48,10.48,0,0,0-2.62-.46h-3.85a11.76,11.76,0,0,0-4.41,1.51l-.28.56a1.72,1.72,0,0,1-1.05.38,1.69,1.69,0,0,1-.35,0l-.7-.35a2.42,2.42,0,0,1-.42-1.19,2.86,2.86,0,0,1,.56-1.16,13.12,13.12,0,0,1,6.65-2.45h3.85a30.53,30.53,0,0,1,3.06.44,7.23,7.23,0,0,1,2.29.89,1.52,1.52,0,0,1,.46,1.12,1,1,0,0,1,0,.35,8,8,0,0,1-.71,1.86c-.32.58-.73,1.28-1.25,2.1l-.42.63a1.59,1.59,0,0,1-1.26.35Zm-5.91,15.61A9.85,9.85,0,0,1,474,66.23a2,2,0,0,1-.77-1.82l.35-.7a1.63,1.63,0,0,1,1.05-.39,1.2,1.2,0,0,1,.35,0l.7.35.35.63.14.07a4.09,4.09,0,0,0,1.33,1,24.74,24.74,0,0,0,4.27,1.15c1.59.31,3,.63,4.3,1a1.58,1.58,0,0,1,.35,1.26l-.35.7a2,2,0,0,1-1.26.42C483.32,69.67,481.41,69.31,479.06,68.89Z"/><path class="cls-2" d="M504.08,71.09a1.92,1.92,0,0,1-.42-1.33l.35-.7a1.61,1.61,0,0,1,1.26-.35l.7.28V67q-.35-4.78-.63-7.31h-.14c-.51.11-1.12.28-1.82.49a8.12,8.12,0,0,1-1.89.35l-.7-.35a1.61,1.61,0,0,1-.35-1.26l.35-.7a12.1,12.1,0,0,1,2.14-.74l2.2-.52v-.42l-.21-1.4V52.3l-.14-2.87h-2.73l-1,.07-.7-.35a1.72,1.72,0,0,1-.35-1.3l.35-.7a4.23,4.23,0,0,1,2-.49h2.13v-.77a3.87,3.87,0,0,1-.21-1.22,2.36,2.36,0,0,1,.42-1.51,1.61,1.61,0,0,1,1.26-.35l.74.35a13.13,13.13,0,0,1,.56,3.43h.84l2-.07.7.35a1.61,1.61,0,0,1,.35,1.26l-.35.7a8.65,8.65,0,0,1-3.29.53v1.33l.14,1.61v2.87l.14,1.12h.28a3.15,3.15,0,0,1,1.54-.35l.7.35a2.16,2.16,0,0,1,.35,1.33l-.35.7a6.76,6.76,0,0,1-2.24.7v1.47a25,25,0,0,1,.35,3.25,27.05,27.05,0,0,0,.28,3.29v4.62l-.35.7a2.59,2.59,0,0,1-1.47.42A5.57,5.57,0,0,1,504.08,71.09Zm8.09-2.45a2,2,0,0,1-.35-1.33l.35-.73,1-.56.07-.14a7.15,7.15,0,0,0,2-4.13H515a14.89,14.89,0,0,1-3.64.77l-.7-.35a1.58,1.58,0,0,1-.35-1.26l.35-.7c.67-.24,1.53-.49,2.55-.77s1.88-.54,2.56-.77l.07-.07V55.73l-.84-.25c-.75-.23-1.51-.49-2.29-.77a22.06,22.06,0,0,1-2.12-.87,1.58,1.58,0,0,1-.35-1.26l.35-.7a2,2,0,0,1,1.33-.35l3.5,1.19V52.3a9.46,9.46,0,0,0-.67-3.22,24,24,0,0,1-.94-3.12l.35-.7a1.59,1.59,0,0,1,1.26-.35l.7.35a14.73,14.73,0,0,1,1.47,3.89c.3,1.37.58,3.09.84,5.14l.14,1V58.6a42.52,42.52,0,0,1-1,5,11.88,11.88,0,0,1-1.78,3.71l-.77.77-.49.42a2.55,2.55,0,0,1-1.4.56A1.51,1.51,0,0,1,512.17,68.64ZM524.64,66A4.16,4.16,0,0,1,523,64.83a13.11,13.11,0,0,1-2.36-5.37,35.92,35.92,0,0,1-.58-6.88,29.43,29.43,0,0,0,.14-3,6.1,6.1,0,0,1,.63-2.77,1.59,1.59,0,0,1,1.26-.35l.7.35a2.2,2.2,0,0,1,.35,1.33,13.08,13.08,0,0,0-.21,2.35,19.43,19.43,0,0,1-.14,2.38h.14a16.17,16.17,0,0,0,2.2-1.4,5,5,0,0,1,2.31-1.05l.7.35a1.55,1.55,0,0,1,.35,1.26l-.35.7q-1.4.87-2.52,1.71a6.75,6.75,0,0,1-2.76,1.23v.42l.21,1.47h.14l.35-.7a1.89,1.89,0,0,1,1.36-.35,7.38,7.38,0,0,0,2.31.91,24.56,24.56,0,0,1,2.45.63A1.55,1.55,0,0,1,530,59.3l-.35.7a2,2,0,0,1-1.26.42,19.55,19.55,0,0,1-2.71-.62,8.61,8.61,0,0,1-2.15-1l-.21-.14v.42a7.93,7.93,0,0,0,1.92,4.13,5.6,5.6,0,0,0,2.45.7,10.63,10.63,0,0,1,2.38-.7l.7.35a1.55,1.55,0,0,1,.35,1.26l-.42.77A6,6,0,0,1,527,66.65,17.76,17.76,0,0,1,524.64,66Z"/><path class="cls-2" d="M550.11,73.05a1.89,1.89,0,0,1-.49-1.54l-.14-5.7a58.89,58.89,0,0,0-6.34.56l-.7-.35a1.61,1.61,0,0,1-.35-1.26l.35-.7a8.41,8.41,0,0,1,3.36-.77c1.22,0,2.42-.1,3.61-.21l-.21-3.36-4,.21a10.75,10.75,0,0,1-1.89-.77,17.77,17.77,0,0,1-1.19-4.43c-.21-1.55-.35-3.39-.42-5.51a4.58,4.58,0,0,1,.49-1.23,2.05,2.05,0,0,1,1.54-.35,8,8,0,0,0-.77-2.17,6.63,6.63,0,0,1-.63-2l.35-.7a1.6,1.6,0,0,1,1.26-.35l.7.35A25,25,0,0,1,546,45.37a6.55,6.55,0,0,1,.49,2.2h5.22a17.4,17.4,0,0,1,2.38-5.11,1.59,1.59,0,0,1,1.26-.35l.7.35a1.72,1.72,0,0,1,.38,1,1.69,1.69,0,0,1,0,.35,17.29,17.29,0,0,1-2,3.78,7.24,7.24,0,0,1,2.94.56,4,4,0,0,1,.42,1.82c0,.17,0,.44-.07.81-.17,4.59-.47,7.35-.91,8.26a4.83,4.83,0,0,1-2.35.56c-.58,0-1.43,0-2.55.07l.21,3.36,4.2-.21.77.42a2.16,2.16,0,0,1,.35,1.33l-.35.7a2.2,2.2,0,0,1-1.05.42l-3.85.07.21,6.54-.35.7a1.58,1.58,0,0,1-1.26.35Zm-1.26-20.82-.14-1.89-4.17.07.07,1.89Zm.28,2.73-4.24.14.42,1.68,3.89.21Zm-.49-8a7.93,7.93,0,0,1-1.09-3.85,1.65,1.65,0,0,1,.46-1,1.59,1.59,0,0,1,1.26-.35l.7.35.52,2.1a16.6,16.6,0,0,0,.6,2l-.35.7a2.09,2.09,0,0,1-1.12.42A1.51,1.51,0,0,1,548.64,47Zm6.3,5.22.07-1.82-3.36-.07-.07,1.89Zm-.35,4.62L554.8,55h-2.94l.07,2ZM561,70.25a2,2,0,0,1-.35-1.33,2.75,2.75,0,0,1,.56-1.12,22,22,0,0,0,3.85-3.95,22.14,22.14,0,0,1-1.3-4.18c-.3-1.49-.57-3.2-.8-5.13l-2,0a2.64,2.64,0,0,1-1.47-.45,1.58,1.58,0,0,1-.35-1.26l.35-.7a5.11,5.11,0,0,1,2.1-.42,8.48,8.48,0,0,1,.91.07,39,39,0,0,1-.46-5.08,3.17,3.17,0,0,1,.53-1.82,1.59,1.59,0,0,1,1.26-.35l.7.35a2,2,0,0,1,.42,1.33,49.94,49.94,0,0,0,.28,5.57c.67.07,1.69.13,3,.17a10.17,10.17,0,0,1,2.87.53,1.55,1.55,0,0,1,.35,1.26l-.35.7a2.77,2.77,0,0,1-1.68.42l-3.71-.35c.17,1.38.34,2.57.53,3.59a25.55,25.55,0,0,0,.73,3,8.08,8.08,0,0,0,1-1.65A3.77,3.77,0,0,1,569.25,58l.84-.07.7.35a2,2,0,0,1,.35,1.33l-1.57,2.76c-.47.82-.83,1.51-1.09,2.07a15.91,15.91,0,0,0,1.35,1.75A17,17,0,0,0,571.77,68a1.85,1.85,0,0,1,.42,1.33l-.35.7a2.05,2.05,0,0,1-1.33.35,23.54,23.54,0,0,1-2.31-2,22.7,22.7,0,0,1-1.61-1.91q-2.05,2.13-4,4l-.63.14A1.51,1.51,0,0,1,561,70.25Zm7.52-20.33a19.69,19.69,0,0,1-1.35-2,6.44,6.44,0,0,1-.68-1.86,1.58,1.58,0,0,1,.42-1,1.72,1.72,0,0,1,1-.38,1.69,1.69,0,0,1,.35,0l.7.35,1.47,2.8a1.92,1.92,0,0,1,.35,1.37l-.35.7a1.59,1.59,0,0,1-1.26.35Z"/><path class="cls-2" d="M586.19,66.16a11.61,11.61,0,0,1-1.91-3.29,18.32,18.32,0,0,1-.94-3.59c-.18-1.18-.33-2.65-.47-4.43l-.11-1.08V50.13l.11-2.31a4.24,4.24,0,0,1,.59-2.07,1.6,1.6,0,0,1,1.26-.35l.7.35a1.67,1.67,0,0,1,.39,1,1.16,1.16,0,0,1,0,.35,17,17,0,0,0-.28,3v3.64l.07.84c.12,1.54.24,2.8.37,3.8a15.4,15.4,0,0,0,.73,3,9.7,9.7,0,0,0,1.56,2.82l.14.07.91.84,1.47,1a9.41,9.41,0,0,0,4.27.87,5.13,5.13,0,0,0,3.5-1.71,5,5,0,0,0,.89-1.4,10,10,0,0,0,.58-1.82V58.25a1.58,1.58,0,0,1,.42-1,1.68,1.68,0,0,1,1.3-.35l.7.35.35.7v4.55A22.35,22.35,0,0,1,602,65a7.15,7.15,0,0,1-1.08,1.89l-.53.59-.28.28a7.61,7.61,0,0,1-5.46,2.1A11.19,11.19,0,0,1,586.19,66.16Z"/><path class="cls-2" d="M614.72,68.92a7.19,7.19,0,0,1-1.44-4.72,5.35,5.35,0,0,1,1.44-3.92,5.83,5.83,0,0,1,2.38-1.12,13.51,13.51,0,0,1,3-.32c.56,0,1,0,1.26,0,.7.16,1.45.3,2.24.42a11,11,0,0,1,2.17.49V59a33.68,33.68,0,0,0-3.43-12.15l-.56-.7-.07-.84.35-.7a1.59,1.59,0,0,1,1.26-.35l.77.42v.14h.14l.21.42h.14a14.46,14.46,0,0,1,1.28,2.59c.31.87.73,2.11,1.24,3.75h.14l2.1-.35h3l.07-.07h5.36l.7.35a1.59,1.59,0,0,1,.35,1.26l-.35.7a2.2,2.2,0,0,1-1,.42h-5l-.07.07h-3l-1.47.21v.49a32.17,32.17,0,0,1,.7,6.09,15.42,15.42,0,0,1,3.78,2.17l.91.91,1.65,2a1.78,1.78,0,0,1,.38,1.12,1.87,1.87,0,0,1,0,.38L635,68a1.92,1.92,0,0,1-1.37.35l-.7-.35a10.61,10.61,0,0,0-1.63-2.31,7.75,7.75,0,0,0-2.08-1.64l-.84-.28a18.61,18.61,0,0,1-.51,3A5.85,5.85,0,0,1,626.65,69l-.42.42a9.67,9.67,0,0,1-6.23,2A10.57,10.57,0,0,1,614.72,68.92Zm9.06-1.19a2.57,2.57,0,0,0,1.33-1.5,22.47,22.47,0,0,0,.63-3.57,17.3,17.3,0,0,0-6.65-1,4.32,4.32,0,0,0-2.55.77,4.33,4.33,0,0,0-.56,2.17,4.59,4.59,0,0,0,.22,1.4,5.31,5.31,0,0,0,.58,1.22,14.63,14.63,0,0,0,2.31,1.16,5.44,5.44,0,0,0,2.24.31A17.9,17.9,0,0,0,623.78,67.73Z"/><path class="cls-2" d="M666.9,49.08c-1.09-.07-3.15-.11-6.16-.11a61.77,61.77,0,0,0-6.3.21,21.85,21.85,0,0,1-3.6.14,1.51,1.51,0,0,1-1-.42,1.55,1.55,0,0,1-.35-1.26l.35-.7c1.4-.23,2.8-.39,4.2-.49s3.62-.14,6.68-.14c2.8,0,5.07,0,6.79.07a11.79,11.79,0,0,1,3.75.7,1.61,1.61,0,0,1,.35,1.26l-.35.7a2.74,2.74,0,0,1-1.23.42C668.93,49.28,667.88,49.15,666.9,49.08ZM657,74.66a2.19,2.19,0,0,1-.42-1.12,1.53,1.53,0,0,1,.42-1l1.51-.31a42.14,42.14,0,0,0,4.9-1.21,8.46,8.46,0,0,0,3.22-1.91,7.86,7.86,0,0,0,2.18-3.22,10.87,10.87,0,0,0,.65-3.74,6,6,0,0,0-.65-3,7,7,0,0,0-1.87-2.08A5.13,5.13,0,0,0,664.66,56a22.51,22.51,0,0,0-3.17-.28c-1.57-.07-3.2-.11-4.88-.11-1.26,0-2.19,0-2.8.07a22.16,22.16,0,0,0-2.27.32,1.61,1.61,0,0,1-1-.42,1.58,1.58,0,0,1-.35-1.26l.35-.7a11.61,11.61,0,0,1,2.69-.63c.75,0,1.74-.07,3-.07,1.89,0,3.75,0,5.6.12a23.91,23.91,0,0,1,3.92.4,7.55,7.55,0,0,1,3,1.42,8.16,8.16,0,0,1,3.38,7.05c0,.52,0,.9,0,1.16a14.52,14.52,0,0,1-.9,4.16,10.44,10.44,0,0,1-2.85,3.82,11.76,11.76,0,0,1-2.89,2,15.37,15.37,0,0,1-2.94,1.09c-.94.23-2.17.49-3.69.77l-.91.17A1.53,1.53,0,0,1,657,74.66Z"/></g></g></g></svg>