<svg xmlns="http://www.w3.org/2000/svg" xmlns:xlink="http://www.w3.org/1999/xlink" viewBox="0 0 654.95 267.32"><defs><style>.cls-1,.cls-2,.cls-4,.cls-7{fill:none;}.cls-2,.cls-7{stroke:#faf6d9;}.cls-2,.cls-4,.cls-7{stroke-linecap:round;stroke-linejoin:round;}.cls-2{stroke-width:7px;}.cls-3{fill:#faf6d9;}.cls-4{stroke:#c45c66;}.cls-4,.cls-7{stroke-dasharray:8.03 8.03;}.cls-5{fill:#c45c66;}.cls-6{clip-path:url(#clip-path);}.cls-8{fill:#583726;}.cls-9{fill:#3c2213;}.cls-10{fill:#c3c154;}.cls-11{fill:#fff;}</style><clipPath id="clip-path"><path class="cls-1" d="M25,82.68H628.23a26.83,26.83,0,0,1,26.83,26.83v40.1a0,0,0,0,1,0,0H.1a0,0,0,0,1,0,0v-42A24.88,24.88,0,0,1,25,82.68Z"/></clipPath></defs><title>1</title><g id="レイヤー_2" data-name="レイヤー 2"><g id="chapter"><g id="label"><line class="cls-2" x1="329.88" y1="109.32" x2="373.27" y2="4.14"/><rect class="cls-3" x="0.05" y="82.71" width="654.69" height="184.61" rx="27.68" ry="27.68"/><rect class="cls-4" x="12.09" y="95.1" width="629.56" height="158.61" rx="20.59" ry="20.59"/><path class="cls-5" d="M24.88,82.73H628.13A26.83,26.83,0,0,1,655,109.56v40.1a0,0,0,0,1,0,0H0a0,0,0,0,1,0,0v-42A24.88,24.88,0,0,1,24.88,82.73Z"/><g class="cls-6"><rect class="cls-7" x="12.25" y="94.98" width="629.56" height="158.61" rx="20.59" ry="20.59"/></g><circle class="cls-8" cx="327.57" cy="123.11" r="14.58"/><line class="cls-2" x1="324.92" y1="108.67" x2="274.95" y2="3.5"/><path class="cls-9" d="M59.8,190.46c.29-1.28,1.73-1.28,2.75-1.28s2.82-.25,2.82,1.28c0,.8-.29,1.57-.29,2.37,0,.45.64.57,1,.57a.77.77,0,0,0,.77-.54,13.46,13.46,0,0,0,.48-2.53c.25-1.31,1.73-1,2.72-1,1.31,0,2.72,0,2.72,1.66,0,.61-.07,1.22-.07,1.83,0,1.15,1.25.54,1.76,1.09a3.41,3.41,0,0,1,.48,2.17c0,.45.07,1.31-.25,1.66s-1.15.32-1.6.32c-1.51,0-1.73,2.34-1.73,3.43,0,1.44,1.47.06,1.82,1.41a4.83,4.83,0,0,1,.1,1.21c0,4.42-2.14,1.63-3.17,3.33-1.73,2.88.9,4.38-4.29,4.38-1,0-2-.19-2-1.44,0-.92.35-1.79.35-2.72a.61.61,0,0,0-.7-.7c-2.56,0,0,4.67-3.84,4.67-1.47,0-3.27.1-3.27-1.85,0-.74.07-1.48.07-2.21,0-1.35-1.25-.48-1.76-1.25a3.59,3.59,0,0,1-.39-1.92c0-.48-.06-1.41.26-1.79s1.22-.32,1.63-.32c1.54,0,1.76-2.56,1.76-3.68l0-.32c-.77-.77-1.92.61-1.92-1.66,0-1.67-.16-3.11,1.92-3.11a1.24,1.24,0,0,0,1.15-.51,3.75,3.75,0,0,0,.45-1.18Zm4.67,11.84c1.09,0,1.34-2.69,1.34-3.46s-.35-.86-1-.86c-1.18,0-1.31,2.82-1.31,3.65C63.51,202.2,64,202.3,64.47,202.3Z"/><path class="cls-9" d="M79.86,200.44c0-6.27,3-11.58,9.83-11.58,6.72,0,9.88,5.18,9.88,11.39s-2.88,11.81-9.88,11.81C82.84,212.06,79.86,206.65,79.86,200.44Zm13-.48c0-2.3,0-6.43-3.26-6.43-3,0-3,4.87-3,6.95s.13,6.91,3.14,6.91C93,207.39,92.85,202.2,92.85,200Z"/><path class="cls-9" d="M118.42,210.11a2.34,2.34,0,0,1-.67.83,5,5,0,0,1-3,.74c-2.3,0-2.34-3.11-2.34-4.77a9.93,9.93,0,0,1,0-1.09c.06-1.18,0-2.4,0-3.58,0-.61.06-1.22.06-1.83,0-.8-.09-3.26-1.21-3.26-1.41,0-3.3,2-4.16,2s-.9-1-.9-1.63c0-1.47-.13-3.1.86-4.29,1.51-1.79,5-4.09,7.36-4.09,1.09,0,2.85.1,3.59,1,1.53,1.92,1.24,9.51,1.24,11.71C119.28,203.84,119.22,208.44,118.42,210.11Z"/><path class="cls-9" d="M143.09,203.68c.58,0,1.15,0,1.73,0,1.47,0,2.46.52,2.46,2.12,0,2.81-.19,4.48-3.52,4.48s-3.52-1.8-3.52-4.58C140.24,203.84,141.62,203.68,143.09,203.68Zm4.23-8c0,1.53-1.41,1.89-2.69,1.89l-1.57,0c-1.6,0-2.78-.33-2.78-2.18,0-3.55.22-4.38,4-4.38C147.19,191,147.32,193.44,147.32,195.71Z"/><path class="cls-10" d="M164.76,204.44c-.71,0-1.6-4.16-1.6-4.83a2.7,2.7,0,0,1,.54-1.63,38.11,38.11,0,0,0,3.78-6,22.27,22.27,0,0,1,1.66-4.07,2.18,2.18,0,0,1,1.89-1.18c.86,0,3.1.06,3.1,1.31a23.42,23.42,0,0,1-1.34,6.05,29.37,29.37,0,0,0-.74,7.87c0,3.3.23,6.59.23,9.89,0,1.66-.29,2.81-2.21,2.81a3,3,0,0,1-2.4-.73c-.83-.9-1.12-6.21-1.22-7.62a16.55,16.55,0,0,0-.09-2.11c0-.26-.16-.7-.42-.8C165.59,203.55,165.11,204.44,164.76,204.44Zm15.87-10.14c3.9,0,4.61,1.22,4.61,4.93,0,1.28,0,2.59,0,3.87,0,1.66-.32,4.06-2.47,4.06-.6,0-1.24-.09-1.85-.09s-1.79-.13-2.24.61c-.35.54,0,1.44-.61,1.72a5,5,0,0,1-2.08.2,4.59,4.59,0,0,1-1.12-.16c-1.38-.42-1.38-4.26-1.38-5.41s-.09-2.43-.09-3.65c0-3.26.57-6.08,4.48-6.08Zm6.11,3.49c0-1.47-.07-3.81-1.38-4.8-1.47-1.09-5.28-.83-7-.83a6.78,6.78,0,0,1-2.56-.26c-.87-.38-1-1.25-1-2.11,0-2.53,2.75-2.46,4.57-2.46.87,0,1.73,0,2.59,0,2.24,0,10.24,0,11.62,1.64a4,4,0,0,1,.61,2.72c0,1.75-1.73-.29-1.73,2.17,0,2.75.13,5.5.13,8.26,0,2.52,0,9.72-1.76,11.48-1.19,1.19-3.78,1.19-5.35,1.19-.86,0-1.73.06-2.59.06-2.27,0-2.4-1.57-2.4-3.42,0-1.28,1.44-1.47,2.46-1.47.68,0,1.35.09,2,.09.48,0,1.22,0,1.44-.51a33.83,33.83,0,0,0,.29-5.28Zm-7.33.51c-.7,0-.89.58-.89,1.19v2.14c0,1,.16,1.5,1.28,1.5.8,0,.86-1,.86-1.53s.06-.9.06-1.35c0-.67-.09-1.95-1-1.95Z"/><path class="cls-10" d="M210.9,192a9.7,9.7,0,0,0-3.26-.36c-1.09,0-2.21,0-3.33,0s-2,.09-3,.09c-.83,0-1.63-.19-1.63-1.18,0-.77.13-1.76.86-2.15.9-.48,5.09-.54,6.31-.6a13.71,13.71,0,0,0,3.2-.2c1.4-.41.76-1.15,1.82-1.6a11.62,11.62,0,0,1,2.4-.16c.61,0,2.56,0,2.88.61.13.23.06.42.16.64,0,.77,3.65.67,4.22.67,1.6,0,6.47-.12,7.07,1.73a4.39,4.39,0,0,1,.13,1.31c0,.93-1.76.93-2.4.93-2.24,0-4.45-.16-6.68-.16-.32,0-1.86,0-1.86.48,0,.29,1,.29,1.25.29,1.6,0,3.17-.1,4.76-.1,3,0,3.78,1.28,3.78,4.13a4.91,4.91,0,0,1-.13,1.22c-.32,1.18-2.91,1.12-3.87,1.12-1.41,0-2.78-.1-4.19-.1-.35,0-1.76,0-1.89.35.26.45,2.31.45,2.82.45,1.76,0,3.52-.1,5.31-.1,3.1,0,2,2.72,2.46,3.4.26.38,1,.06,1.25.38a2.47,2.47,0,0,1,.26,1.44c0,2.24-1.12,1.25-1.57,2.05a4.38,4.38,0,0,0-.42,2c0,.26,0,.55-.06.8-.29,1.73-3.23,1.7-4.58,1.7-.41,0-1.12.06-1.12-.48s-2.59-.48-2.85-.48c-2.65,0-1.11,2.5-2.46,3.84-.89.93-2.69,1-3.9,1-1,0-1.95.13-2.95.13-2.43,0-3.48-1-3.48-3.42,0-.9,1.44-.9,2.08-.9s1.31.1,2,.1c.48,0,.74-.07.74-.61a10.84,10.84,0,0,0-2.28-.26c-1.4,0-2.78.1-4.19.1-1,0-4-.1-4.38-1.15a2.6,2.6,0,0,1-.13-1c0-.93,2.21-.9,2.66-.9,2.14,0,4.32.16,6.46.16.26,0,1.25,0,1.25-.35,0-.51-2.24-.48-2.63-.48l-3.45,0c-1.38,0-5.57.1-5.41-2.08l0-.16V204c0-1.22,5-1.06,5.89-1.06,1.47,0,2.91.13,4.38.13.32,0,1.66-.1,1.76-.42a4.28,4.28,0,0,0-1.86-.41c-1.69,0-3.39.16-5.08.16-1.12,0-4.2-.1-4.2-1.73,0-1.47,4.16-1.44,5.16-1.44s1.88,0,2.84.1c.39,0,.8.06,1.19.06a4.34,4.34,0,0,0,1.85-.29l.1-.16c-.32-.48-4.26-.38-5-.38-1,0-2.05.06-3.07.06-1.73,0-2.05-.83-2.05-2.43a5.19,5.19,0,0,1,.45-2.78c.67-1.06,4.19-1.12,5.37-1.12l2.05,0c.29,0,1.89,0,2-.23ZM208.76,195c-.45,0-2.08,0-2.08.67s1.66.45,1.88.45l.48,0c.32,0,1.86,0,1.86-.45,0-.61-.77-.7-1.25-.7Zm12,1.15c.29,0,1-.13,1-.51,0-.68-2-.64-2.49-.64s-1.7,0-1.7.64c0,.44,1.83.51,2.21.51Zm-1.15,10.21-.7,0c-.32,0-1.38,0-1.38.48,0,.32,1,.38,1.22.38H220c.29,0,1.88,0,1.88-.41s-1-.48-1.31-.48Zm0-4.16c-.35,0-2.08,0-2.08.48s1.32.44,1.64.44c.16,0,.28,0,.44,0,.35,0,2.34,0,2.34-.48S219.92,202.24,219.6,202.24Z"/><path class="cls-9" d="M242.32,195.58c-.32-.32-1.6-.35-2.08-.35s-1.08.06-1.63.06c-1.12,0-2-.32-2-1.56s.06-3.14,1.76-3.3a15.28,15.28,0,0,1,1.79,0,4.94,4.94,0,0,0,2-.29c1.31-.51.35-2.72,2-2.94a13.74,13.74,0,0,1,2-.1,18.58,18.58,0,0,1,2.24,0c1,.13.9,1,.9,1.79,0,1.25,2.08,1.28,2.94,1.28s1.48-.09,2.21-.09c2.95,0,5-.16,5,3.49,0,1.72-3.52,1.72-4.71,1.72s-2.27-.13-3.39-.13c-.74,0-2.59-.19-2.59,1s1.34,1.25,2.17,1.25a11.13,11.13,0,0,0,1.44-.09h0a4.69,4.69,0,0,1,1,0c1.8,0,3.68,0,3.68,2.34,0,2.11-.76,2.91-2.88,2.91-1,0-1.88-.13-2.81-.13-1.44,0-2.91,0-2.91,1.83,0,3.55.22,3.9,4,3.9,2,0,4.25-.16,4.09-2.21.07-.7.1-1.47.1-2.14.28-1.89,4.28-1.34,5.12-1.34,2,0,1.95,2,1.95,3.45,0,6.53-3.91,8-11.84,8.1-6.56.06-10.69-.61-10.69-6.27,0-3.24.74-5,.16-5.22h0a10,10,0,0,0-1.37-.13c-.64,0-1.28.07-2,.07-2.37,0-2.79-.74-2.79-3,0-1.66,1.54-2,2.91-2,.61,0,1.25,0,1.86,0,1.47,0,2.11-.29,2.11-1.86Z"/><path class="cls-9" d="M283.73,201.24h0c-.44-.44-3.32-.35-4.06-.35-1.25,0-2.5.07-3.71.07s-3.26-.26-3.3-1.73v-.39a5.7,5.7,0,0,1,.19-1.69c.49-1.38,5.38-1.31,6.66-1.31,1.06,0,2.08.06,3.14.06.41,0,1,0,1-.58l-.26-.63a16.8,16.8,0,0,0-3.2-.13c-2.14,0-4.25.09-6.37.09-1.4,0-2.11-.61-2.11-2,0-2.6,2.69-3,4.77-3,1.34,0,2.72.09,4.1.09.86,0,2.43,0,3.07-.61a.76.76,0,0,0,.25-.51c0-.19,0-.38,0-.57,0-1,1.35-1.06,2.08-1.06s2.88,0,3.43.67c.28.35.16.55.16.93,0,2.3,5.88-.42,7.51,2.56a5.06,5.06,0,0,1,.42,2.3c0,1.19-1.73,1.38-2.62,1.38-1.25,0-2.47-.16-3.71-.16-.32,0-1.32.06-1.32.8,0,.54,1.12.57,1.51.57s.8-.06,1.21-.06c2.5,0,3.91-.13,3.91,3.26,0,1.44-1,1.73-2.47,1.73-.54,0-1.08-.06-1.66-.06-1.5,0-2.46.41-2.46,2.08,0,2.72,4.25,1.79,7.1,5,.67.74-1.7,4.48-3.46,4.67-1.37.16-2.75-2-3.77-2-.77,0-1.19.67-1.67,1.15h0c-1.57,1.82-4.2,2.21-6.5,2.21-4.19,0-8.38-2.31-8.38-6.95,0-3.23,2.62-4.38,5.79-4.73a38.94,38.94,0,0,1,4.32-.1.48.48,0,0,0,.54-.57ZM281,206.52c-.71,0-1.76.29-1.76,1.16,0,1.08,1.28,1.21,2.11,1.21s2.53-.09,2.53-1.28v-.32c0-.61-1.63-.77-2.08-.77Z"/><path class="cls-9" d="M307.41,194.49c-1.21,0-2.65-.57-2.65-2.08a3.34,3.34,0,0,1,.32-1.76c1-1.69,7.45-1.66,9.28-1.66a8.37,8.37,0,0,0,2.94-.22c.67-.33.64-.71.64-1.35,0-1.25,1.44-1.28,2.37-1.28s3-.06,3.58.74a1.25,1.25,0,0,1,.16.89c0,1.35,2.31,1.28,3.23,1.28h2.21c2.37,0,4.13.71,4.13,3.36,0,1.67-2.34,1.76-3.55,1.76s-2.21-.19-3.33-.19c-1.41,0-2.37.38-2.37,2,0,2.63.9,5,.9,7.62,0,6.08-5.67,10.3-11.36,10.3a3.28,3.28,0,0,1-3-4c.61-2.24,6.37-1.44,7.55-2.27.86-.39.42-.83-.35-.8s-2.21.41-3.07.41c-4,0-7-2-7-6.46,0-4.19,3.36-5.89,8-6.14.54,0,1.05.19,1.6.19.25-.61-.1-.77-.35-.74A76.92,76.92,0,0,1,307.41,194.49Zm9,8.07a1.76,1.76,0,0,0,2-1.67c0-1.12-1-1.66-2-1.66s-2,.45-2,1.57A1.8,1.8,0,0,0,316.37,202.56Zm8.42-4.36c0-1.15,2-1.79,2.94-1.79.61,0,2.82,3.55,2.82,4.23,0,.92-2,1.82-2.79,1.82S324.79,199,324.79,198.2Zm8.38-3c.93.16,2.59,3.74,2.46,4.6s-2.24,1.51-3,1.38c-.9-.13-2.66-3.81-2.53-4.7C330.29,195.42,332.31,195.07,333.17,195.2Z"/><path class="cls-9" d="M342.87,211.93c-1.51-2.33-2.21-8.86-2.21-11.68A31.78,31.78,0,0,1,342.45,190a3.23,3.23,0,0,1,1.19-1.5,3.67,3.67,0,0,1,1.85-.45c1.06,0,2.72,0,2.72,1.47a34.34,34.34,0,0,1-.61,5.41A38.77,38.77,0,0,0,347,201c0,3.71,2.27,8.8.76,11.1a2.36,2.36,0,0,1-2.36,1.06A2.88,2.88,0,0,1,342.87,211.93Zm13.73,1.73c-4.26,0-8-2.43-8-7,0-5.34,5.31-6,9.47-6,.29,0,.32-1.25.32-1.48,0-2-.55-2.62-2.59-2.62-1,0-1.89.16-2.85.16-2.27,0-3.07-.26-3.07-2.72,0-2.14,2-2.46,3.77-2.46.87,0,1.76.13,2.66.13,1.31,0,1.73-.55,1.73-1.83,0-.25,0-.48,0-.7,0-1.41,1-1.76,2.18-1.76.42,0,.83,0,1.25,0,3.71,0,2.3,2.68,3.23,4a1.3,1.3,0,0,0,.86.48c2.69.67,4-.41,4,3.49,0,1.15-.86,1.5-1.89,1.5l-1.28,0c-1.15,0-1.66.61-1.66,1.76v2.91a7.39,7.39,0,0,0,.22,1.86c.45,1.7,3.94,3.9,3.94,5.15,0,.87-2.14,3.65-3,3.65a3.58,3.58,0,0,1-1.53-.77h0a2.15,2.15,0,0,0-1.6.35C360.88,213.5,359.73,213.66,356.6,213.66Zm1.72-7.46c0-.41-1.08-.6-1.4-.6h-.45c-1,0-1.89.44-1.89,1.53s.9,1.44,1.82,1.44c1.25,0,1.92-.48,1.92-1.79Z"/><path class="cls-10" d="M392.37,188.29a3.49,3.49,0,0,0,1.51-.26c.38-.22.41-.93.41-1.31,0-.87,1.41-.74,1.95-.74.74,0,3,.07,3.49.51.35.32.29.48.29.87,0,2.72,4.54-.93,4.54,4.19,0,1-.83,1.12-1.63,1.12l-1.09,0c-1,0-1.28,1-1.28,1.85s0,1.73,0,2.63c0,3.71,3.59,1.95,4.42,3a2.32,2.32,0,0,1,.32,1.38c0,1,0,1.79-1.15,2.05-.55.12-1.16,0-1.7.09-.06,0-.29,0-.29.13,0,.77,3.46.58,3.46,2.11,0,1.06-1.19,3.14-2.37,3.14-1,0-1.89-.77-2.88-.77l-.19,0c-.29.29,0,.35-.45.74a9,9,0,0,1-2.34.22l-2,0c-.39,0-2.08-.1-2.08.45s1.18.48,1.5.48c2.43,0,4.83-.16,7.26-.16.93,0,2.05,0,2.05,1.25a2.87,2.87,0,0,1-.38,1.56,2,2,0,0,1-1.34.8,57.43,57.43,0,0,1-12.2.8,64.1,64.1,0,0,1-11.58-.6,3,3,0,0,1-1.79-.84,2.86,2.86,0,0,1-.55-1.92c0-.92,1.16-1,1.86-1,2.69,0,5.34.13,8,.13.35,0,1-.07,1-.55l-.06-.16a8,8,0,0,0-2.5-.25c-.67,0-1.31,0-2,0a6,6,0,0,1-1.95-.26c-.23-.22-.13-.67-.51-.67-1.16,0-2.15.8-3.3.8a5.09,5.09,0,0,1-2.05-3.23c0-1,2.85-1.63,3.62-1.86-.13-.51-2.11-.51-2.53-.51-.67,0-.7-1.95-.7-2.4,0-1.56,1.72-1.34,2.78-1.34,1.5,0,1.86-1.57,1.86-2.82,0-.57,0-1.15,0-1.76a12.54,12.54,0,0,0-.06-1.5,1.26,1.26,0,0,0-.35-.7c-.39-.32-1.92-.2-2.27-.2-1,0-1.22-.41-1.22-1.34,0-2.3.51-2.75,2.78-2.75a2.75,2.75,0,0,0,1-.16c.61-.32.41-1.28.77-1.83.41-.7,2.81-.64,3.52-.64.28,0,.54,0,.83,0,1.95,0,.67,1.67,1.53,2.05a13.88,13.88,0,0,0,3.52.26Zm-6.24,17.43c2.05,0-.45-1.44,2.88-1.44.93,0,1.86,0,2.75,0,.29,0,1,0,1.25.22.67.67-.09,1.18,1.44,1.18.26,0,.9,0,.9-.38,0-1.73-4.9-1.73-6.08-1.73a5.34,5.34,0,0,0-3.59,1.09c-.22.19-.57.42-.57.74S385.94,205.72,386.13,205.72Zm8.35-9.69-.09-.19c-.61-.29-4.29-.23-5.09-.23l-.8,0c-.54,0-2.46,0-2.75.48a7.85,7.85,0,0,0,3.17.42h3.58a6.88,6.88,0,0,0,1.63-.1Zm-1.82,3.65c.32,0,1.89-.07,1.89-.52,0-.22-1-.25-1.19-.25h-6.65c-.32,0-.77,0-.77.45s.45.32.67.32Zm1.54-7.17a10,10,0,0,0-1.7-.13c-1,0-2,.06-3,.06a18.67,18.67,0,0,0-2.69,0c-.22,0-.6.16-.6.45s.8.31,1.05.31c1.79,0,3.55.07,5.35.07.38,0,1.76-.07,1.88-.48Z"/><path class="cls-10" d="M437.87,210.68c-1.37,0-2.88-2.62-3.58-2.62-.29,0-.45,2-.73,2.34a1,1,0,0,1-.68.25l-1.08.1c-.8.06-2.66-.13-3.17.51a2.08,2.08,0,0,0-.35,1.38c0,.22,0,.44,0,.7,0,1.66-1.41,1.86-2.75,1.86a5.75,5.75,0,0,1-2.47-.29c-1.21-.87.32-3.46-1.79-4a6.21,6.21,0,0,0-1.92-.1c-.83,0-2-.06-2.37-.93-.13-.29-.13-1.79-.45-1.79-.73,0-2.24,2.56-3.42,2.56-1,0-2.88-2.34-2.88-3.26,0-2.28,8.38-8.61,8.38-11,0-1.12-2.36-1.12-3.13-1.12s-1.67.1-2.5.1c-1.05,0-2.14-.26-2.14-1.54,0-.86.16-2.17,1-2.65,1.92-1.12,9.28-.07,10.37-1.38a1.28,1.28,0,0,0,.32-.83c0-.35,0-.74,0-1.09,0-1.57,1.22-1.76,2.5-1.76.8,0,3.2,0,3.2,1.18,0,.36,0,.68,0,1,0,2.3,2.21,2.24,3.93,2.24,1.12,0,2.24-.07,3.33-.07a5.57,5.57,0,0,1,3.87,1.16,2.83,2.83,0,0,1,.67,2.08c0,1.56-1.34,1.76-2.59,1.76-.86,0-1.69-.17-2.53-.17-.63,0-2.59-.06-2.59,1,0,2.78,8.26,8.64,8.26,10.75C440.5,208,438.93,210.68,437.87,210.68Zm-19.23-5c0,.48,1.06.48,1.38.48,1.47,0,2.46-.25,2.46-1.95,0-.41-.06-2.33-.12-2.62a.27.27,0,0,0-.29-.23C421.36,201.4,418.64,205,418.64,205.72Zm9.8-1.5c0,2,.92,2,2.62,2,.42,0,.86-.09.86-.6,0-.8-2.33-4.23-3.16-4.23-.29,0-.32.35-.32.58Z"/><path class="cls-9" d="M460,199.32c0-2.3-.61-2.3-2.72-2.3a1.45,1.45,0,0,0-.8.32,3.72,3.72,0,0,0-.61,1.19c-.29.76-.55,1.56-.8,2.36-.64,2-1.12,4.1-1.7,6.15a37.85,37.85,0,0,1-1.41,4.54,4.42,4.42,0,0,1-.7,1.15,1.62,1.62,0,0,1-1.25.42c-1.56,0-4.44-1-4.44-2.82,0-2.17,1.69-4.38,2.36-6.43a19,19,0,0,0,1.38-5.92c0-1.54-2.78-.16-3.42-1.47a4,4,0,0,1-.2-1.66c0-4,2.82-2.21,4.77-3.11,1.54-.7,1-3.87,2.62-5.18.71-.55,2-.48,2.92-.48,1.12,0,2,.38,2,1.6s-.58,2.3-.58,3.55c0,.67,1.32.64,1.8.64s1.21-.06,1.82-.06c5.18,0,5.86,2.14,5.86,6.81V202c0,4.19-.84,11.78-6.44,11.78-1,0-6.72-.84-7-2-.45-1.63.09-4.16,2.11-4.16,1,0,1.95.45,3,.45a.89.89,0,0,0,.8-.41,11.91,11.91,0,0,0,.68-4.29Zm10.14-8.79c2.91,0,6.21,11.07,6.21,13.56,0,1.54-2.82,2.31-4,2.31a2,2,0,0,1-1.8-1.19c-.64-1.09-4.06-11.9-4.06-13C467.32,190.75,468.5,190.53,470.1,190.53Z"/><path class="cls-9" d="M484.47,196a2.33,2.33,0,0,1,1.47-1.22,12.32,12.32,0,0,1,2.85-.19c.89,0,2.21.38,2.21,1.47,0,.71-.23,1-.23,1.67a2.46,2.46,0,0,0,.16.48,24.7,24.7,0,0,0,3.62-.8,17.66,17.66,0,0,1,4.35-.64c5,0,10.08,1.31,10.08,7.26,0,4.86-4,7.52-8.16,8.83a24.49,24.49,0,0,1-7.49.93c-1.47,0-6.37-.13-6.91-1.86a4.28,4.28,0,0,1-.16-1.28c0-2.08-.38-3.29,1.92-3.29,2,0,3.49.51,6.37.48,2.62,0,6.94.73,6.94-2.69,0-1.63-1.7-2.3-3.13-2.3-3.84,0-6.95,2.52-10.66,2.52-1.18,0-4.42-1.05-4.42-2.62C483.28,201.69,484,196.86,484.47,196Zm20.22-2.4c0,1.41-1.82,1.66-2.91,1.66-1.5,0-12.42-1.69-13-2.17a2.58,2.58,0,0,1-.93-1.54c0-2.91,1.69-3.29,4.19-3.29,2.05,0,10,.32,11.49,1.11a2.31,2.31,0,0,1,1.31,2.12Z"/><path class="cls-9" d="M526.16,186.81a3.93,3.93,0,0,1,2.21.39c.51.41.45,1.41.45,2,0,.29.29.42.51.48a17,17,0,0,0,4.77.32,13.17,13.17,0,0,0,2.78-.22v-.19a1.57,1.57,0,0,0-.35-1h0l-.35-.74c0-.89,1.57-1.69,2.34-1.69s3,3.13,3,4c0,1.21-1.8,1-2.12,1.85a3.17,3.17,0,0,0-.12.93c0,.29.06.58.06.86,0,1.57-3.42,1.38-4.42,1.38-1.37,0-5.56,0-6.55.89-1.54,1.35-3.46,9.83-4,12.1-.25,1-1,3.94-1.66,4.64a1.88,1.88,0,0,1-1.47.51c-1.73,0-3.78-.93-3.78-2.91,0-3.71,1.51-7.3,2.4-10.85a12.39,12.39,0,0,0,.45-3.26c0-.67-.26-1-1-1-.29,0-.58,0-.86,0-1.19,0-1.41-.48-1.41-1.6,0-3.27.7-3.62,3.84-3.62a1.69,1.69,0,0,0,1-.25c1.12-.87,0-3.08,2.05-3.08Zm.64,20.45c0-1.44,1.92-3.9,3.43-4.16,1.73-.29,4.32.86,4.32,1.73s-1.31,1.21-1.31,2.08c0,1.41,3.16,1.5,4.12,1.5,1.76,0,3.36-.48,5.12-.48,1.38,0,1.41,1.54,1.41,2.56,0,.87,0,1.44-.64,2-1,.86-5.47,1.15-6.88,1.15C532.5,213.69,526.8,212,526.8,207.26Zm2.85-8.35c0-2.27,5.41-2.3,7-2.37.54,0,1,0,1.6,0l2,0c1.89,0,3.71,0,3.71,2.46,0,1.06-.06,2.66-1.09,3-2.65.7-5.15-.22-9.79-.06C530.55,202,529.65,201.63,529.65,198.91Zm15.65-12.22c.35.67,1.53,2.68,1.44,3.39-.13.89-1.79,1.18-2.5,1.09s-2.72-3.59-2.62-4.39,1.66-1.37,2.43-1.25,1,.68,1.28,1.19Z"/><path class="cls-9" d="M570.61,201.69c1.28,1.63,8,1.22,8.16,5.12.06,1.06-2.49,4.9-3.55,4.9s-2.78-2-4.16-2.43c-1.34.22-.8,4.12-8.7,4.73-4.68.35-9.73-2.56-9.73-7.84a4.88,4.88,0,0,1,.89-3,7.92,7.92,0,0,1,5.25-2.72,25.07,25.07,0,0,1,3.11-.25,3,3,0,0,0,.6,0,1.76,1.76,0,0,0,.58-.12c.32-.23.19-3.49.19-4.07,0-1.47-.13-8.09,1.12-8.76a3.94,3.94,0,0,1,1.92-.32c.74,0,3-.1,3.3.8a3.31,3.31,0,0,1,.16,1.24,4.31,4.31,0,0,0,.38,1.64c.35.83,1.57.79,2.34.79.93,0,1.89,0,2.85,0a4.06,4.06,0,0,1,3.23,1.22,3.86,3.86,0,0,1,.61,2.65,2,2,0,0,1-.13.58c-.36.83-2.69.87-3.46.87-1,0-1.89-.07-2.81-.07-2.44,0-2.6.61-2.6,2.88a5.68,5.68,0,0,0,.48,2.3Zm-9.34,3.65c-.93,0-2.18.38-2.18,1.5,0,1.48,1.35,1.92,2.59,1.92s1.67-.76,1.67-2c0-.32,0-.64,0-1-.2-.42-.77-.45-1.16-.45Z"/><path class="cls-9" d="M597.88,192.44c0-2.68,1.44-3.29,3.87-3.29,2.78,0,3.13,1.79,3.13,4.13v2.3c0,1.54-.19,7.1-1.28,8.06a3.87,3.87,0,0,1-2.59.64,3.59,3.59,0,0,1-1.63-.25c-1.34-.71-1.5-6.59-1.5-8.07Zm4.76,14.31c1.25,0,1.89.32,1.89,1.66V209c0,2-1,2.78-2.91,2.78-3,0-3.42-.7-3.42-3.62a1.39,1.39,0,0,1,1.56-1.37Z"/><path class="cls-11" d="M585.41,126.62a17.68,17.68,0,0,1-2.44,6,6.75,6.75,0,0,1-5.12,2.71,8.93,8.93,0,0,1-6-1.23,10.31,10.31,0,0,1-3.91-4.57c-.77-2-.64-4.29-.67-6.4A12.89,12.89,0,0,1,568.7,117a10,10,0,0,1,2.6-3.33c1.37-1,2.7-2.08,4.47-2.06a7.73,7.73,0,0,1,2.23.47,18.91,18.91,0,0,1,2.27.78,8,8,0,0,1,2.91,2.68,12.29,12.29,0,0,1,2,4.89A13.89,13.89,0,0,1,585.41,126.62Zm-2.67-10.68a8.26,8.26,0,0,0-1.69-1.51c-.37-.21-.68-.42-1.07-.6a5.77,5.77,0,0,0-1.12-.68,6.92,6.92,0,0,0-2.83.13c-1,.18-2,.26-2.91.42-1.75.36-2.66,2-3.25,3.51a22.93,22.93,0,0,0-1,3,23,23,0,0,0-.8,3.2,10.22,10.22,0,0,0,1.09,5.82,9.87,9.87,0,0,0,3.87,4.63,5.34,5.34,0,0,0,5.65.21,15.74,15.74,0,0,0,2.18-1.77,11.57,11.57,0,0,0,2.18-2.31c1.41-2.34,1.38-5.33,1.51-8A9.26,9.26,0,0,0,582.74,115.94Zm-4.61,8.58c0,1.55-1.19,2.23-2.6,2.13a3.25,3.25,0,0,0-.7-.18,4.09,4.09,0,0,1-.91-.65,2.36,2.36,0,0,1-.54-2.24,19.85,19.85,0,0,1,1.06-2.24,1.48,1.48,0,0,1,1.59-.83C577.56,120.85,578.16,123.09,578.13,124.52Zm-2.26-3.25c-1.12-.21-1.25,1.55-1.06,2.23.07.29.18.57.23.86s0,.6,0,.91a1,1,0,0,0,.65.75c1,.29,1.4-1.45,1.51-2.23C577.33,122.82,576.91,121.45,575.87,121.27Z"/><path class="cls-11" d="M607.41,126.62a17.7,17.7,0,0,1-2.45,6,6.74,6.74,0,0,1-5.12,2.71,8.94,8.94,0,0,1-6-1.23,10.23,10.23,0,0,1-3.9-4.57c-.78-2-.65-4.29-.68-6.4a12.89,12.89,0,0,1,1.46-6.13,10.23,10.23,0,0,1,2.6-3.33c1.38-1,2.7-2.08,4.47-2.06a7.8,7.8,0,0,1,2.24.47,18.75,18.75,0,0,1,2.26.78,8,8,0,0,1,2.91,2.68,12.29,12.29,0,0,1,2,4.89A13.89,13.89,0,0,1,607.41,126.62Zm-2.68-10.68a8.26,8.26,0,0,0-1.69-1.51,11,11,0,0,0-1.07-.6,6,6,0,0,0-1.11-.68,7,7,0,0,0-2.84.13c-1,.18-2,.26-2.91.42-1.74.36-2.65,2-3.25,3.51a21.53,21.53,0,0,0-1,3,21.73,21.73,0,0,0-.81,3.2,10.3,10.3,0,0,0,1.09,5.82,10,10,0,0,0,3.88,4.63,5.32,5.32,0,0,0,5.64.21,15.74,15.74,0,0,0,2.18-1.77,11.62,11.62,0,0,0,2.19-2.31c1.4-2.34,1.38-5.33,1.51-8A9.26,9.26,0,0,0,604.73,115.94Zm-4.6,8.58c0,1.55-1.2,2.23-2.6,2.13a3.41,3.41,0,0,0-.7-.18,3.88,3.88,0,0,1-.91-.65,2.37,2.37,0,0,1-.55-2.24,18.33,18.33,0,0,1,1.07-2.24,1.47,1.47,0,0,1,1.58-.83C599.56,120.85,600.16,123.09,600.13,124.52Zm-2.26-3.25c-1.12-.21-1.25,1.55-1.07,2.23.08.29.18.57.23.86s0,.6,0,.91a1,1,0,0,0,.65.75c1,.29,1.41-1.45,1.51-2.23C599.32,122.82,598.91,121.45,597.87,121.27Z"/><path class="cls-11" d="M624.07,134.63a15.38,15.38,0,0,1-2.91,0c-.86,0-1.69-.08-2.52-.08-.49,0-.94,0-1.43,0a1.44,1.44,0,0,1-.36,0c-.13-.1-.08-1-.11-1.12a53.89,53.89,0,0,1-.13-6.73c.08-2,.57-4,.44-6a9.73,9.73,0,0,1-2.88,1.3l-1,.23c-.42.08-.68.29-.83-.15a29.13,29.13,0,0,1-.65-3.52c-.11-.62-.52-1.74-.24-2.31,1.07-2,3.28-2.94,5.25-3.8a9.8,9.8,0,0,1,1.93-.59,8.37,8.37,0,0,1,2.1-.34,14.65,14.65,0,0,1,2.11.18c.29,0,1.43.08,1.3.52,0,1.38-.08,2.76-.13,4.13-.1,2,.1,3.88,0,5.83a48.66,48.66,0,0,0,.24,7.54A17.77,17.77,0,0,1,624.07,134.63Zm-.67-22.07c-1.33-.08-2.58,0-3.93,0a3.64,3.64,0,0,0-2.57,1.11c-.78.63-1.54,1.25-2.37,1.82-.67.47-1.45.81-2.08,1.3a7.73,7.73,0,0,0,.65,4.22c.6-.24,1.2-.5,1.77-.78a24.77,24.77,0,0,1,3.15-1.17,34.51,34.51,0,0,0-.19,3.66,33.87,33.87,0,0,1,0,3.77c-.13,2.47-.33,4.92-.31,7.36a12.63,12.63,0,0,0,5.31-.23,17.75,17.75,0,0,1,0-4.55,35.07,35.07,0,0,0,.05-4.81,24.6,24.6,0,0,1,.13-5A59.66,59.66,0,0,0,623.4,112.56Z"/><path class="cls-11" d="M31.93,121.68a3.55,3.55,0,0,0,4.06,3,13.9,13.9,0,0,0,2.57-.59c.24-.08.21-.08.34.15a7,7,0,0,0,.37.83c.41,1,.85,2,1.19,3,.13.39.29.78.39,1.17.16.57-1,1.32-1.32,1.51a11.71,11.71,0,0,1-5.67,1.32,7.76,7.76,0,0,1-5.23-1.43,8.86,8.86,0,0,1-2.73-5.07,36,36,0,0,1-.34-4.39c0-3.33.29-7.46,2.81-9.83a8.14,8.14,0,0,1,10.5-.42A10.89,10.89,0,0,1,41.42,114c.24.39-.31,1.07-.47,1.4l-1.68,2.84-.16.21s-.13-.11-.24-.18a6.53,6.53,0,0,0-5.48-.79C31.78,118.07,31.67,120.17,31.93,121.68Zm-1.45-.81c.26-1.89,1-3.53,2.57-4.36s4.45-.16,5.93,1.06c.39-.57.75-1.17,1.12-1.76a7,7,0,0,0,.8-1.57,7.89,7.89,0,0,0-2.62-2.36c-1.64-.94-3.62-1.85-5.46-1.54a6.08,6.08,0,0,0-4,3,14.49,14.49,0,0,0-2.34,5.31,18.4,18.4,0,0,0,.08,6.45,7.5,7.5,0,0,0,3.2,4.89,8.12,8.12,0,0,0,4.8,1.35,7.76,7.76,0,0,0,4.89-2.19c-.41-1.35-.78-2.65-1.22-3.92a12.65,12.65,0,0,1-5.33.18C31,124.9,30.24,122.88,30.48,120.87Z"/><path class="cls-11" d="M63.08,130.86c0,.44,0,.91-.1,1.33s0,.36-.34.36c-3.23.1-4,.13-4.71.1a4.52,4.52,0,0,1-1,0c-.08-.07,0-.46,0-.57a15.39,15.39,0,0,1-.05-1.92,26.61,26.61,0,0,0,.26-4.27c-.18-1.48-1.61-1.82-2.84-1.22s-1.53,2.44-1.63,3.69a35.43,35.43,0,0,0-.06,3.72,22,22,0,0,0-2.93.18,28.36,28.36,0,0,1-3.62.5c-.1,0-.7.08-.73,0a7.12,7.12,0,0,0-.13-.91,22.85,22.85,0,0,1,0-3.51c.08-1.35.21-2.73.16-4.08s-.24-2.71-.26-4.09l0-7c0-.88,0-1.76-.1-2.62,0-.52-.28-1,.29-1.28,1.64-.88,4-.41,5.77-.28l1.35.08c.24,0,.18.72.18.93a34.8,34.8,0,0,1-.2,4.45c-.06.93-.19,1.9-.24,2.86a9.15,9.15,0,0,1,5.25-1,6.12,6.12,0,0,1,5.2,3.07,6.55,6.55,0,0,1,.42,3c0,1.77.08,3.54.1,5.31C63.08,128.75,63.11,129.82,63.08,130.86Zm-1,.73a17.72,17.72,0,0,0,.21-2.81c.05-1.25.1-2.5.1-3.75a22.36,22.36,0,0,0-.23-3.48,3,3,0,0,0-.68-1.64,6.35,6.35,0,0,0-2.94-1.58,11.06,11.06,0,0,0-3.69-.6,4.25,4.25,0,0,0-3,1.12c-.31.31-.63.62-.94,1-.05-3.23.16-6.45.34-9.65-.89-.15-1.77-.39-2.65-.52a10.71,10.71,0,0,0-1.23-.1c-.44,0-1.69,0-2,.36.2,1.88.23,3.8.26,5.7.07,2.42.52,4.94.36,7.35-.16,2.71.73,5.34.86,8,1.58.06,3.14.39,4.76.34-.16-1.92-.55-3.92.1-5.8a3.27,3.27,0,0,1,4.73-1.79c1.56.81,1.41,3,1.46,4.5,0,1.06,0,2.13.1,3.22Z"/><path class="cls-11" d="M84.74,131.67a12.39,12.39,0,0,1-4,.8,22.87,22.87,0,0,1-2.75.05c-.5,0-.68-.7-.81-1.35a8,8,0,0,1-5.85.78,5.87,5.87,0,0,1-3.95-5.07c-.21-2.16.34-4.91,2.26-6.16s4.5-1.07,6.71-.86c-.42-1.38-3.12-1.17-4.21-1-1.33.21-2.65.47-4,.6l-.75.08c-.26,0-.21,0-.24-.23a13.69,13.69,0,0,1-.13-2.47c0-1,.08-2,.18-3,.06-.42.13-.84.19-1.23,0-.23.8-.28,1-.34,1-.18,2.11-.31,3.18-.49a19.1,19.1,0,0,1,3.64-.49,10.68,10.68,0,0,1,8.11,4,10.7,10.7,0,0,1,1.17,5c0,.23,0,.49,0,.75.1,1.84.13,3.69.24,5.54.07,1.19.23,2.34.2,3.51C85,130.5,85.05,131.54,84.74,131.67Zm-.86-10.51c-.36-2.94-1-6.79-4.37-7.59a26.68,26.68,0,0,0-4.39-.47c-2.21-.16-4.73-.7-6.89.1a26.83,26.83,0,0,0,.21,4.82c.93-.06,1.87-.08,2.8-.06a18.91,18.91,0,0,1,4.19.19,2.83,2.83,0,0,1,2,1.58c0,.18.33,1.35,0,1.35-1.92.11-3.92-.31-5.82,0-2.24.37-3.25,2.16-3.56,4.27-.29,2,.15,4.18,2.13,5.07,1.74.78,3.93,0,5.64-.47l2.34-.62c.08.39.18.78.23,1.17s0,.62,0,.91a14.1,14.1,0,0,0,5.25-.65c.08-1.3.24-2.58.31-3.85A34.52,34.52,0,0,0,83.88,121.16Zm-6.34,2.52a2,2,0,0,1,.08,1.75c-.14.28,0,.65-.19.83-.31.36-.57,1-1,1.22-.58.34-1.33-.13-1.8-.47a1.72,1.72,0,0,1-1-1.45,2.28,2.28,0,0,1,.62-2C75.09,122.93,76.81,122.67,77.54,123.68Zm-.63,2.14c.24-2-.93-2-1.09-2a1.07,1.07,0,0,0-1.22.45c-.18.36-.47,2.36.42,2.08.31-.11.54-.55.85-.52A3,3,0,0,0,76.91,125.82Z"/><path class="cls-11" d="M104.29,127a6.05,6.05,0,0,1-2.34,2.86,8.3,8.3,0,0,1-7.18.7c.08,1.28.08,3.41.06,4.71,0,.62,0,1-.63,1.25a6.61,6.61,0,0,1-2.73.13c-.7,0-1.4-.06-2.13,0a.51.51,0,0,1-.52-.31,7.2,7.2,0,0,1-.37-2.24c.06-1.79.06-2.73.14-3.66.12-1.82.33-3.67.31-5.49,0-.88-.16-1.74-.24-2.65a13.49,13.49,0,0,1,0-2.84c.14-1.09.34-2.15.37-3.22,0-.29,0-.39.15-.57a2.42,2.42,0,0,1,1.15-.29,8.63,8.63,0,0,1,2.91.1c.16,0,1.17.06,1.22.21a5.76,5.76,0,0,1,.08,1.38c1.93-.91,4.5-1.51,6.45-.49,2.34,1.25,3.09,4.21,3.41,6.58A7.79,7.79,0,0,1,104.29,127Zm-3.8-9.54c-2-1.43-4.37-.68-6.34.41-.11-.52-.13-1.06-.23-1.58-.63,0-1.28-.08-1.9-.13s-1.64-.34-2.16-.05a25.32,25.32,0,0,1,.34,4.67c0,1.64-.55,3.18-.58,4.82s0,3.22.14,4.83a26.12,26.12,0,0,1-.06,3.43l-.08,1.3a2.68,2.68,0,0,0-.07.71,14.52,14.52,0,0,0,1.48.1c.52,0,1-.05,1.51-.1a6.27,6.27,0,0,0,.88-.21.64.64,0,0,0,.26-.13c0-1.8.24-4.45.29-6.22,1.71,1,4,1.77,5.93,1,2.39-1,3.27-4.09,3.51-6.4A7.4,7.4,0,0,0,100.49,117.42Zm-3.64,7.9c-.49.91-1.76,2-2.78,1.25a1.4,1.4,0,0,1-.47-1.51c.13-.67,0-1.4.13-2.11.08-.49.29-1.32.91-1.42a3,3,0,0,1,1.8.57C97.66,123,97.37,124.13,96.85,125.32Zm-.91-2.55a1.29,1.29,0,0,0-1.09-.65c-.31,0-.39.7-.44,1a3.32,3.32,0,0,0,.08,2.26c.1.15.18-.08.26-.11.26-.07.54.08.8.08a1.21,1.21,0,0,0,.81-.31C96.85,124.46,96.26,123.27,95.94,122.77Z"/><path class="cls-11" d="M124,118.25c0,.41,0,.83-.07,1.25a11,11,0,0,1-.34,1.51c0,.18-.11.72-.24.83a4.19,4.19,0,0,1-2.26.41,9.84,9.84,0,0,1-2.16-.13,57.87,57.87,0,0,1,.16,6.71c0,.52,0,1,0,1.56s0,.83-.57,1.07a10.08,10.08,0,0,1-2.63.18c-.68,0-1.38.05-2.08.05-.34,0-.65,0-1-.05s-.26,0-.29-.29c0-.88,0-1.76,0-2.65l.13-2.23c.11-1.33.32-2.66.37-4a14.63,14.63,0,0,1-2.55.7,9.2,9.2,0,0,1-2.5-.13c-.78-.11,0-4.29,0-4.91a10.29,10.29,0,0,0,.08-1.46,3.05,3.05,0,0,1,0-1c.31-.65,1.33-.47,1.87-.45l1.9.08c.34,0,.7,0,1.07.11,0-1.28.07-2.55.1-3.82a3.69,3.69,0,0,1,0-1.1c.07-.13.85-.13,1-.15.6-.11,1.15-.26,1.75-.37a5.8,5.8,0,0,1,2.65.08c.08,0,.39.08.39.18,0,.39,0,.81,0,1.2-.05,1.27-.13,2.55-.13,3.82a23.78,23.78,0,0,1,4.53-.28c.13,0,.41,0,.46.12a6.12,6.12,0,0,1,.24.76A6.34,6.34,0,0,1,124,118.25Zm-.93,1.48c0-.31-.11-.62-.16-.91-.13-.65-.15-1.4-.31-2-.62-.06-1.25-.16-1.9-.21a19,19,0,0,0-2.26-.13,3.63,3.63,0,0,0-.57,0c-.21,0-.11-.18-.11-.39,0-1.58.06-3.17,0-4.76a11.13,11.13,0,0,0-1.28,0c-1,0-1.87-.13-2.8-.08,0,1.07-.11,2.14-.13,3.2V116c-.06,0-.21,0-.32,0a12.28,12.28,0,0,1-1.61.12c-.91.06-1.84,0-2.73.11a8.44,8.44,0,0,0,0,3.09c.08.65.13,1.35.23,2a19,19,0,0,0,4.71,0c0,1-.08,2.08-.08,3.1,0,2,.21,4,.06,5.92,1.43.34,3.12.81,4.44.19a37.19,37.19,0,0,1-.21-5.28c0-1.46.11-2.91.08-4.37a9.81,9.81,0,0,0,2.08.55c.68.07,2.08.41,2.76-.06A7.85,7.85,0,0,0,123.09,119.73Z"/><path class="cls-11" d="M138.17,124.1c-1.28.18-2.91.7-3.62.83,0,1.22,1.2,1.8,2.19,1.9a6.29,6.29,0,0,0,2.39-.29,14.14,14.14,0,0,0,3.8-1.4c.2,1.07.54,2.11.72,3.2a10.51,10.51,0,0,1,.24,2.36c0,.47-1.8.94-2.19,1.1a11.88,11.88,0,0,1-11.36-1.75c-3.09-2.52-3.61-7.23-2.5-10.92a9.43,9.43,0,0,1,3.36-4.89,8,8,0,0,1,5.87-1.48,7.34,7.34,0,0,1,6.82,10c-.11.39-1.49.45-1.95.52s-1.15.24-1.77.34S138.84,124,138.17,124.1Zm-4.22.31a14.19,14.19,0,0,1,4.5-1.3,11.37,11.37,0,0,0,4.14-1.33c0-.93.1-1.87.13-2.8a5.85,5.85,0,0,0-.44-2.76c-.94-1.74-3-2.21-4.76-2.26a21,21,0,0,0-3.2.26,9.19,9.19,0,0,0-2.73.68c-1.77,1-2.26,3.19-2.73,5a14.41,14.41,0,0,0-.34,5.7,7.39,7.39,0,0,0,3.15,4.81c1.71,1.17,3.53,1,5.46.6,1-.16,2-.32,3-.39a7.89,7.89,0,0,0,2.78-.5,9.27,9.27,0,0,0-.67-3.22,9.8,9.8,0,0,1-4.74.65,4.63,4.63,0,0,1-2.75-.91,2.2,2.2,0,0,1-.94-1.33C133.72,125.06,133.59,124.46,134,124.41Zm2.45-3.22a17.76,17.76,0,0,0-2.81.7,5.19,5.19,0,0,1,.21-2.83c.44-1,1.77-1.17,2.68-1.38a2.34,2.34,0,0,1,2.44.7,4.64,4.64,0,0,1,.23,2.55A6.48,6.48,0,0,0,136.4,121.19Zm-.29-.7c.63-.11,1.35-.16,1.95-.32a4.48,4.48,0,0,1-.62-1c-.16-.5-.26-.91-.91-.91-1.17,0-2,1.53-2.26,2.67C134.92,120.85,135.49,120.64,136.11,120.49Z"/><path class="cls-11" d="M161.72,121.89c0,.26-.13,1.51-.52,1.48-.83-.05-1.64,0-2.47,0a9.85,9.85,0,0,0-2.6,0c-.88.23-1.09.73-1.14,1.61a17.45,17.45,0,0,1-.34,2.6,8.43,8.43,0,0,0-.34,3.12c.05.31.13.94.16,1.07-.52,0-1.51.05-1.64.05-.6,0-1.14,0-1.72,0-1,0-2,0-3.06,0a1.29,1.29,0,0,1,0-.34c0-1.56,0-3.15-.08-4.73s-.34-3.15-.34-4.73c0-1.85.08-3.7,0-5.54,0-.63-.13-1.28-.23-1.9,0-.39,0-.39.39-.6a4.45,4.45,0,0,1,3.27-.78c1,.16,1.93.47,2.81.7.21,0,.19,1.38.19,1.59.05.54.13,1.09.18,1.66a7.91,7.91,0,0,1,3.72-2,6.41,6.41,0,0,1,2.08-.21c.41.05,1.66.16,1.66.68,0,1-.08,2,0,2.91A21.39,21.39,0,0,1,161.72,121.89Zm-1.45,0a11.58,11.58,0,0,1,.39-1.56,15.14,15.14,0,0,0,.15-4.09c-.57,0-1.17.11-1.77.13a13.12,13.12,0,0,0-1.56.18,6.45,6.45,0,0,0-3.79,2.4c-.11-1.46-.16-2.94-.29-4.42a8.69,8.69,0,0,0-3.17.44c-.31.1-.62.18-.94.26-.13,0-.31.1-.49.15a51.64,51.64,0,0,0,0,5.7,48.91,48.91,0,0,1-.13,5,45,45,0,0,0,.1,5.07,24,24,0,0,0,2.6-.18,17.33,17.33,0,0,1,2.08-.13,8,8,0,0,0,0-1.46c-.1-.83-.26-1.66-.31-2.49,0-1.3,0-2.94,1.22-3.69a8.8,8.8,0,0,1,3.85-.89C158.89,122.25,159.56,122,160.27,121.92Z"/></g></g></g></svg>