<svg xmlns="http://www.w3.org/2000/svg" xmlns:xlink="http://www.w3.org/1999/xlink" viewBox="0 0 654.95 267.32"><defs><style>.cls-1,.cls-2,.cls-4,.cls-7{fill:none;}.cls-2,.cls-7{stroke:#faf6d9;}.cls-2,.cls-4,.cls-7{stroke-linecap:round;stroke-linejoin:round;}.cls-2{stroke-width:7px;}.cls-3{fill:#faf6d9;}.cls-4{stroke:#c45c66;}.cls-4,.cls-7{stroke-dasharray:8.03 8.03;}.cls-5{fill:#c3c154;}.cls-6{clip-path:url(#clip-path);}.cls-8{fill:#583726;}.cls-9{fill:#3c2213;}.cls-10{fill:#c45c66;}.cls-11{fill:#fff;}</style><clipPath id="clip-path"><path class="cls-1" d="M25,82.68H628.23a26.83,26.83,0,0,1,26.83,26.83v40.1a0,0,0,0,1,0,0H.1a0,0,0,0,1,0,0v-42A24.88,24.88,0,0,1,25,82.68Z"/></clipPath></defs><title>3</title><g id="レイヤー_2" data-name="レイヤー 2"><g id="chapter"><g id="label"><line class="cls-2" x1="329.88" y1="109.32" x2="373.27" y2="4.14"/><rect class="cls-3" x="0.05" y="82.71" width="654.69" height="184.61" rx="27.68" ry="27.68"/><rect class="cls-4" x="12.09" y="95.1" width="629.56" height="158.61" rx="20.59" ry="20.59"/><path class="cls-5" d="M24.88,82.73H628.13A26.83,26.83,0,0,1,655,109.56v40.1a0,0,0,0,1,0,0H0a0,0,0,0,1,0,0v-42A24.88,24.88,0,0,1,24.88,82.73Z"/><g class="cls-6"><rect class="cls-7" x="12.25" y="94.98" width="629.56" height="158.61" rx="20.59" ry="20.59"/></g><circle class="cls-8" cx="327.57" cy="123.11" r="14.58"/><line class="cls-2" x1="324.92" y1="108.67" x2="274.95" y2="3.5"/><path class="cls-9" d="M72.22,190.46c.29-1.28,1.73-1.28,2.75-1.28s2.82-.25,2.82,1.28c0,.8-.29,1.57-.29,2.37,0,.45.64.58,1,.58a.77.77,0,0,0,.77-.55,13.46,13.46,0,0,0,.48-2.53c.26-1.31,1.73-1,2.72-1,1.31,0,2.72,0,2.72,1.66,0,.61-.06,1.22-.06,1.83,0,1.15,1.24.54,1.76,1.09a3.41,3.41,0,0,1,.48,2.17c0,.45.06,1.31-.26,1.66S86,198,85.5,198c-1.5,0-1.73,2.34-1.73,3.43,0,1.44,1.47.06,1.83,1.41a5.35,5.35,0,0,1,.09,1.21c0,4.42-2.14,1.63-3.17,3.33-1.72,2.88.9,4.38-4.28,4.38-1.06,0-2-.19-2-1.44,0-.92.35-1.79.35-2.72a.61.61,0,0,0-.7-.7c-2.56,0,0,4.67-3.84,4.67-1.47,0-3.26.1-3.26-1.85,0-.74.06-1.48.06-2.21,0-1.35-1.25-.48-1.76-1.25a3.59,3.59,0,0,1-.38-1.92c0-.48-.07-1.41.25-1.79s1.22-.32,1.63-.32c1.54,0,1.77-2.56,1.77-3.68l0-.32c-.77-.77-1.92.61-1.92-1.66,0-1.67-.16-3.11,1.92-3.11a1.22,1.22,0,0,0,1.15-.51,3.52,3.52,0,0,0,.45-1.18Zm4.67,11.84c1.09,0,1.35-2.69,1.35-3.46s-.36-.86-1-.86c-1.18,0-1.31,2.82-1.31,3.65C75.93,202.21,76.41,202.3,76.89,202.3Z"/><path class="cls-9" d="M92.29,200.45c0-6.28,2.94-11.59,9.82-11.59,6.72,0,9.89,5.18,9.89,11.39s-2.88,11.81-9.89,11.81C95.26,212.06,92.29,206.65,92.29,200.45Zm13-.49c0-2.3,0-6.43-3.27-6.43-3,0-3,4.87-3,6.95s.13,6.91,3.14,6.91C105.44,207.39,105.28,202.21,105.28,200Z"/><path class="cls-9" d="M127.83,211.84c-.89,0-1.82,0-2.71,0-2.79,0-6.82.07-6.82-3.74,0-3.62,9.92-6,9.92-12a2.25,2.25,0,0,0-2.43-2.08c-2.11,0-4.07,1.19-6.18,1.19-.7,0-.89-.52-.89-1.13a9.1,9.1,0,0,1,.38-2.78c.74-2,5.76-2.4,7.62-2.4,4.22,0,8.15,2.79,8.15,7.27,0,5.15-6.94,8.57-6.94,10.14,0,.54,1.76.51,2.15.51.89,0,1.75-.13,2.65-.13,1.89,0,2.08.29,2.08,2.15C134.81,211.64,129.85,211.84,127.83,211.84Z"/><path class="cls-9" d="M155.51,203.68c.58,0,1.16,0,1.73,0,1.47,0,2.47.52,2.47,2.12,0,2.81-.2,4.48-3.52,4.48s-3.52-1.8-3.52-4.58C152.67,203.84,154,203.68,155.51,203.68Zm4.23-8c0,1.54-1.41,1.89-2.69,1.89l-1.57,0c-1.6,0-2.78-.32-2.78-2.18,0-3.55.22-4.38,4-4.38C159.61,191,159.74,193.44,159.74,195.71Z"/><path class="cls-10" d="M192.38,197.79c0-1.83-1.12-2.34-2.53-2.34-2.88,0-5.76.16-8.64.16-2.21,0-3.33,0-3.33-2.62,0-4.58,13.06-1.28,13.06-4,0-.35-.1-.67-.1-1,0-1.22,1.89-1.41,2.82-1.41.41,0,.86,0,1.31,0,.61,0,1.47,0,1.79.58.45.86-.19,1.89,1.12,2.37a12.26,12.26,0,0,0,3.87.38,20.67,20.67,0,0,1,2.08.23c1.15.64,1.31,2.88,1.31,4s-4.51,1-5.34,1c-.35,0-1-.1-1.05.45-.36,2,2.87,3.26,2.08,6.4-.58,2.59-3.46,2.4-4.58,2.4-2.34,0-4.38-.16-6.72-.16-1.38,0-3.2.19-3.33,1.72-.16,1.83,1.79,2.05,5.47,2.15,3.43.09,5-2,8.1-1.22.93.23,1.41,3.14,1.41,3.84,0,2.75-5.51,2.95-7.43,2.95a56,56,0,0,1-6.94-.58,10.38,10.38,0,0,1-5.12-1.86c-1.95-1.5-2.46-3.61-2.34-6.88.2-5.08,5.22-6.49,9.41-6.23C189.79,198.21,191.8,198.62,192.38,197.79Z"/><path class="cls-9" d="M226.07,195.52c.07.13.42.19.55.22a43.4,43.4,0,0,0,5.5.51,12.67,12.67,0,0,1,3.71,1.09c2.75,1.25,4.9,3.68,4.9,6.82a9.43,9.43,0,0,1-3,6.62c-.38.35-.8.67-1.18,1a17,17,0,0,1-1.57,1.15,7.75,7.75,0,0,1-3.1,1.28c-1.32,0-2.08-2.75-2.08-3.77a1.5,1.5,0,0,1,.76-1.09,20.32,20.32,0,0,0,3.4-2.56,3.06,3.06,0,0,0,.76-2.37c0-.22-.13-1.09-.41-1.09s-.61.55-.74.71c-3.26,4.38-7.13,8.89-13.12,8.89-4,0-7.81-3-7.81-7.2,0-6.75,7.75-7.51,7.75-10.14,0-.93-1.09-1.05-1.83-1.05s-1.44.12-2.17.12c-1.12,0-2-.25-2-1.53a6.4,6.4,0,0,1,.23-2.11c.8-1.8,4.28-.39,5.63-1.57,1-.87-.61-2.85,2.85-2.85a7.22,7.22,0,0,1,2.49.22c.48.32.48,1.12.48,1.64,0,1.24,3.2,1.34,4.07,1.34l3.42,0c2.27,0,5.57-.67,5.34,3.23-.09,1.73-3.68,1.7-4.83,1.7-1.89,0-3.77-.2-5.66-.2-.42,0-2.34.07-2.34.64A1,1,0,0,0,226.07,195.52Zm-6.17,12.12c.61,0,.54-1.66.54-2.08s0-2-.61-2-1.31,1.69-1.31,2.24C218.52,206.52,219,207.64,219.9,207.64Zm8.48-6.68h-.45c-1.22,0-1.89.06-1.89,1.47v1.5l.19.1c.64,0,2.34-2.37,2.34-3Z"/><path class="cls-10" d="M262.78,197.79c0-1.83-1.12-2.34-2.53-2.34-2.88,0-5.76.16-8.64.16-2.21,0-3.33,0-3.33-2.62,0-4.58,13.06-1.28,13.06-4,0-.35-.1-.67-.1-1,0-1.22,1.89-1.41,2.82-1.41.41,0,.86,0,1.31,0,.61,0,1.47,0,1.79.58.45.86-.19,1.89,1.12,2.37a12.26,12.26,0,0,0,3.87.38,20.67,20.67,0,0,1,2.08.23c1.15.64,1.31,2.88,1.31,4s-4.51,1-5.34,1c-.35,0-1-.1-1.05.45-.36,2,2.88,3.26,2.08,6.4-.58,2.59-3.46,2.4-4.58,2.4-2.34,0-4.38-.16-6.72-.16-1.38,0-3.2.19-3.33,1.72-.16,1.83,1.79,2.05,5.47,2.15,3.43.09,5-2,8.1-1.22.93.23,1.41,3.14,1.41,3.84,0,2.75-5.51,2.95-7.43,2.95a56,56,0,0,1-6.94-.58,10.38,10.38,0,0,1-5.12-1.86c-2-1.5-2.46-3.61-2.34-6.88.2-5.08,5.22-6.49,9.41-6.23C260.19,198.21,262.2,198.62,262.78,197.79Z"/><path class="cls-9" d="M296.47,195.52c.07.13.42.19.55.22a43.4,43.4,0,0,0,5.5.51,12.67,12.67,0,0,1,3.71,1.09c2.76,1.25,4.9,3.68,4.9,6.82a9.43,9.43,0,0,1-3,6.62c-.38.35-.8.67-1.18,1a17,17,0,0,1-1.57,1.15,7.75,7.75,0,0,1-3.1,1.28c-1.32,0-2.08-2.75-2.08-3.77a1.5,1.5,0,0,1,.76-1.09,20.32,20.32,0,0,0,3.4-2.56,3.06,3.06,0,0,0,.76-2.37c0-.22-.12-1.09-.41-1.09s-.61.55-.74.71c-3.26,4.38-7.13,8.89-13.12,8.89-4,0-7.8-3-7.8-7.2,0-6.75,7.74-7.51,7.74-10.14,0-.93-1.09-1.05-1.82-1.05s-1.45.12-2.18.12c-1.12,0-2-.25-2-1.53A6.4,6.4,0,0,1,285,191c.8-1.8,4.28-.39,5.63-1.57,1-.87-.61-2.85,2.85-2.85a7.22,7.22,0,0,1,2.49.22c.48.32.48,1.12.48,1.64,0,1.24,3.2,1.34,4.07,1.34l3.42,0c2.27,0,5.57-.67,5.34,3.23-.09,1.73-3.68,1.7-4.83,1.7-1.89,0-3.77-.2-5.66-.2-.42,0-2.34.07-2.34.64A1,1,0,0,0,296.47,195.52Zm-6.17,12.12c.61,0,.54-1.66.54-2.08s0-2-.61-2-1.31,1.69-1.31,2.24C288.92,206.52,289.4,207.64,290.3,207.64Zm8.48-6.68h-.45c-1.22,0-1.89.06-1.89,1.47v1.5l.19.1c.64,0,2.34-2.37,2.34-3Z"/><path class="cls-9" d="M328.7,192.45c0-2.69,1.44-3.3,3.87-3.3,2.78,0,3.14,1.79,3.14,4.13v2.3c0,1.54-.2,7.1-1.29,8.06a3.87,3.87,0,0,1-2.59.64,3.59,3.59,0,0,1-1.63-.25c-1.34-.71-1.5-6.59-1.5-8.07Zm4.76,14.3c1.25,0,1.89.32,1.89,1.66V209c0,2-1,2.78-2.91,2.78-3,0-3.42-.7-3.42-3.62a1.4,1.4,0,0,1,1.57-1.37Z"/><path class="cls-9" d="M370.71,198a8.25,8.25,0,0,0,2.72.29c1,0,1.89-.06,2.85-.06,1.38,0,3,.06,3,1.85a3.6,3.6,0,0,1-.1,1,1,1,0,0,1-.74.64,14,14,0,0,1-3,.25c-1,0-2-.06-3.07-.06-.32,0-1.69,0-1.69.51s.8.54,1.15.54c2.81,0,5.63-.06,8.45-.06,1,0,2,.38,2,1.57,0,2.11-1,2.69-3,2.69-.44,0-.89,0-1.34,0a19.12,19.12,0,0,0-3.9.36c-.1,0-.45.16-.45.28,0,1.16,7.84,1.41,7.84,2.5,0,1.79-1.41,3.81-3.33,3.81a16.21,16.21,0,0,1-6.21-1.92c-.51-.26-3.64-1.92-3.93-1.92-.93,0-3.52,1.5-4.48,1.95a16.14,16.14,0,0,1-6.72,1.95c-1.51,0-3.3-2.11-3.3-3.55,0-1.63,6.91-1.34,7.81-2.59,0-.29-.38-.39-.61-.45a14.53,14.53,0,0,0-2.94-.38c-2.34-.16-5.09.57-5.09-2.76,0-1.69,4.35-1.6,5.47-1.6,1.47,0,3,.2,4.45.2.35,0,1.79-.07,1.79-.55s-.38-.41-.67-.45c-1.44-.19-4.7-.09-5.92-.09-1.66,0-2.11-.54-2.11-2.18a1.34,1.34,0,0,1,.54-1.21c.77-.45,6.56-.19,7.68-.39.26-.06.32-.22.32-.48,0-.54-.64-.41-1-.41h-.51c-.68,0-1.32,0-2,0a17.9,17.9,0,0,1-4.76-.42c-.68-.19-.52-.44-.52-1.08,0-.32,0-.77-.38-.9-1-.38-2.05.32-2.05-1.31a9.61,9.61,0,0,1,.55-3.81c.86-1.86,5.08-1.54,6.78-1.54a9.4,9.4,0,0,0,3.55-.48,1,1,0,0,0,.67-1.05C365,186,366.2,186,367,186a11.92,11.92,0,0,1,2.4.13c1.35.35.58,1,1.15,1.6.42.45,2.31.54,2.92.54,1.12,0,2.21,0,3.33,0a14.09,14.09,0,0,1,1.59.06c2.88.29,3.49,2.5,3.49,5,0,1.21,0,1.44-1.31,1.44a1.51,1.51,0,0,0-.64.09c-.67.36,0,1.54-1,2.05a8.67,8.67,0,0,1-3.62.48c-1.05,0-2.08-.16-3.13-.16-.32,0-1.7,0-1.7.51Zm-10.08-5.76c-.48,0-2.27.1-2.27.74,0,.48,1.51.45,1.83.45s.86,0,1.31,0,2.85.16,2.85-.61c0-.51-1.76-.55-2.12-.55Zm10.72.07c-.44,0-.86,0-.86.57s2.3.55,2.69.55a27.76,27.76,0,0,0,3-.13c.2,0,.26-.19.26-.38,0-.45-1-.61-1.31-.61Z"/><path class="cls-9" d="M401.5,212.51c-.83,0-1.09,1.5-2.05,1.5s-3-1.6-3-2.56c0-1.69,2.82-3.45,2.82-4.7-.29-.19-.77-.42-.77-.83s.06-.61.06-.9c-1.15,2-.8,4.29-3.93,4.29-1.32,0-1.32-.48-2-1.41l0,.22c0,1.76.29,3.52.29,5.28,0,1-1.15,1-1.89,1-3.68,0-3.65-8.93-3.65-11.43,0-.92,0-1.88,0-2.81,0-3,.06-8.54,1.6-11.17a2.7,2.7,0,0,1,1.28-1.12c1.82-.86,4.57-.83,6.59-.83a2.51,2.51,0,0,1,2.4.9c.48-.16,1-1.76,1.66-1.76,1.28,0,2.21,1.44,3.27,1.44l.16,0,.16-.32a1.32,1.32,0,0,1-.1-.51c0-.13.13-.16.22-.16a12.18,12.18,0,0,1,3.24-.51c1.69,0,2.3,3.52,2.62,3.65l.06-.16c0-1.83-.09-2,1.86-2,3.36,0,5-.19,5,3.84,0,2-1.44,3.87-1.44,5.6s2.4,1.92,2.4,3.68c0,.64-.77,3.94-1.56,3.94a.34.34,0,0,0-.1,0l-.19-.16a1,1,0,0,0-.32.55c0,.22,0,.41,0,.64,0,.64-.93.86-1.41,1a.3.3,0,0,1,0,.09c0,.74,2.4,2.63,2.4,4.13,0,1.09-2,2.95-3.07,2.95-.93,0-2.79-4-3.62-4-.13,0-.22.38-.25.48-.23.8-.39,1.6-.58,2.4-.45,2-1.79,2.3-3.62,2.3-.76,0-3,.06-3.55-.38a3.27,3.27,0,0,1-.73-1.83Zm-8.1-9c0-.44-.25-2.88-.77-2.88-.19.16-.25,1.09-.25,1.35v.67c0,.35.09,2.37.38,2.37.48,0,.64-.71.64-1.06Zm.35-12.12h-.28c-.8,0-.93,1.15-.93,1.76a11.56,11.56,0,0,0,.06,1.44c.48,0,1.31-2.5,1.31-2.95Zm3.91,8,.13-.33c0-.38-.8-1.75-1.22-1.75l-.1.09c-.09.32-.32.29-.32.7s.74,1.54,1.06,1.54Zm-.32-3.65h0a.79.79,0,0,0,.67-.74v-.13l-.22-.16c-.19,0-.45.71-.51.87Zm2.81-1.38c-.12,0-.44.39-.44.51a3.92,3.92,0,0,0,1,1.67,1.94,1.94,0,0,0,.41-.64c0-.61-.57-.93-.77-1.54Zm3.3,6.34-.1-.29c-.16.1-1.15,1.06-1.15,1.28s.19.13.26.16a18.71,18.71,0,0,0,5.34.42c.74,0,1.47,0,2.21,0a11.83,11.83,0,0,0,3-.29v-.16c0-.48-.45-1.25-1-1.25a1.78,1.78,0,0,1-.93.48c-.35,0-.71.07-1.06.07-1.34,0-2.69.12-4,.12a8.74,8.74,0,0,1-2.3-.29Zm1.09,6.75c0-.42-.64-.74-1-.74h-1.32l0,0c0,.39,1.7,1,1.7,1.67s-.9,1.18-.9,1.73c.13.32.58.28.87.28.64,0,.67-.54.67-1.05Zm-1.38-14.91a.7.7,0,0,0,.67-.67c0-.26-.32-.26-.51-.26s-.48.1-.48.38Zm5.51,4c0-.45-.45-1.83-1-1.83-.38,0-1,1.06-1,1.41,0,.51.77.58,1.15.58h.52Zm1.56,10.88.1.06a1.28,1.28,0,0,0,1-.58v-.09l-.19-.19c-.42,0-.87,0-.87.51Zm1.35-15.46c0,.35.38,1.15.8,1.15l.12,0a1.3,1.3,0,0,0,.33-.83V192c0-.26-.55-.32-.74-.32Z"/><path class="cls-9" d="M432,193.21a41.86,41.86,0,0,0-.8,7.49,40.14,40.14,0,0,0,.35,6.3,32.48,32.48,0,0,1,.61,4.9c0,1.15-1.32,1.44-2.24,1.44l-1,0A2.94,2.94,0,0,1,426.3,212c-1.47-2.27-1.95-9-1.92-11.77.06-2.5,1.09-10.3,3.17-11.74a2.85,2.85,0,0,1,1.95-.48c1.28,0,3.13.06,3.1,1.79a21.89,21.89,0,0,1-.57,3.49Zm10.52,13.6a23.47,23.47,0,0,0,3.62-.41,19.23,19.23,0,0,1,3.36-.39c1.89,0,1.73,2.15,1.73,3.55a4.49,4.49,0,0,1-.1.64c-.41,2.05-6.94,2.47-8.64,2.47-4,0-9.31-2.18-9.18-6.91.09-3.17,2.3-6.37,4.41-6.37,1,0,3.72,1.63,3.72,2.75,0,.67-1.64,2.18-1.64,3.23C439.83,206.94,441.4,206.81,442.55,206.81Zm-6.68-15.07c0-2.3,2.72-2.21,4.35-2.21.77,0,1.57,0,2.37.07,1.34.06,6,.09,6.87.89a3.23,3.23,0,0,1,1,2.6c0,2.46-1.21,3.42-2.68,3.42a16.41,16.41,0,0,0-4.87-.83c-2.36-.42-4.6.45-6-.35-.74-.42-1-2.08-1-2.92Z"/><path class="cls-10" d="M480.83,189c1.4,0,6.08.09,6.94,1.12a3.57,3.57,0,0,1,.64,2.4c0,1.18-1.92,1.37-2.82,1.37s-1.95-.06-2.91-.12a8.74,8.74,0,0,0-1-.07c-.87,0-2,.16-2,1.28,0,1.54.68,2.31,2.24,2.31.84,0,1.67-.1,2.47-.1,2,0,3.45-.06,3.45,2.43,0,1.73-1.18,2.21-2.72,2.21-.86,0-1.69-.1-2.56-.1-1.72,0-2.81-.06-2.81,2,0,.45.06,1.12.51,1.31a10.56,10.56,0,0,0,2.69.25c1,0,1.92-.06,2.88-.06,1.12,0,1.79.22,1.79,1.47,0,2.15-.7,3.2-3,3.2l-2.43,0c-1.5,0-2.72.22-2.72,2,0,.25,0,.51,0,.76,0,2.05-1.92,2.21-3.48,2.21a2.86,2.86,0,0,1-1.28-.22c-1.28-.74-1.19-6-1.19-7.33,0-2.4.13-4.8.13-7.2,0-.32,0-2.34-.38-2.34-.77,0-1.7,3.46-3.08,3.46-1,0-1.82-1.25-2.59-1.25-1.05,0-1.05,2-1.05,2.69,0,3.07.19,6.18.19,9.25,0,1.92-.32,2.75-2.43,2.75a5,5,0,0,1-1.67-.22,1.77,1.77,0,0,1-1.05-1.25c-.71-2.18-.61-4.48-.77-6.72,0-.42-.13-3-.54-3s-.81,1-1.25,1c-.64,0-1.57-4.16-1.57-4.8a3.81,3.81,0,0,1,1.09-2.33l.48-.71a28.61,28.61,0,0,0,2.78-4.54,29.91,29.91,0,0,1,1.63-4.06,2.3,2.3,0,0,1,1.83-1.25c1,0,3.1.06,3.1,1.41,0,2.68-1.79,5.05-1.79,7.74l.16.22c1.73-.19,3.74-9.79,6.49-9.79.77,0,3.68.48,3.68,1.51,0,.19-.09.35-.09.54,0,.74,2.46.61,2.91.61Z"/><path class="cls-9" d="M499.64,209.15c0-1.31,1-2.5,1.92-2.5,1.86,0,4.55.26,6.4.1,2.59-.23,5.73-1.06,5.79-2.53.07-1.66-2.27-1.95-5.15-1.86a20.35,20.35,0,0,0-5.92,1.19c-1.25.38-3.9,1.85-5.09,1.85s-3.16-2.59-2.75-4.92c.55-3,10.37-5.35,10.37-6.66,0-.41-1.18-.29-2.14-.13a20.54,20.54,0,0,1-3.49.23c-1.25,0-2.59-.35-2.75-1.95s-.07-3.08.83-3.62c1.34-.83,8.13-.1,9.89-.1.86,0,1.72-.06,2.56-.06,2,0,5.63.1,7.19,1.44a1.65,1.65,0,0,1,.61,1.34c0,.42.1.84.1,1.28.13,4.29-4.67,3.65-7.46,5.19.32,0,.64-.07,1-.07,4.07,0,9.79,1.31,9.79,6.37,0,6-5.76,8.9-11,9.66a20.22,20.22,0,0,1-3.1.23c-1.06,0-2.12,0-3.2,0C500.89,213.66,499.64,212.22,499.64,209.15Z"/><path class="cls-9" d="M550.33,210.84c-.71.39-6.75,3.62-9.06,3.62-3.07,0-4.73-1.79-4.73-4.83a1.89,1.89,0,0,1,.64-.93,19.28,19.28,0,0,1,4.06-1.06c2.47-.51,8.45-1.6,8.45-4.89,0-2-2.72-1.95-4.13-1.95-4.25,0-8.38,1.34-12.64,1.34-1.89,0-2.49-1.92-2.49-3.49,0-2.49,13.15-3.42,15.26-3.42,4.32,0,10.88,1.44,10.88,6.91C556.57,206.46,553.82,208.89,550.33,210.84Zm-1.47-17.21c-2.37,0-11.27-.29-13-1.31a1.62,1.62,0,0,1-.74-1.35c0-3.23,2-3.26,4.58-3.26,1.88,0,9.5.22,10.81,1.12a3.17,3.17,0,0,1,1.15,2.85C551.67,193.5,550.36,193.63,548.86,193.63Z"/><path class="cls-9" d="M575.1,192.45c0-2.69,1.44-3.3,3.87-3.3,2.78,0,3.14,1.79,3.14,4.13v2.3c0,1.54-.2,7.1-1.28,8.06a3.91,3.91,0,0,1-2.6.64,3.59,3.59,0,0,1-1.63-.25c-1.34-.71-1.5-6.59-1.5-8.07Zm4.77,14.3c1.24,0,1.88.32,1.88,1.66V209c0,2-1,2.78-2.91,2.78-3,0-3.42-.7-3.42-3.62a1.4,1.4,0,0,1,1.57-1.37Z"/><path class="cls-11" d="M585.41,126.62a17.68,17.68,0,0,1-2.44,6,6.75,6.75,0,0,1-5.12,2.71,8.93,8.93,0,0,1-6-1.23,10.23,10.23,0,0,1-3.9-4.57c-.78-2-.65-4.29-.68-6.4A12.89,12.89,0,0,1,568.7,117a10,10,0,0,1,2.6-3.33c1.37-1,2.7-2.08,4.47-2.06a7.66,7.66,0,0,1,2.23.47,18.91,18.91,0,0,1,2.27.78,8,8,0,0,1,2.91,2.68,12.35,12.35,0,0,1,2,4.89A13.89,13.89,0,0,1,585.41,126.62Zm-2.67-10.68a8.26,8.26,0,0,0-1.69-1.51c-.37-.21-.68-.42-1.07-.6a5.77,5.77,0,0,0-1.12-.68,7.09,7.09,0,0,0-2.83.13c-1,.18-2,.26-2.91.42-1.75.36-2.66,2-3.25,3.51a22.93,22.93,0,0,0-1,3,23,23,0,0,0-.8,3.2,10.3,10.3,0,0,0,1.09,5.82,9.93,9.93,0,0,0,3.87,4.63,5.34,5.34,0,0,0,5.65.21,15.74,15.74,0,0,0,2.18-1.77,11.57,11.57,0,0,0,2.18-2.31c1.41-2.34,1.38-5.33,1.51-8A9.26,9.26,0,0,0,582.74,115.94Zm-4.61,8.58c0,1.56-1.19,2.23-2.6,2.13a3.25,3.25,0,0,0-.7-.18,3.79,3.79,0,0,1-.91-.65,2.36,2.36,0,0,1-.54-2.24,20.71,20.71,0,0,1,1.06-2.24,1.5,1.5,0,0,1,1.59-.83C577.56,120.85,578.16,123.09,578.13,124.52Zm-2.26-3.25c-1.12-.21-1.25,1.56-1.06,2.23.07.29.18.57.23.86s0,.6,0,.91a1,1,0,0,0,.65.75c1,.29,1.4-1.45,1.51-2.23C577.33,122.83,576.91,121.45,575.87,121.27Z"/><path class="cls-11" d="M607.41,126.62a17.7,17.7,0,0,1-2.45,6,6.74,6.74,0,0,1-5.12,2.71,8.94,8.94,0,0,1-6-1.23,10.23,10.23,0,0,1-3.9-4.57c-.78-2-.65-4.29-.68-6.4a12.89,12.89,0,0,1,1.46-6.13,10.23,10.23,0,0,1,2.6-3.33c1.38-1,2.71-2.08,4.47-2.06a7.8,7.8,0,0,1,2.24.47,18.75,18.75,0,0,1,2.26.78,8,8,0,0,1,2.91,2.68,12.35,12.35,0,0,1,2,4.89A13.89,13.89,0,0,1,607.41,126.62Zm-2.68-10.68a8,8,0,0,0-1.69-1.51,11,11,0,0,0-1.07-.6,6,6,0,0,0-1.11-.68,7.14,7.14,0,0,0-2.84.13c-1,.18-2,.26-2.91.42-1.74.36-2.65,2-3.25,3.51a21.53,21.53,0,0,0-1,3,21.73,21.73,0,0,0-.81,3.2,10.3,10.3,0,0,0,1.09,5.82,10,10,0,0,0,3.88,4.63,5.32,5.32,0,0,0,5.64.21,15.74,15.74,0,0,0,2.18-1.77,11.34,11.34,0,0,0,2.19-2.31c1.4-2.34,1.38-5.33,1.51-8A9.26,9.26,0,0,0,604.73,115.94Zm-4.6,8.58c0,1.56-1.2,2.23-2.6,2.13a3.41,3.41,0,0,0-.7-.18,3.61,3.61,0,0,1-.91-.65,2.37,2.37,0,0,1-.55-2.24,19.06,19.06,0,0,1,1.07-2.24,1.48,1.48,0,0,1,1.58-.83C599.56,120.85,600.16,123.09,600.13,124.52Zm-2.26-3.25c-1.12-.21-1.25,1.56-1.07,2.23.08.29.18.57.23.86s0,.6,0,.91a1,1,0,0,0,.65.75c1,.29,1.41-1.45,1.51-2.23C599.32,122.83,598.91,121.45,597.87,121.27Z"/><path class="cls-11" d="M633.36,128.36a60.71,60.71,0,0,1-.32,6.17c0,.26-.51.15-.75.15h-1.64c-.8,0-1.61-.05-2.39,0-1.59,0-3.17.2-4.73.26s-3.33-.06-5-.13c-.67,0-1.32,0-2,0-.36,0-.34,0-.49-.29-.52-1.19-.16-2.8-.06-4.08a14.49,14.49,0,0,0,.06-1.87c0-.42-.06-.36.36-.47a13.64,13.64,0,0,0,3.69-1.45c1.88-.91,3.62-2.55,3.25-4.81-.31-1.67-2.39-1.56-3.61-1.28a14.37,14.37,0,0,0-2,.7c-.24.11-.73.5-.84.08a30.2,30.2,0,0,1-2.15-4.05,1.67,1.67,0,0,1-.24-.71A4.91,4.91,0,0,1,616,114.3a12.4,12.4,0,0,1,4.81-3,9.8,9.8,0,0,1,6,.21c3.54,1.09,6.69,4.08,6.66,8,0,3.35-3,6.21-5.75,8.11,1.36-.08,2.74,0,4.06,0l1.17,0c.21,0,.39-.1.39.13S633.36,128.16,633.36,128.36ZM632,133.62c-.05-1.67.13-3.31.24-5a47.76,47.76,0,0,0-5.07-.21c-.21,0-.76.16-.81-.05s-.23-.44-.21-.57a16.4,16.4,0,0,0,2.42-1.56c2.21-1.69,3.93-4.14,3.33-7a11.2,11.2,0,0,0-2.29-4.89,7.33,7.33,0,0,0-4.81-2.21,9.33,9.33,0,0,0-5.23,1,14,14,0,0,0-2.57,1.35c-.57.41-1.64,1.22-1.77,2a17.17,17.17,0,0,0,2.11,4.08v0c1.53-.91,3.85-1.87,5.59-1,1.45.75,1.51,3.06,1.33,4.49a5.51,5.51,0,0,1-2.63,3.64A9.06,9.06,0,0,1,617,129c-.11.8-.21,1.61-.24,2.42a7.7,7.7,0,0,0,.13,2.28,44.5,44.5,0,0,1,6.92-.13c1.09.11,2.16.26,3.25.32A24.48,24.48,0,0,0,632,133.62Z"/><path class="cls-11" d="M31.93,121.68a3.54,3.54,0,0,0,4.06,3,13.9,13.9,0,0,0,2.57-.59c.24-.08.21-.08.34.15a6.92,6.92,0,0,0,.36.83c.42,1,.86,2,1.2,3,.13.39.29.78.39,1.17.16.57-1,1.32-1.33,1.51a11.64,11.64,0,0,1-5.66,1.32,7.76,7.76,0,0,1-5.23-1.43,8.86,8.86,0,0,1-2.73-5.07,36,36,0,0,1-.34-4.39c0-3.33.29-7.46,2.81-9.83a8.15,8.15,0,0,1,10.5-.42A10.89,10.89,0,0,1,41.42,114c.24.39-.31,1.07-.47,1.41l-1.69,2.83a1.27,1.27,0,0,1-.15.21s-.13-.11-.24-.18a6.49,6.49,0,0,0-5.48-.78C31.78,118.07,31.67,120.17,31.93,121.68Zm-1.45-.8c.26-1.9,1-3.54,2.57-4.37s4.45-.16,5.93,1.06c.39-.57.75-1.17,1.12-1.76a7.15,7.15,0,0,0,.8-1.56,7.91,7.91,0,0,0-2.62-2.37c-1.64-.94-3.62-1.85-5.46-1.54a6.07,6.07,0,0,0-4,3,14.37,14.37,0,0,0-2.34,5.3,18.4,18.4,0,0,0,.08,6.45A7.52,7.52,0,0,0,29.77,130a8.17,8.17,0,0,0,4.81,1.35,7.76,7.76,0,0,0,4.89-2.19c-.41-1.35-.78-2.65-1.22-3.92a12.65,12.65,0,0,1-5.33.18C31,124.91,30.24,122.88,30.48,120.88Z"/><path class="cls-11" d="M63.08,130.86c0,.44,0,.91-.1,1.33s0,.36-.34.36c-3.23.1-4,.13-4.71.1a4.52,4.52,0,0,1-1,0c-.08-.07,0-.46,0-.57a15.39,15.39,0,0,1-.05-1.92,26.61,26.61,0,0,0,.26-4.27c-.18-1.48-1.61-1.82-2.84-1.22s-1.53,2.45-1.63,3.69a35.43,35.43,0,0,0-.06,3.72,22,22,0,0,0-2.93.18,28.36,28.36,0,0,1-3.62.5c-.1,0-.7.08-.73,0a7.12,7.12,0,0,0-.13-.91,22.85,22.85,0,0,1,0-3.51c.08-1.35.21-2.73.16-4.08s-.23-2.71-.26-4.09l0-7c0-.89,0-1.77-.11-2.63,0-.52-.28-1,.29-1.28,1.64-.88,4-.41,5.77-.28l1.35.08c.24,0,.18.73.18.93a34.8,34.8,0,0,1-.2,4.45c-.06.94-.19,1.9-.24,2.86a9.15,9.15,0,0,1,5.25-1,6.12,6.12,0,0,1,5.2,3.07,6.55,6.55,0,0,1,.42,3c0,1.77.08,3.54.1,5.31C63.08,128.75,63.11,129.82,63.08,130.86Zm-1,.73a17.72,17.72,0,0,0,.21-2.81c.05-1.25.1-2.5.1-3.74a22.57,22.57,0,0,0-.23-3.49,3,3,0,0,0-.68-1.64,6.35,6.35,0,0,0-2.94-1.58,11.06,11.06,0,0,0-3.69-.6,4.25,4.25,0,0,0-3,1.12c-.32.31-.63.62-.94,1-.05-3.22.16-6.45.34-9.65-.89-.15-1.77-.39-2.65-.52a10.71,10.71,0,0,0-1.23-.1c-.44,0-1.69,0-2,.36.2,1.88.23,3.8.26,5.7.07,2.42.52,4.94.36,7.36-.16,2.7.73,5.33.86,8,1.58.06,3.14.39,4.76.34-.16-1.92-.55-3.92.1-5.8a3.27,3.27,0,0,1,4.73-1.79c1.56.81,1.41,3,1.46,4.5,0,1.06,0,2.13.1,3.22Z"/><path class="cls-11" d="M84.74,131.67a12.39,12.39,0,0,1-4,.8,22.87,22.87,0,0,1-2.75.05c-.5,0-.68-.7-.81-1.35a8,8,0,0,1-5.85.78,5.87,5.87,0,0,1-3.95-5.07c-.21-2.16.34-4.91,2.26-6.16s4.5-1.07,6.71-.86c-.42-1.38-3.12-1.17-4.21-1-1.33.21-2.65.47-4,.6l-.75.08c-.26,0-.21,0-.24-.23a13.69,13.69,0,0,1-.13-2.47c0-1,.08-2,.18-3,.06-.42.13-.84.19-1.23,0-.23.8-.28,1-.34,1-.18,2.11-.31,3.18-.49a19.1,19.1,0,0,1,3.64-.49,10.68,10.68,0,0,1,8.11,4,10.7,10.7,0,0,1,1.17,5,6.74,6.74,0,0,0,0,.75c.1,1.85.13,3.69.23,5.54.08,1.19.24,2.34.21,3.51C85,130.5,85.05,131.54,84.74,131.67Zm-.86-10.51c-.36-2.94-1-6.78-4.37-7.59a27.81,27.81,0,0,0-4.39-.47c-2.21-.15-4.73-.7-6.89.11a26.76,26.76,0,0,0,.21,4.81c.93-.06,1.87-.08,2.8-.06a18.91,18.91,0,0,1,4.19.19,2.83,2.83,0,0,1,2,1.58c0,.18.33,1.35,0,1.35-1.92.11-3.92-.31-5.82,0-2.24.37-3.25,2.16-3.56,4.27-.29,2,.15,4.18,2.13,5.07,1.74.78,3.92,0,5.64-.47l2.34-.62c.08.39.18.78.23,1.17s0,.62,0,.91a14.1,14.1,0,0,0,5.25-.65c.08-1.3.24-2.58.31-3.85A34.52,34.52,0,0,0,83.88,121.16Zm-6.34,2.52a2,2,0,0,1,.07,1.75c-.13.28.06.65-.18.83-.31.36-.57,1-1,1.22s-1.32-.13-1.79-.47a1.72,1.72,0,0,1-1-1.45,2.28,2.28,0,0,1,.62-2C75.09,122.93,76.81,122.67,77.54,123.68Zm-.63,2.14c.24-2-.93-2-1.09-2a1.07,1.07,0,0,0-1.22.45c-.18.36-.47,2.36.41,2.08.32-.11.55-.55.86-.52A2.8,2.8,0,0,0,76.91,125.82Z"/><path class="cls-11" d="M104.29,127a6.05,6.05,0,0,1-2.34,2.86,8.3,8.3,0,0,1-7.18.7c.08,1.28.08,3.41.06,4.71,0,.62,0,1-.63,1.25a6.61,6.61,0,0,1-2.73.13c-.7,0-1.4-.06-2.13,0a.51.51,0,0,1-.52-.31,6.92,6.92,0,0,1-.36-2.24c.05-1.79.05-2.73.12-3.66.13-1.82.34-3.67.32-5.49,0-.88-.16-1.74-.24-2.65a13.49,13.49,0,0,1,0-2.84c.13-1.09.34-2.15.37-3.22,0-.29,0-.39.15-.57a2.42,2.42,0,0,1,1.15-.29,8.38,8.38,0,0,1,2.91.11c.16,0,1.17,0,1.22.2a5.76,5.76,0,0,1,.08,1.38c1.92-.91,4.5-1.51,6.45-.49,2.34,1.25,3.09,4.21,3.41,6.58A7.79,7.79,0,0,1,104.29,127Zm-3.8-9.54c-2-1.43-4.37-.68-6.34.41-.11-.52-.13-1.06-.23-1.58-.63,0-1.28-.08-1.9-.13s-1.64-.34-2.16-.05a26.33,26.33,0,0,1,.34,4.68c0,1.63-.55,3.17-.58,4.81s0,3.22.13,4.83a24.06,24.06,0,0,1,0,3.43l-.08,1.3a2.68,2.68,0,0,0-.07.71,14.71,14.71,0,0,0,1.48.1c.52,0,1-.05,1.51-.1a6.27,6.27,0,0,0,.88-.21.64.64,0,0,0,.26-.13c0-1.8.24-4.45.29-6.22,1.71,1,4,1.77,5.93,1,2.39-1,3.27-4.09,3.51-6.4A7.4,7.4,0,0,0,100.49,117.42Zm-3.64,7.9c-.49.91-1.77,2-2.78,1.25a1.4,1.4,0,0,1-.47-1.51c.13-.67,0-1.4.13-2.1.08-.5.29-1.33.91-1.43a3.1,3.1,0,0,1,1.8.57C97.66,123,97.37,124.13,96.85,125.32Zm-.91-2.55a1.29,1.29,0,0,0-1.09-.65c-.31,0-.39.71-.44,1a3.32,3.32,0,0,0,.08,2.26c.1.15.18-.08.26-.11.26-.07.54.08.8.08a1.21,1.21,0,0,0,.81-.31C96.85,124.46,96.25,123.27,95.94,122.77Z"/><path class="cls-11" d="M124,118.25c0,.42,0,.83-.07,1.25a11,11,0,0,1-.34,1.51c0,.18-.11.72-.24.83a4.19,4.19,0,0,1-2.26.41,9.84,9.84,0,0,1-2.16-.13,57.87,57.87,0,0,1,.16,6.71c0,.52,0,1,0,1.56s0,.83-.57,1.07a10.08,10.08,0,0,1-2.63.18c-.68,0-1.38.05-2.08.05-.34,0-.65,0-1-.05s-.26,0-.29-.29c0-.88,0-1.76,0-2.65l.13-2.23c.11-1.33.32-2.66.37-4a14.63,14.63,0,0,1-2.55.7,9.2,9.2,0,0,1-2.5-.13c-.78-.1,0-4.29,0-4.91a10.29,10.29,0,0,0,.08-1.46,2.78,2.78,0,0,1,0-1c.31-.65,1.32-.47,1.87-.44l1.9.07c.34,0,.7.06,1.07.11,0-1.28.07-2.55.1-3.82a3.69,3.69,0,0,1,0-1.1c.07-.13.85-.13,1-.15.6-.11,1.15-.26,1.75-.37a5.79,5.79,0,0,1,2.65.08c.08,0,.39.08.39.18,0,.39,0,.81,0,1.2-.05,1.27-.13,2.55-.13,3.82a23.78,23.78,0,0,1,4.53-.28c.13,0,.41,0,.46.13a5.49,5.49,0,0,1,.24.75A6.34,6.34,0,0,1,124,118.25Zm-.93,1.48c0-.31-.11-.62-.16-.91-.13-.65-.15-1.4-.31-2-.62-.06-1.25-.16-1.9-.21s-1.51-.1-2.26-.13a3.63,3.63,0,0,0-.57,0c-.21,0-.11-.18-.11-.39,0-1.58,0-3.17,0-4.76a11,11,0,0,0-1.27,0c-1,0-1.88-.13-2.81-.07-.06,1.06-.11,2.13-.13,3.19V116c-.06,0-.21,0-.31,0a14.15,14.15,0,0,1-1.62.13c-.91,0-1.84,0-2.73.1a8.44,8.44,0,0,0,0,3.09c.08.65.13,1.36.23,2a19,19,0,0,0,4.71,0c0,1-.08,2.08-.08,3.1,0,2,.21,4,.06,5.92,1.43.34,3.11.81,4.44.19a37.19,37.19,0,0,1-.21-5.28c0-1.46.11-2.91.08-4.37a9.81,9.81,0,0,0,2.08.55c.68.07,2.08.41,2.76-.06A7.81,7.81,0,0,0,123.09,119.73Z"/><path class="cls-11" d="M138.17,124.1c-1.28.18-2.92.7-3.62.83,0,1.22,1.2,1.8,2.19,1.9a6.29,6.29,0,0,0,2.39-.29,14,14,0,0,0,3.79-1.4c.21,1.07.55,2.11.73,3.2a10.51,10.51,0,0,1,.24,2.36c0,.47-1.8.94-2.19,1.1a11.88,11.88,0,0,1-11.36-1.75c-3.09-2.52-3.61-7.22-2.5-10.92a9.37,9.37,0,0,1,3.36-4.88,8,8,0,0,1,5.87-1.49,7.34,7.34,0,0,1,6.82,10c-.11.39-1.49.45-1.95.52s-1.15.24-1.77.34S138.84,124,138.17,124.1Zm-4.22.31a14.19,14.19,0,0,1,4.5-1.3,11.54,11.54,0,0,0,4.14-1.32c0-.94.1-1.88.13-2.81a5.73,5.73,0,0,0-.45-2.76c-.93-1.74-3-2.21-4.75-2.26a20.94,20.94,0,0,0-3.2.26,9.19,9.19,0,0,0-2.73.68c-1.77,1-2.26,3.19-2.73,5a14.41,14.41,0,0,0-.34,5.7,7.39,7.39,0,0,0,3.15,4.81c1.71,1.17,3.53,1,5.46.6,1-.16,2-.32,3-.39a7.93,7.93,0,0,0,2.78-.5,9.51,9.51,0,0,0-.67-3.22,9.8,9.8,0,0,1-4.74.65,4.63,4.63,0,0,1-2.75-.91,2.2,2.2,0,0,1-.94-1.33C133.72,125.06,133.59,124.46,134,124.41Zm2.45-3.22a17.76,17.76,0,0,0-2.81.7,5.19,5.19,0,0,1,.21-2.83c.44-1,1.77-1.17,2.68-1.38a2.38,2.38,0,0,1,2.44.7,4.64,4.64,0,0,1,.23,2.55A6.62,6.62,0,0,0,136.4,121.19Zm-.29-.7c.63-.11,1.35-.16,1.95-.32a4.13,4.13,0,0,1-.62-1c-.16-.5-.26-.91-.91-.91-1.17,0-2,1.53-2.26,2.67C134.92,120.85,135.49,120.64,136.11,120.49Z"/><path class="cls-11" d="M161.72,121.89c0,.26-.13,1.51-.52,1.48-.83-.05-1.64,0-2.47,0a9.85,9.85,0,0,0-2.6,0c-.88.23-1.09.73-1.14,1.61a17.28,17.28,0,0,1-.34,2.6,8.43,8.43,0,0,0-.34,3.12c.05.31.13.94.16,1.07-.52,0-1.51.05-1.64.05-.6,0-1.14,0-1.72,0-1,0-2,0-3.06,0a1.29,1.29,0,0,1,0-.34c0-1.56,0-3.15-.08-4.73s-.34-3.15-.34-4.73c0-1.85.08-3.7,0-5.54,0-.63-.13-1.28-.23-1.9,0-.39,0-.39.39-.6a4.47,4.47,0,0,1,3.28-.78c1,.16,1.92.47,2.8.7.21.06.19,1.38.19,1.59.05.55.13,1.09.18,1.66a7.91,7.91,0,0,1,3.72-2,6.7,6.7,0,0,1,2.08-.21c.41.06,1.66.16,1.66.68,0,1-.08,2,0,2.91A21.39,21.39,0,0,1,161.72,121.89Zm-1.45,0a11.58,11.58,0,0,1,.39-1.56,15.56,15.56,0,0,0,.15-4.09c-.57,0-1.17.11-1.77.13a11.41,11.41,0,0,0-1.56.19,6.39,6.39,0,0,0-3.79,2.39c-.11-1.46-.16-2.94-.29-4.42a8.69,8.69,0,0,0-3.17.44c-.31.1-.62.18-.94.26-.13,0-.31.1-.49.16a51.47,51.47,0,0,0,0,5.69,48.91,48.91,0,0,1-.13,5,45,45,0,0,0,.1,5.07,24,24,0,0,0,2.6-.18,17.33,17.33,0,0,1,2.08-.13,8,8,0,0,0,0-1.46c-.1-.83-.26-1.66-.31-2.49,0-1.3,0-2.94,1.22-3.69a8.8,8.8,0,0,1,3.85-.89C158.89,122.25,159.56,122,160.27,121.92Z"/></g></g></g></svg>