<svg xmlns="http://www.w3.org/2000/svg" xmlns:xlink="http://www.w3.org/1999/xlink" viewBox="0 0 654.95 267.32"><defs><style>.cls-1,.cls-2,.cls-4,.cls-7{fill:none;}.cls-2,.cls-7{stroke:#faf6d9;}.cls-2,.cls-4,.cls-7{stroke-linecap:round;stroke-linejoin:round;}.cls-2{stroke-width:7px;}.cls-3{fill:#faf6d9;}.cls-4{stroke:#c45c66;}.cls-4,.cls-7{stroke-dasharray:8.03 8.03;}.cls-5{fill:#49a9a4;}.cls-6{clip-path:url(#clip-path);}.cls-8{fill:#583726;}.cls-9{fill:#3c2213;}.cls-10{fill:#c3c154;}.cls-11{fill:#fff;}</style><clipPath id="clip-path"><path class="cls-1" d="M25,82.68H628.23a26.83,26.83,0,0,1,26.83,26.83v40.1a0,0,0,0,1,0,0H.1a0,0,0,0,1,0,0v-42A24.88,24.88,0,0,1,25,82.68Z"/></clipPath></defs><title>2</title><g id="レイヤー_2" data-name="レイヤー 2"><g id="chapter"><g id="label"><line class="cls-2" x1="329.88" y1="109.32" x2="373.27" y2="4.14"/><rect class="cls-3" x="0.05" y="82.71" width="654.69" height="184.61" rx="27.68" ry="27.68"/><rect class="cls-4" x="12.09" y="95.1" width="629.56" height="158.61" rx="20.59" ry="20.59"/><path class="cls-5" d="M24.88,82.73H628.13A26.83,26.83,0,0,1,655,109.56v40.1a0,0,0,0,1,0,0H0a0,0,0,0,1,0,0v-42A24.88,24.88,0,0,1,24.88,82.73Z"/><g class="cls-6"><rect class="cls-7" x="12.25" y="94.98" width="629.56" height="158.61" rx="20.59" ry="20.59"/></g><circle class="cls-8" cx="327.57" cy="123.11" r="14.58"/><line class="cls-2" x1="324.92" y1="108.67" x2="274.95" y2="3.5"/><path class="cls-9" d="M35,191.77c.29-1.28,1.73-1.28,2.75-1.28s2.82-.26,2.82,1.28c0,.8-.29,1.57-.29,2.37,0,.44.64.57,1,.57a.77.77,0,0,0,.77-.54,13.61,13.61,0,0,0,.48-2.53c.25-1.31,1.73-1,2.72-1,1.31,0,2.72,0,2.72,1.66,0,.61-.07,1.22-.07,1.82,0,1.16,1.25.55,1.76,1.09a3.45,3.45,0,0,1,.48,2.18c0,.45.07,1.31-.25,1.66s-1.15.32-1.6.32c-1.51,0-1.73,2.34-1.73,3.43,0,1.44,1.47.06,1.82,1.4a4.91,4.91,0,0,1,.1,1.22c0,4.41-2.14,1.63-3.17,3.33-1.73,2.88.9,4.38-4.29,4.38-1,0-2-.19-2-1.44,0-.93.35-1.79.35-2.72a.61.61,0,0,0-.7-.7c-2.56,0,0,4.67-3.84,4.67-1.47,0-3.27.1-3.27-1.86,0-.73.07-1.47.07-2.2,0-1.35-1.25-.48-1.76-1.25a3.59,3.59,0,0,1-.39-1.92c0-.48-.06-1.41.26-1.79s1.22-.32,1.63-.32c1.54,0,1.76-2.56,1.76-3.68l0-.32c-.77-.77-1.92.6-1.92-1.67,0-1.66-.16-3.1,1.92-3.1a1.24,1.24,0,0,0,1.15-.51,3.8,3.8,0,0,0,.45-1.19Zm4.67,11.84c1.09,0,1.34-2.69,1.34-3.46s-.35-.86-1-.86c-1.18,0-1.31,2.81-1.31,3.65C38.67,203.51,39.15,203.61,39.63,203.61Z"/><path class="cls-9" d="M55,201.75c0-6.27,2.95-11.58,9.83-11.58,6.71,0,9.88,5.18,9.88,11.39s-2.88,11.81-9.88,11.81C58,213.37,55,208,55,201.75Zm13-.48c0-2.3,0-6.43-3.26-6.43-3,0-3,4.86-3,6.94s.13,6.92,3.14,6.92C68.17,208.7,68,203.51,68,201.27Z"/><path class="cls-9" d="M95.47,190.49c1.37,0,5.18.16,6.21,1s.92,1.82.92,2.88c0,2.69-5.34,4.19-5.6,5.34a6,6,0,0,1,6.15,5.76c0,5-4.48,8-9.12,8-1.89,0-7.81-.77-7.81-3.33,0-.61.51-2.78,1.31-2.78,2,0,3.84,1.21,5.89,1.21,1.44,0,3.39-.67,3.39-2.4,0-2.3-3.23-2.36-4.89-2.36-.64,0-1.25,0-1.89,0-.8,0-.9-1-.9-1.57v-1c0-2.43,4.84-4.13,4.84-5.06,0-.7-2.73-.67-3.2-.67-.84,0-1.64.07-2.47.07-1.37,0-2-.26-2-1.76a2.89,2.89,0,0,1,.77-2.31c1-.93,4.87-1,6.27-1Z"/><path class="cls-9" d="M129.13,205c.58,0,1.15,0,1.73,0,1.47,0,2.46.51,2.46,2.11,0,2.82-.19,4.48-3.52,4.48s-3.52-1.79-3.52-4.57C126.28,205.14,127.66,205,129.13,205Zm4.23-8c0,1.53-1.41,1.88-2.69,1.88l-1.57,0c-1.6,0-2.78-.32-2.78-2.17,0-3.56.22-4.39,4-4.39C133.23,192.31,133.36,194.74,133.36,197Z"/><path class="cls-10" d="M157.87,214.52c-.32,0-1.18.09-1.38.35s0,.7-.64.7a7.89,7.89,0,0,1-3.13-.38c-2.24-.93-2.28-10.49-2.28-12.73,0-.87,0-1.73,0-2.6,0-2.24.68-4.22,3.27-4.22a3.44,3.44,0,0,1,1,.13c.8.25,1,1.37,1.06,2.11.06.9.09,1.79.09,2.66,0,1.08-.06,2.14-.06,3.23,0,6.65,2.94,6.65,8.57,6.65,2,0,5.64,0,7.49-.73a3.16,3.16,0,0,0,1.6-1.28c.8-1.22.83-3.2.83-4.64,0-1.76,0-3.52,0-5.28,0-1.57.32-2.85,2.18-2.85a3,3,0,0,1,2.33.61c.77.8.9,4.29.9,5.44,0,3.17.19,10.4-1.82,13a1.79,1.79,0,0,1-1.51.77c-.54,0-1.09.12-1.66.12a6.36,6.36,0,0,1-.74,0,.48.48,0,0,1-.29-.51c0-.48-1-.38-1.24-.38-2-.1-4-.07-6-.1-1.05,0-2.11,0-3.13,0Zm10.91-26.21c2.05,0,9,.13,10.21,1.73a3.44,3.44,0,0,1,.48,2.18c0,.6-.83,1-1.35,1-3,0-6-.13-8.92-.13-.42,0-1.54,0-1.54.64,0,.86,1.22.89,1.86.89l1,0a2.79,2.79,0,0,1,1.25.16c1.54.71,1.47,5,1.47,6.53,0,.64,0,1.31,0,2,0,1.44.06,3.36-.7,4.61-1.19,1.89-4.64,1.47-6.56,1.54-1.22,0-2.44.09-3.65.09a20.35,20.35,0,0,1-4-.22c-1.47-.35-1.57-3.3-1.57-4.48v-5.6a16.79,16.79,0,0,1,.1-2.24,2.23,2.23,0,0,1,1.82-2.21c1.06-.25,2.18-.06,3.23-.29.26-.06.55-.22.55-.54,0-.86-1.12-.83-1.73-.83-2.75,0-5.47.16-8.23.16-.92,0-1.92-.29-1.92-1.38a2.63,2.63,0,0,1,.77-2.05c1.57-1.34,8.93-1.47,11.17-1.47ZM162.41,199c0-.45-.13-.8-.64-.8s-.7.32-.7.8c0,.7-.07,1.41.83,1.41a.5.5,0,0,0,.51-.55Zm-.51,6.66c.51,0,.54-.58.54-1v-.29c0-.35,0-1-.51-1h-.35c-.45,0-.51.48-.51.83v.38c0,.32.09,1,.51,1Zm7.1-6.5c0-.38,0-1-.51-1h-.35c-.42,0-.48.32-.48.67v.35c0,.39,0,1.16.54,1.16.32,0,.8-.1.8-.48Zm0,5.25c0-.35,0-1-.51-1a3.22,3.22,0,0,0-.77.19c0,.26,0,.54,0,.8v.45c0,.48.23.7.71.7s.6-.45.6-.83Z"/><path class="cls-10" d="M210,193.18c-1.72,0-3.45-.2-5.18-.2-1,0-1.89.1-1.89,1.35,0,.67,2.79.61,3.27.61s1.18-.07,1.76-.07c3.68,0,6.49.58,6.68,4.83.07,1.67.07,3.36.07,5.06,0,2.59-.23,7.84-2,9.79a1.92,1.92,0,0,1-1.5.67c-.8,0-1.63.1-2.43.1-1.16,0-2.15-.74-3.3-.74-4.35,0-8.67.07-13,.13-.2.64-.71.64-1.28.64a6.85,6.85,0,0,1-2.88-.38c-2.43-1-2.4-9.76-2.4-12.1,0-7.52.25-7.9,7.8-7.9.87,0,2.88-.1,2.88-1.28,0-.71-3.1-.71-3.64-.71-1.76,0-3.49.16-5.25.16a1.38,1.38,0,0,1-1.5-1.37,3.24,3.24,0,0,1,.35-1.54,2.11,2.11,0,0,1,1.25-.92c2.08-.74,6.27-.93,8.54-.93,2.43,0,4.89,0,7.36,0,2.05,0,9,0,10.21,1.66a3.33,3.33,0,0,1,.51,2.11C214.35,193.18,210.67,193.18,210,193.18Zm-16.64,9.34c0-.58,0-3.71-.83-3.71s-.86,3-.86,3.61c0,.87-.13,8.35,1,8.35.71,0,.71-2.87.71-3.39,0-.89-.07-1.76-.07-2.65,0-.26,0-.51,0-.77Zm7.46-1.73c.93,0,1.47-.32,1.47-1.28,0-.61-.73-.83-1.25-.83h-1.28c-.8,0-1.44.29-1.44,1.18s.93.93,1.54.93Zm-.13,5.09c.9,0,1.6-.26,1.6-1.28,0-.74-1-.77-1.53-.77h-.9c-.7,0-1.54.16-1.54,1s.8,1,1.54,1Zm.13,5c.93,0,1.41-.16,1.41-1.18,0-.67-1-.77-1.47-.77h-1.09c-.48,0-1.35.19-1.35.8,0,1.09.45,1.15,1.41,1.15Zm7.49-.32c.41-.54.57-5.18.57-6.08v-2.72c0-.57-.09-3-.89-3-.19,0-.29.22-.35.38-.55,1.41-.42,4.13-.42,5.6,0,.77-.06,1.54-.06,2.3,0,.52,0,3.71.7,3.71Z"/><path class="cls-9" d="M249.52,207.38a.71.71,0,0,0-.36-.09c-.35,0-.51,1-.57,1.21-.26,1.31-.77,1.44-1.86,2-1.34.64-7.61.57-9.21.57-.68,0-1.32,0-2,0a6.87,6.87,0,0,1-3.2-.67c-1.18-.73-.41-1.95-.89-3-.07-.16-.16-.25-.32-.25-.52,0-.48.44-1.09.44-.93,0-1-2.24-1.38-2.24-.22.23-.22,1.25-.22,1.57,0,.83-.07,2.24.48,2.94,1.44,1.83,7.2,1.83,9.41,1.83,3.36,0,6.72-.32,10.08-.32.83,0,1.69.06,1.69,1.09a3.12,3.12,0,0,1-.7,2.3c-1.54,1.44-7.55,1.25-9.7,1.25a42.79,42.79,0,0,1-9-.86c-1-.23-2.68-1.19-3.68-1.19-1.28,0-2.46,1.63-3.42,1.63s-3-2.88-3-3.68c0-1,2.21-1,2.21-3.39,0-1.25-.19-2.46-.19-3.71a2.09,2.09,0,0,0-.16-.86c-.29-.36-.77-.29-1.19-.29-1,0-1.09-1.67-1.09-2.4,0-2.43,1.57-2.21,3.49-2.21.77,0,1.57-.06,2.34-.06,3.81,0,1.25,4.16,3.2,4.16.41,0,2-.68,2-1.16,0-.25-1.4-.12-1.76-.35-.54-.32-.41-1-.41-1.57,0-1.18,1.15-1.37,2.08-1.37.73,0,1.47.09,2.2.09.29,0,1.92-.09,1.92-.44s-1-.2-1.18-.2c-.9,0-1.79,0-2.69,0-1.09,0-2-.16-2-1.41,0-.16.13-1.7-.22-1.7s-2.24,1.89-3.2,1.89-4.61-3.9-4.61-4.8,2.18-2.91,3.07-2.91c1.67,0,4.13,4,4.8,4a2.78,2.78,0,0,1,1.89-.71c.7,0,1.37.1,2.08.1.45,0,1.15,0,1.44-.38a3.2,3.2,0,0,0-1.73-.29c-.64,0-1.28.09-1.92.09-.9,0-2-.28-2-1.37a3.75,3.75,0,0,1,.19-1.34,1.28,1.28,0,0,1,1.05-.8,17,17,0,0,1,4.26-.39c2.34,0,13.06-.19,14.69,1.25a2.48,2.48,0,0,1,.73,2.08c0,.8-1.56.8-2.11.8-.93,0-1.85-.16-2.78-.16a1,1,0,0,0-.45.13c0,.67,2,.51,2.37.51,2.69,0,2.88,1.41,2.88,3.68a2.7,2.7,0,0,1-.13.89,1,1,0,0,1-.67.61,13.75,13.75,0,0,1-3.3.29c-1.15,0-2.3-.1-3.45-.1-.29,0-2.08,0-2.08.36a6,6,0,0,0,1.85.25c.87,0,1.7,0,2.56,0s1.73-.1,2.56-.1c1.25,0,3.46.2,3.46,1.86,0,2-1.15.93-2.31,1.5,0,.77,2.6.71,2.6,2.37,0,.55-.74,3.07-1.38,3.07ZM234,195.1c0,.41,0,.83.57.83s.74,0,.74-.48-.13-.8-.58-.8S234,194.68,234,195.1Zm1.18,10.24h4.64a.42.42,0,0,0,.45-.48.72.72,0,0,0-.51-.13,11.27,11.27,0,0,1-1.54-.07c-.83-.06-1.66-.35-2.5-.35-.35,0-1,.35-1,.74Zm1.41,2.52c0,.55,3.29.45,3.77.45s3,0,3-.64l-.06-.13a25.86,25.86,0,0,0-3.14-.12,16.16,16.16,0,0,0-3.58.28Zm2.17-6.11c-.64,0-.64.07-1.12.42v0a8.54,8.54,0,0,0,2.72.26h.55c.22,0,1.25,0,1.25-.29s-1.06-.42-1.28-.42Zm1-9.18c.16,0,.41-.07.41-.26s-.29-.35-.51-.35h-.29a1.28,1.28,0,0,0-.32.06l-.09.2a.47.47,0,0,0,.44.35Zm.54,2.53-.35-.39h-.45a.55.55,0,0,0-.51.51c0,.36.09.77.51.77s.8-.19.8-.67Zm4.54,1a.49.49,0,0,0,.48-.48c0-.45-.16-.8-.67-.8s-.61.41-.61.8S244.52,196.06,244.84,196.06Zm.84,9.44c-.23,0-.29.38-.29.54,0,.54,1.09.67,1.44.67a3.51,3.51,0,0,0,.8-.06A13.32,13.32,0,0,0,245.68,205.5Z"/><path class="cls-9" d="M272.62,197.27c-.13-.19-1-1.09-1.22-1.09-.73,0-.7.45-1.37.45s-2.47-2.21-2.47-2.81a1.34,1.34,0,0,1,.55-1,17.77,17.77,0,0,1,2.08-1.31c1.5-1,2.78-2.34,4.32-3.33a1.17,1.17,0,0,1,.73-.22,12.49,12.49,0,0,1,3.24,1.18c2.88,1.12,5.88-.89,5.88,3.75,0,2.72-3,5.21-4.83,6.94l0,.06c.13.8,3.58.71,4.22.71,2.21,0,2.6.45,2.6,2.65a5.74,5.74,0,0,1-.61,2.6c-2,4-7.84,8-11.94,9.47a10.87,10.87,0,0,1-3.68,1c-1.6,0-2.65-2.11-2.65-3.52a.92.92,0,0,1,.16-.48c.83-.35,5.63-1.73,5.92-2.17a1.31,1.31,0,0,0,.12-.48c0-.61-.86-1.28-1.44-1.28-.8,0-1.43.7-2.23.7s-1-1.28-1.8-1.28-1,.64-1.5.64c-1,0-1.31-2.14-1.86-2.14-.29,0-.35.86-.35,1,0,2.21.16,4.38.16,6.59,0,1.76-.61,2.05-2.27,2.05-2.72,0-2.69-1.92-2.78-4,0-.26-.13-2.08-.42-2.08s-.7,2-1.38,2-2.4-3.2-2.4-3.93c0-1.86,3.33-5,3.33-6.82,0-.58-.25-.8-.83-.8l-1,0c-1.19,0-1.41-1-1.41-2,0-.64,0-1.63.48-2.08.86-.77,3.46.29,3.46-1.57,0-.67-.23-1.09-.93-1.09-.48,0-.93.1-1.38.1-.64,0-.73-.93-.73-1.41,0-.8-.07-1.7.64-2.24s8.35-2,9.59-2,1.76,1.63,1.76,2.59c0,2.53-3.9.42-3.9,3.78,0,2.11,2.27.67,3,1.73a3.92,3.92,0,0,1,.38,2c0,.29.13.48.45.48.77,0,3.74-.51,4.25-1Zm-6.18,3c-.16,0-.41,0-.41.22,0,1,1.92,3.87,3,3.87.54,0,3.58-1.12,3.58-1.66a.6.6,0,0,0-.22-.06c-1.09,0-2,.54-3.14.54C267.6,203.16,268.17,200.25,266.44,200.25Zm10.34-7.2c-.32,0-1.31.06-1.31.51s1.15,1.31,1.53,1.31c.55,0,1.41-.57,1.41-1.18s-.7-.64-1.18-.64Zm1.92,11.49c-.54,0-1.7.25-1.7,1,0,.32.77,1.34,1.12,1.34a2.67,2.67,0,0,0,1.86-1.92c0-.35-.35-.38-.64-.38Z"/><path class="cls-9" d="M306.35,200.76c-3.3,0-6.27,1.54-9.57,1.54-1.18,0-1.79-1.86-1.89-2.85-.45-4.39,10.27-3.94,12.61-3.94,5.06,0,9.95,3.11,9.95,8.58,0,7-8.73,10.24-14.62,10.24-2.75,0-4.16-1.6-3.71-3.71,1-4.61,12-.16,12-6.82C311.08,201.21,308.4,200.76,306.35,200.76Z"/><path class="cls-9" d="M340.68,203.35c-.44,3.62,2.21,5.06,5.64,5.06.92,0,2.46-.19,3.39-.19,1.6,0,1.73,1.59,1.73,2.91,0,3.74-2.82,3.61-5.67,3.61-6,0-12.48-4.12-12.48-10.65a7.4,7.4,0,0,1,2.95-6.27c1.44-1.12.19-1.73-.07-1.73-2.08,0-4.16.13-6.2.13-1.25,0-2.47-.23-2.47-1.73a3.73,3.73,0,0,1,1.35-2.91c1.72-1.35,14.52-1.28,17.21-1.28l3.07,0a6.93,6.93,0,0,1,4.61,1.34,2.77,2.77,0,0,1,.9,2.53C353.55,199.26,341.77,194.84,340.68,203.35Z"/><path class="cls-10" d="M371.47,211.77a6.13,6.13,0,0,1-3.84,2.33c-1.12,0-4.32-2.62-4.32-3.77a3.08,3.08,0,0,1,.86-1.79c2.92-3.36,5.28-5.25,5.28-8.77,0-1.38-.89-1.7-2.11-1.7-.57,0-1.18.1-1.76.1-1.41,0-2.59-.23-2.59-1.92s.45-3.55,2.65-3.55c.74,0,1.48.06,2.25.06a3.07,3.07,0,0,0,2.39-.7,4.66,4.66,0,0,0,.45-1.63c.16-2.15,1.28-2.31,3.17-2.31,1.38,0,3.14.06,3.14,1.89,0,.26,0,.51,0,.77a1.39,1.39,0,0,0,.61,1.31,3.59,3.59,0,0,0,1.76.32,36.12,36.12,0,0,1,7.91.64,1.67,1.67,0,0,1,1,.64c.7,1.09.7,3.13.7,4.41,0,3.81-.06,13.41-4,15.4a9.83,9.83,0,0,1-4.68.8c-.67,0-1.31,0-2,0-1.41,0-3.39-.39-3.39-2.18s.19-3.61,2.53-3.61c.89,0,1.82.12,2.75.12,1.63,0,1.6-6.08,1.6-7.23,0-.64.09-1.31.09-2,0-1.41-1.08-1.5-2.24-1.5-1.4,0-2.36.06-3.07,1.37a22.27,22.27,0,0,0-1.28,4.26A23.1,23.1,0,0,1,371.47,211.77Z"/><path class="cls-10" d="M405.45,196.18c.58.77,1.67,5.48,1.67,6.5,0,1.66-2.43,2-3.72,2-2,0-2.84-5-2.84-6.5,0-1.7,2.46-2.43,3.84-2.43A1.29,1.29,0,0,1,405.45,196.18Zm6.31,11.65a9.94,9.94,0,0,0,4.64-8.06,13,13,0,0,1,.73-4.07,1.41,1.41,0,0,1,1.31-.6c3.33,0,4,1.12,4,4.28a14.35,14.35,0,0,1-8.06,13.06,17.85,17.85,0,0,1-7.14,2.17c-2,0-2.43-1.31-2.81-3v0a2.5,2.5,0,0,1-.1-.74c0-1.31,3-1.53,3.94-1.85l0,0,.49-.13h0a12.89,12.89,0,0,0,3.14-1.12ZM407.24,197c0-1.53,2.44-2.11,3.65-2.11a1.72,1.72,0,0,1,1.22.48c.51.45,2.11,5.89,2.11,6.69,0,1.63-2.59,2.05-3.81,2.05C408.69,204.06,407.24,198.33,407.24,197Z"/><path class="cls-10" d="M437.17,206.17c3.45.35,5.4.57,8.19.8,6.56.77,6.56-.42,6.56-6.15,0-1-.1-2.68-.8-3.48-1.06-1.22-6.21-.42-7.81-.42-1.92,0-3.84.13-5.76.13-1.09,0-3.23-.87-3.23-2.66,0-1.44.25-2.46,1.6-3.17,1.53-.79,8.38-.89,10.4-.89,9,0,12.44,1,12.44,10.88,0,2.56,0,5.6-.83,8-1.12,3.17-3.93,3.94-7,4.16-2.27.16-5,.38-7.23.38s-8.23-.22-9.19-2.56a4.08,4.08,0,0,1-.22-1.63C434.35,207,436,206,437.17,206.17Z"/><path class="cls-9" d="M482.06,203.54c1,0,4.29,1,4.29,2.28a12.53,12.53,0,0,1-.93,2.49c-1.76,4.23-4.45,7-8.48,6.75-5.12-.35-7.26-4.13-8.19-8.06a26.89,26.89,0,0,1-.67-4.54c-.23-3.75-.07-9.28,2-10.53a5.15,5.15,0,0,1,2.76-.64,2.17,2.17,0,0,1,2.14,1.85c0,1.35-.1,2.21-.16,3.81a41.64,41.64,0,0,0,0,5.35c.1,1.63.16,6.11,2.21,6.59,1.76-.07,2.5-3,3-3.87v0C480.81,203.77,481.23,203.54,482.06,203.54Zm9.86,7.94a2.09,2.09,0,0,1-1.51-.45,3.38,3.38,0,0,1-.61-1.47c-.76-3.49-1.05-7-2-10.5-.48-1.72-1.47-4.16-1.47-6,0-1.38,2.59-1.79,3.64-1.79,4.32,0,6.21,12.19,6.21,15.52S495.5,211.48,491.92,211.48Z"/><path class="cls-9" d="M517.26,203.54c1,0,4.29,1,4.29,2.28a12.53,12.53,0,0,1-.93,2.49c-1.76,4.23-4.45,7-8.48,6.75-5.12-.35-7.26-4.13-8.19-8.06a26.89,26.89,0,0,1-.67-4.54c-.23-3.75-.07-9.28,2-10.53a5.15,5.15,0,0,1,2.76-.64,2.17,2.17,0,0,1,2.14,1.85c0,1.35-.1,2.21-.16,3.81a41.64,41.64,0,0,0,0,5.35c.1,1.63.16,6.11,2.21,6.59,1.76-.07,2.5-3,3-3.87v0C516,203.77,516.43,203.54,517.26,203.54Zm9.86,7.94a2.09,2.09,0,0,1-1.51-.45,3.38,3.38,0,0,1-.61-1.47c-.76-3.49-1-7-2-10.5-.48-1.72-1.47-4.16-1.47-6,0-1.38,2.59-1.79,3.64-1.79,4.32,0,6.21,12.19,6.21,15.52S530.7,211.48,527.12,211.48Z"/><path class="cls-9" d="M556.65,203c1.28,1.63,8,1.22,8.16,5.12.07,1.06-2.49,4.9-3.55,4.9s-2.78-2-4.16-2.44c-1.34.23-.8,4.13-8.7,4.74-4.67.35-9.73-2.56-9.73-7.84a4.86,4.86,0,0,1,.89-3,7.92,7.92,0,0,1,5.25-2.72,27.17,27.17,0,0,1,3.11-.26,4,4,0,0,0,.6,0,1.54,1.54,0,0,0,.58-.13c.32-.22.19-3.48.19-4.06,0-1.47-.13-8.1,1.12-8.77a3.94,3.94,0,0,1,1.92-.32c.74,0,3-.09,3.3.8a3.36,3.36,0,0,1,.16,1.25,4.27,4.27,0,0,0,.38,1.63c.35.83,1.57.8,2.34.8.93,0,1.89,0,2.85,0a4,4,0,0,1,3.23,1.22,3.86,3.86,0,0,1,.61,2.65,2,2,0,0,1-.13.58c-.35.83-2.69.86-3.46.86-1,0-1.89-.06-2.81-.06-2.44,0-2.6.61-2.6,2.88a5.68,5.68,0,0,0,.48,2.3Zm-9.34,3.65c-.93,0-2.18.38-2.18,1.5,0,1.47,1.35,1.92,2.6,1.92s1.66-.77,1.66-2c0-.32,0-.64,0-1-.2-.42-.77-.45-1.16-.45Z"/><path class="cls-9" d="M575,197.18c-1.25,0-1.92-.26-1.92-1.6,0-4.55,4.06-2.18,5.18-3.3a2.43,2.43,0,0,0,.48-1.95c0-1.79,2.21-2,3.52-2,1.51,0,2.3.6,2.3,2.17,0,.61,0,1.22,0,1.82,0,.13.07.93.26.93a4.33,4.33,0,0,0,1.25-.35c2-.8,4-1.82,6.17-1.82,7.27,0,9.6,5.24,9.6,11.71,0,1.25-.35,2.46-.35,3.71s1.41,2.08,1.41,2.82c0,.92-2.24,4-3.14,4-.41,0-1.28-.8-1.47-1.12a8.5,8.5,0,0,0-2.34,1.16,9,9,0,0,1-4.25,1,6.44,6.44,0,0,1-6.69-6.27c0-4.16,3.65-6.21,7.42-6.21.77,0,1.48.29,2.21.29.58,0,.64-.39.64-.87,0-2.3-.35-4.67-3.2-4.67a6.49,6.49,0,0,0-3.84,1.6c-.67.48-1.31.93-1.95,1.44-2,1.6-1.89,4.64-1.89,7,0,1.79.13,3.55.13,5.34,0,2.69-.38,3.2-3.14,3.2-4.19,0-2-5.41-3.19-7.74-.77.51-1.22,1.31-2.24,1.31-.87-.35-3.46-2.3-3.46-3.26,0-1.92,6-5.54,6-7.88A8.48,8.48,0,0,0,575,197.18Zm19.42,11.36.29-.71c0-.86-1.25-1.34-2-1.34-.92,0-2.08.35-2.08,1.47a1.52,1.52,0,0,0,1.48,1.57A2.6,2.6,0,0,0,594.38,208.54Z"/><path class="cls-9" d="M619.12,193.75c0-2.69,1.44-3.29,3.87-3.29,2.78,0,3.13,1.79,3.13,4.12v2.31c0,1.53-.19,7.1-1.28,8.06a3.87,3.87,0,0,1-2.59.64,3.59,3.59,0,0,1-1.63-.25c-1.34-.71-1.5-6.6-1.5-8.07Zm4.76,14.31c1.25,0,1.89.32,1.89,1.66v.54c0,2-1,2.79-2.91,2.79-3,0-3.42-.71-3.42-3.62a1.4,1.4,0,0,1,1.57-1.37Z"/><path class="cls-11" d="M585.41,126.62a17.68,17.68,0,0,1-2.44,6,6.75,6.75,0,0,1-5.12,2.71,9,9,0,0,1-6-1.23,10.35,10.35,0,0,1-3.9-4.57c-.77-2-.64-4.29-.67-6.4A12.84,12.84,0,0,1,568.7,117a10,10,0,0,1,2.6-3.32c1.37-1,2.7-2.08,4.47-2.06a7.73,7.73,0,0,1,2.23.47,18.91,18.91,0,0,1,2.27.78,8,8,0,0,1,2.91,2.68,12.44,12.44,0,0,1,2,4.89A13.89,13.89,0,0,1,585.41,126.62Zm-2.68-10.68a8,8,0,0,0-1.68-1.51c-.37-.21-.68-.42-1.07-.6a5.77,5.77,0,0,0-1.12-.68,7.09,7.09,0,0,0-2.83.13c-1,.19-2,.26-2.91.42-1.75.36-2.66,2-3.25,3.51a22.93,22.93,0,0,0-1,3,23,23,0,0,0-.8,3.2,10.3,10.3,0,0,0,1.09,5.82,9.87,9.87,0,0,0,3.87,4.63,5.34,5.34,0,0,0,5.65.21,15.74,15.74,0,0,0,2.18-1.77,11.57,11.57,0,0,0,2.18-2.31c1.41-2.34,1.38-5.33,1.51-8A9.21,9.21,0,0,0,582.73,115.94Zm-4.6,8.58c0,1.55-1.19,2.23-2.6,2.13a3.41,3.41,0,0,0-.7-.18,3.84,3.84,0,0,1-.91-.66,2.34,2.34,0,0,1-.54-2.23,19.85,19.85,0,0,1,1.06-2.24,1.48,1.48,0,0,1,1.59-.83C577.56,120.85,578.16,123.09,578.13,124.52Zm-2.26-3.25c-1.12-.21-1.25,1.55-1.06,2.23.07.29.18.57.23.86s0,.6,0,.91a1,1,0,0,0,.65.75c1,.29,1.4-1.45,1.51-2.23C577.33,122.82,576.91,121.45,575.87,121.27Z"/><path class="cls-11" d="M607.41,126.62a17.68,17.68,0,0,1-2.44,6,6.77,6.77,0,0,1-5.13,2.71,8.94,8.94,0,0,1-6-1.23,10.23,10.23,0,0,1-3.9-4.57c-.78-2-.65-4.29-.68-6.4a13,13,0,0,1,1.46-6.14,10.3,10.3,0,0,1,2.6-3.32c1.38-1,2.7-2.08,4.47-2.06a7.8,7.8,0,0,1,2.24.47,18.75,18.75,0,0,1,2.26.78,8,8,0,0,1,2.91,2.68,12.29,12.29,0,0,1,2,4.89A13.89,13.89,0,0,1,607.41,126.62Zm-2.68-10.68a8.26,8.26,0,0,0-1.69-1.51,12.1,12.1,0,0,0-1.06-.6,6.44,6.44,0,0,0-1.12-.68,7.14,7.14,0,0,0-2.84.13c-1,.19-2,.26-2.91.42-1.74.36-2.65,2-3.25,3.51a21.53,21.53,0,0,0-1,3,21.73,21.73,0,0,0-.81,3.2,10.3,10.3,0,0,0,1.09,5.82,10,10,0,0,0,3.88,4.63,5.32,5.32,0,0,0,5.64.21,16.45,16.45,0,0,0,2.19-1.77,11.86,11.86,0,0,0,2.18-2.31c1.4-2.34,1.38-5.33,1.51-8A9.26,9.26,0,0,0,604.73,115.94Zm-4.6,8.58c0,1.55-1.2,2.23-2.6,2.13a3.41,3.41,0,0,0-.7-.18,3.65,3.65,0,0,1-.91-.66,2.34,2.34,0,0,1-.55-2.23,18.33,18.33,0,0,1,1.07-2.24,1.47,1.47,0,0,1,1.58-.83C599.56,120.85,600.15,123.09,600.13,124.52Zm-2.26-3.25c-1.12-.21-1.25,1.55-1.07,2.23.08.29.18.57.23.86s0,.6,0,.91a1,1,0,0,0,.65.75c1.05.29,1.41-1.45,1.51-2.23C599.32,122.82,598.91,121.45,597.87,121.27Z"/><path class="cls-11" d="M632.58,130.05c-.68,3-3.9,4.16-6.58,4.74a9.07,9.07,0,0,1-8.45-2.27,4.9,4.9,0,0,1-1.07-1.71c-.13-.37-.15-.37.16-.58a9.22,9.22,0,0,0,2.47-2.62,6.83,6.83,0,0,0,1.38.83,1.8,1.8,0,0,0,2.13-.67c.15-.89.1-1.72-.86-2.08a3.69,3.69,0,0,0-2.18.07,16.47,16.47,0,0,0,.41-1.82,9.1,9.1,0,0,1-.1-1.58c1.56-.18,4.89-.71,3.46-2.91l0,0,0,0h0c-1.2-1.43-3.1-.85-4.24.37-.13.15-1.17,1.48-1.33,1.27a5.9,5.9,0,0,1-1-1.64c-.6-1.25-1.2-2.52-1.69-3.82-.13-.52.31-.93.65-1.33a8.7,8.7,0,0,1,2-1.84,9.52,9.52,0,0,1,4.68-1.59,13.74,13.74,0,0,1,6.24.47,7,7,0,0,1,4,8.69,7.06,7.06,0,0,1-3.17,3.64A5.94,5.94,0,0,1,632.58,130.05Zm-2.29-4.36c-.94-1.28-2.21-1.56-3.67-1.9,2.08-.73,4.14-1.54,5.23-3.62,1.27-2.49,0-5.17-2.21-6.5a11.72,11.72,0,0,0-2.94-1.11,12.47,12.47,0,0,0-4.52-.6,7.78,7.78,0,0,0-5.85,3.51c.26.73.47,1.43.67,2.18a10.75,10.75,0,0,0,.89,2.47,11.23,11.23,0,0,0,.88-1,4.74,4.74,0,0,1,1.56-1,3.12,3.12,0,0,1,3.51.89c1.72,2.31-.83,4-3,4.24,0,.39-.07.78-.07,1.17a3.17,3.17,0,0,1,2.86.73,3.48,3.48,0,0,1,.7,3.35c-.18.81-1.64,1.45-2.34,1.51a3.75,3.75,0,0,1-2.71-1.22,16.23,16.23,0,0,1-1.76,1.95c1.19,2.05,3.84,2.67,6.08,2.86s5.1.23,6.79-1.51S631.64,127.43,630.29,125.69Z"/><path class="cls-11" d="M31.93,121.68a3.55,3.55,0,0,0,4.06,3,14.76,14.76,0,0,0,2.57-.59c.24-.08.21-.08.34.15a9,9,0,0,0,.37.83c.41,1,.85,2,1.19,3,.13.39.29.78.39,1.17.16.57-1,1.32-1.33,1.51a11.64,11.64,0,0,1-5.66,1.32,7.76,7.76,0,0,1-5.23-1.43,8.86,8.86,0,0,1-2.73-5.07,36,36,0,0,1-.34-4.39c0-3.33.29-7.47,2.81-9.83a8.14,8.14,0,0,1,10.5-.42A10.89,10.89,0,0,1,41.42,114c.24.39-.31,1.07-.47,1.4l-1.68,2.84-.16.21-.24-.19a6.52,6.52,0,0,0-5.48-.78C31.78,118.07,31.67,120.17,31.93,121.68Zm-1.45-.81c.26-1.89,1-3.53,2.57-4.36s4.45-.16,5.93,1.06c.39-.57.75-1.17,1.12-1.76a7,7,0,0,0,.8-1.57,7.89,7.89,0,0,0-2.62-2.36c-1.64-.94-3.62-1.85-5.46-1.54a6.08,6.08,0,0,0-4,3,14.41,14.41,0,0,0-2.34,5.31,18.4,18.4,0,0,0,.08,6.45A7.48,7.48,0,0,0,29.77,130a8.11,8.11,0,0,0,4.81,1.36,7.76,7.76,0,0,0,4.89-2.19c-.41-1.35-.78-2.65-1.22-3.92a12.82,12.82,0,0,1-5.33.18C31,124.9,30.24,122.88,30.48,120.87Z"/><path class="cls-11" d="M63.08,130.86c0,.44,0,.91-.1,1.32s0,.37-.34.37c-3.23.1-4,.13-4.71.1a4.52,4.52,0,0,1-1,0c-.08-.07,0-.47,0-.57a15.39,15.39,0,0,1-.05-1.92,26.61,26.61,0,0,0,.26-4.27c-.18-1.48-1.61-1.82-2.84-1.22s-1.53,2.44-1.63,3.69a35.43,35.43,0,0,0-.06,3.72,22,22,0,0,0-2.93.18,28.36,28.36,0,0,1-3.62.5c-.1,0-.7.08-.73,0a7.12,7.12,0,0,0-.13-.91,22.85,22.85,0,0,1,0-3.51c.08-1.36.21-2.73.16-4.08s-.23-2.71-.26-4.09l0-7c0-.88,0-1.76-.11-2.62,0-.52-.28-1,.29-1.28,1.64-.88,4-.41,5.77-.28l1.35.08c.24,0,.18.72.18.93a34.8,34.8,0,0,1-.2,4.45c-.06.93-.19,1.9-.24,2.86a9.15,9.15,0,0,1,5.25-1,6.12,6.12,0,0,1,5.2,3.07,6.55,6.55,0,0,1,.42,3c0,1.77.08,3.54.1,5.31C63.08,128.75,63.11,129.82,63.08,130.86Zm-1,.73a17.72,17.72,0,0,0,.21-2.81c.05-1.25.1-2.5.1-3.75a22.36,22.36,0,0,0-.23-3.48,3,3,0,0,0-.68-1.64,6.35,6.35,0,0,0-2.94-1.58,11.06,11.06,0,0,0-3.69-.6,4.25,4.25,0,0,0-3,1.12c-.32.31-.63.62-.94,1-.05-3.23.16-6.45.34-9.65-.89-.15-1.77-.39-2.65-.52a10.71,10.71,0,0,0-1.23-.1c-.44,0-1.69,0-2,.36.2,1.87.23,3.8.26,5.7.07,2.42.52,4.94.36,7.35-.16,2.71.73,5.34.86,8,1.58.06,3.14.39,4.76.34-.16-1.92-.55-3.92.1-5.8a3.27,3.27,0,0,1,4.73-1.79c1.56.81,1.41,3,1.46,4.5,0,1.06,0,2.13.1,3.22Z"/><path class="cls-11" d="M84.74,131.67a12.39,12.39,0,0,1-4,.8,22.87,22.87,0,0,1-2.75.05c-.5,0-.68-.7-.81-1.35a8,8,0,0,1-5.85.78,5.87,5.87,0,0,1-3.95-5.07c-.21-2.16.34-4.91,2.26-6.16s4.5-1.07,6.71-.86c-.42-1.38-3.12-1.17-4.21-1-1.33.21-2.65.47-4,.6l-.75.08c-.26,0-.21,0-.24-.24a13.53,13.53,0,0,1-.13-2.46c0-1,.08-2,.18-3,.06-.41.13-.83.19-1.22,0-.23.8-.28,1-.34,1-.18,2.11-.31,3.18-.49a19.1,19.1,0,0,1,3.64-.49,9.5,9.5,0,0,1,4.11.93,9.39,9.39,0,0,1,4,3.12,10.69,10.69,0,0,1,1.17,5c0,.24,0,.5,0,.76.11,1.84.13,3.69.24,5.54.07,1.19.23,2.34.2,3.51C85,130.5,85.05,131.54,84.74,131.67Zm-.86-10.51c-.36-2.94-1-6.79-4.37-7.59a26.68,26.68,0,0,0-4.39-.47c-2.21-.16-4.73-.7-6.89.1a26.83,26.83,0,0,0,.21,4.82c.93-.06,1.87-.08,2.8-.06a19.53,19.53,0,0,1,4.19.18,2.87,2.87,0,0,1,2,1.59c0,.18.33,1.35,0,1.35-1.92.11-3.92-.31-5.82,0-2.24.37-3.25,2.16-3.56,4.27-.29,2,.15,4.18,2.13,5.07,1.74.78,3.92,0,5.64-.47l2.34-.62c.08.39.18.77.23,1.17s0,.62,0,.91a14.1,14.1,0,0,0,5.25-.65c.08-1.3.24-2.58.31-3.85A34.52,34.52,0,0,0,83.88,121.16Zm-6.34,2.52a2,2,0,0,1,.07,1.75c-.13.28.06.65-.18.83-.31.36-.57,1-1,1.22s-1.32-.13-1.79-.47a1.72,1.72,0,0,1-1-1.45,2.31,2.31,0,0,1,.62-2C75.09,122.93,76.81,122.67,77.54,123.68Zm-.63,2.13c.24-2-.93-2-1.09-2a1.07,1.07,0,0,0-1.22.45c-.18.36-.47,2.36.42,2.08.31-.11.54-.55.85-.53A2.8,2.8,0,0,0,76.91,125.81Z"/><path class="cls-11" d="M104.29,127a6.05,6.05,0,0,1-2.34,2.86,8.33,8.33,0,0,1-7.18.7c.08,1.28.08,3.41.06,4.71,0,.62,0,1-.63,1.25a6.61,6.61,0,0,1-2.73.13c-.7,0-1.4-.06-2.13,0a.51.51,0,0,1-.52-.31,6.92,6.92,0,0,1-.36-2.24c.05-1.79.05-2.73.13-3.66.13-1.82.33-3.67.31-5.49,0-.88-.16-1.74-.24-2.65a12.85,12.85,0,0,1,.06-2.84c.13-1.09.33-2.16.36-3.22,0-.29,0-.39.15-.57a2.42,2.42,0,0,1,1.15-.29,8.63,8.63,0,0,1,2.91.1c.16,0,1.17.06,1.22.21a5.76,5.76,0,0,1,.08,1.38c1.93-.91,4.5-1.51,6.45-.49,2.34,1.25,3.09,4.21,3.41,6.58A7.79,7.79,0,0,1,104.29,127Zm-3.8-9.54c-2-1.43-4.36-.68-6.34.41-.1-.52-.13-1.06-.23-1.58-.63,0-1.28-.08-1.9-.13s-1.64-.34-2.16-.06a26.33,26.33,0,0,1,.34,4.68c0,1.64-.55,3.18-.57,4.82a45.82,45.82,0,0,0,.13,4.83,26.12,26.12,0,0,1-.06,3.43l-.07,1.3a2.27,2.27,0,0,0-.08.71,14.71,14.71,0,0,0,1.48.1c.52,0,1-.05,1.51-.1a6,6,0,0,0,.88-.21.64.64,0,0,0,.26-.13c0-1.8.24-4.45.29-6.22,1.71,1,4,1.77,5.93,1,2.39-1,3.27-4.09,3.51-6.4A7.4,7.4,0,0,0,100.49,117.42Zm-3.64,7.9c-.49.91-1.76,2-2.78,1.25a1.4,1.4,0,0,1-.47-1.51c.13-.67,0-1.4.13-2.11.08-.49.29-1.32.91-1.43a3.09,3.09,0,0,1,1.8.58C97.66,123,97.37,124.13,96.85,125.32Zm-.91-2.55a1.29,1.29,0,0,0-1.09-.65c-.31,0-.39.7-.44,1a3.38,3.38,0,0,0,.08,2.26c.1.15.18-.08.26-.11.26-.07.54.08.8.08a1.21,1.21,0,0,0,.81-.31C96.85,124.46,96.26,123.27,95.94,122.77Z"/><path class="cls-11" d="M124,118.25c0,.41,0,.83-.07,1.25a11,11,0,0,1-.34,1.51c0,.18-.11.72-.24.83a4.19,4.19,0,0,1-2.26.41,9.84,9.84,0,0,1-2.16-.13,57.87,57.87,0,0,1,.16,6.71c0,.52,0,1,0,1.56s0,.83-.57,1.07a10.08,10.08,0,0,1-2.63.18c-.68,0-1.38.05-2.08.05-.34,0-.65,0-1-.05s-.26,0-.29-.29c0-.88,0-1.76,0-2.65l.13-2.23c.11-1.33.32-2.66.37-4a14.63,14.63,0,0,1-2.55.7,9.2,9.2,0,0,1-2.5-.13c-.78-.11,0-4.29,0-4.92a10.07,10.07,0,0,0,.08-1.45,3.05,3.05,0,0,1,0-1c.31-.65,1.33-.47,1.87-.45l1.9.08c.34,0,.7,0,1.07.11,0-1.28.07-2.55.1-3.83a3.62,3.62,0,0,1,0-1.09c.07-.13.85-.13,1-.15.6-.11,1.15-.26,1.75-.37a5.79,5.79,0,0,1,2.65.08c.08,0,.39.08.39.18,0,.39,0,.81,0,1.2-.05,1.27-.13,2.55-.13,3.82a24.63,24.63,0,0,1,4.53-.29c.13,0,.41,0,.46.13a6.12,6.12,0,0,1,.24.76A6.34,6.34,0,0,1,124,118.25Zm-.93,1.48c0-.31-.11-.62-.16-.91-.13-.65-.15-1.4-.31-2-.62-.06-1.25-.16-1.9-.21a19,19,0,0,0-2.26-.13,3.63,3.63,0,0,0-.57,0c-.21,0-.11-.18-.11-.39,0-1.58.06-3.17,0-4.76a11,11,0,0,0-1.27,0c-1,0-1.88-.13-2.81-.08,0,1.07-.11,2.14-.13,3.2V116s-.21,0-.31,0a10.59,10.59,0,0,1-1.62.13c-.91.06-1.84,0-2.73.11a8.44,8.44,0,0,0,0,3.09c.08.65.13,1.35.24,2a19,19,0,0,0,4.7,0c0,1-.08,2.08-.08,3.1,0,2,.21,4,.06,5.92,1.43.34,3.12.81,4.44.19a37.19,37.19,0,0,1-.21-5.28c0-1.46.11-2.92.08-4.37a9.23,9.23,0,0,0,2.08.54c.68.08,2.08.42,2.76,0A7.85,7.85,0,0,0,123.09,119.73Z"/><path class="cls-11" d="M138.17,124.1c-1.28.18-2.91.7-3.62.83,0,1.22,1.2,1.79,2.19,1.9a6.29,6.29,0,0,0,2.39-.29,14.14,14.14,0,0,0,3.8-1.4c.2,1.07.54,2.11.72,3.2a10.51,10.51,0,0,1,.24,2.36c0,.47-1.8.94-2.19,1.1a11.88,11.88,0,0,1-11.36-1.75c-3.09-2.52-3.61-7.23-2.5-10.92a9.43,9.43,0,0,1,3.36-4.89,8,8,0,0,1,5.87-1.48,7.34,7.34,0,0,1,6.82,10c-.11.39-1.49.45-1.95.52s-1.15.24-1.77.34S138.84,124,138.17,124.1Zm-4.22.31a14.19,14.19,0,0,1,4.5-1.3,11.37,11.37,0,0,0,4.14-1.33c0-.93.1-1.87.13-2.8a5.73,5.73,0,0,0-.45-2.76c-.93-1.74-3-2.21-4.75-2.26a21,21,0,0,0-3.2.26,9.49,9.49,0,0,0-2.73.67c-1.77,1-2.26,3.2-2.73,5a14.41,14.41,0,0,0-.34,5.7,7.39,7.39,0,0,0,3.15,4.81c1.71,1.17,3.53,1,5.46.6,1-.16,2-.32,3-.39a7.85,7.85,0,0,0,2.78-.5,9.27,9.27,0,0,0-.67-3.22,9.78,9.78,0,0,1-4.73.65,4.64,4.64,0,0,1-2.76-.91,2.2,2.2,0,0,1-.94-1.33C133.72,125.06,133.59,124.46,134,124.41Zm2.45-3.22a15.82,15.82,0,0,0-2.81.7,5.19,5.19,0,0,1,.21-2.83c.44-1,1.77-1.17,2.68-1.38a2.34,2.34,0,0,1,2.44.7,4.64,4.64,0,0,1,.23,2.55A6.48,6.48,0,0,0,136.4,121.19Zm-.29-.71c.63-.1,1.36-.15,1.95-.31a4,4,0,0,1-.62-1c-.16-.49-.26-.91-.91-.91-1.17.06-2,1.54-2.26,2.68A18.35,18.35,0,0,0,136.11,120.48Z"/><path class="cls-11" d="M161.72,121.89c0,.26-.13,1.51-.52,1.48-.83-.05-1.64,0-2.47,0a9.85,9.85,0,0,0-2.6,0c-.88.23-1.09.73-1.14,1.61a17.45,17.45,0,0,1-.34,2.6,8.43,8.43,0,0,0-.34,3.12c.05.31.13.94.16,1.07-.52,0-1.51.05-1.64.05-.6,0-1.14,0-1.72,0-1,0-2,0-3.06,0a1.29,1.29,0,0,1,0-.34c0-1.56,0-3.15-.08-4.73s-.34-3.15-.34-4.73c0-1.85.08-3.7,0-5.54,0-.63-.13-1.28-.23-1.9,0-.39,0-.39.39-.6a4.47,4.47,0,0,1,3.28-.78c1,.16,1.92.47,2.8.7.21,0,.19,1.38.19,1.59.05.54.13,1.09.18,1.66a7.91,7.91,0,0,1,3.72-2,6.15,6.15,0,0,1,2.08-.21c.41.05,1.66.16,1.66.68,0,1-.08,2,0,2.91A21.39,21.39,0,0,1,161.72,121.89Zm-1.45,0a11.8,11.8,0,0,1,.39-1.57,15.46,15.46,0,0,0,.15-4.08c-.57,0-1.17.11-1.77.13a13.12,13.12,0,0,0-1.56.18,6.45,6.45,0,0,0-3.79,2.4c-.11-1.46-.16-2.94-.29-4.42a8.69,8.69,0,0,0-3.17.44c-.31.1-.62.18-.94.26-.13,0-.31.1-.49.15a51.65,51.65,0,0,0,0,5.7,48.91,48.91,0,0,1-.13,5,45,45,0,0,0,.1,5.07,24,24,0,0,0,2.6-.18,17.33,17.33,0,0,1,2.08-.13,8,8,0,0,0,0-1.46c-.1-.83-.26-1.66-.31-2.49,0-1.3,0-2.94,1.22-3.69a8.8,8.8,0,0,1,3.85-.89C158.89,122.25,159.56,122,160.27,121.92Z"/></g></g></g></svg>