<svg xmlns="http://www.w3.org/2000/svg" xmlns:xlink="http://www.w3.org/1999/xlink" viewBox="0 0 654.95 267.32"><defs><style>.cls-1,.cls-2,.cls-4,.cls-7{fill:none;}.cls-2,.cls-7{stroke:#faf6d9;}.cls-2,.cls-4,.cls-7{stroke-linecap:round;stroke-linejoin:round;}.cls-2{stroke-width:7px;}.cls-3{fill:#faf6d9;}.cls-4{stroke:#c45c66;}.cls-4,.cls-7{stroke-dasharray:8.03 8.03;}.cls-5{fill:#283b5f;}.cls-6{clip-path:url(#clip-path);}.cls-8{fill:#583726;}.cls-9{fill:#3c2213;}.cls-10{fill:#49a9a4;}.cls-11{fill:#fff;}</style><clipPath id="clip-path"><path class="cls-1" d="M25,82.68H628.23a26.83,26.83,0,0,1,26.83,26.83v40.1a0,0,0,0,1,0,0H.1a0,0,0,0,1,0,0v-42A24.88,24.88,0,0,1,25,82.68Z"/></clipPath></defs><title>4</title><g id="レイヤー_2" data-name="レイヤー 2"><g id="chapter"><g id="label"><line class="cls-2" x1="329.88" y1="109.32" x2="373.27" y2="4.14"/><rect class="cls-3" x="0.05" y="82.71" width="654.69" height="184.61" rx="27.68" ry="27.68"/><rect class="cls-4" x="12.09" y="95.1" width="629.56" height="158.61" rx="20.59" ry="20.59"/><path class="cls-5" d="M24.88,82.73H628.13A26.83,26.83,0,0,1,655,109.56v40.1a0,0,0,0,1,0,0H0a0,0,0,0,1,0,0v-42A24.88,24.88,0,0,1,24.88,82.73Z"/><g class="cls-6"><rect class="cls-7" x="12.25" y="94.98" width="629.56" height="158.61" rx="20.59" ry="20.59"/></g><circle class="cls-8" cx="327.57" cy="123.11" r="14.58"/><line class="cls-2" x1="324.92" y1="108.67" x2="274.95" y2="3.5"/><path class="cls-9" d="M59.8,190.46c.29-1.28,1.73-1.28,2.75-1.28s2.82-.25,2.82,1.28c0,.8-.29,1.57-.29,2.37,0,.45.64.57,1,.57a.77.77,0,0,0,.77-.54,13.46,13.46,0,0,0,.48-2.53c.25-1.31,1.73-1,2.72-1,1.31,0,2.72,0,2.72,1.66,0,.61-.07,1.22-.07,1.83,0,1.15,1.25.54,1.76,1.09a3.41,3.41,0,0,1,.48,2.17c0,.45.07,1.31-.25,1.66s-1.16.32-1.6.32c-1.51,0-1.73,2.34-1.73,3.43,0,1.44,1.47.06,1.82,1.41a4.83,4.83,0,0,1,.1,1.21c0,4.42-2.14,1.63-3.17,3.33-1.73,2.88.9,4.38-4.29,4.38-1,0-2-.19-2-1.44,0-.92.35-1.79.35-2.72a.61.61,0,0,0-.7-.7c-2.56,0,0,4.67-3.84,4.67-1.47,0-3.27.1-3.27-1.85,0-.74.07-1.48.07-2.21,0-1.35-1.25-.48-1.76-1.25a3.59,3.59,0,0,1-.39-1.92c0-.48-.06-1.41.26-1.79s1.22-.32,1.63-.32c1.54,0,1.76-2.56,1.76-3.68l0-.32c-.77-.77-1.92.61-1.92-1.66,0-1.67-.16-3.11,1.92-3.11a1.24,1.24,0,0,0,1.15-.51,3.75,3.75,0,0,0,.45-1.18Zm4.67,11.84c1.09,0,1.34-2.69,1.34-3.46s-.35-.86-1-.86c-1.18,0-1.31,2.82-1.31,3.65C63.51,202.2,64,202.3,64.47,202.3Z"/><path class="cls-9" d="M79.86,200.44c0-6.27,3-11.58,9.83-11.58,6.71,0,9.88,5.18,9.88,11.39s-2.88,11.81-9.88,11.81C82.84,212.06,79.86,206.65,79.86,200.44Zm13-.48c0-2.3,0-6.43-3.26-6.43-3,0-3,4.87-3,6.95s.13,6.91,3.14,6.91C93,207.39,92.85,202.2,92.85,200Z"/><path class="cls-9" d="M113.72,208.22a1.61,1.61,0,0,0-.77-.29,11.75,11.75,0,0,0-1.44-.16c-1.25-.06-2.53-.16-3.78-.22a12.31,12.31,0,0,1-2.84-.32,1.44,1.44,0,0,1-1-.93,5.1,5.1,0,0,1-.19-1.41,7.77,7.77,0,0,1,1.54-4.22c.86-1.28,1.92-2.4,2.88-3.59.76-1,1.5-1.92,2.24-2.88a21,21,0,0,1,3.87-4.38,3.38,3.38,0,0,1,2.08-.64,6.8,6.8,0,0,1,2.11.22,2.1,2.1,0,0,1,1.28,1.45c.7,2.08.54,4.35.54,6.49a15.45,15.45,0,0,0,.45,4.58c.83,2.14,2.82-.58,2.82,2.72,0,.8,0,2.27-.9,2.68a2.06,2.06,0,0,1-1.09.13c-2.27,0-1,2-1.76,3.3s-2.53,1-3.71,1C112.76,211.71,114.87,209.53,113.72,208.22Zm.32-9.5c0-.48,0-1.22-.45-1.51-.77.77-3.78,4.23-3.78,5.19,0,.48,1.28.54,1.63.54h.45c1.92,0,2.15-.83,2.15-2.53Z"/><path class="cls-9" d="M143.09,203.68c.58,0,1.15,0,1.73,0,1.47,0,2.46.52,2.46,2.12,0,2.81-.19,4.48-3.52,4.48s-3.52-1.8-3.52-4.58C140.24,203.84,141.62,203.68,143.09,203.68Zm4.22-8c0,1.53-1.4,1.89-2.68,1.89l-1.57,0c-1.6,0-2.79-.33-2.79-2.18,0-3.55.23-4.38,4-4.38C147.19,191,147.31,193.44,147.31,195.71Z"/><path class="cls-10" d="M190.19,195.68a26.09,26.09,0,0,0-1.56,2.72c-.84,1.47-1.64,3-2.44,4.48-.44.83-.86,1.63-1.24,2.49,0,2.72,8,2.53,8,4.35,0,1.54-1.44,3.56-3.08,3.56-3.74,0-6.81-2.88-10.56-2.88-4,0-7.39,2.84-11.39,2.84-1.28,0-2.91-2.11-2.91-3.32,0-2,8.1-2.15,8.1-4,0-2.18-3.87-5.76-3.87-7.84,0-1.54,2.52-2,3.71-2,2.17,0,3.61,6,5.73,6,1.59,0,3.9-4,3.9-5.44a1.37,1.37,0,0,0-.42-1c-.7-.83-5.63-.89-6.84-.89-2.6,0-5.16.12-7.75.12-1.12,0-3-.12-3-1.66a5.22,5.22,0,0,1,.26-1.57,1.69,1.69,0,0,1,1.18-1,13.87,13.87,0,0,1,3.23-.26c1.89-.09,4.13,0,5.92-.64a1.18,1.18,0,0,0,.8-.64A3.75,3.75,0,0,0,176,188c0-1.44,1.5-1.57,2.59-1.57s3.39,0,3.36,1.41c0,.13,0,.29,0,.41a2,2,0,0,0,.32,1.22,1.8,1.8,0,0,0,1,.67c1.86.67,8.86-.35,9.76,1.09a5,5,0,0,1,.51,2.72c0,1.25-1.18,1.05-2.08,1.05A1.73,1.73,0,0,0,190.19,195.68Z"/><path class="cls-10" d="M227.22,202.27c1.95,0,2,.86,2,2.56a1.75,1.75,0,0,1-1.21,1.69A15.63,15.63,0,0,1,223,207c-1,0-4.28-.06-4.77,1a3.13,3.13,0,0,0-.12,1.32,13.21,13.21,0,0,1-.23,3.2c-.57,2.36-2.91,2.4-5,2.4-.92,0-1.85.06-2.78.06-2.66,0-3.71-1.22-3.71-3.84,0-1,1.31-1.06,2.05-1.06s1.5.16,2.27.16c.38,0,.76-.09,1.15-.09a3.52,3.52,0,0,0,.16-1.31,5.2,5.2,0,0,0-.06-.68c-.07-.44-.45-.64-.84-.76-1.76-.55-4.28-.39-6.14-.39a25.69,25.69,0,0,1-3.52-.22c-.9-.13-2-.42-2.18-1.41a5.84,5.84,0,0,1-.12-1.44c0-1.79,3.93-1.79,5.15-1.79,1.76,0,3.49.22,5.25.22a3.33,3.33,0,0,0,2.08-.45c.28-.25.19-.51.41-.8.42-.48,1.7-.41,2.3-.48s1.89-.48,1.89-1l-.12-.13c-1-.06-2.08-.09-3.11-.09-2.14,0-4.29.06-6.43.06-4.1,0-1.38-1.85-3.71-1.85-.32,0-.64.06-1,.06-2.34,0-2-.8-2-3a13,13,0,0,1,.52-3.9c.8-1.95,4.89-1.73,6.62-1.73.86,0,4.19.13,4.19-1.15,0-.22,0-.48,0-.74,0-1,1.47-1.15,2.24-1.15s3-.09,3.46.71a1.46,1.46,0,0,1,.15.8,1.2,1.2,0,0,0,.45,1c.58.42,2.53.48,3.3.48s1.5,0,2.24,0c2.4,0,4.29.13,5.09,2.72a10.92,10.92,0,0,1,.35,3,15.39,15.39,0,0,1-.07,1.79c-.19,2-2.94.54-3.77,1.28-.64.57.09,1.25-1.28,2.3a20.23,20.23,0,0,0-2.27,1.83c0,.44,1.82.35,2.11.35Zm-17-7.33c3.19,0,6.39,0,9.63,0,.44,0,2.75,0,2.75-.7,0-.87-2.94-.93-3.55-.93l-1.44,0c-1.83,0-3.62-.09-5.44-.09-1.47,0-4.83-.07-6.08.51a.54.54,0,0,0-.35.51C205.72,195.07,209.62,194.94,210.2,194.94Z"/><path class="cls-9" d="M237.27,211.93c-1.51-2.33-2.21-8.86-2.21-11.68A31.78,31.78,0,0,1,236.85,190a3.23,3.23,0,0,1,1.19-1.5,3.67,3.67,0,0,1,1.85-.45c1.06,0,2.72,0,2.72,1.47a34.34,34.34,0,0,1-.61,5.41,38.77,38.77,0,0,0-.6,6.08c0,3.71,2.27,8.8.76,11.1a2.36,2.36,0,0,1-2.36,1.06A2.88,2.88,0,0,1,237.27,211.93ZM251,213.66c-4.26,0-8-2.43-8-7,0-5.34,5.31-6,9.47-6,.29,0,.32-1.25.32-1.48,0-2-.55-2.62-2.59-2.62-1,0-1.89.16-2.85.16-2.27,0-3.07-.26-3.07-2.72,0-2.14,2.05-2.46,3.77-2.46.87,0,1.76.13,2.66.13,1.31,0,1.73-.55,1.73-1.83,0-.25,0-.48,0-.7,0-1.41,1-1.76,2.18-1.76.42,0,.83,0,1.25,0,3.71,0,2.3,2.68,3.23,4a1.3,1.3,0,0,0,.86.48c2.69.67,4-.41,4,3.49,0,1.15-.86,1.5-1.89,1.5l-1.28,0c-1.15,0-1.66.61-1.66,1.76v2.91a7.39,7.39,0,0,0,.22,1.86c.45,1.7,3.94,3.9,3.94,5.15,0,.87-2.14,3.65-3,3.65a3.58,3.58,0,0,1-1.53-.77h0a2.15,2.15,0,0,0-1.6.35C255.28,213.5,254.13,213.66,251,213.66Zm1.72-7.46c0-.41-1.08-.6-1.4-.6h-.45c-1,0-1.89.44-1.89,1.53s.9,1.44,1.82,1.44c1.25,0,1.92-.48,1.92-1.79Z"/><path class="cls-9" d="M291.57,187.84c-.1-.51-.45-.42-.45-1.09a9.32,9.32,0,0,1,3.62-.8c1,0,1.57,1.12,2.11,1.79a3.33,3.33,0,0,0,1.47.87c.48.6.48,2.36.48,3.1s-1.85.64-2.3.64a3.47,3.47,0,0,0-.77.19c0,.54,2.37,1.28,2.37,2.4,0,1.47-4.19,4.48-4.19,5.63,0,.39.6.74,1,.74,1,0,.89-2.43,1.79-2.43s3.65.83,3.65,1.82c0,2.18-2.44,3.87-2.44,5.5s1.83,3.11,1.83,4.55c0,1-2.82,2.85-3.75,2.85-1.31,0-1.47-1.83-2-1.83-.77.55-1,1.51-1.7,2.15a3.16,3.16,0,0,1-1.18.57,19.75,19.75,0,0,1-6,.58c-1.73,0-5.63-.07-7.11-.71a1.78,1.78,0,0,1-.83-.7,10.43,10.43,0,0,1-1.05-3.33c-.84,1.09-1.38,2.63-2.37,3.52h-.16c-1.28,0-3.81-1.73-3.81-3.1s1.6-2.63,1.6-3.87c0-1.67-2.18-2.69-2.18-3.72A13.4,13.4,0,0,1,270,200a20.3,20.3,0,0,0,.48-2.91c.13-1.38.26-2.79.29-4.19a17.64,17.64,0,0,1,.32-3.49,1.23,1.23,0,0,1,.51-.9c.77-.38,5.35-.51,6.47-.51l3.93,0a8.74,8.74,0,0,0,2.88-.32c.32-.13.67-.32.67-.7,0-.83.84-1,1.51-1,.44,0,.86.07,1.31.07,1.15,0,2.17.06,2.17,1.5a.73.73,0,0,0,.74.45h.13Zm-11.07,17,0,.19a7,7,0,0,1-2.24.23c-2.18,0-2.85,0-2.85-2.44a13.11,13.11,0,0,0-1.34,3.27c0,.54,1.08,1.18,1.56,1.18.93,0,.2-.57.84-1a3.29,3.29,0,0,1,1.56-.25l.71,0c.73,0,2.49-.13,3,.38.8.77.13,3.49.7,4.07a2,2,0,0,0,1.15.25h2.24c1.06,0,2.69-.13,2.69-1.57l0-.12a5.18,5.18,0,0,1-1.57.86c-.51,0-4-2.78-4-3.3,0-.73,1.41-1.34,1.41-1.76s-1.22-.48-1.54-.48a6.89,6.89,0,0,0-2.17.23Zm4.51-7.65c.77,0,1.47.29,1.38,1.19l.19.32c.22-.07.42-.19.42-.45,0-1.86-2.05-2.05-3.49-2.05-.71,0-1.41.06-2.11.06h-2.31a12.34,12.34,0,0,0-2.65.26c-.13,0-.42.13-.42.32a9.81,9.81,0,0,0,3.2.35Zm-4.51-5.09c-.54,0-4.19.07-4.32.61a.93.93,0,0,0,.83.42,3.79,3.79,0,0,0,.64-.07h7.17c.32,0,1,.07,1-.41s-.93-.51-1.28-.51-.93,0-1.38,0Zm.51,7.75c-.51,0-.51.57-.51,1,0,.73.06,1,.9,1,.6,0,.6-.54.6-1s0-1-.67-1Zm8.93,7.2c0,.32-.26.51-.26.83s1.76.48,2,.48a1,1,0,0,0,.45-.1c-.07-.38-.35-.51-.42-.8s.77-.7,1.12-.83a3.22,3.22,0,0,0-.61-.54c-.44-.35-.89-.71-1.34-1.09-.7-.61-1.57-1.12-2.24-1.76a.71.71,0,0,1-.35.1c-.58,0-1.28-1.48-1.67-1.86a5.56,5.56,0,0,0-.25,1.41c0,1.6,2.75,2.72,3.55,4Zm2.46-14.85c-.67,0-1.12.06-1.12.86,0,.45.1,1.28.68,1.28a2.47,2.47,0,0,0,1.66-1.66c0-.35-.48-.48-.77-.48Z"/><path class="cls-9" d="M321.3,191.61a5.31,5.31,0,0,0-2.27-.25c-.87,0-1.7.06-2.56.06-1.7,0-2.05-.35-2.05-2,0-1.44,1.57-1.63,2.69-1.63.77,0,1.57.1,2.33.1.45,0,1.51,0,1.76-.45a1.17,1.17,0,0,0,.1-.58c0-.76,1.05-.73,1.57-.73s.86,0,1.31,0c.7,0,3,0,3,1s2.5,1,3.2,1c2.12,0,3.65,0,3.65,2.63,0,1-1.53,1-2.24,1-1.05,0-2.08-.19-3.13-.19-.39,0-1.06,0-1.06.51s.54.38.86.38c.68,0,1.38-.06,2.05-.06,1.38,0,3.27.23,3.27,2,0,1.06-1.54,1.09-2.28,1.09s-1.63-.13-2.46-.13c-.42,0-1.18,0-1.38.45.32.51,1.28.51,1.83.51.89,0,1.82-.12,2.75-.12,1.44,0,3,.22,3,2,0,1.41-3.3,1.47-4.26,1.47-.57,0-1.15,0-1.73,0-3.26,0-6.52.1-9.79.1-.83,0-5.24-.07-5.56-.87-.13-.35-.16-1.95-.49-2.08A13.09,13.09,0,0,0,313,200c0,4,.16,8,.16,11.93,0,1.38-.09,2.72-1.82,2.72a2.81,2.81,0,0,1-2.62-1.08c-1.16-2-1.12-9.86-1.12-12.36l-.07-.06-.19.32c-.13.74-.16,2.88-1.25,2.88a2,2,0,0,1-2.17-2.21c0-1.31,1-9.34,2.46-9.34.29,0,.54.06.83.06.67,0,.8-2.62.87-3.13.32-2.91.76-3.2,3.68-3.2,1.37,0,1.59,1,1.59,2.17,0,.8-.15,1.63-.15,2.47,0,.29.12.92.51.92s.8-.28,1.28-.28.61.54,1.66.54c.48,0,1-.06,1.44-.06s.8.06,1.22.06,2.08,0,2.08-.51Zm2.49,18.47c-.57,0-1.12,0-1.69.06-3,.26-1,3.84-2.63,4.51a5,5,0,0,1-2,.23,3.46,3.46,0,0,1-1.5-.16c-1.57-.68-1.57-5.41-1.57-6.88s0-2.69.09-4a3.85,3.85,0,0,1,.71-1.82c1.25-1.66,7.13-1.6,9.12-1.6l2.72,0c2.62,0,6.78-.51,6.78,3.3v2.69a14.67,14.67,0,0,1-1.15,6.2,3,3,0,0,1-1.89,1.67,11.76,11.76,0,0,1-3.65.45,16.22,16.22,0,0,1-3-.1.86.86,0,0,1-.6-.38,4.67,4.67,0,0,1-.23-2c0-1.09.93-1.22,1.83-1.22.38,0,.76,0,1.18,0s1.09,0,1.09-.52-.77-.44-1-.44Zm-4.32-13.89c.26,0,1.86-.1,1.86-.45,0-.58-1.5-.54-1.92-.54s-2.53,0-2.53.41.71.58,1.06.58Zm2.28,7.2c-.29,0-1.44.06-1.44.48,0,.64,3,.51,3.52.51s3.84,0,3.84-.54l-.13-.29a5.41,5.41,0,0,0-1.28-.16Zm.19,3.36c-.29,0-1.63.09-1.63.51s1.56.51,1.92.51c.57,0,4.67.07,5.24-.51l0-.13c0-.35-.39-.38-.68-.38Z"/><path class="cls-9" d="M355.31,205.15c-.63,0-2.72,1.21-2.72,1.92,0,1.41,2.82,1.5,3.78,1.5,2.85,0,5.47-1.25,8.32-1.25,1.66,0,1.54,1.38,1.54,2.76a8.5,8.5,0,0,1-.2,2.24c-.76,2-6.62,1.37-8.48,1.37-4.35,0-11.39-.51-11.39-6.37,0-3.2,2.85-4.73,5.25-6.14h0l2.27-1.34c-.1-.26-.73-.32-1-.32a5.33,5.33,0,0,0-2.24.35,7.79,7.79,0,0,0-2.59,2.08c-.77.89-1.92,2.46-3.2,2.46-.93,0-3.43-1.95-3.71-3.2-.52-2.27,4-5.09,4-6.36,0-.55-2.08-.36-2.31-.36-1.15,0-1.6-.51-1.6-1.66,0-1.76.52-3.33,2.6-3.33.76,0,1.5.1,2.27.1a5.24,5.24,0,0,0,.7,0c2.27-.2,1.22-3.11,3.49-3.11.9,0,4.77.07,4.77,1.38a4.17,4.17,0,0,1-.23.89c.9,1.22,9.6.16,11.46,1.48.93.67,1,1.56,1,2.62,0,1.47-1.7,1.53-2.79,1.53-9.69-.09-11.93-.09-12.38.61.61,0,1.25-.09,1.86-.09a8.17,8.17,0,0,1,2.94.48,15.58,15.58,0,0,1,2.3,1.08c1,.58,2.31,1.6,3.46,1.6s2.18-.32,3.3-.32c1.47,0,1.63,1.86,1.6,2.95V202c0,1-1.06,1-2.5,1-.58.09-1.66-.16-2.14.19-1.54,1.09.44,3.68-2.85,3.68h-1.47C357.11,206.94,355.09,207.1,355.31,205.15Z"/><path class="cls-10" d="M384.88,188a27.47,27.47,0,0,1-1.34,6.3,29.78,29.78,0,0,0-.77,7.9c0,3.24.23,6.47.23,9.7,0,1.38-.23,2.75-1.92,2.75a3.43,3.43,0,0,1-2.37-.67,5.56,5.56,0,0,1-1.38-4.1c0-1,0-2,0-3,0-.54-.06-3.13-.74-3.13-.32,0-.38.64-.89.64-.71,0-1.22-3.49-1.22-4.07a6,6,0,0,1,.35-1.82c.26-.86,5.6-11.17,5.86-11.33a2.48,2.48,0,0,1,1.25-.35C382.68,186.78,384.88,186.88,384.88,188Zm13.22,6.75c1.37,0,6.14.1,6.88,1.31a2.88,2.88,0,0,1,.32,1.7c0,1.66-1.7,1.88-3,1.88-1,0-2.08-.09-3.1-.09a5.24,5.24,0,0,0-2.56.48c-1.06.7-3.14,6.08-3.14,7.36,0,.83.7.83,1.35.83.83,0,2.36-.1,2.36-1.22s-.93-2-.93-3.07c0-1.28,2.66-2.17,3.68-2.17,2.4,0,4.68,7.64,4.68,9.63,0,1.69-2.95,3.1-4.42,3.1-1.18,0-.35-1.89-2.08-1.89-3.78,0-7.49,1-11.26,1-2.59,0-2.95-1.25-2.95-3.59,0-1.47,1.35-.7,2.21-1.53s2.75-6.75,2.75-7.91c0-1-1.56-1.08-2.3-1.08-.32,0-.67,0-1,0-1.48,0-1.73-.8-1.73-2.11a2.58,2.58,0,0,1,.54-2c.71-.67,6.43-.7,7.65-.7Zm-4.16-7.26c1.79,0,6.62.09,8.09.83a2,2,0,0,1,1.09,1.15,5.36,5.36,0,0,1,.19,1.6c0,1.18-1.72,1.34-2.59,1.34h-4.35c-1.34,0-8.9-.09-9.6-.6a2,2,0,0,1-.73-1.7c0-2.5,1.76-2.62,3.74-2.62Z"/><path class="cls-9" d="M428.31,194.27c1.47,0,5.63.06,6.81.61a2.09,2.09,0,0,1,.83.61,4,4,0,0,1,.77,2.65,3.61,3.61,0,0,1-.41,1.7c-.42.8-5,2.65-5.38,4.06a1.1,1.1,0,0,0,.8.93c1.92.77-.06,3,2.91,3,.87,0,1.7-.29,2.56-.29,1.31,0,1.35,2,1.35,3,0,2.68-4.36,2.72-6.21,2.72-2.21,0-4.29-.42-5.54-2.4-.35-.55-.64-3.3-1.4-3.3-1.38,0-7.14,5-9.41,5-1.19,0-3.23-2-3.23-3.23,0-2.46,12.54-7.29,12.54-9.34,0-.42-1.28-.45-1.57-.45l-6.37,0c-1.66,0-3.42-.41-3.42-2.43A2.07,2.07,0,0,1,415,195c1.44-.7,6.3-.73,8.06-.73Zm4.19-5.86a3.41,3.41,0,0,1,1.12,3c0,1.51-1.51,1.73-2.69,1.73-2.81,0-11,0-13.18-1.41a1.4,1.4,0,0,1-.64-1.25c0-2.75,1.69-3.13,4-3.13C422.87,187.36,431.44,187.58,432.5,188.41Z"/><path class="cls-9" d="M467,196.32c0,.92.67,1.53.67,2.46s-3.75,1.63-4.51,1.63c-2.08,0-2-1.15-2.69-2.62a4.29,4.29,0,0,0-1.57.61l-.06.25a8.62,8.62,0,0,0,.51,2.72c1.09,3.36,2.65,7.14,2.65,10.66,0,1.31-2.72,2.08-3.74,2.08a3.69,3.69,0,0,1-2.78-.61c-3.08-2.85-2.34-12.48-4.13-12.48-.8,0-2.21,1-3.43,1-1.6,0-2.91-2.43-2.91-3.84,0-1.69,5.15-2.14,5.15-3.26a7.66,7.66,0,0,0-.48-2.14v0a9.16,9.16,0,0,1-.44-2.24c.67-1.22,3.68-2.3,5-2.3,2.24,0,1.73,4.64,3,4.64.51,0,1.5-.45,1.5-1.06,0-1.06-.86-1.89-.86-2.94s3.68-2,4.57-2c2.56,0,1.7,3.81,3.68,3.81.48,0,1-.07,1.47-.07a8.42,8.42,0,0,1,8.74,8.32,9.58,9.58,0,0,1-.9,3.71c-1.18,2.82-2.49,3.75-5.53,4.68a16,16,0,0,1-4.93.44,2.5,2.5,0,0,1-2.37-2.59c0-.86-.09-2.75.58-3.36a1.54,1.54,0,0,1,1.12-.35c.67,0,1.37,0,2,0a2.89,2.89,0,0,0,3.17-3,2.39,2.39,0,0,0-2.52-2.37Z"/><path class="cls-9" d="M495.38,194.2c-.26-.8-3.3-.22-4.19-.22-2.4,0-4.8.1-7.2.1-2,0-2.59-.39-2.59-2.47,0-2.52,2.24-2.59,7.19-2.59,1.57,0,3.14.07,4.71.07,1.28,0,2.14-.36,2.14-1.76,0-1.09,1.57-1.25,2.37-1.25s2.59,0,3.1.38c1.7,1.28-.76,2.79,3.56,2.79.76,0,1.56,0,2.36,0,2.34,0,3.4,1.19,3.4,3.46,0,1.47-2,1.53-3,1.53-.87,0-1.73-.16-2.6-.16-2.52,0-2.59.65-2.59,3,0,2.14,1.12,4.13,1.12,6.3,0,5.19-1.57,8.42-6.36,9.86a26,26,0,0,1-5.41.7,3.4,3.4,0,0,1-3.39-4.32c.47-2.33,5-1.66,7.29-1.92.93,0,1.22-.44.83-.8-.93,0-1.92.2-2.81.2-3.75,0-7.65-2-7.65-6.15,0-4.45,4.1-6.08,8-6.08C494.13,194.81,495.22,194.91,495.38,194.2ZM494,202.56a1.76,1.76,0,0,0,2-1.67c0-1.15-.93-1.69-2-1.69s-2,.54-2,1.69A1.85,1.85,0,0,0,494,202.56Z"/><path class="cls-9" d="M531.22,202.24c1,0,4.29,1,4.29,2.27a12.3,12.3,0,0,1-.93,2.49c-1.76,4.23-4.45,7-8.48,6.76-5.12-.36-7.26-4.13-8.19-8.07a26.89,26.89,0,0,1-.67-4.54c-.23-3.75-.07-9.28,2-10.53A5.24,5.24,0,0,1,522,190a2.17,2.17,0,0,1,2.14,1.86c0,1.34-.1,2.2-.16,3.81a41.5,41.5,0,0,0,0,5.34c.1,1.63.16,6.11,2.21,6.59,1.76-.06,2.5-3,3-3.87v0C530,202.46,530.39,202.24,531.22,202.24Zm9.85,7.93a2.07,2.07,0,0,1-1.5-.45,3.38,3.38,0,0,1-.61-1.47c-.77-3.49-1.05-7-2-10.49-.48-1.73-1.48-4.16-1.48-6,0-1.37,2.6-1.79,3.65-1.79,4.32,0,6.21,12.19,6.21,15.52S544.66,210.17,541.07,210.17Z"/><path class="cls-9" d="M562.68,192.44c0-2.68,1.44-3.29,3.87-3.29,2.78,0,3.13,1.79,3.13,4.13v2.3c0,1.54-.19,7.1-1.28,8.06a3.87,3.87,0,0,1-2.59.64,3.59,3.59,0,0,1-1.63-.25c-1.34-.71-1.5-6.59-1.5-8.07Zm4.76,14.31c1.25,0,1.89.32,1.89,1.66V209c0,2-1,2.78-2.91,2.78-3,0-3.42-.7-3.42-3.62a1.39,1.39,0,0,1,1.56-1.37Z"/><path class="cls-11" d="M585.41,126.62a17.68,17.68,0,0,1-2.44,6,6.75,6.75,0,0,1-5.12,2.71,8.93,8.93,0,0,1-6-1.23,10.23,10.23,0,0,1-3.9-4.57c-.78-2-.65-4.29-.68-6.4A12.89,12.89,0,0,1,568.7,117a10,10,0,0,1,2.6-3.33c1.37-1,2.7-2.08,4.47-2.06a7.66,7.66,0,0,1,2.23.47,18.91,18.91,0,0,1,2.27.78,8,8,0,0,1,2.91,2.68,12.29,12.29,0,0,1,2,4.89A13.89,13.89,0,0,1,585.41,126.62Zm-2.67-10.68a8.26,8.26,0,0,0-1.69-1.51c-.37-.21-.68-.42-1.07-.6a5.77,5.77,0,0,0-1.12-.68,6.92,6.92,0,0,0-2.83.13c-1,.18-2,.26-2.91.42-1.75.36-2.66,2-3.25,3.51a22.93,22.93,0,0,0-1,3,23,23,0,0,0-.8,3.2,10.3,10.3,0,0,0,1.09,5.82,9.93,9.93,0,0,0,3.87,4.63,5.34,5.34,0,0,0,5.65.21,15.74,15.74,0,0,0,2.18-1.77,11.57,11.57,0,0,0,2.18-2.31c1.41-2.34,1.38-5.33,1.51-8A9.26,9.26,0,0,0,582.74,115.94Zm-4.61,8.58c0,1.55-1.19,2.23-2.6,2.13a3.25,3.25,0,0,0-.7-.18,4.09,4.09,0,0,1-.91-.65,2.36,2.36,0,0,1-.54-2.24,19.85,19.85,0,0,1,1.06-2.24,1.48,1.48,0,0,1,1.59-.83C577.56,120.85,578.16,123.09,578.13,124.52Zm-2.26-3.25c-1.12-.21-1.25,1.55-1.06,2.23.07.29.18.57.23.86s0,.6,0,.91a1,1,0,0,0,.65.75c1,.29,1.4-1.45,1.51-2.23C577.33,122.82,576.91,121.45,575.87,121.27Z"/><path class="cls-11" d="M607.41,126.62a17.68,17.68,0,0,1-2.44,6,6.77,6.77,0,0,1-5.13,2.71,8.94,8.94,0,0,1-6-1.23,10.23,10.23,0,0,1-3.9-4.57c-.78-2-.65-4.29-.68-6.4a12.89,12.89,0,0,1,1.46-6.13,10.23,10.23,0,0,1,2.6-3.33c1.38-1,2.71-2.08,4.47-2.06a7.8,7.8,0,0,1,2.24.47,18.75,18.75,0,0,1,2.26.78,8,8,0,0,1,2.91,2.68,12.29,12.29,0,0,1,2,4.89A13.89,13.89,0,0,1,607.41,126.62Zm-2.68-10.68a8,8,0,0,0-1.69-1.51,11,11,0,0,0-1.07-.6,6,6,0,0,0-1.11-.68,7,7,0,0,0-2.84.13c-1,.18-2,.26-2.91.42-1.74.36-2.65,2-3.25,3.51a21.53,21.53,0,0,0-1,3,21.73,21.73,0,0,0-.81,3.2,10.3,10.3,0,0,0,1.09,5.82,10,10,0,0,0,3.88,4.63,5.32,5.32,0,0,0,5.64.21,16.45,16.45,0,0,0,2.19-1.77,11.57,11.57,0,0,0,2.18-2.31c1.4-2.34,1.38-5.33,1.51-8A9.26,9.26,0,0,0,604.73,115.94Zm-4.6,8.58c0,1.55-1.2,2.23-2.6,2.13a3.41,3.41,0,0,0-.7-.18,3.88,3.88,0,0,1-.91-.65,2.37,2.37,0,0,1-.55-2.24,18.33,18.33,0,0,1,1.07-2.24,1.47,1.47,0,0,1,1.58-.83C599.56,120.85,600.16,123.09,600.13,124.52Zm-2.26-3.25c-1.12-.21-1.25,1.55-1.07,2.23.08.29.18.57.23.86s0,.6,0,.91a1,1,0,0,0,.65.75c1,.29,1.41-1.45,1.51-2.23C599.32,122.82,598.91,121.45,597.87,121.27Z"/><path class="cls-11" d="M628.13,128.55a9.77,9.77,0,0,1,0,1.53c0,.36,0,.44-.31.62a13.45,13.45,0,0,1-2.44.37c-.06,1.09-.16,2.21-.24,3.3,0,.52,0,.52-.49.57-.76,0-1.51.18-2.29.24-1.12.07-2.26-.16-3.41-.13-.28,0-.26-2-.2-3.15a26.75,26.75,0,0,0-4.92-1c-.36,0-2.11.13-2.18-.24a24,24,0,0,1-.21-2.7c0-.52,0-1,0-1.53a3.89,3.89,0,0,1,.06-1.23,50.7,50.7,0,0,1,3-4.63,28.33,28.33,0,0,0,2.45-4.29,17.89,17.89,0,0,1,1.56-2.67,16.28,16.28,0,0,0,1.25-1.85,1.44,1.44,0,0,1,1.3-.7,11.63,11.63,0,0,1,3.33.21c.31,0,.62.1.93.18.08,0,.08.34.11.44a17.69,17.69,0,0,1,.33,3.48c-.07,2-.72,4-.7,6,0,.91.11,1.82.13,2.73,1,.1,3.15.31,3,.72C628.29,126.13,628.05,127.32,628.13,128.55ZM627.4,130a10.49,10.49,0,0,0,.11-2.57c0-.73.13-1.46.08-2.19-1-.07-2,0-3.05-.15-.2,0-.31,0-.33-.19v-.59c0-.42-.06-.86-.06-1.28s.13-1.06.13-1.58a14.76,14.76,0,0,0,0-1.88c-.08-1.14-.23-2.26-.26-3.43a21.93,21.93,0,0,1,.29-3.87,5,5,0,0,0-2-.37c-.44,0-1.33,0-1.67.34a25.85,25.85,0,0,1-3.64,6,19.49,19.49,0,0,0-1.84,3c-.84,1.53-1.67,3-2.63,4.42a24.13,24.13,0,0,0-.21,4.49,29.23,29.23,0,0,0,5.44.32c.85-.08,1.69-.13,2.57-.13a13.4,13.4,0,0,1,0,3.25,14.45,14.45,0,0,0,1.72.44,8.37,8.37,0,0,0,1.92-.21c.06-1.09.11-2.21.19-3.33,0-.52-.06-.57.49-.65C625.61,129.72,626.52,130.11,627.4,130ZM620,120.41c.33,0,.86,1.79.75,2.57a3.64,3.64,0,0,1-.21,1.2c-.08.28,0,.57-.18.83-.49.7-2.6.36-2.6.36-.18-.1-1.38.08-1.2-.31a14.9,14.9,0,0,0,1-2.16c0-.26.54-.78.67-1A3.25,3.25,0,0,1,620,120.41Zm-.39,2.78a6.82,6.82,0,0,1-.08-1.87,7,7,0,0,0-1.64,3.17,1.25,1.25,0,0,0,.78.1c.34,0,1,.21,1.22,0S619.68,123.55,619.58,123.19Z"/><path class="cls-11" d="M31.93,121.68a3.55,3.55,0,0,0,4.06,3,13.9,13.9,0,0,0,2.57-.59c.24-.08.21-.08.34.15s.24.57.36.83c.42,1,.86,2,1.2,3,.13.39.29.78.39,1.17.16.57-1,1.32-1.33,1.51a11.64,11.64,0,0,1-5.66,1.32,7.76,7.76,0,0,1-5.23-1.43,8.86,8.86,0,0,1-2.73-5.07,36,36,0,0,1-.34-4.39c0-3.33.29-7.46,2.81-9.83a8.14,8.14,0,0,1,10.5-.42A10.89,10.89,0,0,1,41.42,114c.24.39-.31,1.07-.47,1.4l-1.69,2.84a1.91,1.91,0,0,1-.15.21s-.13-.11-.24-.18a6.53,6.53,0,0,0-5.48-.79C31.78,118.07,31.67,120.17,31.93,121.68Zm-1.45-.81c.26-1.89,1-3.53,2.57-4.36s4.45-.16,5.93,1.06c.39-.57.75-1.17,1.12-1.76a7,7,0,0,0,.8-1.57,7.89,7.89,0,0,0-2.62-2.36c-1.64-.94-3.62-1.85-5.46-1.54a6.08,6.08,0,0,0-4,3,14.49,14.49,0,0,0-2.34,5.31,18.4,18.4,0,0,0,.08,6.45A7.52,7.52,0,0,0,29.77,130a8.17,8.17,0,0,0,4.81,1.35,7.76,7.76,0,0,0,4.89-2.19c-.41-1.35-.78-2.65-1.22-3.92a12.65,12.65,0,0,1-5.33.18C31,124.9,30.24,122.88,30.48,120.87Z"/><path class="cls-11" d="M63.08,130.86c0,.44,0,.91-.1,1.33s0,.36-.34.36c-3.23.1-4,.13-4.71.1a4.52,4.52,0,0,1-1,0c-.08-.07,0-.46,0-.57a15.39,15.39,0,0,1-.05-1.92,26.61,26.61,0,0,0,.26-4.27c-.18-1.48-1.61-1.82-2.84-1.22s-1.53,2.44-1.63,3.69a35.43,35.43,0,0,0-.06,3.72,22,22,0,0,0-2.93.18,28.36,28.36,0,0,1-3.62.5c-.1,0-.7.08-.73,0a7.12,7.12,0,0,0-.13-.91,22.85,22.85,0,0,1,0-3.51c.08-1.35.21-2.73.16-4.08s-.23-2.71-.26-4.09l0-7c0-.88,0-1.76-.11-2.62,0-.52-.28-1,.29-1.28,1.64-.88,4-.41,5.77-.28l1.35.08c.24,0,.18.72.18.93a34.8,34.8,0,0,1-.2,4.45c-.06.93-.19,1.9-.24,2.86a9.15,9.15,0,0,1,5.25-1,6.12,6.12,0,0,1,5.2,3.07,6.55,6.55,0,0,1,.42,3c0,1.77.08,3.54.1,5.31C63.08,128.75,63.11,129.82,63.08,130.86Zm-1,.73a17.72,17.72,0,0,0,.21-2.81c.05-1.25.1-2.5.1-3.75a22.36,22.36,0,0,0-.23-3.48,3,3,0,0,0-.68-1.64,6.35,6.35,0,0,0-2.94-1.58,11.06,11.06,0,0,0-3.69-.6,4.25,4.25,0,0,0-3,1.12c-.32.31-.63.62-.94,1-.05-3.23.16-6.45.34-9.65-.89-.15-1.77-.39-2.65-.52a10.71,10.71,0,0,0-1.23-.1c-.44,0-1.69,0-2,.36.2,1.88.23,3.8.26,5.7.07,2.42.52,4.94.36,7.35-.16,2.71.73,5.34.86,8,1.58.06,3.14.39,4.76.34-.16-1.92-.55-3.92.1-5.8a3.27,3.27,0,0,1,4.73-1.79c1.56.81,1.41,3,1.46,4.5,0,1.06,0,2.13.1,3.22Z"/><path class="cls-11" d="M84.74,131.67a12.39,12.39,0,0,1-4,.8,22.87,22.87,0,0,1-2.75.05c-.5,0-.68-.7-.81-1.35a8,8,0,0,1-5.85.78,5.87,5.87,0,0,1-3.95-5.07c-.21-2.16.34-4.91,2.26-6.16s4.5-1.07,6.71-.86c-.42-1.38-3.12-1.17-4.21-1-1.33.21-2.65.47-4,.6l-.75.08c-.26,0-.21,0-.24-.23a13.69,13.69,0,0,1-.13-2.47c0-1,.08-2,.18-3,.06-.42.13-.84.19-1.23,0-.23.8-.28,1-.34,1-.18,2.11-.31,3.18-.49a19.1,19.1,0,0,1,3.64-.49,10.68,10.68,0,0,1,8.11,4,10.7,10.7,0,0,1,1.17,5c0,.23,0,.49,0,.75.11,1.84.13,3.69.23,5.54.08,1.19.24,2.34.21,3.51C85,130.5,85.05,131.54,84.74,131.67Zm-.86-10.51c-.36-2.94-1-6.79-4.37-7.59a26.68,26.68,0,0,0-4.39-.47c-2.21-.16-4.73-.7-6.89.1a26.83,26.83,0,0,0,.21,4.82c.93-.06,1.87-.08,2.8-.06a18.91,18.91,0,0,1,4.19.19,2.83,2.83,0,0,1,2,1.58c0,.18.33,1.35,0,1.35-1.92.11-3.92-.31-5.82,0-2.24.37-3.25,2.16-3.56,4.27-.29,2,.15,4.18,2.13,5.07,1.74.78,3.92,0,5.64-.47l2.34-.62c.08.39.18.78.23,1.17s0,.62,0,.91a14.1,14.1,0,0,0,5.25-.65c.08-1.3.24-2.58.31-3.85A34.52,34.52,0,0,0,83.88,121.16Zm-6.34,2.52a2,2,0,0,1,.07,1.75c-.13.28.06.65-.18.83-.31.36-.57,1-1,1.22s-1.32-.13-1.79-.47a1.72,1.72,0,0,1-1-1.45,2.28,2.28,0,0,1,.62-2C75.09,122.93,76.81,122.67,77.54,123.68Zm-.63,2.14c.24-2-.93-2-1.09-2a1.07,1.07,0,0,0-1.22.45c-.18.36-.47,2.36.41,2.08.32-.11.55-.55.86-.52A3,3,0,0,0,76.91,125.82Z"/><path class="cls-11" d="M104.29,127a6.05,6.05,0,0,1-2.34,2.86,8.3,8.3,0,0,1-7.18.7c.08,1.28.08,3.41.06,4.71,0,.62,0,1-.63,1.25a6.61,6.61,0,0,1-2.73.13c-.7,0-1.4-.06-2.13,0a.51.51,0,0,1-.52-.31,6.92,6.92,0,0,1-.36-2.24c.05-1.79.05-2.73.13-3.66.13-1.82.33-3.67.31-5.49,0-.88-.16-1.74-.24-2.65a12.85,12.85,0,0,1,.06-2.84c.12-1.09.33-2.15.36-3.22,0-.29,0-.39.15-.57a2.42,2.42,0,0,1,1.15-.29,8.63,8.63,0,0,1,2.91.1c.16,0,1.17.06,1.22.21a5.76,5.76,0,0,1,.08,1.38c1.92-.91,4.5-1.51,6.45-.49,2.34,1.25,3.09,4.21,3.41,6.58A7.79,7.79,0,0,1,104.29,127Zm-3.8-9.54c-2-1.43-4.36-.68-6.34.41-.1-.52-.13-1.06-.23-1.58-.63,0-1.28-.08-1.9-.13s-1.64-.34-2.16-.05a26.22,26.22,0,0,1,.34,4.67c0,1.64-.55,3.18-.57,4.82a45.82,45.82,0,0,0,.13,4.83,26.12,26.12,0,0,1-.06,3.43l-.07,1.3a2.27,2.27,0,0,0-.08.71,14.71,14.71,0,0,0,1.48.1c.52,0,1-.05,1.51-.1a6,6,0,0,0,.88-.21.64.64,0,0,0,.26-.13c0-1.8.24-4.45.29-6.22,1.71,1,4,1.77,5.93,1,2.39-1,3.27-4.09,3.51-6.4A7.4,7.4,0,0,0,100.49,117.42Zm-3.64,7.9c-.49.91-1.76,2-2.78,1.25a1.4,1.4,0,0,1-.47-1.51c.13-.67,0-1.4.13-2.11.08-.49.29-1.32.91-1.42a3,3,0,0,1,1.8.57C97.66,123,97.37,124.13,96.85,125.32Zm-.91-2.55a1.29,1.29,0,0,0-1.09-.65c-.31,0-.39.7-.44,1a3.32,3.32,0,0,0,.08,2.26c.1.15.18-.08.26-.11.26-.07.54.08.8.08a1.21,1.21,0,0,0,.81-.31C96.85,124.46,96.26,123.27,95.94,122.77Z"/><path class="cls-11" d="M124,118.25c0,.41,0,.83-.07,1.25a11,11,0,0,1-.34,1.51c0,.18-.11.72-.24.83a4.19,4.19,0,0,1-2.26.41,9.84,9.84,0,0,1-2.16-.13,57.87,57.87,0,0,1,.16,6.71c0,.52,0,1,0,1.56s0,.83-.57,1.07a10.08,10.08,0,0,1-2.63.18c-.68,0-1.38.05-2.08.05-.34,0-.65,0-1-.05s-.26,0-.29-.29c0-.88,0-1.76,0-2.65l.13-2.23c.11-1.33.32-2.66.37-4a14.63,14.63,0,0,1-2.55.7,9.2,9.2,0,0,1-2.5-.13c-.78-.11,0-4.29,0-4.91a10.29,10.29,0,0,0,.08-1.46,3.05,3.05,0,0,1,0-1c.31-.65,1.32-.47,1.87-.45l1.9.08c.34,0,.7,0,1.07.11,0-1.28.07-2.55.1-3.82a3.69,3.69,0,0,1,0-1.1c.07-.13.85-.13,1-.15.6-.11,1.15-.26,1.75-.37a5.79,5.79,0,0,1,2.65.08c.08,0,.39.08.39.18,0,.39,0,.81,0,1.2-.05,1.27-.13,2.55-.13,3.82a23.78,23.78,0,0,1,4.53-.28c.13,0,.41,0,.46.12a6.12,6.12,0,0,1,.24.76A6.34,6.34,0,0,1,124,118.25Zm-.93,1.48c0-.31-.11-.62-.16-.91-.13-.65-.15-1.4-.31-2-.62-.06-1.25-.16-1.9-.21a19,19,0,0,0-2.26-.13,3.63,3.63,0,0,0-.57,0c-.21,0-.11-.18-.11-.39,0-1.58.06-3.17,0-4.76a11,11,0,0,0-1.27,0c-1,0-1.88-.13-2.81-.08,0,1.07-.11,2.14-.13,3.2V116s-.21,0-.31,0a12.65,12.65,0,0,1-1.62.12c-.91.06-1.84,0-2.73.11a8.44,8.44,0,0,0,0,3.09c.08.65.13,1.35.24,2a19,19,0,0,0,4.7,0c0,1-.08,2.08-.08,3.1,0,2,.21,4,.06,5.92,1.43.34,3.12.81,4.44.19a37.19,37.19,0,0,1-.21-5.28c0-1.46.11-2.91.08-4.37a9.81,9.81,0,0,0,2.08.55c.68.07,2.08.41,2.76-.06A7.85,7.85,0,0,0,123.09,119.73Z"/><path class="cls-11" d="M138.17,124.1c-1.28.18-2.91.7-3.62.83,0,1.22,1.2,1.8,2.19,1.9a6.29,6.29,0,0,0,2.39-.29,14.14,14.14,0,0,0,3.8-1.4c.2,1.07.54,2.11.72,3.2a10.51,10.51,0,0,1,.24,2.36c0,.47-1.8.94-2.19,1.1a11.88,11.88,0,0,1-11.36-1.75c-3.09-2.52-3.61-7.23-2.5-10.92a9.43,9.43,0,0,1,3.36-4.89,8,8,0,0,1,5.87-1.48,7.34,7.34,0,0,1,6.82,10c-.11.39-1.49.45-1.95.52s-1.15.24-1.77.34S138.84,124,138.17,124.1Zm-4.22.31a14.19,14.19,0,0,1,4.5-1.3,11.37,11.37,0,0,0,4.14-1.33c0-.93.1-1.87.13-2.8a5.73,5.73,0,0,0-.45-2.76c-.93-1.74-3-2.21-4.75-2.26a21,21,0,0,0-3.2.26,9.19,9.19,0,0,0-2.73.68c-1.77,1-2.26,3.19-2.73,5a14.41,14.41,0,0,0-.34,5.7,7.39,7.39,0,0,0,3.15,4.81c1.71,1.17,3.53,1,5.46.6,1-.16,2-.32,3-.39a7.93,7.93,0,0,0,2.78-.5,9.27,9.27,0,0,0-.67-3.22,9.78,9.78,0,0,1-4.73.65,4.64,4.64,0,0,1-2.76-.91,2.2,2.2,0,0,1-.94-1.33C133.72,125.06,133.59,124.46,134,124.41Zm2.45-3.22a17.76,17.76,0,0,0-2.81.7,5.19,5.19,0,0,1,.21-2.83c.44-1,1.77-1.17,2.68-1.38a2.34,2.34,0,0,1,2.44.7,4.64,4.64,0,0,1,.23,2.55A6.48,6.48,0,0,0,136.4,121.19Zm-.29-.7c.63-.11,1.36-.16,1.95-.32a4.13,4.13,0,0,1-.62-1c-.16-.5-.26-.91-.91-.91-1.17,0-2,1.53-2.26,2.67C134.92,120.85,135.49,120.64,136.11,120.49Z"/><path class="cls-11" d="M161.72,121.89c0,.26-.13,1.51-.52,1.48-.83-.05-1.64,0-2.47,0a9.85,9.85,0,0,0-2.6,0c-.88.23-1.09.73-1.14,1.61a17.45,17.45,0,0,1-.34,2.6,8.43,8.43,0,0,0-.34,3.12c.05.31.13.94.16,1.07-.52,0-1.51.05-1.64.05-.6,0-1.14,0-1.72,0-1,0-2,0-3.06,0a1.29,1.29,0,0,1,0-.34c0-1.56,0-3.15-.08-4.73s-.34-3.15-.34-4.73c0-1.85.08-3.7,0-5.54,0-.63-.13-1.28-.23-1.9,0-.39,0-.39.39-.6a4.47,4.47,0,0,1,3.28-.78c1,.16,1.92.47,2.8.7.21,0,.19,1.38.19,1.59.05.54.13,1.09.18,1.66a7.91,7.91,0,0,1,3.72-2,6.41,6.41,0,0,1,2.08-.21c.41.05,1.66.16,1.66.68,0,1-.08,2,0,2.91A21.39,21.39,0,0,1,161.72,121.89Zm-1.45,0a11.58,11.58,0,0,1,.39-1.56,15.56,15.56,0,0,0,.15-4.09c-.57,0-1.17.11-1.77.13a13.12,13.12,0,0,0-1.56.18,6.45,6.45,0,0,0-3.79,2.4c-.11-1.46-.16-2.94-.29-4.42a8.69,8.69,0,0,0-3.17.44c-.31.1-.62.18-.94.26-.13,0-.31.1-.49.15a51.64,51.64,0,0,0,0,5.7,48.91,48.91,0,0,1-.13,5,45,45,0,0,0,.1,5.07,24,24,0,0,0,2.6-.18,17.33,17.33,0,0,1,2.08-.13,8,8,0,0,0,0-1.46c-.1-.83-.26-1.66-.31-2.49,0-1.3,0-2.94,1.22-3.69a8.8,8.8,0,0,1,3.85-.89C158.89,122.25,159.56,122,160.27,121.92Z"/></g></g></g></svg>