<svg xmlns="http://www.w3.org/2000/svg" viewBox="0 0 1072.22 305.5"><defs><style>.cls-1,.cls-3{fill:#3c2213;}.cls-2{fill:#009299;}.cls-3{font-size:13px;font-family:funwariround-83pv-RKSJ-H, funwariround;font-weight:700;}.cls-4{opacity:0.12;}.cls-10,.cls-11,.cls-12,.cls-5,.cls-6,.cls-7,.cls-8,.cls-9{fill:none;}.cls-10,.cls-5,.cls-6,.cls-7,.cls-8,.cls-9{stroke:#009299;stroke-linecap:round;stroke-linejoin:round;stroke-width:26px;}.cls-6{stroke-dasharray:7.99 7.99;}.cls-7{stroke-dasharray:8.46 8.46;}.cls-8{stroke-dasharray:6.8 6.8;}.cls-9{stroke-dasharray:15.74 15.74;}.cls-10{stroke-dasharray:7.82 7.82;}.cls-11,.cls-12{stroke:#3c2213;stroke-miterlimit:10;}.cls-12{stroke-dasharray:12 12;}</style></defs><title>logo</title><g id="レイヤー_2" data-name="レイヤー 2"><g id="top"><g id="logo"><path class="cls-1" d="M126.51,80.8c8.2,6.8,16.8,18,18.4,27.4,5.6,4.2,10.8.8,10.8-5.8,0-6.8-6.4-17.6-25.4-24.6Z"/><path class="cls-1" d="M89.78,120.4q-2.7-1.47-5.49-2.9c-.86.85-1.72,1.69-2.58,2.5l3.8,3.6Q87.67,122.06,89.78,120.4Z"/><path class="cls-1" d="M149.2,151.24c14.62,13.88,33.14,25,56.51,33.36,1.4-6,5.2-9,10.6-9.8l.4-4.4A192,192,0,0,1,185,159.19,163.53,163.53,0,0,1,149.2,151.24Z"/><path class="cls-1" d="M41,102.26A186.38,186.38,0,0,1,28,116c1.57,1.64,2.86,3,3.75,4a150.3,150.3,0,0,0,18.61-15.54C47.36,103.63,44.25,102.91,41,102.26Z"/><path class="cls-1" d="M133.05,144.61c-14.85,13.5-33.54,25.32-56.54,34.59l3,5c25.95-8.46,47.26-20.61,63.61-35.21Q137.89,146.9,133.05,144.61Z"/><path class="cls-1" d="M61.91,107.89V184.6h2.6c4.2,0,9-3.4,9.2-4.6V112.48C70,110.85,66,109.31,61.91,107.89Z"/><polygon class="cls-2" points="67.05 29.2 29.11 29.2 31.51 37.4 67.05 37.4 67.05 29.2"/><path class="cls-1" d="M194.71,17.4l-9.6,11.8h-58.2V9.6a8,8,0,0,0,7.4-7.6l-19.6-2V29.2H72.05v8.2h9.26a253.31,253.31,0,0,1-33,55.91q5.28,1.26,10.13,2.79,1.76-1.93,3.47-3.9v5c4.13,1.41,8,2.94,11.8,4.57V86.2a7.69,7.69,0,0,0,6.4-5.8l-7-2.6a212.33,212.33,0,0,0,18.8-30.4,8.42,8.42,0,0,0,8.8-4.8l-10.8-5.2h42.85c-10,28.82-25.56,54.68-41.78,73,2.16,1.2,4.28,2.41,6.38,3.64a155.33,155.33,0,0,0,16-16.65A162.19,162.19,0,0,0,134.61,135a156.15,156.15,0,0,0,24.94,9.28q-3.33-2.46-6.44-5.06c18-18.6,30.4-41.2,38.8-65.4,4-.2,7-1.2,9-4l-14.4-13.4-7.4,7.2v.2h-43.2c2.6-5.2,5.2-10.4,7.8-16,3.4,0,7.2-2.4,8.2-5.8l-12.45-4.6h67c3,0,5.6-1.4,6.2-4.6A212.43,212.43,0,0,0,194.71,17.4Zm-16.6,54.8a166.11,166.11,0,0,1-33,59.8,155.14,155.14,0,0,1-27.4-39.8,184.37,184.37,0,0,0,13.6-20Z"/><path class="cls-1" d="M233.91,105.2c4.8-4.4,9.8-13.4,10.4-26.8h38.4c-5.8,31.6-22.6,50.6-62,64.4l1.8,5.2c45.6-11,66.8-31,74-69.6h25.8v36.43c3.91-2.28,7.89-4.53,12-6.69V78.4h39.4c-2.72,5.31-6.28,11.73-9.79,17.44a155.7,155.7,0,0,1,15.34-3.79A108,108,0,0,0,390.51,80.2c3.2-.2,6.2-.4,8.8-3L383.71,62l-8,8.2h-62.8v-19a8,8,0,0,0,7.4-7.6l-19.6-2V70.2h-56.6a96.35,96.35,0,0,0-2.2-11.8h-4.8c.8,16-6.4,30.6-14,36.4-4,3-6.4,7.8-3.8,12C222.31,110.8,229.31,109.4,233.91,105.2Z"/><path class="cls-1" d="M386.51,102.4c-1.8,8.6-3,16.4-4.4,19.2-.4,1-1,1.4-3,1.4-2.8.4-9.6.4-18.2.4h-19.2c-7,0-7.4-.4-7.4-2.4v-2.86c-4.1,2.16-8.05,4.4-11.95,6.67.41,8,3.94,10.59,17.55,10.59h20.8c30.4,0,36-2,36-8,0-2.8-1.2-4.8-5-6L391,100.18c-1.4.18-2.76.37-4.11.57Z"/><path class="cls-1" d="M348.05,210H312.91V163h65.4c3.2,0,5.2-1.4,6.2-4.6-7.8-7-17.4-14-17.4-14-2.8,3.2-6.4,7.2-9,10.4H259.29a171.51,171.51,0,0,1-23.91,4.39l.93,3.81h64.4v47h-85.2l2.4,8.2H348.05Z"/><path class="cls-2" d="M381.31,198.4l-9.6,11.6H353.05v8.2h40.06c3,0,5.4-1.2,6-4.6A211.57,211.57,0,0,0,381.31,198.4Z"/><path class="cls-1" d="M592.74,136.2l-4.2,1.8c1.11,1.5,2.23,3.14,3.34,4.87,4.42,1.37,9.08,2.6,14,3.65A62.12,62.12,0,0,0,592.74,136.2Z"/><path class="cls-1" d="M562.35,140.31c-1.15-.61-2.28-1.23-3.41-1.85v1.94h2A12.85,12.85,0,0,0,562.35,140.31Z"/><path class="cls-1" d="M710.94,140.32V117.8a10.28,10.28,0,0,0,7.8-4.8l-14-10.6-5.4,6.2h-52.2l-13.6-6v47.54c3.71.22,7.59.34,11.6.38V143.8h54.2v.28C703.4,142.94,707.25,141.68,710.94,140.32Zm-65.8-4.92V117h54.2v18.4Z"/><path class="cls-1" d="M598.44,154.74c2.76,5.94,4.81,12,5.3,17.26,5.8,5,11.4,1.4,11.4-6.4a21,21,0,0,0-1.62-7.66C608.18,157.06,603.17,156,598.44,154.74Z"/><path class="cls-1" d="M699.34,154.08v9.32h-54.2v-2.88c-4,0-7.89-.16-11.6-.38V185h2c5.8,0,9.6-3.8,9.6-4.8v-8.4h54.2v11.6h2.2c4.8,0,9.4-3.8,9.4-4.8V150.32C707.25,151.68,703.4,152.94,699.34,154.08Z"/><path class="cls-1" d="M570.14,134.27V129h29.4v9h2.2c4.6,0,9.2-3.8,9.2-4.8V20.8a13.87,13.87,0,0,0,9.2-4.4l-15.4-12-5.6,7.2h-27l-13.2-6.2V128.47C562.56,130.47,566.28,132.41,570.14,134.27Zm0-114.47h29.4V47h-29.4Zm0,35.6h29.4v28h-29.4Zm0,36.2h29.4v29.2h-29.4Z"/><path class="cls-1" d="M567.63,143c-4.39,12.77-12,27.67-21.09,37.77l3.2,3.8c13-9.51,23.73-24.29,29.47-36.3C575.18,146.64,571.34,144.88,567.63,143Z"/><polygon class="cls-2" points="676.14 60.2 664.74 60.2 664.74 60.2 635.34 60.2 635.34 68.4 659.22 68.4 659.22 68.4 683.22 68.4 683.22 68.4 707.74 68.4 707.74 60.2 676.14 60.2 676.14 60.2"/><path class="cls-1" d="M714.14,26c-1.8,2-4.2,4.6-5.8,6.6h-20.2A100.76,100.76,0,0,0,705.34,11a9.39,9.39,0,0,0,8.2-6.2l-19-4.8a159.85,159.85,0,0,1-14.8,32.6H657.19c2-1.32,3.35-3.9,3.35-7.2,0-6.8-5.4-17.2-22.6-24.4l-4,2.2c6.4,7.2,13.6,19,15.2,28.6a10.88,10.88,0,0,0,1.3.8h-14.3l-13.2-6v77.2h2c5.6,0,9.4-3.6,9.4-4.8V95.2h74.4V102h2.2c5,0,9.4-3.6,9.4-4.8V41.6a14.59,14.59,0,0,0,8.4-4.6Zm-5.4,34.2h0v8.2h0V87h-32.6V73.4h-11.4V87h-30.4V71.9h0v-15h0V40.8h30.4V55.2h11.4V40.8h32.6Z"/><path class="cls-1" d="M832.12,89.75a17.86,17.86,0,0,0-5.44-1.84c-3.2-.44-8.28.21-12.63,1.16l-.38,3.59A176,176,0,0,1,832.12,89.75Z"/><path class="cls-1" d="M760.05,180.93c2.82.39,6-1.48,6.94-8.65l1.1-8.1c1-7.35,2.31-18.3,3.65-28.1,1.08-7.9,2.08-15.28,2.86-19.41-4.21,2.13-8.24,4.36-12.21,6.63-.65,5.94-1.38,11.88-2,15.83-1.48,9.4-3,16.11-4,21-.63,3.17-1.34,5.57-1.62,7.64C753.85,174.33,755.9,180.37,760.05,180.93Z"/><path class="cls-2" d="M761.47,98.78c2.86,1.54,2.71,2.67,2.54,6.68-.09,1.77-.28,4.3-.55,7.22,4.86-2.76,9.84-5.45,15.11-8a11,11,0,0,0,.38-1.81c.67-4.9-8.77-13.1-15.74-14.06a50.77,50.77,0,0,0-10.78.26l-.64,6.06c.76.1,1.84.63,2.4.71A56.64,56.64,0,0,1,761.47,98.78Z"/><path class="cls-2" d="M826.55,100.42c1.09,1.24,1.28,3.16,1.13,5.48-.48,4.92-1,9.85-1.68,15.13-1.18,8.66-2.83,19.38-5,30-7.87,36.55-29.5,61.43-68.28,75.52l2.81,6.14c44.09-10.87,69-35.88,76.69-79.55l3.43-19.5c1.44-7.67,2.65-15.19,3.83-21a16.31,16.31,0,0,1,2.76-6.15,9.94,9.94,0,0,0,1.93-4.34A5.27,5.27,0,0,0,843,98.88C837.2,99.2,831.72,99.72,826.55,100.42Z"/><path class="cls-1" d="M890.92,101.33c-12.89,4.43-24,8.07-30.58,9.67l8.4,17c2.2-.8,3.6-2.6,4.4-5.2,7.8-3.8,16-8,22.8-11.2v73.8h2.8c4.2,0,9-3.2,9-5.6V106l1.06-.54A157.6,157.6,0,0,0,890.92,101.33Z"/><path class="cls-1" d="M936.74,85.4l-13,4.6L909,95.34c4.17,1.2,8.12,2.52,11.9,4L929.34,95l9.2-4.6Z"/><path class="cls-1" d="M880.34,52h15.6V92.18q6.19,1.23,11.8,2.79V52h24.6a5.71,5.71,0,0,0,4.42-1.71A145.83,145.83,0,0,1,916.14,80.2l4,3.2a117.22,117.22,0,0,0,29.6-34h19a171.62,171.62,0,0,1-27.06,59.41q4.1,2.18,8,4.44C965.05,94.87,976,73,982.54,49.4h15.6c-4,27.69-12.12,53.81-25.54,77.21,3,1.7,6.08,3.37,9.25,5,15.58-23.89,24.91-51.63,30.09-82.2h14.4c-2,40.13-5.55,74.38-10.41,95.32,3.65.95,7.46,1.79,11.47,2.53,5.07-22.86,8.59-56.75,10.34-96.85,4-.4,6.8-1.6,8.8-4.2l-15.2-12.8c-2,2.4-4.8,5.4-6.6,7.8h-70.4c4.4-8.4,8.4-18.8,11.8-28.8a9.39,9.39,0,0,0,8.2-6.2L954.94.6a203.17,203.17,0,0,1-16.65,46.75C931.49,40.56,921.94,33,921.94,33c-2.6,3.2-6.2,7.6-8.6,10.8h-5.6V10.6c5-.8,6.6-4,7.6-7.8l-19.4-2v43h-13.2c2-6.8,3.4-13.8,5-20.8,4-.4,6.2-3.2,7.2-6.8l-18.6-3.6c-2.2,25.6-8.4,51.8-16.2,70.2l4.4,2.6C870.74,76.2,875.94,64.6,880.34,52Z"/><path class="cls-1" d="M967.82,134.49A178.49,178.49,0,0,1,935.54,172l3.6,3.8a163,163,0,0,0,37.3-36.41Q972.06,137,967.82,134.49Z"/><path class="cls-1" d="M943.5,120.24c-2.44-1.34-4.92-2.66-7.47-3.94a162.24,162.24,0,0,1-17.89,19.1l3.4,4A149.44,149.44,0,0,0,943.5,120.24Z"/><path class="cls-2" d="M1013.22,154.61c-1.76,5.3-3.66,9-5.68,10.79-2.6,2.4-4.2,3-8.8,3-4.8,0-21.6-1.8-31.4-3l-.2,6.4c8.4,1.2,18.6,3.4,21.4,5,2.4,1.8,3.6,5,3.6,8.6,9.8.2,18.2-2.8,24.4-9.8,3.06-3.45,5.84-9.71,8.33-18.31Q1018.77,156.12,1013.22,154.61Z"/><path class="cls-2" d="M473.22,68.54a58.5,58.5,0,1,0,58.5,58.5A58.5,58.5,0,0,0,473.22,68.54ZM503.3,102A13.09,13.09,0,0,0,501,105c-12,23.75-28.44,44.44-55.45,59.22L443.06,161c27.42-17.94,43.62-41.49,50.45-57.19a20.85,20.85,0,0,0,1.63-5.7c0-1.94-2-3.16-6.73-4.9l.72-3.26a25.76,25.76,0,0,1,6.73.92l-.11-.1c3.57.71,9,5.5,9,8.35C504.72,100.64,504,101.05,503.3,102Z"/><path class="cls-1" d="M479.22,65.54a58.5,58.5,0,1,0,58.5,58.5A58.5,58.5,0,0,0,479.22,65.54ZM509.3,99A13.09,13.09,0,0,0,507,102c-12,23.75-28.44,44.44-55.45,59.22L449.06,158c27.42-17.94,43.62-41.49,50.45-57.19a20.85,20.85,0,0,0,1.63-5.7c0-1.94-2-3.16-6.73-4.9l.72-3.26a25.76,25.76,0,0,1,6.73.92l-.11-.1c3.57.71,9,5.5,9,8.35C510.72,97.64,510,98.05,509.3,99Z"/><text class="cls-3" transform="translate(421.22 100.13) rotate(-62.73)">Y</text><text class="cls-3" transform="translate(425.97 91.05) rotate(-54.41)">o</text><text class="cls-3" transform="translate(430.59 84.59) rotate(-47.31)">z</text><text class="cls-3" transform="matrix(0.76, -0.65, 0.65, 0.76, 435.77, 78.93)">o</text><text class="cls-3" transform="matrix(0.83, -0.55, 0.55, 0.83, 441.88, 73.8)">r</text><text class="cls-3" transform="translate(447.49 69.99) rotate(-26.29)">a</text><text class="cls-3" transform="matrix(0.94, -0.33, 0.33, 0.94, 455.46, 66.13)"> </text><text class="cls-3" transform="translate(461.34 63.99) rotate(-12.66)">n</text><text class="cls-3" transform="translate(469.33 62.19) rotate(-5.26)">o</text><text class="cls-3" transform="translate(536.5 151.69) rotate(121.1)">O</text><text class="cls-3" transform="translate(531.07 160.55) rotate(129.44)">k</text><text class="cls-3" transform="translate(526.09 166.66) rotate(136.88)">u</text><text class="cls-3" transform="translate(519.88 172.43) rotate(143.84)">r</text><text class="cls-3" transform="translate(514.33 176.44) rotate(149.07)">i</text><text class="cls-3" transform="translate(510.5 178.95) rotate(155.94)">m</text><text class="cls-3" transform="translate(500.99 183.12) rotate(164.36)">o</text><text class="cls-3" transform="translate(493.33 185.29) rotate(171.81)">n</text><text class="cls-3" transform="translate(485.22 186.47) rotate(179.21)">o</text><g id="catchcopy"><g class="cls-4"><path class="cls-5" d="M340.73,271.23l-.78-6,5.19-.38.47,5.39,8.61-.82.17,4.43-8.34.47c.15,1.77.28,3.53.38,5.27a46.18,46.18,0,0,1,8.7,3.22l-1.67,4.48a68.21,68.21,0,0,0-6.92-3c0,1.25-.05,2.35-.14,3.29a5.35,5.35,0,0,1-1.06,2.48"/><path class="cls-6" d="M338,292.29l-.48-.1a6.64,6.64,0,0,1-2.72-1.29,5.82,5.82,0,0,1-1.82-2.37,7.58,7.58,0,0,1-.6-3,4.6,4.6,0,0,1,.58-2.3"/><path class="cls-5" d="M335.88,280.57a11.29,11.29,0,0,1,2.71-1,15.14,15.14,0,0,1,3.06-.43c-.1-1.11-.19-2.14-.29-3.07l-.38-2.89"/><path class="cls-5" d="M340.35,288.37l.5-.13a1.18,1.18,0,0,0,.77-.68,3.27,3.27,0,0,0,.29-1.07c.06-1.09.08-2.19.06-3.31h-.11c-.51,0-1,0-1.47.05a5.59,5.59,0,0,0-1.39.26,2,2,0,0,0-1.1.84,2.17,2.17,0,0,0-.38,1.31,1.5,1.5,0,0,0,0,.2"/><path class="cls-5" d="M378.66,287.85c-.31.5-.64,1-1,1.46a27.12,27.12,0,0,1-2.79,3.19l-5.33-1.35c.63-.74,1.22-1.49,1.79-2.25s1.1-1.55,1.61-2.36c.05-.08.1-.15.14-.23"/><path class="cls-5" d="M368.65,279.69l-1.09.45c-.76.31-1.51.63-2.24.95s-1.45.67-2.15,1l-.82-5.1c1.19-.6,2.41-1.15,3.67-1.64q.93-.36,1.86-.66"/><path class="cls-7" d="M376.19,273.73a7.1,7.1,0,0,1,.76.2,5.16,5.16,0,0,1,2.56,1.71,6,6,0,0,1,1.31,2.81,12.44,12.44,0,0,1,.16,3.09,12.17,12.17,0,0,1-.5,2.5"/><polyline class="cls-5" points="372.96 265.73 378.93 266.31 378.28 271.06 372.3 270.64"/><polyline class="cls-5" points="371.14 270.56 365.16 270.15 365.95 265.05 371.92 265.63"/><path class="cls-5" d="M401.66,267.58H402a37.4,37.4,0,0,1,5.7.26l.76,4-7.7,6.35-3.2-3.36,2.85-2.11a45.57,45.57,0,0,0-9.23,1.11l-.5-5.1c1.85-.29,3.73-.54,5.62-.73l.33,0"/><path class="cls-5" d="M396.67,290.16a43.81,43.81,0,0,1-5.95-.77l.32-5a51.58,51.58,0,0,0,6,.6"/><path class="cls-5" d="M403.55,284.84q3-.24,5.95-.78l.2,5.39q-3,.48-6,.67"/><path class="cls-5" d="M423,276l.61-.07,3.43-4.16-4.19,1.84L418,268l4.84-2.43,4.25,6.12,4.92-5.92,5.3,1.44-7.56,8.14c2.66-.1,5.31-.09,8,0l.12,5.19q-2.88-.27-5.77-.3l-.2.1"/><path class="cls-5" d="M430,287.51a6.54,6.54,0,0,0,1.22-.18c.78-.19,1.54-.41,2.3-.67a20.11,20.11,0,0,0,2.18-.93v4.75a15.38,15.38,0,0,1-5.67,1.85"/><path class="cls-5" d="M422.34,285.15a6.15,6.15,0,0,1,1-2.26,10.29,10.29,0,0,1,2.45-2.52,70,70,0,0,0-8.44,1.38l-.44-5.07,6-.68"/><path class="cls-5" d="M454.28,288.4l-3.86,3.34a54.47,54.47,0,0,0-6.36-6.56l3.81-3.29a40.42,40.42,0,0,1,3.44,3.21Q453.23,287.08,454.28,288.4Z"/><polyline class="cls-5" points="478.2 270.81 478.2 264.81 487.23 264.81 487.23 270.81"/><path class="cls-5" d="M487.23,283v4.86q0,.83,0,1.14a12,12,0,0,0,1.64-4.33l3.37,1.17a13.14,13.14,0,0,1-2.41,6L487,290a2.55,2.55,0,0,1-1,1.43,3.18,3.18,0,0,1-1.5.63,15.18,15.18,0,0,1-2.3.14,13.1,13.1,0,0,0-1-4c.47,0,1.07.06,1.82.06.25,0,.38-.15.38-.47v-5.36h-1.79a35.36,35.36,0,0,1-1.67,9.76,10.84,10.84,0,0,0-1.6-1,11.39,11.39,0,0,0-1.74-.81,26.59,26.59,0,0,0,1.19-5.87"/><path class="cls-5" d="M481.84,278.44h1.58v-2.93h-1.55v.29Q481.87,277.5,481.84,278.44Z"/><rect class="cls-5" x="481.87" y="268.74" width="1.55" height="2.84"/><path class="cls-5" d="M493.61,274h-6v-3.34h3.25a8.82,8.82,0,0,0-.59-1.78l.41-.09h-2.22v-3.14h5.59v-1.81h4.34v1.81h6v3.14h-1.9l-.91,1.87h3.69V274h-6"/><path class="cls-5" d="M497.66,274.75h6v8.58h-6.09a14.48,14.48,0,0,1,2.22,1.55l-2.46,2.41a8.58,8.58,0,0,0-1.23-1v2.08a1.81,1.81,0,0,0,.08.69c.05.09.18.13.39.13h.94a.46.46,0,0,0,.45-.35,5.67,5.67,0,0,0,.19-1.5,7.68,7.68,0,0,0,2.61,1.09,25.34,25.34,0,0,0-1.67-2.55l3.28-1.58a16.78,16.78,0,0,1,3.43,5.86l-3.54,1.73a11.56,11.56,0,0,0-1.06-2.61,4,4,0,0,1-1,2.31,3.19,3.19,0,0,1-2.18.65H496.9"/><path class="cls-5" d="M492.78,291.05a5.75,5.75,0,0,1-.49-2.68v-3.25h2a10.26,10.26,0,0,0-1.29-.74l1.05-1.05h-4.83v-8.58h6"/><rect class="cls-5" x="493.09" y="277.09" width="6.53" height="0.85"/><rect class="cls-5" x="493.09" y="280.14" width="6.53" height="0.85"/><path class="cls-5" d="M498.15,268.8h-3.92a9.42,9.42,0,0,1,.64,1.87h2.64C497.8,269.87,498,269.25,498.15,268.8Z"/><path class="cls-5" d="M516.74,287.1a13.92,13.92,0,0,1-3.19,5,11.84,11.84,0,0,0-1.47-1.57,10.52,10.52,0,0,0-1.67-1.33,12.55,12.55,0,0,0,3.2-6l-1.34.79c-.67.41-1.19.72-1.57.91l-1.2-4.13q1.38-.53,4.75-2.17c0-.64.06-1.56.06-2.75v-.65l-2.76,1.5a22,22,0,0,0-1.9-5.8l3.13-1.56a29.61,29.61,0,0,1,1.53,3.52v-6h8.85v-3.13h4.62v3.13h10.35v3.87h-6"/><path class="cls-5" d="M524.47,270.79h-6v5.13c0,.29,0,.59,0,.87"/><polyline class="cls-5" points="519.82 283.56 519.82 277.56 526.29 277.56 526.29 275.95 519.29 275.95 519.29 272.31 525.29 272.31"/><polyline class="cls-5" points="531.95 272.31 537.95 272.31 537.95 275.95 530.07 275.95 530.07 277.56 537.16 277.56 537.16 283.56"/><path class="cls-5" d="M536.77,290.52a2.65,2.65,0,0,1-1.1,1.1,9.63,9.63,0,0,1-4.34.65,11.88,11.88,0,0,0-1.35-3.75l1.51,0a8.62,8.62,0,0,0,1,0c.33,0,.5-.13.5-.41v-1.58l-1.79,1.67a36.77,36.77,0,0,0-2.9-2.87,10,10,0,0,1-3.4,3.08,9.56,9.56,0,0,0-1.26-1.58v5.44h-3.86v-6"/><path class="cls-5" d="M523.68,281.22V285a5.76,5.76,0,0,0,2.44-3.81Z"/><path class="cls-5" d="M533,284.91v-3.69h-3.11c0,.1,0,.25-.08.47l-.09.47C531.23,283.35,532.33,284.27,533,284.91Z"/><polyline class="cls-5" points="546.73 280.02 548.13 274.19 543.38 274.13 543.18 269.18 549.48 269.06 550.85 264.23 555.75 264.64 554.58 268.94 558.44 268.89 557.91 273.95 553.28 274.01 551.93 279.86"/><polyline class="cls-5" points="551.5 281.7 550.15 287.55 545.05 287.05 546.45 281.21"/><path class="cls-5" d="M554.6,281.94a8,8,0,0,1,2-1.11,12.19,12.19,0,0,1,3.58-.72c-.16-1.8-.33-3.61-.53-5.42l4.45.11.36,5.57A57.22,57.22,0,0,1,571.6,282l-1.82,4.66q-2.58-1-5.22-1.79a23.55,23.55,0,0,1-.17,3.11,5.34,5.34,0,0,1-1.17,2.6"/><path class="cls-8" d="M557,292.43a4.54,4.54,0,0,1-.5-.12,5.72,5.72,0,0,1-2.36-1.3,5.3,5.3,0,0,1-1.46-2.26,8.49,8.49,0,0,1-.44-2.67,5.31,5.31,0,0,1,.26-1.51"/><path class="cls-5" d="M558.17,288.59a1.68,1.68,0,0,0,.45,0,3.75,3.75,0,0,0,.86-.22,1,1,0,0,0,.6-.58,3.42,3.42,0,0,0,.24-.87c.07-.95.1-1.92.08-2.9l-1.23.06a3.78,3.78,0,0,0-1.17.25,1.69,1.69,0,0,0-.89.75,1.92,1.92,0,0,0-.28,1.11,2.31,2.31,0,0,0,.08,1.2"/><polygon class="cls-5" points="565.83 266.4 570.13 268.65 565.94 274.51 561.99 272.52 565.83 266.4"/><path class="cls-5" d="M577.82,271.9v-6h11v-2.11h4.57v2.11H604v3.54h-4.45v.91h4.13v2.55h-2.9a14.56,14.56,0,0,0,3.57,1.79,8.73,8.73,0,0,0-2.08,2.31,12.2,12.2,0,0,1-2.72-1.84v1.75h-3.14v-1.64a8.09,8.09,0,0,1-2.17,1.56c-.05.09-.14.23-.26.41a2.67,2.67,0,0,0-.2.32h8v8l.38-.09a10.87,10.87,0,0,1,1.32,2.69l-.88.27a14.37,14.37,0,0,0,1.76.5,4,4,0,0,1-1.11,2.53,4.47,4.47,0,0,1-2.76.66h-.29"/><path class="cls-5" d="M592.87,291.45l-.1-.08a3.71,3.71,0,0,1-.92-2.91v-2.73h-1.38a8.14,8.14,0,0,1-2.27,4.1,12.55,12.55,0,0,1-5.4,2.61,9.72,9.72,0,0,0-1-1.79,8.76,8.76,0,0,0-1.31-1.58,12.34,12.34,0,0,0,4.06-1.33,4,4,0,0,0,1.66-2h-2.9v-8.17h6.53c.06-.24.2-.74.41-1.52l-1.11-.8v1.67h-3v-1.67a8.6,8.6,0,0,1-2.49,1.73,10.56,10.56,0,0,0-1.79-2.11v.79c0,1.86-.06,3.6-.18,5.21"/><path class="cls-5" d="M580.82,286.83a19.85,19.85,0,0,1-2.06,5.61,13.47,13.47,0,0,0-1.62-1.46,10.47,10.47,0,0,0-1.69-1.18,16.32,16.32,0,0,0,1.59-4.58c.08-.38.15-.75.22-1.11"/><path class="cls-5" d="M581.83,269.44v5.19A10.15,10.15,0,0,0,585,272.9h-2.41v-2.55h3.55v-.91Z"/><rect class="cls-5" x="587.02" y="279.9" width="3.54" height="0.79"/><rect class="cls-5" x="587.02" y="282.6" width="3.54" height="0.79"/><path class="cls-5" d="M596.39,270.35v-.91h-7.23v.91h3.28v2.55h-3.17a31.76,31.76,0,0,1,3.29,1.32l-.33.38a10.67,10.67,0,0,0,3-1.7h-1.9v-2.55Z"/><path class="cls-5" d="M592.06,274.78l-.94,1.08,2.14.2A8.64,8.64,0,0,0,592.06,274.78Z"/><rect class="cls-5" x="594.31" y="279.9" width="3.63" height="0.79"/><rect class="cls-5" x="594.31" y="282.6" width="3.63" height="0.79"/><path class="cls-5" d="M601,288.43c-.41,0-1.14.11-2.18.23l-2.39.27-.38-2.11.88,0c0-.08.05-.24.1-.49s.09-.43.11-.57h-1.53v2.7c0,.39.08.63.24.73a2.37,2.37,0,0,0,1.08.15h3.22a.93.93,0,0,0,1-.5A2.9,2.9,0,0,0,601,288.43Z"/><path class="cls-5" d="M599.23,286.73l1,0a1.43,1.43,0,0,1-.14-.28,2.12,2.12,0,0,0-.15-.28l1.43-.41h-1.67a3.35,3.35,0,0,1-.22.52C599.35,286.47,599.27,286.63,599.23,286.73Z"/><path class="cls-5" d="M630.89,270.38h6v4.42h-4.33a26.18,26.18,0,0,1-3.61,9.26,55.08,55.08,0,0,1,7.56,4.28l-3.34,4.1a48.87,48.87,0,0,0-7.67-4.72,19,19,0,0,1-5.31,2.75"/><path class="cls-5" d="M617.79,291.18a57.85,57.85,0,0,1-5.89,1.17,12.93,12.93,0,0,0-2.28-4.36q7.23-.74,10.9-2.7c-1.51-.7-2.72-1.23-3.64-1.58l-.38.88L612,283q1.5-3,3.63-8.21h-6.33v-4.42h8.09q1.08-2.81,2.37-6.59l4.81.85c-.88,2.36-1.6,4.28-2.17,5.74h6"/><path class="cls-5" d="M627.52,274.8h-6.83q-1.41,3.4-2.08,5c2.81,1.05,4.75,1.8,5.8,2.25A18.74,18.74,0,0,0,627.52,274.8Z"/><path class="cls-5" d="M670.3,273.25h-1.7a33.37,33.37,0,0,1-3,10.75,13.74,13.74,0,0,0,5.06,4.52,15.75,15.75,0,0,0-1.64,1.77,14.71,14.71,0,0,0-1.4,2,16.61,16.61,0,0,1-4.75-4.33,19.28,19.28,0,0,1-6,4.45,15.12,15.12,0,0,0-1.1-2,14.37,14.37,0,0,0-1.39-2,14.13,14.13,0,0,0,6.13-4.6,36.3,36.3,0,0,1-1.73-5,10.82,10.82,0,0,1-1,1.4,20.47,20.47,0,0,0-2.19-2.14,33.73,33.73,0,0,1-4.08,4.14v.26l2.33-.16,2.71-.19v3.69l-5,.38v2.11a5.67,5.67,0,0,1-.32,2.17,2.26,2.26,0,0,1-1.17,1.17,11.8,11.8,0,0,1-4.54.61,13.13,13.13,0,0,0-1.2-3.69c.66,0,1.55,0,2.66,0,.33,0,.5-.13.5-.41v-1.64l-5.36.38-.41-3.84c.53,0,1.43-.06,2.72-.14l3.05-.18v-2.17h1.26q.53-.5,1.08-1.08h-1.43a32.79,32.79,0,0,1-4.22,2.87,18,18,0,0,0-2.87-3.31,25.86,25.86,0,0,0,3.22-1.87v-1h1.41l1.32-1.08H642v-3.72h4v-1.53h-3.11v-3.63H646v-2.49h4v2.49h2.49v2.14a25.47,25.47,0,0,0,1.79-3.87l4,1.14a38,38,0,0,1-2.84,5.75h1.26v1.93a34.46,34.46,0,0,0,2.58-9.61l4.39.7c-.23,1.43-.57,3-1,4.78h7.58Z"/><path class="cls-5" d="M650,269.91v1.53h.59q.28-.39,1-1.53Z"/><path class="cls-5" d="M653.52,276l1.08.87a18.55,18.55,0,0,0,1.23-1.75h-3l-.93,1.08h.84Z"/><path class="cls-5" d="M664.12,273.25h-2.37a35.43,35.43,0,0,0,1.32,5.39A33.23,33.23,0,0,0,664.12,273.25Z"/><polyline class="cls-5" points="676.09 271.02 676.09 265.02 682.09 265.02"/><polyline class="cls-5" points="696.13 265.02 702.13 265.02 702.13 271.02"/><polyline class="cls-5" points="702.13 286.24 702.13 292.24 697.59 292.24 697.59 291.09 691.59 291.09"/><polyline class="cls-5" points="686.42 291.09 680.42 291.09 680.42 292.24 676.09 292.24 676.09 286.24"/><polyline class="cls-5" points="680.42 280.93 680.42 286.93 686.42 286.93"/><polyline class="cls-5" points="691.59 286.93 697.59 286.93 697.59 280.93"/><polyline class="cls-5" points="697.59 275.21 697.59 269.21 691.59 269.21"/><polyline class="cls-5" points="686.42 269.21 680.42 269.21 680.42 275.21"/><path class="cls-5" d="M693.28,285.29a2.5,2.5,0,0,1-.88.65,12.72,12.72,0,0,1-4.83.61,14.48,14.48,0,0,0-1.11-3.63c.72,0,1.69.06,2.9.06.37,0,.55-.17.55-.5v-6.56H681.3v-3.66h8.61v-2.49h4v2.49h2.9v3.66h-2.9v6"/><path class="cls-5" d="M682.24,277.79l3-1.67a15.35,15.35,0,0,1,3.13,4.6l-3.19,1.79A15.67,15.67,0,0,0,682.24,277.79Z"/><path class="cls-5" d="M721.34,280.83q-2.46-1.71-4.78-3.62l-5.19,7.44-4-3.22,3.46-4.9"/><path class="cls-5" d="M712.36,274.43l3.46-4.9c1.45,1.39,2.94,2.73,4.48,4"/><path class="cls-5" d="M731,280.39a49.05,49.05,0,0,0,5.57,2.24l-1.32,5a37.86,37.86,0,0,1-5.65-2"/><path class="cls-9" d="M745.87,282a5,5,0,1,1,0,10,4.89,4.89,0,0,1-3.54-1.46,5,5,0,0,1,3.54-8.56Z"/><path class="cls-10" d="M744.11,288.72a2.47,2.47,0,1,0-.73-1.76A2.39,2.39,0,0,0,744.11,288.72Z"/></g><path class="cls-1" d="M340.1,265.26l5.18-.38.47,5.39,8.62-.82.17,4.43-8.35.47c.16,1.77.29,3.53.38,5.27a45.67,45.67,0,0,1,8.7,3.22l-1.67,4.48a65.79,65.79,0,0,0-6.91-2.95,31.38,31.38,0,0,1-.15,3.28,5.12,5.12,0,0,1-2,3.42,6.48,6.48,0,0,1-3.77,1.32,10,10,0,0,1-3-.22,6.58,6.58,0,0,1-2.72-1.29,5.82,5.82,0,0,1-1.82-2.37,7.58,7.58,0,0,1-.6-3,4.65,4.65,0,0,1,.95-2.87,7.44,7.44,0,0,1,2.33-2,11.7,11.7,0,0,1,2.89-1.12,15,15,0,0,1,3.06-.43c-.1-1.11-.2-2.14-.29-3.07Zm2,21.21c.06-1.09.08-2.19.06-3.31H342c-.51,0-1,0-1.46,0a6.08,6.08,0,0,0-1.39.26,2,2,0,0,0-1.1.84,2.11,2.11,0,0,0-.38,1.31,2.75,2.75,0,0,0,.48,2,2,2,0,0,0,1.83.82,9.87,9.87,0,0,0,1-.25,1.2,1.2,0,0,0,.78-.68A3.27,3.27,0,0,0,342.06,286.47Z"/><path class="cls-1" d="M366.17,275.37a36.84,36.84,0,0,1,3.85-1.26,18.09,18.09,0,0,1,4-.61,9,9,0,0,1,3.06.41,5.2,5.2,0,0,1,2.56,1.71,6,6,0,0,1,1.3,2.81,11.47,11.47,0,0,1-1,7.21,22.29,22.29,0,0,1-2.18,3.65,27.12,27.12,0,0,1-2.79,3.19l-5.33-1.35c.63-.74,1.22-1.49,1.79-2.25s1.1-1.55,1.61-2.36a27.76,27.76,0,0,0,1.4-2.49,8.5,8.5,0,0,0,.85-2.74,2.35,2.35,0,0,0-.27-1.51,2,2,0,0,0-1.19-1,3.85,3.85,0,0,0-1.55-.21,10.8,10.8,0,0,0-2.38.62c-.74.29-1.49.59-2.25.91s-1.51.63-2.24.95-1.45.67-2.16,1l-.82-5.1C363.68,276.41,364.91,275.86,366.17,275.37Zm12.91-9.08-.65,4.75-13.12-.91.79-5.1Z"/><path class="cls-1" d="M390.78,268.66c1.85-.29,3.73-.54,5.62-.73s3.8-.32,5.7-.38a37.52,37.52,0,0,1,5.7.26l.76,4-7.71,6.35-3.19-3.36,2.84-2.11a46.47,46.47,0,0,0-9.23,1.11Zm.41,15.71a54.31,54.31,0,0,0,8.67.64,61.14,61.14,0,0,0,9.78-1l.21,5.39a62.37,62.37,0,0,1-10.28.79,44.43,44.43,0,0,1-8.71-.85Z"/><path class="cls-1" d="M418.15,268l4.84-2.43,4.24,6.12,4.93-5.92,5.3,1.44-7.56,8.14c2.66-.1,5.31-.09,8,0l.12,5.19c-1.92-.18-3.84-.28-5.78-.3a14.79,14.79,0,0,0-2,1.12,8.74,8.74,0,0,0-1.74,1.54,4.53,4.53,0,0,0-1,2.06c-.29,1.56.25,2.4,1.64,2.52a6.86,6.86,0,0,0,2.34-.16c.78-.19,1.55-.41,2.3-.67a20.27,20.27,0,0,0,2.19-.93v4.75a15.31,15.31,0,0,1-7.8,2,5.49,5.49,0,0,1-4.2-1.92,6,6,0,0,1-1.54-4.35,6.37,6.37,0,0,1,1.13-3.28,10.43,10.43,0,0,1,2.44-2.52,69.87,69.87,0,0,0-8.43,1.38l-.44-5.07,6.71-.76,3.42-4.16L423,273.58Z"/><path class="cls-1" d="M454.43,288.38l-3.86,3.34a54.47,54.47,0,0,0-6.36-6.56l3.81-3.29a42.13,42.13,0,0,1,3.44,3.21Q453.38,287.06,454.43,288.38Z"/><path class="cls-1" d="M487.37,264.79v23.09q0,.83,0,1.14a12,12,0,0,0,1.65-4.33l3.36,1.17a13.12,13.12,0,0,1-2.4,6L487.17,290a2.67,2.67,0,0,1-1,1.44,3.3,3.3,0,0,1-1.51.62,15,15,0,0,1-2.3.14,13.08,13.08,0,0,0-1-4c.47,0,1.07.06,1.81.06.26,0,.39-.15.39-.47v-5.36h-1.79a35.74,35.74,0,0,1-1.67,9.76,15,15,0,0,0-3.34-1.82q1.58-4.42,1.58-14.59v-11ZM482,278.42h1.59v-2.93H482v.29Q482,277.48,482,278.42Zm1.59-9.7H482v2.84h1.56Zm21.88,1.93V274h-17.7v-3.34H491a9.5,9.5,0,0,0-.59-1.78l.41-.09H488.6v-3.14h5.6v-1.81h4.34v1.81h6v3.14h-1.9l-.91,1.87Zm.5,19.46-3.55,1.73a11,11,0,0,0-1-2.61,4,4,0,0,1-1,2.31,3.19,3.19,0,0,1-2.18.65h-2.11a3.85,3.85,0,0,1-2.89-.82,4.71,4.71,0,0,1-.72-3V285.1h2a9.1,9.1,0,0,0-1.29-.73l1.06-1.06H489.4v-8.58h14.41v8.58h-6.09a15,15,0,0,1,2.22,1.55l-2.46,2.41a8.58,8.58,0,0,0-1.23-1v2.08a2.16,2.16,0,0,0,.07.69c.05.09.18.13.4.13h.94a.47.47,0,0,0,.45-.35,6.15,6.15,0,0,0,.19-1.5,7.68,7.68,0,0,0,2.61,1.09,25.34,25.34,0,0,0-1.67-2.55l3.28-1.58A16.78,16.78,0,0,1,506,290.11Zm-12.72-13v.85h6.54v-.85Zm0,3.05V281h6.54v-.85Zm5.07-11.34h-3.92a10.11,10.11,0,0,1,.64,1.87h2.64C498,269.85,498.16,269.23,498.3,268.78Z"/><path class="cls-1" d="M527.93,266.9h10.34v3.87H518.62v5.13q0,11.4-4.93,16.2a11.63,11.63,0,0,0-1.46-1.57,10.52,10.52,0,0,0-1.67-1.33,12.45,12.45,0,0,0,3.19-6c-.21.12-.66.38-1.33.79s-1.2.72-1.57.91l-1.2-4.13q1.38-.53,4.75-2.17c0-.64.06-1.56.06-2.75v-.65l-2.76,1.5a22.32,22.32,0,0,0-1.9-5.8l3.13-1.55a30.57,30.57,0,0,1,1.53,3.51v-6h8.84v-3.13h4.63Zm-8.49,9v-3.64H538.1v3.64h-7.88v1.61h7.09V288.2a5.92,5.92,0,0,1-.32,2.14,2.52,2.52,0,0,1-1.18,1.26,9.42,9.42,0,0,1-4.33.65,11.88,11.88,0,0,0-1.35-3.75l1.51,0c.56,0,.9,0,1,0,.33,0,.5-.14.5-.41v-1.59l-1.79,1.67a38.72,38.72,0,0,0-2.9-2.87,10,10,0,0,1-3.4,3.08,9.56,9.56,0,0,0-1.26-1.58v5.45H520V277.54h6.48v-1.61Zm4.39,5.27V285a5.72,5.72,0,0,0,2.43-3.81Zm9.35,3.69V281.2h-3.11l-.09.47c0,.21-.07.37-.08.47Q532.12,283.92,533.18,284.89Z"/><path class="cls-1" d="M543.33,269.16l6.29-.12,1.38-4.83,4.89.41-1.17,4.31,3.87-.06-.53,5.07-4.63.05-3.13,13.54-5.1-.5,3.08-12.86-4.75-.06Zm16.52,5.51,4.45.12.35,5.56a56.4,56.4,0,0,1,7.09,1.64l-1.81,4.66q-2.58-1-5.22-1.79a25.4,25.4,0,0,1-.17,3.11,5.27,5.27,0,0,1-1.78,3.22,5.37,5.37,0,0,1-3.38,1.35,7.74,7.74,0,0,1-2.71-.25,5.72,5.72,0,0,1-2.36-1.3,5.3,5.3,0,0,1-1.46-2.26,8.21,8.21,0,0,1-.44-2.67,4.78,4.78,0,0,1,1.36-3.28,8,8,0,0,1,3-2,12.12,12.12,0,0,1,3.58-.72C560.22,278.29,560,276.48,559.85,274.67Zm.61,12.24a27.83,27.83,0,0,0,.09-2.9l-1.23.06a3.78,3.78,0,0,0-1.17.25,1.69,1.69,0,0,0-.89.75,1.92,1.92,0,0,0-.28,1.11,2.27,2.27,0,0,0,.32,1.7,1.44,1.44,0,0,0,1.46.7,3.7,3.7,0,0,0,.87-.22,1,1,0,0,0,.6-.58A3,3,0,0,0,560.46,286.91ZM566,266.38l4.31,2.25-4.19,5.86-4-2Z"/><path class="cls-1" d="M603.66,288.17l-.88.27a13.89,13.89,0,0,0,1.76.5,4,4,0,0,1-1.11,2.53,4.47,4.47,0,0,1-2.76.66h-4.1c-1.82,0-3-.26-3.65-.78a3.71,3.71,0,0,1-.92-2.91v-2.73h-1.38a8.14,8.14,0,0,1-2.27,4.1,12.55,12.55,0,0,1-5.4,2.61,10.37,10.37,0,0,0-1-1.79,8.76,8.76,0,0,0-1.31-1.58,12.34,12.34,0,0,0,4.06-1.33,3.91,3.91,0,0,0,1.65-2h-2.9v-8.17H590c.06-.24.19-.74.41-1.52l-1.12-.8v1.67h-3v-1.67a8.6,8.6,0,0,1-2.49,1.73,10.56,10.56,0,0,0-1.79-2.11v.79q0,11.52-3.08,16.79a13.25,13.25,0,0,0-1.61-1.46,9.68,9.68,0,0,0-1.7-1.17,16.19,16.19,0,0,0,1.6-4.59,30.66,30.66,0,0,0,.67-4.76c.07-1.35.11-2.95.11-4.81v-9.75h10.95v-2.11h4.57v2.11h10.64v3.54h-4.45v.91h4.13v2.55h-2.9a14.56,14.56,0,0,0,3.57,1.79A8.56,8.56,0,0,0,602.4,277a12,12,0,0,1-2.72-1.84v1.75h-3.14v-1.64a8.25,8.25,0,0,1-2.17,1.56l-.26.41a3.57,3.57,0,0,0-.21.32H602v8l.38-.09A11,11,0,0,1,603.66,288.17ZM582,269.42v5.19a10,10,0,0,0,3.13-1.73h-2.4v-2.55h3.55v-.91Zm5.19,10.46v.79h3.54v-.79Zm0,2.7v.79h3.54v-.79Zm9.37-12.25v-.91H589.3v.91h3.29v2.55h-3.17a33.75,33.75,0,0,1,3.28,1.32l-.32.38a10.8,10.8,0,0,0,3-1.7h-1.91v-2.55Zm-4.34,4.43-.93,1.08,2.14.2A9.26,9.26,0,0,0,592.2,274.76Zm5.89,5.91v-.79h-3.63v.79Zm-3.63,2.7h3.63v-.79h-3.63Zm2.58,5.92h3.22a.93.93,0,0,0,1-.5,2.9,2.9,0,0,0-.12-.38l-2.18.23-2.39.27-.38-2.11.88,0c0-.08.05-.24.1-.49s.08-.43.1-.57h-1.52v2.7c0,.39.08.63.23.73A2.45,2.45,0,0,0,597,289.29Zm2.34-2.58,1,0a2.12,2.12,0,0,1-.15-.28,2.37,2.37,0,0,0-.14-.28l1.43-.41h-1.67a4.78,4.78,0,0,1-.22.52C599.49,286.45,599.42,286.61,599.38,286.71Z"/><path class="cls-1" d="M637,274.79H632.7a26.2,26.2,0,0,1-3.6,9.25,55.08,55.08,0,0,1,7.56,4.28l-3.34,4.1a47.93,47.93,0,0,0-7.68-4.71,19.08,19.08,0,0,1-5.65,2.85,49.45,49.45,0,0,1-7.94,1.77,12.78,12.78,0,0,0-2.29-4.36q7.25-.74,10.9-2.7c-1.5-.7-2.71-1.23-3.63-1.58l-.38.88L612.17,283c1-2,2.2-4.75,3.63-8.2h-6.33v-4.43h8.09q1.08-2.81,2.37-6.59l4.81.85c-.88,2.36-1.61,4.28-2.17,5.74H637Zm-9.37,0h-6.83q-1.41,3.39-2.08,4.95c2.81,1.05,4.75,1.8,5.8,2.25A18.76,18.76,0,0,0,627.67,274.79Z"/><path class="cls-1" d="M670.45,273.23h-1.7a33.36,33.36,0,0,1-3,10.75,13.85,13.85,0,0,0,5.07,4.52,14.87,14.87,0,0,0-1.64,1.77,15.83,15.83,0,0,0-1.41,2A16.56,16.56,0,0,1,663,288a19.4,19.4,0,0,1-6,4.45,15.12,15.12,0,0,0-1.1-2,14.37,14.37,0,0,0-1.39-2,14,14,0,0,0,6.12-4.6,36.31,36.31,0,0,1-1.72-5,10.82,10.82,0,0,1-1,1.4,20.67,20.67,0,0,0-2.2-2.14,33.62,33.62,0,0,1-4.07,4.14v.26l2.33-.16,2.71-.19v3.69l-5,.38v2.11a5.87,5.87,0,0,1-.32,2.17,2.3,2.3,0,0,1-1.17,1.17,11.83,11.83,0,0,1-4.54.61,12.87,12.87,0,0,0-1.21-3.69q1,0,2.67,0c.33,0,.5-.13.5-.41v-1.64l-5.36.38-.41-3.84c.52,0,1.43-.06,2.72-.14l3-.18v-2.17h1.26q.52-.5,1.08-1.08h-1.43a33.5,33.5,0,0,1-4.22,2.87,18.4,18.4,0,0,0-2.87-3.31,25.86,25.86,0,0,0,3.22-1.87v-1h1.41l1.31-1.08h-5.24v-3.72h4v-1.53h-3.1v-3.63h3.1v-2.49h4v2.49h2.49v2.14a24.51,24.51,0,0,0,1.78-3.87l4,1.14a38,38,0,0,1-2.84,5.75h1.26v1.93a34.13,34.13,0,0,0,2.57-9.61l4.4.7c-.24,1.43-.57,3-1,4.78h7.59Zm-20.27-3.34v1.53h.58c.2-.26.54-.77,1-1.53Zm2.69,6.33.79-.2,1.09.87c.52-.68.93-1.27,1.23-1.75h-3c-.45.52-.76.89-.94,1.08Zm11.4-3H661.9a36.68,36.68,0,0,0,1.31,5.39A34.08,34.08,0,0,0,664.27,273.23Z"/><path class="cls-1" d="M676.23,265h26v27.22h-4.54v-1.15H680.57v1.15h-4.34Zm4.34,21.91h17.17V269.19H680.57ZM697,272.24v3.66h-2.9v6.68a5.64,5.64,0,0,1-.33,2.17,2.29,2.29,0,0,1-1.2,1.17,12.76,12.76,0,0,1-4.83.61,14.14,14.14,0,0,0-1.12-3.63c.73,0,1.69.06,2.91.06.37,0,.55-.17.55-.5V275.9h-8.61v-3.66h8.61v-2.49h4v2.49Zm-14.59,5.53,3-1.67a15.54,15.54,0,0,1,3.13,4.6l-3.19,1.79A15.67,15.67,0,0,0,682.39,277.77Z"/><path class="cls-1" d="M707.56,281.41l8.41-11.9q2.29,2.21,4.72,4.21a50.91,50.91,0,0,0,16,8.89l-1.31,5a38.37,38.37,0,0,1-10.11-4.34,77.3,77.3,0,0,1-8.62-6.12l-5.18,7.44Z"/><path class="cls-1" d="M746,281.93a5,5,0,1,1,0,10,5,5,0,0,1-5-5,5,5,0,0,1,5-5Zm-1.75,6.77a2.48,2.48,0,1,0,3.51-3.51,2.48,2.48,0,1,0-3.51,3.51Z"/></g><g id="line"><g id="line-2" data-name="line"><line class="cls-11" x1="7.92" y1="239.3" x2="13.92" y2="239.3"/><line class="cls-12" x1="25.92" y1="239.3" x2="1052.25" y2="239.3"/><line class="cls-11" x1="1058.26" y1="239.3" x2="1064.26" y2="239.3"/></g><circle class="cls-1" cx="1064.11" cy="239.38" r="8.11"/><circle class="cls-1" cx="8.11" cy="239.26" r="8.11"/></g></g></g></g></svg>