<svg xmlns="http://www.w3.org/2000/svg" viewBox="0 0 1099.6 74.64"><defs><style>.cls-1{fill:#950732;}</style></defs><title>アセット 31</title><g id="レイヤー_2" data-name="レイヤー 2"><g id="top"><path d="M2.1,47.21a.62.62,0,0,1-.7.7,2.13,2.13,0,0,1-.67-.1c-.21-.07-.31-.27-.31-.6q0-10.58-.21-21T0,5.21a.62.62,0,0,1,.7-.7q5.18,0,10.26.25T21.21,5c.51,0,.77.23.77.7s-.26.7-.77.7H2.8a.62.62,0,0,0-.7.7Z"/><path d="M52.5,8.92c0-.42.33-.77,1-1a7.17,7.17,0,0,1,2.45-.49,20.53,20.53,0,0,1,3.18.11,13.7,13.7,0,0,1,3.16.66,7.68,7.68,0,0,1,2.41,1.3,2.41,2.41,0,0,1,1,1.92,3.23,3.23,0,0,1-.31,1.4c-.22.42-.45.84-.71,1.26a12.41,12.41,0,0,0-.69,1.3,3,3,0,0,0-.32,1.36c0,.61.33.91,1,.91A7.35,7.35,0,0,0,67.38,17c1-.4,1.94-.83,3-1.3s2.06-.9,3.11-1.29a9.14,9.14,0,0,1,3.26-.6c.56,0,1.12,0,1.68.07a4.78,4.78,0,0,1,1.54.39,2.57,2.57,0,0,1,1.12.94,3,3,0,0,1,.42,1.68,3.15,3.15,0,0,1-1.36,2.59,11.46,11.46,0,0,1-3.43,1.72,33.23,33.23,0,0,1-4.56,1.08c-1.65.28-3.23.54-4.72.77s-2.8.49-3.92.77A3.33,3.33,0,0,0,61.39,25a7.14,7.14,0,0,0-.28,1c-.14.58-.29,1.23-.46,2s-.3,1.42-.42,2.1S60,31.13,60,31.32a.38.38,0,0,0,.42.28A25.62,25.62,0,0,0,65.66,31c1.77-.37,3.48-.79,5.11-1.26.33-.09.49-.23.49-.42a2.1,2.1,0,0,0-.35-1c-.23-.4-.45-.77-.67-1.12a3.22,3.22,0,0,1-.38-.91c0-.26.12-.39.49-.39a2.75,2.75,0,0,1,1.64.53,9.34,9.34,0,0,1,1.4,1.22l1.37,1.44A4.5,4.5,0,0,0,76.3,30.2a21.13,21.13,0,0,0,2.49,1,21.68,21.68,0,0,1,2.48,1,34.53,34.53,0,0,1,4.9,2.59A16.61,16.61,0,0,1,89.88,38a13.14,13.14,0,0,1,2.38,4.2,16.61,16.61,0,0,1,.84,5.53,15.8,15.8,0,0,1-2.83,9.63,21,21,0,0,1-7.18,6.09,33.41,33.41,0,0,1-9.52,3.22,55,55,0,0,1-9.87.94H62.47a2.64,2.64,0,0,1-1.22-.28c.14-.28.82-.63,2-1s2.69-1,4.44-1.64A53,53,0,0,0,73.32,62a26.23,26.23,0,0,0,5.5-3.89A20.57,20.57,0,0,0,83,52.71a15.21,15.21,0,0,0,1.68-7.32,18.14,18.14,0,0,0-.56-4.3,14.53,14.53,0,0,0-1.71-4.17,10.57,10.57,0,0,0-3-3.15,7,7,0,0,0-4.16-1.26.67.67,0,0,0-.63.42A32.66,32.66,0,0,0,73,35.77a24.77,24.77,0,0,1-1.71,2.83c-.61.89-1.29,1.8-2,2.73s-1.47,1.88-2.17,2.84-1.35,1.93-2,2.94a14,14,0,0,0-1.4,3,3.5,3.5,0,0,0-.11,1.44A11,11,0,0,0,64,53.06q.21.73.42,1.5A5.55,5.55,0,0,1,64.61,56a3.08,3.08,0,0,1-.88,2.24,2.9,2.9,0,0,1-2.2.91,3.11,3.11,0,0,1-1.36-.31,9,9,0,0,1-1.23-.7c-.37-.26-.72-.49-1-.7a1.67,1.67,0,0,0-.84-.32,1.59,1.59,0,0,0-.59.28,3.81,3.81,0,0,0-.6.42c-.93.65-1.9,1.27-2.9,1.86a32.49,32.49,0,0,1-3.12,1.57,18.84,18.84,0,0,1-2.66,1,15.08,15.08,0,0,1-2.2.45,18.61,18.61,0,0,1-2.28.14H39.9a2.06,2.06,0,0,1-1.61-.7,5.63,5.63,0,0,1-1-1.68,10.69,10.69,0,0,1-.56-2,11.7,11.7,0,0,1-.17-1.75,16.93,16.93,0,0,1,1.15-6.33,20.16,20.16,0,0,1,3.12-5.32,31.12,31.12,0,0,1,4.44-4.45q2.49-2,5.15-3.78c.19-.14.45-.33.81-.56l1.08-.73,1.05-.74a2.47,2.47,0,0,0,.63-.56,4.91,4.91,0,0,0,1.12-2.76c.09-1.05.14-2.05.14-3,0-.14,0-.38,0-.73a4.32,4.32,0,0,0,0-1A4.63,4.63,0,0,0,55,25.9a.54.54,0,0,0-.56-.39H45.92a4.3,4.3,0,0,1-2.59-.87,9.22,9.22,0,0,1-2-1.93c-.19-.28-.4-.62-.63-1s-.44-.81-.63-1.23a11.8,11.8,0,0,1-.49-1.29A4,4,0,0,1,39.41,18a2.62,2.62,0,0,1,.07-.49c.05-.23.16-.35.35-.35a3.29,3.29,0,0,1,1.05.35q.76.34,1.71.81a19.63,19.63,0,0,0,2,.8,5.87,5.87,0,0,0,1.86.35H56a.62.62,0,0,0,.7-.7V11.72c0-.19-.18-.41-.53-.66a6.41,6.41,0,0,0-1.22-.7l-1.33-.6-.91-.42Zm-9.38,44.8c0,.89.16,1.39.49,1.51a5.52,5.52,0,0,0,1.61.17,12.26,12.26,0,0,0,2.34-.35,21.15,21.15,0,0,0,3.19-1,15.57,15.57,0,0,0,2.83-1.43c.82-.54,1.23-1.11,1.23-1.72a7.14,7.14,0,0,0-.18-1.57c-.11-.54-.22-1.07-.31-1.58A16.75,16.75,0,0,1,54,43.64a11.32,11.32,0,0,0-.52-4.06l-.21-.42c-.05-.09-.19-.14-.42-.14a2.15,2.15,0,0,0-1.58.53c-.35.35-.73.75-1.15,1.22-.79.89-1.61,1.77-2.45,2.66a23,23,0,0,0-2.27,2.8,14.33,14.33,0,0,0-1.65,3.15A10.08,10.08,0,0,0,43.12,53Zm16.8-15.26c0,.56,0,1.18,0,1.86s0,1.36,0,2.06.08,1.39.14,2.07a9.51,9.51,0,0,0,.32,1.71,2.89,2.89,0,0,0,.21.39c.05.07.19.1.42.1a2.4,2.4,0,0,0,1.57-.87,12.5,12.5,0,0,0,1.65-2.07c.51-.79,1-1.59,1.43-2.38s.76-1.4.95-1.82.65-1.12,1.12-1.82.94-1.4,1.43-2.1.92-1.38,1.3-2a5.8,5.8,0,0,0,.7-1.68c0-.28-.05-.42-.28-.42a24.86,24.86,0,0,0-2.55.18c-1.1.11-2.22.29-3.36.52a13,13,0,0,0-3.12,1,3.16,3.16,0,0,0-1.75,1.57,2.85,2.85,0,0,0-.1.7c0,.33,0,.69,0,1.09v1.92Z"/><path d="M134.82,18.09c.37-.19.86-.44,1.47-.77s1.25-.65,1.92-1a17.3,17.3,0,0,1,1.93-.8,4.83,4.83,0,0,1,1.47-.32q3.15,0,3.15,3.22A4.08,4.08,0,0,1,144,21a5.47,5.47,0,0,1-1.92,1.54,10.52,10.52,0,0,1-2.66.87q-1.47.29-2.94.6a28.58,28.58,0,0,0-2.77.73A5.25,5.25,0,0,0,131.6,26a7.15,7.15,0,0,0-1.3,1.79,14.77,14.77,0,0,0-.87,2.06c-.37,1-.82,2.42-1.33,4.17s-1.11,3.66-1.79,5.74-1.43,4.18-2.27,6.33a45,45,0,0,1-2.73,5.81,18.27,18.27,0,0,1-3.19,4.24,5.25,5.25,0,0,1-3.67,1.64,2.72,2.72,0,0,1-2.73-1.5,7.46,7.46,0,0,1-.7-3.19,9.82,9.82,0,0,1,.91-4.2,22.76,22.76,0,0,1,2.2-3.74q1.31-1.78,2.77-3.5a24,24,0,0,0,2.52-3.54c.19-.33.54-.94,1-1.85s1-1.88,1.57-2.91,1-2,1.44-2.87a6,6,0,0,0,.63-1.68c0-.33,0-.78,0-1.36s-.22-.88-.73-.88c-1.59,0-3.21,0-4.87-.14a14.15,14.15,0,0,1-4.48-.94A7.42,7.42,0,0,1,110.81,23a8.14,8.14,0,0,1-1.26-4.87c0-.42.23-.63.7-.63a4.91,4.91,0,0,1,1.54.32c.61.21,1.22.45,1.85.73l1.86.84a12.49,12.49,0,0,0,1.61.63,7.9,7.9,0,0,0,3,.53c1,0,2,0,3.12,0a12.29,12.29,0,0,0,2.34-.17,1.9,1.9,0,0,0,1.19-.7,3,3,0,0,0,.49-1.44q.11-.91.18-2.31a4.29,4.29,0,0,0-.6-2.59,8.72,8.72,0,0,0-1.5-1.82c-.56-.51-1.07-1-1.54-1.36a1.77,1.77,0,0,1-.7-1.37.92.92,0,0,1,.59-.8A4.15,4.15,0,0,1,125,7.49c.51-.07,1-.12,1.54-.14s.89,0,1.12,0c.51,0,1.17,0,2,0a20,20,0,0,1,2.41.21,7.4,7.4,0,0,1,2.21.63,2.81,2.81,0,0,1,1.4,1.29,2.91,2.91,0,0,1,.17,1.75,15.72,15.72,0,0,1-.49,2c-.21.67-.43,1.35-.66,2a5.2,5.2,0,0,0-.31,2.52C134.39,18,134.54,18.14,134.82,18.09Zm10,29.19.07-.07.21-.49q0-1.39,0-3.18c0-1.19.09-2.4.18-3.61a25.22,25.22,0,0,1,.52-3.53A9,9,0,0,1,147,33.49a9.65,9.65,0,0,1,1.85-2c1-.89,2.06-1.78,3.15-2.69l3-2.49a6.75,6.75,0,0,0,1.33-1.26,1.85,1.85,0,0,0-.73-1.54,6.54,6.54,0,0,0-1.72-.91c-.65-.23-1.33-.44-2-.63a5.77,5.77,0,0,1-1.68-.7L150,21a1,1,0,0,1,.59-.63,4.46,4.46,0,0,1,1.05-.31,9.89,9.89,0,0,1,1.16-.14c.37,0,.68,0,.91,0a42.3,42.3,0,0,1,5.25.32,12.08,12.08,0,0,1,4.41,1.36,8,8,0,0,1,3,3.05,10.49,10.49,0,0,1,1.16,5.28,3.13,3.13,0,0,1-.56,2.21,3.4,3.4,0,0,1-2.24.52,9.51,9.51,0,0,1-2.45-.31c-.79-.21-1.58-.45-2.35-.7s-1.55-.49-2.34-.7a9.52,9.52,0,0,0-2.45-.32,6.47,6.47,0,0,0-4,1.09q-1.44,1.08-1.44,3.81c0,.79,0,1.81.07,3s.15,2.48.32,3.74a25.82,25.82,0,0,0,.69,3.54,6.24,6.24,0,0,0,1.3,2.55,8.92,8.92,0,0,0,2.94,2.17,30.38,30.38,0,0,0,3.43,1.33L161.94,53A9.52,9.52,0,0,1,165,54.53a7.54,7.54,0,0,1,2.17,2.66,9.63,9.63,0,0,1,.84,4.37v.81a1.69,1.69,0,0,1-.14.73,3.89,3.89,0,0,1-2.94,1.68,4.24,4.24,0,0,1-3-1.19A32,32,0,0,1,159.46,61,32,32,0,0,0,157,58.41a4.24,4.24,0,0,0-3-1.19,2.15,2.15,0,0,0-.6.07.64.64,0,0,0-.38.42,5.75,5.75,0,0,0-.18,1c0,.37-.05.72-.1,1.05a8.57,8.57,0,0,1-3.57,6,11.26,11.26,0,0,1-4.24,1.82,21.93,21.93,0,0,1-9,0,13.07,13.07,0,0,1-4-1.54,8.88,8.88,0,0,1-2.94-2.84,7.87,7.87,0,0,1-1.12-4.34,8.82,8.82,0,0,1,1.61-5.39,11.82,11.82,0,0,1,4-3.46,18.26,18.26,0,0,1,5.31-1.86,41,41,0,0,1,5.57-.7Zm.28,7.49c0-.33,0-.64,0-.94a1.57,1.57,0,0,0-.24-.95,1,1,0,0,0-.6-.45,5.76,5.76,0,0,0-1-.28,7.9,7.9,0,0,0-1.06-.14c-.35,0-.61,0-.8,0-.93,0-2,0-3.29.11a15.67,15.67,0,0,0-3.57.59,6.94,6.94,0,0,0-2.87,1.61,4,4,0,0,0-1.19,3.08,3.17,3.17,0,0,0,.66,2.07,4.91,4.91,0,0,0,1.65,1.26,8.07,8.07,0,0,0,2.17.63,16,16,0,0,0,2.17.17,13.22,13.22,0,0,0,3.11-.35A6.93,6.93,0,0,0,142.83,60a5.27,5.27,0,0,0,1.68-2.1A7.42,7.42,0,0,0,145.11,54.77Z"/><path d="M199.78,30.27a.62.62,0,0,0-.7-.7c-1.45,0-3-.06-4.66-.17a16.72,16.72,0,0,1-4.62-1A8.68,8.68,0,0,1,186.27,26a6.73,6.73,0,0,1-1.4-4.55c0-.47.32-.66.95-.59a9.63,9.63,0,0,1,2.13.52c.79.28,1.55.58,2.28.91a8.89,8.89,0,0,0,1.43.56,8.71,8.71,0,0,0,2.21.39c.72,0,1.45,0,2.2,0,1.17,0,2.17,0,3,0a4.4,4.4,0,0,0,2.1-.53,3,3,0,0,0,1.26-1.54,9,9,0,0,0,.42-3.15c0-.79,0-1.73.1-2.8a7.45,7.45,0,0,0-.24-2.73,4,4,0,0,0-.91-1.5,9.79,9.79,0,0,0-1.29-1.16L199.36,9c-.33-.26-.49-.46-.49-.6s.19-.42.56-.56a6.11,6.11,0,0,1,1.26-.31,13.36,13.36,0,0,1,1.36-.14l.88,0c.65,0,1.55,0,2.69,0a17.93,17.93,0,0,1,3.37.38,8.38,8.38,0,0,1,2.83,1.12A2.51,2.51,0,0,1,213,11.09a6.21,6.21,0,0,1-.56,2.52A26.06,26.06,0,0,1,211.23,16q-.67,1.16-1.23,2.31a5.08,5.08,0,0,0-.56,2.2c0,.23.14.35.42.35a4.65,4.65,0,0,0,2.31-.73c.84-.49,1.73-1,2.66-1.61a32.34,32.34,0,0,1,2.87-1.61,6.53,6.53,0,0,1,2.94-.74,8.07,8.07,0,0,1,1.82.21,4.85,4.85,0,0,1,1.61.67,3.77,3.77,0,0,1,1.16,1.19,3.34,3.34,0,0,1,.45,1.78,3,3,0,0,1-1.22,2.28,12.44,12.44,0,0,1-3.05,1.78,32.6,32.6,0,0,1-4,1.37c-1.45.39-2.82.74-4.13,1.05s-2.43.57-3.36.8a4.45,4.45,0,0,0-1.68.63,13.38,13.38,0,0,0-2.76,5q-1.23,3.47-2.42,7.77t-2.34,8.89A71.21,71.21,0,0,1,198.1,58a27.09,27.09,0,0,1-3.26,6.23,5.1,5.1,0,0,1-4.16,2.45,3.28,3.28,0,0,1-1.82-.49,5,5,0,0,1-1.33-1.26,5.68,5.68,0,0,1-.84-1.71,6.41,6.41,0,0,1-.28-1.86,11.74,11.74,0,0,1,1-4.41A37.42,37.42,0,0,1,189.88,52q1.5-2.57,3.21-5.29c1.15-1.82,2.22-3.65,3.23-5.49a38.88,38.88,0,0,0,2.48-5.53A16.33,16.33,0,0,0,199.78,30.27ZM211.89,48.4l.28.21a15.39,15.39,0,0,0,1.5,3.12,15.84,15.84,0,0,0,2.21,2.76,12.14,12.14,0,0,0,2.8,2.1,10.29,10.29,0,0,0,3.22,1.12,17.67,17.67,0,0,0,3.57.21c1.21-.05,2.43-.13,3.64-.24l3.6-.35c1.2-.12,2.4-.18,3.61-.18a18.68,18.68,0,0,1,2.14.14,7.58,7.58,0,0,1,2.13.56,4.37,4.37,0,0,1,1.65,1.23,3.12,3.12,0,0,1,.66,2.06,3.68,3.68,0,0,1-1.05,2.77,6.9,6.9,0,0,1-2.59,1.54,13.28,13.28,0,0,1-3.26.66c-1.14.09-2.13.14-3,.14q-4,0-7.91-.31a21.34,21.34,0,0,1-7-1.72A11.85,11.85,0,0,1,213,60q-1.92-2.87-1.92-7.91c0-.61,0-1.18,0-1.71a6.59,6.59,0,0,1,.31-1.72Zm13.44-9.1c.14-.14.41-.38.8-.73s.81-.73,1.23-1.12a14.15,14.15,0,0,0,1.09-1.16,1.73,1.73,0,0,0,.45-.77,1,1,0,0,0-.45-.87,3.51,3.51,0,0,0-1.09-.49,5.61,5.61,0,0,0-1.29-.21c-.45,0-.81,0-1.09,0h-7.77a2.21,2.21,0,0,1-.46-.07c-.21-.05-.31-.16-.31-.35a.53.53,0,0,1,.1-.28c.08-.09.16-.19.25-.28a11,11,0,0,1,3.5-1.89,30.85,30.85,0,0,1,5-1.33,31.36,31.36,0,0,1,5.6-.49,20.19,20.19,0,0,1,5.22.63A8.78,8.78,0,0,1,240,31.92a4.93,4.93,0,0,1,1.5,3.74v.84a2.74,2.74,0,0,1-.14.84,2,2,0,0,1-1.78,1.26l-2.28.21c-2,.19-4,.44-6,.77a35.74,35.74,0,0,1-5.95.49l-.28-.28Z"/><path d="M263.34,11.37a.75.75,0,0,1,.31-.87,1.67,1.67,0,0,1,1-.32,5.12,5.12,0,0,1,2.94,1.44A24.66,24.66,0,0,1,270.93,15a30.06,30.06,0,0,1,2.84,4A6.83,6.83,0,0,1,275,22.08a14,14,0,0,1-1.26,5.81q-1.26,2.81-2.77,5.67a62.45,62.45,0,0,0-2.76,6.06,18.73,18.73,0,0,0-1.26,7,6.33,6.33,0,0,0,.42,2.14,1.59,1.59,0,0,0,1.61,1.15,2.14,2.14,0,0,0,1.47-.8,13.91,13.91,0,0,0,1.54-2,28.46,28.46,0,0,0,1.47-2.59c.47-.93.92-1.81,1.36-2.62s.86-1.51,1.23-2.07a2.16,2.16,0,0,1,1.05-1c.14-.05.21,0,.21.25a1,1,0,0,1-.07.45q-1.33,3.78-2.56,7.7a27,27,0,0,0-1.22,8,16.41,16.41,0,0,0,.42,3.19,25.72,25.72,0,0,1,.52,3.92,7.07,7.07,0,0,1-.52,3.32,2.68,2.68,0,0,1-2.73,1.4,6.26,6.26,0,0,1-3.54-1,8.93,8.93,0,0,1-2.55-2.7,15.49,15.49,0,0,1-1.68-3.78,32.62,32.62,0,0,1-1-4.27c-.23-1.45-.4-2.85-.49-4.2s-.14-2.52-.14-3.5a41.21,41.21,0,0,1,.59-6.93c.4-2.29.85-4.56,1.33-6.82s1-4.54,1.37-6.83a38.34,38.34,0,0,0,.63-6.93,19,19,0,0,0-.21-2.94,15.83,15.83,0,0,0-.77-2.87,10.12,10.12,0,0,0-.74-1.47A4.67,4.67,0,0,1,263.34,11.37Zm21.28,33.74c.89,1.17,1.63,2.24,2.24,3.22a18.17,18.17,0,0,0,2,2.63,11.1,11.1,0,0,0,2.52,2,13.77,13.77,0,0,0,3.92,1.43,15.11,15.11,0,0,0,2.83.42c1,0,1.91.07,2.84.07a34.46,34.46,0,0,0,5.56-.45,33.58,33.58,0,0,1,5.57-.46,21.91,21.91,0,0,1,2.31.14,7.69,7.69,0,0,1,2.31.6A4.89,4.89,0,0,1,318.46,56a3.17,3.17,0,0,1,.74,2.17,3.42,3.42,0,0,1-.84,2.35,7,7,0,0,1-2.07,1.57,10.09,10.09,0,0,1-2.59.91,12.15,12.15,0,0,1-2.48.28h-13a13,13,0,0,1-8.09-2.72,14.65,14.65,0,0,1-5-7,15.48,15.48,0,0,1-.49-1.82,21.39,21.39,0,0,1-.42-2.62c-.09-.91-.14-1.77-.14-2.56a3,3,0,0,1,.35-1.68Zm10.43-13.72c.37-.37.84-.83,1.4-1.36s1.11-1.11,1.64-1.72,1-1.21,1.51-1.82a5.19,5.19,0,0,0,.91-1.61l-.14-.49a2,2,0,0,0-1.61-.76H295.4a31.71,31.71,0,0,0-4.1.27,29.8,29.8,0,0,1-4.09.28q-.63,0-.63-.69c0-.51.36-1,1.09-1.53a13.79,13.79,0,0,1,2.79-1.45,38.77,38.77,0,0,1,3.78-1.28c1.38-.4,2.72-.74,4-1s2.47-.55,3.5-.73a13.76,13.76,0,0,1,2.24-.28q1.47,0,3.57.21a19,19,0,0,1,4.06.86A10.25,10.25,0,0,1,315,20.09a3.9,3.9,0,0,1,1.4,3.12A3.1,3.1,0,0,1,316,25a2.49,2.49,0,0,1-1.12.87,5.39,5.39,0,0,1-1.58.35l-1.71.14a34,34,0,0,0-3.47.6q-1.71.38-3.39.87a48.45,48.45,0,0,0-6.65,2.45c-.47.23-.93.49-1.4.77a4.34,4.34,0,0,1-1.47.56Z"/><path class="cls-1" d="M390.73,59.36a1.7,1.7,0,0,0,.68.32,3.69,3.69,0,0,0,.76.08,2.62,2.62,0,0,0,1.76-.4,1.58,1.58,0,0,0,.48-.84q.07-.44.12-.84c0-.27.28-.4.76-.4a4.33,4.33,0,0,1,1.76.44,8.44,8.44,0,0,1,1.8,1.12,6.68,6.68,0,0,1,1.4,1.52,3.08,3.08,0,0,1,.56,1.72,1.89,1.89,0,0,1-1,1.72,4,4,0,0,1-2,.6,1.63,1.63,0,0,1-1-.32,4.09,4.09,0,0,1-.72-.72,4.09,4.09,0,0,0-.72-.72,1.78,1.78,0,0,0-1.12-.32,10.29,10.29,0,0,0-1.72.2,10.13,10.13,0,0,0-2.12.64,6.24,6.24,0,0,0-1.76,1.08,1.91,1.91,0,0,0-.72,1.44,1.61,1.61,0,0,0,.12.56.45.45,0,0,0,.44.32H398a2.24,2.24,0,0,0,1.76-.84,11,11,0,0,0,1.28-1.84c.37-.67.73-1.28,1.08-1.84a1.48,1.48,0,0,1,1.24-.84.75.75,0,0,1,.76.48,2.85,2.85,0,0,1,.2,1.08,10.73,10.73,0,0,1-.08,1.24,9.51,9.51,0,0,0-.08,1,.72.72,0,0,0,.48.64,8.52,8.52,0,0,1,1,.6,3.91,3.91,0,0,1,1,1.08,3.59,3.59,0,0,1,.48,2,2.61,2.61,0,0,1-1.12,2.2,8.55,8.55,0,0,1-2.88,1.32,21,21,0,0,1-3.88.64c-1.41.11-2.81.17-4.2.2s-2.65,0-3.8,0-2-.08-2.6-.08h-7.52c-.75,0-1.57,0-2.48-.12a9,9,0,0,1-2.56-.6,6,6,0,0,1-2-1.32,3.08,3.08,0,0,1-.84-2.28V52.64c0-.27-.17-.43-.52-.48a6.29,6.29,0,0,0-.76-.08c-.21,0-.52.25-.92.76a16.76,16.76,0,0,0-1.2,1.76l-1.16,1.92c-.37.61-.64,1-.8,1.24a56.16,56.16,0,0,1-4.4,5.48,45.63,45.63,0,0,1-5.6,5.24,30.25,30.25,0,0,1-6.44,3.92,16.7,16.7,0,0,1-6.84,1.52,3.78,3.78,0,0,1-.56-.08c-.27,0-.4-.16-.4-.32a.72.72,0,0,1,.48-.64,6.51,6.51,0,0,0,.72-.4,35.06,35.06,0,0,0,4.56-3,38.36,38.36,0,0,0,4.2-3.76,29.45,29.45,0,0,0,3.48-4.36,26,26,0,0,0,2.48-4.8.48.48,0,0,0,.08-.32c0-.75-.39-1.07-1.16-1a16.58,16.58,0,0,0-2.56.6c-.93.29-1.79.52-2.56.68s-1.16-.11-1.16-.8V33.12a.71.71,0,0,1,.8-.8,10.2,10.2,0,0,1,3,.44c1,.29,1.92.6,2.88.92s1.92.63,2.88.92a10.44,10.44,0,0,0,3,.44c.32,0,.76,0,1.32,0a1.83,1.83,0,0,0,1.24-.28,1.53,1.53,0,0,0,.44-1c.08-.51.16-1,.24-1.6a10,10,0,0,1,.32-1.48c.13-.43.36-.64.68-.64a3.15,3.15,0,0,1,.84.12,3.15,3.15,0,0,0,.84.12,5.85,5.85,0,0,0,3.12-.88,12.87,12.87,0,0,0,2.64-2.16,19.33,19.33,0,0,0,2.16-2.76c.64-1,1.23-1.91,1.76-2.76.27-.43.55-.84.84-1.24a4.86,4.86,0,0,0,.68-1.32,3.34,3.34,0,0,0,.08-.76c0-.29-.16-.44-.48-.44-.69,0-1.75,0-3.16,0s-2.88,0-4.4,0-2.95.08-4.28.16a10.21,10.21,0,0,0-2.8.44c-.53,0-.76.11-.68.48a3.2,3.2,0,0,0,.36,1,2.5,2.5,0,0,0,1.52.6,19,19,0,0,1,2.52.6,7.41,7.41,0,0,1,2.4,1.24A3,3,0,0,1,374,25a1.76,1.76,0,0,1-1.16,1.76,5.76,5.76,0,0,1-2.2.48,1.89,1.89,0,0,1-1.64-.72,5.58,5.58,0,0,1-.8-1.6,8.65,8.65,0,0,0-.68-1.6,1.36,1.36,0,0,0-1.28-.72c-.11,0-.2.09-.28.28a1.21,1.21,0,0,0-.12.44,12.14,12.14,0,0,0-.2,3.24q.12,1.64.12,3.24c0,.27-.32.53-1,.8a13.74,13.74,0,0,1-2.16.68c-.8.19-1.59.35-2.36.48a11.88,11.88,0,0,1-1.56.2,1.35,1.35,0,0,1-1-.36,2.16,2.16,0,0,1-.52-.84,4.26,4.26,0,0,1-.2-1c0-.37,0-.72,0-1a1.67,1.67,0,0,0-.12-.72c-.08-.16-.31-.24-.68-.24a3.2,3.2,0,0,0-1.36.48q-.88.48-1.8,1.08c-.61.4-1.23.79-1.84,1.16a13.12,13.12,0,0,1-1.48.8l-.24-.16a8.21,8.21,0,0,1,.88-2.2c.59-1.2,1.25-2.51,2-3.92s1.43-2.72,2-3.92a7.71,7.71,0,0,0,.92-2.28.5.5,0,0,0-.28-.52c-.19-.08-.36-.15-.52-.2h-5.2l-.56-.24-.16-.24.16-.4a7.78,7.78,0,0,1,1.36-.12c.75,0,1.59,0,2.52,0H357q.31,0,.48-.84a6.37,6.37,0,0,0,0-1.92,8.32,8.32,0,0,0-.52-2.12,3.12,3.12,0,0,0-1.12-1.52,4.15,4.15,0,0,0-1.4-.28c-.77-.08-1.63-.13-2.56-.16L349.21,10c-.85,0-1.44,0-1.76,0a.5.5,0,0,0-.52.32,3.07,3.07,0,0,0-.16.76,4.31,4.31,0,0,0,0,.88,6.79,6.79,0,0,1,0,.68,8.1,8.1,0,0,0,.28,2.16,8.1,8.1,0,0,1,.28,2.16v4.88q0,5.52-.2,11.6a104.77,104.77,0,0,1-1.08,12A62.58,62.58,0,0,1,343.25,57a38.55,38.55,0,0,1-5.4,10.24c-.16.21-.49.6-1,1.16s-1.05,1.13-1.64,1.72-1.15,1.11-1.68,1.56a2.45,2.45,0,0,1-1.12.68A.38.38,0,0,1,332,72a4.85,4.85,0,0,1,0-.6,23.8,23.8,0,0,1,.8-6.12c.53-2,1.11-4,1.72-5.92s1.19-3.92,1.72-5.92a23.8,23.8,0,0,0,.8-6.12V5.84c0-.59.24-.88.72-.88a6.66,6.66,0,0,1,2.36.56c.93.37,1.91.77,2.92,1.2s2,.83,3.08,1.2a8.74,8.74,0,0,0,2.92.56q3.6,0,7.2.24t7.2.24c.32,0,.75,0,1.28,0a.75.75,0,0,0,.8-.84V.8c0-.53.32-.8,1-.8.37,0,1.09,0,2.16,0s2.17.09,3.32.2A23.81,23.81,0,0,1,375,.72c.91.21,1.36.48,1.36.8a.81.81,0,0,1-.12.48l-.28.4a5.36,5.36,0,0,0-.84,2.44c-.08.88-.12,1.75-.12,2.6a8.32,8.32,0,0,0,.08.92c.05.4.24.6.56.6h16a2.48,2.48,0,0,0,1.6-.84,17.17,17.17,0,0,0,1.72-1.92A18.83,18.83,0,0,0,396.41,4a12.82,12.82,0,0,0,.88-1.76l.48-.24a7.17,7.17,0,0,1,1.6,1.12c.85.69,1.73,1.47,2.64,2.32s1.73,1.67,2.48,2.44,1.12,1.24,1.12,1.4-.19.43-.56.64a2,2,0,0,1-.8.32h-16.8a1.41,1.41,0,0,0-.4.08.31.31,0,0,0-.24.32q0,.72,1,1c.64.16,1.33.29,2.08.4s1.44.24,2.08.4,1,.43,1,.8a3.58,3.58,0,0,1-.16,1.08,3.58,3.58,0,0,0-.16,1.08c0,.75.15,1.2.44,1.36a3.31,3.31,0,0,0,1.48.24,2.77,2.77,0,0,0,1.84-.6,7.13,7.13,0,0,0,1.28-1.4,16.16,16.16,0,0,1,1.16-1.48,2.61,2.61,0,0,1,1.56-.84l.28.12.28.12a7.57,7.57,0,0,1,.92.72c.51.43,1,.91,1.6,1.44s1,1,1.48,1.44a3.62,3.62,0,0,1,.64.72q0,.64-1.56.84a28.94,28.94,0,0,1-3.56.2c-1.33,0-2.63,0-3.88-.12s-2.07-.12-2.44-.12l-.56.24-.16.32c.05.05.08.09.08.12s0,.07.08.12a10.52,10.52,0,0,0,2.72,2,22,22,0,0,0,2.88,1.2c1,.32,1.93.65,2.92,1a13.38,13.38,0,0,1,2.84,1.4c.11.11.23.21.36.32a.51.51,0,0,1,.2.4.69.69,0,0,1-.08.36,1.72,1.72,0,0,1-.24.28,14.67,14.67,0,0,0-.84,1.4c-.4.72-.83,1.47-1.28,2.24s-.87,1.47-1.24,2.08-.64.92-.8.92c-.32,0-.84-.47-1.56-1.4s-1.45-2-2.2-3.2-1.44-2.36-2.08-3.48-1.07-1.89-1.28-2.32l-.32-.24a.86.86,0,0,0-.64.24l-.24.56v8.8c0,.43.33.89,1,1.4a21.22,21.22,0,0,0,2.24,1.48c.83.48,1.57,1,2.24,1.44s1,.91,1,1.28-.23.64-.68.8-.68.43-.68.8V51.28a.77.77,0,0,1-.24.56,8.62,8.62,0,0,1-1.64,1.68c-.77.64-1.53,1.29-2.28,2a23.57,23.57,0,0,0-2,2A2.93,2.93,0,0,0,390.73,59.36ZM359.53,10.8c0,.32.25.56.92.72a22.18,22.18,0,0,0,2.28.4l2.44.32a4.8,4.8,0,0,1,1.56.4c-.27.43-.47.76-.6,1a2.79,2.79,0,0,0-.2,1.24,2.46,2.46,0,0,0,.24,1.12,1,1,0,0,0,1,.48,1.37,1.37,0,0,0,1.16-.6,9.44,9.44,0,0,0,.8-1.32c.24-.48.47-.92.68-1.32a.93.93,0,0,1,.8-.6.26.26,0,0,1,.24.12,1.72,1.72,0,0,0,.24.28,8.22,8.22,0,0,0,4,3.28,17.89,17.89,0,0,0,5.16.64,13.9,13.9,0,0,1,1.44.08,5.11,5.11,0,0,0,1.24,0,1.38,1.38,0,0,0,.88-.52,2.51,2.51,0,0,0,.36-1.56,5.9,5.9,0,0,0-.12-1c-.08-.43-.17-.85-.28-1.28a5.7,5.7,0,0,0-.44-1.2,2.34,2.34,0,0,0-.6-.8,7.52,7.52,0,0,0-2.48-.4c-1.44-.11-3-.17-4.8-.2l-5-.08c-1.6,0-2.67,0-3.2,0-1.23,0-2.45,0-3.68.08a21.08,21.08,0,0,0-3.68.48Zm.64,39.2a5.17,5.17,0,0,0,.4.36.77.77,0,0,0,.48.2h8.4a.71.71,0,0,0,.8-.8V37.44a.71.71,0,0,0-.8-.8h-8.4a.77.77,0,0,0-.48.2,5.17,5.17,0,0,0-.4.36c0,.59,0,1.16,0,1.72s0,1.13,0,1.72a3.85,3.85,0,0,0,.24,1.36,4,4,0,0,1,0,2.72,3.85,3.85,0,0,0-.24,1.36c0,.64,0,1.29,0,2S360.17,49.36,360.17,50Zm1.76-6.48a.38.38,0,0,1,.28-.36,1.21,1.21,0,0,1,.44-.12h5.12a1.21,1.21,0,0,1,.44.12.38.38,0,0,1,.28.36,3.68,3.68,0,0,1-1.08.12c-.67,0-1.4,0-2.2,0s-1.53,0-2.2,0A3.68,3.68,0,0,1,361.93,43.52Zm20.64-18.08c-.16.11-.55.33-1.16.68l-1.92,1.12c-.67.4-1.27.79-1.8,1.16s-.83.59-.88.64a.83.83,0,0,0-.08.2.83.83,0,0,1-.08.2,2.3,2.3,0,0,0,.52.76,1.06,1.06,0,0,1,.36.76c0,.27-.25.55-.76.84s-1.08.59-1.72.88-1.21.59-1.72.88-.76.6-.76.92a.54.54,0,0,0,.16.4,3.68,3.68,0,0,0,1.08.12l2.52.08q1.51,0,3.24,0c1.15,0,2.25,0,3.32,0h4.48a1.57,1.57,0,0,0,.92-.4,6.91,6.91,0,0,0,1-1,8.31,8.31,0,0,0,.84-1.16,3.24,3.24,0,0,0,.44-1l-.08-.32-.48-.4a9.3,9.3,0,0,0-1.28.16c-.64.11-1.29.2-2,.28a10.42,10.42,0,0,1-1.8.08c-.53,0-.8-.2-.8-.52V28.16c0-.53,0-1,0-1.52a3.43,3.43,0,0,0-.12-.88,1.74,1.74,0,0,0-.68-.24A4.68,4.68,0,0,0,382.57,25.44Zm-3,11.2a.71.71,0,0,0-.8.8V49.76a.71.71,0,0,0,.8.8h8.56a.71.71,0,0,0,.8-.8V37.44a.71.71,0,0,0-.8-.8Zm1.68,6.4h5.2l.56.24.16.24a4,4,0,0,1-1.12.12c-.69,0-1.44,0-2.24,0s-1.53,0-2.2,0a3.68,3.68,0,0,1-1.08-.12l.16-.24Zm.16,9.92a43.49,43.49,0,0,0,.32,5.24,43.49,43.49,0,0,1,.32,5.24c0,.27,0,.65,0,1.16a2.23,2.23,0,0,0,.12,1.08,1.79,1.79,0,0,0,1.12.68,5.94,5.94,0,0,0,1.36.2c1,0,1.49-.25,1.6-.76A3,3,0,0,0,386,64a16,16,0,0,0-1-2,3.63,3.63,0,0,1-.6-1.68c0-.43.24-.57.72-.44a4.65,4.65,0,0,0,1.12.2c.37,0,.67-.32.88-1a14.27,14.27,0,0,0,.52-2.16,19.46,19.46,0,0,0,.24-2.36c0-.77,0-1.29,0-1.56a1.61,1.61,0,0,0-.12-.56.45.45,0,0,0-.44-.32c-.32,0-.75,0-1.28,0s-1.09,0-1.68,0-1.13,0-1.64.08a3.21,3.21,0,0,0-1.08.24Z"/><path class="cls-1" d="M427.21,31.92a4.34,4.34,0,0,1-2.88-1,10.5,10.5,0,0,1-2.12-2.44,20.44,20.44,0,0,1-1.6-3c-.45-1.07-.87-2-1.24-2.8a4.57,4.57,0,0,1-.4-.6c-.21-.35-.41-.72-.6-1.12a4.17,4.17,0,0,1-.36-1c-.05-.29.05-.44.32-.44a27.79,27.79,0,0,1,4.12.36,18.18,18.18,0,0,1,4.48,1.28,10.73,10.73,0,0,1,3.56,2.44,5.35,5.35,0,0,1,1.44,3.84Q431.93,31.92,427.21,31.92ZM421,52.24a1.32,1.32,0,0,1,.72-.4,11,11,0,0,0,3.64-2A13.56,13.56,0,0,0,427.89,47a19.19,19.19,0,0,0,1.84-3.48c.51-1.25,1-2.55,1.48-3.88a69,69,0,0,1,3.12-7.52c1.17-2.4,2.35-4.85,3.52-7.36.16-.32.39-.81.68-1.48s.63-1.36,1-2.08.72-1.37,1-2a3.77,3.77,0,0,1,.8-1.12,5,5,0,0,1,.2,2.16c-.08.85-.17,1.57-.28,2.16a38.91,38.91,0,0,1-1.94,7.84c-.93,2.56-1.86,5.09-2.81,7.6s-1.79,5-2.5,7.64a30,30,0,0,0-1.07,8,12.12,12.12,0,0,0,.52,3.56c.35,1.15.72,2.28,1.12,3.4s.77,2.24,1.12,3.36a11.71,11.71,0,0,1,.52,3.52,7.77,7.77,0,0,1-1.72,5.32q-1.72,2-5.28,2a7.05,7.05,0,0,1-3.35-.8,3.06,3.06,0,0,1-1.49-3c0-1,.08-2.35.24-4s.27-3.35.32-5.08a21.58,21.58,0,0,0-.36-4.8,5.75,5.75,0,0,0-1.72-3.32,7.66,7.66,0,0,0-1-.72A4.73,4.73,0,0,1,421,52.24Zm13.6-37.44a4.66,4.66,0,0,1-3.12-1.08,11.33,11.33,0,0,1-2.24-2.6,29.78,29.78,0,0,1-1.76-3.2c-.53-1.12-1-2.11-1.52-3a6.66,6.66,0,0,1-.44-.6,9.88,9.88,0,0,1-.64-1.08,5.32,5.32,0,0,1-.4-1c-.08-.29,0-.44.28-.44a35.9,35.9,0,0,1,4.36.32,19.9,19.9,0,0,1,4.84,1.24,11.68,11.68,0,0,1,3.92,2.48,5.28,5.28,0,0,1,1.6,4,4.88,4.88,0,0,1-1.36,3.56A4.71,4.71,0,0,1,434.57,14.8Zm35.2-10.32v31.2a.81.81,0,0,0,.44.68,1.53,1.53,0,0,0,.84.28c1.07-.11,2.09-.19,3.08-.24s2-.13,3.08-.24a2.69,2.69,0,0,0,1.68-1.2,19,19,0,0,0,1.64-2.48c.51-.91,1-1.73,1.44-2.48s.84-1.12,1.16-1.12a5.5,5.5,0,0,1,1.76,1.2c1,.8,2,1.69,3.08,2.68s2.08,1.93,3,2.84,1.32,1.44,1.32,1.6a.19.19,0,0,1-.16.2,1.17,1.17,0,0,1-.32,0H471.13l-.56.24a35.6,35.6,0,0,0-5.08,6.44c-1.47,2.37-3,4.68-4.52,6.92a32.76,32.76,0,0,1-4.08,4.68c-1.49,1.41-3,2.81-4.48,4.2l-.24.56c0,.43.16.64.48.64a99.94,99.94,0,0,0,10.28-.52,99.94,99.94,0,0,1,10.28-.52c.53,0,1.28,0,2.24.08a3.69,3.69,0,0,0,2.08-.32l.24-.56a8.74,8.74,0,0,0-1.2-2.76c-.64-1-1.31-2.09-2-3.16s-1.32-2.11-1.88-3.12a5.75,5.75,0,0,1-.84-2.72l.32-.32a14.66,14.66,0,0,1,6.56,1.92,28,28,0,0,1,6.32,4.64,26.42,26.42,0,0,1,4.76,6.2,12.94,12.94,0,0,1,1.64,9.2,6.38,6.38,0,0,1-.84,2.2A4.64,4.64,0,0,1,489,72.92a5.05,5.05,0,0,1-2.56.6,4.58,4.58,0,0,1-3.88-1.72,14.68,14.68,0,0,1-2.12-3.88,19.79,19.79,0,0,1-1-4,8.4,8.4,0,0,1-.2-1c-.08-.48-.23-.72-.44-.72h-1.76l-29,9.52a4.74,4.74,0,0,0-1.52.88,3.82,3.82,0,0,1-1.52.8l-.48-.24c-.32-.53-.77-1.33-1.36-2.4s-1.16-2.17-1.72-3.32-1.05-2.24-1.48-3.28a6.9,6.9,0,0,1-.64-2.44c0-.59.47-.91,1.4-1a22.23,22.23,0,0,1,3.2.08q1.8.16,3.48.24a3.39,3.39,0,0,0,2.32-.48,3,3,0,0,0,.56-.56,4.48,4.48,0,0,0,.4-.64,9.43,9.43,0,0,0,.6-1.72c.29-1,.64-2.19,1-3.6s.8-2.93,1.2-4.56.77-3.16,1.12-4.6.64-2.68.88-3.72a13.62,13.62,0,0,0,.36-1.88v-1.2c0-.48-.27-.72-.8-.72H440.81a.4.4,0,0,1,0-.8h17a.71.71,0,0,0,.8-.8V1.68a.71.71,0,0,1,.8-.8q2.72,0,5.52.12a27.86,27.86,0,0,1,5.44.76l.56.2a.45.45,0,0,1,.32.44,1.47,1.47,0,0,1-.48.84,4.84,4.84,0,0,1-.72.68ZM442.57,15.6a3.15,3.15,0,0,1-.4,1.12l-.16-.08.4-1.12Zm1.36,3.76-.16-.24c.05-.16.28-.28.68-.36s.84-.15,1.32-.2l1.4-.12c.45,0,.76,0,.92,0h6a14.79,14.79,0,0,1,1.52.12c.69.08,1.12.25,1.28.52q-.08.16-.72.36a4.23,4.23,0,0,1-.8.2H444.49Zm27.84-.4c.05-.11.27-.2.64-.28a12,12,0,0,1,1.28-.2l1.44-.16a2.12,2.12,0,0,0,1-.32,4.49,4.49,0,0,0,1.32-1.56c.45-.77.91-1.56,1.36-2.36a16.58,16.58,0,0,1,1.4-2.12,2,2,0,0,1,1.44-.92,4.27,4.27,0,0,1,1.92,1,33.94,33.94,0,0,1,2.8,2.32A34.49,34.49,0,0,1,489,17a3.73,3.73,0,0,1,1.12,1.84c0,.21-.25.4-.76.56a4.42,4.42,0,0,1-1,.24h-15.2A1.9,1.9,0,0,1,471.77,19Z"/><path d="M533.73,64.5a.93.93,0,0,1,.42-.42q3.23-1.89,6.06-3.36c1.88-1,3.6-2,5.14-2.94a31.14,31.14,0,0,0,4.13-3.11,15.32,15.32,0,0,0,3.08-3.92,18.88,18.88,0,0,0,1.89-5.36,38,38,0,0,0,.63-7.49,31.64,31.64,0,0,0-.56-5.88,23.46,23.46,0,0,0-1.82-5.63,19.53,19.53,0,0,0-3.22-4.87A15.83,15.83,0,0,0,544.72,18a13.78,13.78,0,0,0-4.44-1.47,35.48,35.48,0,0,0-4.66-.28l-.59,0a7.09,7.09,0,0,0-.81,0,1.83,1.83,0,0,0-.73.14.62.62,0,0,0-.39.42,2.44,2.44,0,0,0,.6,1.75c.49.7,1,1.51,1.64,2.42A24.48,24.48,0,0,1,537,23.8a7.49,7.49,0,0,1,.77,3.32,31.19,31.19,0,0,1-.7,6.13A48,48,0,0,1,535,40.39a57.69,57.69,0,0,1-3.29,7.24A36,36,0,0,1,527.43,54a21.8,21.8,0,0,1-5.25,4.48,11.58,11.58,0,0,1-6,1.71,7.21,7.21,0,0,1-5-1.92,15.42,15.42,0,0,1-3.43-4.69,24.94,24.94,0,0,1-2-5.88,28,28,0,0,1-.63-5.43,24.66,24.66,0,0,1,2.73-11.55,29,29,0,0,1,7.21-9,33.22,33.22,0,0,1,10.22-5.81A34.22,34.22,0,0,1,537,13.82a29.68,29.68,0,0,1,10.67,1.93,27.66,27.66,0,0,1,8.9,5.39,26.27,26.27,0,0,1,6.09,8.26A24.49,24.49,0,0,1,564.88,40a21.36,21.36,0,0,1-2.55,10.5,25.3,25.3,0,0,1-6.69,7.81,29.91,29.91,0,0,1-9.38,4.83,35.61,35.61,0,0,1-10.64,1.64,9.49,9.49,0,0,0-1,0A1.44,1.44,0,0,1,533.73,64.5ZM511.61,39.3a21.72,21.72,0,0,0,.25,3,17,17,0,0,0,.84,3.46,8.49,8.49,0,0,0,1.64,2.87A3.41,3.41,0,0,0,517,49.8a6.15,6.15,0,0,0,3.85-1.5,18.51,18.51,0,0,0,3.57-3.92A40,40,0,0,0,527.54,39,57.52,57.52,0,0,0,530,33.07a53.83,53.83,0,0,0,1.6-5.53,19.57,19.57,0,0,0,.6-4.2,15.12,15.12,0,0,0-.11-1.68,9.64,9.64,0,0,0-.41-2.06,5.64,5.64,0,0,0-.88-1.75,1.7,1.7,0,0,0-1.4-.74,10.94,10.94,0,0,0-4.65,1.05A17,17,0,0,0,520.5,21a25.55,25.55,0,0,0-3.6,4,28.79,28.79,0,0,0-2.84,4.73,26.67,26.67,0,0,0-1.82,5A18.89,18.89,0,0,0,511.61,39.3Z"/><path class="cls-1" d="M605.07,20.32q0-4.8,0-9.6t0-9.6c0-.32.23-.55.68-.68A6.91,6.91,0,0,1,607.39.2a15.68,15.68,0,0,1,1.68,0c.53,0,.91,0,1.12,0s.95,0,1.88.08,1.88.15,2.84.28a13.26,13.26,0,0,1,2.6.6c.77.27,1.16.59,1.16,1s-.23.56-.68.72A2,2,0,0,0,616.91,4s0,.24,0,.56,0,.65-.08,1,0,.69-.08,1,0,.57,0,.68q-.31,6.48-.68,12.36A108.13,108.13,0,0,1,614.71,31a73.15,73.15,0,0,1-2.52,10.4,47.59,47.59,0,0,1-4.32,9.56,51.28,51.28,0,0,1-6.76,8.92,61,61,0,0,1-9.8,8.32l-2.12,1.4c-.93.61-1.91,1.21-2.92,1.8a30.89,30.89,0,0,1-3,1.52,6,6,0,0,1-2.24.64c-.32,0-.48-.11-.48-.32a.84.84,0,0,1,.24-.52c.16-.19.29-.33.4-.44q3.67-3.92,7.16-7.76a83.53,83.53,0,0,0,6.36-7.92,57,57,0,0,0,5-8.68,44.8,44.8,0,0,0,3.28-10.12,22.1,22.1,0,0,0,.52-4.36c0-1.47,0-2.93.08-4.4s.12-2.92.28-4.36A16,16,0,0,1,605.07,20.32Zm-23,.88h20.64a.68.68,0,0,1,.72.48,8.15,8.15,0,0,1-1.64.08c-1,0-2.2,0-3.64,0s-3,0-4.72,0-3.33,0-4.88,0-2.91,0-4.08,0H582l-.32-.32Zm66.08,2.24a9.76,9.76,0,0,0-1.8.76,2.28,2.28,0,0,0-.88.92,2.86,2.86,0,0,0-.28,1.32v1.88q0,3.43,0,7.28c0,2.56,0,5.16-.16,7.8s-.37,5.29-.72,8A46.18,46.18,0,0,1,642.67,59a32.26,32.26,0,0,1-3,6.84,21.25,21.25,0,0,1-4.76,5.6,9.73,9.73,0,0,1-4.64,2.08,29.5,29.5,0,0,1-5.12.48.78.78,0,0,1-.72-.44,3.69,3.69,0,0,1-.36-1,8.63,8.63,0,0,1-.16-1.12,6.24,6.24,0,0,0-.12-.88,7.94,7.94,0,0,0-1.8-4,15.09,15.09,0,0,0-3.48-2.72c-.16-.11-.41-.27-.76-.48s-.52-.43-.52-.64.24-.41.72-.44.8,0,1,0h7.6a3.73,3.73,0,0,0,2.8-1.28,10.68,10.68,0,0,0,2.28-4.52,44.73,44.73,0,0,0,1.28-6.4q.43-3.4.56-6.64c.08-2.16.17-4,.28-5.4q.16-3.44.48-6.8t.32-6.8c0-.32,0-.8,0-1.44s-.31-1-.84-1H618.51c-.21,0-.32-.08-.32-.24a.71.71,0,0,1,.8-.8h14.16c.27,0,.69-.31,1.28-.92s1.2-1.28,1.84-2,1.24-1.39,1.8-2,1-.92,1.32-.92A5.51,5.51,0,0,1,641,16.24c.88.75,1.84,1.57,2.88,2.48s2,1.8,2.92,2.68a22.65,22.65,0,0,1,1.6,1.64Z"/><path d="M711.31,24.32l.28-.28a21,21,0,0,1,4.13.6,14,14,0,0,1,4,1.61,10.05,10.05,0,0,1,3,2.76A6.57,6.57,0,0,1,724,33a1.91,1.91,0,0,1-.52,1.54,5.4,5.4,0,0,1-1.43.77c-.47.19-1.27.44-2.41.77l-3.91,1.12-4.6,1.3q-2.42.66-4.44,1.29c-1.35.42-2.47.79-3.38,1.12s-1.41.58-1.5.77a1.18,1.18,0,0,0-.1.25,2.35,2.35,0,0,1-.11.24V53.09a2.3,2.3,0,0,1-1.17,2.1,5.25,5.25,0,0,1-2.61.74,6.23,6.23,0,0,1-2.61-.46A1.59,1.59,0,0,1,694,54V46c0-.42-.23-.63-.7-.63A6.29,6.29,0,0,0,690,46.44a15.62,15.62,0,0,0-3.29,2.77,16.77,16.77,0,0,0-2.52,3.53,7.26,7.26,0,0,0-1,3.36,3.21,3.21,0,0,0,.91,2.38,5.79,5.79,0,0,0,2.24,1.37,12.22,12.22,0,0,0,2.8.59c1,.09,1.84.14,2.59.14a32.6,32.6,0,0,0,4.55-.31c1.49-.21,3-.45,4.48-.7s3-.49,4.48-.7a32.6,32.6,0,0,1,4.55-.32c.7,0,1.45,0,2.24.11a7,7,0,0,1,2.17.52,4.37,4.37,0,0,1,1.65,1.23,3.36,3.36,0,0,1,.66,2.2,3.47,3.47,0,0,1-1.92,3.19A15.52,15.52,0,0,1,710,67.41a31.5,31.5,0,0,1-5.29.59c-1.77,0-3.13.07-4.06.07-1.59,0-3.16,0-4.72,0s-3.14,0-4.73-.11a9.76,9.76,0,0,1-2.17-.38c-.7-.21-1.38-.44-2-.67a13.76,13.76,0,0,1-5.32-3.53,8.38,8.38,0,0,1-2.17-5.92,8.66,8.66,0,0,1,1.09-4.23,18.87,18.87,0,0,1,2.69-3.75,28.13,28.13,0,0,1,3.5-3.22l3.5-2.73c1.07-.84,2-1.59,2.69-2.24a2.62,2.62,0,0,0,1.09-1.75c0-.7,0-1.43-.07-2.2a7.27,7.27,0,0,0-.45-2.14,4.19,4.19,0,0,0-1.16-1.64,3.19,3.19,0,0,0-2.17-.67,6.78,6.78,0,0,0-4,1.23,14.7,14.7,0,0,0-3.18,3,34.36,34.36,0,0,0-2.7,4q-1.26,2.13-2.52,4a16.87,16.87,0,0,1-2.66,3,4.6,4.6,0,0,1-3.08,1.22,2.75,2.75,0,0,1-1.86-.59,3.55,3.55,0,0,1-1-1.51,7.66,7.66,0,0,1-.39-2c0-.7-.07-1.33-.07-1.89,0-.28.33-.8,1-1.57s1.48-1.7,2.49-2.77l3.25-3.5q1.76-1.89,3.25-3.67a32.8,32.8,0,0,0,2.49-3.29,5,5,0,0,0,1-2.42c0-.47-.21-.7-.63-.7h-6.72a4,4,0,0,1-2.31-.8,8.68,8.68,0,0,1-2-2,10.29,10.29,0,0,1-1.33-2.49,6.92,6.92,0,0,1-.49-2.38,1.46,1.46,0,0,1,.1-.52.45.45,0,0,1,.46-.25,2.53,2.53,0,0,1,.66.21c.36.14.74.3,1.16.49s.83.37,1.22.56.67.3.81.35a11.76,11.76,0,0,0,2.84.63c.95.09,1.92.14,2.9.14a27.64,27.64,0,0,0,3.08-.17,7,7,0,0,0,2.59-.81,4.61,4.61,0,0,0,1.78-1.78,6.18,6.18,0,0,0,.67-3.12,3.33,3.33,0,0,0-.63-2.13,7.4,7.4,0,0,0-1.37-1.37c-.48-.37-.93-.69-1.32-.94s-.6-.53-.6-.81.33-.55,1-.8A10.83,10.83,0,0,1,686.6,7a19,19,0,0,1,3.19-.17,13.28,13.28,0,0,1,3.18.42,6.17,6.17,0,0,1,2.45,1.19,2.54,2.54,0,0,1,1,2.06,3.77,3.77,0,0,1-.38,1q-.39.79-.81,1.71c-.28.61-.55,1.17-.8,1.68a5.57,5.57,0,0,0-.39.84c.05.33.16.49.35.49H695a5.15,5.15,0,0,0,2.13-.45c.68-.31,1.35-.63,2-1s1.32-.68,2-1a5.27,5.27,0,0,1,2.21-.46,4.84,4.84,0,0,1,2.59.74,2.55,2.55,0,0,1,1.19,2.34,3.3,3.3,0,0,1-1.65,2.94,15.57,15.57,0,0,1-4.09,1.75c-1.63.47-3.41.92-5.32,1.37a28.86,28.86,0,0,0-5.32,1.75,11.73,11.73,0,0,0-4.1,2.94A7.18,7.18,0,0,0,685,32.09c0,.42.23.63.7.63a4.73,4.73,0,0,0,1.58-.31c.58-.21,1.17-.46,1.78-.74a18.38,18.38,0,0,1,1.86-.73,6,6,0,0,1,1.92-.32,5,5,0,0,1,3,1,16.42,16.42,0,0,1,2.45,2.14q1.1,1.15,1.86,2.1c.51.63.91.94,1.19.94a5,5,0,0,0,1.65-.49A26.67,26.67,0,0,0,705.5,35c.93-.54,1.91-1.14,2.94-1.79s2-1.29,2.8-1.92a19.45,19.45,0,0,0,2.06-1.75q.81-.81.81-1.23a2.72,2.72,0,0,0-.87-2,19.62,19.62,0,0,0-1.72-1.47Z"/><path d="M758.7,8.92c0-.42.33-.77,1-1a7.17,7.17,0,0,1,2.45-.49,20.7,20.7,0,0,1,3.19.11,13.72,13.72,0,0,1,3.15.66,7.68,7.68,0,0,1,2.41,1.3,2.41,2.41,0,0,1,1,1.92,3.09,3.09,0,0,1-.31,1.4c-.21.42-.45.84-.7,1.26a12.49,12.49,0,0,0-.7,1.3,3.12,3.12,0,0,0-.32,1.36c0,.61.33.91,1,.91a7.35,7.35,0,0,0,2.77-.59c.95-.4,1.94-.83,3-1.3s2.07-.9,3.12-1.29a9,9,0,0,1,3.25-.6c.56,0,1.12,0,1.68.07a4.78,4.78,0,0,1,1.54.39,2.57,2.57,0,0,1,1.12.94,3,3,0,0,1,.42,1.68,3.15,3.15,0,0,1-1.36,2.59,11.46,11.46,0,0,1-3.43,1.72,33.43,33.43,0,0,1-4.55,1.08c-1.66.28-3.24.54-4.73.77s-2.8.49-3.92.77a3.33,3.33,0,0,0-2.1,1.12,7.14,7.14,0,0,0-.28,1c-.14.58-.29,1.23-.45,2s-.31,1.42-.42,2.1-.2,1.1-.25,1.29a.38.38,0,0,0,.42.28,25.62,25.62,0,0,0,5.25-.56c1.77-.37,3.48-.79,5.11-1.26.33-.09.49-.23.49-.42a2.1,2.1,0,0,0-.35-1l-.66-1.12a3,3,0,0,1-.39-.91c0-.26.12-.39.49-.39a2.78,2.78,0,0,1,1.65.53,9.86,9.86,0,0,1,1.4,1.22L781,29.12a4.5,4.5,0,0,0,1.54,1.08,21.13,21.13,0,0,0,2.49,1,21.68,21.68,0,0,1,2.48,1,34.53,34.53,0,0,1,4.9,2.59A16.61,16.61,0,0,1,796.08,38a13.14,13.14,0,0,1,2.38,4.2,16.61,16.61,0,0,1,.84,5.53,15.73,15.73,0,0,1-2.83,9.63,21,21,0,0,1-7.18,6.09,33.41,33.41,0,0,1-9.52,3.22,55,55,0,0,1-9.87.94h-1.22a2.65,2.65,0,0,1-1.23-.28c.14-.28.82-.63,2-1s2.7-1,4.45-1.64a53.91,53.91,0,0,0,5.6-2.59A26.43,26.43,0,0,0,785,58.13a20.57,20.57,0,0,0,4.2-5.42,15.21,15.21,0,0,0,1.68-7.32,18.14,18.14,0,0,0-.56-4.3,14.53,14.53,0,0,0-1.71-4.17,10.54,10.54,0,0,0-2.94-3.15,7,7,0,0,0-4.17-1.26.67.67,0,0,0-.63.42,30.17,30.17,0,0,0-1.64,2.84,24.87,24.87,0,0,1-1.72,2.83c-.61.89-1.28,1.8-2,2.73s-1.47,1.88-2.17,2.84-1.35,1.93-2,2.94a14,14,0,0,0-1.4,3,3.33,3.33,0,0,0-.1,1.44,11,11,0,0,0,.31,1.47q.21.73.42,1.5a5.55,5.55,0,0,1,.21,1.47,3.12,3.12,0,0,1-.87,2.24,2.93,2.93,0,0,1-2.21.91,3.11,3.11,0,0,1-1.36-.31,9,9,0,0,1-1.23-.7c-.37-.26-.72-.49-1-.7a1.67,1.67,0,0,0-.84-.32,1.59,1.59,0,0,0-.59.28,3.81,3.81,0,0,0-.6.42c-.93.65-1.9,1.27-2.9,1.86A32.49,32.49,0,0,1,756,61.28a18.84,18.84,0,0,1-2.66,1,15.08,15.08,0,0,1-2.2.45,18.61,18.61,0,0,1-2.28.14h-2.8a2.06,2.06,0,0,1-1.61-.7,5.41,5.41,0,0,1-1-1.68,9.39,9.39,0,0,1-.56-2,10.67,10.67,0,0,1-.18-1.75,16.93,16.93,0,0,1,1.16-6.33A20.12,20.12,0,0,1,747,45.08a30.69,30.69,0,0,1,4.45-4.45,62.83,62.83,0,0,1,5.14-3.78c.19-.14.46-.33.81-.56l1.08-.73,1-.74a2.47,2.47,0,0,0,.63-.56,4.91,4.91,0,0,0,1.12-2.76c.09-1.05.14-2.05.14-3,0-.14,0-.38,0-.73a4.92,4.92,0,0,0,0-1,4.63,4.63,0,0,0-.21-.87.54.54,0,0,0-.56-.39h-8.54a4.3,4.3,0,0,1-2.59-.87,9.22,9.22,0,0,1-2-1.93c-.19-.28-.4-.62-.63-1s-.44-.81-.63-1.23a11.8,11.8,0,0,1-.49-1.29,4,4,0,0,1-.21-1.16,2.62,2.62,0,0,1,.07-.49c.05-.23.16-.35.35-.35a3.29,3.29,0,0,1,1.05.35c.51.23,1.09.5,1.72.81a17.86,17.86,0,0,0,2,.8,5.77,5.77,0,0,0,1.85.35h9.59a.62.62,0,0,0,.7-.7V11.72c0-.19-.17-.41-.52-.66a6.5,6.5,0,0,0-1.23-.7l-1.33-.6-.91-.42Zm-9.38,44.8c0,.89.16,1.39.49,1.51a5.52,5.52,0,0,0,1.61.17,12.34,12.34,0,0,0,2.35-.35,21,21,0,0,0,3.18-1,16,16,0,0,0,2.84-1.43A2.21,2.21,0,0,0,761,50.92a7.77,7.77,0,0,0-.17-1.57c-.12-.54-.23-1.07-.32-1.58a16.27,16.27,0,0,1-.31-4.13,11.32,11.32,0,0,0-.53-4.06q-.13-.28-.21-.42c-.05-.09-.19-.14-.42-.14a2.13,2.13,0,0,0-1.57.53c-.35.35-.74.75-1.16,1.22-.79.89-1.61,1.77-2.45,2.66a23,23,0,0,0-2.27,2.8A14.33,14.33,0,0,0,750,49.38a10.08,10.08,0,0,0-.63,3.57Zm16.8-15.26q0,.84,0,1.86c0,.67,0,1.36,0,2.06s.07,1.39.14,2.07a9.59,9.59,0,0,0,.31,1.71,2.89,2.89,0,0,0,.21.39c0,.07.19.1.42.1a2.44,2.44,0,0,0,1.58-.87,13,13,0,0,0,1.64-2.07c.51-.79,1-1.59,1.44-2.38s.75-1.4.94-1.82.65-1.12,1.12-1.82,1-1.4,1.44-2.1.92-1.38,1.29-2a5.8,5.8,0,0,0,.7-1.68c0-.28-.05-.42-.28-.42a24.86,24.86,0,0,0-2.55.18c-1.1.11-2.22.29-3.36.52a13,13,0,0,0-3.12,1,3.16,3.16,0,0,0-1.75,1.57,2.85,2.85,0,0,0-.1.7c0,.33,0,.69,0,1.09v1.92Z"/><path d="M833.18,36.92v1a16,16,0,0,1-.46,3.85c-.3,1.26-.63,2.51-1,3.75s-.68,2.48-1,3.74a16.54,16.54,0,0,0-.45,3.85,20.3,20.3,0,0,0,.45,4.27,19.67,19.67,0,0,1,.46,4.27,5.49,5.49,0,0,1-.67,3.15c-.44.61-1.45.91-3,.91a5.53,5.53,0,0,1-3.36-1.08,9.15,9.15,0,0,1-2.48-2.84,18.13,18.13,0,0,1-1.68-4,43.48,43.48,0,0,1-1.09-4.44,35.32,35.32,0,0,1-.56-4.24c-.09-1.35-.14-2.5-.14-3.43a37.89,37.89,0,0,1,.59-6.65c.4-2.19.82-4.39,1.26-6.58s.87-4.39,1.27-6.58a37.89,37.89,0,0,0,.59-6.65,5.66,5.66,0,0,0-.45-2.2c-.31-.73-.63-1.43-1-2.1s-.66-1.32-.94-1.93a4.18,4.18,0,0,1-.42-1.75c0-.47.21-.7.63-.7a8.45,8.45,0,0,1,4,1.05,13.41,13.41,0,0,1,3.56,2.73A14.56,14.56,0,0,1,829.82,18a9.16,9.16,0,0,1,1,4,13.77,13.77,0,0,1-.63,4.17,28.43,28.43,0,0,1-1.58,3.92c-.63,1.28-1.28,2.54-2,3.78a33,33,0,0,0-1.78,3.81,13,13,0,0,0-.94,3.5,33,33,0,0,0-.18,3.64q0,.56,0,1.68a3.09,3.09,0,0,0,.39,1.61,2.27,2.27,0,0,0,.7.21,6.19,6.19,0,0,0,.77.14,2.72,2.72,0,0,0,2.24-1.54,26.29,26.29,0,0,0,1.85-3.53c.59-1.33,1.14-2.63,1.65-3.89A7.39,7.39,0,0,1,833,36.85Zm13.93-3.43a6.26,6.26,0,0,1-2.8-.84,16.47,16.47,0,0,1-3.08-2.1,14.07,14.07,0,0,1-2.48-2.73,4.82,4.82,0,0,1-1-2.66c0-.47.21-.7.63-.7a6,6,0,0,1,1.61.25c.61.16,1.23.36,1.86.59l1.85.7c.61.23,1.17.42,1.68.56s1.28.2,2.45.32a23.55,23.55,0,0,0,3.57.07,13,13,0,0,0,3.22-.56c.93-.31,1.4-.81,1.4-1.51a27.22,27.22,0,0,0-.35-5,7.42,7.42,0,0,0-.91-2.59,2.37,2.37,0,0,0-1.26-1.05c-.47-.14-.93-.27-1.4-.38a5.28,5.28,0,0,1-1.4-.6,3.27,3.27,0,0,1-1.19-1.75.35.35,0,0,0,0-.14.25.25,0,0,1,0-.14,1.8,1.8,0,0,1,1.08-1.54,8.34,8.34,0,0,1,2.77-.91,17.5,17.5,0,0,1,3.61-.21,12,12,0,0,1,3.6.67,7.1,7.1,0,0,1,2.8,1.75,4,4,0,0,1,1.12,2.9,18.07,18.07,0,0,1-.24,3,16.84,16.84,0,0,0-.25,3,4.26,4.26,0,0,0,.1.95c.07.25.37.38.88.38a3,3,0,0,0,1.19-.24c.37-.17.76-.33,1.16-.49s.8-.33,1.22-.49a3.71,3.71,0,0,1,1.4-.25,5.67,5.67,0,0,1,3.43,1,3.66,3.66,0,0,1,1.4,3.18,3.08,3.08,0,0,1-1.68,2.8,18.07,18.07,0,0,1-3.71,1.61c-1.35.42-2.59.77-3.71,1.05s-1.68.65-1.68,1.12V50.29a13.87,13.87,0,0,1-1.16,5.57,20.59,20.59,0,0,1-3,5,24.21,24.21,0,0,1-4.3,4.1,24.72,24.72,0,0,1-4.87,2.83,23,23,0,0,1-3,1,11.71,11.71,0,0,1-3.15.49l-.49,0c-.23,0-.35-.13-.35-.32s.25-.43.74-.87,1.05-.91,1.68-1.4,1.24-1,1.85-1.4a7.35,7.35,0,0,0,1.19-1,24.63,24.63,0,0,0,4-6,32.71,32.71,0,0,0,2.16-6.51,43.46,43.46,0,0,0,1-6.89q.21-3.54.21-7.18c0-.19,0-.5,0-.94s0-.91,0-1.4a4.25,4.25,0,0,0-.18-1.3c-.11-.37-.31-.56-.59-.56ZM865,9.27a20.12,20.12,0,0,1,2.76,1,12.8,12.8,0,0,1,2.67,1.47,8,8,0,0,1,2,2.1,4.93,4.93,0,0,1,.8,2.76,2.7,2.7,0,0,1-.38,1.4,1.41,1.41,0,0,1-1.3.63,4.14,4.14,0,0,1-.6,0,2.27,2.27,0,0,1-.52-.25,9.06,9.06,0,0,1-1.16-1.5c-.62-.91-1.28-1.89-2-2.94s-1.28-2-1.79-2.94a9.6,9.6,0,0,1-.77-1.51Zm11.9,4.62c-.37,0-.92-.35-1.64-1a24.5,24.5,0,0,1-2.21-2.43c-.75-.93-1.4-1.82-2-2.67a4.24,4.24,0,0,1-.84-1.84c0-.28.16-.42.49-.42a7.6,7.6,0,0,1,2.52.49A12.77,12.77,0,0,1,876,7.26a7.88,7.88,0,0,1,2.1,1.91,3.85,3.85,0,0,1,.84,2.36,3.19,3.19,0,0,1-.42,1.67A1.65,1.65,0,0,1,876.93,13.89Z"/><path d="M902.41,11.65c.19,0,.42.18.7.53a7.85,7.85,0,0,0,1.16,1.12,8.13,8.13,0,0,0,1.85,1.08,7,7,0,0,0,2.8.49,14.41,14.41,0,0,0,4.34-.66c1.4-.45,2.78-1,4.13-1.51s2.71-1.06,4.06-1.5a13.19,13.19,0,0,1,4.2-.67,10.17,10.17,0,0,1,3.29.6,12.08,12.08,0,0,1,3.22,1.64,9.82,9.82,0,0,1,2.45,2.49,5.41,5.41,0,0,1,1,3.11c0,.37-.51,1-1.54,1.93s-2.3,1.93-3.81,3.08-3.18,2.34-5,3.6-3.46,2.46-5,3.61-2.78,2.14-3.81,3-1.54,1.45-1.54,1.78c0,.61.33.91,1,.91a13.56,13.56,0,0,0,2.77-.28c.91-.19,1.81-.41,2.73-.66s1.82-.48,2.73-.67a13.46,13.46,0,0,1,2.76-.28,21.05,21.05,0,0,1,6.76,1.05,15.43,15.43,0,0,1,5.42,3.12,14.43,14.43,0,0,1,3.61,5A16.58,16.58,0,0,1,944,50.29a14.16,14.16,0,0,1-2.06,7.77,16.58,16.58,0,0,1-5.29,5.22,23.58,23.58,0,0,1-7.24,2.9,35.52,35.52,0,0,1-7.88.91,32.87,32.87,0,0,1-4.83-.38A16.53,16.53,0,0,1,912,65.27a9.8,9.8,0,0,1-3.57-2.87,7.49,7.49,0,0,1-1.4-4.69,7.4,7.4,0,0,1,.77-3.53,6.24,6.24,0,0,1,2.07-2.31,8.41,8.41,0,0,1,3-1.26,15.85,15.85,0,0,1,3.53-.39,10.62,10.62,0,0,1,4.09.74,13,13,0,0,1,3.26,1.92,17.91,17.91,0,0,1,2.73,2.77c.84,1.05,1.68,2.13,2.52,3.25a.32.32,0,0,0,.35.21,1.4,1.4,0,0,0,.56-.35l.91-.77c.33-.28.63-.56.91-.84l.56-.56a14.4,14.4,0,0,0,2.91-4.13,12.6,12.6,0,0,0,.87-5q0-5.67-3.15-8.22t-8.61-2.56A14.57,14.57,0,0,0,918.09,38a26,26,0,0,0-5.32,3.29,37.8,37.8,0,0,0-4.55,4.31c-1.4,1.56-2.69,3-3.89,4.3A40.67,40.67,0,0,1,901,53.23a4.34,4.34,0,0,1-2.76,1.33,3.44,3.44,0,0,1-1.71-.38,2.86,2.86,0,0,1-1.05-1,3.57,3.57,0,0,1-.49-1.43,13.33,13.33,0,0,1-.11-1.72,8.54,8.54,0,0,1,.14-1.61,2.77,2.77,0,0,1,.84-1.4l26.6-26.6a6.82,6.82,0,0,0,.88-1.22,3,3,0,0,0,.52-1.37,1,1,0,0,0-.42-.91,1.71,1.71,0,0,0-1-.28,6.75,6.75,0,0,0-3.57,1c-1.07.65-2.12,1.37-3.15,2.14a34.47,34.47,0,0,1-3.15,2.1,6.9,6.9,0,0,1-3.57.94,6.61,6.61,0,0,1-2.77-.63,8.43,8.43,0,0,1-2.41-1.68,8.79,8.79,0,0,1-1.71-2.41,6.2,6.2,0,0,1-.67-2.77,11,11,0,0,1,.18-1.82,6.15,6.15,0,0,1,.52-1.75Zm7,44.94a3,3,0,0,0,1.3,2.66,8.34,8.34,0,0,0,3.08,1.3,20,20,0,0,0,3.64.42l3,0a3,3,0,0,0,.88-.1c.21-.07.31-.34.31-.81A6.12,6.12,0,0,0,921,57.4,8.32,8.32,0,0,0,919.21,55a10,10,0,0,0-2.48-1.71,6,6,0,0,0-2.7-.67,5.33,5.33,0,0,0-3.22,1A3.43,3.43,0,0,0,909.41,56.59Z"/><path d="M965.48,24.11a5.19,5.19,0,0,1,2.24.81,4.25,4.25,0,0,0,2.31.66,26.12,26.12,0,0,0,2.62-.17,21.58,21.58,0,0,0,3.15-.6,12.89,12.89,0,0,0,2.87-1.12,4.34,4.34,0,0,0,1.86-1.75,4.23,4.23,0,0,0,.24-1.22c.07-.63.13-1.31.18-2s.08-1.43.1-2.1,0-1.16,0-1.44V13.47a3.79,3.79,0,0,0-.21-1.29,2.66,2.66,0,0,0-.67-1,6.9,6.9,0,0,0-1.36-1,3.24,3.24,0,0,0-.7-.31,7.26,7.26,0,0,1-.94-.42,6.72,6.72,0,0,1-.84-.53c-.26-.19-.39-.37-.39-.56s.21-.51.63-.7a6.71,6.71,0,0,1,1.47-.45,14.39,14.39,0,0,1,1.61-.25c.51,0,.89-.07,1.12-.07a9.28,9.28,0,0,1,3,.56,12.22,12.22,0,0,1,3,1.51,8.49,8.49,0,0,1,2.28,2.31,5.1,5.1,0,0,1,.91,2.9,4.91,4.91,0,0,1-.77,2.63,4.85,4.85,0,0,0-.77,2.62,3.57,3.57,0,0,0,.35,1c.23.51.5,1.05.8,1.61s.6,1.09.88,1.58a5.13,5.13,0,0,0,.63.94,5.9,5.9,0,0,0,2.62-1q1.72-1,4-2.24a39.24,39.24,0,0,1,4.76-2.21,13.73,13.73,0,0,1,5-1,12.3,12.3,0,0,1,7.17,2,14.6,14.6,0,0,1,4.52,5,21.74,21.74,0,0,1,2.34,6.79,41.07,41.07,0,0,1,.67,7.31,22.32,22.32,0,0,1-.7,5.6,22.32,22.32,0,0,0-.7,5.6,2.69,2.69,0,0,0,1,1.75l2.28,2.17a16.18,16.18,0,0,1,2.27,2.66,5.52,5.52,0,0,1,1,3.22,4.6,4.6,0,0,1-.77,2.7,2.87,2.87,0,0,1-2.52,1.08,3,3,0,0,1-2.13-.84,14.4,14.4,0,0,1-1.62-1.85,24.57,24.57,0,0,0-1.54-1.93,3,3,0,0,0-1.92-1l-.49.21a20.06,20.06,0,0,1-5.92,4.1,18.48,18.48,0,0,1-10.88.94,10.73,10.73,0,0,1-3.43-1.4,7.86,7.86,0,0,1-2.49-2.48,7,7,0,0,1-.94-3.75,8.33,8.33,0,0,1,1.05-4.3,8.44,8.44,0,0,1,2.73-2.87,12.3,12.3,0,0,1,3.81-1.61,18.36,18.36,0,0,1,4.38-.53,31.67,31.67,0,0,1,4,.25,33.79,33.79,0,0,0,4,.24c.33,0,.59-.42.8-1.26a22,22,0,0,0,.5-2.83c.11-1,.18-2.08.21-3.08s0-1.67,0-2c0-1.49-.07-3.22-.21-5.18a22.29,22.29,0,0,0-1.09-5.56,11.5,11.5,0,0,0-2.62-4.45,6.41,6.41,0,0,0-4.83-1.82,13.47,13.47,0,0,0-6.58,1.65,31.78,31.78,0,0,0-5.6,3.88c-.56.47-1.3,1.14-2.21,2s-1.83,1.83-2.76,2.84-1.77,2-2.52,3a8.44,8.44,0,0,0-1.4,2.38,3.41,3.41,0,0,0-.17,1.16c0,.58,0,1.21,0,1.89s0,1.34,0,2,0,1.12,0,1.4a55.69,55.69,0,0,0,.56,7.88,55.55,55.55,0,0,1,.56,7.87c0,.93-.05,1.94-.14,3a10.82,10.82,0,0,1-.67,3A5.8,5.8,0,0,1,983,67.06a4.14,4.14,0,0,1-2.87.94,3,3,0,0,1-2.35-1,7.27,7.27,0,0,1-1.39-2.41,20.55,20.55,0,0,1-.88-3.15c-.23-1.15-.48-2.2-.74-3.15a11,11,0,0,0-.91-2.42,1.58,1.58,0,0,0-1.43-1,1.76,1.76,0,0,0-1.44.81,19.2,19.2,0,0,0-1.18,1.82,12,12,0,0,1-1.33,1.82,2.53,2.53,0,0,1-1.93.8,2.18,2.18,0,0,1-2.2-1.36,6.67,6.67,0,0,1-.6-2.7,10.26,10.26,0,0,1,1.15-4.79,22.23,22.23,0,0,1,2.91-4.24,48.35,48.35,0,0,1,3.81-3.92,53.23,53.23,0,0,0,3.82-3.85,22.57,22.57,0,0,0,2.91-4.06,9.4,9.4,0,0,0,1.15-4.55c0-.42-.23-.63-.7-.63a2.53,2.53,0,0,0-1.57.55c-.5.37-1,.75-1.48,1.17a14.49,14.49,0,0,1-1.57,1.16,3.35,3.35,0,0,1-1.89.55,5.5,5.5,0,0,1-2.77-.8,9.46,9.46,0,0,1-2.41-2A11,11,0,0,1,965.38,28a6.61,6.61,0,0,1-.67-2.78,1.63,1.63,0,0,1,.35-.91Zm12.88,20.51a12.79,12.79,0,0,0-1.15,1.51c-.54.77-1.08,1.59-1.62,2.48s-1,1.72-1.43,2.49a4.31,4.31,0,0,0-.63,1.57,1.29,1.29,0,0,0,.45.81,8.64,8.64,0,0,0,1.06.87,10.91,10.91,0,0,0,1.18.74,2.18,2.18,0,0,0,.88.31,1.32,1.32,0,0,0,1.15-.87,3.3,3.3,0,0,0,.46-1.44v-8C978.71,44.78,978.59,44.62,978.36,44.62Zm16.66,10a2.84,2.84,0,0,0,1.15,2.45,5.83,5.83,0,0,0,2.87,1,13.94,13.94,0,0,0,3.71-.18,16.49,16.49,0,0,0,3.71-1.08,11.25,11.25,0,0,0,2.87-1.72,2.73,2.73,0,0,0,1.16-2,1.66,1.66,0,0,0-1.12-1.47,11,11,0,0,0-2.62-.87,22.48,22.48,0,0,0-3-.42c-1-.07-1.68-.11-2.1-.11a20,20,0,0,0-2.34.14,6.71,6.71,0,0,0-2.14.6,3.7,3.7,0,0,0-1.57,1.33A4.06,4.06,0,0,0,995,54.63Z"/><path d="M1038.63,59.81a9.13,9.13,0,0,1,.7-3.57,8.59,8.59,0,0,1,2-2.9,9.32,9.32,0,0,1,2.94-1.93,9.13,9.13,0,0,1,3.57-.7,9.83,9.83,0,0,1,3.71.7,9.69,9.69,0,0,1,3.08,2,8.78,8.78,0,0,1,2.07,3,9.38,9.38,0,0,1,.73,3.74,8.76,8.76,0,0,1-.73,3.61,9.32,9.32,0,0,1-2,2.87,9,9,0,0,1-3,1.89,10,10,0,0,1-3.61.66,9.82,9.82,0,0,1-3.75-.7,9.38,9.38,0,0,1-3-1.92,9,9,0,0,1-2-2.94A9.47,9.47,0,0,1,1038.63,59.81Zm1.82.07a7.51,7.51,0,0,0,1.12,4.27,7.61,7.61,0,0,0,2.8,2.56,7.47,7.47,0,0,0,3.61.84,8.14,8.14,0,0,0,3.6-.91,7.34,7.34,0,0,0,3.92-6.83,7.06,7.06,0,0,0-1.12-4.09,6.76,6.76,0,0,0-2.8-2.42,8.59,8.59,0,0,0-3.6-.77,8,8,0,0,0-3.61.84,7.33,7.33,0,0,0-2.8,2.49A6.92,6.92,0,0,0,1040.45,59.88Z"/><path d="M1097.5,27.61a.65.65,0,0,1,.25-.59.73.73,0,0,1,.56-.14,1.13,1.13,0,0,1,.56.21.59.59,0,0,1,.24.52q0,10.57.25,21t.24,21a.62.62,0,0,1-.7.7q-5.18,0-10.29-.21t-10.29-.21a.7.7,0,0,1,0-1.4h18.48a.62.62,0,0,0,.7-.7Z"/></g></g></svg>