<svg xmlns="http://www.w3.org/2000/svg" viewBox="0 0 538.98 111.16"><defs><style>.cls-1{fill:#b3e8e8;}</style></defs><title>virtual-neet</title><g id="レイヤー_2" data-name="レイヤー 2"><g id="top"><path class="cls-1" d="M344.11,103.15l3.54-10.09c.14-.33.39-.42.76-.27l3.27,1.56a.46.46,0,0,1,.23.65l-8.49,15.9a.42.42,0,0,1-.35.22.43.43,0,0,1-.32-.24l-7.12-16.5a.44.44,0,0,1,.27-.65l6.92-2.53c.32-.09.51,0,.56.38Z"/><path class="cls-1" d="M355.43,96.39l-1-4.74c-.08-.36.07-.56.45-.59l9.2-.27c.37,0,.56.21.56.61l-.18,2.91a.46.46,0,0,1-.47.49l-8.06,2C355.68,96.85,355.51,96.72,355.43,96.39Zm-.18,9.56,8.44.43c.3,0,.43.18.38.49l-.17,2.38a.49.49,0,0,1-.41.49l-7.25,1a.45.45,0,0,1-.52-.33l-1-3.86C354.57,106.14,354.76,106,355.25,106ZM357,95.34c-.07-.42.11-.6.54-.56l5.13.67a.53.53,0,0,1,.45.54l-1.88,12.09-2.94.14Z"/><path class="cls-1" d="M369.5,110.45l-1.14-18.38c0-.34.16-.57.56-.69l5.33-.72c.37,0,.56.14.56.56l-1.68,18.7a.38.38,0,0,1-.34.47l-2.88.38C369.65,110.81,369.52,110.71,369.5,110.45Zm2.64-14.68L376,90.7a.44.44,0,0,1,.69,0l6,4.34a.54.54,0,0,1,.2.5l-.29,3.09a.34.34,0,0,1-.15.27L372,105.1l-.5-1.92,7.3-6.45Zm3.18,5.64,8,6.36a.43.43,0,0,1,0,.69L380.09,111q-.33.28-.6-.09l-5.93-8.11Z"/><path class="cls-1" d="M387.25,98.21l-.92-5.83c-.06-.4.15-.56.63-.49l13.77,1.7a.47.47,0,0,1,.4.54l-.27,2.37a.48.48,0,0,1-.47.45L387.9,98.7C387.51,98.74,387.29,98.58,387.25,98.21Zm4.32,12.09.83-12.41c0-.27.21-.39.53-.38l2.8.27a.49.49,0,0,1,.41.58l0,12.36c0,.33-.14.46-.43.38l-3.69-.24A.48.48,0,0,1,391.57,110.3Z"/><path class="cls-1" d="M417.33,109l-5.71,1.86a.43.43,0,0,1-.45,0l-4.79-2.1a.62.62,0,0,1-.34-.47L404.3,93.55a.5.5,0,0,1,.44-.61l5.15-1.5c.42-.12.62,0,.61.43l-.74,14.06,2.82,1.95,4.75-1.84Zm-1.66.92-.54-17a.58.58,0,0,1,.45-.61l4.48-1.07c.36-.09.52.08.49.51l-2,18.59c0,.3-.19.42-.47.36l-2.08-.34C415.79,110.31,415.69,110.16,415.67,109.87Z"/><path class="cls-1" d="M423.56,108.64,430.37,91a.42.42,0,0,1,.56-.31l3.05.9c.28.07.38.26.31.56l-4.46,18.58a.53.53,0,0,1-.76.36l-5.17-1.66C423.55,109.33,423.44,109.07,423.56,108.64Zm5.94-6.36,5.37.67a.61.61,0,0,1,.56.74l0,2a.64.64,0,0,1-.56.65l-5.4.16Zm2.24-8.57,2.59-.9a.53.53,0,0,1,.68.4l6.87,15.16c.13.32.1.54-.11.67L437.94,111c-.37.2-.64.09-.81-.31Z"/><path class="cls-1" d="M446.19,110.57l-1.35-18a.6.6,0,0,1,.5-.72L451,91c.36-.06.51.12.45.52l-2.06,15.25L459,105c.43-.06.6.16.51.67l-.69,4.48a.58.58,0,0,1-.56.47l-11.49.44A.5.5,0,0,1,446.19,110.57Z"/><path class="cls-1" d="M469.38,109.54l1-18.84a.36.36,0,0,1,.22-.34.4.4,0,0,1,.43.14l10.59,14c.17.18.15.35,0,.53l-1.48,1.46a.39.39,0,0,1-.61,0L475,101.9l.76,8.49c0,.42-.11.6-.45.56l-5.47-.85A.46.46,0,0,1,469.38,109.54Zm11.13.51-1.1-19c-.06-.42.15-.59.63-.5l5.42,1.55a.49.49,0,0,1,.31.58l-1.63,17.73c-.05.33-.2.48-.47.43l-2.71-.34A.44.44,0,0,1,480.51,110.05Z"/><path class="cls-1" d="M490.69,108.73c-.35.08-.53-.1-.56-.54l-1.66-15.11c-.05-.45.16-.68.63-.7l13.66-.91c.56,0,.76.23.58.71l-.76,4.73c0,.3-.22.45-.56.45h-8.31l-.27,11c0,.22-.16.36-.42.4Zm-1.26-.63a.52.52,0,0,1,.45-.67L502,106c.34,0,.51.15.49.51l-.33,4c0,.25-.21.36-.54.31l-11.2-.31a.43.43,0,0,1-.47-.38Zm3.61-6.89a.47.47,0,0,1,.31-.68l7.23-1.32c.38-.06.55.13.52.56l-.4,3.86q0,.42-.54.51l-5.78,0a.46.46,0,0,1-.58-.36Z"/><path class="cls-1" d="M508.34,108.73c-.34.08-.53-.1-.56-.54l-1.66-15.11c0-.45.17-.68.63-.7l13.66-.91c.57,0,.76.23.58.71l-.76,4.73c0,.3-.22.45-.56.45h-8.31l-.26,11a.44.44,0,0,1-.43.4Zm-1.25-.63a.52.52,0,0,1,.44-.67L519.6,106c.35,0,.51.15.5.51l-.34,4c0,.25-.21.36-.54.31L508,110.48a.42.42,0,0,1-.47-.38Zm3.6-6.89a.47.47,0,0,1,.32-.68l7.23-1.32c.37-.06.54.13.51.56l-.4,3.86q0,.42-.54.51l-5.77,0a.47.47,0,0,1-.59-.36Z"/><path class="cls-1" d="M525.1,98.21l-.92-5.83c-.06-.4.15-.56.63-.49l13.77,1.7a.46.46,0,0,1,.4.54l-.27,2.37c-.06.29-.21.44-.47.45L525.75,98.7C525.36,98.74,525.14,98.58,525.1,98.21Zm4.32,12.09.83-12.41c0-.27.21-.39.54-.38l2.8.27a.49.49,0,0,1,.4.58l0,12.36c0,.33-.14.46-.42.38l-3.7-.24A.49.49,0,0,1,529.42,110.3Z"/><g id="logo"><path class="cls-1" d="M36.91,12,24.21,7.21l-.37-.12.9-2.8a.27.27,0,0,0-.18-.35l-1.19-.38a.27.27,0,0,0-.35.18L20.37,12,.23,73.52c-.53,1.59-.15,2.59,1.15,3L20.6,83.75a3,3,0,0,0,.37.11l-.58,2.71a.56.56,0,0,0,.43.66l.68.14a.54.54,0,0,0,.65-.42l1.72-8.06,14-64.53C38.23,13.12,37.91,12.33,36.91,12Z"/><path class="cls-1" d="M73.79,77,72.14,73.3s0-.09,0-.13L54.28,32.08C54,31.14,53.22,30.79,52,31L40.61,33.49h0L40,31.07a.28.28,0,0,0-.33-.21l-1.22.29a.27.27,0,0,0-.21.32l1.16,5.05,10.09,46c.29,1.24,1,1.68,2.12,1.33l19.51-8.32,1,2.25a.56.56,0,0,0,.74.28l.63-.28A.55.55,0,0,0,73.79,77Z"/><path class="cls-1" d="M56.68,28.48l-.94-2A11.27,11.27,0,0,0,45.06,20l-2.3.1h0A14.66,14.66,0,0,0,51.15,6.17h0a14.64,14.64,0,0,0,13.91,8.39h0a14.43,14.43,0,0,0-8.39,13.63Z"/><path class="cls-1" d="M69.51,19.73,69.37,18a8.71,8.71,0,0,0-6-7.58L61.66,9.9h0a11.34,11.34,0,0,0,9.83-7.85h0a11.34,11.34,0,0,0,7.85,9.83h0a11.17,11.17,0,0,0-9.76,7.64Z"/><path class="cls-1" d="M134.89,34.21a.27.27,0,0,0-.28-.27l-31.67.56-17.32.14c-1.41,0-2,.76-1.77,2.11l3.26,21-3.55.63a.41.41,0,0,0-.33.47l.17,1a.4.4,0,0,0,.47.33l4.81-.84a1.76,1.76,0,0,0,.38,0l39.76-7q1.5-.18,1.5-1.5l.53-15v-.06l3.79-.06a.3.3,0,0,0,.28-.29Z"/><path class="cls-1" d="M203.06,32.11a.27.27,0,0,0-.32-.22l-11.12,2-5.9.95.36-4a1.78,1.78,0,0,0-1.06-2.2l-6.21-1.31,11.59-1.51c1.47-.06,2.12-.74,1.94-2L189.17,1.31C189,.13,188.29-.25,187.05.16L155.57,12.42l-.22.11-4.26,1.65a.41.41,0,0,0-.23.53l.36.92a.4.4,0,0,0,.53.23l2.89-1.12,2.43,13.63a1.85,1.85,0,0,0,2.29,1.5l12.48-1.63L169,37.5l-22,3.57c-1.41.3-1.94,1.09-1.59,2.38l4.24,19c.35,1.29,1.08,1.73,2.2,1.32l10.25-3.46-5.05,16.69a1.82,1.82,0,0,0,1.5,2.55L178.76,84c1.59.41,2.47,0,2.65-1.32l2.68-29.75,14.78-5a2.11,2.11,0,0,0,1.41-2.12l-.44-11.28c0-.12,0-.22,0-.32l3.21-.56a.28.28,0,0,0,.23-.33Z"/><path class="cls-1" d="M261,46.8l-18.72-5.61.07-1.89.87-21.19a.29.29,0,0,0-.27-.29l-1.25-.05a.28.28,0,0,0-.29.26l-.14,3.46-19.41-1c-1.12-.12-1.59.44-1.41,1.67l1.83,13.08-.89-.26-8.75-2.69a.26.26,0,0,0-.34.18l-.37,1.2a.26.26,0,0,0,.18.34l3.13,1L214,57.56q-.09,1.68,1.59,1.5l10-.53L229,83c.17,1,.85,1.44,2,1.32l8.11-.7a1.74,1.74,0,0,0,1.67-1.85l.87-24.12,5.75-.31-1.15,11.29q-.09,1.41,1.59,1.41l6.12-.63-.71,2.65a.56.56,0,0,0,.39.69l.67.18a.55.55,0,0,0,.68-.39l1.06-3.91a2,2,0,0,0,.08-.26l5.46-20.11C261.89,47.54,261.68,47,261,46.8Z"/><path class="cls-1" d="M299.45,38l-11.64-2.3a1.76,1.76,0,0,0-2.29,1.15l-4.89,17.24,0,.06L273.88,77.3a.55.55,0,0,0,.38.69l.67.19a.55.55,0,0,0,.68-.37l.72-2.48,18.36,5.15c1.29.36,2.06,0,2.29-1L301,40.54A2,2,0,0,0,299.45,38Z"/><path class="cls-1" d="M344.16,73.7l-3.44-12.26a3.64,3.64,0,0,0-.11-.39l3.08-.48a.27.27,0,0,0,.22-.31L343.72,59a.27.27,0,0,0-.31-.23l-18.67,2.89-1.3.2,4-49.64a1.91,1.91,0,0,0-1.94-2.38L302.8,6.77a6.33,6.33,0,0,0-.78-.11l-.28-2.57a.26.26,0,0,0-.3-.24L300.19,4a.27.27,0,0,0-.24.3l.66,6.24,7,71.11c.05,1.29.67,1.73,1.85,1.32l33.15-7C343.86,75.49,344.39,74.75,344.16,73.7Z"/><path class="cls-1" d="M359.27,22.67a.75.75,0,0,0,0,.15l2,18.69c.12,1.47.79,2.06,2,1.77L398,37.37a1.91,1.91,0,0,0,1.5-2.12L399,24.94c0-1.06-.65-1.62-1.94-1.68L361,21h0l-4.43-.28a.56.56,0,0,0-.59.52l0,.69a.55.55,0,0,0,.51.59Z"/><path class="cls-1" d="M410,67.15l-.38-1.2a.27.27,0,0,0-.34-.18l-2.54.81-.87-11.84c0-1.29-.73-1.85-2.2-1.68L358.39,59c-1.59.24-2.29.94-2.12,2.12l2.47,20.36c.29,1.47,1.09,2,2.38,1.68l38.27-12.32,10.47-3.32A.26.26,0,0,0,410,67.15Z"/><path class="cls-1" d="M471.51,50a.26.26,0,0,0-.31-.22l-3,.5.51-14.41q.16-1.5-1.41-1.59l-41.43.34h-7.24a.56.56,0,0,0-.56.55v.7a.55.55,0,0,0,.55.55h3.06c0,.11,0,.21,0,.33L425,57.82c.24,1.18.89,1.68,1.94,1.5l37.92-6.64,6.65-1.12a.27.27,0,0,0,.22-.32Z"/><path class="cls-1" d="M537.9,35.78a.27.27,0,0,0-.31-.23l-14,1.94L508.4,39.43l2.86-32.92c.06-1.59-.62-2.44-2-2.56L486.13,5a4.16,4.16,0,0,0-.63.09l-.25-2.57a.26.26,0,0,0-.29-.24l-1.26.12a.26.26,0,0,0-.24.3l.43,4.41a4.59,4.59,0,0,0,0,.62l6.44,73.19c.05,1.64.82,2.38,2.29,2.2l10.25-1.29-.22,2.53a.57.57,0,0,0,.51.61l.69,0a.54.54,0,0,0,.6-.5l.59-7L507,55.35l23.65,4.94c1.59.53,2.41-.08,2.47-1.85l2.12-19.57a4.15,4.15,0,0,0,0-1.18l2.61-.36a.27.27,0,0,0,.23-.31Z"/></g></g></g></svg>